<?xml version="1.0" encoding="UTF-8" standalone="no"?>
<!DOCTYPE svg PUBLIC "-//W3C//DTD SVG 1.1//EN"
 "http://www.w3.org/Graphics/SVG/1.1/DTD/svg11.dtd">
<!-- Generated by graphviz version 2.43.0 (0)
 -->
<!-- Title: G Pages: 1 -->
<svg width="1479pt" height="279pt"
 viewBox="0.00 0.00 1479.00 279.00" xmlns="http://www.w3.org/2000/svg" xmlns:xlink="http://www.w3.org/1999/xlink">
<g id="graph0" class="graph" transform="scale(1 1) rotate(0) translate(4 275)">
<title>G</title>
<polygon fill="white" stroke="transparent" points="-4,4 -4,-275 1475,-275 1475,4 -4,4"/>
<!-- /req/obs&#45;basic/gen/link&#45;sem -->
<g id="node1" class="node">
<title>/req/obs&#45;basic/gen/link&#45;sem</title>
<polygon fill="none" stroke="black" points="572,-263 361,-263 361,-227 572,-227 572,-263"/>
<text text-anchor="middle" x="466.5" y="-241.3" font-family="Times,serif" font-size="14.00">/req/obs&#45;basic/gen/link&#45;sem</text>
</g>
<!-- /req/obs&#45;core/AbstractDeployment/deploymentReason&#45;sem -->
<g id="node2" class="node">
<title>/req/obs&#45;core/AbstractDeployment/deploymentReason&#45;sem</title>
<polygon fill="none" stroke="black" points="1118,-271 683,-271 683,-235 1118,-235 1118,-271"/>
<text text-anchor="middle" x="900.5" y="-249.3" font-family="Times,serif" font-size="14.00">/req/obs&#45;core/AbstractDeployment/deploymentReason&#45;sem</text>
</g>
<!-- /req/obs&#45;core/AbstractDeployment/deploymentTime&#45;sem -->
<g id="node3" class="node">
<title>/req/obs&#45;core/AbstractDeployment/deploymentTime&#45;sem</title>
<polygon fill="none" stroke="black" points="1110,-217 691,-217 691,-181 1110,-181 1110,-217"/>
<text text-anchor="middle" x="900.5" y="-195.3" font-family="Times,serif" font-size="14.00">/req/obs&#45;core/AbstractDeployment/deploymentTime&#45;sem</text>
</g>
<!-- /req/obs&#45;core/gen/metadata&#45;sem -->
<g id="node4" class="node">
<title>/req/obs&#45;core/gen/metadata&#45;sem</title>
<polygon fill="none" stroke="black" points="1023.5,-163 777.5,-163 777.5,-127 1023.5,-127 1023.5,-163"/>
<text text-anchor="middle" x="900.5" y="-141.3" font-family="Times,serif" font-size="14.00">/req/obs&#45;core/gen/metadata&#45;sem</text>
</g>
<!-- /req/obs&#45;cpt/Deployment/Deployment&#45;sem -->
<g id="node5" class="node">
<title>/req/obs&#45;cpt/Deployment/Deployment&#45;sem</title>
<polygon fill="none" stroke="black" points="1471,-144 1154,-144 1154,-108 1471,-108 1471,-144"/>
<text text-anchor="middle" x="1312.5" y="-122.3" font-family="Times,serif" font-size="14.00">/req/obs&#45;cpt/Deployment/Deployment&#45;sem</text>
</g>
<!-- /req/obs&#45;cpt/Deployment/observer&#45;sem -->
<g id="node6" class="node">
<title>/req/obs&#45;cpt/Deployment/observer&#45;sem</title>
<polygon fill="none" stroke="black" points="1459,-90 1166,-90 1166,-54 1459,-54 1459,-90"/>
<text text-anchor="middle" x="1312.5" y="-68.3" font-family="Times,serif" font-size="14.00">/req/obs&#45;cpt/Deployment/observer&#45;sem</text>
</g>
<!-- /req/obs&#45;cpt/Deployment/host&#45;sem -->
<g id="node7" class="node">
<title>/req/obs&#45;cpt/Deployment/host&#45;sem</title>
<polygon fill="none" stroke="black" points="1443,-36 1182,-36 1182,0 1443,0 1443,-36"/>
<text text-anchor="middle" x="1312.5" y="-14.3" font-family="Times,serif" font-size="14.00">/req/obs&#45;cpt/Deployment/host&#45;sem</text>
</g>
<!-- /req/obs&#45;basic/Deployment -->
<g id="node8" class="node">
<title>/req/obs&#45;basic/Deployment</title>
<polygon fill="none" stroke="black" points="3,-220 3,-241 247,-241 247,-220 3,-220"/>
<text text-anchor="start" x="30" y="-226.8" font-family="Times,serif" font-size="14.00">/req/obs&#45;basic/Deployment</text>
<polygon fill="none" stroke="black" points="3,-197 3,-218 247,-218 247,-197 3,-197"/>
<text text-anchor="start" x="6" y="-203.8" font-family="Times,serif" font-size="14.00">Basic Observations &#45; Deployment</text>
<polygon fill="none" stroke="black" points="3,-174 3,-195 247,-195 247,-174 3,-174"/>
<text text-anchor="start" x="75" y="-180.8" font-family="Times,serif" font-size="14.00">Logical model</text>
<polygon fill="none" stroke="black" points="0,-171.5 0,-244.5 250,-244.5 250,-171.5 0,-171.5"/>
</g>
<!-- /req/obs&#45;basic/Deployment&#45;&gt;/req/obs&#45;basic/gen/link&#45;sem -->
<g id="edge1" class="edge">
<title>/req/obs&#45;basic/Deployment&#45;&gt;/req/obs&#45;basic/gen/link&#45;sem</title>
<path fill="none" stroke="black" d="M250.01,-221.51C282.97,-225.11 318.41,-228.97 350.85,-232.5"/>
<polygon fill="black" stroke="black" points="350.49,-235.99 360.81,-233.59 351.25,-229.03 350.49,-235.99"/>
</g>
<!-- /req/obs&#45;core/AbstractDeployment -->
<g id="node9" class="node">
<title>/req/obs&#45;core/AbstractDeployment</title>
<polygon fill="none" stroke="black" points="289.5,-184 289.5,-205 644.5,-205 644.5,-184 289.5,-184"/>
<text text-anchor="start" x="344.5" y="-190.8" font-family="Times,serif" font-size="14.00">/req/obs&#45;core/AbstractDeployment</text>
<polygon fill="none" stroke="black" points="289.5,-161 289.5,-182 644.5,-182 644.5,-161 289.5,-161"/>
<text text-anchor="start" x="292.5" y="-167.8" font-family="Times,serif" font-size="14.00">Abstract Observation core &#45; AbstractDeployment</text>
<polygon fill="none" stroke="black" points="289.5,-138 289.5,-159 644.5,-159 644.5,-138 289.5,-138"/>
<text text-anchor="start" x="417" y="-144.8" font-family="Times,serif" font-size="14.00">Logical model</text>
<polygon fill="none" stroke="black" points="286,-135.5 286,-208.5 647,-208.5 647,-135.5 286,-135.5"/>
</g>
<!-- /req/obs&#45;basic/Deployment&#45;&gt;/req/obs&#45;core/AbstractDeployment -->
<g id="edge2" class="edge">
<title>/req/obs&#45;basic/Deployment&#45;&gt;/req/obs&#45;core/AbstractDeployment</title>
<path fill="none" stroke="black" stroke-dasharray="5,2" d="M250.01,-194.85C258.45,-193.96 267.05,-193.04 275.73,-192.12"/>
<polygon fill="black" stroke="black" points="276.36,-195.58 285.94,-191.04 275.63,-188.61 276.36,-195.58"/>
</g>
<!-- /req/obs&#45;core/AbstractDeployment&#45;&gt;/req/obs&#45;core/AbstractDeployment/deploymentReason&#45;sem -->
<g id="edge3" class="edge">
<title>/req/obs&#45;core/AbstractDeployment&#45;&gt;/req/obs&#45;core/AbstractDeployment/deploymentReason&#45;sem</title>
<path fill="none" stroke="black" d="M613.33,-208.54C651.9,-218.21 683,-226 683,-226 683,-226 710.05,-229.37 745.03,-233.74"/>
<polygon fill="black" stroke="black" points="744.74,-237.23 755.09,-234.99 745.6,-230.28 744.74,-237.23"/>
</g>
<!-- /req/obs&#45;core/AbstractDeployment&#45;&gt;/req/obs&#45;core/AbstractDeployment/deploymentTime&#45;sem -->
<g id="edge4" class="edge">
<title>/req/obs&#45;core/AbstractDeployment&#45;&gt;/req/obs&#45;core/AbstractDeployment/deploymentTime&#45;sem</title>
<path fill="none" stroke="black" d="M647.27,-183.24C658.26,-183.92 669.39,-184.62 680.53,-185.31"/>
<polygon fill="black" stroke="black" points="680.55,-188.82 690.75,-185.95 680.99,-181.84 680.55,-188.82"/>
</g>
<!-- /req/obs&#45;core/AbstractDeployment&#45;&gt;/req/obs&#45;core/gen/metadata&#45;sem -->
<g id="edge5" class="edge">
<title>/req/obs&#45;core/AbstractDeployment&#45;&gt;/req/obs&#45;core/gen/metadata&#45;sem</title>
<path fill="none" stroke="black" d="M647.27,-160.76C687.46,-158.25 729.38,-155.63 767.23,-153.27"/>
<polygon fill="black" stroke="black" points="767.52,-156.76 777.28,-152.64 767.08,-149.77 767.52,-156.76"/>
</g>
<!-- /req/obs&#45;cpt/Deployment -->
<g id="node10" class="node">
<title>/req/obs&#45;cpt/Deployment</title>
<polygon fill="none" stroke="black" points="761.5,-84 761.5,-105 1039.5,-105 1039.5,-84 761.5,-84"/>
<text text-anchor="start" x="812.5" y="-90.8" font-family="Times,serif" font-size="14.00">/req/obs&#45;cpt/Deployment</text>
<polygon fill="none" stroke="black" points="761.5,-61 761.5,-82 1039.5,-82 1039.5,-61 761.5,-61"/>
<text text-anchor="start" x="764.5" y="-67.8" font-family="Times,serif" font-size="14.00">Conceptual Observation &#45; Deployment</text>
<polygon fill="none" stroke="black" points="761.5,-38 761.5,-59 1039.5,-59 1039.5,-38 761.5,-38"/>
<text text-anchor="start" x="836" y="-44.8" font-family="Times,serif" font-size="14.00">Conceptual model</text>
<polygon fill="none" stroke="black" points="758.5,-35.5 758.5,-108.5 1042.5,-108.5 1042.5,-35.5 758.5,-35.5"/>
</g>
<!-- /req/obs&#45;core/AbstractDeployment&#45;&gt;/req/obs&#45;cpt/Deployment -->
<g id="edge6" class="edge">
<title>/req/obs&#45;core/AbstractDeployment&#45;&gt;/req/obs&#45;cpt/Deployment</title>
<path fill="none" stroke="black" stroke-dasharray="5,2" d="M613.33,-135.46C651.9,-125.79 683,-118 683,-118 683,-118 711.82,-111.88 748.43,-104.1"/>
<polygon fill="black" stroke="black" points="749.36,-107.48 758.42,-101.98 747.91,-100.63 749.36,-107.48"/>
</g>
<!-- /req/obs&#45;cpt/Deployment&#45;&gt;/req/obs&#45;cpt/Deployment/Deployment&#45;sem -->
<g id="edge7" class="edge">
<title>/req/obs&#45;cpt/Deployment&#45;&gt;/req/obs&#45;cpt/Deployment/Deployment&#45;sem</title>
<path fill="none" stroke="black" d="M1042.6,-90.58C1082,-95.77 1124.89,-101.42 1164.62,-106.65"/>
<polygon fill="black" stroke="black" points="1164.27,-110.14 1174.64,-107.98 1165.19,-103.2 1164.27,-110.14"/>
</g>
<!-- /req/obs&#45;cpt/Deployment&#45;&gt;/req/obs&#45;cpt/Deployment/observer&#45;sem -->
<g id="edge8" class="edge">
<title>/req/obs&#45;cpt/Deployment&#45;&gt;/req/obs&#45;cpt/Deployment/observer&#45;sem</title>
<path fill="none" stroke="black" d="M1042.6,-72C1079.02,-72 1118.42,-72 1155.55,-72"/>
<polygon fill="black" stroke="black" points="1155.96,-75.5 1165.96,-72 1155.96,-68.5 1155.96,-75.5"/>
</g>
<!-- /req/obs&#45;cpt/Deployment&#45;&gt;/req/obs&#45;cpt/Deployment/host&#45;sem -->
<g id="edge9" class="edge">
<title>/req/obs&#45;cpt/Deployment&#45;&gt;/req/obs&#45;cpt/Deployment/host&#45;sem</title>
<path fill="none" stroke="black" d="M1042.6,-53.42C1084.42,-47.91 1130.17,-41.88 1171.9,-36.39"/>
<polygon fill="black" stroke="black" points="1172.39,-39.85 1181.85,-35.08 1171.48,-32.91 1172.39,-39.85"/>
</g>
</g>
</svg>
