<?xml version="1.0" encoding="UTF-8" standalone="no"?>
<!DOCTYPE svg PUBLIC "-//W3C//DTD SVG 1.1//EN"
 "http://www.w3.org/Graphics/SVG/1.1/DTD/svg11.dtd">
<!-- Generated by graphviz version 2.43.0 (0)
 -->
<!-- Title: G Pages: 1 -->
<svg width="1193pt" height="279pt"
 viewBox="0.00 0.00 1193.00 279.00" xmlns="http://www.w3.org/2000/svg" xmlns:xlink="http://www.w3.org/1999/xlink">
<g id="graph0" class="graph" transform="scale(1 1) rotate(0) translate(4 275)">
<title>G</title>
<polygon fill="white" stroke="transparent" points="-4,4 -4,-275 1189,-275 1189,4 -4,4"/>
<!-- /req/obs&#45;core/AbstractDeployment/deploymentReason&#45;sem -->
<g id="node1" class="node">
<title>/req/obs&#45;core/AbstractDeployment/deploymentReason&#45;sem</title>
<polygon fill="none" stroke="black" points="832,-271 397,-271 397,-235 832,-235 832,-271"/>
<text text-anchor="middle" x="614.5" y="-249.3" font-family="Times,serif" font-size="14.00">/req/obs&#45;core/AbstractDeployment/deploymentReason&#45;sem</text>
</g>
<!-- /req/obs&#45;core/AbstractDeployment/deploymentTime&#45;sem -->
<g id="node2" class="node">
<title>/req/obs&#45;core/AbstractDeployment/deploymentTime&#45;sem</title>
<polygon fill="none" stroke="black" points="824,-217 405,-217 405,-181 824,-181 824,-217"/>
<text text-anchor="middle" x="614.5" y="-195.3" font-family="Times,serif" font-size="14.00">/req/obs&#45;core/AbstractDeployment/deploymentTime&#45;sem</text>
</g>
<!-- /req/obs&#45;core/gen/metadata&#45;sem -->
<g id="node3" class="node">
<title>/req/obs&#45;core/gen/metadata&#45;sem</title>
<polygon fill="none" stroke="black" points="737.5,-163 491.5,-163 491.5,-127 737.5,-127 737.5,-163"/>
<text text-anchor="middle" x="614.5" y="-141.3" font-family="Times,serif" font-size="14.00">/req/obs&#45;core/gen/metadata&#45;sem</text>
</g>
<!-- /req/obs&#45;cpt/Deployment/Deployment&#45;sem -->
<g id="node4" class="node">
<title>/req/obs&#45;cpt/Deployment/Deployment&#45;sem</title>
<polygon fill="none" stroke="black" points="1185,-144 868,-144 868,-108 1185,-108 1185,-144"/>
<text text-anchor="middle" x="1026.5" y="-122.3" font-family="Times,serif" font-size="14.00">/req/obs&#45;cpt/Deployment/Deployment&#45;sem</text>
</g>
<!-- /req/obs&#45;cpt/Deployment/observer&#45;sem -->
<g id="node5" class="node">
<title>/req/obs&#45;cpt/Deployment/observer&#45;sem</title>
<polygon fill="none" stroke="black" points="1173,-90 880,-90 880,-54 1173,-54 1173,-90"/>
<text text-anchor="middle" x="1026.5" y="-68.3" font-family="Times,serif" font-size="14.00">/req/obs&#45;cpt/Deployment/observer&#45;sem</text>
</g>
<!-- /req/obs&#45;cpt/Deployment/host&#45;sem -->
<g id="node6" class="node">
<title>/req/obs&#45;cpt/Deployment/host&#45;sem</title>
<polygon fill="none" stroke="black" points="1157,-36 896,-36 896,0 1157,0 1157,-36"/>
<text text-anchor="middle" x="1026.5" y="-14.3" font-family="Times,serif" font-size="14.00">/req/obs&#45;cpt/Deployment/host&#45;sem</text>
</g>
<!-- /req/obs&#45;core/AbstractDeployment -->
<g id="node7" class="node">
<title>/req/obs&#45;core/AbstractDeployment</title>
<polygon fill="none" stroke="black" points="3.5,-184 3.5,-205 358.5,-205 358.5,-184 3.5,-184"/>
<text text-anchor="start" x="58.5" y="-190.8" font-family="Times,serif" font-size="14.00">/req/obs&#45;core/AbstractDeployment</text>
<polygon fill="none" stroke="black" points="3.5,-161 3.5,-182 358.5,-182 358.5,-161 3.5,-161"/>
<text text-anchor="start" x="6.5" y="-167.8" font-family="Times,serif" font-size="14.00">Abstract Observation core &#45; AbstractDeployment</text>
<polygon fill="none" stroke="black" points="3.5,-138 3.5,-159 358.5,-159 358.5,-138 3.5,-138"/>
<text text-anchor="start" x="131" y="-144.8" font-family="Times,serif" font-size="14.00">Logical model</text>
<polygon fill="none" stroke="black" points="0,-135.5 0,-208.5 361,-208.5 361,-135.5 0,-135.5"/>
</g>
<!-- /req/obs&#45;core/AbstractDeployment&#45;&gt;/req/obs&#45;core/AbstractDeployment/deploymentReason&#45;sem -->
<g id="edge1" class="edge">
<title>/req/obs&#45;core/AbstractDeployment&#45;&gt;/req/obs&#45;core/AbstractDeployment/deploymentReason&#45;sem</title>
<path fill="none" stroke="black" d="M327.33,-208.54C365.9,-218.21 397,-226 397,-226 397,-226 424.05,-229.37 459.03,-233.74"/>
<polygon fill="black" stroke="black" points="458.74,-237.23 469.09,-234.99 459.6,-230.28 458.74,-237.23"/>
</g>
<!-- /req/obs&#45;core/AbstractDeployment&#45;&gt;/req/obs&#45;core/AbstractDeployment/deploymentTime&#45;sem -->
<g id="edge2" class="edge">
<title>/req/obs&#45;core/AbstractDeployment&#45;&gt;/req/obs&#45;core/AbstractDeployment/deploymentTime&#45;sem</title>
<path fill="none" stroke="black" d="M361.27,-183.24C372.26,-183.92 383.39,-184.62 394.53,-185.31"/>
<polygon fill="black" stroke="black" points="394.55,-188.82 404.75,-185.95 394.99,-181.84 394.55,-188.82"/>
</g>
<!-- /req/obs&#45;core/AbstractDeployment&#45;&gt;/req/obs&#45;core/gen/metadata&#45;sem -->
<g id="edge3" class="edge">
<title>/req/obs&#45;core/AbstractDeployment&#45;&gt;/req/obs&#45;core/gen/metadata&#45;sem</title>
<path fill="none" stroke="black" d="M361.27,-160.76C401.46,-158.25 443.38,-155.63 481.23,-153.27"/>
<polygon fill="black" stroke="black" points="481.52,-156.76 491.28,-152.64 481.08,-149.77 481.52,-156.76"/>
</g>
<!-- /req/obs&#45;cpt/Deployment -->
<g id="node8" class="node">
<title>/req/obs&#45;cpt/Deployment</title>
<polygon fill="none" stroke="black" points="475.5,-84 475.5,-105 753.5,-105 753.5,-84 475.5,-84"/>
<text text-anchor="start" x="526.5" y="-90.8" font-family="Times,serif" font-size="14.00">/req/obs&#45;cpt/Deployment</text>
<polygon fill="none" stroke="black" points="475.5,-61 475.5,-82 753.5,-82 753.5,-61 475.5,-61"/>
<text text-anchor="start" x="478.5" y="-67.8" font-family="Times,serif" font-size="14.00">Conceptual Observation &#45; Deployment</text>
<polygon fill="none" stroke="black" points="475.5,-38 475.5,-59 753.5,-59 753.5,-38 475.5,-38"/>
<text text-anchor="start" x="550" y="-44.8" font-family="Times,serif" font-size="14.00">Conceptual model</text>
<polygon fill="none" stroke="black" points="472.5,-35.5 472.5,-108.5 756.5,-108.5 756.5,-35.5 472.5,-35.5"/>
</g>
<!-- /req/obs&#45;core/AbstractDeployment&#45;&gt;/req/obs&#45;cpt/Deployment -->
<g id="edge4" class="edge">
<title>/req/obs&#45;core/AbstractDeployment&#45;&gt;/req/obs&#45;cpt/Deployment</title>
<path fill="none" stroke="black" stroke-dasharray="5,2" d="M327.33,-135.46C365.9,-125.79 397,-118 397,-118 397,-118 425.82,-111.88 462.43,-104.1"/>
<polygon fill="black" stroke="black" points="463.36,-107.48 472.42,-101.98 461.91,-100.63 463.36,-107.48"/>
</g>
<!-- /req/obs&#45;cpt/Deployment&#45;&gt;/req/obs&#45;cpt/Deployment/Deployment&#45;sem -->
<g id="edge5" class="edge">
<title>/req/obs&#45;cpt/Deployment&#45;&gt;/req/obs&#45;cpt/Deployment/Deployment&#45;sem</title>
<path fill="none" stroke="black" d="M756.6,-90.58C796,-95.77 838.89,-101.42 878.62,-106.65"/>
<polygon fill="black" stroke="black" points="878.27,-110.14 888.64,-107.98 879.19,-103.2 878.27,-110.14"/>
</g>
<!-- /req/obs&#45;cpt/Deployment&#45;&gt;/req/obs&#45;cpt/Deployment/observer&#45;sem -->
<g id="edge6" class="edge">
<title>/req/obs&#45;cpt/Deployment&#45;&gt;/req/obs&#45;cpt/Deployment/observer&#45;sem</title>
<path fill="none" stroke="black" d="M756.6,-72C793.02,-72 832.42,-72 869.55,-72"/>
<polygon fill="black" stroke="black" points="869.96,-75.5 879.96,-72 869.96,-68.5 869.96,-75.5"/>
</g>
<!-- /req/obs&#45;cpt/Deployment&#45;&gt;/req/obs&#45;cpt/Deployment/host&#45;sem -->
<g id="edge7" class="edge">
<title>/req/obs&#45;cpt/Deployment&#45;&gt;/req/obs&#45;cpt/Deployment/host&#45;sem</title>
<path fill="none" stroke="black" d="M756.6,-53.42C798.42,-47.91 844.17,-41.88 885.9,-36.39"/>
<polygon fill="black" stroke="black" points="886.39,-39.85 895.85,-35.08 885.48,-32.91 886.39,-39.85"/>
</g>
</g>
</svg>
