<?xml version="1.0" encoding="UTF-8" standalone="no"?>
<!DOCTYPE svg PUBLIC "-//W3C//DTD SVG 1.1//EN"
 "http://www.w3.org/Graphics/SVG/1.1/DTD/svg11.dtd">
<!-- Generated by graphviz version 2.43.0 (0)
 -->
<!-- Title: G Pages: 1 -->
<svg width="818pt" height="152pt"
 viewBox="0.00 0.00 818.00 152.00" xmlns="http://www.w3.org/2000/svg" xmlns:xlink="http://www.w3.org/1999/xlink">
<g id="graph0" class="graph" transform="scale(1 1) rotate(0) translate(4 148)">
<title>G</title>
<polygon fill="white" stroke="transparent" points="-4,4 -4,-148 814,-148 814,4 -4,4"/>
<!-- /req/obs&#45;cpt/ObservableProperty/ObservableProperty&#45;sem -->
<g id="node1" class="node">
<title>/req/obs&#45;cpt/ObservableProperty/ObservableProperty&#45;sem</title>
<polygon fill="none" stroke="black" points="810,-144 378,-144 378,-108 810,-108 810,-144"/>
<text text-anchor="middle" x="594" y="-122.3" font-family="Times,serif" font-size="14.00">/req/obs&#45;cpt/ObservableProperty/ObservableProperty&#45;sem</text>
</g>
<!-- /req/obs&#45;cpt/ObservableProperty/observer&#45;sem -->
<g id="node2" class="node">
<title>/req/obs&#45;cpt/ObservableProperty/observer&#45;sem</title>
<polygon fill="none" stroke="black" points="769.5,-90 418.5,-90 418.5,-54 769.5,-54 769.5,-90"/>
<text text-anchor="middle" x="594" y="-68.3" font-family="Times,serif" font-size="14.00">/req/obs&#45;cpt/ObservableProperty/observer&#45;sem</text>
</g>
<!-- /req/obs&#45;cpt/gen/relatedObservation&#45;sem -->
<g id="node3" class="node">
<title>/req/obs&#45;cpt/gen/relatedObservation&#45;sem</title>
<polygon fill="none" stroke="black" points="748,-36 440,-36 440,0 748,0 748,-36"/>
<text text-anchor="middle" x="594" y="-14.3" font-family="Times,serif" font-size="14.00">/req/obs&#45;cpt/gen/relatedObservation&#45;sem</text>
</g>
<!-- /req/obs&#45;cpt/ObservableProperty -->
<g id="node4" class="node">
<title>/req/obs&#45;cpt/ObservableProperty</title>
<polygon fill="none" stroke="black" points="3,-84 3,-105 339,-105 339,-84 3,-84"/>
<text text-anchor="start" x="54" y="-90.8" font-family="Times,serif" font-size="14.00">/req/obs&#45;cpt/ObservableProperty</text>
<polygon fill="none" stroke="black" points="3,-61 3,-82 339,-82 339,-61 3,-61"/>
<text text-anchor="start" x="6" y="-67.8" font-family="Times,serif" font-size="14.00">Conceptual Observation &#45; ObservableProperty</text>
<polygon fill="none" stroke="black" points="3,-38 3,-59 339,-59 339,-38 3,-38"/>
<text text-anchor="start" x="106.5" y="-44.8" font-family="Times,serif" font-size="14.00">Conceptual model</text>
<polygon fill="none" stroke="black" points="0,-35.5 0,-108.5 342,-108.5 342,-35.5 0,-35.5"/>
</g>
<!-- /req/obs&#45;cpt/ObservableProperty&#45;&gt;/req/obs&#45;cpt/ObservableProperty/ObservableProperty&#45;sem -->
<g id="edge1" class="edge">
<title>/req/obs&#45;cpt/ObservableProperty&#45;&gt;/req/obs&#45;cpt/ObservableProperty/ObservableProperty&#45;sem</title>
<path fill="none" stroke="black" d="M342.12,-94.3C363.47,-97.09 378,-99 378,-99 378,-99 404.86,-102.37 439.6,-106.74"/>
<polygon fill="black" stroke="black" points="439.23,-110.22 449.59,-107.99 440.11,-103.27 439.23,-110.22"/>
</g>
<!-- /req/obs&#45;cpt/ObservableProperty&#45;&gt;/req/obs&#45;cpt/ObservableProperty/observer&#45;sem -->
<g id="edge2" class="edge">
<title>/req/obs&#45;cpt/ObservableProperty&#45;&gt;/req/obs&#45;cpt/ObservableProperty/observer&#45;sem</title>
<path fill="none" stroke="black" d="M342.02,-72C363.79,-72 386.16,-72 408.15,-72"/>
<polygon fill="black" stroke="black" points="408.22,-75.5 418.22,-72 408.22,-68.5 408.22,-75.5"/>
</g>
<!-- /req/obs&#45;cpt/ObservableProperty&#45;&gt;/req/obs&#45;cpt/gen/relatedObservation&#45;sem -->
<g id="edge3" class="edge">
<title>/req/obs&#45;cpt/ObservableProperty&#45;&gt;/req/obs&#45;cpt/gen/relatedObservation&#45;sem</title>
<path fill="none" stroke="black" d="M342.12,-49.7C363.47,-46.91 378,-45 378,-45 378,-45 404.86,-41.63 439.6,-37.26"/>
<polygon fill="black" stroke="black" points="440.11,-40.73 449.59,-36.01 439.23,-33.78 440.11,-40.73"/>
</g>
</g>
</svg>
