<?xml version="1.0" encoding="UTF-8" standalone="no"?>
<!DOCTYPE svg PUBLIC "-//W3C//DTD SVG 1.1//EN"
 "http://www.w3.org/Graphics/SVG/1.1/DTD/svg11.dtd">
<!-- Generated by graphviz version 2.43.0 (0)
 -->
<!-- Title: G Pages: 1 -->
<svg width="1038pt" height="260pt"
 viewBox="0.00 0.00 1038.00 260.00" xmlns="http://www.w3.org/2000/svg" xmlns:xlink="http://www.w3.org/1999/xlink">
<g id="graph0" class="graph" transform="scale(1 1) rotate(0) translate(4 256)">
<title>G</title>
<polygon fill="white" stroke="transparent" points="-4,4 -4,-256 1034,-256 1034,4 -4,4"/>
<!-- /req/obs&#45;core/gen/metadata&#45;sem -->
<g id="node1" class="node">
<title>/req/obs&#45;core/gen/metadata&#45;sem</title>
<polygon fill="none" stroke="black" points="631,-217 385,-217 385,-181 631,-181 631,-217"/>
<text text-anchor="middle" x="508" y="-195.3" font-family="Times,serif" font-size="14.00">/req/obs&#45;core/gen/metadata&#45;sem</text>
</g>
<!-- /req/obs&#45;cpt/Observer/Observer&#45;sem -->
<g id="node2" class="node">
<title>/req/obs&#45;cpt/Observer/Observer&#45;sem</title>
<polygon fill="none" stroke="black" points="991,-252 715,-252 715,-216 991,-216 991,-252"/>
<text text-anchor="middle" x="853" y="-230.3" font-family="Times,serif" font-size="14.00">/req/obs&#45;cpt/Observer/Observer&#45;sem</text>
</g>
<!-- /req/obs&#45;cpt/Observer/observableProperty&#45;sem -->
<g id="node3" class="node">
<title>/req/obs&#45;cpt/Observer/observableProperty&#45;sem</title>
<polygon fill="none" stroke="black" points="1028.5,-198 677.5,-198 677.5,-162 1028.5,-162 1028.5,-198"/>
<text text-anchor="middle" x="853" y="-176.3" font-family="Times,serif" font-size="14.00">/req/obs&#45;cpt/Observer/observableProperty&#45;sem</text>
</g>
<!-- /req/obs&#45;cpt/Observer/observingProcedure&#45;sem -->
<g id="node4" class="node">
<title>/req/obs&#45;cpt/Observer/observingProcedure&#45;sem</title>
<polygon fill="none" stroke="black" points="1030,-144 676,-144 676,-108 1030,-108 1030,-144"/>
<text text-anchor="middle" x="853" y="-122.3" font-family="Times,serif" font-size="14.00">/req/obs&#45;cpt/Observer/observingProcedure&#45;sem</text>
</g>
<!-- /req/obs&#45;cpt/Observer/deployment&#45;sem -->
<g id="node5" class="node">
<title>/req/obs&#45;cpt/Observer/deployment&#45;sem</title>
<polygon fill="none" stroke="black" points="1000,-90 706,-90 706,-54 1000,-54 1000,-90"/>
<text text-anchor="middle" x="853" y="-68.3" font-family="Times,serif" font-size="14.00">/req/obs&#45;cpt/Observer/deployment&#45;sem</text>
</g>
<!-- /req/obs&#45;cpt/gen/relatedObservation&#45;sem -->
<g id="node6" class="node">
<title>/req/obs&#45;cpt/gen/relatedObservation&#45;sem</title>
<polygon fill="none" stroke="black" points="1007,-36 699,-36 699,0 1007,0 1007,-36"/>
<text text-anchor="middle" x="853" y="-14.3" font-family="Times,serif" font-size="14.00">/req/obs&#45;cpt/gen/relatedObservation&#45;sem</text>
</g>
<!-- /req/obs&#45;core/AbstractObserver -->
<g id="node7" class="node">
<title>/req/obs&#45;core/AbstractObserver</title>
<polygon fill="none" stroke="black" points="3,-174 3,-195 337,-195 337,-174 3,-174"/>
<text text-anchor="start" x="57.5" y="-180.8" font-family="Times,serif" font-size="14.00">/req/obs&#45;core/AbstractObserver</text>
<polygon fill="none" stroke="black" points="3,-151 3,-172 337,-172 337,-151 3,-151"/>
<text text-anchor="start" x="6" y="-157.8" font-family="Times,serif" font-size="14.00">Abstract Observation core &#45; AbstractObserver</text>
<polygon fill="none" stroke="black" points="3,-128 3,-149 337,-149 337,-128 3,-128"/>
<text text-anchor="start" x="120" y="-134.8" font-family="Times,serif" font-size="14.00">Logical model</text>
<polygon fill="none" stroke="black" points="0,-125.5 0,-198.5 340,-198.5 340,-125.5 0,-125.5"/>
</g>
<!-- /req/obs&#45;core/AbstractObserver&#45;&gt;/req/obs&#45;core/gen/metadata&#45;sem -->
<g id="edge1" class="edge">
<title>/req/obs&#45;core/AbstractObserver&#45;&gt;/req/obs&#45;core/gen/metadata&#45;sem</title>
<path fill="none" stroke="black" d="M340.48,-180.66C351.96,-181.93 363.44,-183.19 374.7,-184.43"/>
<polygon fill="black" stroke="black" points="374.64,-187.95 384.96,-185.56 375.41,-180.99 374.64,-187.95"/>
</g>
<!-- /req/obs&#45;cpt/Observer -->
<g id="node8" class="node">
<title>/req/obs&#45;cpt/Observer</title>
<polygon fill="none" stroke="black" points="379,-138 379,-159 637,-159 637,-138 379,-138"/>
<text text-anchor="start" x="430" y="-144.8" font-family="Times,serif" font-size="14.00">/req/obs&#45;cpt/Observer</text>
<polygon fill="none" stroke="black" points="379,-115 379,-136 637,-136 637,-115 379,-115"/>
<text text-anchor="start" x="382" y="-121.8" font-family="Times,serif" font-size="14.00">Conceptual Observation &#45; Observer</text>
<polygon fill="none" stroke="black" points="379,-92 379,-113 637,-113 637,-92 379,-92"/>
<text text-anchor="start" x="443.5" y="-98.8" font-family="Times,serif" font-size="14.00">Conceptual model</text>
<polygon fill="none" stroke="black" points="376,-89.5 376,-162.5 640,-162.5 640,-89.5 376,-89.5"/>
</g>
<!-- /req/obs&#45;core/AbstractObserver&#45;&gt;/req/obs&#45;cpt/Observer -->
<g id="edge2" class="edge">
<title>/req/obs&#45;core/AbstractObserver&#45;&gt;/req/obs&#45;cpt/Observer</title>
<path fill="none" stroke="black" stroke-dasharray="5,2" d="M340.48,-143.84C348.94,-142.93 357.4,-142.03 365.77,-141.13"/>
<polygon fill="black" stroke="black" points="366.36,-144.59 375.93,-140.04 365.61,-137.63 366.36,-144.59"/>
</g>
<!-- /req/obs&#45;cpt/Observer&#45;&gt;/req/obs&#45;cpt/Observer/Observer&#45;sem -->
<g id="edge3" class="edge">
<title>/req/obs&#45;cpt/Observer&#45;&gt;/req/obs&#45;cpt/Observer/Observer&#45;sem</title>
<path fill="none" stroke="black" d="M613.17,-162.58C628.91,-168.1 640,-172 640,-172 640,-172 676,-207 676,-207 676,-207 697.06,-210.23 724.61,-214.46"/>
<polygon fill="black" stroke="black" points="724.19,-217.93 734.61,-215.99 725.25,-211.01 724.19,-217.93"/>
</g>
<!-- /req/obs&#45;cpt/Observer&#45;&gt;/req/obs&#45;cpt/Observer/observableProperty&#45;sem -->
<g id="edge4" class="edge">
<title>/req/obs&#45;cpt/Observer&#45;&gt;/req/obs&#45;cpt/Observer/observableProperty&#45;sem</title>
<path fill="none" stroke="black" d="M640.17,-147.21C661.09,-150.59 676,-153 676,-153 676,-153 697.06,-156.23 724.61,-160.46"/>
<polygon fill="black" stroke="black" points="724.19,-163.93 734.61,-161.99 725.25,-157.01 724.19,-163.93"/>
</g>
<!-- /req/obs&#45;cpt/Observer&#45;&gt;/req/obs&#45;cpt/Observer/observingProcedure&#45;sem -->
<g id="edge5" class="edge">
<title>/req/obs&#45;cpt/Observer&#45;&gt;/req/obs&#45;cpt/Observer/observingProcedure&#45;sem</title>
<path fill="none" stroke="black" d="M640.14,-126C648.57,-126 657.14,-126 665.75,-126"/>
<polygon fill="black" stroke="black" points="665.88,-129.5 675.88,-126 665.88,-122.5 665.88,-129.5"/>
</g>
<!-- /req/obs&#45;cpt/Observer&#45;&gt;/req/obs&#45;cpt/Observer/deployment&#45;sem -->
<g id="edge6" class="edge">
<title>/req/obs&#45;cpt/Observer&#45;&gt;/req/obs&#45;cpt/Observer/deployment&#45;sem</title>
<path fill="none" stroke="black" d="M640.17,-104.79C661.09,-101.41 676,-99 676,-99 676,-99 697.06,-95.77 724.61,-91.54"/>
<polygon fill="black" stroke="black" points="725.25,-94.99 734.61,-90.01 724.19,-88.07 725.25,-94.99"/>
</g>
<!-- /req/obs&#45;cpt/Observer&#45;&gt;/req/obs&#45;cpt/gen/relatedObservation&#45;sem -->
<g id="edge7" class="edge">
<title>/req/obs&#45;cpt/Observer&#45;&gt;/req/obs&#45;cpt/gen/relatedObservation&#45;sem</title>
<path fill="none" stroke="black" d="M584.68,-89.29C628.87,-67.86 676,-45 676,-45 676,-45 697.06,-41.77 724.61,-37.54"/>
<polygon fill="black" stroke="black" points="725.25,-40.99 734.61,-36.01 724.19,-34.07 725.25,-40.99"/>
</g>
</g>
</svg>
