<?xml version="1.0" encoding="UTF-8" standalone="no"?>
<!DOCTYPE svg PUBLIC "-//W3C//DTD SVG 1.1//EN"
 "http://www.w3.org/Graphics/SVG/1.1/DTD/svg11.dtd">
<!-- Generated by graphviz version 2.43.0 (0)
 -->
<!-- Title: G Pages: 1 -->
<svg width="680pt" height="152pt"
 viewBox="0.00 0.00 680.00 152.00" xmlns="http://www.w3.org/2000/svg" xmlns:xlink="http://www.w3.org/1999/xlink">
<g id="graph0" class="graph" transform="scale(1 1) rotate(0) translate(4 148)">
<title>G</title>
<polygon fill="white" stroke="transparent" points="-4,4 -4,-148 676,-148 676,4 -4,4"/>
<!-- /req/obs&#45;core/NamedValue/NamedValue&#45;sem -->
<g id="node1" class="node">
<title>/req/obs&#45;core/NamedValue/NamedValue&#45;sem</title>
<polygon fill="none" stroke="black" points="672,-144 340,-144 340,-108 672,-108 672,-144"/>
<text text-anchor="middle" x="506" y="-122.3" font-family="Times,serif" font-size="14.00">/req/obs&#45;core/NamedValue/NamedValue&#45;sem</text>
</g>
<!-- /req/obs&#45;core/NamedValue/name&#45;sem -->
<g id="node2" class="node">
<title>/req/obs&#45;core/NamedValue/name&#45;sem</title>
<polygon fill="none" stroke="black" points="646.5,-90 365.5,-90 365.5,-54 646.5,-54 646.5,-90"/>
<text text-anchor="middle" x="506" y="-68.3" font-family="Times,serif" font-size="14.00">/req/obs&#45;core/NamedValue/name&#45;sem</text>
</g>
<!-- /req/obs&#45;core/NamedValue/value&#45;sem -->
<g id="node3" class="node">
<title>/req/obs&#45;core/NamedValue/value&#45;sem</title>
<polygon fill="none" stroke="black" points="646.5,-36 365.5,-36 365.5,0 646.5,0 646.5,-36"/>
<text text-anchor="middle" x="506" y="-14.3" font-family="Times,serif" font-size="14.00">/req/obs&#45;core/NamedValue/value&#45;sem</text>
</g>
<!-- /req/obs&#45;core/NamedValue -->
<g id="node4" class="node">
<title>/req/obs&#45;core/NamedValue</title>
<polygon fill="none" stroke="black" points="3,-84 3,-105 301,-105 301,-84 3,-84"/>
<text text-anchor="start" x="58" y="-90.8" font-family="Times,serif" font-size="14.00">/req/obs&#45;core/NamedValue</text>
<polygon fill="none" stroke="black" points="3,-61 3,-82 301,-82 301,-61 3,-61"/>
<text text-anchor="start" x="6" y="-67.8" font-family="Times,serif" font-size="14.00">Abstract Observation core &#45; NamedValue</text>
<polygon fill="none" stroke="black" points="3,-38 3,-59 301,-59 301,-38 3,-38"/>
<text text-anchor="start" x="102" y="-44.8" font-family="Times,serif" font-size="14.00">Logical model</text>
<polygon fill="none" stroke="black" points="0,-35.5 0,-108.5 304,-108.5 304,-35.5 0,-35.5"/>
</g>
<!-- /req/obs&#45;core/NamedValue&#45;&gt;/req/obs&#45;core/NamedValue/NamedValue&#45;sem -->
<g id="edge1" class="edge">
<title>/req/obs&#45;core/NamedValue&#45;&gt;/req/obs&#45;core/NamedValue/NamedValue&#45;sem</title>
<path fill="none" stroke="black" d="M304.07,-95.18C328.54,-98.93 353.67,-102.78 377.51,-106.44"/>
<polygon fill="black" stroke="black" points="377.23,-109.94 387.65,-108 378.29,-103.02 377.23,-109.94"/>
</g>
<!-- /req/obs&#45;core/NamedValue&#45;&gt;/req/obs&#45;core/NamedValue/name&#45;sem -->
<g id="edge2" class="edge">
<title>/req/obs&#45;core/NamedValue&#45;&gt;/req/obs&#45;core/NamedValue/name&#45;sem</title>
<path fill="none" stroke="black" d="M304.07,-72C320.9,-72 338.04,-72 354.86,-72"/>
<polygon fill="black" stroke="black" points="355.29,-75.5 365.29,-72 355.29,-68.5 355.29,-75.5"/>
</g>
<!-- /req/obs&#45;core/NamedValue&#45;&gt;/req/obs&#45;core/NamedValue/value&#45;sem -->
<g id="edge3" class="edge">
<title>/req/obs&#45;core/NamedValue&#45;&gt;/req/obs&#45;core/NamedValue/value&#45;sem</title>
<path fill="none" stroke="black" d="M304.07,-48.82C328.54,-45.07 353.67,-41.22 377.51,-37.56"/>
<polygon fill="black" stroke="black" points="378.29,-40.98 387.65,-36 377.23,-34.06 378.29,-40.98"/>
</g>
</g>
</svg>
