<?xml version="1.0" encoding="UTF-8" standalone="no"?>
<!DOCTYPE svg PUBLIC "-//W3C//DTD SVG 1.1//EN"
 "http://www.w3.org/Graphics/SVG/1.1/DTD/svg11.dtd">
<!-- Generated by graphviz version 2.43.0 (0)
 -->
<!-- Title: G Pages: 1 -->
<svg width="1353pt" height="225pt"
 viewBox="0.00 0.00 1353.00 225.00" xmlns="http://www.w3.org/2000/svg" xmlns:xlink="http://www.w3.org/1999/xlink">
<g id="graph0" class="graph" transform="scale(1 1) rotate(0) translate(4 221)">
<title>G</title>
<polygon fill="white" stroke="transparent" points="-4,4 -4,-221 1349,-221 1349,4 -4,4"/>
<!-- /req/sam&#45;core/AbstractSampler/samplerType&#45;sem -->
<g id="node1" class="node">
<title>/req/sam&#45;core/AbstractSampler/samplerType&#45;sem</title>
<polygon fill="none" stroke="black" points="933,-217 563,-217 563,-181 933,-181 933,-217"/>
<text text-anchor="middle" x="748" y="-195.3" font-family="Times,serif" font-size="14.00">/req/sam&#45;core/AbstractSampler/samplerType&#45;sem</text>
</g>
<!-- /req/obs&#45;core/gen/metadata&#45;sem -->
<g id="node2" class="node">
<title>/req/obs&#45;core/gen/metadata&#45;sem</title>
<polygon fill="none" stroke="black" points="871,-163 625,-163 625,-127 871,-127 871,-163"/>
<text text-anchor="middle" x="748" y="-141.3" font-family="Times,serif" font-size="14.00">/req/obs&#45;core/gen/metadata&#45;sem</text>
</g>
<!-- /req/sam&#45;cpt/Sampler/Sampler&#45;sem -->
<g id="node3" class="node">
<title>/req/sam&#45;cpt/Sampler/Sampler&#45;sem</title>
<polygon fill="none" stroke="black" points="1291.5,-144 1022.5,-144 1022.5,-108 1291.5,-108 1291.5,-144"/>
<text text-anchor="middle" x="1157" y="-122.3" font-family="Times,serif" font-size="14.00">/req/sam&#45;cpt/Sampler/Sampler&#45;sem</text>
</g>
<!-- /req/sam&#45;cpt/Sampler/sampling&#45;sem -->
<g id="node4" class="node">
<title>/req/sam&#45;cpt/Sampler/sampling&#45;sem</title>
<polygon fill="none" stroke="black" points="1294,-90 1020,-90 1020,-54 1294,-54 1294,-90"/>
<text text-anchor="middle" x="1157" y="-68.3" font-family="Times,serif" font-size="14.00">/req/sam&#45;cpt/Sampler/sampling&#45;sem</text>
</g>
<!-- /req/sam&#45;cpt/Sampler/implementedProcedure&#45;sem -->
<g id="node5" class="node">
<title>/req/sam&#45;cpt/Sampler/implementedProcedure&#45;sem</title>
<polygon fill="none" stroke="black" points="1345,-36 969,-36 969,0 1345,0 1345,-36"/>
<text text-anchor="middle" x="1157" y="-14.3" font-family="Times,serif" font-size="14.00">/req/sam&#45;cpt/Sampler/implementedProcedure&#45;sem</text>
</g>
<!-- /req/sam&#45;basic/Sampler -->
<g id="node6" class="node">
<title>/req/sam&#45;basic/Sampler</title>
<polygon fill="none" stroke="black" points="3,-157 3,-178 187,-178 187,-157 3,-157"/>
<text text-anchor="start" x="10.5" y="-163.8" font-family="Times,serif" font-size="14.00">/req/sam&#45;basic/Sampler</text>
<polygon fill="none" stroke="black" points="3,-134 3,-155 187,-155 187,-134 3,-134"/>
<text text-anchor="start" x="6" y="-140.8" font-family="Times,serif" font-size="14.00">Basic Samples &#45; Sampler</text>
<polygon fill="none" stroke="black" points="3,-111 3,-132 187,-132 187,-111 3,-111"/>
<text text-anchor="start" x="45" y="-117.8" font-family="Times,serif" font-size="14.00">Logical model</text>
<polygon fill="none" stroke="black" points="0,-108.5 0,-181.5 190,-181.5 190,-108.5 0,-108.5"/>
</g>
<!-- /req/sam&#45;core/AbstractSampler -->
<g id="node7" class="node">
<title>/req/sam&#45;core/AbstractSampler</title>
<polygon fill="none" stroke="black" points="229.5,-157 229.5,-178 524.5,-178 524.5,-157 229.5,-157"/>
<text text-anchor="start" x="265.5" y="-163.8" font-family="Times,serif" font-size="14.00">/req/sam&#45;core/AbstractSampler</text>
<polygon fill="none" stroke="black" points="229.5,-134 229.5,-155 524.5,-155 524.5,-134 229.5,-134"/>
<text text-anchor="start" x="232.5" y="-140.8" font-family="Times,serif" font-size="14.00">Abstract Sample core &#45; AbstractSampler</text>
<polygon fill="none" stroke="black" points="229.5,-111 229.5,-132 524.5,-132 524.5,-111 229.5,-111"/>
<text text-anchor="start" x="327" y="-117.8" font-family="Times,serif" font-size="14.00">Logical model</text>
<polygon fill="none" stroke="black" points="226,-108.5 226,-181.5 527,-181.5 527,-108.5 226,-108.5"/>
</g>
<!-- /req/sam&#45;basic/Sampler&#45;&gt;/req/sam&#45;core/AbstractSampler -->
<g id="edge1" class="edge">
<title>/req/sam&#45;basic/Sampler&#45;&gt;/req/sam&#45;core/AbstractSampler</title>
<path fill="none" stroke="black" stroke-dasharray="5,2" d="M190.24,-145C198.55,-145 207.11,-145 215.77,-145"/>
<polygon fill="black" stroke="black" points="215.98,-148.5 225.98,-145 215.98,-141.5 215.98,-148.5"/>
</g>
<!-- /req/sam&#45;core/AbstractSampler&#45;&gt;/req/sam&#45;core/AbstractSampler/samplerType&#45;sem -->
<g id="edge2" class="edge">
<title>/req/sam&#45;core/AbstractSampler&#45;&gt;/req/sam&#45;core/AbstractSampler/samplerType&#45;sem</title>
<path fill="none" stroke="black" d="M527.26,-166.89C555.76,-171.05 585.42,-175.39 613.39,-179.47"/>
<polygon fill="black" stroke="black" points="613.21,-182.98 623.61,-180.97 614.22,-176.06 613.21,-182.98"/>
</g>
<!-- /req/sam&#45;core/AbstractSampler&#45;&gt;/req/obs&#45;core/gen/metadata&#45;sem -->
<g id="edge3" class="edge">
<title>/req/sam&#45;core/AbstractSampler&#45;&gt;/req/obs&#45;core/gen/metadata&#45;sem</title>
<path fill="none" stroke="black" d="M527.26,-145C556.12,-145 586.17,-145 614.44,-145"/>
<polygon fill="black" stroke="black" points="614.77,-148.5 624.77,-145 614.77,-141.5 614.77,-148.5"/>
</g>
<!-- /req/sam&#45;cpt/Sampler -->
<g id="node8" class="node">
<title>/req/sam&#45;cpt/Sampler</title>
<polygon fill="none" stroke="black" points="639,-84 639,-105 857,-105 857,-84 639,-84"/>
<text text-anchor="start" x="671" y="-90.8" font-family="Times,serif" font-size="14.00">/req/sam&#45;cpt/Sampler</text>
<polygon fill="none" stroke="black" points="639,-61 639,-82 857,-82 857,-61 639,-61"/>
<text text-anchor="start" x="642" y="-67.8" font-family="Times,serif" font-size="14.00">Conceptual Sample &#45; Sampler</text>
<polygon fill="none" stroke="black" points="639,-38 639,-59 857,-59 857,-38 639,-38"/>
<text text-anchor="start" x="683.5" y="-44.8" font-family="Times,serif" font-size="14.00">Conceptual model</text>
<polygon fill="none" stroke="black" points="636,-35.5 636,-108.5 860,-108.5 860,-35.5 636,-35.5"/>
</g>
<!-- /req/sam&#45;core/AbstractSampler&#45;&gt;/req/sam&#45;cpt/Sampler -->
<g id="edge4" class="edge">
<title>/req/sam&#45;core/AbstractSampler&#45;&gt;/req/sam&#45;cpt/Sampler</title>
<path fill="none" stroke="black" stroke-dasharray="5,2" d="M527.26,-115.41C560.02,-108.94 594.31,-102.17 625.79,-95.95"/>
<polygon fill="black" stroke="black" points="626.78,-99.32 635.91,-93.95 625.42,-92.45 626.78,-99.32"/>
</g>
<!-- /req/sam&#45;cpt/Sampler&#45;&gt;/req/sam&#45;cpt/Sampler/Sampler&#45;sem -->
<g id="edge5" class="edge">
<title>/req/sam&#45;cpt/Sampler&#45;&gt;/req/sam&#45;cpt/Sampler/Sampler&#45;sem</title>
<path fill="none" stroke="black" d="M860.21,-86.76C907.21,-92.99 962.54,-100.33 1012.56,-106.97"/>
<polygon fill="black" stroke="black" points="1012.11,-110.44 1022.49,-108.29 1013.03,-103.5 1012.11,-110.44"/>
</g>
<!-- /req/sam&#45;cpt/Sampler&#45;&gt;/req/sam&#45;cpt/Sampler/sampling&#45;sem -->
<g id="edge6" class="edge">
<title>/req/sam&#45;cpt/Sampler&#45;&gt;/req/sam&#45;cpt/Sampler/sampling&#45;sem</title>
<path fill="none" stroke="black" d="M860.21,-72C906.34,-72 960.5,-72 1009.78,-72"/>
<polygon fill="black" stroke="black" points="1009.89,-75.5 1019.89,-72 1009.89,-68.5 1009.89,-75.5"/>
</g>
<!-- /req/sam&#45;cpt/Sampler&#45;&gt;/req/sam&#45;cpt/Sampler/implementedProcedure&#45;sem -->
<g id="edge7" class="edge">
<title>/req/sam&#45;cpt/Sampler&#45;&gt;/req/sam&#45;cpt/Sampler/implementedProcedure&#45;sem</title>
<path fill="none" stroke="black" d="M860.21,-57.24C906.45,-51.11 960.76,-43.9 1010.13,-37.35"/>
<polygon fill="black" stroke="black" points="1010.81,-40.79 1020.26,-36.01 1009.89,-33.86 1010.81,-40.79"/>
</g>
</g>
</svg>
