<?xml version="1.0" encoding="UTF-8" standalone="no"?>
<!DOCTYPE svg PUBLIC "-//W3C//DTD SVG 1.1//EN"
 "http://www.w3.org/Graphics/SVG/1.1/DTD/svg11.dtd">
<!-- Generated by graphviz version 2.43.0 (0)
 -->
<!-- Title: G Pages: 1 -->
<svg width="942pt" height="206pt"
 viewBox="0.00 0.00 942.00 206.00" xmlns="http://www.w3.org/2000/svg" xmlns:xlink="http://www.w3.org/1999/xlink">
<g id="graph0" class="graph" transform="scale(1 1) rotate(0) translate(4 202)">
<title>G</title>
<polygon fill="white" stroke="transparent" points="-4,4 -4,-202 938,-202 938,4 -4,4"/>
<!-- /req/obs&#45;core/gen/metadata&#45;sem -->
<g id="node1" class="node">
<title>/req/obs&#45;core/gen/metadata&#45;sem</title>
<polygon fill="none" stroke="black" points="590,-190 344,-190 344,-154 590,-154 590,-190"/>
<text text-anchor="middle" x="467" y="-168.3" font-family="Times,serif" font-size="14.00">/req/obs&#45;core/gen/metadata&#45;sem</text>
</g>
<!-- /req/obs&#45;cpt/Host/Host&#45;sem -->
<g id="node2" class="node">
<title>/req/obs&#45;cpt/Host/Host&#45;sem</title>
<polygon fill="none" stroke="black" points="886,-198 674,-198 674,-162 886,-162 886,-198"/>
<text text-anchor="middle" x="780" y="-176.3" font-family="Times,serif" font-size="14.00">/req/obs&#45;cpt/Host/Host&#45;sem</text>
</g>
<!-- /req/obs&#45;cpt/Host/deployment&#45;sem -->
<g id="node3" class="node">
<title>/req/obs&#45;cpt/Host/deployment&#45;sem</title>
<polygon fill="none" stroke="black" points="911,-144 649,-144 649,-108 911,-108 911,-144"/>
<text text-anchor="middle" x="780" y="-122.3" font-family="Times,serif" font-size="14.00">/req/obs&#45;cpt/Host/deployment&#45;sem</text>
</g>
<!-- /req/obs&#45;cpt/Host/relatedHost&#45;sem -->
<g id="node4" class="node">
<title>/req/obs&#45;cpt/Host/relatedHost&#45;sem</title>
<polygon fill="none" stroke="black" points="911.5,-90 648.5,-90 648.5,-54 911.5,-54 911.5,-90"/>
<text text-anchor="middle" x="780" y="-68.3" font-family="Times,serif" font-size="14.00">/req/obs&#45;cpt/Host/relatedHost&#45;sem</text>
</g>
<!-- /req/obs&#45;cpt/gen/relatedObservation&#45;sem -->
<g id="node5" class="node">
<title>/req/obs&#45;cpt/gen/relatedObservation&#45;sem</title>
<polygon fill="none" stroke="black" points="934,-36 626,-36 626,0 934,0 934,-36"/>
<text text-anchor="middle" x="780" y="-14.3" font-family="Times,serif" font-size="14.00">/req/obs&#45;cpt/gen/relatedObservation&#45;sem</text>
</g>
<!-- /req/obs&#45;core/AbstractHost -->
<g id="node6" class="node">
<title>/req/obs&#45;core/AbstractHost</title>
<polygon fill="none" stroke="black" points="3,-147 3,-168 305,-168 305,-147 3,-147"/>
<text text-anchor="start" x="57.5" y="-153.8" font-family="Times,serif" font-size="14.00">/req/obs&#45;core/AbstractHost</text>
<polygon fill="none" stroke="black" points="3,-124 3,-145 305,-145 305,-124 3,-124"/>
<text text-anchor="start" x="6" y="-130.8" font-family="Times,serif" font-size="14.00">Abstract Observation core &#45; AbstractHost</text>
<polygon fill="none" stroke="black" points="3,-101 3,-122 305,-122 305,-101 3,-101"/>
<text text-anchor="start" x="104" y="-107.8" font-family="Times,serif" font-size="14.00">Logical model</text>
<polygon fill="none" stroke="black" points="0,-98.5 0,-171.5 308,-171.5 308,-98.5 0,-98.5"/>
</g>
<!-- /req/obs&#45;core/AbstractHost&#45;&gt;/req/obs&#45;core/gen/metadata&#45;sem -->
<g id="edge1" class="edge">
<title>/req/obs&#45;core/AbstractHost&#45;&gt;/req/obs&#45;core/gen/metadata&#45;sem</title>
<path fill="none" stroke="black" d="M308.22,-153.23C316.82,-154.25 325.42,-155.28 333.93,-156.29"/>
<polygon fill="black" stroke="black" points="333.53,-159.76 343.87,-157.47 334.35,-152.81 333.53,-159.76"/>
</g>
<!-- /req/obs&#45;cpt/Host -->
<g id="node7" class="node">
<title>/req/obs&#45;cpt/Host</title>
<polygon fill="none" stroke="black" points="354,-111 354,-132 580,-132 580,-111 354,-111"/>
<text text-anchor="start" x="405" y="-117.8" font-family="Times,serif" font-size="14.00">/req/obs&#45;cpt/Host</text>
<polygon fill="none" stroke="black" points="354,-88 354,-109 580,-109 580,-88 354,-88"/>
<text text-anchor="start" x="357" y="-94.8" font-family="Times,serif" font-size="14.00">Conceptual Observation &#45; Host</text>
<polygon fill="none" stroke="black" points="354,-65 354,-86 580,-86 580,-65 354,-65"/>
<text text-anchor="start" x="402.5" y="-71.8" font-family="Times,serif" font-size="14.00">Conceptual model</text>
<polygon fill="none" stroke="black" points="351,-62.5 351,-135.5 583,-135.5 583,-62.5 351,-62.5"/>
</g>
<!-- /req/obs&#45;core/AbstractHost&#45;&gt;/req/obs&#45;cpt/Host -->
<g id="edge2" class="edge">
<title>/req/obs&#45;core/AbstractHost&#45;&gt;/req/obs&#45;cpt/Host</title>
<path fill="none" stroke="black" stroke-dasharray="5,2" d="M308.22,-117.26C319.03,-116.01 329.85,-114.76 340.47,-113.53"/>
<polygon fill="black" stroke="black" points="341.07,-116.99 350.6,-112.36 340.26,-110.03 341.07,-116.99"/>
</g>
<!-- /req/obs&#45;cpt/Host&#45;&gt;/req/obs&#45;cpt/Host/Host&#45;sem -->
<g id="edge3" class="edge">
<title>/req/obs&#45;cpt/Host&#45;&gt;/req/obs&#45;cpt/Host/Host&#45;sem</title>
<path fill="none" stroke="black" d="M575.14,-135.62C603.32,-145.25 626,-153 626,-153 626,-153 643.68,-156.12 667.01,-160.24"/>
<polygon fill="black" stroke="black" points="666.49,-163.7 676.95,-161.99 667.71,-156.81 666.49,-163.7"/>
</g>
<!-- /req/obs&#45;cpt/Host&#45;&gt;/req/obs&#45;cpt/Host/deployment&#45;sem -->
<g id="edge4" class="edge">
<title>/req/obs&#45;cpt/Host&#45;&gt;/req/obs&#45;cpt/Host/deployment&#45;sem</title>
<path fill="none" stroke="black" d="M583.36,-109.02C601.46,-110.59 620.33,-112.23 638.91,-113.84"/>
<polygon fill="black" stroke="black" points="638.63,-117.33 648.9,-114.7 639.24,-110.35 638.63,-117.33"/>
</g>
<!-- /req/obs&#45;cpt/Host&#45;&gt;/req/obs&#45;cpt/Host/relatedHost&#45;sem -->
<g id="edge5" class="edge">
<title>/req/obs&#45;cpt/Host&#45;&gt;/req/obs&#45;cpt/Host/relatedHost&#45;sem</title>
<path fill="none" stroke="black" d="M583.36,-88.98C601.23,-87.43 619.86,-85.82 638.21,-84.22"/>
<polygon fill="black" stroke="black" points="638.71,-87.69 648.37,-83.34 638.1,-80.72 638.71,-87.69"/>
</g>
<!-- /req/obs&#45;cpt/Host&#45;&gt;/req/obs&#45;cpt/gen/relatedObservation&#45;sem -->
<g id="edge6" class="edge">
<title>/req/obs&#45;cpt/Host&#45;&gt;/req/obs&#45;cpt/gen/relatedObservation&#45;sem</title>
<path fill="none" stroke="black" d="M575.14,-62.38C603.32,-52.75 626,-45 626,-45 626,-45 643.68,-41.88 667.01,-37.76"/>
<polygon fill="black" stroke="black" points="667.71,-41.19 676.95,-36.01 666.49,-34.3 667.71,-41.19"/>
</g>
</g>
</svg>
