<?xml version="1.0" encoding="UTF-8" standalone="no"?>
<!DOCTYPE svg PUBLIC "-//W3C//DTD SVG 1.1//EN"
 "http://www.w3.org/Graphics/SVG/1.1/DTD/svg11.dtd">
<!-- Generated by graphviz version 2.43.0 (0)
 -->
<!-- Title: G Pages: 1 -->
<svg width="742pt" height="152pt"
 viewBox="0.00 0.00 742.00 152.00" xmlns="http://www.w3.org/2000/svg" xmlns:xlink="http://www.w3.org/1999/xlink">
<g id="graph0" class="graph" transform="scale(1 1) rotate(0) translate(4 148)">
<title>G</title>
<polygon fill="white" stroke="transparent" points="-4,4 -4,-148 738,-148 738,4 -4,4"/>
<!-- /req/sam&#45;basic/PhysicalDimension/PhysicalDimension&#45;sem -->
<g id="node1" class="node">
<title>/req/sam&#45;basic/PhysicalDimension/PhysicalDimension&#45;sem</title>
<polygon fill="none" stroke="black" points="734,-144 301,-144 301,-108 734,-108 734,-144"/>
<text text-anchor="middle" x="517.5" y="-122.3" font-family="Times,serif" font-size="14.00">/req/sam&#45;basic/PhysicalDimension/PhysicalDimension&#45;sem</text>
</g>
<!-- /req/sam&#45;basic/PhysicalDimension/dimension&#45;sem -->
<g id="node2" class="node">
<title>/req/sam&#45;basic/PhysicalDimension/dimension&#45;sem</title>
<polygon fill="none" stroke="black" points="703,-90 332,-90 332,-54 703,-54 703,-90"/>
<text text-anchor="middle" x="517.5" y="-68.3" font-family="Times,serif" font-size="14.00">/req/sam&#45;basic/PhysicalDimension/dimension&#45;sem</text>
</g>
<!-- /req/sam&#45;basic/PhysicalDimension/value&#45;sem -->
<g id="node3" class="node">
<title>/req/sam&#45;basic/PhysicalDimension/value&#45;sem</title>
<polygon fill="none" stroke="black" points="685.5,-36 349.5,-36 349.5,0 685.5,0 685.5,-36"/>
<text text-anchor="middle" x="517.5" y="-14.3" font-family="Times,serif" font-size="14.00">/req/sam&#45;basic/PhysicalDimension/value&#45;sem</text>
</g>
<!-- /req/sam&#45;basic/PhysicalDimension -->
<g id="node4" class="node">
<title>/req/sam&#45;basic/PhysicalDimension</title>
<polygon fill="none" stroke="black" points="3.5,-84 3.5,-105 262.5,-105 262.5,-84 3.5,-84"/>
<text text-anchor="start" x="11" y="-90.8" font-family="Times,serif" font-size="14.00">/req/sam&#45;basic/PhysicalDimension</text>
<polygon fill="none" stroke="black" points="3.5,-61 3.5,-82 262.5,-82 262.5,-61 3.5,-61"/>
<text text-anchor="start" x="6.5" y="-67.8" font-family="Times,serif" font-size="14.00">Basic Samples &#45; PhysicalDimension</text>
<polygon fill="none" stroke="black" points="3.5,-38 3.5,-59 262.5,-59 262.5,-38 3.5,-38"/>
<text text-anchor="start" x="83" y="-44.8" font-family="Times,serif" font-size="14.00">Logical model</text>
<polygon fill="none" stroke="black" points="0,-35.5 0,-108.5 265,-108.5 265,-35.5 0,-35.5"/>
</g>
<!-- /req/sam&#45;basic/PhysicalDimension&#45;&gt;/req/sam&#45;basic/PhysicalDimension/PhysicalDimension&#45;sem -->
<g id="edge1" class="edge">
<title>/req/sam&#45;basic/PhysicalDimension&#45;&gt;/req/sam&#45;basic/PhysicalDimension/PhysicalDimension&#45;sem</title>
<path fill="none" stroke="black" d="M265.07,-93.21C286.04,-96.59 301,-99 301,-99 301,-99 327.93,-102.37 362.74,-106.74"/>
<polygon fill="black" stroke="black" points="362.4,-110.22 372.76,-107.99 363.27,-103.27 362.4,-110.22"/>
</g>
<!-- /req/sam&#45;basic/PhysicalDimension&#45;&gt;/req/sam&#45;basic/PhysicalDimension/dimension&#45;sem -->
<g id="edge2" class="edge">
<title>/req/sam&#45;basic/PhysicalDimension&#45;&gt;/req/sam&#45;basic/PhysicalDimension/dimension&#45;sem</title>
<path fill="none" stroke="black" d="M265.04,-72C283.38,-72 302.54,-72 321.74,-72"/>
<polygon fill="black" stroke="black" points="321.78,-75.5 331.78,-72 321.78,-68.5 321.78,-75.5"/>
</g>
<!-- /req/sam&#45;basic/PhysicalDimension&#45;&gt;/req/sam&#45;basic/PhysicalDimension/value&#45;sem -->
<g id="edge3" class="edge">
<title>/req/sam&#45;basic/PhysicalDimension&#45;&gt;/req/sam&#45;basic/PhysicalDimension/value&#45;sem</title>
<path fill="none" stroke="black" d="M265.07,-50.79C286.04,-47.41 301,-45 301,-45 301,-45 327.93,-41.63 362.74,-37.26"/>
<polygon fill="black" stroke="black" points="363.27,-40.73 372.76,-36.01 362.4,-33.78 363.27,-40.73"/>
</g>
</g>
</svg>
