<?xml version="1.0" encoding="UTF-8" standalone="no"?>
<!DOCTYPE svg PUBLIC "-//W3C//DTD SVG 1.1//EN"
 "http://www.w3.org/Graphics/SVG/1.1/DTD/svg11.dtd">
<!-- Generated by graphviz version 2.43.0 (0)
 -->
<!-- Title: G Pages: 1 -->
<svg width="662pt" height="260pt"
 viewBox="0.00 0.00 662.00 260.00" xmlns="http://www.w3.org/2000/svg" xmlns:xlink="http://www.w3.org/1999/xlink">
<g id="graph0" class="graph" transform="scale(1 1) rotate(0) translate(4 256)">
<title>G</title>
<polygon fill="white" stroke="transparent" points="-4,4 -4,-256 658,-256 658,4 -4,4"/>
<!-- /req/obs&#45;cpt/Observer/Observer&#45;sem -->
<g id="node1" class="node">
<title>/req/obs&#45;cpt/Observer/Observer&#45;sem</title>
<polygon fill="none" stroke="black" points="615,-252 339,-252 339,-216 615,-216 615,-252"/>
<text text-anchor="middle" x="477" y="-230.3" font-family="Times,serif" font-size="14.00">/req/obs&#45;cpt/Observer/Observer&#45;sem</text>
</g>
<!-- /req/obs&#45;cpt/Observer/observableProperty&#45;sem -->
<g id="node2" class="node">
<title>/req/obs&#45;cpt/Observer/observableProperty&#45;sem</title>
<polygon fill="none" stroke="black" points="652.5,-198 301.5,-198 301.5,-162 652.5,-162 652.5,-198"/>
<text text-anchor="middle" x="477" y="-176.3" font-family="Times,serif" font-size="14.00">/req/obs&#45;cpt/Observer/observableProperty&#45;sem</text>
</g>
<!-- /req/obs&#45;cpt/Observer/observingProcedure&#45;sem -->
<g id="node3" class="node">
<title>/req/obs&#45;cpt/Observer/observingProcedure&#45;sem</title>
<polygon fill="none" stroke="black" points="654,-144 300,-144 300,-108 654,-108 654,-144"/>
<text text-anchor="middle" x="477" y="-122.3" font-family="Times,serif" font-size="14.00">/req/obs&#45;cpt/Observer/observingProcedure&#45;sem</text>
</g>
<!-- /req/obs&#45;cpt/Observer/deployment&#45;sem -->
<g id="node4" class="node">
<title>/req/obs&#45;cpt/Observer/deployment&#45;sem</title>
<polygon fill="none" stroke="black" points="624,-90 330,-90 330,-54 624,-54 624,-90"/>
<text text-anchor="middle" x="477" y="-68.3" font-family="Times,serif" font-size="14.00">/req/obs&#45;cpt/Observer/deployment&#45;sem</text>
</g>
<!-- /req/obs&#45;cpt/gen/relatedObservation&#45;sem -->
<g id="node5" class="node">
<title>/req/obs&#45;cpt/gen/relatedObservation&#45;sem</title>
<polygon fill="none" stroke="black" points="631,-36 323,-36 323,0 631,0 631,-36"/>
<text text-anchor="middle" x="477" y="-14.3" font-family="Times,serif" font-size="14.00">/req/obs&#45;cpt/gen/relatedObservation&#45;sem</text>
</g>
<!-- /req/obs&#45;cpt/Observer -->
<g id="node6" class="node">
<title>/req/obs&#45;cpt/Observer</title>
<polygon fill="none" stroke="black" points="3,-138 3,-159 261,-159 261,-138 3,-138"/>
<text text-anchor="start" x="54" y="-144.8" font-family="Times,serif" font-size="14.00">/req/obs&#45;cpt/Observer</text>
<polygon fill="none" stroke="black" points="3,-115 3,-136 261,-136 261,-115 3,-115"/>
<text text-anchor="start" x="6" y="-121.8" font-family="Times,serif" font-size="14.00">Conceptual Observation &#45; Observer</text>
<polygon fill="none" stroke="black" points="3,-92 3,-113 261,-113 261,-92 3,-92"/>
<text text-anchor="start" x="67.5" y="-98.8" font-family="Times,serif" font-size="14.00">Conceptual model</text>
<polygon fill="none" stroke="black" points="0,-89.5 0,-162.5 264,-162.5 264,-89.5 0,-89.5"/>
</g>
<!-- /req/obs&#45;cpt/Observer&#45;&gt;/req/obs&#45;cpt/Observer/Observer&#45;sem -->
<g id="edge1" class="edge">
<title>/req/obs&#45;cpt/Observer&#45;&gt;/req/obs&#45;cpt/Observer/Observer&#45;sem</title>
<path fill="none" stroke="black" d="M208.68,-162.71C252.87,-184.14 300,-207 300,-207 300,-207 321.06,-210.23 348.61,-214.46"/>
<polygon fill="black" stroke="black" points="348.19,-217.93 358.61,-215.99 349.25,-211.01 348.19,-217.93"/>
</g>
<!-- /req/obs&#45;cpt/Observer&#45;&gt;/req/obs&#45;cpt/Observer/observableProperty&#45;sem -->
<g id="edge2" class="edge">
<title>/req/obs&#45;cpt/Observer&#45;&gt;/req/obs&#45;cpt/Observer/observableProperty&#45;sem</title>
<path fill="none" stroke="black" d="M264.17,-147.21C285.09,-150.59 300,-153 300,-153 300,-153 321.06,-156.23 348.61,-160.46"/>
<polygon fill="black" stroke="black" points="348.19,-163.93 358.61,-161.99 349.25,-157.01 348.19,-163.93"/>
</g>
<!-- /req/obs&#45;cpt/Observer&#45;&gt;/req/obs&#45;cpt/Observer/observingProcedure&#45;sem -->
<g id="edge3" class="edge">
<title>/req/obs&#45;cpt/Observer&#45;&gt;/req/obs&#45;cpt/Observer/observingProcedure&#45;sem</title>
<path fill="none" stroke="black" d="M264.14,-126C272.57,-126 281.14,-126 289.75,-126"/>
<polygon fill="black" stroke="black" points="289.88,-129.5 299.88,-126 289.88,-122.5 289.88,-129.5"/>
</g>
<!-- /req/obs&#45;cpt/Observer&#45;&gt;/req/obs&#45;cpt/Observer/deployment&#45;sem -->
<g id="edge4" class="edge">
<title>/req/obs&#45;cpt/Observer&#45;&gt;/req/obs&#45;cpt/Observer/deployment&#45;sem</title>
<path fill="none" stroke="black" d="M264.17,-104.79C285.09,-101.41 300,-99 300,-99 300,-99 321.06,-95.77 348.61,-91.54"/>
<polygon fill="black" stroke="black" points="349.25,-94.99 358.61,-90.01 348.19,-88.07 349.25,-94.99"/>
</g>
<!-- /req/obs&#45;cpt/Observer&#45;&gt;/req/obs&#45;cpt/gen/relatedObservation&#45;sem -->
<g id="edge5" class="edge">
<title>/req/obs&#45;cpt/Observer&#45;&gt;/req/obs&#45;cpt/gen/relatedObservation&#45;sem</title>
<path fill="none" stroke="black" d="M208.68,-89.29C252.87,-67.86 300,-45 300,-45 300,-45 321.06,-41.77 348.61,-37.54"/>
<polygon fill="black" stroke="black" points="349.25,-40.99 358.61,-36.01 348.19,-34.07 349.25,-40.99"/>
</g>
</g>
</svg>
