<?xml version="1.0" encoding="UTF-8" standalone="no"?>
<!DOCTYPE svg PUBLIC "-//W3C//DTD SVG 1.1//EN"
 "http://www.w3.org/Graphics/SVG/1.1/DTD/svg11.dtd">
<!-- Generated by graphviz version 2.43.0 (0)
 -->
<!-- Title: G Pages: 1 -->
<svg width="1889pt" height="939pt"
 viewBox="0.00 0.00 1889.00 939.00" xmlns="http://www.w3.org/2000/svg" xmlns:xlink="http://www.w3.org/1999/xlink">
<g id="graph0" class="graph" transform="scale(1 1) rotate(0) translate(4 935)">
<title>G</title>
<polygon fill="white" stroke="transparent" points="-4,4 -4,-935 1885,-935 1885,4 -4,4"/>
<!-- /req/obs&#45;basic -->
<g id="node1" class="node">
<title>/req/obs&#45;basic</title>
<polygon fill="none" stroke="black" points="3.5,-451.5 3.5,-472.5 210.5,-472.5 210.5,-451.5 3.5,-451.5"/>
<text text-anchor="start" x="57" y="-458.3" font-family="Times,serif" font-size="14.00">/req/obs&#45;basic</text>
<polygon fill="none" stroke="black" points="3.5,-428.5 3.5,-449.5 210.5,-449.5 210.5,-428.5 3.5,-428.5"/>
<text text-anchor="start" x="6.5" y="-435.3" font-family="Times,serif" font-size="14.00">Basic Observations package</text>
<polygon fill="none" stroke="black" points="3.5,-405.5 3.5,-426.5 210.5,-426.5 210.5,-405.5 3.5,-405.5"/>
<text text-anchor="start" x="57" y="-412.3" font-family="Times,serif" font-size="14.00">Logical model</text>
<polygon fill="none" stroke="black" points="0,-403 0,-476 213,-476 213,-403 0,-403"/>
</g>
<!-- /req/obs&#45;basic/Deployment -->
<g id="node2" class="node">
<title>/req/obs&#45;basic/Deployment</title>
<polygon fill="none" stroke="black" points="291.5,-906.5 291.5,-927.5 535.5,-927.5 535.5,-906.5 291.5,-906.5"/>
<text text-anchor="start" x="318.5" y="-913.3" font-family="Times,serif" font-size="14.00">/req/obs&#45;basic/Deployment</text>
<polygon fill="none" stroke="black" points="291.5,-883.5 291.5,-904.5 535.5,-904.5 535.5,-883.5 291.5,-883.5"/>
<text text-anchor="start" x="294.5" y="-890.3" font-family="Times,serif" font-size="14.00">Basic Observations &#45; Deployment</text>
<polygon fill="none" stroke="black" points="291.5,-860.5 291.5,-881.5 535.5,-881.5 535.5,-860.5 291.5,-860.5"/>
<text text-anchor="start" x="363.5" y="-867.3" font-family="Times,serif" font-size="14.00">Logical model</text>
<polygon fill="none" stroke="black" points="288.5,-858 288.5,-931 538.5,-931 538.5,-858 288.5,-858"/>
</g>
<!-- /req/obs&#45;basic&#45;&gt;/req/obs&#45;basic/Deployment -->
<g id="edge9" class="edge">
<title>/req/obs&#45;basic&#45;&gt;/req/obs&#45;basic/Deployment</title>
<path fill="none" stroke="black" stroke-dasharray="5,2" d="M120.18,-476.25C154.91,-576.88 249,-849.5 249,-849.5 249,-849.5 260.8,-852.75 278.05,-857.5"/>
<polygon fill="black" stroke="black" points="277.59,-861 288.16,-860.28 279.45,-854.25 277.59,-861"/>
</g>
<!-- /req/obs&#45;basic/GenericDomainFeature -->
<g id="node3" class="node">
<title>/req/obs&#45;basic/GenericDomainFeature</title>
<polygon fill="none" stroke="black" points="252.5,-815.5 252.5,-836.5 575.5,-836.5 575.5,-815.5 252.5,-815.5"/>
<text text-anchor="start" x="279" y="-822.3" font-family="Times,serif" font-size="14.00">/req/obs&#45;basic/GenericDomainFeature</text>
<polygon fill="none" stroke="black" points="252.5,-792.5 252.5,-813.5 575.5,-813.5 575.5,-792.5 252.5,-792.5"/>
<text text-anchor="start" x="255.5" y="-799.3" font-family="Times,serif" font-size="14.00">Basic Observations &#45; GenericDomainFeature</text>
<polygon fill="none" stroke="black" points="252.5,-769.5 252.5,-790.5 575.5,-790.5 575.5,-769.5 252.5,-769.5"/>
<text text-anchor="start" x="364" y="-776.3" font-family="Times,serif" font-size="14.00">Logical model</text>
<polygon fill="none" stroke="black" points="249,-767 249,-840 578,-840 578,-767 249,-767"/>
</g>
<!-- /req/obs&#45;basic&#45;&gt;/req/obs&#45;basic/GenericDomainFeature -->
<g id="edge10" class="edge">
<title>/req/obs&#45;basic&#45;&gt;/req/obs&#45;basic/GenericDomainFeature</title>
<path fill="none" stroke="black" stroke-dasharray="5,2" d="M123.73,-476.09C160.9,-559.88 249,-758.5 249,-758.5 249,-758.5 257.14,-760.74 269.8,-764.22"/>
<polygon fill="black" stroke="black" points="269.18,-767.68 279.75,-766.96 271.04,-760.94 269.18,-767.68"/>
</g>
<!-- /req/obs&#45;basic/Host -->
<g id="node4" class="node">
<title>/req/obs&#45;basic/Host</title>
<polygon fill="none" stroke="black" points="318.5,-633.5 318.5,-654.5 509.5,-654.5 509.5,-633.5 318.5,-633.5"/>
<text text-anchor="start" x="345" y="-640.3" font-family="Times,serif" font-size="14.00">/req/obs&#45;basic/Host</text>
<polygon fill="none" stroke="black" points="318.5,-610.5 318.5,-631.5 509.5,-631.5 509.5,-610.5 318.5,-610.5"/>
<text text-anchor="start" x="321.5" y="-617.3" font-family="Times,serif" font-size="14.00">Basic Observations &#45; Host</text>
<polygon fill="none" stroke="black" points="318.5,-587.5 318.5,-608.5 509.5,-608.5 509.5,-587.5 318.5,-587.5"/>
<text text-anchor="start" x="364" y="-594.3" font-family="Times,serif" font-size="14.00">Logical model</text>
<polygon fill="none" stroke="black" points="315,-585 315,-658 512,-658 512,-585 315,-585"/>
</g>
<!-- /req/obs&#45;basic&#45;&gt;/req/obs&#45;basic/Host -->
<g id="edge8" class="edge">
<title>/req/obs&#45;basic&#45;&gt;/req/obs&#45;basic/Host</title>
<path fill="none" stroke="black" stroke-dasharray="5,2" d="M145.42,-476.21C187.33,-516.79 249,-576.5 249,-576.5 249,-576.5 274.25,-583.45 304.9,-591.88"/>
<polygon fill="black" stroke="black" points="303.99,-595.26 314.56,-594.54 305.85,-588.52 303.99,-595.26"/>
</g>
<!-- /req/obs&#45;basic/ObservableProperty -->
<g id="node5" class="node">
<title>/req/obs&#45;basic/ObservableProperty</title>
<polygon fill="none" stroke="black" points="263.5,-542.5 263.5,-563.5 564.5,-563.5 564.5,-542.5 263.5,-542.5"/>
<text text-anchor="start" x="290" y="-549.3" font-family="Times,serif" font-size="14.00">/req/obs&#45;basic/ObservableProperty</text>
<polygon fill="none" stroke="black" points="263.5,-519.5 263.5,-540.5 564.5,-540.5 564.5,-519.5 263.5,-519.5"/>
<text text-anchor="start" x="266.5" y="-526.3" font-family="Times,serif" font-size="14.00">Basic Observations &#45; ObservableProperty</text>
<polygon fill="none" stroke="black" points="263.5,-496.5 263.5,-517.5 564.5,-517.5 564.5,-496.5 263.5,-496.5"/>
<text text-anchor="start" x="364" y="-503.3" font-family="Times,serif" font-size="14.00">Logical model</text>
<polygon fill="none" stroke="black" points="260,-494 260,-567 567,-567 567,-494 260,-494"/>
</g>
<!-- /req/obs&#45;basic&#45;&gt;/req/obs&#45;basic/ObservableProperty -->
<g id="edge5" class="edge">
<title>/req/obs&#45;basic&#45;&gt;/req/obs&#45;basic/ObservableProperty</title>
<path fill="none" stroke="black" stroke-dasharray="5,2" d="M213.29,-473.89C233.77,-480.55 249,-485.5 249,-485.5 249,-485.5 257.14,-487.74 269.8,-491.22"/>
<polygon fill="black" stroke="black" points="269.18,-494.68 279.75,-493.96 271.04,-487.94 269.18,-494.68"/>
</g>
<!-- /req/obs&#45;basic/Observation -->
<g id="node6" class="node">
<title>/req/obs&#45;basic/Observation</title>
<polygon fill="none" stroke="black" points="291.5,-178.5 291.5,-199.5 535.5,-199.5 535.5,-178.5 291.5,-178.5"/>
<text text-anchor="start" x="318" y="-185.3" font-family="Times,serif" font-size="14.00">/req/obs&#45;basic/Observation</text>
<polygon fill="none" stroke="black" points="291.5,-155.5 291.5,-176.5 535.5,-176.5 535.5,-155.5 291.5,-155.5"/>
<text text-anchor="start" x="294.5" y="-162.3" font-family="Times,serif" font-size="14.00">Basic Observations &#45; Observation</text>
<polygon fill="none" stroke="black" points="291.5,-132.5 291.5,-153.5 535.5,-153.5 535.5,-132.5 291.5,-132.5"/>
<text text-anchor="start" x="363.5" y="-139.3" font-family="Times,serif" font-size="14.00">Logical model</text>
<polygon fill="none" stroke="black" points="288.5,-130 288.5,-203 538.5,-203 538.5,-130 288.5,-130"/>
</g>
<!-- /req/obs&#45;basic&#45;&gt;/req/obs&#45;basic/Observation -->
<g id="edge1" class="edge">
<title>/req/obs&#45;basic&#45;&gt;/req/obs&#45;basic/Observation</title>
<path fill="none" stroke="black" stroke-dasharray="5,2" d="M130.39,-402.78C170.44,-338.53 249,-212.5 249,-212.5 249,-212.5 261.02,-209.12 278.53,-204.19"/>
<polygon fill="black" stroke="black" points="279.48,-207.56 288.16,-201.48 277.59,-200.82 279.48,-207.56"/>
</g>
<!-- /req/obs&#45;basic/ObservationCharacteristics -->
<g id="node7" class="node">
<title>/req/obs&#45;basic/ObservationCharacteristics</title>
<polygon fill="none" stroke="black" points="648.5,-87.5 648.5,-108.5 1001.5,-108.5 1001.5,-87.5 648.5,-87.5"/>
<text text-anchor="start" x="675" y="-94.3" font-family="Times,serif" font-size="14.00">/req/obs&#45;basic/ObservationCharacteristics</text>
<polygon fill="none" stroke="black" points="648.5,-64.5 648.5,-85.5 1001.5,-85.5 1001.5,-64.5 648.5,-64.5"/>
<text text-anchor="start" x="651.5" y="-71.3" font-family="Times,serif" font-size="14.00">Basic Observations &#45; ObservationCharacteristics</text>
<polygon fill="none" stroke="black" points="648.5,-41.5 648.5,-62.5 1001.5,-62.5 1001.5,-41.5 648.5,-41.5"/>
<text text-anchor="start" x="775" y="-48.3" font-family="Times,serif" font-size="14.00">Logical model</text>
<polygon fill="none" stroke="black" points="645,-39 645,-112 1004,-112 1004,-39 645,-39"/>
</g>
<!-- /req/obs&#45;basic&#45;&gt;/req/obs&#45;basic/ObservationCharacteristics -->
<g id="edge2" class="edge">
<title>/req/obs&#45;basic&#45;&gt;/req/obs&#45;basic/ObservationCharacteristics</title>
<path fill="none" stroke="black" stroke-dasharray="5,2" d="M123.73,-402.91C160.9,-319.12 249,-120.5 249,-120.5 249,-120.5 467.22,-103.41 634.68,-90.29"/>
<polygon fill="black" stroke="black" points="635.18,-93.76 644.87,-89.49 634.63,-86.78 635.18,-93.76"/>
</g>
<!-- /req/obs&#45;basic/ObservationCollection -->
<g id="node8" class="node">
<title>/req/obs&#45;basic/ObservationCollection</title>
<polygon fill="none" stroke="black" points="255.5,-724.5 255.5,-745.5 571.5,-745.5 571.5,-724.5 255.5,-724.5"/>
<text text-anchor="start" x="282.5" y="-731.3" font-family="Times,serif" font-size="14.00">/req/obs&#45;basic/ObservationCollection</text>
<polygon fill="none" stroke="black" points="255.5,-701.5 255.5,-722.5 571.5,-722.5 571.5,-701.5 255.5,-701.5"/>
<text text-anchor="start" x="258.5" y="-708.3" font-family="Times,serif" font-size="14.00">Basic Observations &#45; ObservationCollection</text>
<polygon fill="none" stroke="black" points="255.5,-678.5 255.5,-699.5 571.5,-699.5 571.5,-678.5 255.5,-678.5"/>
<text text-anchor="start" x="363.5" y="-685.3" font-family="Times,serif" font-size="14.00">Logical model</text>
<polygon fill="none" stroke="black" points="252.5,-676 252.5,-749 574.5,-749 574.5,-676 252.5,-676"/>
</g>
<!-- /req/obs&#45;basic&#45;&gt;/req/obs&#45;basic/ObservationCollection -->
<g id="edge3" class="edge">
<title>/req/obs&#45;basic&#45;&gt;/req/obs&#45;basic/ObservationCollection</title>
<path fill="none" stroke="black" stroke-dasharray="5,2" d="M130.23,-476.13C170.23,-540.58 249,-667.5 249,-667.5 249,-667.5 257.14,-669.74 269.8,-673.22"/>
<polygon fill="black" stroke="black" points="269.18,-676.68 279.75,-675.96 271.04,-669.94 269.18,-676.68"/>
</g>
<!-- /req/obs&#45;basic/Observer -->
<g id="node9" class="node">
<title>/req/obs&#45;basic/Observer</title>
<polygon fill="none" stroke="black" points="302.5,-360.5 302.5,-381.5 525.5,-381.5 525.5,-360.5 302.5,-360.5"/>
<text text-anchor="start" x="329" y="-367.3" font-family="Times,serif" font-size="14.00">/req/obs&#45;basic/Observer</text>
<polygon fill="none" stroke="black" points="302.5,-337.5 302.5,-358.5 525.5,-358.5 525.5,-337.5 302.5,-337.5"/>
<text text-anchor="start" x="305.5" y="-344.3" font-family="Times,serif" font-size="14.00">Basic Observations &#45; Observer</text>
<polygon fill="none" stroke="black" points="302.5,-314.5 302.5,-335.5 525.5,-335.5 525.5,-314.5 302.5,-314.5"/>
<text text-anchor="start" x="364" y="-321.3" font-family="Times,serif" font-size="14.00">Logical model</text>
<polygon fill="none" stroke="black" points="299,-312 299,-385 528,-385 528,-312 299,-312"/>
</g>
<!-- /req/obs&#45;basic&#45;&gt;/req/obs&#45;basic/Observer -->
<g id="edge7" class="edge">
<title>/req/obs&#45;basic&#45;&gt;/req/obs&#45;basic/Observer</title>
<path fill="none" stroke="black" stroke-dasharray="5,2" d="M213.29,-405.86C233.77,-399.34 249,-394.5 249,-394.5 249,-394.5 266.03,-389.71 289.09,-383.22"/>
<polygon fill="black" stroke="black" points="290.27,-386.53 298.94,-380.45 288.37,-379.79 290.27,-386.53"/>
</g>
<!-- /req/obs&#45;basic/ObservingCapability -->
<g id="node10" class="node">
<title>/req/obs&#45;basic/ObservingCapability</title>
<polygon fill="none" stroke="black" points="261.5,-48.5 261.5,-69.5 565.5,-69.5 565.5,-48.5 261.5,-48.5"/>
<text text-anchor="start" x="288.5" y="-55.3" font-family="Times,serif" font-size="14.00">/req/obs&#45;basic/ObservingCapability</text>
<polygon fill="none" stroke="black" points="261.5,-25.5 261.5,-46.5 565.5,-46.5 565.5,-25.5 261.5,-25.5"/>
<text text-anchor="start" x="264.5" y="-32.3" font-family="Times,serif" font-size="14.00">Basic Observations &#45; ObservingCapability</text>
<polygon fill="none" stroke="black" points="261.5,-2.5 261.5,-23.5 565.5,-23.5 565.5,-2.5 261.5,-2.5"/>
<text text-anchor="start" x="363.5" y="-9.3" font-family="Times,serif" font-size="14.00">Logical model</text>
<polygon fill="none" stroke="black" points="258.5,0 258.5,-73 568.5,-73 568.5,0 258.5,0"/>
</g>
<!-- /req/obs&#45;basic&#45;&gt;/req/obs&#45;basic/ObservingCapability -->
<g id="edge4" class="edge">
<title>/req/obs&#45;basic&#45;&gt;/req/obs&#45;basic/ObservingCapability</title>
<path fill="none" stroke="black" stroke-dasharray="5,2" d="M122.24,-402.83C158.48,-312.67 249,-87.5 249,-87.5 249,-87.5 264.33,-82.72 285.61,-76.08"/>
<polygon fill="black" stroke="black" points="286.91,-79.34 295.42,-73.02 284.83,-72.66 286.91,-79.34"/>
</g>
<!-- /req/obs&#45;basic/ObservingProcedure -->
<g id="node11" class="node">
<title>/req/obs&#45;basic/ObservingProcedure</title>
<polygon fill="none" stroke="black" points="261.5,-269.5 261.5,-290.5 565.5,-290.5 565.5,-269.5 261.5,-269.5"/>
<text text-anchor="start" x="288" y="-276.3" font-family="Times,serif" font-size="14.00">/req/obs&#45;basic/ObservingProcedure</text>
<polygon fill="none" stroke="black" points="261.5,-246.5 261.5,-267.5 565.5,-267.5 565.5,-246.5 261.5,-246.5"/>
<text text-anchor="start" x="264.5" y="-253.3" font-family="Times,serif" font-size="14.00">Basic Observations &#45; ObservingProcedure</text>
<polygon fill="none" stroke="black" points="261.5,-223.5 261.5,-244.5 565.5,-244.5 565.5,-223.5 261.5,-223.5"/>
<text text-anchor="start" x="363.5" y="-230.3" font-family="Times,serif" font-size="14.00">Logical model</text>
<polygon fill="none" stroke="black" points="258.5,-221 258.5,-294 568.5,-294 568.5,-221 258.5,-221"/>
</g>
<!-- /req/obs&#45;basic&#45;&gt;/req/obs&#45;basic/ObservingProcedure -->
<g id="edge6" class="edge">
<title>/req/obs&#45;basic&#45;&gt;/req/obs&#45;basic/ObservingProcedure</title>
<path fill="none" stroke="black" stroke-dasharray="5,2" d="M145.79,-402.7C187.7,-362.42 249,-303.5 249,-303.5 249,-303.5 258.32,-300.88 272.5,-296.89"/>
<polygon fill="black" stroke="black" points="273.8,-300.16 282.48,-294.08 271.91,-293.42 273.8,-300.16"/>
</g>
<!-- /req/obs&#45;core/AbstractDeployment -->
<g id="node13" class="node">
<title>/req/obs&#45;core/AbstractDeployment</title>
<polygon fill="none" stroke="black" points="647.5,-763.5 647.5,-784.5 1002.5,-784.5 1002.5,-763.5 647.5,-763.5"/>
<text text-anchor="start" x="702.5" y="-770.3" font-family="Times,serif" font-size="14.00">/req/obs&#45;core/AbstractDeployment</text>
<polygon fill="none" stroke="black" points="647.5,-740.5 647.5,-761.5 1002.5,-761.5 1002.5,-740.5 647.5,-740.5"/>
<text text-anchor="start" x="650.5" y="-747.3" font-family="Times,serif" font-size="14.00">Abstract Observation core &#45; AbstractDeployment</text>
<polygon fill="none" stroke="black" points="647.5,-717.5 647.5,-738.5 1002.5,-738.5 1002.5,-717.5 647.5,-717.5"/>
<text text-anchor="start" x="775" y="-724.3" font-family="Times,serif" font-size="14.00">Logical model</text>
<polygon fill="none" stroke="black" points="644,-715 644,-788 1005,-788 1005,-715 644,-715"/>
</g>
<!-- /req/obs&#45;basic/Deployment&#45;&gt;/req/obs&#45;core/AbstractDeployment -->
<g id="edge11" class="edge">
<title>/req/obs&#45;basic/Deployment&#45;&gt;/req/obs&#45;core/AbstractDeployment</title>
<path fill="none" stroke="black" stroke-dasharray="5,2" d="M538.84,-860.28C561.43,-854.06 578,-849.5 578,-849.5 578,-849.5 654.63,-818.91 722.26,-791.91"/>
<polygon fill="black" stroke="black" points="723.75,-795.09 731.74,-788.13 721.15,-788.59 723.75,-795.09"/>
</g>
<!-- /req/obs&#45;core/AbstractHost -->
<g id="node14" class="node">
<title>/req/obs&#45;core/AbstractHost</title>
<polygon fill="none" stroke="black" points="673.5,-672.5 673.5,-693.5 975.5,-693.5 975.5,-672.5 673.5,-672.5"/>
<text text-anchor="start" x="728" y="-679.3" font-family="Times,serif" font-size="14.00">/req/obs&#45;core/AbstractHost</text>
<polygon fill="none" stroke="black" points="673.5,-649.5 673.5,-670.5 975.5,-670.5 975.5,-649.5 673.5,-649.5"/>
<text text-anchor="start" x="676.5" y="-656.3" font-family="Times,serif" font-size="14.00">Abstract Observation core &#45; AbstractHost</text>
<polygon fill="none" stroke="black" points="673.5,-626.5 673.5,-647.5 975.5,-647.5 975.5,-626.5 673.5,-626.5"/>
<text text-anchor="start" x="774.5" y="-633.3" font-family="Times,serif" font-size="14.00">Logical model</text>
<polygon fill="none" stroke="black" points="670.5,-624 670.5,-697 978.5,-697 978.5,-624 670.5,-624"/>
</g>
<!-- /req/obs&#45;basic/Host&#45;&gt;/req/obs&#45;core/AbstractHost -->
<g id="edge12" class="edge">
<title>/req/obs&#45;basic/Host&#45;&gt;/req/obs&#45;core/AbstractHost</title>
<path fill="none" stroke="black" stroke-dasharray="5,2" d="M512.21,-630.82C556.51,-635.04 610.12,-640.15 660.26,-644.93"/>
<polygon fill="black" stroke="black" points="659.96,-648.42 670.24,-645.89 660.62,-641.45 659.96,-648.42"/>
</g>
<!-- /req/obs&#45;core/AbstractObservableProperty -->
<g id="node15" class="node">
<title>/req/obs&#45;core/AbstractObservableProperty</title>
<polygon fill="none" stroke="black" points="618.5,-490.5 618.5,-511.5 1030.5,-511.5 1030.5,-490.5 618.5,-490.5"/>
<text text-anchor="start" x="673" y="-497.3" font-family="Times,serif" font-size="14.00">/req/obs&#45;core/AbstractObservableProperty</text>
<polygon fill="none" stroke="black" points="618.5,-467.5 618.5,-488.5 1030.5,-488.5 1030.5,-467.5 618.5,-467.5"/>
<text text-anchor="start" x="621.5" y="-474.3" font-family="Times,serif" font-size="14.00">Abstract Observation core &#45; AbstractObservableProperty</text>
<polygon fill="none" stroke="black" points="618.5,-444.5 618.5,-465.5 1030.5,-465.5 1030.5,-444.5 618.5,-444.5"/>
<text text-anchor="start" x="774.5" y="-451.3" font-family="Times,serif" font-size="14.00">Logical model</text>
<polygon fill="none" stroke="black" points="615.5,-442 615.5,-515 1033.5,-515 1033.5,-442 615.5,-442"/>
</g>
<!-- /req/obs&#45;basic/ObservableProperty&#45;&gt;/req/obs&#45;core/AbstractObservableProperty -->
<g id="edge13" class="edge">
<title>/req/obs&#45;basic/ObservableProperty&#45;&gt;/req/obs&#45;core/AbstractObservableProperty</title>
<path fill="none" stroke="black" stroke-dasharray="5,2" d="M567.09,-511.1C579.54,-509.52 592.26,-507.9 605.06,-506.27"/>
<polygon fill="black" stroke="black" points="605.85,-509.7 615.33,-504.97 604.97,-502.76 605.85,-509.7"/>
</g>
<!-- /req/obs&#45;core/AbstractObservation -->
<g id="node16" class="node">
<title>/req/obs&#45;core/AbstractObservation</title>
<polygon fill="none" stroke="black" points="647.5,-178.5 647.5,-199.5 1002.5,-199.5 1002.5,-178.5 647.5,-178.5"/>
<text text-anchor="start" x="702" y="-185.3" font-family="Times,serif" font-size="14.00">/req/obs&#45;core/AbstractObservation</text>
<polygon fill="none" stroke="black" points="647.5,-155.5 647.5,-176.5 1002.5,-176.5 1002.5,-155.5 647.5,-155.5"/>
<text text-anchor="start" x="650.5" y="-162.3" font-family="Times,serif" font-size="14.00">Abstract Observation core &#45; AbstractObservation</text>
<polygon fill="none" stroke="black" points="647.5,-132.5 647.5,-153.5 1002.5,-153.5 1002.5,-132.5 647.5,-132.5"/>
<text text-anchor="start" x="775" y="-139.3" font-family="Times,serif" font-size="14.00">Logical model</text>
<polygon fill="none" stroke="black" points="644,-130 644,-203 1005,-203 1005,-130 644,-130"/>
</g>
<!-- /req/obs&#45;basic/Observation&#45;&gt;/req/obs&#45;core/AbstractObservation -->
<g id="edge14" class="edge">
<title>/req/obs&#45;basic/Observation&#45;&gt;/req/obs&#45;core/AbstractObservation</title>
<path fill="none" stroke="black" stroke-dasharray="5,2" d="M538.6,-166.5C568.64,-166.5 601.43,-166.5 633.73,-166.5"/>
<polygon fill="black" stroke="black" points="633.73,-170 643.73,-166.5 633.73,-163 633.73,-170"/>
</g>
<!-- /req/obs&#45;core/AbstractObservationCharacteristics -->
<g id="node17" class="node">
<title>/req/obs&#45;core/AbstractObservationCharacteristics</title>
<polygon fill="none" stroke="black" points="1074,-178.5 1074,-199.5 1538,-199.5 1538,-178.5 1074,-178.5"/>
<text text-anchor="start" x="1128.5" y="-185.3" font-family="Times,serif" font-size="14.00">/req/obs&#45;core/AbstractObservationCharacteristics</text>
<polygon fill="none" stroke="black" points="1074,-155.5 1074,-176.5 1538,-176.5 1538,-155.5 1074,-155.5"/>
<text text-anchor="start" x="1077" y="-162.3" font-family="Times,serif" font-size="14.00">Abstract Observation core &#45; AbstractObservationCharacteristics</text>
<polygon fill="none" stroke="black" points="1074,-132.5 1074,-153.5 1538,-153.5 1538,-132.5 1074,-132.5"/>
<text text-anchor="start" x="1256" y="-139.3" font-family="Times,serif" font-size="14.00">Logical model</text>
<polygon fill="none" stroke="black" points="1071,-130 1071,-203 1541,-203 1541,-130 1071,-130"/>
</g>
<!-- /req/obs&#45;basic/ObservationCharacteristics&#45;&gt;/req/obs&#45;core/AbstractObservationCharacteristics -->
<g id="edge15" class="edge">
<title>/req/obs&#45;basic/ObservationCharacteristics&#45;&gt;/req/obs&#45;core/AbstractObservationCharacteristics</title>
<path fill="none" stroke="black" stroke-dasharray="5,2" d="M1004.05,-109.39C1036.14,-115.48 1069.8,-121.86 1102.52,-128.07"/>
<polygon fill="black" stroke="black" points="1102.16,-131.57 1112.63,-129.99 1103.46,-124.69 1102.16,-131.57"/>
</g>
<!-- /req/obs&#45;core/AbstractObserver -->
<g id="node18" class="node">
<title>/req/obs&#45;core/AbstractObserver</title>
<polygon fill="none" stroke="black" points="657.5,-360.5 657.5,-381.5 991.5,-381.5 991.5,-360.5 657.5,-360.5"/>
<text text-anchor="start" x="712" y="-367.3" font-family="Times,serif" font-size="14.00">/req/obs&#45;core/AbstractObserver</text>
<polygon fill="none" stroke="black" points="657.5,-337.5 657.5,-358.5 991.5,-358.5 991.5,-337.5 657.5,-337.5"/>
<text text-anchor="start" x="660.5" y="-344.3" font-family="Times,serif" font-size="14.00">Abstract Observation core &#45; AbstractObserver</text>
<polygon fill="none" stroke="black" points="657.5,-314.5 657.5,-335.5 991.5,-335.5 991.5,-314.5 657.5,-314.5"/>
<text text-anchor="start" x="774.5" y="-321.3" font-family="Times,serif" font-size="14.00">Logical model</text>
<polygon fill="none" stroke="black" points="654.5,-312 654.5,-385 994.5,-385 994.5,-312 654.5,-312"/>
</g>
<!-- /req/obs&#45;basic/Observer&#45;&gt;/req/obs&#45;core/AbstractObserver -->
<g id="edge16" class="edge">
<title>/req/obs&#45;basic/Observer&#45;&gt;/req/obs&#45;core/AbstractObserver</title>
<path fill="none" stroke="black" stroke-dasharray="5,2" d="M528.16,-348.5C564.04,-348.5 604.6,-348.5 643.92,-348.5"/>
<polygon fill="black" stroke="black" points="644.15,-352 654.15,-348.5 644.15,-345 644.15,-352"/>
</g>
<!-- /req/obs&#45;basic/ObservingCapability&#45;&gt;/req/obs&#45;basic/ObservationCharacteristics -->
<g id="edge17" class="edge">
<title>/req/obs&#45;basic/ObservingCapability&#45;&gt;/req/obs&#45;basic/ObservationCharacteristics</title>
<path fill="none" stroke="black" stroke-dasharray="5,2" d="M568.54,-51.19C590.14,-53.25 612.54,-55.38 634.7,-57.5"/>
<polygon fill="black" stroke="black" points="634.57,-61 644.86,-58.47 635.23,-54.03 634.57,-61"/>
</g>
<!-- /req/obs&#45;core/AbstractObservingProcedure -->
<g id="node19" class="node">
<title>/req/obs&#45;core/AbstractObservingProcedure</title>
<polygon fill="none" stroke="black" points="617.5,-269.5 617.5,-290.5 1032.5,-290.5 1032.5,-269.5 617.5,-269.5"/>
<text text-anchor="start" x="672" y="-276.3" font-family="Times,serif" font-size="14.00">/req/obs&#45;core/AbstractObservingProcedure</text>
<polygon fill="none" stroke="black" points="617.5,-246.5 617.5,-267.5 1032.5,-267.5 1032.5,-246.5 617.5,-246.5"/>
<text text-anchor="start" x="620.5" y="-253.3" font-family="Times,serif" font-size="14.00">Abstract Observation core &#45; AbstractObservingProcedure</text>
<polygon fill="none" stroke="black" points="617.5,-223.5 617.5,-244.5 1032.5,-244.5 1032.5,-223.5 617.5,-223.5"/>
<text text-anchor="start" x="775" y="-230.3" font-family="Times,serif" font-size="14.00">Logical model</text>
<polygon fill="none" stroke="black" points="614,-221 614,-294 1035,-294 1035,-221 614,-221"/>
</g>
<!-- /req/obs&#45;basic/ObservingProcedure&#45;&gt;/req/obs&#45;core/AbstractObservingProcedure -->
<g id="edge18" class="edge">
<title>/req/obs&#45;basic/ObservingProcedure&#45;&gt;/req/obs&#45;core/AbstractObservingProcedure</title>
<path fill="none" stroke="black" stroke-dasharray="5,2" d="M568.54,-257.5C580.01,-257.5 591.71,-257.5 603.48,-257.5"/>
<polygon fill="black" stroke="black" points="603.83,-261 613.83,-257.5 603.83,-254 603.83,-261"/>
</g>
<!-- /req/obs&#45;core -->
<g id="node12" class="node">
<title>/req/obs&#45;core</title>
<polygon fill="none" stroke="black" points="285.5,-451.5 285.5,-472.5 542.5,-472.5 542.5,-451.5 285.5,-451.5"/>
<text text-anchor="start" x="367" y="-458.3" font-family="Times,serif" font-size="14.00">/req/obs&#45;core</text>
<polygon fill="none" stroke="black" points="285.5,-428.5 285.5,-449.5 542.5,-449.5 542.5,-428.5 285.5,-428.5"/>
<text text-anchor="start" x="288.5" y="-435.3" font-family="Times,serif" font-size="14.00">Abstract Observation core package</text>
<polygon fill="none" stroke="black" points="285.5,-405.5 285.5,-426.5 542.5,-426.5 542.5,-405.5 285.5,-405.5"/>
<text text-anchor="start" x="364" y="-412.3" font-family="Times,serif" font-size="14.00">Logical model</text>
<polygon fill="none" stroke="black" points="282,-403 282,-476 545,-476 545,-403 282,-403"/>
</g>
<!-- /req/obs&#45;core&#45;&gt;/req/obs&#45;core/AbstractDeployment -->
<g id="edge25" class="edge">
<title>/req/obs&#45;core&#45;&gt;/req/obs&#45;core/AbstractDeployment</title>
<path fill="none" stroke="black" stroke-dasharray="5,2" d="M544.52,-476.08C564.15,-481.6 578,-485.5 578,-485.5 578,-485.5 614,-706.5 614,-706.5 614,-706.5 625.69,-709.01 643.54,-712.84"/>
<polygon fill="black" stroke="black" points="642.89,-716.29 653.41,-714.96 644.36,-709.44 642.89,-716.29"/>
</g>
<!-- /req/obs&#45;core&#45;&gt;/req/obs&#45;core/AbstractHost -->
<g id="edge24" class="edge">
<title>/req/obs&#45;core&#45;&gt;/req/obs&#45;core/AbstractHost</title>
<path fill="none" stroke="black" stroke-dasharray="5,2" d="M544.52,-476.08C564.15,-481.6 578,-485.5 578,-485.5 578,-485.5 614,-615.5 614,-615.5 614,-615.5 633.47,-619.68 660.54,-625.5"/>
<polygon fill="black" stroke="black" points="659.91,-628.94 670.42,-627.62 661.38,-622.1 659.91,-628.94"/>
</g>
<!-- /req/obs&#45;core&#45;&gt;/req/obs&#45;core/AbstractObservableProperty -->
<g id="edge21" class="edge">
<title>/req/obs&#45;core&#45;&gt;/req/obs&#45;core/AbstractObservableProperty</title>
<path fill="none" stroke="black" stroke-dasharray="5,2" d="M545.03,-451.95C564.32,-453.79 584.62,-455.72 605.11,-457.68"/>
<polygon fill="black" stroke="black" points="604.89,-461.17 615.18,-458.64 605.56,-454.2 604.89,-461.17"/>
</g>
<!-- /req/obs&#45;core&#45;&gt;/req/obs&#45;core/AbstractObservation -->
<g id="edge20" class="edge">
<title>/req/obs&#45;core&#45;&gt;/req/obs&#45;core/AbstractObservation</title>
<path fill="none" stroke="black" stroke-dasharray="5,2" d="M545.31,-403.5C564.52,-398.21 578,-394.5 578,-394.5 578,-394.5 614,-212.5 614,-212.5 614,-212.5 627.31,-209.58 647.22,-205.21"/>
<polygon fill="black" stroke="black" points="648.14,-208.59 657.15,-203.02 646.64,-201.75 648.14,-208.59"/>
</g>
<!-- /req/obs&#45;core&#45;&gt;/req/obs&#45;core/AbstractObservationCharacteristics -->
<g id="edge19" class="edge">
<title>/req/obs&#45;core&#45;&gt;/req/obs&#45;core/AbstractObservationCharacteristics</title>
<path fill="none" stroke="black" stroke-dasharray="5,2" d="M545.33,-430.01C727.38,-416.81 1035,-394.5 1035,-394.5 1035,-394.5 1071,-212.5 1071,-212.5 1071,-212.5 1086.41,-209.47 1109.32,-204.97"/>
<polygon fill="black" stroke="black" points="1110.06,-208.39 1119.2,-203.02 1108.71,-201.52 1110.06,-208.39"/>
</g>
<!-- /req/obs&#45;core&#45;&gt;/req/obs&#45;core/AbstractObserver -->
<g id="edge23" class="edge">
<title>/req/obs&#45;core&#45;&gt;/req/obs&#45;core/AbstractObserver</title>
<path fill="none" stroke="black" stroke-dasharray="5,2" d="M545.03,-410.46C578.26,-403.06 614.5,-395 649.52,-387.21"/>
<polygon fill="black" stroke="black" points="650.36,-390.61 659.36,-385.02 648.84,-383.77 650.36,-390.61"/>
</g>
<!-- /req/obs&#45;core&#45;&gt;/req/obs&#45;core/AbstractObservingProcedure -->
<g id="edge22" class="edge">
<title>/req/obs&#45;core&#45;&gt;/req/obs&#45;core/AbstractObservingProcedure</title>
<path fill="none" stroke="black" stroke-dasharray="5,2" d="M545.31,-403.5C564.52,-398.21 578,-394.5 578,-394.5 578,-394.5 614,-303.5 614,-303.5 614,-303.5 627.31,-300.58 647.22,-296.21"/>
<polygon fill="black" stroke="black" points="648.14,-299.59 657.15,-294.02 646.64,-292.75 648.14,-299.59"/>
</g>
<!-- /req/obs&#45;cpt/Deployment -->
<g id="node22" class="node">
<title>/req/obs&#45;cpt/Deployment</title>
<polygon fill="none" stroke="black" points="1167,-763.5 1167,-784.5 1445,-784.5 1445,-763.5 1167,-763.5"/>
<text text-anchor="start" x="1218" y="-770.3" font-family="Times,serif" font-size="14.00">/req/obs&#45;cpt/Deployment</text>
<polygon fill="none" stroke="black" points="1167,-740.5 1167,-761.5 1445,-761.5 1445,-740.5 1167,-740.5"/>
<text text-anchor="start" x="1170" y="-747.3" font-family="Times,serif" font-size="14.00">Conceptual Observation &#45; Deployment</text>
<polygon fill="none" stroke="black" points="1167,-717.5 1167,-738.5 1445,-738.5 1445,-717.5 1167,-717.5"/>
<text text-anchor="start" x="1241.5" y="-724.3" font-family="Times,serif" font-size="14.00">Conceptual model</text>
<polygon fill="none" stroke="black" points="1164,-715 1164,-788 1448,-788 1448,-715 1164,-715"/>
</g>
<!-- /req/obs&#45;core/AbstractDeployment&#45;&gt;/req/obs&#45;cpt/Deployment -->
<g id="edge26" class="edge">
<title>/req/obs&#45;core/AbstractDeployment&#45;&gt;/req/obs&#45;cpt/Deployment</title>
<path fill="none" stroke="black" stroke-dasharray="5,2" d="M1005.07,-751.5C1053.99,-751.5 1106.49,-751.5 1153.67,-751.5"/>
<polygon fill="black" stroke="black" points="1153.96,-755 1163.96,-751.5 1153.96,-748 1153.96,-755"/>
</g>
<!-- /req/obs&#45;cpt/Host -->
<g id="node23" class="node">
<title>/req/obs&#45;cpt/Host</title>
<polygon fill="none" stroke="black" points="1193,-672.5 1193,-693.5 1419,-693.5 1419,-672.5 1193,-672.5"/>
<text text-anchor="start" x="1244" y="-679.3" font-family="Times,serif" font-size="14.00">/req/obs&#45;cpt/Host</text>
<polygon fill="none" stroke="black" points="1193,-649.5 1193,-670.5 1419,-670.5 1419,-649.5 1193,-649.5"/>
<text text-anchor="start" x="1196" y="-656.3" font-family="Times,serif" font-size="14.00">Conceptual Observation &#45; Host</text>
<polygon fill="none" stroke="black" points="1193,-626.5 1193,-647.5 1419,-647.5 1419,-626.5 1193,-626.5"/>
<text text-anchor="start" x="1241.5" y="-633.3" font-family="Times,serif" font-size="14.00">Conceptual model</text>
<polygon fill="none" stroke="black" points="1190,-624 1190,-697 1422,-697 1422,-624 1190,-624"/>
</g>
<!-- /req/obs&#45;core/AbstractHost&#45;&gt;/req/obs&#45;cpt/Host -->
<g id="edge27" class="edge">
<title>/req/obs&#45;core/AbstractHost&#45;&gt;/req/obs&#45;cpt/Host</title>
<path fill="none" stroke="black" stroke-dasharray="5,2" d="M978.54,-660.5C1043.44,-660.5 1118.15,-660.5 1179.7,-660.5"/>
<polygon fill="black" stroke="black" points="1179.86,-664 1189.86,-660.5 1179.86,-657 1179.86,-664"/>
</g>
<!-- /req/obs&#45;cpt/ObservableProperty -->
<g id="node24" class="node">
<title>/req/obs&#45;cpt/ObservableProperty</title>
<polygon fill="none" stroke="black" points="1138,-451.5 1138,-472.5 1474,-472.5 1474,-451.5 1138,-451.5"/>
<text text-anchor="start" x="1189" y="-458.3" font-family="Times,serif" font-size="14.00">/req/obs&#45;cpt/ObservableProperty</text>
<polygon fill="none" stroke="black" points="1138,-428.5 1138,-449.5 1474,-449.5 1474,-428.5 1138,-428.5"/>
<text text-anchor="start" x="1141" y="-435.3" font-family="Times,serif" font-size="14.00">Conceptual Observation &#45; ObservableProperty</text>
<polygon fill="none" stroke="black" points="1138,-405.5 1138,-426.5 1474,-426.5 1474,-405.5 1138,-405.5"/>
<text text-anchor="start" x="1241.5" y="-412.3" font-family="Times,serif" font-size="14.00">Conceptual model</text>
<polygon fill="none" stroke="black" points="1135,-403 1135,-476 1477,-476 1477,-403 1135,-403"/>
</g>
<!-- /req/obs&#45;core/AbstractObservableProperty&#45;&gt;/req/obs&#45;cpt/ObservableProperty -->
<g id="edge28" class="edge">
<title>/req/obs&#45;core/AbstractObservableProperty&#45;&gt;/req/obs&#45;cpt/ObservableProperty</title>
<path fill="none" stroke="black" stroke-dasharray="5,2" d="M1033.72,-461.56C1064.04,-459.1 1095.04,-456.58 1124.73,-454.16"/>
<polygon fill="black" stroke="black" points="1125.07,-457.65 1134.75,-453.35 1124.5,-450.67 1125.07,-457.65"/>
</g>
<!-- /req/obs&#45;core/AbstractObservation&#45;&gt;/req/obs&#45;core/AbstractObservationCharacteristics -->
<g id="edge29" class="edge">
<title>/req/obs&#45;core/AbstractObservation&#45;&gt;/req/obs&#45;core/AbstractObservationCharacteristics</title>
<path fill="none" stroke="black" stroke-dasharray="5,2" d="M1005.07,-166.5C1023.33,-166.5 1042.08,-166.5 1060.87,-166.5"/>
<polygon fill="black" stroke="black" points="1061,-170 1071,-166.5 1061,-163 1061,-170"/>
</g>
<!-- /req/obs&#45;core/NamedValue -->
<g id="node20" class="node">
<title>/req/obs&#45;core/NamedValue</title>
<polygon fill="none" stroke="black" points="1580,-178.5 1580,-199.5 1878,-199.5 1878,-178.5 1580,-178.5"/>
<text text-anchor="start" x="1635" y="-185.3" font-family="Times,serif" font-size="14.00">/req/obs&#45;core/NamedValue</text>
<polygon fill="none" stroke="black" points="1580,-155.5 1580,-176.5 1878,-176.5 1878,-155.5 1580,-155.5"/>
<text text-anchor="start" x="1583" y="-162.3" font-family="Times,serif" font-size="14.00">Abstract Observation core &#45; NamedValue</text>
<polygon fill="none" stroke="black" points="1580,-132.5 1580,-153.5 1878,-153.5 1878,-132.5 1580,-132.5"/>
<text text-anchor="start" x="1679" y="-139.3" font-family="Times,serif" font-size="14.00">Logical model</text>
<polygon fill="none" stroke="black" points="1577,-130 1577,-203 1881,-203 1881,-130 1577,-130"/>
</g>
<!-- /req/obs&#45;core/AbstractObservationCharacteristics&#45;&gt;/req/obs&#45;core/NamedValue -->
<g id="edge30" class="edge">
<title>/req/obs&#45;core/AbstractObservationCharacteristics&#45;&gt;/req/obs&#45;core/NamedValue</title>
<path fill="none" stroke="black" stroke-dasharray="5,2" d="M1541.2,-166.5C1549.73,-166.5 1558.21,-166.5 1566.58,-166.5"/>
<polygon fill="black" stroke="black" points="1566.74,-170 1576.74,-166.5 1566.74,-163 1566.74,-170"/>
</g>
<!-- /req/obs&#45;cpt/Observer -->
<g id="node26" class="node">
<title>/req/obs&#45;cpt/Observer</title>
<polygon fill="none" stroke="black" points="1177,-360.5 1177,-381.5 1435,-381.5 1435,-360.5 1177,-360.5"/>
<text text-anchor="start" x="1228" y="-367.3" font-family="Times,serif" font-size="14.00">/req/obs&#45;cpt/Observer</text>
<polygon fill="none" stroke="black" points="1177,-337.5 1177,-358.5 1435,-358.5 1435,-337.5 1177,-337.5"/>
<text text-anchor="start" x="1180" y="-344.3" font-family="Times,serif" font-size="14.00">Conceptual Observation &#45; Observer</text>
<polygon fill="none" stroke="black" points="1177,-314.5 1177,-335.5 1435,-335.5 1435,-314.5 1177,-314.5"/>
<text text-anchor="start" x="1241.5" y="-321.3" font-family="Times,serif" font-size="14.00">Conceptual model</text>
<polygon fill="none" stroke="black" points="1174,-312 1174,-385 1438,-385 1438,-312 1174,-312"/>
</g>
<!-- /req/obs&#45;core/AbstractObserver&#45;&gt;/req/obs&#45;cpt/Observer -->
<g id="edge31" class="edge">
<title>/req/obs&#45;core/AbstractObserver&#45;&gt;/req/obs&#45;cpt/Observer</title>
<path fill="none" stroke="black" stroke-dasharray="5,2" d="M994.55,-348.5C1049.9,-348.5 1110.77,-348.5 1163.83,-348.5"/>
<polygon fill="black" stroke="black" points="1163.99,-352 1173.99,-348.5 1163.99,-345 1163.99,-352"/>
</g>
<!-- /req/obs&#45;cpt/ObservingProcedure -->
<g id="node27" class="node">
<title>/req/obs&#45;cpt/ObservingProcedure</title>
<polygon fill="none" stroke="black" points="1137,-269.5 1137,-290.5 1476,-290.5 1476,-269.5 1137,-269.5"/>
<text text-anchor="start" x="1188" y="-276.3" font-family="Times,serif" font-size="14.00">/req/obs&#45;cpt/ObservingProcedure</text>
<polygon fill="none" stroke="black" points="1137,-246.5 1137,-267.5 1476,-267.5 1476,-246.5 1137,-246.5"/>
<text text-anchor="start" x="1140" y="-253.3" font-family="Times,serif" font-size="14.00">Conceptual Observation &#45; ObservingProcedure</text>
<polygon fill="none" stroke="black" points="1137,-223.5 1137,-244.5 1476,-244.5 1476,-223.5 1137,-223.5"/>
<text text-anchor="start" x="1242" y="-230.3" font-family="Times,serif" font-size="14.00">Conceptual model</text>
<polygon fill="none" stroke="black" points="1133.5,-221 1133.5,-294 1478.5,-294 1478.5,-221 1133.5,-221"/>
</g>
<!-- /req/obs&#45;core/AbstractObservingProcedure&#45;&gt;/req/obs&#45;cpt/ObservingProcedure -->
<g id="edge32" class="edge">
<title>/req/obs&#45;core/AbstractObservingProcedure&#45;&gt;/req/obs&#45;cpt/ObservingProcedure</title>
<path fill="none" stroke="black" stroke-dasharray="5,2" d="M1035.12,-257.5C1064.42,-257.5 1094.34,-257.5 1123.08,-257.5"/>
<polygon fill="black" stroke="black" points="1123.19,-261 1133.19,-257.5 1123.19,-254 1123.19,-261"/>
</g>
<!-- /req/obs&#45;cpt -->
<g id="node21" class="node">
<title>/req/obs&#45;cpt</title>
<polygon fill="none" stroke="black" points="674.5,-581.5 674.5,-602.5 974.5,-602.5 974.5,-581.5 674.5,-581.5"/>
<text text-anchor="start" x="782" y="-588.3" font-family="Times,serif" font-size="14.00">/req/obs&#45;cpt</text>
<polygon fill="none" stroke="black" points="674.5,-558.5 674.5,-579.5 974.5,-579.5 974.5,-558.5 674.5,-558.5"/>
<text text-anchor="start" x="677.5" y="-565.3" font-family="Times,serif" font-size="14.00">Conceptual Observation schema package</text>
<polygon fill="none" stroke="black" points="674.5,-535.5 674.5,-556.5 974.5,-556.5 974.5,-535.5 674.5,-535.5"/>
<text text-anchor="start" x="760" y="-542.3" font-family="Times,serif" font-size="14.00">Conceptual model</text>
<polygon fill="none" stroke="black" points="671.5,-533 671.5,-606 977.5,-606 977.5,-533 671.5,-533"/>
</g>
<!-- /req/obs&#45;cpt&#45;&gt;/req/obs&#45;cpt/Deployment -->
<g id="edge39" class="edge">
<title>/req/obs&#45;cpt&#45;&gt;/req/obs&#45;cpt/Deployment</title>
<path fill="none" stroke="black" stroke-dasharray="5,2" d="M977.75,-602.93C1010.24,-610.06 1035,-615.5 1035,-615.5 1035,-615.5 1071,-706.5 1071,-706.5 1071,-706.5 1108.67,-713.74 1153.78,-722.42"/>
<polygon fill="black" stroke="black" points="1153.34,-725.9 1163.82,-724.35 1154.66,-719.02 1153.34,-725.9"/>
</g>
<!-- /req/obs&#45;cpt&#45;&gt;/req/obs&#45;cpt/Host -->
<g id="edge38" class="edge">
<title>/req/obs&#45;cpt&#45;&gt;/req/obs&#45;cpt/Host</title>
<path fill="none" stroke="black" stroke-dasharray="5,2" d="M977.55,-598.36C1042.63,-610.71 1117.73,-624.96 1179.57,-636.7"/>
<polygon fill="black" stroke="black" points="1179.29,-640.21 1189.77,-638.63 1180.6,-633.33 1179.29,-640.21"/>
</g>
<!-- /req/obs&#45;cpt&#45;&gt;/req/obs&#45;cpt/ObservableProperty -->
<g id="edge34" class="edge">
<title>/req/obs&#45;cpt&#45;&gt;/req/obs&#45;cpt/ObservableProperty</title>
<path fill="none" stroke="black" stroke-dasharray="5,2" d="M977.75,-536.8C1010.24,-529.82 1035,-524.5 1035,-524.5 1035,-524.5 1071,-485.5 1071,-485.5 1071,-485.5 1093.71,-481.04 1124.98,-474.89"/>
<polygon fill="black" stroke="black" points="1125.8,-478.29 1134.94,-472.93 1124.45,-471.42 1125.8,-478.29"/>
</g>
<!-- /req/obs&#45;cpt/Observation -->
<g id="node25" class="node">
<title>/req/obs&#45;cpt/Observation</title>
<polygon fill="none" stroke="black" points="1167,-542.5 1167,-563.5 1446,-563.5 1446,-542.5 1167,-542.5"/>
<text text-anchor="start" x="1218" y="-549.3" font-family="Times,serif" font-size="14.00">/req/obs&#45;cpt/Observation</text>
<polygon fill="none" stroke="black" points="1167,-519.5 1167,-540.5 1446,-540.5 1446,-519.5 1167,-519.5"/>
<text text-anchor="start" x="1170" y="-526.3" font-family="Times,serif" font-size="14.00">Conceptual Observation &#45; Observation</text>
<polygon fill="none" stroke="black" points="1167,-496.5 1167,-517.5 1446,-517.5 1446,-496.5 1167,-496.5"/>
<text text-anchor="start" x="1242" y="-503.3" font-family="Times,serif" font-size="14.00">Conceptual model</text>
<polygon fill="none" stroke="black" points="1163.5,-494 1163.5,-567 1448.5,-567 1448.5,-494 1163.5,-494"/>
</g>
<!-- /req/obs&#45;cpt&#45;&gt;/req/obs&#45;cpt/Observation -->
<g id="edge33" class="edge">
<title>/req/obs&#45;cpt&#45;&gt;/req/obs&#45;cpt/Observation</title>
<path fill="none" stroke="black" stroke-dasharray="5,2" d="M977.55,-557.13C1033.7,-552.57 1097.29,-547.39 1153.41,-542.83"/>
<polygon fill="black" stroke="black" points="1153.75,-546.31 1163.43,-542.01 1153.18,-539.34 1153.75,-546.31"/>
</g>
<!-- /req/obs&#45;cpt&#45;&gt;/req/obs&#45;cpt/Observer -->
<g id="edge37" class="edge">
<title>/req/obs&#45;cpt&#45;&gt;/req/obs&#45;cpt/Observer</title>
<path fill="none" stroke="black" stroke-dasharray="5,2" d="M977.75,-536.8C1010.24,-529.82 1035,-524.5 1035,-524.5 1035,-524.5 1071,-394.5 1071,-394.5 1071,-394.5 1114.51,-385.95 1164.01,-376.22"/>
<polygon fill="black" stroke="black" points="1164.84,-379.62 1173.98,-374.26 1163.49,-372.75 1164.84,-379.62"/>
</g>
<!-- /req/obs&#45;cpt&#45;&gt;/req/obs&#45;cpt/ObservingProcedure -->
<g id="edge36" class="edge">
<title>/req/obs&#45;cpt&#45;&gt;/req/obs&#45;cpt/ObservingProcedure</title>
<path fill="none" stroke="black" stroke-dasharray="5,2" d="M977.75,-536.8C1010.24,-529.82 1035,-524.5 1035,-524.5 1035,-524.5 1071,-303.5 1071,-303.5 1071,-303.5 1092.88,-299.2 1123.26,-293.23"/>
<polygon fill="black" stroke="black" points="1124.26,-296.6 1133.4,-291.23 1122.91,-289.73 1124.26,-296.6"/>
</g>
<!-- /req/obs&#45;cpt/Procedure -->
<g id="node28" class="node">
<title>/req/obs&#45;cpt/Procedure</title>
<polygon fill="none" stroke="black" points="1597,-438.5 1597,-459.5 1862,-459.5 1862,-438.5 1597,-438.5"/>
<text text-anchor="start" x="1648" y="-445.3" font-family="Times,serif" font-size="14.00">/req/obs&#45;cpt/Procedure</text>
<polygon fill="none" stroke="black" points="1597,-415.5 1597,-436.5 1862,-436.5 1862,-415.5 1597,-415.5"/>
<text text-anchor="start" x="1600" y="-422.3" font-family="Times,serif" font-size="14.00">Conceptual Observation &#45; Procedure</text>
<polygon fill="none" stroke="black" points="1597,-392.5 1597,-413.5 1862,-413.5 1862,-392.5 1597,-392.5"/>
<text text-anchor="start" x="1665" y="-399.3" font-family="Times,serif" font-size="14.00">Conceptual model</text>
<polygon fill="none" stroke="black" points="1593.5,-390 1593.5,-463 1864.5,-463 1864.5,-390 1593.5,-390"/>
</g>
<!-- /req/obs&#45;cpt&#45;&gt;/req/obs&#45;cpt/Procedure -->
<g id="edge35" class="edge">
<title>/req/obs&#45;cpt&#45;&gt;/req/obs&#45;cpt/Procedure</title>
<path fill="none" stroke="black" stroke-dasharray="5,2" d="M977.84,-573.84C1027.91,-575.27 1071,-576.5 1071,-576.5 1071,-576.5 1541,-576.5 1541,-576.5 1541,-576.5 1619.03,-513.91 1674.28,-469.59"/>
<polygon fill="black" stroke="black" points="1676.64,-472.18 1682.25,-463.19 1672.26,-466.72 1676.64,-472.18"/>
</g>
<!-- /req/obs&#45;cpt/ObservingProcedure&#45;&gt;/req/obs&#45;cpt/Procedure -->
<g id="edge40" class="edge">
<title>/req/obs&#45;cpt/ObservingProcedure&#45;&gt;/req/obs&#45;cpt/Procedure</title>
<path fill="none" stroke="black" stroke-dasharray="5,2" d="M1478.6,-291.23C1514.13,-298.22 1541,-303.5 1541,-303.5 1541,-303.5 1609.73,-348.71 1663.85,-384.31"/>
<polygon fill="black" stroke="black" points="1662.12,-387.36 1672.4,-389.93 1665.97,-381.51 1662.12,-387.36"/>
</g>
</g>
</svg>
