<?xml version="1.0" encoding="UTF-8" standalone="no"?>
<!DOCTYPE svg PUBLIC "-//W3C//DTD SVG 1.1//EN"
 "http://www.w3.org/Graphics/SVG/1.1/DTD/svg11.dtd">
<!-- Generated by graphviz version 2.43.0 (0)
 -->
<!-- Title: G Pages: 1 -->
<svg width="631pt" height="368pt"
 viewBox="0.00 0.00 631.00 368.00" xmlns="http://www.w3.org/2000/svg" xmlns:xlink="http://www.w3.org/1999/xlink">
<g id="graph0" class="graph" transform="scale(1 1) rotate(0) translate(4 364)">
<title>G</title>
<polygon fill="white" stroke="transparent" points="-4,4 -4,-364 627,-364 627,4 -4,4"/>
<!-- /req/sam&#45;cpt/Sampling/Sampling&#45;sem -->
<g id="node1" class="node">
<title>/req/sam&#45;cpt/Sampling/Sampling&#45;sem</title>
<polygon fill="none" stroke="black" points="587.5,-360 303.5,-360 303.5,-324 587.5,-324 587.5,-360"/>
<text text-anchor="middle" x="445.5" y="-338.3" font-family="Times,serif" font-size="14.00">/req/sam&#45;cpt/Sampling/Sampling&#45;sem</text>
</g>
<!-- /req/sam&#45;cpt/Sampling/sample&#45;sem -->
<g id="node2" class="node">
<title>/req/sam&#45;cpt/Sampling/sample&#45;sem</title>
<polygon fill="none" stroke="black" points="579,-306 312,-306 312,-270 579,-270 579,-306"/>
<text text-anchor="middle" x="445.5" y="-284.3" font-family="Times,serif" font-size="14.00">/req/sam&#45;cpt/Sampling/sample&#45;sem</text>
</g>
<!-- /req/sam&#45;cpt/Sampling/featureOfInterest&#45;sem -->
<g id="node3" class="node">
<title>/req/sam&#45;cpt/Sampling/featureOfInterest&#45;sem</title>
<polygon fill="none" stroke="black" points="616,-252 275,-252 275,-216 616,-216 616,-252"/>
<text text-anchor="middle" x="445.5" y="-230.3" font-family="Times,serif" font-size="14.00">/req/sam&#45;cpt/Sampling/featureOfInterest&#45;sem</text>
</g>
<!-- /req/sam&#45;cpt/Sampling/featureOfInterest&#45;card -->
<g id="node4" class="node">
<title>/req/sam&#45;cpt/Sampling/featureOfInterest&#45;card</title>
<polygon fill="none" stroke="black" points="617.5,-198 273.5,-198 273.5,-162 617.5,-162 617.5,-198"/>
<text text-anchor="middle" x="445.5" y="-176.3" font-family="Times,serif" font-size="14.00">/req/sam&#45;cpt/Sampling/featureOfInterest&#45;card</text>
</g>
<!-- /req/sam&#45;cpt/Sampling/sampler&#45;sem -->
<g id="node5" class="node">
<title>/req/sam&#45;cpt/Sampling/sampler&#45;sem</title>
<polygon fill="none" stroke="black" points="582.5,-144 308.5,-144 308.5,-108 582.5,-108 582.5,-144"/>
<text text-anchor="middle" x="445.5" y="-122.3" font-family="Times,serif" font-size="14.00">/req/sam&#45;cpt/Sampling/sampler&#45;sem</text>
</g>
<!-- /req/sam&#45;cpt/Sampling/samplingProcedure&#45;sem -->
<g id="node6" class="node">
<title>/req/sam&#45;cpt/Sampling/samplingProcedure&#45;sem</title>
<polygon fill="none" stroke="black" points="623,-90 268,-90 268,-54 623,-54 623,-90"/>
<text text-anchor="middle" x="445.5" y="-68.3" font-family="Times,serif" font-size="14.00">/req/sam&#45;cpt/Sampling/samplingProcedure&#45;sem</text>
</g>
<!-- /req/sam&#45;cpt/Sampling/relatedSampling&#45;sem -->
<g id="node7" class="node">
<title>/req/sam&#45;cpt/Sampling/relatedSampling&#45;sem</title>
<polygon fill="none" stroke="black" points="613,-36 278,-36 278,0 613,0 613,-36"/>
<text text-anchor="middle" x="445.5" y="-14.3" font-family="Times,serif" font-size="14.00">/req/sam&#45;cpt/Sampling/relatedSampling&#45;sem</text>
</g>
<!-- /req/sam&#45;cpt/Sampling -->
<g id="node8" class="node">
<title>/req/sam&#45;cpt/Sampling</title>
<polygon fill="none" stroke="black" points="3,-192 3,-213 229,-213 229,-192 3,-192"/>
<text text-anchor="start" x="35" y="-198.8" font-family="Times,serif" font-size="14.00">/req/sam&#45;cpt/Sampling</text>
<polygon fill="none" stroke="black" points="3,-169 3,-190 229,-190 229,-169 3,-169"/>
<text text-anchor="start" x="6" y="-175.8" font-family="Times,serif" font-size="14.00">Conceptual Sample &#45; Sampling</text>
<polygon fill="none" stroke="black" points="3,-146 3,-167 229,-167 229,-146 3,-146"/>
<text text-anchor="start" x="51.5" y="-152.8" font-family="Times,serif" font-size="14.00">Conceptual model</text>
<polygon fill="none" stroke="black" points="0,-143.5 0,-216.5 232,-216.5 232,-143.5 0,-143.5"/>
</g>
<!-- /req/sam&#45;cpt/Sampling&#45;&gt;/req/sam&#45;cpt/Sampling/Sampling&#45;sem -->
<g id="edge1" class="edge">
<title>/req/sam&#45;cpt/Sampling&#45;&gt;/req/sam&#45;cpt/Sampling/Sampling&#45;sem</title>
<path fill="none" stroke="black" d="M157.86,-216.53C202.58,-256.51 268,-315 268,-315 268,-315 289.12,-318.23 316.75,-322.46"/>
<polygon fill="black" stroke="black" points="316.36,-325.94 326.77,-323.99 317.42,-319.02 316.36,-325.94"/>
</g>
<!-- /req/sam&#45;cpt/Sampling&#45;&gt;/req/sam&#45;cpt/Sampling/sample&#45;sem -->
<g id="edge2" class="edge">
<title>/req/sam&#45;cpt/Sampling&#45;&gt;/req/sam&#45;cpt/Sampling/sample&#45;sem</title>
<path fill="none" stroke="black" d="M185.43,-216.71C225.38,-238.14 268,-261 268,-261 268,-261 289.12,-264.23 316.75,-268.46"/>
<polygon fill="black" stroke="black" points="316.36,-271.94 326.77,-269.99 317.42,-265.02 316.36,-271.94"/>
</g>
<!-- /req/sam&#45;cpt/Sampling&#45;&gt;/req/sam&#45;cpt/Sampling/featureOfInterest&#45;sem -->
<g id="edge3" class="edge">
<title>/req/sam&#45;cpt/Sampling&#45;&gt;/req/sam&#45;cpt/Sampling/featureOfInterest&#45;sem</title>
<path fill="none" stroke="black" d="M232.22,-200.6C252.88,-204.3 268,-207 268,-207 268,-207 289.12,-210.23 316.75,-214.46"/>
<polygon fill="black" stroke="black" points="316.36,-217.94 326.77,-215.99 317.42,-211.02 316.36,-217.94"/>
</g>
<!-- /req/sam&#45;cpt/Sampling&#45;&gt;/req/sam&#45;cpt/Sampling/featureOfInterest&#45;card -->
<g id="edge4" class="edge">
<title>/req/sam&#45;cpt/Sampling&#45;&gt;/req/sam&#45;cpt/Sampling/featureOfInterest&#45;card</title>
<path fill="none" stroke="black" d="M232,-180C242.2,-180 252.67,-180 263.25,-180"/>
<polygon fill="black" stroke="black" points="263.41,-183.5 273.41,-180 263.41,-176.5 263.41,-183.5"/>
</g>
<!-- /req/sam&#45;cpt/Sampling&#45;&gt;/req/sam&#45;cpt/Sampling/sampler&#45;sem -->
<g id="edge5" class="edge">
<title>/req/sam&#45;cpt/Sampling&#45;&gt;/req/sam&#45;cpt/Sampling/sampler&#45;sem</title>
<path fill="none" stroke="black" d="M232.22,-159.4C252.88,-155.7 268,-153 268,-153 268,-153 289.12,-149.77 316.75,-145.54"/>
<polygon fill="black" stroke="black" points="317.42,-148.98 326.77,-144.01 316.36,-142.06 317.42,-148.98"/>
</g>
<!-- /req/sam&#45;cpt/Sampling&#45;&gt;/req/sam&#45;cpt/Sampling/samplingProcedure&#45;sem -->
<g id="edge6" class="edge">
<title>/req/sam&#45;cpt/Sampling&#45;&gt;/req/sam&#45;cpt/Sampling/samplingProcedure&#45;sem</title>
<path fill="none" stroke="black" d="M185.43,-143.29C225.38,-121.86 268,-99 268,-99 268,-99 289.12,-95.77 316.75,-91.54"/>
<polygon fill="black" stroke="black" points="317.42,-94.98 326.77,-90.01 316.36,-88.06 317.42,-94.98"/>
</g>
<!-- /req/sam&#45;cpt/Sampling&#45;&gt;/req/sam&#45;cpt/Sampling/relatedSampling&#45;sem -->
<g id="edge7" class="edge">
<title>/req/sam&#45;cpt/Sampling&#45;&gt;/req/sam&#45;cpt/Sampling/relatedSampling&#45;sem</title>
<path fill="none" stroke="black" d="M157.86,-143.47C202.58,-103.49 268,-45 268,-45 268,-45 289.12,-41.77 316.75,-37.54"/>
<polygon fill="black" stroke="black" points="317.42,-40.98 326.77,-36.01 316.36,-34.06 317.42,-40.98"/>
</g>
</g>
</svg>
