<?xml version="1.0" encoding="UTF-8" standalone="no"?>
<!DOCTYPE svg PUBLIC "-//W3C//DTD SVG 1.1//EN"
 "http://www.w3.org/Graphics/SVG/1.1/DTD/svg11.dtd">
<!-- Generated by graphviz version 2.43.0 (0)
 -->
<!-- Title: G Pages: 1 -->
<svg width="1387pt" height="576pt"
 viewBox="0.00 0.00 1387.00 576.00" xmlns="http://www.w3.org/2000/svg" xmlns:xlink="http://www.w3.org/1999/xlink">
<g id="graph0" class="graph" transform="scale(1 1) rotate(0) translate(4 572)">
<title>G</title>
<polygon fill="white" stroke="transparent" points="-4,4 -4,-572 1383,-572 1383,4 -4,4"/>
<!-- /req/sam&#45;core/AbstractSampling/samplingLocation&#45;sem -->
<g id="node1" class="node">
<title>/req/sam&#45;core/AbstractSampling/samplingLocation&#45;sem</title>
<polygon fill="none" stroke="black" points="988,-568 577,-568 577,-532 988,-532 988,-568"/>
<text text-anchor="middle" x="782.5" y="-546.3" font-family="Times,serif" font-size="14.00">/req/sam&#45;core/AbstractSampling/samplingLocation&#45;sem</text>
</g>
<!-- /req/sam&#45;core/AbstractSampling/time&#45;sem -->
<g id="node2" class="node">
<title>/req/sam&#45;core/AbstractSampling/time&#45;sem</title>
<polygon fill="none" stroke="black" points="941,-514 624,-514 624,-478 941,-478 941,-514"/>
<text text-anchor="middle" x="782.5" y="-492.3" font-family="Times,serif" font-size="14.00">/req/sam&#45;core/AbstractSampling/time&#45;sem</text>
</g>
<!-- /req/sam&#45;core/AbstractSampling/parameter&#45;sem -->
<g id="node3" class="node">
<title>/req/sam&#45;core/AbstractSampling/parameter&#45;sem</title>
<polygon fill="none" stroke="black" points="962.5,-460 602.5,-460 602.5,-424 962.5,-424 962.5,-460"/>
<text text-anchor="middle" x="782.5" y="-438.3" font-family="Times,serif" font-size="14.00">/req/sam&#45;core/AbstractSampling/parameter&#45;sem</text>
</g>
<!-- /req/obs&#45;core/gen/metadata&#45;sem -->
<g id="node4" class="node">
<title>/req/obs&#45;core/gen/metadata&#45;sem</title>
<polygon fill="none" stroke="black" points="905.5,-406 659.5,-406 659.5,-370 905.5,-370 905.5,-406"/>
<text text-anchor="middle" x="782.5" y="-384.3" font-family="Times,serif" font-size="14.00">/req/obs&#45;core/gen/metadata&#45;sem</text>
</g>
<!-- /req/sam&#45;cpt/Sampling/Sampling&#45;sem -->
<g id="node5" class="node">
<title>/req/sam&#45;cpt/Sampling/Sampling&#45;sem</title>
<polygon fill="none" stroke="black" points="1343.5,-522 1059.5,-522 1059.5,-486 1343.5,-486 1343.5,-522"/>
<text text-anchor="middle" x="1201.5" y="-500.3" font-family="Times,serif" font-size="14.00">/req/sam&#45;cpt/Sampling/Sampling&#45;sem</text>
</g>
<!-- /req/sam&#45;cpt/Sampling/sample&#45;sem -->
<g id="node6" class="node">
<title>/req/sam&#45;cpt/Sampling/sample&#45;sem</title>
<polygon fill="none" stroke="black" points="1335,-468 1068,-468 1068,-432 1335,-432 1335,-468"/>
<text text-anchor="middle" x="1201.5" y="-446.3" font-family="Times,serif" font-size="14.00">/req/sam&#45;cpt/Sampling/sample&#45;sem</text>
</g>
<!-- /req/sam&#45;cpt/Sampling/featureOfInterest&#45;sem -->
<g id="node7" class="node">
<title>/req/sam&#45;cpt/Sampling/featureOfInterest&#45;sem</title>
<polygon fill="none" stroke="black" points="1372,-414 1031,-414 1031,-378 1372,-378 1372,-414"/>
<text text-anchor="middle" x="1201.5" y="-392.3" font-family="Times,serif" font-size="14.00">/req/sam&#45;cpt/Sampling/featureOfInterest&#45;sem</text>
</g>
<!-- /req/sam&#45;cpt/Sampling/featureOfInterest&#45;card -->
<g id="node8" class="node">
<title>/req/sam&#45;cpt/Sampling/featureOfInterest&#45;card</title>
<polygon fill="none" stroke="black" points="1373.5,-360 1029.5,-360 1029.5,-324 1373.5,-324 1373.5,-360"/>
<text text-anchor="middle" x="1201.5" y="-338.3" font-family="Times,serif" font-size="14.00">/req/sam&#45;cpt/Sampling/featureOfInterest&#45;card</text>
</g>
<!-- /req/sam&#45;cpt/Sampling/sampler&#45;sem -->
<g id="node9" class="node">
<title>/req/sam&#45;cpt/Sampling/sampler&#45;sem</title>
<polygon fill="none" stroke="black" points="1338.5,-306 1064.5,-306 1064.5,-270 1338.5,-270 1338.5,-306"/>
<text text-anchor="middle" x="1201.5" y="-284.3" font-family="Times,serif" font-size="14.00">/req/sam&#45;cpt/Sampling/sampler&#45;sem</text>
</g>
<!-- /req/sam&#45;cpt/Sampling/samplingProcedure&#45;sem -->
<g id="node10" class="node">
<title>/req/sam&#45;cpt/Sampling/samplingProcedure&#45;sem</title>
<polygon fill="none" stroke="black" points="1379,-252 1024,-252 1024,-216 1379,-216 1379,-252"/>
<text text-anchor="middle" x="1201.5" y="-230.3" font-family="Times,serif" font-size="14.00">/req/sam&#45;cpt/Sampling/samplingProcedure&#45;sem</text>
</g>
<!-- /req/sam&#45;cpt/Sampling/relatedSampling&#45;sem -->
<g id="node11" class="node">
<title>/req/sam&#45;cpt/Sampling/relatedSampling&#45;sem</title>
<polygon fill="none" stroke="black" points="1369,-198 1034,-198 1034,-162 1369,-162 1369,-198"/>
<text text-anchor="middle" x="1201.5" y="-176.3" font-family="Times,serif" font-size="14.00">/req/sam&#45;cpt/Sampling/relatedSampling&#45;sem</text>
</g>
<!-- /req/obs&#45;core/NamedValue/NamedValue&#45;sem -->
<g id="node12" class="node">
<title>/req/obs&#45;core/NamedValue/NamedValue&#45;sem</title>
<polygon fill="none" stroke="black" points="1367.5,-144 1035.5,-144 1035.5,-108 1367.5,-108 1367.5,-144"/>
<text text-anchor="middle" x="1201.5" y="-122.3" font-family="Times,serif" font-size="14.00">/req/obs&#45;core/NamedValue/NamedValue&#45;sem</text>
</g>
<!-- /req/obs&#45;core/NamedValue/name&#45;sem -->
<g id="node13" class="node">
<title>/req/obs&#45;core/NamedValue/name&#45;sem</title>
<polygon fill="none" stroke="black" points="1342,-90 1061,-90 1061,-54 1342,-54 1342,-90"/>
<text text-anchor="middle" x="1201.5" y="-68.3" font-family="Times,serif" font-size="14.00">/req/obs&#45;core/NamedValue/name&#45;sem</text>
</g>
<!-- /req/obs&#45;core/NamedValue/value&#45;sem -->
<g id="node14" class="node">
<title>/req/obs&#45;core/NamedValue/value&#45;sem</title>
<polygon fill="none" stroke="black" points="1342,-36 1061,-36 1061,0 1342,0 1342,-36"/>
<text text-anchor="middle" x="1201.5" y="-14.3" font-family="Times,serif" font-size="14.00">/req/obs&#45;core/NamedValue/value&#45;sem</text>
</g>
<!-- /req/sam&#45;basic/Sampling -->
<g id="node15" class="node">
<title>/req/sam&#45;basic/Sampling</title>
<polygon fill="none" stroke="black" points="3.5,-427 3.5,-448 194.5,-448 194.5,-427 3.5,-427"/>
<text text-anchor="start" x="11" y="-433.8" font-family="Times,serif" font-size="14.00">/req/sam&#45;basic/Sampling</text>
<polygon fill="none" stroke="black" points="3.5,-404 3.5,-425 194.5,-425 194.5,-404 3.5,-404"/>
<text text-anchor="start" x="6.5" y="-410.8" font-family="Times,serif" font-size="14.00">Basic Samples &#45; Sampling</text>
<polygon fill="none" stroke="black" points="3.5,-381 3.5,-402 194.5,-402 194.5,-381 3.5,-381"/>
<text text-anchor="start" x="49" y="-387.8" font-family="Times,serif" font-size="14.00">Logical model</text>
<polygon fill="none" stroke="black" points="0,-378.5 0,-451.5 197,-451.5 197,-378.5 0,-378.5"/>
</g>
<!-- /req/sam&#45;core/AbstractSampling -->
<g id="node16" class="node">
<title>/req/sam&#45;core/AbstractSampling</title>
<polygon fill="none" stroke="black" points="236,-427 236,-448 538,-448 538,-427 236,-427"/>
<text text-anchor="start" x="271.5" y="-433.8" font-family="Times,serif" font-size="14.00">/req/sam&#45;core/AbstractSampling</text>
<polygon fill="none" stroke="black" points="236,-404 236,-425 538,-425 538,-404 236,-404"/>
<text text-anchor="start" x="239" y="-410.8" font-family="Times,serif" font-size="14.00">Abstract Sample core &#45; AbstractSampling</text>
<polygon fill="none" stroke="black" points="236,-381 236,-402 538,-402 538,-381 236,-381"/>
<text text-anchor="start" x="337" y="-387.8" font-family="Times,serif" font-size="14.00">Logical model</text>
<polygon fill="none" stroke="black" points="233,-378.5 233,-451.5 541,-451.5 541,-378.5 233,-378.5"/>
</g>
<!-- /req/sam&#45;basic/Sampling&#45;&gt;/req/sam&#45;core/AbstractSampling -->
<g id="edge1" class="edge">
<title>/req/sam&#45;basic/Sampling&#45;&gt;/req/sam&#45;core/AbstractSampling</title>
<path fill="none" stroke="black" stroke-dasharray="5,2" d="M197.3,-415C205.57,-415 214.07,-415 222.66,-415"/>
<polygon fill="black" stroke="black" points="222.79,-418.5 232.79,-415 222.79,-411.5 222.79,-418.5"/>
</g>
<!-- /req/sam&#45;core/AbstractSampling&#45;&gt;/req/sam&#45;core/AbstractSampling/samplingLocation&#45;sem -->
<g id="edge2" class="edge">
<title>/req/sam&#45;core/AbstractSampling&#45;&gt;/req/sam&#45;core/AbstractSampling/samplingLocation&#45;sem</title>
<path fill="none" stroke="black" d="M451.99,-451.56C506.82,-482.9 577,-523 577,-523 577,-523 602.33,-526.34 635.17,-530.68"/>
<polygon fill="black" stroke="black" points="634.72,-534.15 645.1,-531.99 635.64,-527.21 634.72,-534.15"/>
</g>
<!-- /req/sam&#45;core/AbstractSampling&#45;&gt;/req/sam&#45;core/AbstractSampling/time&#45;sem -->
<g id="edge3" class="edge">
<title>/req/sam&#45;core/AbstractSampling&#45;&gt;/req/sam&#45;core/AbstractSampling/time&#45;sem</title>
<path fill="none" stroke="black" d="M515.9,-451.54C549.73,-461.21 577,-469 577,-469 577,-469 602.33,-472.34 635.17,-476.68"/>
<polygon fill="black" stroke="black" points="634.72,-480.15 645.1,-477.99 635.64,-473.21 634.72,-480.15"/>
</g>
<!-- /req/sam&#45;core/AbstractSampling&#45;&gt;/req/sam&#45;core/AbstractSampling/parameter&#45;sem -->
<g id="edge4" class="edge">
<title>/req/sam&#45;core/AbstractSampling&#45;&gt;/req/sam&#45;core/AbstractSampling/parameter&#45;sem</title>
<path fill="none" stroke="black" d="M541.26,-425.52C558.04,-426.67 575.26,-427.85 592.4,-429.03"/>
<polygon fill="black" stroke="black" points="592.27,-432.52 602.48,-429.72 592.75,-425.54 592.27,-432.52"/>
</g>
<!-- /req/sam&#45;core/AbstractSampling&#45;&gt;/req/obs&#45;core/gen/metadata&#45;sem -->
<g id="edge5" class="edge">
<title>/req/sam&#45;core/AbstractSampling&#45;&gt;/req/obs&#45;core/gen/metadata&#45;sem</title>
<path fill="none" stroke="black" d="M541.26,-404.48C576.91,-402.04 614.57,-399.45 649.22,-397.08"/>
<polygon fill="black" stroke="black" points="649.65,-400.56 659.39,-396.38 649.17,-393.57 649.65,-400.56"/>
</g>
<!-- /req/sam&#45;cpt/Sampling -->
<g id="node17" class="node">
<title>/req/sam&#45;cpt/Sampling</title>
<polygon fill="none" stroke="black" points="669.5,-327 669.5,-348 895.5,-348 895.5,-327 669.5,-327"/>
<text text-anchor="start" x="701.5" y="-333.8" font-family="Times,serif" font-size="14.00">/req/sam&#45;cpt/Sampling</text>
<polygon fill="none" stroke="black" points="669.5,-304 669.5,-325 895.5,-325 895.5,-304 669.5,-304"/>
<text text-anchor="start" x="672.5" y="-310.8" font-family="Times,serif" font-size="14.00">Conceptual Sample &#45; Sampling</text>
<polygon fill="none" stroke="black" points="669.5,-281 669.5,-302 895.5,-302 895.5,-281 669.5,-281"/>
<text text-anchor="start" x="718" y="-287.8" font-family="Times,serif" font-size="14.00">Conceptual model</text>
<polygon fill="none" stroke="black" points="666.5,-278.5 666.5,-351.5 898.5,-351.5 898.5,-278.5 666.5,-278.5"/>
</g>
<!-- /req/sam&#45;core/AbstractSampling&#45;&gt;/req/sam&#45;cpt/Sampling -->
<g id="edge6" class="edge">
<title>/req/sam&#45;core/AbstractSampling&#45;&gt;/req/sam&#45;cpt/Sampling</title>
<path fill="none" stroke="black" stroke-dasharray="5,2" d="M515.9,-378.46C549.73,-368.79 577,-361 577,-361 577,-361 613.92,-352.69 656.39,-343.14"/>
<polygon fill="black" stroke="black" points="657.41,-346.5 666.4,-340.89 655.87,-339.67 657.41,-346.5"/>
</g>
<!-- /req/obs&#45;core/NamedValue -->
<g id="node18" class="node">
<title>/req/obs&#45;core/NamedValue</title>
<polygon fill="none" stroke="black" points="633.5,-111 633.5,-132 931.5,-132 931.5,-111 633.5,-111"/>
<text text-anchor="start" x="688.5" y="-117.8" font-family="Times,serif" font-size="14.00">/req/obs&#45;core/NamedValue</text>
<polygon fill="none" stroke="black" points="633.5,-88 633.5,-109 931.5,-109 931.5,-88 633.5,-88"/>
<text text-anchor="start" x="636.5" y="-94.8" font-family="Times,serif" font-size="14.00">Abstract Observation core &#45; NamedValue</text>
<polygon fill="none" stroke="black" points="633.5,-65 633.5,-86 931.5,-86 931.5,-65 633.5,-65"/>
<text text-anchor="start" x="732.5" y="-71.8" font-family="Times,serif" font-size="14.00">Logical model</text>
<polygon fill="none" stroke="black" points="630.5,-62.5 630.5,-135.5 934.5,-135.5 934.5,-62.5 630.5,-62.5"/>
</g>
<!-- /req/sam&#45;core/AbstractSampling&#45;&gt;/req/obs&#45;core/NamedValue -->
<g id="edge7" class="edge">
<title>/req/sam&#45;core/AbstractSampling&#45;&gt;/req/obs&#45;core/NamedValue</title>
<path fill="none" stroke="black" stroke-dasharray="5,2" d="M433.52,-378.44C506.53,-319.82 649.48,-205.02 727.51,-142.35"/>
<polygon fill="black" stroke="black" points="730.17,-144.71 735.78,-135.72 725.79,-139.25 730.17,-144.71"/>
</g>
<!-- /req/sam&#45;cpt/Sampling&#45;&gt;/req/sam&#45;cpt/Sampling/Sampling&#45;sem -->
<g id="edge8" class="edge">
<title>/req/sam&#45;cpt/Sampling&#45;&gt;/req/sam&#45;cpt/Sampling/Sampling&#45;sem</title>
<path fill="none" stroke="black" d="M898.6,-340.89C945.1,-351.35 988,-361 988,-361 988,-361 1024,-477 1024,-477 1024,-477 1045.12,-480.23 1072.75,-484.46"/>
<polygon fill="black" stroke="black" points="1072.36,-487.94 1082.77,-485.99 1073.42,-481.02 1072.36,-487.94"/>
</g>
<!-- /req/sam&#45;cpt/Sampling&#45;&gt;/req/sam&#45;cpt/Sampling/sample&#45;sem -->
<g id="edge9" class="edge">
<title>/req/sam&#45;cpt/Sampling&#45;&gt;/req/sam&#45;cpt/Sampling/sample&#45;sem</title>
<path fill="none" stroke="black" d="M898.6,-340.89C945.1,-351.35 988,-361 988,-361 988,-361 1024,-423 1024,-423 1024,-423 1045.12,-426.23 1072.75,-430.46"/>
<polygon fill="black" stroke="black" points="1072.36,-433.94 1082.77,-431.99 1073.42,-427.02 1072.36,-433.94"/>
</g>
<!-- /req/sam&#45;cpt/Sampling&#45;&gt;/req/sam&#45;cpt/Sampling/featureOfInterest&#45;sem -->
<g id="edge10" class="edge">
<title>/req/sam&#45;cpt/Sampling&#45;&gt;/req/sam&#45;cpt/Sampling/featureOfInterest&#45;sem</title>
<path fill="none" stroke="black" d="M898.82,-340.89C960.54,-354.75 1024,-369 1024,-369 1024,-369 1045.12,-372.23 1072.75,-376.46"/>
<polygon fill="black" stroke="black" points="1072.36,-379.94 1082.77,-377.99 1073.42,-373.02 1072.36,-379.94"/>
</g>
<!-- /req/sam&#45;cpt/Sampling&#45;&gt;/req/sam&#45;cpt/Sampling/featureOfInterest&#45;card -->
<g id="edge11" class="edge">
<title>/req/sam&#45;cpt/Sampling&#45;&gt;/req/sam&#45;cpt/Sampling/featureOfInterest&#45;card</title>
<path fill="none" stroke="black" d="M898.55,-322.45C935.85,-324.86 978.19,-327.61 1019.11,-330.26"/>
<polygon fill="black" stroke="black" points="1018.99,-333.76 1029.2,-330.91 1019.45,-326.77 1018.99,-333.76"/>
</g>
<!-- /req/sam&#45;cpt/Sampling&#45;&gt;/req/sam&#45;cpt/Sampling/sampler&#45;sem -->
<g id="edge12" class="edge">
<title>/req/sam&#45;cpt/Sampling&#45;&gt;/req/sam&#45;cpt/Sampling/sampler&#45;sem</title>
<path fill="none" stroke="black" d="M898.55,-307.55C946.69,-304.43 1003.21,-300.77 1054.25,-297.47"/>
<polygon fill="black" stroke="black" points="1054.63,-300.95 1064.38,-296.81 1054.17,-293.97 1054.63,-300.95"/>
</g>
<!-- /req/sam&#45;cpt/Sampling&#45;&gt;/req/sam&#45;cpt/Sampling/samplingProcedure&#45;sem -->
<g id="edge13" class="edge">
<title>/req/sam&#45;cpt/Sampling&#45;&gt;/req/sam&#45;cpt/Sampling/samplingProcedure&#45;sem</title>
<path fill="none" stroke="black" d="M898.82,-289.11C960.54,-275.25 1024,-261 1024,-261 1024,-261 1045.12,-257.77 1072.75,-253.54"/>
<polygon fill="black" stroke="black" points="1073.42,-256.98 1082.77,-252.01 1072.36,-250.06 1073.42,-256.98"/>
</g>
<!-- /req/sam&#45;cpt/Sampling&#45;&gt;/req/sam&#45;cpt/Sampling/relatedSampling&#45;sem -->
<g id="edge14" class="edge">
<title>/req/sam&#45;cpt/Sampling&#45;&gt;/req/sam&#45;cpt/Sampling/relatedSampling&#45;sem</title>
<path fill="none" stroke="black" d="M864.92,-278.44C934.69,-247.1 1024,-207 1024,-207 1024,-207 1045.12,-203.77 1072.75,-199.54"/>
<polygon fill="black" stroke="black" points="1073.42,-202.98 1082.77,-198.01 1072.36,-196.06 1073.42,-202.98"/>
</g>
<!-- /req/obs&#45;core/NamedValue&#45;&gt;/req/obs&#45;core/NamedValue/NamedValue&#45;sem -->
<g id="edge15" class="edge">
<title>/req/obs&#45;core/NamedValue&#45;&gt;/req/obs&#45;core/NamedValue/NamedValue&#45;sem</title>
<path fill="none" stroke="black" d="M934.64,-108.79C964.06,-110.69 995.13,-112.7 1025.26,-114.65"/>
<polygon fill="black" stroke="black" points="1025.23,-118.16 1035.43,-115.31 1025.68,-111.17 1025.23,-118.16"/>
</g>
<!-- /req/obs&#45;core/NamedValue&#45;&gt;/req/obs&#45;core/NamedValue/name&#45;sem -->
<g id="edge16" class="edge">
<title>/req/obs&#45;core/NamedValue&#45;&gt;/req/obs&#45;core/NamedValue/name&#45;sem</title>
<path fill="none" stroke="black" d="M934.64,-89.21C972.51,-86.76 1013.12,-84.13 1050.91,-81.69"/>
<polygon fill="black" stroke="black" points="1051.22,-85.17 1060.97,-81.03 1050.77,-78.19 1051.22,-85.17"/>
</g>
<!-- /req/obs&#45;core/NamedValue&#45;&gt;/req/obs&#45;core/NamedValue/value&#45;sem -->
<g id="edge17" class="edge">
<title>/req/obs&#45;core/NamedValue&#45;&gt;/req/obs&#45;core/NamedValue/value&#45;sem</title>
<path fill="none" stroke="black" d="M934.79,-65.03C982.96,-54.21 1024,-45 1024,-45 1024,-45 1045.12,-41.77 1072.75,-37.54"/>
<polygon fill="black" stroke="black" points="1073.42,-40.98 1082.77,-36.01 1072.36,-34.06 1073.42,-40.98"/>
</g>
</g>
</svg>
