<?xml version="1.0" encoding="UTF-8" standalone="no"?>
<!DOCTYPE svg PUBLIC "-//W3C//DTD SVG 1.1//EN"
 "http://www.w3.org/Graphics/SVG/1.1/DTD/svg11.dtd">
<!-- Generated by graphviz version 2.43.0 (0)
 -->
<!-- Title: G Pages: 1 -->
<svg width="581pt" height="368pt"
 viewBox="0.00 0.00 581.00 368.00" xmlns="http://www.w3.org/2000/svg" xmlns:xlink="http://www.w3.org/1999/xlink">
<g id="graph0" class="graph" transform="scale(1 1) rotate(0) translate(4 364)">
<title>G</title>
<polygon fill="white" stroke="transparent" points="-4,4 -4,-364 577,-364 577,4 -4,4"/>
<!-- /req/sam&#45;cpt/Sample/Sample&#45;sem -->
<g id="node1" class="node">
<title>/req/sam&#45;cpt/Sample/Sample&#45;sem</title>
<polygon fill="none" stroke="black" points="540.5,-360 285.5,-360 285.5,-324 540.5,-324 540.5,-360"/>
<text text-anchor="middle" x="413" y="-338.3" font-family="Times,serif" font-size="14.00">/req/sam&#45;cpt/Sample/Sample&#45;sem</text>
</g>
<!-- /req/sam&#45;cpt/Sample/sampling&#45;sem -->
<g id="node2" class="node">
<title>/req/sam&#45;cpt/Sample/sampling&#45;sem</title>
<polygon fill="none" stroke="black" points="546.5,-306 279.5,-306 279.5,-270 546.5,-270 546.5,-306"/>
<text text-anchor="middle" x="413" y="-284.3" font-family="Times,serif" font-size="14.00">/req/sam&#45;cpt/Sample/sampling&#45;sem</text>
</g>
<!-- /req/sam&#45;cpt/Sample/preparationStep&#45;sem -->
<g id="node3" class="node">
<title>/req/sam&#45;cpt/Sample/preparationStep&#45;sem</title>
<polygon fill="none" stroke="black" points="572.5,-252 253.5,-252 253.5,-216 572.5,-216 572.5,-252"/>
<text text-anchor="middle" x="413" y="-230.3" font-family="Times,serif" font-size="14.00">/req/sam&#45;cpt/Sample/preparationStep&#45;sem</text>
</g>
<!-- /req/sam&#45;cpt/Sample/sampledFeature&#45;sem -->
<g id="node4" class="node">
<title>/req/sam&#45;cpt/Sample/sampledFeature&#45;sem</title>
<polygon fill="none" stroke="black" points="571.5,-198 254.5,-198 254.5,-162 571.5,-162 571.5,-198"/>
<text text-anchor="middle" x="413" y="-176.3" font-family="Times,serif" font-size="14.00">/req/sam&#45;cpt/Sample/sampledFeature&#45;sem</text>
</g>
<!-- /req/sam&#45;cpt/Sample/sampledFeature&#45;card -->
<g id="node5" class="node">
<title>/req/sam&#45;cpt/Sample/sampledFeature&#45;card</title>
<polygon fill="none" stroke="black" points="573,-144 253,-144 253,-108 573,-108 573,-144"/>
<text text-anchor="middle" x="413" y="-122.3" font-family="Times,serif" font-size="14.00">/req/sam&#45;cpt/Sample/sampledFeature&#45;card</text>
</g>
<!-- /req/sam&#45;cpt/Sample/relatedSample&#45;sem -->
<g id="node6" class="node">
<title>/req/sam&#45;cpt/Sample/relatedSample&#45;sem</title>
<polygon fill="none" stroke="black" points="566,-90 260,-90 260,-54 566,-54 566,-90"/>
<text text-anchor="middle" x="413" y="-68.3" font-family="Times,serif" font-size="14.00">/req/sam&#45;cpt/Sample/relatedSample&#45;sem</text>
</g>
<!-- /req/obs&#45;cpt/gen/relatedObservation&#45;sem -->
<g id="node7" class="node">
<title>/req/obs&#45;cpt/gen/relatedObservation&#45;sem</title>
<polygon fill="none" stroke="black" points="567,-36 259,-36 259,0 567,0 567,-36"/>
<text text-anchor="middle" x="413" y="-14.3" font-family="Times,serif" font-size="14.00">/req/obs&#45;cpt/gen/relatedObservation&#45;sem</text>
</g>
<!-- /req/sam&#45;cpt/Sample -->
<g id="node8" class="node">
<title>/req/sam&#45;cpt/Sample</title>
<polygon fill="none" stroke="black" points="3.5,-192 3.5,-213 214.5,-213 214.5,-192 3.5,-192"/>
<text text-anchor="start" x="35" y="-198.8" font-family="Times,serif" font-size="14.00">/req/sam&#45;cpt/Sample</text>
<polygon fill="none" stroke="black" points="3.5,-169 3.5,-190 214.5,-190 214.5,-169 3.5,-169"/>
<text text-anchor="start" x="6.5" y="-175.8" font-family="Times,serif" font-size="14.00">Conceptual Sample &#45; Sample</text>
<polygon fill="none" stroke="black" points="3.5,-146 3.5,-167 214.5,-167 214.5,-146 3.5,-146"/>
<text text-anchor="start" x="44.5" y="-152.8" font-family="Times,serif" font-size="14.00">Conceptual model</text>
<polygon fill="none" stroke="black" points="0,-143.5 0,-216.5 217,-216.5 217,-143.5 0,-143.5"/>
</g>
<!-- /req/sam&#45;cpt/Sample&#45;&gt;/req/sam&#45;cpt/Sample/Sample&#45;sem -->
<g id="edge1" class="edge">
<title>/req/sam&#45;cpt/Sample&#45;&gt;/req/sam&#45;cpt/Sample/Sample&#45;sem</title>
<path fill="none" stroke="black" d="M148.33,-216.53C190.83,-256.51 253,-315 253,-315 253,-315 271.53,-318.15 295.94,-322.29"/>
<polygon fill="black" stroke="black" points="295.5,-325.77 305.94,-323.99 296.67,-318.87 295.5,-325.77"/>
</g>
<!-- /req/sam&#45;cpt/Sample&#45;&gt;/req/sam&#45;cpt/Sample/sampling&#45;sem -->
<g id="edge2" class="edge">
<title>/req/sam&#45;cpt/Sample&#45;&gt;/req/sam&#45;cpt/Sample/sampling&#45;sem</title>
<path fill="none" stroke="black" d="M174.53,-216.71C212.5,-238.14 253,-261 253,-261 253,-261 271.53,-264.15 295.94,-268.29"/>
<polygon fill="black" stroke="black" points="295.5,-271.77 305.94,-269.99 296.67,-264.87 295.5,-271.77"/>
</g>
<!-- /req/sam&#45;cpt/Sample&#45;&gt;/req/sam&#45;cpt/Sample/preparationStep&#45;sem -->
<g id="edge3" class="edge">
<title>/req/sam&#45;cpt/Sample&#45;&gt;/req/sam&#45;cpt/Sample/preparationStep&#45;sem</title>
<path fill="none" stroke="black" d="M217.16,-200.26C237.73,-204.13 253,-207 253,-207 253,-207 271.53,-210.15 295.94,-214.29"/>
<polygon fill="black" stroke="black" points="295.5,-217.77 305.94,-215.99 296.67,-210.87 295.5,-217.77"/>
</g>
<!-- /req/sam&#45;cpt/Sample&#45;&gt;/req/sam&#45;cpt/Sample/sampledFeature&#45;sem -->
<g id="edge4" class="edge">
<title>/req/sam&#45;cpt/Sample&#45;&gt;/req/sam&#45;cpt/Sample/sampledFeature&#45;sem</title>
<path fill="none" stroke="black" d="M217,-180C225.92,-180 235.06,-180 244.28,-180"/>
<polygon fill="black" stroke="black" points="244.31,-183.5 254.31,-180 244.31,-176.5 244.31,-183.5"/>
</g>
<!-- /req/sam&#45;cpt/Sample&#45;&gt;/req/sam&#45;cpt/Sample/sampledFeature&#45;card -->
<g id="edge5" class="edge">
<title>/req/sam&#45;cpt/Sample&#45;&gt;/req/sam&#45;cpt/Sample/sampledFeature&#45;card</title>
<path fill="none" stroke="black" d="M217.16,-159.74C237.73,-155.87 253,-153 253,-153 253,-153 271.53,-149.85 295.94,-145.71"/>
<polygon fill="black" stroke="black" points="296.67,-149.13 305.94,-144.01 295.5,-142.23 296.67,-149.13"/>
</g>
<!-- /req/sam&#45;cpt/Sample&#45;&gt;/req/sam&#45;cpt/Sample/relatedSample&#45;sem -->
<g id="edge6" class="edge">
<title>/req/sam&#45;cpt/Sample&#45;&gt;/req/sam&#45;cpt/Sample/relatedSample&#45;sem</title>
<path fill="none" stroke="black" d="M174.53,-143.29C212.5,-121.86 253,-99 253,-99 253,-99 271.53,-95.85 295.94,-91.71"/>
<polygon fill="black" stroke="black" points="296.67,-95.13 305.94,-90.01 295.5,-88.23 296.67,-95.13"/>
</g>
<!-- /req/sam&#45;cpt/Sample&#45;&gt;/req/obs&#45;cpt/gen/relatedObservation&#45;sem -->
<g id="edge7" class="edge">
<title>/req/sam&#45;cpt/Sample&#45;&gt;/req/obs&#45;cpt/gen/relatedObservation&#45;sem</title>
<path fill="none" stroke="black" d="M148.33,-143.47C190.83,-103.49 253,-45 253,-45 253,-45 271.53,-41.85 295.94,-37.71"/>
<polygon fill="black" stroke="black" points="296.67,-41.13 305.94,-36.01 295.5,-34.23 296.67,-41.13"/>
</g>
</g>
</svg>
