<?xml version="1.0" encoding="UTF-8" standalone="no"?>
<!DOCTYPE svg PUBLIC "-//W3C//DTD SVG 1.1//EN"
 "http://www.w3.org/Graphics/SVG/1.1/DTD/svg11.dtd">
<!-- Generated by graphviz version 2.43.0 (0)
 -->
<!-- Title: G Pages: 1 -->
<svg width="1840pt" height="649pt"
 viewBox="0.00 0.00 1840.00 649.00" xmlns="http://www.w3.org/2000/svg" xmlns:xlink="http://www.w3.org/1999/xlink">
<g id="graph0" class="graph" transform="scale(1 1) rotate(0) translate(4 645)">
<title>G</title>
<polygon fill="white" stroke="transparent" points="-4,4 -4,-645 1836,-645 1836,4 -4,4"/>
<!-- /req/sam&#45;basic/SpatialSample/SpatialSample&#45;sem -->
<g id="node1" class="node">
<title>/req/sam&#45;basic/SpatialSample/SpatialSample&#45;sem</title>
<polygon fill="none" stroke="black" points="690.5,-641 320.5,-641 320.5,-605 690.5,-605 690.5,-641"/>
<text text-anchor="middle" x="505.5" y="-619.3" font-family="Times,serif" font-size="14.00">/req/sam&#45;basic/SpatialSample/SpatialSample&#45;sem</text>
</g>
<!-- /req/sam&#45;basic/SpatialSample/shape&#45;sem -->
<g id="node2" class="node">
<title>/req/sam&#45;basic/SpatialSample/shape&#45;sem</title>
<polygon fill="none" stroke="black" points="659.5,-587 351.5,-587 351.5,-551 659.5,-551 659.5,-587"/>
<text text-anchor="middle" x="505.5" y="-565.3" font-family="Times,serif" font-size="14.00">/req/sam&#45;basic/SpatialSample/shape&#45;sem</text>
</g>
<!-- /req/sam&#45;basic/SpatialSample/horizontalPositionalAccuracy&#45;sem -->
<g id="node3" class="node">
<title>/req/sam&#45;basic/SpatialSample/horizontalPositionalAccuracy&#45;sem</title>
<polygon fill="none" stroke="black" points="742,-533 269,-533 269,-497 742,-497 742,-533"/>
<text text-anchor="middle" x="505.5" y="-511.3" font-family="Times,serif" font-size="14.00">/req/sam&#45;basic/SpatialSample/horizontalPositionalAccuracy&#45;sem</text>
</g>
<!-- /req/sam&#45;basic/SpatialSample/verticalPositionalAccuracy&#45;sem -->
<g id="node4" class="node">
<title>/req/sam&#45;basic/SpatialSample/verticalPositionalAccuracy&#45;sem</title>
<polygon fill="none" stroke="black" points="733,-479 278,-479 278,-443 733,-443 733,-479"/>
<text text-anchor="middle" x="505.5" y="-457.3" font-family="Times,serif" font-size="14.00">/req/sam&#45;basic/SpatialSample/verticalPositionalAccuracy&#45;sem</text>
</g>
<!-- /req/sam&#45;core/AbstractSample/sampleType&#45;sem -->
<g id="node5" class="node">
<title>/req/sam&#45;core/AbstractSample/sampleType&#45;sem</title>
<polygon fill="none" stroke="black" points="1464,-514 1108,-514 1108,-478 1464,-478 1464,-514"/>
<text text-anchor="middle" x="1286" y="-492.3" font-family="Times,serif" font-size="14.00">/req/sam&#45;core/AbstractSample/sampleType&#45;sem</text>
</g>
<!-- /req/sam&#45;core/AbstractSample/parameter&#45;sem -->
<g id="node6" class="node">
<title>/req/sam&#45;core/AbstractSample/parameter&#45;sem</title>
<polygon fill="none" stroke="black" points="1459,-460 1113,-460 1113,-424 1459,-424 1459,-460"/>
<text text-anchor="middle" x="1286" y="-438.3" font-family="Times,serif" font-size="14.00">/req/sam&#45;core/AbstractSample/parameter&#45;sem</text>
</g>
<!-- /req/obs&#45;core/gen/metadata&#45;sem -->
<g id="node7" class="node">
<title>/req/obs&#45;core/gen/metadata&#45;sem</title>
<polygon fill="none" stroke="black" points="1409,-406 1163,-406 1163,-370 1409,-370 1409,-406"/>
<text text-anchor="middle" x="1286" y="-384.3" font-family="Times,serif" font-size="14.00">/req/obs&#45;core/gen/metadata&#45;sem</text>
</g>
<!-- /req/sam&#45;cpt/Sample/Sample&#45;sem -->
<g id="node8" class="node">
<title>/req/sam&#45;cpt/Sample/Sample&#45;sem</title>
<polygon fill="none" stroke="black" points="1793.5,-522 1538.5,-522 1538.5,-486 1793.5,-486 1793.5,-522"/>
<text text-anchor="middle" x="1666" y="-500.3" font-family="Times,serif" font-size="14.00">/req/sam&#45;cpt/Sample/Sample&#45;sem</text>
</g>
<!-- /req/sam&#45;cpt/Sample/sampling&#45;sem -->
<g id="node9" class="node">
<title>/req/sam&#45;cpt/Sample/sampling&#45;sem</title>
<polygon fill="none" stroke="black" points="1799.5,-468 1532.5,-468 1532.5,-432 1799.5,-432 1799.5,-468"/>
<text text-anchor="middle" x="1666" y="-446.3" font-family="Times,serif" font-size="14.00">/req/sam&#45;cpt/Sample/sampling&#45;sem</text>
</g>
<!-- /req/sam&#45;cpt/Sample/preparationStep&#45;sem -->
<g id="node10" class="node">
<title>/req/sam&#45;cpt/Sample/preparationStep&#45;sem</title>
<polygon fill="none" stroke="black" points="1825.5,-414 1506.5,-414 1506.5,-378 1825.5,-378 1825.5,-414"/>
<text text-anchor="middle" x="1666" y="-392.3" font-family="Times,serif" font-size="14.00">/req/sam&#45;cpt/Sample/preparationStep&#45;sem</text>
</g>
<!-- /req/sam&#45;cpt/Sample/sampledFeature&#45;sem -->
<g id="node11" class="node">
<title>/req/sam&#45;cpt/Sample/sampledFeature&#45;sem</title>
<polygon fill="none" stroke="black" points="1824.5,-360 1507.5,-360 1507.5,-324 1824.5,-324 1824.5,-360"/>
<text text-anchor="middle" x="1666" y="-338.3" font-family="Times,serif" font-size="14.00">/req/sam&#45;cpt/Sample/sampledFeature&#45;sem</text>
</g>
<!-- /req/sam&#45;cpt/Sample/sampledFeature&#45;card -->
<g id="node12" class="node">
<title>/req/sam&#45;cpt/Sample/sampledFeature&#45;card</title>
<polygon fill="none" stroke="black" points="1826,-306 1506,-306 1506,-270 1826,-270 1826,-306"/>
<text text-anchor="middle" x="1666" y="-284.3" font-family="Times,serif" font-size="14.00">/req/sam&#45;cpt/Sample/sampledFeature&#45;card</text>
</g>
<!-- /req/sam&#45;cpt/Sample/relatedSample&#45;sem -->
<g id="node13" class="node">
<title>/req/sam&#45;cpt/Sample/relatedSample&#45;sem</title>
<polygon fill="none" stroke="black" points="1819,-252 1513,-252 1513,-216 1819,-216 1819,-252"/>
<text text-anchor="middle" x="1666" y="-230.3" font-family="Times,serif" font-size="14.00">/req/sam&#45;cpt/Sample/relatedSample&#45;sem</text>
</g>
<!-- /req/obs&#45;cpt/gen/relatedObservation&#45;sem -->
<g id="node14" class="node">
<title>/req/obs&#45;cpt/gen/relatedObservation&#45;sem</title>
<polygon fill="none" stroke="black" points="1820,-198 1512,-198 1512,-162 1820,-162 1820,-198"/>
<text text-anchor="middle" x="1666" y="-176.3" font-family="Times,serif" font-size="14.00">/req/obs&#45;cpt/gen/relatedObservation&#45;sem</text>
</g>
<!-- /req/obs&#45;core/NamedValue/NamedValue&#45;sem -->
<g id="node15" class="node">
<title>/req/obs&#45;core/NamedValue/NamedValue&#45;sem</title>
<polygon fill="none" stroke="black" points="1832,-144 1500,-144 1500,-108 1832,-108 1832,-144"/>
<text text-anchor="middle" x="1666" y="-122.3" font-family="Times,serif" font-size="14.00">/req/obs&#45;core/NamedValue/NamedValue&#45;sem</text>
</g>
<!-- /req/obs&#45;core/NamedValue/name&#45;sem -->
<g id="node16" class="node">
<title>/req/obs&#45;core/NamedValue/name&#45;sem</title>
<polygon fill="none" stroke="black" points="1806.5,-90 1525.5,-90 1525.5,-54 1806.5,-54 1806.5,-90"/>
<text text-anchor="middle" x="1666" y="-68.3" font-family="Times,serif" font-size="14.00">/req/obs&#45;core/NamedValue/name&#45;sem</text>
</g>
<!-- /req/obs&#45;core/NamedValue/value&#45;sem -->
<g id="node17" class="node">
<title>/req/obs&#45;core/NamedValue/value&#45;sem</title>
<polygon fill="none" stroke="black" points="1806.5,-36 1525.5,-36 1525.5,0 1806.5,0 1806.5,-36"/>
<text text-anchor="middle" x="1666" y="-14.3" font-family="Times,serif" font-size="14.00">/req/obs&#45;core/NamedValue/value&#45;sem</text>
</g>
<!-- /req/sam&#45;basic/SpatialSample -->
<g id="node18" class="node">
<title>/req/sam&#45;basic/SpatialSample</title>
<polygon fill="none" stroke="black" points="3.5,-527 3.5,-548 230.5,-548 230.5,-527 3.5,-527"/>
<text text-anchor="start" x="11" y="-533.8" font-family="Times,serif" font-size="14.00">/req/sam&#45;basic/SpatialSample</text>
<polygon fill="none" stroke="black" points="3.5,-504 3.5,-525 230.5,-525 230.5,-504 3.5,-504"/>
<text text-anchor="start" x="6.5" y="-510.8" font-family="Times,serif" font-size="14.00">Basic Samples &#45; SpatialSample</text>
<polygon fill="none" stroke="black" points="3.5,-481 3.5,-502 230.5,-502 230.5,-481 3.5,-481"/>
<text text-anchor="start" x="67" y="-487.8" font-family="Times,serif" font-size="14.00">Logical model</text>
<polygon fill="none" stroke="black" points="0,-478.5 0,-551.5 233,-551.5 233,-478.5 0,-478.5"/>
</g>
<!-- /req/sam&#45;basic/SpatialSample&#45;&gt;/req/sam&#45;basic/SpatialSample/SpatialSample&#45;sem -->
<g id="edge1" class="edge">
<title>/req/sam&#45;basic/SpatialSample&#45;&gt;/req/sam&#45;basic/SpatialSample/SpatialSample&#45;sem</title>
<path fill="none" stroke="black" d="M186.16,-551.71C226.24,-573.14 269,-596 269,-596 269,-596 298.93,-599.43 337.45,-603.85"/>
<polygon fill="black" stroke="black" points="337.08,-607.33 347.42,-604.99 337.88,-600.37 337.08,-607.33"/>
</g>
<!-- /req/sam&#45;basic/SpatialSample&#45;&gt;/req/sam&#45;basic/SpatialSample/shape&#45;sem -->
<g id="edge2" class="edge">
<title>/req/sam&#45;basic/SpatialSample&#45;&gt;/req/sam&#45;basic/SpatialSample/shape&#45;sem</title>
<path fill="none" stroke="black" d="M233.1,-535.6C253.83,-539.3 269,-542 269,-542 269,-542 300.91,-545.66 341.23,-550.28"/>
<polygon fill="black" stroke="black" points="341.03,-553.78 351.37,-551.44 341.83,-546.83 341.03,-553.78"/>
</g>
<!-- /req/sam&#45;basic/SpatialSample&#45;&gt;/req/sam&#45;basic/SpatialSample/horizontalPositionalAccuracy&#45;sem -->
<g id="edge3" class="edge">
<title>/req/sam&#45;basic/SpatialSample&#45;&gt;/req/sam&#45;basic/SpatialSample/horizontalPositionalAccuracy&#45;sem</title>
<path fill="none" stroke="black" d="M233.09,-515C241.5,-515 250.15,-515 258.96,-515"/>
<polygon fill="black" stroke="black" points="258.96,-518.5 268.96,-515 258.96,-511.5 258.96,-518.5"/>
</g>
<!-- /req/sam&#45;basic/SpatialSample&#45;&gt;/req/sam&#45;basic/SpatialSample/verticalPositionalAccuracy&#45;sem -->
<g id="edge4" class="edge">
<title>/req/sam&#45;basic/SpatialSample&#45;&gt;/req/sam&#45;basic/SpatialSample/verticalPositionalAccuracy&#45;sem</title>
<path fill="none" stroke="black" d="M233.1,-494.4C253.83,-490.7 269,-488 269,-488 269,-488 298.93,-484.57 337.45,-480.15"/>
<polygon fill="black" stroke="black" points="337.88,-483.63 347.42,-479.01 337.08,-476.67 337.88,-483.63"/>
</g>
<!-- /req/sam&#45;basic/Sample -->
<g id="node19" class="node">
<title>/req/sam&#45;basic/Sample</title>
<polygon fill="none" stroke="black" points="417.5,-400 417.5,-421 594.5,-421 594.5,-400 417.5,-400"/>
<text text-anchor="start" x="425" y="-406.8" font-family="Times,serif" font-size="14.00">/req/sam&#45;basic/Sample</text>
<polygon fill="none" stroke="black" points="417.5,-377 417.5,-398 594.5,-398 594.5,-377 417.5,-377"/>
<text text-anchor="start" x="420.5" y="-383.8" font-family="Times,serif" font-size="14.00">Basic Samples &#45; Sample</text>
<polygon fill="none" stroke="black" points="417.5,-354 417.5,-375 594.5,-375 594.5,-354 417.5,-354"/>
<text text-anchor="start" x="456" y="-360.8" font-family="Times,serif" font-size="14.00">Logical model</text>
<polygon fill="none" stroke="black" points="414,-351.5 414,-424.5 597,-424.5 597,-351.5 414,-351.5"/>
</g>
<!-- /req/sam&#45;basic/SpatialSample&#45;&gt;/req/sam&#45;basic/Sample -->
<g id="edge5" class="edge">
<title>/req/sam&#45;basic/SpatialSample&#45;&gt;/req/sam&#45;basic/Sample</title>
<path fill="none" stroke="black" stroke-dasharray="5,2" d="M186.16,-478.29C226.24,-456.86 269,-434 269,-434 269,-434 339.68,-420.19 403.6,-407.71"/>
<polygon fill="black" stroke="black" points="404.64,-411.07 413.79,-405.72 403.3,-404.2 404.64,-411.07"/>
</g>
<!-- /req/sam&#45;core/AbstractSample -->
<g id="node20" class="node">
<title>/req/sam&#45;core/AbstractSample</title>
<polygon fill="none" stroke="black" points="781,-400 781,-421 1069,-421 1069,-400 781,-400"/>
<text text-anchor="start" x="816.5" y="-406.8" font-family="Times,serif" font-size="14.00">/req/sam&#45;core/AbstractSample</text>
<polygon fill="none" stroke="black" points="781,-377 781,-398 1069,-398 1069,-377 781,-377"/>
<text text-anchor="start" x="784" y="-383.8" font-family="Times,serif" font-size="14.00">Abstract Sample core &#45; AbstractSample</text>
<polygon fill="none" stroke="black" points="781,-354 781,-375 1069,-375 1069,-354 781,-354"/>
<text text-anchor="start" x="875" y="-360.8" font-family="Times,serif" font-size="14.00">Logical model</text>
<polygon fill="none" stroke="black" points="778,-351.5 778,-424.5 1072,-424.5 1072,-351.5 778,-351.5"/>
</g>
<!-- /req/sam&#45;basic/Sample&#45;&gt;/req/sam&#45;core/AbstractSample -->
<g id="edge6" class="edge">
<title>/req/sam&#45;basic/Sample&#45;&gt;/req/sam&#45;core/AbstractSample</title>
<path fill="none" stroke="black" stroke-dasharray="5,2" d="M597.09,-388C646.86,-388 710,-388 767.49,-388"/>
<polygon fill="black" stroke="black" points="767.78,-391.5 777.78,-388 767.78,-384.5 767.78,-391.5"/>
</g>
<!-- /req/sam&#45;core/AbstractSample&#45;&gt;/req/sam&#45;core/AbstractSample/sampleType&#45;sem -->
<g id="edge7" class="edge">
<title>/req/sam&#45;core/AbstractSample&#45;&gt;/req/sam&#45;core/AbstractSample/sampleType&#45;sem</title>
<path fill="none" stroke="black" d="M1008.21,-424.59C1056.45,-446.06 1108,-469 1108,-469 1108,-469 1129.18,-472.23 1156.89,-476.46"/>
<polygon fill="black" stroke="black" points="1156.52,-479.94 1166.94,-477.99 1157.58,-473.02 1156.52,-479.94"/>
</g>
<!-- /req/sam&#45;core/AbstractSample&#45;&gt;/req/sam&#45;core/AbstractSample/parameter&#45;sem -->
<g id="edge8" class="edge">
<title>/req/sam&#45;core/AbstractSample&#45;&gt;/req/sam&#45;core/AbstractSample/parameter&#45;sem</title>
<path fill="none" stroke="black" d="M1072.02,-409.96C1099.47,-414.09 1128.01,-418.39 1154.94,-422.44"/>
<polygon fill="black" stroke="black" points="1154.77,-425.95 1165.18,-423.98 1155.81,-419.03 1154.77,-425.95"/>
</g>
<!-- /req/sam&#45;core/AbstractSample&#45;&gt;/req/obs&#45;core/gen/metadata&#45;sem -->
<g id="edge9" class="edge">
<title>/req/sam&#45;core/AbstractSample&#45;&gt;/req/obs&#45;core/gen/metadata&#45;sem</title>
<path fill="none" stroke="black" d="M1072.02,-388C1098.79,-388 1126.58,-388 1152.91,-388"/>
<polygon fill="black" stroke="black" points="1152.93,-391.5 1162.93,-388 1152.93,-384.5 1152.93,-391.5"/>
</g>
<!-- /req/sam&#45;cpt/Sample -->
<g id="node21" class="node">
<title>/req/sam&#45;cpt/Sample</title>
<polygon fill="none" stroke="black" points="1181,-327 1181,-348 1392,-348 1392,-327 1181,-327"/>
<text text-anchor="start" x="1212.5" y="-333.8" font-family="Times,serif" font-size="14.00">/req/sam&#45;cpt/Sample</text>
<polygon fill="none" stroke="black" points="1181,-304 1181,-325 1392,-325 1392,-304 1181,-304"/>
<text text-anchor="start" x="1184" y="-310.8" font-family="Times,serif" font-size="14.00">Conceptual Sample &#45; Sample</text>
<polygon fill="none" stroke="black" points="1181,-281 1181,-302 1392,-302 1392,-281 1181,-281"/>
<text text-anchor="start" x="1222" y="-287.8" font-family="Times,serif" font-size="14.00">Conceptual model</text>
<polygon fill="none" stroke="black" points="1177.5,-278.5 1177.5,-351.5 1394.5,-351.5 1394.5,-278.5 1177.5,-278.5"/>
</g>
<!-- /req/sam&#45;core/AbstractSample&#45;&gt;/req/sam&#45;cpt/Sample -->
<g id="edge10" class="edge">
<title>/req/sam&#45;core/AbstractSample&#45;&gt;/req/sam&#45;cpt/Sample</title>
<path fill="none" stroke="black" stroke-dasharray="5,2" d="M1072.02,-358.31C1103.81,-351.84 1137.06,-345.08 1167.57,-338.88"/>
<polygon fill="black" stroke="black" points="1168.28,-342.31 1177.38,-336.88 1166.88,-335.45 1168.28,-342.31"/>
</g>
<!-- /req/obs&#45;core/NamedValue -->
<g id="node22" class="node">
<title>/req/obs&#45;core/NamedValue</title>
<polygon fill="none" stroke="black" points="1137,-111 1137,-132 1435,-132 1435,-111 1137,-111"/>
<text text-anchor="start" x="1192" y="-117.8" font-family="Times,serif" font-size="14.00">/req/obs&#45;core/NamedValue</text>
<polygon fill="none" stroke="black" points="1137,-88 1137,-109 1435,-109 1435,-88 1137,-88"/>
<text text-anchor="start" x="1140" y="-94.8" font-family="Times,serif" font-size="14.00">Abstract Observation core &#45; NamedValue</text>
<polygon fill="none" stroke="black" points="1137,-65 1137,-86 1435,-86 1435,-65 1137,-65"/>
<text text-anchor="start" x="1236" y="-71.8" font-family="Times,serif" font-size="14.00">Logical model</text>
<polygon fill="none" stroke="black" points="1134,-62.5 1134,-135.5 1438,-135.5 1438,-62.5 1134,-62.5"/>
</g>
<!-- /req/sam&#45;core/AbstractSample&#45;&gt;/req/obs&#45;core/NamedValue -->
<g id="edge11" class="edge">
<title>/req/sam&#45;core/AbstractSample&#45;&gt;/req/obs&#45;core/NamedValue</title>
<path fill="none" stroke="black" stroke-dasharray="5,2" d="M971.47,-351.4C1037.87,-297.94 1161.12,-198.72 1231.7,-141.91"/>
<polygon fill="black" stroke="black" points="1234.02,-144.53 1239.62,-135.53 1229.63,-139.08 1234.02,-144.53"/>
</g>
<!-- /req/sam&#45;cpt/Sample&#45;&gt;/req/sam&#45;cpt/Sample/Sample&#45;sem -->
<g id="edge12" class="edge">
<title>/req/sam&#45;cpt/Sample&#45;&gt;/req/sam&#45;cpt/Sample/Sample&#45;sem</title>
<path fill="none" stroke="black" d="M1394.55,-342.95C1431.62,-352.58 1464,-361 1464,-361 1464,-361 1500,-477 1500,-477 1500,-477 1519.4,-480.17 1544.9,-484.35"/>
<polygon fill="black" stroke="black" points="1544.51,-487.83 1554.94,-485.99 1545.64,-480.92 1544.51,-487.83"/>
</g>
<!-- /req/sam&#45;cpt/Sample&#45;&gt;/req/sam&#45;cpt/Sample/sampling&#45;sem -->
<g id="edge13" class="edge">
<title>/req/sam&#45;cpt/Sample&#45;&gt;/req/sam&#45;cpt/Sample/sampling&#45;sem</title>
<path fill="none" stroke="black" d="M1394.55,-342.95C1431.62,-352.58 1464,-361 1464,-361 1464,-361 1500,-423 1500,-423 1500,-423 1519.4,-426.17 1544.9,-430.35"/>
<polygon fill="black" stroke="black" points="1544.51,-433.83 1554.94,-431.99 1545.64,-426.92 1544.51,-433.83"/>
</g>
<!-- /req/sam&#45;cpt/Sample&#45;&gt;/req/sam&#45;cpt/Sample/preparationStep&#45;sem -->
<g id="edge14" class="edge">
<title>/req/sam&#45;cpt/Sample&#45;&gt;/req/sam&#45;cpt/Sample/preparationStep&#45;sem</title>
<path fill="none" stroke="black" d="M1394.75,-342.32C1447.58,-355.71 1500,-369 1500,-369 1500,-369 1519.4,-372.17 1544.9,-376.35"/>
<polygon fill="black" stroke="black" points="1544.51,-379.83 1554.94,-377.99 1545.64,-372.92 1544.51,-379.83"/>
</g>
<!-- /req/sam&#45;cpt/Sample&#45;&gt;/req/sam&#45;cpt/Sample/sampledFeature&#45;sem -->
<g id="edge15" class="edge">
<title>/req/sam&#45;cpt/Sample&#45;&gt;/req/sam&#45;cpt/Sample/sampledFeature&#45;sem</title>
<path fill="none" stroke="black" d="M1394.56,-322.68C1426.44,-324.96 1462.15,-327.51 1496.89,-329.99"/>
<polygon fill="black" stroke="black" points="1496.93,-333.5 1507.15,-330.73 1497.43,-326.52 1496.93,-333.5"/>
</g>
<!-- /req/sam&#45;cpt/Sample&#45;&gt;/req/sam&#45;cpt/Sample/sampledFeature&#45;card -->
<g id="edge16" class="edge">
<title>/req/sam&#45;cpt/Sample&#45;&gt;/req/sam&#45;cpt/Sample/sampledFeature&#45;card</title>
<path fill="none" stroke="black" d="M1394.56,-307.32C1426.04,-305.07 1461.26,-302.55 1495.6,-300.1"/>
<polygon fill="black" stroke="black" points="1496.01,-303.58 1505.73,-299.38 1495.51,-296.6 1496.01,-303.58"/>
</g>
<!-- /req/sam&#45;cpt/Sample&#45;&gt;/req/sam&#45;cpt/Sample/relatedSample&#45;sem -->
<g id="edge17" class="edge">
<title>/req/sam&#45;cpt/Sample&#45;&gt;/req/sam&#45;cpt/Sample/relatedSample&#45;sem</title>
<path fill="none" stroke="black" d="M1394.75,-287.68C1447.58,-274.29 1500,-261 1500,-261 1500,-261 1519.4,-257.83 1544.9,-253.65"/>
<polygon fill="black" stroke="black" points="1545.64,-257.08 1554.94,-252.01 1544.51,-250.17 1545.64,-257.08"/>
</g>
<!-- /req/sam&#45;cpt/Sample&#45;&gt;/req/obs&#45;cpt/gen/relatedObservation&#45;sem -->
<g id="edge18" class="edge">
<title>/req/sam&#45;cpt/Sample&#45;&gt;/req/obs&#45;cpt/gen/relatedObservation&#45;sem</title>
<path fill="none" stroke="black" d="M1359.11,-278.44C1420.91,-247.1 1500,-207 1500,-207 1500,-207 1519.4,-203.83 1544.9,-199.65"/>
<polygon fill="black" stroke="black" points="1545.64,-203.08 1554.94,-198.01 1544.51,-196.17 1545.64,-203.08"/>
</g>
<!-- /req/obs&#45;core/NamedValue&#45;&gt;/req/obs&#45;core/NamedValue/NamedValue&#45;sem -->
<g id="edge19" class="edge">
<title>/req/obs&#45;core/NamedValue&#45;&gt;/req/obs&#45;core/NamedValue/NamedValue&#45;sem</title>
<path fill="none" stroke="black" d="M1438.03,-109.79C1455.04,-111 1472.49,-112.25 1489.78,-113.48"/>
<polygon fill="black" stroke="black" points="1489.72,-116.99 1499.94,-114.21 1490.22,-110.01 1489.72,-116.99"/>
</g>
<!-- /req/obs&#45;core/NamedValue&#45;&gt;/req/obs&#45;core/NamedValue/name&#45;sem -->
<g id="edge20" class="edge">
<title>/req/obs&#45;core/NamedValue&#45;&gt;/req/obs&#45;core/NamedValue/name&#45;sem</title>
<path fill="none" stroke="black" d="M1438.03,-88.21C1463.44,-86.4 1489.81,-84.51 1515.2,-82.7"/>
<polygon fill="black" stroke="black" points="1515.52,-86.19 1525.25,-81.98 1515.03,-79.2 1515.52,-86.19"/>
</g>
<!-- /req/obs&#45;core/NamedValue&#45;&gt;/req/obs&#45;core/NamedValue/value&#45;sem -->
<g id="edge21" class="edge">
<title>/req/obs&#45;core/NamedValue&#45;&gt;/req/obs&#45;core/NamedValue/value&#45;sem</title>
<path fill="none" stroke="black" d="M1431.14,-62.46C1469.26,-52.79 1500,-45 1500,-45 1500,-45 1519.4,-41.83 1544.9,-37.65"/>
<polygon fill="black" stroke="black" points="1545.64,-41.08 1554.94,-36.01 1544.51,-34.17 1545.64,-41.08"/>
</g>
</g>
</svg>
