<?xml version="1.0" encoding="UTF-8" standalone="no"?>
<!DOCTYPE svg PUBLIC "-//W3C//DTD SVG 1.1//EN"
 "http://www.w3.org/Graphics/SVG/1.1/DTD/svg11.dtd">
<!-- Generated by graphviz version 2.43.0 (0)
 -->
<!-- Title: G Pages: 1 -->
<svg width="1926pt" height="640pt"
 viewBox="0.00 0.00 1926.00 640.00" xmlns="http://www.w3.org/2000/svg" xmlns:xlink="http://www.w3.org/1999/xlink">
<g id="graph0" class="graph" transform="scale(1 1) rotate(0) translate(4 636)">
<title>G</title>
<polygon fill="white" stroke="transparent" points="-4,4 -4,-636 1922,-636 1922,4 -4,4"/>
<!-- /req/sam&#45;basic/MaterialSample/MaterialSample&#45;sem -->
<g id="node1" class="node">
<title>/req/sam&#45;basic/MaterialSample/MaterialSample&#45;sem</title>
<polygon fill="none" stroke="black" points="671.5,-632 280.5,-632 280.5,-596 671.5,-596 671.5,-632"/>
<text text-anchor="middle" x="476" y="-610.3" font-family="Times,serif" font-size="14.00">/req/sam&#45;basic/MaterialSample/MaterialSample&#45;sem</text>
</g>
<!-- /req/sam&#45;basic/MaterialSample/size&#45;sem -->
<g id="node2" class="node">
<title>/req/sam&#45;basic/MaterialSample/size&#45;sem</title>
<polygon fill="none" stroke="black" points="628.5,-578 323.5,-578 323.5,-542 628.5,-542 628.5,-578"/>
<text text-anchor="middle" x="476" y="-556.3" font-family="Times,serif" font-size="14.00">/req/sam&#45;basic/MaterialSample/size&#45;sem</text>
</g>
<!-- /req/sam&#45;basic/MaterialSample/storageLocation&#45;sem -->
<g id="node3" class="node">
<title>/req/sam&#45;basic/MaterialSample/storageLocation&#45;sem</title>
<polygon fill="none" stroke="black" points="672,-524 280,-524 280,-488 672,-488 672,-524"/>
<text text-anchor="middle" x="476" y="-502.3" font-family="Times,serif" font-size="14.00">/req/sam&#45;basic/MaterialSample/storageLocation&#45;sem</text>
</g>
<!-- /req/sam&#45;basic/MaterialSample/sourceLocation&#45;sem -->
<g id="node4" class="node">
<title>/req/sam&#45;basic/MaterialSample/sourceLocation&#45;sem</title>
<polygon fill="none" stroke="black" points="668.5,-470 283.5,-470 283.5,-434 668.5,-434 668.5,-470"/>
<text text-anchor="middle" x="476" y="-448.3" font-family="Times,serif" font-size="14.00">/req/sam&#45;basic/MaterialSample/sourceLocation&#45;sem</text>
</g>
<!-- /req/sam&#45;core/AbstractSample/sampleType&#45;sem -->
<g id="node5" class="node">
<title>/req/sam&#45;core/AbstractSample/sampleType&#45;sem</title>
<polygon fill="none" stroke="black" points="1550,-541 1194,-541 1194,-505 1550,-505 1550,-541"/>
<text text-anchor="middle" x="1372" y="-519.3" font-family="Times,serif" font-size="14.00">/req/sam&#45;core/AbstractSample/sampleType&#45;sem</text>
</g>
<!-- /req/sam&#45;core/AbstractSample/parameter&#45;sem -->
<g id="node6" class="node">
<title>/req/sam&#45;core/AbstractSample/parameter&#45;sem</title>
<polygon fill="none" stroke="black" points="1545,-487 1199,-487 1199,-451 1545,-451 1545,-487"/>
<text text-anchor="middle" x="1372" y="-465.3" font-family="Times,serif" font-size="14.00">/req/sam&#45;core/AbstractSample/parameter&#45;sem</text>
</g>
<!-- /req/obs&#45;core/gen/metadata&#45;sem -->
<g id="node7" class="node">
<title>/req/obs&#45;core/gen/metadata&#45;sem</title>
<polygon fill="none" stroke="black" points="1495,-433 1249,-433 1249,-397 1495,-397 1495,-433"/>
<text text-anchor="middle" x="1372" y="-411.3" font-family="Times,serif" font-size="14.00">/req/obs&#45;core/gen/metadata&#45;sem</text>
</g>
<!-- /req/sam&#45;cpt/Sample/Sample&#45;sem -->
<g id="node8" class="node">
<title>/req/sam&#45;cpt/Sample/Sample&#45;sem</title>
<polygon fill="none" stroke="black" points="1879.5,-549 1624.5,-549 1624.5,-513 1879.5,-513 1879.5,-549"/>
<text text-anchor="middle" x="1752" y="-527.3" font-family="Times,serif" font-size="14.00">/req/sam&#45;cpt/Sample/Sample&#45;sem</text>
</g>
<!-- /req/sam&#45;cpt/Sample/sampling&#45;sem -->
<g id="node9" class="node">
<title>/req/sam&#45;cpt/Sample/sampling&#45;sem</title>
<polygon fill="none" stroke="black" points="1885.5,-495 1618.5,-495 1618.5,-459 1885.5,-459 1885.5,-495"/>
<text text-anchor="middle" x="1752" y="-473.3" font-family="Times,serif" font-size="14.00">/req/sam&#45;cpt/Sample/sampling&#45;sem</text>
</g>
<!-- /req/sam&#45;cpt/Sample/preparationStep&#45;sem -->
<g id="node10" class="node">
<title>/req/sam&#45;cpt/Sample/preparationStep&#45;sem</title>
<polygon fill="none" stroke="black" points="1911.5,-441 1592.5,-441 1592.5,-405 1911.5,-405 1911.5,-441"/>
<text text-anchor="middle" x="1752" y="-419.3" font-family="Times,serif" font-size="14.00">/req/sam&#45;cpt/Sample/preparationStep&#45;sem</text>
</g>
<!-- /req/sam&#45;cpt/Sample/sampledFeature&#45;sem -->
<g id="node11" class="node">
<title>/req/sam&#45;cpt/Sample/sampledFeature&#45;sem</title>
<polygon fill="none" stroke="black" points="1910.5,-387 1593.5,-387 1593.5,-351 1910.5,-351 1910.5,-387"/>
<text text-anchor="middle" x="1752" y="-365.3" font-family="Times,serif" font-size="14.00">/req/sam&#45;cpt/Sample/sampledFeature&#45;sem</text>
</g>
<!-- /req/sam&#45;cpt/Sample/sampledFeature&#45;card -->
<g id="node12" class="node">
<title>/req/sam&#45;cpt/Sample/sampledFeature&#45;card</title>
<polygon fill="none" stroke="black" points="1912,-333 1592,-333 1592,-297 1912,-297 1912,-333"/>
<text text-anchor="middle" x="1752" y="-311.3" font-family="Times,serif" font-size="14.00">/req/sam&#45;cpt/Sample/sampledFeature&#45;card</text>
</g>
<!-- /req/sam&#45;cpt/Sample/relatedSample&#45;sem -->
<g id="node13" class="node">
<title>/req/sam&#45;cpt/Sample/relatedSample&#45;sem</title>
<polygon fill="none" stroke="black" points="1905,-279 1599,-279 1599,-243 1905,-243 1905,-279"/>
<text text-anchor="middle" x="1752" y="-257.3" font-family="Times,serif" font-size="14.00">/req/sam&#45;cpt/Sample/relatedSample&#45;sem</text>
</g>
<!-- /req/obs&#45;cpt/gen/relatedObservation&#45;sem -->
<g id="node14" class="node">
<title>/req/obs&#45;cpt/gen/relatedObservation&#45;sem</title>
<polygon fill="none" stroke="black" points="1906,-225 1598,-225 1598,-189 1906,-189 1906,-225"/>
<text text-anchor="middle" x="1752" y="-203.3" font-family="Times,serif" font-size="14.00">/req/obs&#45;cpt/gen/relatedObservation&#45;sem</text>
</g>
<!-- /req/obs&#45;core/NamedValue/NamedValue&#45;sem -->
<g id="node15" class="node">
<title>/req/obs&#45;core/NamedValue/NamedValue&#45;sem</title>
<polygon fill="none" stroke="black" points="1918,-171 1586,-171 1586,-135 1918,-135 1918,-171"/>
<text text-anchor="middle" x="1752" y="-149.3" font-family="Times,serif" font-size="14.00">/req/obs&#45;core/NamedValue/NamedValue&#45;sem</text>
</g>
<!-- /req/obs&#45;core/NamedValue/name&#45;sem -->
<g id="node16" class="node">
<title>/req/obs&#45;core/NamedValue/name&#45;sem</title>
<polygon fill="none" stroke="black" points="1892.5,-117 1611.5,-117 1611.5,-81 1892.5,-81 1892.5,-117"/>
<text text-anchor="middle" x="1752" y="-95.3" font-family="Times,serif" font-size="14.00">/req/obs&#45;core/NamedValue/name&#45;sem</text>
</g>
<!-- /req/obs&#45;core/NamedValue/value&#45;sem -->
<g id="node17" class="node">
<title>/req/obs&#45;core/NamedValue/value&#45;sem</title>
<polygon fill="none" stroke="black" points="1892.5,-63 1611.5,-63 1611.5,-27 1892.5,-27 1892.5,-63"/>
<text text-anchor="middle" x="1752" y="-41.3" font-family="Times,serif" font-size="14.00">/req/obs&#45;core/NamedValue/value&#45;sem</text>
</g>
<!-- /req/sam&#45;basic/PhysicalDimension/PhysicalDimension&#45;sem -->
<g id="node18" class="node">
<title>/req/sam&#45;basic/PhysicalDimension/PhysicalDimension&#45;sem</title>
<polygon fill="none" stroke="black" points="1149.5,-360 716.5,-360 716.5,-324 1149.5,-324 1149.5,-360"/>
<text text-anchor="middle" x="933" y="-338.3" font-family="Times,serif" font-size="14.00">/req/sam&#45;basic/PhysicalDimension/PhysicalDimension&#45;sem</text>
</g>
<!-- /req/sam&#45;basic/PhysicalDimension/dimension&#45;sem -->
<g id="node19" class="node">
<title>/req/sam&#45;basic/PhysicalDimension/dimension&#45;sem</title>
<polygon fill="none" stroke="black" points="1118.5,-306 747.5,-306 747.5,-270 1118.5,-270 1118.5,-306"/>
<text text-anchor="middle" x="933" y="-284.3" font-family="Times,serif" font-size="14.00">/req/sam&#45;basic/PhysicalDimension/dimension&#45;sem</text>
</g>
<!-- /req/sam&#45;basic/PhysicalDimension/value&#45;sem -->
<g id="node20" class="node">
<title>/req/sam&#45;basic/PhysicalDimension/value&#45;sem</title>
<polygon fill="none" stroke="black" points="1101,-252 765,-252 765,-216 1101,-216 1101,-252"/>
<text text-anchor="middle" x="933" y="-230.3" font-family="Times,serif" font-size="14.00">/req/sam&#45;basic/PhysicalDimension/value&#45;sem</text>
</g>
<!-- /req/sam&#45;basic/NamedLocation/NamedLocation&#45;sem -->
<g id="node21" class="node">
<title>/req/sam&#45;basic/NamedLocation/NamedLocation&#45;sem</title>
<polygon fill="none" stroke="black" points="1126,-198 740,-198 740,-162 1126,-162 1126,-198"/>
<text text-anchor="middle" x="933" y="-176.3" font-family="Times,serif" font-size="14.00">/req/sam&#45;basic/NamedLocation/NamedLocation&#45;sem</text>
</g>
<!-- /req/sam&#45;basic/NamedLocation/address&#45;sem -->
<g id="node22" class="node">
<title>/req/sam&#45;basic/NamedLocation/address&#45;sem</title>
<polygon fill="none" stroke="black" points="1098.5,-144 767.5,-144 767.5,-108 1098.5,-108 1098.5,-144"/>
<text text-anchor="middle" x="933" y="-122.3" font-family="Times,serif" font-size="14.00">/req/sam&#45;basic/NamedLocation/address&#45;sem</text>
</g>
<!-- /req/sam&#45;basic/NamedLocation/name&#45;sem -->
<g id="node23" class="node">
<title>/req/sam&#45;basic/NamedLocation/name&#45;sem</title>
<polygon fill="none" stroke="black" points="1090,-90 776,-90 776,-54 1090,-54 1090,-90"/>
<text text-anchor="middle" x="933" y="-68.3" font-family="Times,serif" font-size="14.00">/req/sam&#45;basic/NamedLocation/name&#45;sem</text>
</g>
<!-- /req/sam&#45;basic/NamedLocation/representativeGeometry&#45;sem -->
<g id="node24" class="node">
<title>/req/sam&#45;basic/NamedLocation/representativeGeometry&#45;sem</title>
<polygon fill="none" stroke="black" points="1158,-36 708,-36 708,0 1158,0 1158,-36"/>
<text text-anchor="middle" x="933" y="-14.3" font-family="Times,serif" font-size="14.00">/req/sam&#45;basic/NamedLocation/representativeGeometry&#45;sem</text>
</g>
<!-- /req/sam&#45;basic/MaterialSample -->
<g id="node25" class="node">
<title>/req/sam&#45;basic/MaterialSample</title>
<polygon fill="none" stroke="black" points="3,-464 3,-485 241,-485 241,-464 3,-464"/>
<text text-anchor="start" x="10.5" y="-470.8" font-family="Times,serif" font-size="14.00">/req/sam&#45;basic/MaterialSample</text>
<polygon fill="none" stroke="black" points="3,-441 3,-462 241,-462 241,-441 3,-441"/>
<text text-anchor="start" x="6" y="-447.8" font-family="Times,serif" font-size="14.00">Basic Samples &#45; MaterialSample</text>
<polygon fill="none" stroke="black" points="3,-418 3,-439 241,-439 241,-418 3,-418"/>
<text text-anchor="start" x="72" y="-424.8" font-family="Times,serif" font-size="14.00">Logical model</text>
<polygon fill="none" stroke="black" points="0,-415.5 0,-488.5 244,-488.5 244,-415.5 0,-415.5"/>
</g>
<!-- /req/sam&#45;basic/MaterialSample&#45;&gt;/req/sam&#45;basic/MaterialSample/MaterialSample&#45;sem -->
<g id="edge1" class="edge">
<title>/req/sam&#45;basic/MaterialSample&#45;&gt;/req/sam&#45;basic/MaterialSample/MaterialSample&#45;sem</title>
<path fill="none" stroke="black" d="M165.49,-488.53C211.98,-528.51 280,-587 280,-587 280,-587 303.74,-590.29 334.66,-594.57"/>
<polygon fill="black" stroke="black" points="334.55,-598.09 344.93,-595.99 335.51,-591.15 334.55,-598.09"/>
</g>
<!-- /req/sam&#45;basic/MaterialSample&#45;&gt;/req/sam&#45;basic/MaterialSample/size&#45;sem -->
<g id="edge2" class="edge">
<title>/req/sam&#45;basic/MaterialSample&#45;&gt;/req/sam&#45;basic/MaterialSample/size&#45;sem</title>
<path fill="none" stroke="black" d="M194.15,-488.71C235.69,-510.14 280,-533 280,-533 280,-533 303.74,-536.29 334.66,-540.57"/>
<polygon fill="black" stroke="black" points="334.55,-544.09 344.93,-541.99 335.51,-537.15 334.55,-544.09"/>
</g>
<!-- /req/sam&#45;basic/MaterialSample&#45;&gt;/req/sam&#45;basic/MaterialSample/storageLocation&#45;sem -->
<g id="edge3" class="edge">
<title>/req/sam&#45;basic/MaterialSample&#45;&gt;/req/sam&#45;basic/MaterialSample/storageLocation&#45;sem</title>
<path fill="none" stroke="black" d="M244.37,-472.87C265.05,-476.43 280,-479 280,-479 280,-479 303.74,-482.29 334.66,-486.57"/>
<polygon fill="black" stroke="black" points="334.55,-490.09 344.93,-487.99 335.51,-483.15 334.55,-490.09"/>
</g>
<!-- /req/sam&#45;basic/MaterialSample&#45;&gt;/req/sam&#45;basic/MaterialSample/sourceLocation&#45;sem -->
<g id="edge4" class="edge">
<title>/req/sam&#45;basic/MaterialSample&#45;&gt;/req/sam&#45;basic/MaterialSample/sourceLocation&#45;sem</title>
<path fill="none" stroke="black" d="M244.14,-452C253.58,-452 263.27,-452 273.06,-452"/>
<polygon fill="black" stroke="black" points="273.29,-455.5 283.29,-452 273.29,-448.5 273.29,-455.5"/>
</g>
<!-- /req/sam&#45;basic/Sample -->
<g id="node26" class="node">
<title>/req/sam&#45;basic/Sample</title>
<polygon fill="none" stroke="black" points="388,-391 388,-412 565,-412 565,-391 388,-391"/>
<text text-anchor="start" x="395.5" y="-397.8" font-family="Times,serif" font-size="14.00">/req/sam&#45;basic/Sample</text>
<polygon fill="none" stroke="black" points="388,-368 388,-389 565,-389 565,-368 388,-368"/>
<text text-anchor="start" x="391" y="-374.8" font-family="Times,serif" font-size="14.00">Basic Samples &#45; Sample</text>
<polygon fill="none" stroke="black" points="388,-345 388,-366 565,-366 565,-345 388,-345"/>
<text text-anchor="start" x="426.5" y="-351.8" font-family="Times,serif" font-size="14.00">Logical model</text>
<polygon fill="none" stroke="black" points="384.5,-342.5 384.5,-415.5 567.5,-415.5 567.5,-342.5 384.5,-342.5"/>
</g>
<!-- /req/sam&#45;basic/MaterialSample&#45;&gt;/req/sam&#45;basic/Sample -->
<g id="edge5" class="edge">
<title>/req/sam&#45;basic/MaterialSample&#45;&gt;/req/sam&#45;basic/Sample</title>
<path fill="none" stroke="black" stroke-dasharray="5,2" d="M244.14,-426.88C286.58,-418.08 333.75,-408.29 374.33,-399.88"/>
<polygon fill="black" stroke="black" points="375.15,-403.28 384.23,-397.83 373.72,-396.43 375.15,-403.28"/>
</g>
<!-- /req/sam&#45;basic/PhysicalDimension -->
<g id="node30" class="node">
<title>/req/sam&#45;basic/PhysicalDimension</title>
<polygon fill="none" stroke="black" points="347,-300 347,-321 606,-321 606,-300 347,-300"/>
<text text-anchor="start" x="354.5" y="-306.8" font-family="Times,serif" font-size="14.00">/req/sam&#45;basic/PhysicalDimension</text>
<polygon fill="none" stroke="black" points="347,-277 347,-298 606,-298 606,-277 347,-277"/>
<text text-anchor="start" x="350" y="-283.8" font-family="Times,serif" font-size="14.00">Basic Samples &#45; PhysicalDimension</text>
<polygon fill="none" stroke="black" points="347,-254 347,-275 606,-275 606,-254 347,-254"/>
<text text-anchor="start" x="426.5" y="-260.8" font-family="Times,serif" font-size="14.00">Logical model</text>
<polygon fill="none" stroke="black" points="343.5,-251.5 343.5,-324.5 608.5,-324.5 608.5,-251.5 343.5,-251.5"/>
</g>
<!-- /req/sam&#45;basic/MaterialSample&#45;&gt;/req/sam&#45;basic/PhysicalDimension -->
<g id="edge6" class="edge">
<title>/req/sam&#45;basic/MaterialSample&#45;&gt;/req/sam&#45;basic/PhysicalDimension</title>
<path fill="none" stroke="black" stroke-dasharray="5,2" d="M171.82,-415.31C217.9,-380.67 280,-334 280,-334 280,-334 303.03,-328.57 333.26,-321.44"/>
<polygon fill="black" stroke="black" points="334.38,-324.77 343.31,-319.07 332.77,-317.95 334.38,-324.77"/>
</g>
<!-- /req/sam&#45;basic/NamedLocation -->
<g id="node31" class="node">
<title>/req/sam&#45;basic/NamedLocation</title>
<polygon fill="none" stroke="black" points="359,-138 359,-159 594,-159 594,-138 359,-138"/>
<text text-anchor="start" x="366.5" y="-144.8" font-family="Times,serif" font-size="14.00">/req/sam&#45;basic/NamedLocation</text>
<polygon fill="none" stroke="black" points="359,-115 359,-136 594,-136 594,-115 359,-115"/>
<text text-anchor="start" x="362" y="-121.8" font-family="Times,serif" font-size="14.00">Basic Samples &#45; NamedLocation</text>
<polygon fill="none" stroke="black" points="359,-92 359,-113 594,-113 594,-92 359,-92"/>
<text text-anchor="start" x="426.5" y="-98.8" font-family="Times,serif" font-size="14.00">Logical model</text>
<polygon fill="none" stroke="black" points="355.5,-89.5 355.5,-162.5 596.5,-162.5 596.5,-89.5 355.5,-89.5"/>
</g>
<!-- /req/sam&#45;basic/MaterialSample&#45;&gt;/req/sam&#45;basic/NamedLocation -->
<g id="edge7" class="edge">
<title>/req/sam&#45;basic/MaterialSample&#45;&gt;/req/sam&#45;basic/NamedLocation</title>
<path fill="none" stroke="black" stroke-dasharray="5,2" d="M150.71,-415.12C195.78,-355.12 280,-243 280,-243 280,-243 349.28,-201.43 405.25,-167.85"/>
<polygon fill="black" stroke="black" points="407.33,-170.68 414.1,-162.54 403.73,-164.68 407.33,-170.68"/>
</g>
<!-- /req/sam&#45;core/AbstractSample -->
<g id="node27" class="node">
<title>/req/sam&#45;core/AbstractSample</title>
<polygon fill="none" stroke="black" points="789,-427 789,-448 1077,-448 1077,-427 789,-427"/>
<text text-anchor="start" x="824.5" y="-433.8" font-family="Times,serif" font-size="14.00">/req/sam&#45;core/AbstractSample</text>
<polygon fill="none" stroke="black" points="789,-404 789,-425 1077,-425 1077,-404 789,-404"/>
<text text-anchor="start" x="792" y="-410.8" font-family="Times,serif" font-size="14.00">Abstract Sample core &#45; AbstractSample</text>
<polygon fill="none" stroke="black" points="789,-381 789,-402 1077,-402 1077,-381 789,-381"/>
<text text-anchor="start" x="883" y="-387.8" font-family="Times,serif" font-size="14.00">Logical model</text>
<polygon fill="none" stroke="black" points="786,-378.5 786,-451.5 1080,-451.5 1080,-378.5 786,-378.5"/>
</g>
<!-- /req/sam&#45;basic/Sample&#45;&gt;/req/sam&#45;core/AbstractSample -->
<g id="edge8" class="edge">
<title>/req/sam&#45;basic/Sample&#45;&gt;/req/sam&#45;core/AbstractSample</title>
<path fill="none" stroke="black" stroke-dasharray="5,2" d="M567.71,-386.18C627.14,-390.88 706.37,-397.15 775.77,-402.64"/>
<polygon fill="black" stroke="black" points="775.68,-406.14 785.93,-403.44 776.24,-399.16 775.68,-406.14"/>
</g>
<!-- /req/sam&#45;core/AbstractSample&#45;&gt;/req/sam&#45;core/AbstractSample/sampleType&#45;sem -->
<g id="edge9" class="edge">
<title>/req/sam&#45;core/AbstractSample&#45;&gt;/req/sam&#45;core/AbstractSample/sampleType&#45;sem</title>
<path fill="none" stroke="black" d="M1051.45,-451.59C1120.35,-473.06 1194,-496 1194,-496 1194,-496 1215.18,-499.23 1242.89,-503.46"/>
<polygon fill="black" stroke="black" points="1242.52,-506.94 1252.94,-504.99 1243.58,-500.02 1242.52,-506.94"/>
</g>
<!-- /req/sam&#45;core/AbstractSample&#45;&gt;/req/sam&#45;core/AbstractSample/parameter&#45;sem -->
<g id="edge10" class="edge">
<title>/req/sam&#45;core/AbstractSample&#45;&gt;/req/sam&#45;core/AbstractSample/parameter&#45;sem</title>
<path fill="none" stroke="black" d="M1080.12,-433.06C1123.4,-438.4 1170.94,-444.28 1214.83,-449.7"/>
<polygon fill="black" stroke="black" points="1214.66,-453.21 1225.02,-450.96 1215.52,-446.26 1214.66,-453.21"/>
</g>
<!-- /req/sam&#45;core/AbstractSample&#45;&gt;/req/obs&#45;core/gen/metadata&#45;sem -->
<g id="edge11" class="edge">
<title>/req/sam&#45;core/AbstractSample&#45;&gt;/req/obs&#45;core/gen/metadata&#45;sem</title>
<path fill="none" stroke="black" d="M1080.12,-415C1131.31,-415 1188.47,-415 1238.48,-415"/>
<polygon fill="black" stroke="black" points="1238.71,-418.5 1248.71,-415 1238.71,-411.5 1238.71,-418.5"/>
</g>
<!-- /req/sam&#45;cpt/Sample -->
<g id="node28" class="node">
<title>/req/sam&#45;cpt/Sample</title>
<polygon fill="none" stroke="black" points="1267,-354 1267,-375 1478,-375 1478,-354 1267,-354"/>
<text text-anchor="start" x="1298.5" y="-360.8" font-family="Times,serif" font-size="14.00">/req/sam&#45;cpt/Sample</text>
<polygon fill="none" stroke="black" points="1267,-331 1267,-352 1478,-352 1478,-331 1267,-331"/>
<text text-anchor="start" x="1270" y="-337.8" font-family="Times,serif" font-size="14.00">Conceptual Sample &#45; Sample</text>
<polygon fill="none" stroke="black" points="1267,-308 1267,-329 1478,-329 1478,-308 1267,-308"/>
<text text-anchor="start" x="1308" y="-314.8" font-family="Times,serif" font-size="14.00">Conceptual model</text>
<polygon fill="none" stroke="black" points="1263.5,-305.5 1263.5,-378.5 1480.5,-378.5 1480.5,-305.5 1263.5,-305.5"/>
</g>
<!-- /req/sam&#45;core/AbstractSample&#45;&gt;/req/sam&#45;cpt/Sample -->
<g id="edge12" class="edge">
<title>/req/sam&#45;core/AbstractSample&#45;&gt;/req/sam&#45;cpt/Sample</title>
<path fill="none" stroke="black" stroke-dasharray="5,2" d="M1080.12,-390.59C1136.42,-381.19 1199.94,-370.58 1253.22,-361.67"/>
<polygon fill="black" stroke="black" points="1254.11,-365.08 1263.39,-359.98 1252.95,-358.17 1254.11,-365.08"/>
</g>
<!-- /req/obs&#45;core/NamedValue -->
<g id="node29" class="node">
<title>/req/obs&#45;core/NamedValue</title>
<polygon fill="none" stroke="black" points="1223,-138 1223,-159 1521,-159 1521,-138 1223,-138"/>
<text text-anchor="start" x="1278" y="-144.8" font-family="Times,serif" font-size="14.00">/req/obs&#45;core/NamedValue</text>
<polygon fill="none" stroke="black" points="1223,-115 1223,-136 1521,-136 1521,-115 1223,-115"/>
<text text-anchor="start" x="1226" y="-121.8" font-family="Times,serif" font-size="14.00">Abstract Observation core &#45; NamedValue</text>
<polygon fill="none" stroke="black" points="1223,-92 1223,-113 1521,-113 1521,-92 1223,-92"/>
<text text-anchor="start" x="1322" y="-98.8" font-family="Times,serif" font-size="14.00">Logical model</text>
<polygon fill="none" stroke="black" points="1220,-89.5 1220,-162.5 1524,-162.5 1524,-89.5 1220,-89.5"/>
</g>
<!-- /req/sam&#45;core/AbstractSample&#45;&gt;/req/obs&#45;core/NamedValue -->
<g id="edge13" class="edge">
<title>/req/sam&#45;core/AbstractSample&#45;&gt;/req/obs&#45;core/NamedValue</title>
<path fill="none" stroke="black" stroke-dasharray="5,2" d="M1080.28,-384.96C1122.79,-376.23 1158,-369 1158,-369 1158,-369 1194,-297 1194,-297 1194,-297 1273.38,-220.31 1325.82,-169.65"/>
<polygon fill="black" stroke="black" points="1328.27,-172.15 1333.03,-162.68 1323.41,-167.11 1328.27,-172.15"/>
</g>
<!-- /req/sam&#45;cpt/Sample&#45;&gt;/req/sam&#45;cpt/Sample/Sample&#45;sem -->
<g id="edge14" class="edge">
<title>/req/sam&#45;cpt/Sample&#45;&gt;/req/sam&#45;cpt/Sample/Sample&#45;sem</title>
<path fill="none" stroke="black" d="M1480.55,-369.95C1517.62,-379.58 1550,-388 1550,-388 1550,-388 1586,-504 1586,-504 1586,-504 1605.4,-507.17 1630.9,-511.35"/>
<polygon fill="black" stroke="black" points="1630.51,-514.83 1640.94,-512.99 1631.64,-507.92 1630.51,-514.83"/>
</g>
<!-- /req/sam&#45;cpt/Sample&#45;&gt;/req/sam&#45;cpt/Sample/sampling&#45;sem -->
<g id="edge15" class="edge">
<title>/req/sam&#45;cpt/Sample&#45;&gt;/req/sam&#45;cpt/Sample/sampling&#45;sem</title>
<path fill="none" stroke="black" d="M1480.55,-369.95C1517.62,-379.58 1550,-388 1550,-388 1550,-388 1586,-450 1586,-450 1586,-450 1605.4,-453.17 1630.9,-457.35"/>
<polygon fill="black" stroke="black" points="1630.51,-460.83 1640.94,-458.99 1631.64,-453.92 1630.51,-460.83"/>
</g>
<!-- /req/sam&#45;cpt/Sample&#45;&gt;/req/sam&#45;cpt/Sample/preparationStep&#45;sem -->
<g id="edge16" class="edge">
<title>/req/sam&#45;cpt/Sample&#45;&gt;/req/sam&#45;cpt/Sample/preparationStep&#45;sem</title>
<path fill="none" stroke="black" d="M1480.75,-369.32C1533.58,-382.71 1586,-396 1586,-396 1586,-396 1605.4,-399.17 1630.9,-403.35"/>
<polygon fill="black" stroke="black" points="1630.51,-406.83 1640.94,-404.99 1631.64,-399.92 1630.51,-406.83"/>
</g>
<!-- /req/sam&#45;cpt/Sample&#45;&gt;/req/sam&#45;cpt/Sample/sampledFeature&#45;sem -->
<g id="edge17" class="edge">
<title>/req/sam&#45;cpt/Sample&#45;&gt;/req/sam&#45;cpt/Sample/sampledFeature&#45;sem</title>
<path fill="none" stroke="black" d="M1480.56,-349.68C1512.44,-351.96 1548.15,-354.51 1582.89,-356.99"/>
<polygon fill="black" stroke="black" points="1582.93,-360.5 1593.15,-357.73 1583.43,-353.52 1582.93,-360.5"/>
</g>
<!-- /req/sam&#45;cpt/Sample&#45;&gt;/req/sam&#45;cpt/Sample/sampledFeature&#45;card -->
<g id="edge18" class="edge">
<title>/req/sam&#45;cpt/Sample&#45;&gt;/req/sam&#45;cpt/Sample/sampledFeature&#45;card</title>
<path fill="none" stroke="black" d="M1480.56,-334.32C1512.04,-332.07 1547.26,-329.55 1581.6,-327.1"/>
<polygon fill="black" stroke="black" points="1582.01,-330.58 1591.73,-326.38 1581.51,-323.6 1582.01,-330.58"/>
</g>
<!-- /req/sam&#45;cpt/Sample&#45;&gt;/req/sam&#45;cpt/Sample/relatedSample&#45;sem -->
<g id="edge19" class="edge">
<title>/req/sam&#45;cpt/Sample&#45;&gt;/req/sam&#45;cpt/Sample/relatedSample&#45;sem</title>
<path fill="none" stroke="black" d="M1480.75,-314.68C1533.58,-301.29 1586,-288 1586,-288 1586,-288 1605.4,-284.83 1630.9,-280.65"/>
<polygon fill="black" stroke="black" points="1631.64,-284.08 1640.94,-279.01 1630.51,-277.17 1631.64,-284.08"/>
</g>
<!-- /req/sam&#45;cpt/Sample&#45;&gt;/req/obs&#45;cpt/gen/relatedObservation&#45;sem -->
<g id="edge20" class="edge">
<title>/req/sam&#45;cpt/Sample&#45;&gt;/req/obs&#45;cpt/gen/relatedObservation&#45;sem</title>
<path fill="none" stroke="black" d="M1445.11,-305.44C1506.91,-274.1 1586,-234 1586,-234 1586,-234 1605.4,-230.83 1630.9,-226.65"/>
<polygon fill="black" stroke="black" points="1631.64,-230.08 1640.94,-225.01 1630.51,-223.17 1631.64,-230.08"/>
</g>
<!-- /req/obs&#45;core/NamedValue&#45;&gt;/req/obs&#45;core/NamedValue/NamedValue&#45;sem -->
<g id="edge21" class="edge">
<title>/req/obs&#45;core/NamedValue&#45;&gt;/req/obs&#45;core/NamedValue/NamedValue&#45;sem</title>
<path fill="none" stroke="black" d="M1524.03,-136.79C1541.04,-138 1558.49,-139.25 1575.78,-140.48"/>
<polygon fill="black" stroke="black" points="1575.72,-143.99 1585.94,-141.21 1576.22,-137.01 1575.72,-143.99"/>
</g>
<!-- /req/obs&#45;core/NamedValue&#45;&gt;/req/obs&#45;core/NamedValue/name&#45;sem -->
<g id="edge22" class="edge">
<title>/req/obs&#45;core/NamedValue&#45;&gt;/req/obs&#45;core/NamedValue/name&#45;sem</title>
<path fill="none" stroke="black" d="M1524.03,-115.21C1549.44,-113.4 1575.81,-111.51 1601.2,-109.7"/>
<polygon fill="black" stroke="black" points="1601.52,-113.19 1611.25,-108.98 1601.03,-106.2 1601.52,-113.19"/>
</g>
<!-- /req/obs&#45;core/NamedValue&#45;&gt;/req/obs&#45;core/NamedValue/value&#45;sem -->
<g id="edge23" class="edge">
<title>/req/obs&#45;core/NamedValue&#45;&gt;/req/obs&#45;core/NamedValue/value&#45;sem</title>
<path fill="none" stroke="black" d="M1517.14,-89.46C1555.26,-79.79 1586,-72 1586,-72 1586,-72 1605.4,-68.83 1630.9,-64.65"/>
<polygon fill="black" stroke="black" points="1631.64,-68.08 1640.94,-63.01 1630.51,-61.17 1631.64,-68.08"/>
</g>
<!-- /req/sam&#45;basic/PhysicalDimension&#45;&gt;/req/sam&#45;basic/PhysicalDimension/PhysicalDimension&#45;sem -->
<g id="edge24" class="edge">
<title>/req/sam&#45;basic/PhysicalDimension&#45;&gt;/req/sam&#45;basic/PhysicalDimension/PhysicalDimension&#45;sem</title>
<path fill="none" stroke="black" d="M608.6,-303.62C659.03,-309.6 717.14,-316.5 770.08,-322.78"/>
<polygon fill="black" stroke="black" points="769.9,-326.29 780.25,-323.99 770.73,-319.34 769.9,-326.29"/>
</g>
<!-- /req/sam&#45;basic/PhysicalDimension&#45;&gt;/req/sam&#45;basic/PhysicalDimension/dimension&#45;sem -->
<g id="edge25" class="edge">
<title>/req/sam&#45;basic/PhysicalDimension&#45;&gt;/req/sam&#45;basic/PhysicalDimension/dimension&#45;sem</title>
<path fill="none" stroke="black" d="M608.6,-288C648.78,-288 693.84,-288 737.27,-288"/>
<polygon fill="black" stroke="black" points="737.39,-291.5 747.39,-288 737.39,-284.5 737.39,-291.5"/>
</g>
<!-- /req/sam&#45;basic/PhysicalDimension&#45;&gt;/req/sam&#45;basic/PhysicalDimension/value&#45;sem -->
<g id="edge26" class="edge">
<title>/req/sam&#45;basic/PhysicalDimension&#45;&gt;/req/sam&#45;basic/PhysicalDimension/value&#45;sem</title>
<path fill="none" stroke="black" d="M608.6,-272.38C659.03,-266.4 717.14,-259.5 770.08,-253.22"/>
<polygon fill="black" stroke="black" points="770.73,-256.66 780.25,-252.01 769.9,-249.71 770.73,-256.66"/>
</g>
<!-- /req/sam&#45;basic/NamedLocation&#45;&gt;/req/sam&#45;basic/NamedLocation/NamedLocation&#45;sem -->
<g id="edge27" class="edge">
<title>/req/sam&#45;basic/NamedLocation&#45;&gt;/req/sam&#45;basic/NamedLocation/NamedLocation&#45;sem</title>
<path fill="none" stroke="black" d="M596.55,-140.19C649.58,-146.48 712.79,-153.98 769.98,-160.77"/>
<polygon fill="black" stroke="black" points="769.87,-164.28 780.21,-161.99 770.69,-157.33 769.87,-164.28"/>
</g>
<!-- /req/sam&#45;basic/NamedLocation&#45;&gt;/req/sam&#45;basic/NamedLocation/address&#45;sem -->
<g id="edge28" class="edge">
<title>/req/sam&#45;basic/NamedLocation&#45;&gt;/req/sam&#45;basic/NamedLocation/address&#45;sem</title>
<path fill="none" stroke="black" d="M596.55,-126C645.65,-126 703.48,-126 757.17,-126"/>
<polygon fill="black" stroke="black" points="757.5,-129.5 767.5,-126 757.5,-122.5 757.5,-129.5"/>
</g>
<!-- /req/sam&#45;basic/NamedLocation&#45;&gt;/req/sam&#45;basic/NamedLocation/name&#45;sem -->
<g id="edge29" class="edge">
<title>/req/sam&#45;basic/NamedLocation&#45;&gt;/req/sam&#45;basic/NamedLocation/name&#45;sem</title>
<path fill="none" stroke="black" d="M596.55,-111.81C649.58,-105.52 712.79,-98.02 769.98,-91.23"/>
<polygon fill="black" stroke="black" points="770.69,-94.67 780.21,-90.01 769.87,-87.72 770.69,-94.67"/>
</g>
<!-- /req/sam&#45;basic/NamedLocation&#45;&gt;/req/sam&#45;basic/NamedLocation/representativeGeometry&#45;sem -->
<g id="edge30" class="edge">
<title>/req/sam&#45;basic/NamedLocation&#45;&gt;/req/sam&#45;basic/NamedLocation/representativeGeometry&#45;sem</title>
<path fill="none" stroke="black" d="M581.35,-89.41C642.57,-67.94 708,-45 708,-45 708,-45 736.23,-41.6 772.64,-37.21"/>
<polygon fill="black" stroke="black" points="773.08,-40.68 782.59,-36.01 772.24,-33.73 773.08,-40.68"/>
</g>
</g>
</svg>
