<?xml version="1.0" encoding="UTF-8" standalone="no"?>
<!DOCTYPE svg PUBLIC "-//W3C//DTD SVG 1.1//EN"
 "http://www.w3.org/Graphics/SVG/1.1/DTD/svg11.dtd">
<!-- Generated by graphviz version 2.43.0 (0)
 -->
<!-- Title: G Pages: 1 -->
<svg width="1169pt" height="190pt"
 viewBox="0.00 0.00 1169.00 189.50" xmlns="http://www.w3.org/2000/svg" xmlns:xlink="http://www.w3.org/1999/xlink">
<g id="graph0" class="graph" transform="scale(1 1) rotate(0) translate(4 185.5)">
<title>G</title>
<polygon fill="white" stroke="transparent" points="-4,4 -4,-185.5 1165,-185.5 1165,4 -4,4"/>
<!-- /req/sam&#45;cpt/PreparationProcedure/PreparationProcedure&#45;sem -->
<g id="node1" class="node">
<title>/req/sam&#45;cpt/PreparationProcedure/PreparationProcedure&#45;sem</title>
<polygon fill="none" stroke="black" points="828.5,-181.5 363.5,-181.5 363.5,-145.5 828.5,-145.5 828.5,-181.5"/>
<text text-anchor="middle" x="596" y="-159.8" font-family="Times,serif" font-size="14.00">/req/sam&#45;cpt/PreparationProcedure/PreparationProcedure&#45;sem</text>
</g>
<!-- /req/sam&#45;cpt/PreparationProcedure/samplePreparationStep&#45;sem -->
<g id="node2" class="node">
<title>/req/sam&#45;cpt/PreparationProcedure/samplePreparationStep&#45;sem</title>
<polygon fill="none" stroke="black" points="834,-127.5 358,-127.5 358,-91.5 834,-91.5 834,-127.5"/>
<text text-anchor="middle" x="596" y="-105.8" font-family="Times,serif" font-size="14.00">/req/sam&#45;cpt/PreparationProcedure/samplePreparationStep&#45;sem</text>
</g>
<!-- /req/obs&#45;cpt/Procedure/Procedure&#45;sem -->
<g id="node3" class="node">
<title>/req/obs&#45;cpt/Procedure/Procedure&#45;sem</title>
<polygon fill="none" stroke="black" points="1161,-54.5 870,-54.5 870,-18.5 1161,-18.5 1161,-54.5"/>
<text text-anchor="middle" x="1015.5" y="-32.8" font-family="Times,serif" font-size="14.00">/req/obs&#45;cpt/Procedure/Procedure&#45;sem</text>
</g>
<!-- /req/sam&#45;cpt/PreparationProcedure -->
<g id="node4" class="node">
<title>/req/sam&#45;cpt/PreparationProcedure</title>
<polygon fill="none" stroke="black" points="3,-121.5 3,-142.5 319,-142.5 319,-121.5 3,-121.5"/>
<text text-anchor="start" x="34.5" y="-128.3" font-family="Times,serif" font-size="14.00">/req/sam&#45;cpt/PreparationProcedure</text>
<polygon fill="none" stroke="black" points="3,-98.5 3,-119.5 319,-119.5 319,-98.5 3,-98.5"/>
<text text-anchor="start" x="6" y="-105.3" font-family="Times,serif" font-size="14.00">Conceptual Sample &#45; PreparationProcedure</text>
<polygon fill="none" stroke="black" points="3,-75.5 3,-96.5 319,-96.5 319,-75.5 3,-75.5"/>
<text text-anchor="start" x="94.5" y="-82.3" font-family="Times,serif" font-size="14.00">Conceptual m odel</text>
<polygon fill="none" stroke="black" points="0,-73 0,-146 322,-146 322,-73 0,-73"/>
</g>
<!-- /req/sam&#45;cpt/PreparationProcedure&#45;&gt;/req/sam&#45;cpt/PreparationProcedure/PreparationProcedure&#45;sem -->
<g id="edge1" class="edge">
<title>/req/sam&#45;cpt/PreparationProcedure&#45;&gt;/req/sam&#45;cpt/PreparationProcedure/PreparationProcedure&#45;sem</title>
<path fill="none" stroke="black" d="M322.05,-131.55C343.35,-134.48 358,-136.5 358,-136.5 358,-136.5 388.12,-139.93 426.89,-144.35"/>
<polygon fill="black" stroke="black" points="426.59,-147.84 436.92,-145.49 427.38,-140.88 426.59,-147.84"/>
</g>
<!-- /req/sam&#45;cpt/PreparationProcedure&#45;&gt;/req/sam&#45;cpt/PreparationProcedure/samplePreparationStep&#45;sem -->
<g id="edge2" class="edge">
<title>/req/sam&#45;cpt/PreparationProcedure&#45;&gt;/req/sam&#45;cpt/PreparationProcedure/samplePreparationStep&#45;sem</title>
<path fill="none" stroke="black" d="M322,-109.5C330.49,-109.5 339.1,-109.5 347.77,-109.5"/>
<polygon fill="black" stroke="black" points="347.99,-113 357.99,-109.5 347.99,-106 347.99,-113"/>
</g>
<!-- /req/obs&#45;cpt/Procedure -->
<g id="node5" class="node">
<title>/req/obs&#45;cpt/Procedure</title>
<polygon fill="none" stroke="black" points="464,-48.5 464,-69.5 729,-69.5 729,-48.5 464,-48.5"/>
<text text-anchor="start" x="515" y="-55.3" font-family="Times,serif" font-size="14.00">/req/obs&#45;cpt/Procedure</text>
<polygon fill="none" stroke="black" points="464,-25.5 464,-46.5 729,-46.5 729,-25.5 464,-25.5"/>
<text text-anchor="start" x="467" y="-32.3" font-family="Times,serif" font-size="14.00">Conceptual Observation &#45; Procedure</text>
<polygon fill="none" stroke="black" points="464,-2.5 464,-23.5 729,-23.5 729,-2.5 464,-2.5"/>
<text text-anchor="start" x="532" y="-9.3" font-family="Times,serif" font-size="14.00">Conceptual model</text>
<polygon fill="none" stroke="black" points="460.5,0 460.5,-73 731.5,-73 731.5,0 460.5,0"/>
</g>
<!-- /req/sam&#45;cpt/PreparationProcedure&#45;&gt;/req/obs&#45;cpt/Procedure -->
<g id="edge3" class="edge">
<title>/req/sam&#45;cpt/PreparationProcedure&#45;&gt;/req/obs&#45;cpt/Procedure</title>
<path fill="none" stroke="black" stroke-dasharray="5,2" d="M322,-82.52C363.96,-75.45 408.95,-67.87 450.07,-60.93"/>
<polygon fill="black" stroke="black" points="450.87,-64.35 460.15,-59.23 449.71,-57.45 450.87,-64.35"/>
</g>
<!-- /req/obs&#45;cpt/Procedure&#45;&gt;/req/obs&#45;cpt/Procedure/Procedure&#45;sem -->
<g id="edge4" class="edge">
<title>/req/obs&#45;cpt/Procedure&#45;&gt;/req/obs&#45;cpt/Procedure/Procedure&#45;sem</title>
<path fill="none" stroke="black" d="M731.69,-36.5C772.5,-36.5 817.66,-36.5 859.68,-36.5"/>
<polygon fill="black" stroke="black" points="859.72,-40 869.72,-36.5 859.72,-33 859.72,-40"/>
</g>
</g>
</svg>
