<?xml version="1.0" encoding="UTF-8" standalone="no"?>
<!DOCTYPE svg PUBLIC "-//W3C//DTD SVG 1.1//EN"
 "http://www.w3.org/Graphics/SVG/1.1/DTD/svg11.dtd">
<!-- Generated by graphviz version 2.43.0 (0)
 -->
<!-- Title: G Pages: 1 -->
<svg width="1615pt" height="207pt"
 viewBox="0.00 0.00 1615.00 207.00" xmlns="http://www.w3.org/2000/svg" xmlns:xlink="http://www.w3.org/1999/xlink">
<g id="graph0" class="graph" transform="scale(1 1) rotate(0) translate(4 203)">
<title>G</title>
<polygon fill="white" stroke="transparent" points="-4,4 -4,-203 1611,-203 1611,4 -4,4"/>
<!-- /req/obs&#45;basic/gen/link&#45;sem -->
<g id="node1" class="node">
<title>/req/obs&#45;basic/gen/link&#45;sem</title>
<polygon fill="none" stroke="black" points="657.5,-199 446.5,-199 446.5,-163 657.5,-163 657.5,-199"/>
<text text-anchor="middle" x="552" y="-177.3" font-family="Times,serif" font-size="14.00">/req/obs&#45;basic/gen/link&#45;sem</text>
</g>
<!-- /req/obs&#45;core/gen/metadata&#45;sem -->
<g id="node2" class="node">
<title>/req/obs&#45;core/gen/metadata&#45;sem</title>
<polygon fill="none" stroke="black" points="1091,-163 845,-163 845,-127 1091,-127 1091,-163"/>
<text text-anchor="middle" x="968" y="-141.3" font-family="Times,serif" font-size="14.00">/req/obs&#45;core/gen/metadata&#45;sem</text>
</g>
<!-- /req/obs&#45;cpt/ObservableProperty/ObservableProperty&#45;sem -->
<g id="node3" class="node">
<title>/req/obs&#45;cpt/ObservableProperty/ObservableProperty&#45;sem</title>
<polygon fill="none" stroke="black" points="1607,-144 1175,-144 1175,-108 1607,-108 1607,-144"/>
<text text-anchor="middle" x="1391" y="-122.3" font-family="Times,serif" font-size="14.00">/req/obs&#45;cpt/ObservableProperty/ObservableProperty&#45;sem</text>
</g>
<!-- /req/obs&#45;cpt/ObservableProperty/observer&#45;sem -->
<g id="node4" class="node">
<title>/req/obs&#45;cpt/ObservableProperty/observer&#45;sem</title>
<polygon fill="none" stroke="black" points="1566.5,-90 1215.5,-90 1215.5,-54 1566.5,-54 1566.5,-90"/>
<text text-anchor="middle" x="1391" y="-68.3" font-family="Times,serif" font-size="14.00">/req/obs&#45;cpt/ObservableProperty/observer&#45;sem</text>
</g>
<!-- /req/obs&#45;cpt/gen/relatedObservation&#45;sem -->
<g id="node5" class="node">
<title>/req/obs&#45;cpt/gen/relatedObservation&#45;sem</title>
<polygon fill="none" stroke="black" points="1545,-36 1237,-36 1237,0 1545,0 1545,-36"/>
<text text-anchor="middle" x="1391" y="-14.3" font-family="Times,serif" font-size="14.00">/req/obs&#45;cpt/gen/relatedObservation&#45;sem</text>
</g>
<!-- /req/obs&#45;basic/ObservableProperty -->
<g id="node6" class="node">
<title>/req/obs&#45;basic/ObservableProperty</title>
<polygon fill="none" stroke="black" points="3.5,-156 3.5,-177 304.5,-177 304.5,-156 3.5,-156"/>
<text text-anchor="start" x="30" y="-162.8" font-family="Times,serif" font-size="14.00">/req/obs&#45;basic/ObservableProperty</text>
<polygon fill="none" stroke="black" points="3.5,-133 3.5,-154 304.5,-154 304.5,-133 3.5,-133"/>
<text text-anchor="start" x="6.5" y="-139.8" font-family="Times,serif" font-size="14.00">Basic Observations &#45; ObservableProperty</text>
<polygon fill="none" stroke="black" points="3.5,-110 3.5,-131 304.5,-131 304.5,-110 3.5,-110"/>
<text text-anchor="start" x="104" y="-116.8" font-family="Times,serif" font-size="14.00">Logical model</text>
<polygon fill="none" stroke="black" points="0,-107.5 0,-180.5 307,-180.5 307,-107.5 0,-107.5"/>
</g>
<!-- /req/obs&#45;basic/ObservableProperty&#45;&gt;/req/obs&#45;basic/gen/link&#45;sem -->
<g id="edge1" class="edge">
<title>/req/obs&#45;basic/ObservableProperty&#45;&gt;/req/obs&#45;basic/gen/link&#45;sem</title>
<path fill="none" stroke="black" d="M307.23,-158.25C350.07,-162.25 395.9,-166.53 436.13,-170.28"/>
<polygon fill="black" stroke="black" points="435.95,-173.78 446.24,-171.22 436.6,-166.81 435.95,-173.78"/>
</g>
<!-- /req/obs&#45;core/AbstractObservableProperty -->
<g id="node7" class="node">
<title>/req/obs&#45;core/AbstractObservableProperty</title>
<polygon fill="none" stroke="black" points="346,-120 346,-141 758,-141 758,-120 346,-120"/>
<text text-anchor="start" x="400.5" y="-126.8" font-family="Times,serif" font-size="14.00">/req/obs&#45;core/AbstractObservableProperty</text>
<polygon fill="none" stroke="black" points="346,-97 346,-118 758,-118 758,-97 346,-97"/>
<text text-anchor="start" x="349" y="-103.8" font-family="Times,serif" font-size="14.00">Abstract Observation core &#45; AbstractObservableProperty</text>
<polygon fill="none" stroke="black" points="346,-74 346,-95 758,-95 758,-74 346,-74"/>
<text text-anchor="start" x="502" y="-80.8" font-family="Times,serif" font-size="14.00">Logical model</text>
<polygon fill="none" stroke="black" points="343,-71.5 343,-144.5 761,-144.5 761,-71.5 343,-71.5"/>
</g>
<!-- /req/obs&#45;basic/ObservableProperty&#45;&gt;/req/obs&#45;core/AbstractObservableProperty -->
<g id="edge2" class="edge">
<title>/req/obs&#45;basic/ObservableProperty&#45;&gt;/req/obs&#45;core/AbstractObservableProperty</title>
<path fill="none" stroke="black" stroke-dasharray="5,2" d="M307.23,-130.13C315.62,-129.37 324.12,-128.6 332.68,-127.82"/>
<polygon fill="black" stroke="black" points="333.1,-131.3 342.74,-126.91 332.46,-124.33 333.1,-131.3"/>
</g>
<!-- /req/obs&#45;core/AbstractObservableProperty&#45;&gt;/req/obs&#45;core/gen/metadata&#45;sem -->
<g id="edge3" class="edge">
<title>/req/obs&#45;core/AbstractObservableProperty&#45;&gt;/req/obs&#45;core/gen/metadata&#45;sem</title>
<path fill="none" stroke="black" d="M761.21,-126.61C786.32,-128.85 811.4,-131.09 834.98,-133.2"/>
<polygon fill="black" stroke="black" points="834.72,-136.69 844.99,-134.1 835.35,-129.72 834.72,-136.69"/>
</g>
<!-- /req/obs&#45;cpt/ObservableProperty -->
<g id="node8" class="node">
<title>/req/obs&#45;cpt/ObservableProperty</title>
<polygon fill="none" stroke="black" points="800,-84 800,-105 1136,-105 1136,-84 800,-84"/>
<text text-anchor="start" x="851" y="-90.8" font-family="Times,serif" font-size="14.00">/req/obs&#45;cpt/ObservableProperty</text>
<polygon fill="none" stroke="black" points="800,-61 800,-82 1136,-82 1136,-61 800,-61"/>
<text text-anchor="start" x="803" y="-67.8" font-family="Times,serif" font-size="14.00">Conceptual Observation &#45; ObservableProperty</text>
<polygon fill="none" stroke="black" points="800,-38 800,-59 1136,-59 1136,-38 800,-38"/>
<text text-anchor="start" x="903.5" y="-44.8" font-family="Times,serif" font-size="14.00">Conceptual model</text>
<polygon fill="none" stroke="black" points="797,-35.5 797,-108.5 1139,-108.5 1139,-35.5 797,-35.5"/>
</g>
<!-- /req/obs&#45;core/AbstractObservableProperty&#45;&gt;/req/obs&#45;cpt/ObservableProperty -->
<g id="edge4" class="edge">
<title>/req/obs&#45;core/AbstractObservableProperty&#45;&gt;/req/obs&#45;cpt/ObservableProperty</title>
<path fill="none" stroke="black" stroke-dasharray="5,2" d="M761.21,-89.89C769.82,-89.15 778.43,-88.4 786.98,-87.65"/>
<polygon fill="black" stroke="black" points="787.32,-91.14 796.98,-86.78 786.71,-84.16 787.32,-91.14"/>
</g>
<!-- /req/obs&#45;cpt/ObservableProperty&#45;&gt;/req/obs&#45;cpt/ObservableProperty/ObservableProperty&#45;sem -->
<g id="edge5" class="edge">
<title>/req/obs&#45;cpt/ObservableProperty&#45;&gt;/req/obs&#45;cpt/ObservableProperty/ObservableProperty&#45;sem</title>
<path fill="none" stroke="black" d="M1139.12,-94.3C1160.47,-97.09 1175,-99 1175,-99 1175,-99 1201.86,-102.37 1236.6,-106.74"/>
<polygon fill="black" stroke="black" points="1236.23,-110.22 1246.59,-107.99 1237.11,-103.27 1236.23,-110.22"/>
</g>
<!-- /req/obs&#45;cpt/ObservableProperty&#45;&gt;/req/obs&#45;cpt/ObservableProperty/observer&#45;sem -->
<g id="edge6" class="edge">
<title>/req/obs&#45;cpt/ObservableProperty&#45;&gt;/req/obs&#45;cpt/ObservableProperty/observer&#45;sem</title>
<path fill="none" stroke="black" d="M1139.02,-72C1160.79,-72 1183.16,-72 1205.15,-72"/>
<polygon fill="black" stroke="black" points="1205.22,-75.5 1215.22,-72 1205.22,-68.5 1205.22,-75.5"/>
</g>
<!-- /req/obs&#45;cpt/ObservableProperty&#45;&gt;/req/obs&#45;cpt/gen/relatedObservation&#45;sem -->
<g id="edge7" class="edge">
<title>/req/obs&#45;cpt/ObservableProperty&#45;&gt;/req/obs&#45;cpt/gen/relatedObservation&#45;sem</title>
<path fill="none" stroke="black" d="M1139.12,-49.7C1160.47,-46.91 1175,-45 1175,-45 1175,-45 1201.86,-41.63 1236.6,-37.26"/>
<polygon fill="black" stroke="black" points="1237.11,-40.73 1246.59,-36.01 1236.23,-33.78 1237.11,-40.73"/>
</g>
</g>
</svg>
