<?xml version="1.0" encoding="UTF-8" standalone="no"?>
<!DOCTYPE svg PUBLIC "-//W3C//DTD SVG 1.1//EN"
 "http://www.w3.org/Graphics/SVG/1.1/DTD/svg11.dtd">
<!-- Generated by graphviz version 2.43.0 (0)
 -->
<!-- Title: G Pages: 1 -->
<svg width="735pt" height="206pt"
 viewBox="0.00 0.00 735.00 206.00" xmlns="http://www.w3.org/2000/svg" xmlns:xlink="http://www.w3.org/1999/xlink">
<g id="graph0" class="graph" transform="scale(1 1) rotate(0) translate(4 202)">
<title>G</title>
<polygon fill="white" stroke="transparent" points="-4,4 -4,-202 731,-202 731,4 -4,4"/>
<!-- /req/sam&#45;basic/NamedLocation/NamedLocation&#45;sem -->
<g id="node1" class="node">
<title>/req/sam&#45;basic/NamedLocation/NamedLocation&#45;sem</title>
<polygon fill="none" stroke="black" points="695,-198 309,-198 309,-162 695,-162 695,-198"/>
<text text-anchor="middle" x="502" y="-176.3" font-family="Times,serif" font-size="14.00">/req/sam&#45;basic/NamedLocation/NamedLocation&#45;sem</text>
</g>
<!-- /req/sam&#45;basic/NamedLocation/address&#45;sem -->
<g id="node2" class="node">
<title>/req/sam&#45;basic/NamedLocation/address&#45;sem</title>
<polygon fill="none" stroke="black" points="667.5,-144 336.5,-144 336.5,-108 667.5,-108 667.5,-144"/>
<text text-anchor="middle" x="502" y="-122.3" font-family="Times,serif" font-size="14.00">/req/sam&#45;basic/NamedLocation/address&#45;sem</text>
</g>
<!-- /req/sam&#45;basic/NamedLocation/name&#45;sem -->
<g id="node3" class="node">
<title>/req/sam&#45;basic/NamedLocation/name&#45;sem</title>
<polygon fill="none" stroke="black" points="659,-90 345,-90 345,-54 659,-54 659,-90"/>
<text text-anchor="middle" x="502" y="-68.3" font-family="Times,serif" font-size="14.00">/req/sam&#45;basic/NamedLocation/name&#45;sem</text>
</g>
<!-- /req/sam&#45;basic/NamedLocation/representativeGeometry&#45;sem -->
<g id="node4" class="node">
<title>/req/sam&#45;basic/NamedLocation/representativeGeometry&#45;sem</title>
<polygon fill="none" stroke="black" points="727,-36 277,-36 277,0 727,0 727,-36"/>
<text text-anchor="middle" x="502" y="-14.3" font-family="Times,serif" font-size="14.00">/req/sam&#45;basic/NamedLocation/representativeGeometry&#45;sem</text>
</g>
<!-- /req/sam&#45;basic/NamedLocation -->
<g id="node5" class="node">
<title>/req/sam&#45;basic/NamedLocation</title>
<polygon fill="none" stroke="black" points="3.5,-111 3.5,-132 238.5,-132 238.5,-111 3.5,-111"/>
<text text-anchor="start" x="11" y="-117.8" font-family="Times,serif" font-size="14.00">/req/sam&#45;basic/NamedLocation</text>
<polygon fill="none" stroke="black" points="3.5,-88 3.5,-109 238.5,-109 238.5,-88 3.5,-88"/>
<text text-anchor="start" x="6.5" y="-94.8" font-family="Times,serif" font-size="14.00">Basic Samples &#45; NamedLocation</text>
<polygon fill="none" stroke="black" points="3.5,-65 3.5,-86 238.5,-86 238.5,-65 3.5,-65"/>
<text text-anchor="start" x="71" y="-71.8" font-family="Times,serif" font-size="14.00">Logical model</text>
<polygon fill="none" stroke="black" points="0,-62.5 0,-135.5 241,-135.5 241,-62.5 0,-62.5"/>
</g>
<!-- /req/sam&#45;basic/NamedLocation&#45;&gt;/req/sam&#45;basic/NamedLocation/NamedLocation&#45;sem -->
<g id="edge1" class="edge">
<title>/req/sam&#45;basic/NamedLocation&#45;&gt;/req/sam&#45;basic/NamedLocation/NamedLocation&#45;sem</title>
<path fill="none" stroke="black" d="M226.94,-135.62C254.67,-145.25 277,-153 277,-153 277,-153 305.23,-156.4 341.64,-160.79"/>
<polygon fill="black" stroke="black" points="341.24,-164.27 351.59,-161.99 342.08,-157.32 341.24,-164.27"/>
</g>
<!-- /req/sam&#45;basic/NamedLocation&#45;&gt;/req/sam&#45;basic/NamedLocation/address&#45;sem -->
<g id="edge2" class="edge">
<title>/req/sam&#45;basic/NamedLocation&#45;&gt;/req/sam&#45;basic/NamedLocation/address&#45;sem</title>
<path fill="none" stroke="black" d="M241.06,-107.51C268.07,-109.43 297.29,-111.51 326.06,-113.55"/>
<polygon fill="black" stroke="black" points="325.99,-117.06 336.21,-114.28 326.49,-110.08 325.99,-117.06"/>
</g>
<!-- /req/sam&#45;basic/NamedLocation&#45;&gt;/req/sam&#45;basic/NamedLocation/name&#45;sem -->
<g id="edge3" class="edge">
<title>/req/sam&#45;basic/NamedLocation&#45;&gt;/req/sam&#45;basic/NamedLocation/name&#45;sem</title>
<path fill="none" stroke="black" d="M241.06,-90.49C270.76,-88.38 303.13,-86.08 334.63,-83.84"/>
<polygon fill="black" stroke="black" points="335.09,-87.31 344.82,-83.11 334.6,-80.33 335.09,-87.31"/>
</g>
<!-- /req/sam&#45;basic/NamedLocation&#45;&gt;/req/sam&#45;basic/NamedLocation/representativeGeometry&#45;sem -->
<g id="edge4" class="edge">
<title>/req/sam&#45;basic/NamedLocation&#45;&gt;/req/sam&#45;basic/NamedLocation/representativeGeometry&#45;sem</title>
<path fill="none" stroke="black" d="M226.94,-62.38C254.67,-52.75 277,-45 277,-45 277,-45 305.23,-41.6 341.64,-37.21"/>
<polygon fill="black" stroke="black" points="342.08,-40.68 351.59,-36.01 341.24,-33.73 342.08,-40.68"/>
</g>
</g>
</svg>
