<?xml version="1.0" encoding="UTF-8" standalone="no"?>
<!DOCTYPE svg PUBLIC "-//W3C//DTD SVG 1.1//EN"
 "http://www.w3.org/Graphics/SVG/1.1/DTD/svg11.dtd">
<!-- Generated by graphviz version 2.43.0 (0)
 -->
<!-- Title: G Pages: 1 -->
<svg width="1547pt" height="1089pt"
 viewBox="0.00 0.00 1547.00 1089.00" xmlns="http://www.w3.org/2000/svg" xmlns:xlink="http://www.w3.org/1999/xlink">
<g id="graph0" class="graph" transform="scale(1 1) rotate(0) translate(4 1085)">
<title>G</title>
<polygon fill="white" stroke="transparent" points="-4,4 -4,-1085 1543,-1085 1543,4 -4,4"/>
<!-- /req/obs&#45;core/AbstractObservationCharacteristics/AbstractObservationCharacteristics&#45;sem -->
<g id="node1" class="node">
<title>/req/obs&#45;core/AbstractObservationCharacteristics/AbstractObservationCharacteristics&#45;sem</title>
<polygon fill="none" stroke="black" points="1171,-1081 506,-1081 506,-1045 1171,-1045 1171,-1081"/>
<text text-anchor="middle" x="838.5" y="-1059.3" font-family="Times,serif" font-size="14.00">/req/obs&#45;core/AbstractObservationCharacteristics/AbstractObservationCharacteristics&#45;sem</text>
</g>
<!-- /req/obs&#45;core/AbstractObservationCharacteristics/type&#45;sem -->
<g id="node2" class="node">
<title>/req/obs&#45;core/AbstractObservationCharacteristics/type&#45;sem</title>
<polygon fill="none" stroke="black" points="1058.5,-1027 618.5,-1027 618.5,-991 1058.5,-991 1058.5,-1027"/>
<text text-anchor="middle" x="838.5" y="-1005.3" font-family="Times,serif" font-size="14.00">/req/obs&#45;core/AbstractObservationCharacteristics/type&#45;sem</text>
</g>
<!-- /req/obs&#45;core/AbstractObservationCharacteristics/parameter&#45;sem -->
<g id="node3" class="node">
<title>/req/obs&#45;core/AbstractObservationCharacteristics/parameter&#45;sem</title>
<polygon fill="none" stroke="black" points="1080.5,-973 596.5,-973 596.5,-937 1080.5,-937 1080.5,-973"/>
<text text-anchor="middle" x="838.5" y="-951.3" font-family="Times,serif" font-size="14.00">/req/obs&#45;core/AbstractObservationCharacteristics/parameter&#45;sem</text>
</g>
<!-- /req/obs&#45;core/AbstractObservationCharacteristics/resultQuality&#45;sem -->
<g id="node4" class="node">
<title>/req/obs&#45;core/AbstractObservationCharacteristics/resultQuality&#45;sem</title>
<polygon fill="none" stroke="black" points="1090,-919 587,-919 587,-883 1090,-883 1090,-919"/>
<text text-anchor="middle" x="838.5" y="-897.3" font-family="Times,serif" font-size="14.00">/req/obs&#45;core/AbstractObservationCharacteristics/resultQuality&#45;sem</text>
</g>
<!-- /req/obs&#45;cpt/Observation/phenomenonTime&#45;sem -->
<g id="node5" class="node">
<title>/req/obs&#45;cpt/Observation/phenomenonTime&#45;sem</title>
<polygon fill="none" stroke="black" points="1017.5,-865 659.5,-865 659.5,-829 1017.5,-829 1017.5,-865"/>
<text text-anchor="middle" x="838.5" y="-843.3" font-family="Times,serif" font-size="14.00">/req/obs&#45;cpt/Observation/phenomenonTime&#45;sem</text>
</g>
<!-- /req/obs&#45;cpt/Observation/resultTime&#45;sem -->
<g id="node6" class="node">
<title>/req/obs&#45;cpt/Observation/resultTime&#45;sem</title>
<polygon fill="none" stroke="black" points="992.5,-811 684.5,-811 684.5,-775 992.5,-775 992.5,-811"/>
<text text-anchor="middle" x="838.5" y="-789.3" font-family="Times,serif" font-size="14.00">/req/obs&#45;cpt/Observation/resultTime&#45;sem</text>
</g>
<!-- /req/obs&#45;cpt/Observation/validTime&#45;sem -->
<g id="node7" class="node">
<title>/req/obs&#45;cpt/Observation/validTime&#45;sem</title>
<polygon fill="none" stroke="black" points="989,-757 688,-757 688,-721 989,-721 989,-757"/>
<text text-anchor="middle" x="838.5" y="-735.3" font-family="Times,serif" font-size="14.00">/req/obs&#45;cpt/Observation/validTime&#45;sem</text>
</g>
<!-- /req/obs&#45;cpt/Observation/featureOfInterest&#45;sem -->
<g id="node8" class="node">
<title>/req/obs&#45;cpt/Observation/featureOfInterest&#45;sem</title>
<polygon fill="none" stroke="black" points="1016.5,-703 660.5,-703 660.5,-667 1016.5,-667 1016.5,-703"/>
<text text-anchor="middle" x="838.5" y="-681.3" font-family="Times,serif" font-size="14.00">/req/obs&#45;cpt/Observation/featureOfInterest&#45;sem</text>
</g>
<!-- /req/obs&#45;core/AbstractObservationCharacteristics/pFoI&#45;sem -->
<g id="node9" class="node">
<title>/req/obs&#45;core/AbstractObservationCharacteristics/pFoI&#45;sem</title>
<polygon fill="none" stroke="black" points="1058.5,-649 618.5,-649 618.5,-613 1058.5,-613 1058.5,-649"/>
<text text-anchor="middle" x="838.5" y="-627.3" font-family="Times,serif" font-size="14.00">/req/obs&#45;core/AbstractObservationCharacteristics/pFoI&#45;sem</text>
</g>
<!-- /req/obs&#45;core/AbstractObservationCharacteristics/uFoI&#45;sem -->
<g id="node10" class="node">
<title>/req/obs&#45;core/AbstractObservationCharacteristics/uFoI&#45;sem</title>
<polygon fill="none" stroke="black" points="1058.5,-595 618.5,-595 618.5,-559 1058.5,-559 1058.5,-595"/>
<text text-anchor="middle" x="838.5" y="-573.3" font-family="Times,serif" font-size="14.00">/req/obs&#45;core/AbstractObservationCharacteristics/uFoI&#45;sem</text>
</g>
<!-- /req/obs&#45;cpt/Observation/observedProperty&#45;sem -->
<g id="node11" class="node">
<title>/req/obs&#45;cpt/Observation/observedProperty&#45;sem</title>
<polygon fill="none" stroke="black" points="1018,-541 659,-541 659,-505 1018,-505 1018,-541"/>
<text text-anchor="middle" x="838.5" y="-519.3" font-family="Times,serif" font-size="14.00">/req/obs&#45;cpt/Observation/observedProperty&#45;sem</text>
</g>
<!-- /req/obs&#45;cpt/Observation/result&#45;sem -->
<g id="node12" class="node">
<title>/req/obs&#45;cpt/Observation/result&#45;sem</title>
<polygon fill="none" stroke="black" points="975,-487 702,-487 702,-451 975,-451 975,-487"/>
<text text-anchor="middle" x="838.5" y="-465.3" font-family="Times,serif" font-size="14.00">/req/obs&#45;cpt/Observation/result&#45;sem</text>
</g>
<!-- /req/obs&#45;cpt/Observation/procedure&#45;sem -->
<g id="node13" class="node">
<title>/req/obs&#45;cpt/Observation/procedure&#45;sem</title>
<polygon fill="none" stroke="black" points="990.5,-433 686.5,-433 686.5,-397 990.5,-397 990.5,-433"/>
<text text-anchor="middle" x="838.5" y="-411.3" font-family="Times,serif" font-size="14.00">/req/obs&#45;cpt/Observation/procedure&#45;sem</text>
</g>
<!-- /req/obs&#45;cpt/Observation/observer&#45;sem -->
<g id="node14" class="node">
<title>/req/obs&#45;cpt/Observation/observer&#45;sem</title>
<polygon fill="none" stroke="black" points="985.5,-379 691.5,-379 691.5,-343 985.5,-343 985.5,-379"/>
<text text-anchor="middle" x="838.5" y="-357.3" font-family="Times,serif" font-size="14.00">/req/obs&#45;cpt/Observation/observer&#45;sem</text>
</g>
<!-- /req/obs&#45;cpt/Observation/host&#45;sem -->
<g id="node15" class="node">
<title>/req/obs&#45;cpt/Observation/host&#45;sem</title>
<polygon fill="none" stroke="black" points="969.5,-325 707.5,-325 707.5,-289 969.5,-289 969.5,-325"/>
<text text-anchor="middle" x="838.5" y="-303.3" font-family="Times,serif" font-size="14.00">/req/obs&#45;cpt/Observation/host&#45;sem</text>
</g>
<!-- /req/obs&#45;cpt/gen/relatedObservation&#45;sem -->
<g id="node16" class="node">
<title>/req/obs&#45;cpt/gen/relatedObservation&#45;sem</title>
<polygon fill="none" stroke="black" points="992.5,-271 684.5,-271 684.5,-235 992.5,-235 992.5,-271"/>
<text text-anchor="middle" x="838.5" y="-249.3" font-family="Times,serif" font-size="14.00">/req/obs&#45;cpt/gen/relatedObservation&#45;sem</text>
</g>
<!-- /req/obs&#45;core/gen/metadata&#45;sem -->
<g id="node17" class="node">
<title>/req/obs&#45;core/gen/metadata&#45;sem</title>
<polygon fill="none" stroke="black" points="961.5,-217 715.5,-217 715.5,-181 961.5,-181 961.5,-217"/>
<text text-anchor="middle" x="838.5" y="-195.3" font-family="Times,serif" font-size="14.00">/req/obs&#45;core/gen/metadata&#45;sem</text>
</g>
<!-- /req/obs&#45;core/NamedValue/NamedValue&#45;sem -->
<g id="node18" class="node">
<title>/req/obs&#45;core/NamedValue/NamedValue&#45;sem</title>
<polygon fill="none" stroke="black" points="1539,-144 1207,-144 1207,-108 1539,-108 1539,-144"/>
<text text-anchor="middle" x="1373" y="-122.3" font-family="Times,serif" font-size="14.00">/req/obs&#45;core/NamedValue/NamedValue&#45;sem</text>
</g>
<!-- /req/obs&#45;core/NamedValue/name&#45;sem -->
<g id="node19" class="node">
<title>/req/obs&#45;core/NamedValue/name&#45;sem</title>
<polygon fill="none" stroke="black" points="1513.5,-90 1232.5,-90 1232.5,-54 1513.5,-54 1513.5,-90"/>
<text text-anchor="middle" x="1373" y="-68.3" font-family="Times,serif" font-size="14.00">/req/obs&#45;core/NamedValue/name&#45;sem</text>
</g>
<!-- /req/obs&#45;core/NamedValue/value&#45;sem -->
<g id="node20" class="node">
<title>/req/obs&#45;core/NamedValue/value&#45;sem</title>
<polygon fill="none" stroke="black" points="1513.5,-36 1232.5,-36 1232.5,0 1513.5,0 1513.5,-36"/>
<text text-anchor="middle" x="1373" y="-14.3" font-family="Times,serif" font-size="14.00">/req/obs&#45;core/NamedValue/value&#45;sem</text>
</g>
<!-- /rec/obs&#45;core/AbstractObservationCharacteristics/uFoI -->
<g id="node21" class="node">
<title>/rec/obs&#45;core/AbstractObservationCharacteristics/uFoI</title>
<polygon fill="none" stroke="black" stroke-dasharray="1,5" points="1041,-163 636,-163 636,-127 1041,-127 1041,-163"/>
<text text-anchor="middle" x="838.5" y="-141.3" font-family="Times,serif" font-size="14.00">/rec/obs&#45;core/AbstractObservationCharacteristics/uFoI</text>
</g>
<!-- /req/obs&#45;core/AbstractObservationCharacteristics -->
<g id="node22" class="node">
<title>/req/obs&#45;core/AbstractObservationCharacteristics</title>
<polygon fill="none" stroke="black" points="3,-589 3,-610 467,-610 467,-589 3,-589"/>
<text text-anchor="start" x="57.5" y="-595.8" font-family="Times,serif" font-size="14.00">/req/obs&#45;core/AbstractObservationCharacteristics</text>
<polygon fill="none" stroke="black" points="3,-566 3,-587 467,-587 467,-566 3,-566"/>
<text text-anchor="start" x="6" y="-572.8" font-family="Times,serif" font-size="14.00">Abstract Observation core &#45; AbstractObservationCharacteristics</text>
<polygon fill="none" stroke="black" points="3,-543 3,-564 467,-564 467,-543 3,-543"/>
<text text-anchor="start" x="185" y="-549.8" font-family="Times,serif" font-size="14.00">Logical model</text>
<polygon fill="none" stroke="black" points="0,-540.5 0,-613.5 470,-613.5 470,-540.5 0,-540.5"/>
</g>
<!-- /req/obs&#45;core/AbstractObservationCharacteristics&#45;&gt;/req/obs&#45;core/AbstractObservationCharacteristics/AbstractObservationCharacteristics&#45;sem -->
<g id="edge1" class="edge">
<title>/req/obs&#45;core/AbstractObservationCharacteristics&#45;&gt;/req/obs&#45;core/AbstractObservationCharacteristics/AbstractObservationCharacteristics&#45;sem</title>
<path fill="none" stroke="black" d="M257.64,-613.79C321.71,-722.7 506,-1036 506,-1036 506,-1036 550.12,-1039.59 606.17,-1044.16"/>
<polygon fill="black" stroke="black" points="606.13,-1047.67 616.38,-1044.99 606.7,-1040.69 606.13,-1047.67"/>
</g>
<!-- /req/obs&#45;core/AbstractObservationCharacteristics&#45;&gt;/req/obs&#45;core/AbstractObservationCharacteristics/type&#45;sem -->
<g id="edge2" class="edge">
<title>/req/obs&#45;core/AbstractObservationCharacteristics&#45;&gt;/req/obs&#45;core/AbstractObservationCharacteristics/type&#45;sem</title>
<path fill="none" stroke="black" d="M260.44,-613.66C326.9,-713.35 506,-982 506,-982 506,-982 551.2,-985.68 608.22,-990.33"/>
<polygon fill="black" stroke="black" points="607.98,-993.82 618.23,-991.14 608.55,-986.84 607.98,-993.82"/>
</g>
<!-- /req/obs&#45;core/AbstractObservationCharacteristics&#45;&gt;/req/obs&#45;core/AbstractObservationCharacteristics/parameter&#45;sem -->
<g id="edge3" class="edge">
<title>/req/obs&#45;core/AbstractObservationCharacteristics&#45;&gt;/req/obs&#45;core/AbstractObservationCharacteristics/parameter&#45;sem</title>
<path fill="none" stroke="black" d="M264.13,-613.57C333.28,-703.47 506,-928 506,-928 506,-928 550.12,-931.59 606.17,-936.16"/>
<polygon fill="black" stroke="black" points="606.13,-939.67 616.38,-936.99 606.7,-932.69 606.13,-939.67"/>
</g>
<!-- /req/obs&#45;core/AbstractObservationCharacteristics&#45;&gt;/req/obs&#45;core/AbstractObservationCharacteristics/resultQuality&#45;sem -->
<g id="edge4" class="edge">
<title>/req/obs&#45;core/AbstractObservationCharacteristics&#45;&gt;/req/obs&#45;core/AbstractObservationCharacteristics/resultQuality&#45;sem</title>
<path fill="none" stroke="black" d="M269.38,-613.72C341.62,-693.18 506,-874 506,-874 506,-874 550.12,-877.59 606.17,-882.16"/>
<polygon fill="black" stroke="black" points="606.13,-885.67 616.38,-882.99 606.7,-878.69 606.13,-885.67"/>
</g>
<!-- /req/obs&#45;core/AbstractObservationCharacteristics&#45;&gt;/req/obs&#45;cpt/Observation/phenomenonTime&#45;sem -->
<g id="edge5" class="edge">
<title>/req/obs&#45;core/AbstractObservationCharacteristics&#45;&gt;/req/obs&#45;cpt/Observation/phenomenonTime&#45;sem</title>
<path fill="none" stroke="black" d="M276.71,-613.64C352.14,-681.53 506,-820 506,-820 506,-820 574.39,-825.57 649.05,-831.65"/>
<polygon fill="black" stroke="black" points="648.88,-835.15 659.14,-832.47 649.45,-828.17 648.88,-835.15"/>
</g>
<!-- /req/obs&#45;core/AbstractObservationCharacteristics&#45;&gt;/req/obs&#45;cpt/Observation/resultTime&#45;sem -->
<g id="edge6" class="edge">
<title>/req/obs&#45;core/AbstractObservationCharacteristics&#45;&gt;/req/obs&#45;cpt/Observation/resultTime&#45;sem</title>
<path fill="none" stroke="black" d="M288.38,-613.67C366.9,-668.63 506,-766 506,-766 506,-766 590.5,-772.88 674.17,-779.7"/>
<polygon fill="black" stroke="black" points="674.11,-783.2 684.36,-780.53 674.68,-776.23 674.11,-783.2"/>
</g>
<!-- /req/obs&#45;core/AbstractObservationCharacteristics&#45;&gt;/req/obs&#45;cpt/Observation/validTime&#45;sem -->
<g id="edge7" class="edge">
<title>/req/obs&#45;core/AbstractObservationCharacteristics&#45;&gt;/req/obs&#45;cpt/Observation/validTime&#45;sem</title>
<path fill="none" stroke="black" d="M309.07,-613.53C389.03,-653.51 506,-712 506,-712 506,-712 592.89,-719.08 677.69,-725.98"/>
<polygon fill="black" stroke="black" points="677.5,-729.48 687.75,-726.8 678.07,-722.5 677.5,-729.48"/>
</g>
<!-- /req/obs&#45;core/AbstractObservationCharacteristics&#45;&gt;/req/obs&#45;cpt/Observation/featureOfInterest&#45;sem -->
<g id="edge8" class="edge">
<title>/req/obs&#45;core/AbstractObservationCharacteristics&#45;&gt;/req/obs&#45;cpt/Observation/featureOfInterest&#45;sem</title>
<path fill="none" stroke="black" d="M357.97,-613.59C429.52,-635.06 506,-658 506,-658 506,-658 574.96,-663.62 649.97,-669.73"/>
<polygon fill="black" stroke="black" points="649.85,-673.23 660.1,-670.55 650.42,-666.25 649.85,-673.23"/>
</g>
<!-- /req/obs&#45;core/AbstractObservationCharacteristics&#45;&gt;/req/obs&#45;core/AbstractObservationCharacteristics/pFoI&#45;sem -->
<g id="edge9" class="edge">
<title>/req/obs&#45;core/AbstractObservationCharacteristics&#45;&gt;/req/obs&#45;core/AbstractObservationCharacteristics/pFoI&#45;sem</title>
<path fill="none" stroke="black" d="M470.15,-600.41C491.9,-602.59 506,-604 506,-604 506,-604 551.2,-607.68 608.22,-612.33"/>
<polygon fill="black" stroke="black" points="607.98,-615.82 618.23,-613.14 608.55,-608.84 607.98,-615.82"/>
</g>
<!-- /req/obs&#45;core/AbstractObservationCharacteristics&#45;&gt;/req/obs&#45;core/AbstractObservationCharacteristics/uFoI&#45;sem -->
<g id="edge10" class="edge">
<title>/req/obs&#45;core/AbstractObservationCharacteristics&#45;&gt;/req/obs&#45;core/AbstractObservationCharacteristics/uFoI&#45;sem</title>
<path fill="none" stroke="black" d="M470.28,-577C515.51,-577 562.86,-577 607.94,-577"/>
<polygon fill="black" stroke="black" points="608.13,-580.5 618.13,-577 608.13,-573.5 608.13,-580.5"/>
</g>
<!-- /req/obs&#45;core/AbstractObservationCharacteristics&#45;&gt;/req/obs&#45;cpt/Observation/observedProperty&#45;sem -->
<g id="edge11" class="edge">
<title>/req/obs&#45;core/AbstractObservationCharacteristics&#45;&gt;/req/obs&#45;cpt/Observation/observedProperty&#45;sem</title>
<path fill="none" stroke="black" d="M470.15,-553.59C491.9,-551.41 506,-550 506,-550 506,-550 574.11,-544.45 648.59,-538.39"/>
<polygon fill="black" stroke="black" points="648.97,-541.87 658.65,-537.57 648.4,-534.89 648.97,-541.87"/>
</g>
<!-- /req/obs&#45;core/AbstractObservationCharacteristics&#45;&gt;/req/obs&#45;cpt/Observation/result&#45;sem -->
<g id="edge12" class="edge">
<title>/req/obs&#45;core/AbstractObservationCharacteristics&#45;&gt;/req/obs&#45;cpt/Observation/result&#45;sem</title>
<path fill="none" stroke="black" d="M357.97,-540.41C429.52,-518.94 506,-496 506,-496 506,-496 602.77,-488.12 691.74,-480.87"/>
<polygon fill="black" stroke="black" points="692.03,-484.36 701.71,-480.06 691.46,-477.38 692.03,-484.36"/>
</g>
<!-- /req/obs&#45;core/AbstractObservationCharacteristics&#45;&gt;/req/obs&#45;cpt/Observation/procedure&#45;sem -->
<g id="edge13" class="edge">
<title>/req/obs&#45;core/AbstractObservationCharacteristics&#45;&gt;/req/obs&#45;cpt/Observation/procedure&#45;sem</title>
<path fill="none" stroke="black" d="M309.07,-540.47C389.03,-500.49 506,-442 506,-442 506,-442 591.93,-435 676.29,-428.13"/>
<polygon fill="black" stroke="black" points="676.62,-431.62 686.3,-427.31 676.05,-424.64 676.62,-431.62"/>
</g>
<!-- /req/obs&#45;core/AbstractObservationCharacteristics&#45;&gt;/req/obs&#45;cpt/Observation/observer&#45;sem -->
<g id="edge14" class="edge">
<title>/req/obs&#45;core/AbstractObservationCharacteristics&#45;&gt;/req/obs&#45;cpt/Observation/observer&#45;sem</title>
<path fill="none" stroke="black" d="M288.38,-540.33C366.9,-485.37 506,-388 506,-388 506,-388 595.13,-380.74 680.96,-373.75"/>
<polygon fill="black" stroke="black" points="681.45,-377.22 691.13,-372.92 680.88,-370.24 681.45,-377.22"/>
</g>
<!-- /req/obs&#45;core/AbstractObservationCharacteristics&#45;&gt;/req/obs&#45;cpt/Observation/host&#45;sem -->
<g id="edge15" class="edge">
<title>/req/obs&#45;core/AbstractObservationCharacteristics&#45;&gt;/req/obs&#45;cpt/Observation/host&#45;sem</title>
<path fill="none" stroke="black" d="M276.71,-540.36C352.14,-472.47 506,-334 506,-334 506,-334 606.86,-325.79 697.31,-318.42"/>
<polygon fill="black" stroke="black" points="697.75,-321.89 707.43,-317.59 697.18,-314.92 697.75,-321.89"/>
</g>
<!-- /req/obs&#45;core/AbstractObservationCharacteristics&#45;&gt;/req/obs&#45;cpt/gen/relatedObservation&#45;sem -->
<g id="edge16" class="edge">
<title>/req/obs&#45;core/AbstractObservationCharacteristics&#45;&gt;/req/obs&#45;cpt/gen/relatedObservation&#45;sem</title>
<path fill="none" stroke="black" d="M269.38,-540.28C341.62,-460.82 506,-280 506,-280 506,-280 590.5,-273.12 674.17,-266.3"/>
<polygon fill="black" stroke="black" points="674.68,-269.77 684.36,-265.47 674.11,-262.8 674.68,-269.77"/>
</g>
<!-- /req/obs&#45;core/AbstractObservationCharacteristics&#45;&gt;/req/obs&#45;core/gen/metadata&#45;sem -->
<g id="edge17" class="edge">
<title>/req/obs&#45;core/AbstractObservationCharacteristics&#45;&gt;/req/obs&#45;core/gen/metadata&#45;sem</title>
<path fill="none" stroke="black" d="M264.13,-540.43C333.28,-450.53 506,-226 506,-226 506,-226 613.01,-217.28 705.43,-209.76"/>
<polygon fill="black" stroke="black" points="705.79,-213.24 715.47,-208.94 705.22,-206.26 705.79,-213.24"/>
</g>
<!-- /req/obs&#45;core/AbstractObservationCharacteristics&#45;&gt;/rec/obs&#45;core/AbstractObservationCharacteristics/uFoI -->
<g id="edge18" class="edge">
<title>/req/obs&#45;core/AbstractObservationCharacteristics&#45;&gt;/rec/obs&#45;core/AbstractObservationCharacteristics/uFoI</title>
<path fill="none" stroke="black" stroke-dasharray="1,5" d="M260.44,-540.34C326.9,-440.65 506,-172 506,-172 506,-172 560.62,-167.55 625.52,-162.27"/>
<polygon fill="black" stroke="black" points="625.91,-165.75 635.59,-161.45 625.34,-158.77 625.91,-165.75"/>
</g>
<!-- /req/obs&#45;core/NamedValue -->
<g id="node23" class="node">
<title>/req/obs&#45;core/NamedValue</title>
<polygon fill="none" stroke="black" points="689.5,-84 689.5,-105 987.5,-105 987.5,-84 689.5,-84"/>
<text text-anchor="start" x="744.5" y="-90.8" font-family="Times,serif" font-size="14.00">/req/obs&#45;core/NamedValue</text>
<polygon fill="none" stroke="black" points="689.5,-61 689.5,-82 987.5,-82 987.5,-61 689.5,-61"/>
<text text-anchor="start" x="692.5" y="-67.8" font-family="Times,serif" font-size="14.00">Abstract Observation core &#45; NamedValue</text>
<polygon fill="none" stroke="black" points="689.5,-38 689.5,-59 987.5,-59 987.5,-38 689.5,-38"/>
<text text-anchor="start" x="788.5" y="-44.8" font-family="Times,serif" font-size="14.00">Logical model</text>
<polygon fill="none" stroke="black" points="686.5,-35.5 686.5,-108.5 990.5,-108.5 990.5,-35.5 686.5,-35.5"/>
</g>
<!-- /req/obs&#45;core/AbstractObservationCharacteristics&#45;&gt;/req/obs&#45;core/NamedValue -->
<g id="edge19" class="edge">
<title>/req/obs&#45;core/AbstractObservationCharacteristics&#45;&gt;/req/obs&#45;core/NamedValue</title>
<path fill="none" stroke="black" stroke-dasharray="5,2" d="M257.64,-540.21C321.71,-431.3 506,-118 506,-118 506,-118 591.93,-106.08 676.29,-94.37"/>
<polygon fill="black" stroke="black" points="676.88,-97.82 686.3,-92.98 675.92,-90.89 676.88,-97.82"/>
</g>
<!-- /req/obs&#45;core/NamedValue&#45;&gt;/req/obs&#45;core/NamedValue/NamedValue&#45;sem -->
<g id="edge20" class="edge">
<title>/req/obs&#45;core/NamedValue&#45;&gt;/req/obs&#45;core/NamedValue/NamedValue&#45;sem</title>
<path fill="none" stroke="black" d="M990.67,-87.33C1054.87,-93.84 1130.11,-101.47 1196.73,-108.23"/>
<polygon fill="black" stroke="black" points="1196.61,-111.73 1206.92,-109.26 1197.32,-104.77 1196.61,-111.73"/>
</g>
<!-- /req/obs&#45;core/NamedValue&#45;&gt;/req/obs&#45;core/NamedValue/name&#45;sem -->
<g id="edge21" class="edge">
<title>/req/obs&#45;core/NamedValue&#45;&gt;/req/obs&#45;core/NamedValue/name&#45;sem</title>
<path fill="none" stroke="black" d="M990.67,-72C1063.2,-72 1149.85,-72 1222.21,-72"/>
<polygon fill="black" stroke="black" points="1222.32,-75.5 1232.32,-72 1222.32,-68.5 1222.32,-75.5"/>
</g>
<!-- /req/obs&#45;core/NamedValue&#45;&gt;/req/obs&#45;core/NamedValue/value&#45;sem -->
<g id="edge22" class="edge">
<title>/req/obs&#45;core/NamedValue&#45;&gt;/req/obs&#45;core/NamedValue/value&#45;sem</title>
<path fill="none" stroke="black" d="M990.67,-56.67C1063.2,-49.31 1149.85,-40.53 1222.21,-33.19"/>
<polygon fill="black" stroke="black" points="1222.72,-36.66 1232.32,-32.16 1222.02,-29.69 1222.72,-36.66"/>
</g>
</g>
</svg>
