<?xml version="1.0" encoding="UTF-8" standalone="no"?>
<!DOCTYPE svg PUBLIC "-//W3C//DTD SVG 1.1//EN"
 "http://www.w3.org/Graphics/SVG/1.1/DTD/svg11.dtd">
<!-- Generated by graphviz version 2.43.0 (0)
 -->
<!-- Title: G Pages: 1 -->
<svg width="584pt" height="206pt"
 viewBox="0.00 0.00 584.00 206.00" xmlns="http://www.w3.org/2000/svg" xmlns:xlink="http://www.w3.org/1999/xlink">
<g id="graph0" class="graph" transform="scale(1 1) rotate(0) translate(4 202)">
<title>G</title>
<polygon fill="white" stroke="transparent" points="-4,4 -4,-202 580,-202 580,4 -4,4"/>
<!-- /req/obs&#45;cpt/Host/Host&#45;sem -->
<g id="node1" class="node">
<title>/req/obs&#45;cpt/Host/Host&#45;sem</title>
<polygon fill="none" stroke="black" points="528,-198 316,-198 316,-162 528,-162 528,-198"/>
<text text-anchor="middle" x="422" y="-176.3" font-family="Times,serif" font-size="14.00">/req/obs&#45;cpt/Host/Host&#45;sem</text>
</g>
<!-- /req/obs&#45;cpt/Host/deployment&#45;sem -->
<g id="node2" class="node">
<title>/req/obs&#45;cpt/Host/deployment&#45;sem</title>
<polygon fill="none" stroke="black" points="553,-144 291,-144 291,-108 553,-108 553,-144"/>
<text text-anchor="middle" x="422" y="-122.3" font-family="Times,serif" font-size="14.00">/req/obs&#45;cpt/Host/deployment&#45;sem</text>
</g>
<!-- /req/obs&#45;cpt/Host/relatedHost&#45;sem -->
<g id="node3" class="node">
<title>/req/obs&#45;cpt/Host/relatedHost&#45;sem</title>
<polygon fill="none" stroke="black" points="553.5,-90 290.5,-90 290.5,-54 553.5,-54 553.5,-90"/>
<text text-anchor="middle" x="422" y="-68.3" font-family="Times,serif" font-size="14.00">/req/obs&#45;cpt/Host/relatedHost&#45;sem</text>
</g>
<!-- /req/obs&#45;cpt/gen/relatedObservation&#45;sem -->
<g id="node4" class="node">
<title>/req/obs&#45;cpt/gen/relatedObservation&#45;sem</title>
<polygon fill="none" stroke="black" points="576,-36 268,-36 268,0 576,0 576,-36"/>
<text text-anchor="middle" x="422" y="-14.3" font-family="Times,serif" font-size="14.00">/req/obs&#45;cpt/gen/relatedObservation&#45;sem</text>
</g>
<!-- /req/obs&#45;cpt/Host -->
<g id="node5" class="node">
<title>/req/obs&#45;cpt/Host</title>
<polygon fill="none" stroke="black" points="3,-111 3,-132 229,-132 229,-111 3,-111"/>
<text text-anchor="start" x="54" y="-117.8" font-family="Times,serif" font-size="14.00">/req/obs&#45;cpt/Host</text>
<polygon fill="none" stroke="black" points="3,-88 3,-109 229,-109 229,-88 3,-88"/>
<text text-anchor="start" x="6" y="-94.8" font-family="Times,serif" font-size="14.00">Conceptual Observation &#45; Host</text>
<polygon fill="none" stroke="black" points="3,-65 3,-86 229,-86 229,-65 3,-65"/>
<text text-anchor="start" x="51.5" y="-71.8" font-family="Times,serif" font-size="14.00">Conceptual model</text>
<polygon fill="none" stroke="black" points="0,-62.5 0,-135.5 232,-135.5 232,-62.5 0,-62.5"/>
</g>
<!-- /req/obs&#45;cpt/Host&#45;&gt;/req/obs&#45;cpt/Host/Host&#45;sem -->
<g id="edge1" class="edge">
<title>/req/obs&#45;cpt/Host&#45;&gt;/req/obs&#45;cpt/Host/Host&#45;sem</title>
<path fill="none" stroke="black" d="M219.39,-135.62C246.32,-145.25 268,-153 268,-153 268,-153 285.68,-156.12 309.01,-160.24"/>
<polygon fill="black" stroke="black" points="308.49,-163.7 318.95,-161.99 309.71,-156.81 308.49,-163.7"/>
</g>
<!-- /req/obs&#45;cpt/Host&#45;&gt;/req/obs&#45;cpt/Host/deployment&#45;sem -->
<g id="edge2" class="edge">
<title>/req/obs&#45;cpt/Host&#45;&gt;/req/obs&#45;cpt/Host/deployment&#45;sem</title>
<path fill="none" stroke="black" d="M232.36,-109.25C248.22,-110.65 264.64,-112.11 280.88,-113.56"/>
<polygon fill="black" stroke="black" points="280.7,-117.05 290.97,-114.45 281.31,-110.08 280.7,-117.05"/>
</g>
<!-- /req/obs&#45;cpt/Host&#45;&gt;/req/obs&#45;cpt/Host/relatedHost&#45;sem -->
<g id="edge3" class="edge">
<title>/req/obs&#45;cpt/Host&#45;&gt;/req/obs&#45;cpt/Host/relatedHost&#45;sem</title>
<path fill="none" stroke="black" d="M232.36,-88.75C248.08,-87.36 264.35,-85.91 280.46,-84.48"/>
<polygon fill="black" stroke="black" points="280.8,-87.97 290.45,-83.59 280.18,-80.99 280.8,-87.97"/>
</g>
<!-- /req/obs&#45;cpt/Host&#45;&gt;/req/obs&#45;cpt/gen/relatedObservation&#45;sem -->
<g id="edge4" class="edge">
<title>/req/obs&#45;cpt/Host&#45;&gt;/req/obs&#45;cpt/gen/relatedObservation&#45;sem</title>
<path fill="none" stroke="black" d="M219.39,-62.38C246.32,-52.75 268,-45 268,-45 268,-45 285.68,-41.88 309.01,-37.76"/>
<polygon fill="black" stroke="black" points="309.71,-41.19 318.95,-36.01 308.49,-34.3 309.71,-41.19"/>
</g>
</g>
</svg>
