<?xml version="1.0" encoding="UTF-8" standalone="no"?>
<!DOCTYPE svg PUBLIC "-//W3C//DTD SVG 1.1//EN"
 "http://www.w3.org/Graphics/SVG/1.1/DTD/svg11.dtd">
<!-- Generated by graphviz version 2.43.0 (0)
 -->
<!-- Title: G Pages: 1 -->
<svg width="1496pt" height="2026pt"
 viewBox="0.00 0.00 1496.00 2026.00" xmlns="http://www.w3.org/2000/svg" xmlns:xlink="http://www.w3.org/1999/xlink">
<g id="graph0" class="graph" transform="scale(1 1) rotate(0) translate(4 2022)">
<title>G</title>
<polygon fill="white" stroke="transparent" points="-4,4 -4,-2022 1492,-2022 1492,4 -4,4"/>
<!-- /req/obs&#45;cpt/Observation/Observation&#45;sem -->
<g id="node1" class="node">
<title>/req/obs&#45;cpt/Observation/Observation&#45;sem</title>
<polygon fill="none" stroke="black" points="1101,-1694 783,-1694 783,-1658 1101,-1658 1101,-1694"/>
<text text-anchor="middle" x="942" y="-1672.3" font-family="Times,serif" font-size="14.00">/req/obs&#45;cpt/Observation/Observation&#45;sem</text>
</g>
<!-- /req/obs&#45;cpt/Observation/phenomenonTime&#45;sem -->
<g id="node2" class="node">
<title>/req/obs&#45;cpt/Observation/phenomenonTime&#45;sem</title>
<polygon fill="none" stroke="black" points="1121,-1640 763,-1640 763,-1604 1121,-1604 1121,-1640"/>
<text text-anchor="middle" x="942" y="-1618.3" font-family="Times,serif" font-size="14.00">/req/obs&#45;cpt/Observation/phenomenonTime&#45;sem</text>
</g>
<!-- /req/obs&#45;cpt/Observation/phenomenonTime&#45;card -->
<g id="node3" class="node">
<title>/req/obs&#45;cpt/Observation/phenomenonTime&#45;card</title>
<polygon fill="none" stroke="black" points="1122,-1586 762,-1586 762,-1550 1122,-1550 1122,-1586"/>
<text text-anchor="middle" x="942" y="-1564.3" font-family="Times,serif" font-size="14.00">/req/obs&#45;cpt/Observation/phenomenonTime&#45;card</text>
</g>
<!-- /req/obs&#45;cpt/Observation/resultTime&#45;sem -->
<g id="node4" class="node">
<title>/req/obs&#45;cpt/Observation/resultTime&#45;sem</title>
<polygon fill="none" stroke="black" points="1096,-1532 788,-1532 788,-1496 1096,-1496 1096,-1532"/>
<text text-anchor="middle" x="942" y="-1510.3" font-family="Times,serif" font-size="14.00">/req/obs&#45;cpt/Observation/resultTime&#45;sem</text>
</g>
<!-- /req/obs&#45;cpt/Observation/resultTime&#45;card -->
<g id="node5" class="node">
<title>/req/obs&#45;cpt/Observation/resultTime&#45;card</title>
<polygon fill="none" stroke="black" points="1097.5,-1478 786.5,-1478 786.5,-1442 1097.5,-1442 1097.5,-1478"/>
<text text-anchor="middle" x="942" y="-1456.3" font-family="Times,serif" font-size="14.00">/req/obs&#45;cpt/Observation/resultTime&#45;card</text>
</g>
<!-- /req/obs&#45;cpt/Observation/validTime&#45;sem -->
<g id="node6" class="node">
<title>/req/obs&#45;cpt/Observation/validTime&#45;sem</title>
<polygon fill="none" stroke="black" points="1092.5,-1424 791.5,-1424 791.5,-1388 1092.5,-1388 1092.5,-1424"/>
<text text-anchor="middle" x="942" y="-1402.3" font-family="Times,serif" font-size="14.00">/req/obs&#45;cpt/Observation/validTime&#45;sem</text>
</g>
<!-- /req/obs&#45;cpt/Observation/featureOfInterest&#45;sem -->
<g id="node7" class="node">
<title>/req/obs&#45;cpt/Observation/featureOfInterest&#45;sem</title>
<polygon fill="none" stroke="black" points="1120,-1370 764,-1370 764,-1334 1120,-1334 1120,-1370"/>
<text text-anchor="middle" x="942" y="-1348.3" font-family="Times,serif" font-size="14.00">/req/obs&#45;cpt/Observation/featureOfInterest&#45;sem</text>
</g>
<!-- /req/obs&#45;cpt/Observation/featureOfInterest&#45;card -->
<g id="node8" class="node">
<title>/req/obs&#45;cpt/Observation/featureOfInterest&#45;card</title>
<polygon fill="none" stroke="black" points="1121.5,-1316 762.5,-1316 762.5,-1280 1121.5,-1280 1121.5,-1316"/>
<text text-anchor="middle" x="942" y="-1294.3" font-family="Times,serif" font-size="14.00">/req/obs&#45;cpt/Observation/featureOfInterest&#45;card</text>
</g>
<!-- /req/obs&#45;cpt/Observation/observedProperty&#45;sem -->
<g id="node9" class="node">
<title>/req/obs&#45;cpt/Observation/observedProperty&#45;sem</title>
<polygon fill="none" stroke="black" points="1121.5,-1262 762.5,-1262 762.5,-1226 1121.5,-1226 1121.5,-1262"/>
<text text-anchor="middle" x="942" y="-1240.3" font-family="Times,serif" font-size="14.00">/req/obs&#45;cpt/Observation/observedProperty&#45;sem</text>
</g>
<!-- /req/obs&#45;cpt/Observation/observedProperty&#45;card -->
<g id="node10" class="node">
<title>/req/obs&#45;cpt/Observation/observedProperty&#45;card</title>
<polygon fill="none" stroke="black" points="1123,-1208 761,-1208 761,-1172 1123,-1172 1123,-1208"/>
<text text-anchor="middle" x="942" y="-1186.3" font-family="Times,serif" font-size="14.00">/req/obs&#45;cpt/Observation/observedProperty&#45;card</text>
</g>
<!-- /req/obs&#45;cpt/Observation/result&#45;sem -->
<g id="node11" class="node">
<title>/req/obs&#45;cpt/Observation/result&#45;sem</title>
<polygon fill="none" stroke="black" points="1078.5,-1154 805.5,-1154 805.5,-1118 1078.5,-1118 1078.5,-1154"/>
<text text-anchor="middle" x="942" y="-1132.3" font-family="Times,serif" font-size="14.00">/req/obs&#45;cpt/Observation/result&#45;sem</text>
</g>
<!-- /req/obs&#45;cpt/Observation/result&#45;card -->
<g id="node12" class="node">
<title>/req/obs&#45;cpt/Observation/result&#45;card</title>
<polygon fill="none" stroke="black" points="1079.5,-1100 804.5,-1100 804.5,-1064 1079.5,-1064 1079.5,-1100"/>
<text text-anchor="middle" x="942" y="-1078.3" font-family="Times,serif" font-size="14.00">/req/obs&#45;cpt/Observation/result&#45;card</text>
</g>
<!-- /req/obs&#45;cpt/Observation/procedure&#45;sem -->
<g id="node13" class="node">
<title>/req/obs&#45;cpt/Observation/procedure&#45;sem</title>
<polygon fill="none" stroke="black" points="1094,-1046 790,-1046 790,-1010 1094,-1010 1094,-1046"/>
<text text-anchor="middle" x="942" y="-1024.3" font-family="Times,serif" font-size="14.00">/req/obs&#45;cpt/Observation/procedure&#45;sem</text>
</g>
<!-- /req/obs&#45;cpt/Observation/procedure&#45;card -->
<g id="node14" class="node">
<title>/req/obs&#45;cpt/Observation/procedure&#45;card</title>
<polygon fill="none" stroke="black" points="1095,-992 789,-992 789,-956 1095,-956 1095,-992"/>
<text text-anchor="middle" x="942" y="-970.3" font-family="Times,serif" font-size="14.00">/req/obs&#45;cpt/Observation/procedure&#45;card</text>
</g>
<!-- /req/obs&#45;cpt/Observation/observer&#45;sem -->
<g id="node15" class="node">
<title>/req/obs&#45;cpt/Observation/observer&#45;sem</title>
<polygon fill="none" stroke="black" points="1089,-938 795,-938 795,-902 1089,-902 1089,-938"/>
<text text-anchor="middle" x="942" y="-916.3" font-family="Times,serif" font-size="14.00">/req/obs&#45;cpt/Observation/observer&#45;sem</text>
</g>
<!-- /req/obs&#45;cpt/Observation/host&#45;sem -->
<g id="node16" class="node">
<title>/req/obs&#45;cpt/Observation/host&#45;sem</title>
<polygon fill="none" stroke="black" points="1073,-2018 811,-2018 811,-1982 1073,-1982 1073,-2018"/>
<text text-anchor="middle" x="942" y="-1996.3" font-family="Times,serif" font-size="14.00">/req/obs&#45;cpt/Observation/host&#45;sem</text>
</g>
<!-- /req/obs&#45;cpt/gen/relatedObservation&#45;sem -->
<g id="node17" class="node">
<title>/req/obs&#45;cpt/gen/relatedObservation&#45;sem</title>
<polygon fill="none" stroke="black" points="1096,-684 788,-684 788,-648 1096,-648 1096,-684"/>
<text text-anchor="middle" x="942" y="-662.3" font-family="Times,serif" font-size="14.00">/req/obs&#45;cpt/gen/relatedObservation&#45;sem</text>
</g>
<!-- /req/obs&#45;cpt/ObservableProperty/ObservableProperty&#45;sem -->
<g id="node18" class="node">
<title>/req/obs&#45;cpt/ObservableProperty/ObservableProperty&#45;sem</title>
<polygon fill="none" stroke="black" points="1158,-830 726,-830 726,-794 1158,-794 1158,-830"/>
<text text-anchor="middle" x="942" y="-808.3" font-family="Times,serif" font-size="14.00">/req/obs&#45;cpt/ObservableProperty/ObservableProperty&#45;sem</text>
</g>
<!-- /req/obs&#45;cpt/ObservableProperty/observer&#45;sem -->
<g id="node19" class="node">
<title>/req/obs&#45;cpt/ObservableProperty/observer&#45;sem</title>
<polygon fill="none" stroke="black" points="1117.5,-884 766.5,-884 766.5,-848 1117.5,-848 1117.5,-884"/>
<text text-anchor="middle" x="942" y="-862.3" font-family="Times,serif" font-size="14.00">/req/obs&#45;cpt/ObservableProperty/observer&#45;sem</text>
</g>
<!-- /req/obs&#45;cpt/Procedure/Procedure&#45;sem -->
<g id="node20" class="node">
<title>/req/obs&#45;cpt/Procedure/Procedure&#45;sem</title>
<polygon fill="none" stroke="black" points="1488,-757 1197,-757 1197,-721 1488,-721 1488,-757"/>
<text text-anchor="middle" x="1342.5" y="-735.3" font-family="Times,serif" font-size="14.00">/req/obs&#45;cpt/Procedure/Procedure&#45;sem</text>
</g>
<!-- /req/obs&#45;cpt/ObservingProcedure/ObservingProcedure&#45;sem -->
<g id="node21" class="node">
<title>/req/obs&#45;cpt/ObservingProcedure/ObservingProcedure&#45;sem</title>
<polygon fill="none" stroke="black" points="1161,-576 723,-576 723,-540 1161,-540 1161,-576"/>
<text text-anchor="middle" x="942" y="-554.3" font-family="Times,serif" font-size="14.00">/req/obs&#45;cpt/ObservingProcedure/ObservingProcedure&#45;sem</text>
</g>
<!-- /req/obs&#45;cpt/ObservingProcedure/observer&#45;sem -->
<g id="node22" class="node">
<title>/req/obs&#45;cpt/ObservingProcedure/observer&#45;sem</title>
<polygon fill="none" stroke="black" points="1119,-630 765,-630 765,-594 1119,-594 1119,-630"/>
<text text-anchor="middle" x="942" y="-608.3" font-family="Times,serif" font-size="14.00">/req/obs&#45;cpt/ObservingProcedure/observer&#45;sem</text>
</g>
<!-- /req/obs&#45;cpt/Observer/Observer&#45;sem -->
<g id="node23" class="node">
<title>/req/obs&#45;cpt/Observer/Observer&#45;sem</title>
<polygon fill="none" stroke="black" points="1080,-360 804,-360 804,-324 1080,-324 1080,-360"/>
<text text-anchor="middle" x="942" y="-338.3" font-family="Times,serif" font-size="14.00">/req/obs&#45;cpt/Observer/Observer&#45;sem</text>
</g>
<!-- /req/obs&#45;cpt/Observer/observableProperty&#45;sem -->
<g id="node24" class="node">
<title>/req/obs&#45;cpt/Observer/observableProperty&#45;sem</title>
<polygon fill="none" stroke="black" points="1117.5,-522 766.5,-522 766.5,-486 1117.5,-486 1117.5,-522"/>
<text text-anchor="middle" x="942" y="-500.3" font-family="Times,serif" font-size="14.00">/req/obs&#45;cpt/Observer/observableProperty&#45;sem</text>
</g>
<!-- /req/obs&#45;cpt/Observer/observingProcedure&#45;sem -->
<g id="node25" class="node">
<title>/req/obs&#45;cpt/Observer/observingProcedure&#45;sem</title>
<polygon fill="none" stroke="black" points="1119,-468 765,-468 765,-432 1119,-432 1119,-468"/>
<text text-anchor="middle" x="942" y="-446.3" font-family="Times,serif" font-size="14.00">/req/obs&#45;cpt/Observer/observingProcedure&#45;sem</text>
</g>
<!-- /req/obs&#45;cpt/Observer/deployment&#45;sem -->
<g id="node26" class="node">
<title>/req/obs&#45;cpt/Observer/deployment&#45;sem</title>
<polygon fill="none" stroke="black" points="1089,-414 795,-414 795,-378 1089,-378 1089,-414"/>
<text text-anchor="middle" x="942" y="-392.3" font-family="Times,serif" font-size="14.00">/req/obs&#45;cpt/Observer/deployment&#45;sem</text>
</g>
<!-- /req/obs&#45;cpt/Host/Host&#45;sem -->
<g id="node27" class="node">
<title>/req/obs&#45;cpt/Host/Host&#45;sem</title>
<polygon fill="none" stroke="black" points="1048,-306 836,-306 836,-270 1048,-270 1048,-306"/>
<text text-anchor="middle" x="942" y="-284.3" font-family="Times,serif" font-size="14.00">/req/obs&#45;cpt/Host/Host&#45;sem</text>
</g>
<!-- /req/obs&#45;cpt/Host/deployment&#45;sem -->
<g id="node28" class="node">
<title>/req/obs&#45;cpt/Host/deployment&#45;sem</title>
<polygon fill="none" stroke="black" points="1073,-252 811,-252 811,-216 1073,-216 1073,-252"/>
<text text-anchor="middle" x="942" y="-230.3" font-family="Times,serif" font-size="14.00">/req/obs&#45;cpt/Host/deployment&#45;sem</text>
</g>
<!-- /req/obs&#45;cpt/Host/relatedHost&#45;sem -->
<g id="node29" class="node">
<title>/req/obs&#45;cpt/Host/relatedHost&#45;sem</title>
<polygon fill="none" stroke="black" points="1073.5,-198 810.5,-198 810.5,-162 1073.5,-162 1073.5,-198"/>
<text text-anchor="middle" x="942" y="-176.3" font-family="Times,serif" font-size="14.00">/req/obs&#45;cpt/Host/relatedHost&#45;sem</text>
</g>
<!-- /req/obs&#45;cpt/Deployment/Deployment&#45;sem -->
<g id="node30" class="node">
<title>/req/obs&#45;cpt/Deployment/Deployment&#45;sem</title>
<polygon fill="none" stroke="black" points="1100.5,-144 783.5,-144 783.5,-108 1100.5,-108 1100.5,-144"/>
<text text-anchor="middle" x="942" y="-122.3" font-family="Times,serif" font-size="14.00">/req/obs&#45;cpt/Deployment/Deployment&#45;sem</text>
</g>
<!-- /req/obs&#45;cpt/Deployment/observer&#45;sem -->
<g id="node31" class="node">
<title>/req/obs&#45;cpt/Deployment/observer&#45;sem</title>
<polygon fill="none" stroke="black" points="1088.5,-90 795.5,-90 795.5,-54 1088.5,-54 1088.5,-90"/>
<text text-anchor="middle" x="942" y="-68.3" font-family="Times,serif" font-size="14.00">/req/obs&#45;cpt/Deployment/observer&#45;sem</text>
</g>
<!-- /req/obs&#45;cpt/Deployment/host&#45;sem -->
<g id="node32" class="node">
<title>/req/obs&#45;cpt/Deployment/host&#45;sem</title>
<polygon fill="none" stroke="black" points="1072.5,-36 811.5,-36 811.5,0 1072.5,0 1072.5,-36"/>
<text text-anchor="middle" x="942" y="-14.3" font-family="Times,serif" font-size="14.00">/req/obs&#45;cpt/Deployment/host&#45;sem</text>
</g>
<!-- /rec/obs&#45;cpt/Observation/observerhost&#45;con -->
<g id="node33" class="node">
<title>/rec/obs&#45;cpt/Observation/observerhost&#45;con</title>
<polygon fill="none" stroke="black" stroke-dasharray="1,5" points="1101.5,-1964 782.5,-1964 782.5,-1928 1101.5,-1928 1101.5,-1964"/>
<text text-anchor="middle" x="942" y="-1942.3" font-family="Times,serif" font-size="14.00">/rec/obs&#45;cpt/Observation/observerhost&#45;con</text>
</g>
<!-- /rec/obs&#45;cpt/Observation/observedProperty&#45;con -->
<g id="node34" class="node">
<title>/rec/obs&#45;cpt/Observation/observedProperty&#45;con</title>
<polygon fill="none" stroke="black" stroke-dasharray="1,5" points="1118.5,-1910 765.5,-1910 765.5,-1874 1118.5,-1874 1118.5,-1910"/>
<text text-anchor="middle" x="942" y="-1888.3" font-family="Times,serif" font-size="14.00">/rec/obs&#45;cpt/Observation/observedProperty&#45;con</text>
</g>
<!-- /rec/obs&#45;cpt/Observation/procedure&#45;con -->
<g id="node35" class="node">
<title>/rec/obs&#45;cpt/Observation/procedure&#45;con</title>
<polygon fill="none" stroke="black" stroke-dasharray="1,5" points="1091,-1856 793,-1856 793,-1820 1091,-1820 1091,-1856"/>
<text text-anchor="middle" x="942" y="-1834.3" font-family="Times,serif" font-size="14.00">/rec/obs&#45;cpt/Observation/procedure&#45;con</text>
</g>
<!-- /rec/obs&#45;cpt/Observation/result&#45;con -->
<g id="node36" class="node">
<title>/rec/obs&#45;cpt/Observation/result&#45;con</title>
<polygon fill="none" stroke="black" stroke-dasharray="1,5" points="1075.5,-1802 808.5,-1802 808.5,-1766 1075.5,-1766 1075.5,-1802"/>
<text text-anchor="middle" x="942" y="-1780.3" font-family="Times,serif" font-size="14.00">/rec/obs&#45;cpt/Observation/result&#45;con</text>
</g>
<!-- /rec/obs&#45;cpt/Observation/phenomenonTimeResult&#45;con -->
<g id="node37" class="node">
<title>/rec/obs&#45;cpt/Observation/phenomenonTimeResult&#45;con</title>
<polygon fill="none" stroke="black" stroke-dasharray="1,5" points="1141,-1748 743,-1748 743,-1712 1141,-1712 1141,-1748"/>
<text text-anchor="middle" x="942" y="-1726.3" font-family="Times,serif" font-size="14.00">/rec/obs&#45;cpt/Observation/phenomenonTimeResult&#45;con</text>
</g>
<!-- /req/obs&#45;cpt -->
<g id="node38" class="node">
<title>/req/obs&#45;cpt</title>
<polygon fill="none" stroke="black" points="3,-639 3,-660 303,-660 303,-639 3,-639"/>
<text text-anchor="start" x="110.5" y="-645.8" font-family="Times,serif" font-size="14.00">/req/obs&#45;cpt</text>
<polygon fill="none" stroke="black" points="3,-616 3,-637 303,-637 303,-616 3,-616"/>
<text text-anchor="start" x="6" y="-622.8" font-family="Times,serif" font-size="14.00">Conceptual Observation schema package</text>
<polygon fill="none" stroke="black" points="3,-593 3,-614 303,-614 303,-593 3,-593"/>
<text text-anchor="start" x="88.5" y="-599.8" font-family="Times,serif" font-size="14.00">Conceptual model</text>
<polygon fill="none" stroke="black" points="0,-590.5 0,-663.5 306,-663.5 306,-590.5 0,-590.5"/>
</g>
<!-- /req/obs&#45;cpt/Observation -->
<g id="node39" class="node">
<title>/req/obs&#45;cpt/Observation</title>
<polygon fill="none" stroke="black" points="375.5,-1418 375.5,-1439 654.5,-1439 654.5,-1418 375.5,-1418"/>
<text text-anchor="start" x="426.5" y="-1424.8" font-family="Times,serif" font-size="14.00">/req/obs&#45;cpt/Observation</text>
<polygon fill="none" stroke="black" points="375.5,-1395 375.5,-1416 654.5,-1416 654.5,-1395 375.5,-1395"/>
<text text-anchor="start" x="378.5" y="-1401.8" font-family="Times,serif" font-size="14.00">Conceptual Observation &#45; Observation</text>
<polygon fill="none" stroke="black" points="375.5,-1372 375.5,-1393 654.5,-1393 654.5,-1372 375.5,-1372"/>
<text text-anchor="start" x="450.5" y="-1378.8" font-family="Times,serif" font-size="14.00">Conceptual model</text>
<polygon fill="none" stroke="black" points="372,-1369.5 372,-1442.5 657,-1442.5 657,-1369.5 372,-1369.5"/>
</g>
<!-- /req/obs&#45;cpt&#45;&gt;/req/obs&#45;cpt/Observation -->
<g id="edge1" class="edge">
<title>/req/obs&#45;cpt&#45;&gt;/req/obs&#45;cpt/Observation</title>
<path fill="none" stroke="black" stroke-dasharray="5,2" d="M170.86,-663.53C229.82,-791.29 426.76,-1218.04 492.17,-1359.79"/>
<polygon fill="black" stroke="black" points="489.1,-1361.49 496.47,-1369.1 495.46,-1358.55 489.1,-1361.49"/>
</g>
<!-- /req/obs&#45;cpt/ObservableProperty -->
<g id="node40" class="node">
<title>/req/obs&#45;cpt/ObservableProperty</title>
<polygon fill="none" stroke="black" points="346.5,-805 346.5,-826 682.5,-826 682.5,-805 346.5,-805"/>
<text text-anchor="start" x="397.5" y="-811.8" font-family="Times,serif" font-size="14.00">/req/obs&#45;cpt/ObservableProperty</text>
<polygon fill="none" stroke="black" points="346.5,-782 346.5,-803 682.5,-803 682.5,-782 346.5,-782"/>
<text text-anchor="start" x="349.5" y="-788.8" font-family="Times,serif" font-size="14.00">Conceptual Observation &#45; ObservableProperty</text>
<polygon fill="none" stroke="black" points="346.5,-759 346.5,-780 682.5,-780 682.5,-759 346.5,-759"/>
<text text-anchor="start" x="450" y="-765.8" font-family="Times,serif" font-size="14.00">Conceptual model</text>
<polygon fill="none" stroke="black" points="343.5,-756.5 343.5,-829.5 685.5,-829.5 685.5,-756.5 343.5,-756.5"/>
</g>
<!-- /req/obs&#45;cpt&#45;&gt;/req/obs&#45;cpt/ObservableProperty -->
<g id="edge2" class="edge">
<title>/req/obs&#45;cpt&#45;&gt;/req/obs&#45;cpt/ObservableProperty</title>
<path fill="none" stroke="black" stroke-dasharray="5,2" d="M226.42,-663.59C279.38,-690.36 342,-722 342,-722 342,-722 377.33,-736.62 415.91,-752.6"/>
<polygon fill="black" stroke="black" points="414.66,-755.87 425.24,-756.46 417.34,-749.4 414.66,-755.87"/>
</g>
<!-- /req/obs&#45;cpt/Procedure -->
<g id="node41" class="node">
<title>/req/obs&#45;cpt/Procedure</title>
<polygon fill="none" stroke="black" points="810,-751 810,-772 1075,-772 1075,-751 810,-751"/>
<text text-anchor="start" x="861" y="-757.8" font-family="Times,serif" font-size="14.00">/req/obs&#45;cpt/Procedure</text>
<polygon fill="none" stroke="black" points="810,-728 810,-749 1075,-749 1075,-728 810,-728"/>
<text text-anchor="start" x="813" y="-734.8" font-family="Times,serif" font-size="14.00">Conceptual Observation &#45; Procedure</text>
<polygon fill="none" stroke="black" points="810,-705 810,-726 1075,-726 1075,-705 810,-705"/>
<text text-anchor="start" x="878" y="-711.8" font-family="Times,serif" font-size="14.00">Conceptual model</text>
<polygon fill="none" stroke="black" points="806.5,-702.5 806.5,-775.5 1077.5,-775.5 1077.5,-702.5 806.5,-702.5"/>
</g>
<!-- /req/obs&#45;cpt&#45;&gt;/req/obs&#45;cpt/Procedure -->
<g id="edge3" class="edge">
<title>/req/obs&#45;cpt&#45;&gt;/req/obs&#45;cpt/Procedure</title>
<path fill="none" stroke="black" stroke-dasharray="5,2" d="M303.5,-663.58C326.08,-669.1 342,-673 342,-673 342,-673 618.99,-703.52 796.26,-723.05"/>
<polygon fill="black" stroke="black" points="795.88,-726.53 806.2,-724.15 796.64,-719.57 795.88,-726.53"/>
</g>
<!-- /req/obs&#45;cpt/ObservingProcedure -->
<g id="node42" class="node">
<title>/req/obs&#45;cpt/ObservingProcedure</title>
<polygon fill="none" stroke="black" points="345.5,-639 345.5,-660 684.5,-660 684.5,-639 345.5,-639"/>
<text text-anchor="start" x="396.5" y="-645.8" font-family="Times,serif" font-size="14.00">/req/obs&#45;cpt/ObservingProcedure</text>
<polygon fill="none" stroke="black" points="345.5,-616 345.5,-637 684.5,-637 684.5,-616 345.5,-616"/>
<text text-anchor="start" x="348.5" y="-622.8" font-family="Times,serif" font-size="14.00">Conceptual Observation &#45; ObservingProcedure</text>
<polygon fill="none" stroke="black" points="345.5,-593 345.5,-614 684.5,-614 684.5,-593 345.5,-593"/>
<text text-anchor="start" x="450.5" y="-599.8" font-family="Times,serif" font-size="14.00">Conceptual model</text>
<polygon fill="none" stroke="black" points="342,-590.5 342,-663.5 687,-663.5 687,-590.5 342,-590.5"/>
</g>
<!-- /req/obs&#45;cpt&#45;&gt;/req/obs&#45;cpt/ObservingProcedure -->
<g id="edge4" class="edge">
<title>/req/obs&#45;cpt&#45;&gt;/req/obs&#45;cpt/ObservingProcedure</title>
<path fill="none" stroke="black" stroke-dasharray="5,2" d="M306.2,-627C314.66,-627 323.21,-627 331.77,-627"/>
<polygon fill="black" stroke="black" points="331.81,-630.5 341.81,-627 331.81,-623.5 331.81,-630.5"/>
</g>
<!-- /req/obs&#45;cpt/Observer -->
<g id="node43" class="node">
<title>/req/obs&#45;cpt/Observer</title>
<polygon fill="none" stroke="black" points="385.5,-489 385.5,-510 643.5,-510 643.5,-489 385.5,-489"/>
<text text-anchor="start" x="436.5" y="-495.8" font-family="Times,serif" font-size="14.00">/req/obs&#45;cpt/Observer</text>
<polygon fill="none" stroke="black" points="385.5,-466 385.5,-487 643.5,-487 643.5,-466 385.5,-466"/>
<text text-anchor="start" x="388.5" y="-472.8" font-family="Times,serif" font-size="14.00">Conceptual Observation &#45; Observer</text>
<polygon fill="none" stroke="black" points="385.5,-443 385.5,-464 643.5,-464 643.5,-443 385.5,-443"/>
<text text-anchor="start" x="450" y="-449.8" font-family="Times,serif" font-size="14.00">Conceptual model</text>
<polygon fill="none" stroke="black" points="382.5,-440.5 382.5,-513.5 646.5,-513.5 646.5,-440.5 382.5,-440.5"/>
</g>
<!-- /req/obs&#45;cpt&#45;&gt;/req/obs&#45;cpt/Observer -->
<g id="edge5" class="edge">
<title>/req/obs&#45;cpt&#45;&gt;/req/obs&#45;cpt/Observer</title>
<path fill="none" stroke="black" stroke-dasharray="5,2" d="M241.48,-590.5C294.43,-568.4 362.04,-540.2 416.6,-517.43"/>
<polygon fill="black" stroke="black" points="418.05,-520.62 425.94,-513.54 415.36,-514.16 418.05,-520.62"/>
</g>
<!-- /req/obs&#45;cpt/Host -->
<g id="node44" class="node">
<title>/req/obs&#45;cpt/Host</title>
<polygon fill="none" stroke="black" points="401.5,-300 401.5,-321 627.5,-321 627.5,-300 401.5,-300"/>
<text text-anchor="start" x="452.5" y="-306.8" font-family="Times,serif" font-size="14.00">/req/obs&#45;cpt/Host</text>
<polygon fill="none" stroke="black" points="401.5,-277 401.5,-298 627.5,-298 627.5,-277 401.5,-277"/>
<text text-anchor="start" x="404.5" y="-283.8" font-family="Times,serif" font-size="14.00">Conceptual Observation &#45; Host</text>
<polygon fill="none" stroke="black" points="401.5,-254 401.5,-275 627.5,-275 627.5,-254 401.5,-254"/>
<text text-anchor="start" x="450" y="-260.8" font-family="Times,serif" font-size="14.00">Conceptual model</text>
<polygon fill="none" stroke="black" points="398.5,-251.5 398.5,-324.5 630.5,-324.5 630.5,-251.5 398.5,-251.5"/>
</g>
<!-- /req/obs&#45;cpt&#45;&gt;/req/obs&#45;cpt/Host -->
<g id="edge6" class="edge">
<title>/req/obs&#45;cpt&#45;&gt;/req/obs&#45;cpt/Host</title>
<path fill="none" stroke="black" stroke-dasharray="5,2" d="M189.36,-590.32C243.82,-533.84 342,-432 342,-432 342,-432 411.35,-373.77 461.85,-331.37"/>
<polygon fill="black" stroke="black" points="464.37,-333.82 469.78,-324.71 459.87,-328.46 464.37,-333.82"/>
</g>
<!-- /req/obs&#45;cpt/Deployment -->
<g id="node45" class="node">
<title>/req/obs&#45;cpt/Deployment</title>
<polygon fill="none" stroke="black" points="375.5,-111 375.5,-132 653.5,-132 653.5,-111 375.5,-111"/>
<text text-anchor="start" x="426.5" y="-117.8" font-family="Times,serif" font-size="14.00">/req/obs&#45;cpt/Deployment</text>
<polygon fill="none" stroke="black" points="375.5,-88 375.5,-109 653.5,-109 653.5,-88 375.5,-88"/>
<text text-anchor="start" x="378.5" y="-94.8" font-family="Times,serif" font-size="14.00">Conceptual Observation &#45; Deployment</text>
<polygon fill="none" stroke="black" points="375.5,-65 375.5,-86 653.5,-86 653.5,-65 375.5,-65"/>
<text text-anchor="start" x="450" y="-71.8" font-family="Times,serif" font-size="14.00">Conceptual model</text>
<polygon fill="none" stroke="black" points="372.5,-62.5 372.5,-135.5 656.5,-135.5 656.5,-62.5 372.5,-62.5"/>
</g>
<!-- /req/obs&#45;cpt&#45;&gt;/req/obs&#45;cpt/Deployment -->
<g id="edge7" class="edge">
<title>/req/obs&#45;cpt&#45;&gt;/req/obs&#45;cpt/Deployment</title>
<path fill="none" stroke="black" stroke-dasharray="5,2" d="M172.03,-590.18C219.08,-494.07 342,-243 342,-243 342,-243 411.35,-184.77 461.85,-142.37"/>
<polygon fill="black" stroke="black" points="464.37,-144.82 469.78,-135.71 459.87,-139.46 464.37,-144.82"/>
</g>
<!-- /req/obs&#45;cpt/Observation&#45;&gt;/req/obs&#45;cpt/Observation/Observation&#45;sem -->
<g id="edge8" class="edge">
<title>/req/obs&#45;cpt/Observation&#45;&gt;/req/obs&#45;cpt/Observation/Observation&#45;sem</title>
<path fill="none" stroke="black" d="M546.79,-1442.64C604.76,-1510.53 723,-1649 723,-1649 723,-1649 750.24,-1652.37 785.46,-1656.74"/>
<polygon fill="black" stroke="black" points="785.24,-1660.23 795.59,-1657.99 786.1,-1653.29 785.24,-1660.23"/>
</g>
<!-- /req/obs&#45;cpt/Observation&#45;&gt;/req/obs&#45;cpt/Observation/phenomenonTime&#45;sem -->
<g id="edge9" class="edge">
<title>/req/obs&#45;cpt/Observation&#45;&gt;/req/obs&#45;cpt/Observation/phenomenonTime&#45;sem</title>
<path fill="none" stroke="black" d="M556,-1442.89C616.39,-1497.89 723,-1595 723,-1595 723,-1595 750.24,-1598.37 785.46,-1602.74"/>
<polygon fill="black" stroke="black" points="785.24,-1606.23 795.59,-1603.99 786.1,-1599.29 785.24,-1606.23"/>
</g>
<!-- /req/obs&#45;cpt/Observation&#45;&gt;/req/obs&#45;cpt/Observation/phenomenonTime&#45;card -->
<g id="edge10" class="edge">
<title>/req/obs&#45;cpt/Observation&#45;&gt;/req/obs&#45;cpt/Observation/phenomenonTime&#45;card</title>
<path fill="none" stroke="black" d="M571.65,-1442.53C633.1,-1482.51 723,-1541 723,-1541 723,-1541 750.24,-1544.37 785.46,-1548.74"/>
<polygon fill="black" stroke="black" points="785.24,-1552.23 795.59,-1549.99 786.1,-1545.29 785.24,-1552.23"/>
</g>
<!-- /req/obs&#45;cpt/Observation&#45;&gt;/req/obs&#45;cpt/Observation/resultTime&#45;sem -->
<g id="edge11" class="edge">
<title>/req/obs&#45;cpt/Observation&#45;&gt;/req/obs&#45;cpt/Observation/resultTime&#45;sem</title>
<path fill="none" stroke="black" d="M609.23,-1442.59C664.22,-1464.06 723,-1487 723,-1487 723,-1487 750.24,-1490.37 785.46,-1494.74"/>
<polygon fill="black" stroke="black" points="785.24,-1498.23 795.59,-1495.99 786.1,-1491.29 785.24,-1498.23"/>
</g>
<!-- /req/obs&#45;cpt/Observation&#45;&gt;/req/obs&#45;cpt/Observation/resultTime&#45;card -->
<g id="edge12" class="edge">
<title>/req/obs&#45;cpt/Observation&#45;&gt;/req/obs&#45;cpt/Observation/resultTime&#45;card</title>
<path fill="none" stroke="black" d="M657.06,-1424.42C693.67,-1429.18 723,-1433 723,-1433 723,-1433 750.24,-1436.37 785.46,-1440.74"/>
<polygon fill="black" stroke="black" points="785.24,-1444.23 795.59,-1441.99 786.1,-1437.29 785.24,-1444.23"/>
</g>
<!-- /req/obs&#45;cpt/Observation&#45;&gt;/req/obs&#45;cpt/Observation/validTime&#45;sem -->
<g id="edge13" class="edge">
<title>/req/obs&#45;cpt/Observation&#45;&gt;/req/obs&#45;cpt/Observation/validTime&#45;sem</title>
<path fill="none" stroke="black" d="M657.19,-1406C696.94,-1406 740.43,-1406 781.17,-1406"/>
<polygon fill="black" stroke="black" points="781.18,-1409.5 791.18,-1406 781.18,-1402.5 781.18,-1409.5"/>
</g>
<!-- /req/obs&#45;cpt/Observation&#45;&gt;/req/obs&#45;cpt/Observation/featureOfInterest&#45;sem -->
<g id="edge14" class="edge">
<title>/req/obs&#45;cpt/Observation&#45;&gt;/req/obs&#45;cpt/Observation/featureOfInterest&#45;sem</title>
<path fill="none" stroke="black" d="M657.06,-1387.58C693.67,-1382.82 723,-1379 723,-1379 723,-1379 750.24,-1375.63 785.46,-1371.26"/>
<polygon fill="black" stroke="black" points="786.1,-1374.71 795.59,-1370.01 785.24,-1367.77 786.1,-1374.71"/>
</g>
<!-- /req/obs&#45;cpt/Observation&#45;&gt;/req/obs&#45;cpt/Observation/featureOfInterest&#45;card -->
<g id="edge15" class="edge">
<title>/req/obs&#45;cpt/Observation&#45;&gt;/req/obs&#45;cpt/Observation/featureOfInterest&#45;card</title>
<path fill="none" stroke="black" d="M609.23,-1369.41C664.22,-1347.94 723,-1325 723,-1325 723,-1325 750.24,-1321.63 785.46,-1317.26"/>
<polygon fill="black" stroke="black" points="786.1,-1320.71 795.59,-1316.01 785.24,-1313.77 786.1,-1320.71"/>
</g>
<!-- /req/obs&#45;cpt/Observation&#45;&gt;/req/obs&#45;cpt/Observation/observedProperty&#45;sem -->
<g id="edge16" class="edge">
<title>/req/obs&#45;cpt/Observation&#45;&gt;/req/obs&#45;cpt/Observation/observedProperty&#45;sem</title>
<path fill="none" stroke="black" d="M571.65,-1369.47C633.1,-1329.49 723,-1271 723,-1271 723,-1271 750.24,-1267.63 785.46,-1263.26"/>
<polygon fill="black" stroke="black" points="786.1,-1266.71 795.59,-1262.01 785.24,-1259.77 786.1,-1266.71"/>
</g>
<!-- /req/obs&#45;cpt/Observation&#45;&gt;/req/obs&#45;cpt/Observation/observedProperty&#45;card -->
<g id="edge17" class="edge">
<title>/req/obs&#45;cpt/Observation&#45;&gt;/req/obs&#45;cpt/Observation/observedProperty&#45;card</title>
<path fill="none" stroke="black" d="M556,-1369.11C616.39,-1314.11 723,-1217 723,-1217 723,-1217 750.24,-1213.63 785.46,-1209.26"/>
<polygon fill="black" stroke="black" points="786.1,-1212.71 795.59,-1208.01 785.24,-1205.77 786.1,-1212.71"/>
</g>
<!-- /req/obs&#45;cpt/Observation&#45;&gt;/req/obs&#45;cpt/Observation/result&#45;sem -->
<g id="edge18" class="edge">
<title>/req/obs&#45;cpt/Observation&#45;&gt;/req/obs&#45;cpt/Observation/result&#45;sem</title>
<path fill="none" stroke="black" d="M546.79,-1369.36C604.76,-1301.47 723,-1163 723,-1163 723,-1163 755.5,-1158.97 795.41,-1154.03"/>
<polygon fill="black" stroke="black" points="795.92,-1157.5 805.42,-1152.79 795.06,-1150.55 795.92,-1157.5"/>
</g>
<!-- /req/obs&#45;cpt/Observation&#45;&gt;/req/obs&#45;cpt/Observation/result&#45;card -->
<g id="edge19" class="edge">
<title>/req/obs&#45;cpt/Observation&#45;&gt;/req/obs&#45;cpt/Observation/result&#45;card</title>
<path fill="none" stroke="black" d="M541.15,-1369.28C596.67,-1289.82 723,-1109 723,-1109 723,-1109 754.91,-1105.05 794.32,-1100.17"/>
<polygon fill="black" stroke="black" points="794.99,-1103.61 804.49,-1098.91 794.13,-1096.66 794.99,-1103.61"/>
</g>
<!-- /req/obs&#45;cpt/Observation&#45;&gt;/req/obs&#45;cpt/Observation/procedure&#45;sem -->
<g id="edge20" class="edge">
<title>/req/obs&#45;cpt/Observation&#45;&gt;/req/obs&#45;cpt/Observation/procedure&#45;sem</title>
<path fill="none" stroke="black" d="M537.12,-1369.43C590.26,-1279.53 723,-1055 723,-1055 723,-1055 750.24,-1051.63 785.46,-1047.26"/>
<polygon fill="black" stroke="black" points="786.1,-1050.71 795.59,-1046.01 785.24,-1043.77 786.1,-1050.71"/>
</g>
<!-- /req/obs&#45;cpt/Observation&#45;&gt;/req/obs&#45;cpt/Observation/procedure&#45;card -->
<g id="edge21" class="edge">
<title>/req/obs&#45;cpt/Observation&#45;&gt;/req/obs&#45;cpt/Observation/procedure&#45;card</title>
<path fill="none" stroke="black" d="M534.28,-1369.34C585.36,-1269.65 723,-1001 723,-1001 723,-1001 750.24,-997.63 785.46,-993.26"/>
<polygon fill="black" stroke="black" points="786.1,-996.71 795.59,-992.01 785.24,-989.77 786.1,-996.71"/>
</g>
<!-- /req/obs&#45;cpt/Observation&#45;&gt;/req/obs&#45;cpt/Observation/observer&#45;sem -->
<g id="edge22" class="edge">
<title>/req/obs&#45;cpt/Observation&#45;&gt;/req/obs&#45;cpt/Observation/observer&#45;sem</title>
<path fill="none" stroke="black" d="M532.13,-1369.21C581.37,-1260.3 723,-947 723,-947 723,-947 750.24,-943.63 785.46,-939.26"/>
<polygon fill="black" stroke="black" points="786.1,-942.71 795.59,-938.01 785.24,-935.77 786.1,-942.71"/>
</g>
<!-- /req/obs&#45;cpt/Observation&#45;&gt;/req/obs&#45;cpt/Observation/host&#45;sem -->
<g id="edge23" class="edge">
<title>/req/obs&#45;cpt/Observation&#45;&gt;/req/obs&#45;cpt/Observation/host&#45;sem</title>
<path fill="none" stroke="black" d="M528.95,-1442.77C574.94,-1568.41 723,-1973 723,-1973 723,-1973 758.43,-1977.39 800.73,-1982.63"/>
<polygon fill="black" stroke="black" points="800.37,-1986.11 810.73,-1983.87 801.23,-1979.16 800.37,-1986.11"/>
</g>
<!-- /req/obs&#45;cpt/Observation&#45;&gt;/req/obs&#45;cpt/gen/relatedObservation&#45;sem -->
<g id="edge24" class="edge">
<title>/req/obs&#45;cpt/Observation&#45;&gt;/req/obs&#45;cpt/gen/relatedObservation&#45;sem</title>
<path fill="none" stroke="black" d="M526.62,-1369.23C564.62,-1243.59 687,-839 687,-839 687,-839 723,-694 723,-694 723,-694 752.88,-690.16 790.52,-685.33"/>
<polygon fill="black" stroke="black" points="791.31,-688.76 800.78,-684.01 790.42,-681.81 791.31,-688.76"/>
</g>
<!-- /req/obs&#45;cpt/Observation&#45;&gt;/rec/obs&#45;cpt/Observation/observerhost&#45;con -->
<g id="edge25" class="edge">
<title>/req/obs&#45;cpt/Observation&#45;&gt;/rec/obs&#45;cpt/Observation/observerhost&#45;con</title>
<path fill="none" stroke="black" stroke-dasharray="1,5" d="M530.42,-1442.89C578,-1560.52 723,-1919 723,-1919 723,-1919 750.24,-1922.37 785.46,-1926.74"/>
<polygon fill="black" stroke="black" points="785.24,-1930.23 795.59,-1927.99 786.1,-1923.29 785.24,-1930.23"/>
</g>
<!-- /req/obs&#45;cpt/Observation&#45;&gt;/rec/obs&#45;cpt/Observation/observedProperty&#45;con -->
<g id="edge26" class="edge">
<title>/req/obs&#45;cpt/Observation&#45;&gt;/rec/obs&#45;cpt/Observation/observedProperty&#45;con</title>
<path fill="none" stroke="black" stroke-dasharray="1,5" d="M532.13,-1442.79C581.37,-1551.7 723,-1865 723,-1865 723,-1865 750.24,-1868.37 785.46,-1872.74"/>
<polygon fill="black" stroke="black" points="785.24,-1876.23 795.59,-1873.99 786.1,-1869.29 785.24,-1876.23"/>
</g>
<!-- /req/obs&#45;cpt/Observation&#45;&gt;/rec/obs&#45;cpt/Observation/procedure&#45;con -->
<g id="edge27" class="edge">
<title>/req/obs&#45;cpt/Observation&#45;&gt;/rec/obs&#45;cpt/Observation/procedure&#45;con</title>
<path fill="none" stroke="black" stroke-dasharray="1,5" d="M534.28,-1442.66C585.36,-1542.35 723,-1811 723,-1811 723,-1811 750.24,-1814.37 785.46,-1818.74"/>
<polygon fill="black" stroke="black" points="785.24,-1822.23 795.59,-1819.99 786.1,-1815.29 785.24,-1822.23"/>
</g>
<!-- /req/obs&#45;cpt/Observation&#45;&gt;/rec/obs&#45;cpt/Observation/result&#45;con -->
<g id="edge28" class="edge">
<title>/req/obs&#45;cpt/Observation&#45;&gt;/rec/obs&#45;cpt/Observation/result&#45;con</title>
<path fill="none" stroke="black" stroke-dasharray="1,5" d="M537.12,-1442.57C590.26,-1532.47 723,-1757 723,-1757 723,-1757 757.03,-1761.21 798.2,-1766.31"/>
<polygon fill="black" stroke="black" points="797.87,-1769.8 808.22,-1767.55 798.73,-1762.85 797.87,-1769.8"/>
</g>
<!-- /req/obs&#45;cpt/Observation&#45;&gt;/rec/obs&#45;cpt/Observation/phenomenonTimeResult&#45;con -->
<g id="edge29" class="edge">
<title>/req/obs&#45;cpt/Observation&#45;&gt;/rec/obs&#45;cpt/Observation/phenomenonTimeResult&#45;con</title>
<path fill="none" stroke="black" stroke-dasharray="1,5" d="M541.15,-1442.72C596.67,-1522.18 723,-1703 723,-1703 723,-1703 750.24,-1706.37 785.46,-1710.74"/>
<polygon fill="black" stroke="black" points="785.24,-1714.23 795.59,-1711.99 786.1,-1707.29 785.24,-1714.23"/>
</g>
<!-- /req/obs&#45;cpt/ObservableProperty&#45;&gt;/req/obs&#45;cpt/gen/relatedObservation&#45;sem -->
<g id="edge32" class="edge">
<title>/req/obs&#45;cpt/ObservableProperty&#45;&gt;/req/obs&#45;cpt/gen/relatedObservation&#45;sem</title>
<path fill="none" stroke="black" d="M592.18,-756.42C651.28,-728.22 723,-694 723,-694 723,-694 752.88,-690.16 790.52,-685.33"/>
<polygon fill="black" stroke="black" points="791.31,-688.76 800.78,-684.01 790.42,-681.81 791.31,-688.76"/>
</g>
<!-- /req/obs&#45;cpt/ObservableProperty&#45;&gt;/req/obs&#45;cpt/ObservableProperty/ObservableProperty&#45;sem -->
<g id="edge30" class="edge">
<title>/req/obs&#45;cpt/ObservableProperty&#45;&gt;/req/obs&#45;cpt/ObservableProperty/ObservableProperty&#45;sem</title>
<path fill="none" stroke="black" d="M685.5,-800.59C695.49,-801.04 705.6,-801.49 715.75,-801.94"/>
<polygon fill="black" stroke="black" points="715.77,-805.45 725.91,-802.4 716.08,-798.45 715.77,-805.45"/>
</g>
<!-- /req/obs&#45;cpt/ObservableProperty&#45;&gt;/req/obs&#45;cpt/ObservableProperty/observer&#45;sem -->
<g id="edge31" class="edge">
<title>/req/obs&#45;cpt/ObservableProperty&#45;&gt;/req/obs&#45;cpt/ObservableProperty/observer&#45;sem</title>
<path fill="none" stroke="black" d="M680.26,-829.52C705.31,-835.08 723,-839 723,-839 723,-839 750.24,-842.37 785.46,-846.74"/>
<polygon fill="black" stroke="black" points="785.24,-850.23 795.59,-847.99 786.1,-843.29 785.24,-850.23"/>
</g>
<!-- /req/obs&#45;cpt/Procedure&#45;&gt;/req/obs&#45;cpt/Procedure/Procedure&#45;sem -->
<g id="edge33" class="edge">
<title>/req/obs&#45;cpt/Procedure&#45;&gt;/req/obs&#45;cpt/Procedure/Procedure&#45;sem</title>
<path fill="none" stroke="black" d="M1077.64,-739C1112.74,-739 1150.83,-739 1186.88,-739"/>
<polygon fill="black" stroke="black" points="1186.99,-742.5 1196.99,-739 1186.99,-735.5 1186.99,-742.5"/>
</g>
<!-- /req/obs&#45;cpt/ObservingProcedure&#45;&gt;/req/obs&#45;cpt/gen/relatedObservation&#45;sem -->
<g id="edge36" class="edge">
<title>/req/obs&#45;cpt/ObservingProcedure&#45;&gt;/req/obs&#45;cpt/gen/relatedObservation&#45;sem</title>
<path fill="none" stroke="black" d="M687.03,-642.72C717,-645.47 748.09,-648.32 777.82,-651.04"/>
<polygon fill="black" stroke="black" points="777.57,-654.53 787.85,-651.96 778.21,-647.56 777.57,-654.53"/>
</g>
<!-- /req/obs&#45;cpt/ObservingProcedure&#45;&gt;/req/obs&#45;cpt/ObservingProcedure/ObservingProcedure&#45;sem -->
<g id="edge34" class="edge">
<title>/req/obs&#45;cpt/ObservingProcedure&#45;&gt;/req/obs&#45;cpt/ObservingProcedure/ObservingProcedure&#45;sem</title>
<path fill="none" stroke="black" d="M687.33,-592.22C708.57,-587.92 723,-585 723,-585 723,-585 750.24,-581.63 785.46,-577.26"/>
<polygon fill="black" stroke="black" points="786.1,-580.71 795.59,-576.01 785.24,-573.77 786.1,-580.71"/>
</g>
<!-- /req/obs&#45;cpt/ObservingProcedure&#45;&gt;/req/obs&#45;cpt/ObservingProcedure/observer&#45;sem -->
<g id="edge35" class="edge">
<title>/req/obs&#45;cpt/ObservingProcedure&#45;&gt;/req/obs&#45;cpt/ObservingProcedure/observer&#45;sem</title>
<path fill="none" stroke="black" d="M687.03,-620.95C709.25,-620.17 732.09,-619.36 754.53,-618.57"/>
<polygon fill="black" stroke="black" points="754.94,-622.06 764.81,-618.21 754.69,-615.07 754.94,-622.06"/>
</g>
<!-- /req/obs&#45;cpt/ObservingProcedure&#45;&gt;/req/obs&#45;cpt/Procedure -->
<g id="edge37" class="edge">
<title>/req/obs&#45;cpt/ObservingProcedure&#45;&gt;/req/obs&#45;cpt/Procedure</title>
<path fill="none" stroke="black" stroke-dasharray="5,2" d="M630.48,-663.57C678.35,-678.8 723,-693 723,-693 723,-693 756.1,-699.98 796.5,-708.51"/>
<polygon fill="black" stroke="black" points="795.84,-711.95 806.35,-710.59 797.29,-705.1 795.84,-711.95"/>
</g>
<!-- /req/obs&#45;cpt/Observer&#45;&gt;/req/obs&#45;cpt/gen/relatedObservation&#45;sem -->
<g id="edge42" class="edge">
<title>/req/obs&#45;cpt/Observer&#45;&gt;/req/obs&#45;cpt/gen/relatedObservation&#45;sem</title>
<path fill="none" stroke="black" d="M575.48,-513.72C624.94,-544 687,-582 687,-582 687,-582 723,-639 723,-639 723,-639 750.24,-642.37 785.46,-646.74"/>
<polygon fill="black" stroke="black" points="785.24,-650.23 795.59,-647.99 786.1,-643.29 785.24,-650.23"/>
</g>
<!-- /req/obs&#45;cpt/Observer&#45;&gt;/req/obs&#45;cpt/Observer/Observer&#45;sem -->
<g id="edge38" class="edge">
<title>/req/obs&#45;cpt/Observer&#45;&gt;/req/obs&#45;cpt/Observer/Observer&#45;sem</title>
<path fill="none" stroke="black" d="M585.75,-440.44C645.95,-409.1 723,-369 723,-369 723,-369 754.61,-365.08 793.76,-360.24"/>
<polygon fill="black" stroke="black" points="794.37,-363.69 803.87,-358.98 793.51,-356.74 794.37,-363.69"/>
</g>
<!-- /req/obs&#45;cpt/Observer&#45;&gt;/req/obs&#45;cpt/Observer/observableProperty&#45;sem -->
<g id="edge39" class="edge">
<title>/req/obs&#45;cpt/Observer&#45;&gt;/req/obs&#45;cpt/Observer/observableProperty&#45;sem</title>
<path fill="none" stroke="black" d="M646.64,-485.32C681.23,-487.52 719.22,-489.93 756.08,-492.27"/>
<polygon fill="black" stroke="black" points="756.24,-495.78 766.44,-492.92 756.68,-488.8 756.24,-495.78"/>
</g>
<!-- /req/obs&#45;cpt/Observer&#45;&gt;/req/obs&#45;cpt/Observer/observingProcedure&#45;sem -->
<g id="edge40" class="edge">
<title>/req/obs&#45;cpt/Observer&#45;&gt;/req/obs&#45;cpt/Observer/observingProcedure&#45;sem</title>
<path fill="none" stroke="black" d="M646.64,-468.68C680.79,-466.51 718.24,-464.14 754.65,-461.82"/>
<polygon fill="black" stroke="black" points="755.13,-465.3 764.89,-461.18 754.69,-458.32 755.13,-465.3"/>
</g>
<!-- /req/obs&#45;cpt/Observer&#45;&gt;/req/obs&#45;cpt/Observer/deployment&#45;sem -->
<g id="edge41" class="edge">
<title>/req/obs&#45;cpt/Observer&#45;&gt;/req/obs&#45;cpt/Observer/deployment&#45;sem</title>
<path fill="none" stroke="black" d="M646.62,-442.88C687.93,-432.13 723,-423 723,-423 723,-423 750.24,-419.63 785.46,-415.26"/>
<polygon fill="black" stroke="black" points="786.1,-418.71 795.59,-414.01 785.24,-411.77 786.1,-418.71"/>
</g>
<!-- /req/obs&#45;cpt/Host&#45;&gt;/req/obs&#45;cpt/gen/relatedObservation&#45;sem -->
<g id="edge46" class="edge">
<title>/req/obs&#45;cpt/Host&#45;&gt;/req/obs&#45;cpt/gen/relatedObservation&#45;sem</title>
<path fill="none" stroke="black" d="M559.22,-324.71C610.03,-367.37 687,-432 687,-432 687,-432 723,-639 723,-639 723,-639 750.24,-642.37 785.46,-646.74"/>
<polygon fill="black" stroke="black" points="785.24,-650.23 795.59,-647.99 786.1,-643.29 785.24,-650.23"/>
</g>
<!-- /req/obs&#45;cpt/Host&#45;&gt;/req/obs&#45;cpt/Host/Host&#45;sem -->
<g id="edge43" class="edge">
<title>/req/obs&#45;cpt/Host&#45;&gt;/req/obs&#45;cpt/Host/Host&#45;sem</title>
<path fill="none" stroke="black" d="M630.65,-288C691.14,-288 765.07,-288 825.6,-288"/>
<polygon fill="black" stroke="black" points="825.97,-291.5 835.97,-288 825.97,-284.5 825.97,-291.5"/>
</g>
<!-- /req/obs&#45;cpt/Host&#45;&gt;/req/obs&#45;cpt/Host/deployment&#45;sem -->
<g id="edge44" class="edge">
<title>/req/obs&#45;cpt/Host&#45;&gt;/req/obs&#45;cpt/Host/deployment&#45;sem</title>
<path fill="none" stroke="black" d="M630.78,-273C678.54,-266.79 723,-261 723,-261 723,-261 758.43,-256.61 800.73,-251.37"/>
<polygon fill="black" stroke="black" points="801.23,-254.84 810.73,-250.13 800.37,-247.89 801.23,-254.84"/>
</g>
<!-- /req/obs&#45;cpt/Host&#45;&gt;/req/obs&#45;cpt/Host/relatedHost&#45;sem -->
<g id="edge45" class="edge">
<title>/req/obs&#45;cpt/Host&#45;&gt;/req/obs&#45;cpt/Host/relatedHost&#45;sem</title>
<path fill="none" stroke="black" d="M609.23,-251.41C664.22,-229.94 723,-207 723,-207 723,-207 758.28,-202.63 800.45,-197.41"/>
<polygon fill="black" stroke="black" points="800.92,-200.88 810.41,-196.17 800.06,-193.93 800.92,-200.88"/>
</g>
<!-- /req/obs&#45;cpt/Deployment&#45;&gt;/req/obs&#45;cpt/Deployment/Deployment&#45;sem -->
<g id="edge47" class="edge">
<title>/req/obs&#45;cpt/Deployment&#45;&gt;/req/obs&#45;cpt/Deployment/Deployment&#45;sem</title>
<path fill="none" stroke="black" d="M656.59,-107.95C693.9,-110.32 734.54,-112.9 773.11,-115.35"/>
<polygon fill="black" stroke="black" points="773.2,-118.86 783.4,-116 773.64,-111.87 773.2,-118.86"/>
</g>
<!-- /req/obs&#45;cpt/Deployment&#45;&gt;/req/obs&#45;cpt/Deployment/observer&#45;sem -->
<g id="edge48" class="edge">
<title>/req/obs&#45;cpt/Deployment&#45;&gt;/req/obs&#45;cpt/Deployment/observer&#45;sem</title>
<path fill="none" stroke="black" d="M656.59,-90.05C697.8,-87.43 743.07,-84.56 785.14,-81.89"/>
<polygon fill="black" stroke="black" points="785.43,-85.38 795.19,-81.25 784.99,-78.39 785.43,-85.38"/>
</g>
<!-- /req/obs&#45;cpt/Deployment&#45;&gt;/req/obs&#45;cpt/Deployment/host&#45;sem -->
<g id="edge49" class="edge">
<title>/req/obs&#45;cpt/Deployment&#45;&gt;/req/obs&#45;cpt/Deployment/host&#45;sem</title>
<path fill="none" stroke="black" d="M655.92,-62.46C693.06,-52.79 723,-45 723,-45 723,-45 758.75,-40.57 801.3,-35.3"/>
<polygon fill="black" stroke="black" points="801.86,-38.76 811.35,-34.06 801,-31.81 801.86,-38.76"/>
</g>
</g>
</svg>
