<?xml version="1.0" encoding="UTF-8" standalone="no"?>
<!DOCTYPE svg PUBLIC "-//W3C//DTD SVG 1.1//EN"
 "http://www.w3.org/Graphics/SVG/1.1/DTD/svg11.dtd">
<!-- Generated by graphviz version 2.43.0 (0)
 -->
<!-- Title: G Pages: 1 -->
<svg width="1248pt" height="279pt"
 viewBox="0.00 0.00 1248.00 279.00" xmlns="http://www.w3.org/2000/svg" xmlns:xlink="http://www.w3.org/1999/xlink">
<g id="graph0" class="graph" transform="scale(1 1) rotate(0) translate(4 275)">
<title>G</title>
<polygon fill="white" stroke="transparent" points="-4,4 -4,-275 1244,-275 1244,4 -4,4"/>
<!-- /req/sam&#45;core/AbstractPreparationStep/description&#45;sem -->
<g id="node1" class="node">
<title>/req/sam&#45;core/AbstractPreparationStep/description&#45;sem</title>
<polygon fill="none" stroke="black" points="810,-271 394,-271 394,-235 810,-235 810,-271"/>
<text text-anchor="middle" x="602" y="-249.3" font-family="Times,serif" font-size="14.00">/req/sam&#45;core/AbstractPreparationStep/description&#45;sem</text>
</g>
<!-- /req/sam&#45;core/AbstractPreparationStep/time&#45;sem -->
<g id="node2" class="node">
<title>/req/sam&#45;core/AbstractPreparationStep/time&#45;sem</title>
<polygon fill="none" stroke="black" points="786,-217 418,-217 418,-181 786,-181 786,-217"/>
<text text-anchor="middle" x="602" y="-195.3" font-family="Times,serif" font-size="14.00">/req/sam&#45;core/AbstractPreparationStep/time&#45;sem</text>
</g>
<!-- /req/obs&#45;core/gen/metadata&#45;sem -->
<g id="node3" class="node">
<title>/req/obs&#45;core/gen/metadata&#45;sem</title>
<polygon fill="none" stroke="black" points="725,-163 479,-163 479,-127 725,-127 725,-163"/>
<text text-anchor="middle" x="602" y="-141.3" font-family="Times,serif" font-size="14.00">/req/obs&#45;core/gen/metadata&#45;sem</text>
</g>
<!-- /req/sam&#45;cpt/PreparationStep/PreparationStep&#45;sem -->
<g id="node4" class="node">
<title>/req/sam&#45;cpt/PreparationStep/PreparationStep&#45;sem</title>
<polygon fill="none" stroke="black" points="1235,-144 851,-144 851,-108 1235,-108 1235,-144"/>
<text text-anchor="middle" x="1043" y="-122.3" font-family="Times,serif" font-size="14.00">/req/sam&#45;cpt/PreparationStep/PreparationStep&#45;sem</text>
</g>
<!-- /req/sam&#45;cpt/PreparationStep/processingDetails&#45;sem -->
<g id="node5" class="node">
<title>/req/sam&#45;cpt/PreparationStep/processingDetails&#45;sem</title>
<polygon fill="none" stroke="black" points="1240,-90 846,-90 846,-54 1240,-54 1240,-90"/>
<text text-anchor="middle" x="1043" y="-68.3" font-family="Times,serif" font-size="14.00">/req/sam&#45;cpt/PreparationStep/processingDetails&#45;sem</text>
</g>
<!-- /req/sam&#45;cpt/PreparationStep/preparedSample&#45;sem -->
<g id="node6" class="node">
<title>/req/sam&#45;cpt/PreparationStep/preparedSample&#45;sem</title>
<polygon fill="none" stroke="black" points="1235.5,-36 850.5,-36 850.5,0 1235.5,0 1235.5,-36"/>
<text text-anchor="middle" x="1043" y="-14.3" font-family="Times,serif" font-size="14.00">/req/sam&#45;cpt/PreparationStep/preparedSample&#45;sem</text>
</g>
<!-- /req/sam&#45;core/AbstractPreparationStep -->
<g id="node7" class="node">
<title>/req/sam&#45;core/AbstractPreparationStep</title>
<polygon fill="none" stroke="black" points="3,-184 3,-205 355,-205 355,-184 3,-184"/>
<text text-anchor="start" x="38.5" y="-190.8" font-family="Times,serif" font-size="14.00">/req/sam&#45;core/AbstractPreparationStep</text>
<polygon fill="none" stroke="black" points="3,-161 3,-182 355,-182 355,-161 3,-161"/>
<text text-anchor="start" x="6" y="-167.8" font-family="Times,serif" font-size="14.00">Abstract Sample core &#45; AbstractPreparationStep</text>
<polygon fill="none" stroke="black" points="3,-138 3,-159 355,-159 355,-138 3,-138"/>
<text text-anchor="start" x="129" y="-144.8" font-family="Times,serif" font-size="14.00">Logical model</text>
<polygon fill="none" stroke="black" points="0,-135.5 0,-208.5 358,-208.5 358,-135.5 0,-135.5"/>
</g>
<!-- /req/sam&#45;core/AbstractPreparationStep&#45;&gt;/req/sam&#45;core/AbstractPreparationStep/description&#45;sem -->
<g id="edge1" class="edge">
<title>/req/sam&#45;core/AbstractPreparationStep&#45;&gt;/req/sam&#45;core/AbstractPreparationStep/description&#45;sem</title>
<path fill="none" stroke="black" d="M324.82,-208.54C363.12,-218.21 394,-226 394,-226 394,-226 419.64,-229.34 452.88,-233.68"/>
<polygon fill="black" stroke="black" points="452.56,-237.17 462.93,-234.99 453.46,-230.23 452.56,-237.17"/>
</g>
<!-- /req/sam&#45;core/AbstractPreparationStep&#45;&gt;/req/sam&#45;core/AbstractPreparationStep/time&#45;sem -->
<g id="edge2" class="edge">
<title>/req/sam&#45;core/AbstractPreparationStep&#45;&gt;/req/sam&#45;core/AbstractPreparationStep/time&#45;sem</title>
<path fill="none" stroke="black" d="M358.24,-183.43C374.58,-184.48 391.19,-185.54 407.66,-186.6"/>
<polygon fill="black" stroke="black" points="407.68,-190.11 417.89,-187.26 408.13,-183.12 407.68,-190.11"/>
</g>
<!-- /req/sam&#45;core/AbstractPreparationStep&#45;&gt;/req/obs&#45;core/gen/metadata&#45;sem -->
<g id="edge3" class="edge">
<title>/req/sam&#45;core/AbstractPreparationStep&#45;&gt;/req/obs&#45;core/gen/metadata&#45;sem</title>
<path fill="none" stroke="black" d="M358.24,-160.57C395.18,-158.2 433.48,-155.74 468.45,-153.5"/>
<polygon fill="black" stroke="black" points="468.94,-156.98 478.7,-152.84 468.49,-149.99 468.94,-156.98"/>
</g>
<!-- /req/sam&#45;cpt/PreparationStep -->
<g id="node8" class="node">
<title>/req/sam&#45;cpt/PreparationStep</title>
<polygon fill="none" stroke="black" points="464,-84 464,-105 740,-105 740,-84 464,-84"/>
<text text-anchor="start" x="496" y="-90.8" font-family="Times,serif" font-size="14.00">/req/sam&#45;cpt/PreparationStep</text>
<polygon fill="none" stroke="black" points="464,-61 464,-82 740,-82 740,-61 464,-61"/>
<text text-anchor="start" x="467" y="-67.8" font-family="Times,serif" font-size="14.00">Conceptual Sample &#45; PreparationStep</text>
<polygon fill="none" stroke="black" points="464,-38 464,-59 740,-59 740,-38 464,-38"/>
<text text-anchor="start" x="537.5" y="-44.8" font-family="Times,serif" font-size="14.00">Conceptual model</text>
<polygon fill="none" stroke="black" points="461,-35.5 461,-108.5 743,-108.5 743,-35.5 461,-35.5"/>
</g>
<!-- /req/sam&#45;core/AbstractPreparationStep&#45;&gt;/req/sam&#45;cpt/PreparationStep -->
<g id="edge4" class="edge">
<title>/req/sam&#45;core/AbstractPreparationStep&#45;&gt;/req/sam&#45;cpt/PreparationStep</title>
<path fill="none" stroke="black" stroke-dasharray="5,2" d="M324.82,-135.46C363.12,-125.79 394,-118 394,-118 394,-118 418.75,-112.5 451.13,-105.31"/>
<polygon fill="black" stroke="black" points="451.92,-108.71 460.92,-103.13 450.4,-101.88 451.92,-108.71"/>
</g>
<!-- /req/sam&#45;cpt/PreparationStep&#45;&gt;/req/sam&#45;cpt/PreparationStep/PreparationStep&#45;sem -->
<g id="edge5" class="edge">
<title>/req/sam&#45;cpt/PreparationStep&#45;&gt;/req/sam&#45;cpt/PreparationStep/PreparationStep&#45;sem</title>
<path fill="none" stroke="black" d="M743.11,-89.23C788.46,-94.81 839.04,-101.03 885.5,-106.75"/>
<polygon fill="black" stroke="black" points="885.31,-110.25 895.66,-108 886.16,-103.3 885.31,-110.25"/>
</g>
<!-- /req/sam&#45;cpt/PreparationStep&#45;&gt;/req/sam&#45;cpt/PreparationStep/processingDetails&#45;sem -->
<g id="edge6" class="edge">
<title>/req/sam&#45;cpt/PreparationStep&#45;&gt;/req/sam&#45;cpt/PreparationStep/processingDetails&#45;sem</title>
<path fill="none" stroke="black" d="M743.11,-72C772.54,-72 804.18,-72 835.47,-72"/>
<polygon fill="black" stroke="black" points="835.61,-75.5 845.61,-72 835.61,-68.5 835.61,-75.5"/>
</g>
<!-- /req/sam&#45;cpt/PreparationStep&#45;&gt;/req/sam&#45;cpt/PreparationStep/preparedSample&#45;sem -->
<g id="edge7" class="edge">
<title>/req/sam&#45;cpt/PreparationStep&#45;&gt;/req/sam&#45;cpt/PreparationStep/preparedSample&#45;sem</title>
<path fill="none" stroke="black" d="M743.11,-54.77C788.46,-49.19 839.04,-42.97 885.5,-37.25"/>
<polygon fill="black" stroke="black" points="886.16,-40.7 895.66,-36 885.31,-33.75 886.16,-40.7"/>
</g>
</g>
</svg>
