<?xml version="1.0" encoding="UTF-8" standalone="no"?>
<!DOCTYPE svg PUBLIC "-//W3C//DTD SVG 1.1//EN"
 "http://www.w3.org/Graphics/SVG/1.1/DTD/svg11.dtd">
<!-- Generated by graphviz version 2.43.0 (0)
 -->
<!-- Title: G Pages: 1 -->
<svg width="1604pt" height="209pt"
 viewBox="0.00 0.00 1604.00 208.50" xmlns="http://www.w3.org/2000/svg" xmlns:xlink="http://www.w3.org/1999/xlink">
<g id="graph0" class="graph" transform="scale(1 1) rotate(0) translate(4 204.5)">
<title>G</title>
<polygon fill="white" stroke="transparent" points="-4,4 -4,-204.5 1600,-204.5 1600,4 -4,4"/>
<!-- /req/obs&#45;core/gen/metadata&#45;sem -->
<g id="node1" class="node">
<title>/req/obs&#45;core/gen/metadata&#45;sem</title>
<polygon fill="none" stroke="black" points="719,-200.5 473,-200.5 473,-164.5 719,-164.5 719,-200.5"/>
<text text-anchor="middle" x="596" y="-178.8" font-family="Times,serif" font-size="14.00">/req/obs&#45;core/gen/metadata&#45;sem</text>
</g>
<!-- /req/sam&#45;cpt/PreparationProcedure/PreparationProcedure&#45;sem -->
<g id="node2" class="node">
<title>/req/sam&#45;cpt/PreparationProcedure/PreparationProcedure&#45;sem</title>
<polygon fill="none" stroke="black" points="1263.5,-181.5 798.5,-181.5 798.5,-145.5 1263.5,-145.5 1263.5,-181.5"/>
<text text-anchor="middle" x="1031" y="-159.8" font-family="Times,serif" font-size="14.00">/req/sam&#45;cpt/PreparationProcedure/PreparationProcedure&#45;sem</text>
</g>
<!-- /req/sam&#45;cpt/PreparationProcedure/samplePreparationStep&#45;sem -->
<g id="node3" class="node">
<title>/req/sam&#45;cpt/PreparationProcedure/samplePreparationStep&#45;sem</title>
<polygon fill="none" stroke="black" points="1269,-127.5 793,-127.5 793,-91.5 1269,-91.5 1269,-127.5"/>
<text text-anchor="middle" x="1031" y="-105.8" font-family="Times,serif" font-size="14.00">/req/sam&#45;cpt/PreparationProcedure/samplePreparationStep&#45;sem</text>
</g>
<!-- /req/obs&#45;cpt/Procedure/Procedure&#45;sem -->
<g id="node4" class="node">
<title>/req/obs&#45;cpt/Procedure/Procedure&#45;sem</title>
<polygon fill="none" stroke="black" points="1596,-54.5 1305,-54.5 1305,-18.5 1596,-18.5 1596,-54.5"/>
<text text-anchor="middle" x="1450.5" y="-32.8" font-family="Times,serif" font-size="14.00">/req/obs&#45;cpt/Procedure/Procedure&#45;sem</text>
</g>
<!-- /req/sam&#45;core/AbstractPreparationProcedure -->
<g id="node5" class="node">
<title>/req/sam&#45;core/AbstractPreparationProcedure</title>
<polygon fill="none" stroke="black" points="3.5,-157.5 3.5,-178.5 396.5,-178.5 396.5,-157.5 3.5,-157.5"/>
<text text-anchor="start" x="39" y="-164.3" font-family="Times,serif" font-size="14.00">/req/sam&#45;core/AbstractPreparationProcedure</text>
<polygon fill="none" stroke="black" points="3.5,-134.5 3.5,-155.5 396.5,-155.5 396.5,-134.5 3.5,-134.5"/>
<text text-anchor="start" x="6.5" y="-141.3" font-family="Times,serif" font-size="14.00">Abstract Sample core &#45; AbstractPreparationProcedure</text>
<polygon fill="none" stroke="black" points="3.5,-111.5 3.5,-132.5 396.5,-132.5 396.5,-111.5 3.5,-111.5"/>
<text text-anchor="start" x="150" y="-118.3" font-family="Times,serif" font-size="14.00">Logical model</text>
<polygon fill="none" stroke="black" points="0,-109 0,-182 399,-182 399,-109 0,-109"/>
</g>
<!-- /req/sam&#45;core/AbstractPreparationProcedure&#45;&gt;/req/obs&#45;core/gen/metadata&#45;sem -->
<g id="edge1" class="edge">
<title>/req/sam&#45;core/AbstractPreparationProcedure&#45;&gt;/req/obs&#45;core/gen/metadata&#45;sem</title>
<path fill="none" stroke="black" d="M399.19,-164.14C420.77,-166.16 442.33,-168.18 462.83,-170.1"/>
<polygon fill="black" stroke="black" points="462.52,-173.59 472.8,-171.04 463.17,-166.62 462.52,-173.59"/>
</g>
<!-- /req/sam&#45;cpt/PreparationProcedure -->
<g id="node6" class="node">
<title>/req/sam&#45;cpt/PreparationProcedure</title>
<polygon fill="none" stroke="black" points="438,-121.5 438,-142.5 754,-142.5 754,-121.5 438,-121.5"/>
<text text-anchor="start" x="469.5" y="-128.3" font-family="Times,serif" font-size="14.00">/req/sam&#45;cpt/PreparationProcedure</text>
<polygon fill="none" stroke="black" points="438,-98.5 438,-119.5 754,-119.5 754,-98.5 438,-98.5"/>
<text text-anchor="start" x="441" y="-105.3" font-family="Times,serif" font-size="14.00">Conceptual Sample &#45; PreparationProcedure</text>
<polygon fill="none" stroke="black" points="438,-75.5 438,-96.5 754,-96.5 754,-75.5 438,-75.5"/>
<text text-anchor="start" x="529.5" y="-82.3" font-family="Times,serif" font-size="14.00">Conceptual m odel</text>
<polygon fill="none" stroke="black" points="435,-73 435,-146 757,-146 757,-73 435,-73"/>
</g>
<!-- /req/sam&#45;core/AbstractPreparationProcedure&#45;&gt;/req/sam&#45;cpt/PreparationProcedure -->
<g id="edge2" class="edge">
<title>/req/sam&#45;core/AbstractPreparationProcedure&#45;&gt;/req/sam&#45;cpt/PreparationProcedure</title>
<path fill="none" stroke="black" stroke-dasharray="5,2" d="M399.19,-127.37C407.81,-126.58 416.41,-125.8 424.95,-125.02"/>
<polygon fill="black" stroke="black" points="425.3,-128.5 434.94,-124.11 424.66,-121.53 425.3,-128.5"/>
</g>
<!-- /req/sam&#45;cpt/PreparationProcedure&#45;&gt;/req/sam&#45;cpt/PreparationProcedure/PreparationProcedure&#45;sem -->
<g id="edge3" class="edge">
<title>/req/sam&#45;cpt/PreparationProcedure&#45;&gt;/req/sam&#45;cpt/PreparationProcedure/PreparationProcedure&#45;sem</title>
<path fill="none" stroke="black" d="M757.05,-131.55C778.35,-134.48 793,-136.5 793,-136.5 793,-136.5 823.12,-139.93 861.89,-144.35"/>
<polygon fill="black" stroke="black" points="861.59,-147.84 871.92,-145.49 862.38,-140.88 861.59,-147.84"/>
</g>
<!-- /req/sam&#45;cpt/PreparationProcedure&#45;&gt;/req/sam&#45;cpt/PreparationProcedure/samplePreparationStep&#45;sem -->
<g id="edge4" class="edge">
<title>/req/sam&#45;cpt/PreparationProcedure&#45;&gt;/req/sam&#45;cpt/PreparationProcedure/samplePreparationStep&#45;sem</title>
<path fill="none" stroke="black" d="M757,-109.5C765.49,-109.5 774.1,-109.5 782.77,-109.5"/>
<polygon fill="black" stroke="black" points="782.99,-113 792.99,-109.5 782.99,-106 782.99,-113"/>
</g>
<!-- /req/obs&#45;cpt/Procedure -->
<g id="node7" class="node">
<title>/req/obs&#45;cpt/Procedure</title>
<polygon fill="none" stroke="black" points="899,-48.5 899,-69.5 1164,-69.5 1164,-48.5 899,-48.5"/>
<text text-anchor="start" x="950" y="-55.3" font-family="Times,serif" font-size="14.00">/req/obs&#45;cpt/Procedure</text>
<polygon fill="none" stroke="black" points="899,-25.5 899,-46.5 1164,-46.5 1164,-25.5 899,-25.5"/>
<text text-anchor="start" x="902" y="-32.3" font-family="Times,serif" font-size="14.00">Conceptual Observation &#45; Procedure</text>
<polygon fill="none" stroke="black" points="899,-2.5 899,-23.5 1164,-23.5 1164,-2.5 899,-2.5"/>
<text text-anchor="start" x="967" y="-9.3" font-family="Times,serif" font-size="14.00">Conceptual model</text>
<polygon fill="none" stroke="black" points="895.5,0 895.5,-73 1166.5,-73 1166.5,0 895.5,0"/>
</g>
<!-- /req/sam&#45;cpt/PreparationProcedure&#45;&gt;/req/obs&#45;cpt/Procedure -->
<g id="edge5" class="edge">
<title>/req/sam&#45;cpt/PreparationProcedure&#45;&gt;/req/obs&#45;cpt/Procedure</title>
<path fill="none" stroke="black" stroke-dasharray="5,2" d="M757,-82.52C798.96,-75.45 843.95,-67.87 885.07,-60.93"/>
<polygon fill="black" stroke="black" points="885.87,-64.35 895.15,-59.23 884.71,-57.45 885.87,-64.35"/>
</g>
<!-- /req/obs&#45;cpt/Procedure&#45;&gt;/req/obs&#45;cpt/Procedure/Procedure&#45;sem -->
<g id="edge6" class="edge">
<title>/req/obs&#45;cpt/Procedure&#45;&gt;/req/obs&#45;cpt/Procedure/Procedure&#45;sem</title>
<path fill="none" stroke="black" d="M1166.69,-36.5C1207.5,-36.5 1252.66,-36.5 1294.68,-36.5"/>
<polygon fill="black" stroke="black" points="1294.72,-40 1304.72,-36.5 1294.72,-33 1294.72,-40"/>
</g>
</g>
</svg>
