<?xml version="1.0" encoding="UTF-8" standalone="no"?>
<!DOCTYPE svg PUBLIC "-//W3C//DTD SVG 1.1//EN"
 "http://www.w3.org/Graphics/SVG/1.1/DTD/svg11.dtd">
<!-- Generated by graphviz version 2.43.0 (0)
 -->
<!-- Title: G Pages: 1 -->
<svg width="1913pt" height="783pt"
 viewBox="0.00 0.00 1913.00 783.00" xmlns="http://www.w3.org/2000/svg" xmlns:xlink="http://www.w3.org/1999/xlink">
<g id="graph0" class="graph" transform="scale(1 1) rotate(0) translate(4 779)">
<title>G</title>
<polygon fill="white" stroke="transparent" points="-4,4 -4,-779 1909,-779 1909,4 -4,4"/>
<!-- /req/obs&#45;core/NamedValue -->
<g id="node1" class="node">
<title>/req/obs&#45;core/NamedValue</title>
<polygon fill="none" stroke="black" points="1288,-204.5 1288,-225.5 1586,-225.5 1586,-204.5 1288,-204.5"/>
<text text-anchor="start" x="1343" y="-211.3" font-family="Times,serif" font-size="14.00">/req/obs&#45;core/NamedValue</text>
<polygon fill="none" stroke="black" points="1288,-181.5 1288,-202.5 1586,-202.5 1586,-181.5 1288,-181.5"/>
<text text-anchor="start" x="1291" y="-188.3" font-family="Times,serif" font-size="14.00">Abstract Observation core &#45; NamedValue</text>
<polygon fill="none" stroke="black" points="1288,-158.5 1288,-179.5 1586,-179.5 1586,-158.5 1288,-158.5"/>
<text text-anchor="start" x="1387" y="-165.3" font-family="Times,serif" font-size="14.00">Logical model</text>
<polygon fill="none" stroke="black" points="1285,-156 1285,-229 1589,-229 1589,-156 1285,-156"/>
</g>
<!-- /req/obs&#45;cpt/Procedure -->
<g id="node2" class="node">
<title>/req/obs&#45;cpt/Procedure</title>
<polygon fill="none" stroke="black" points="1637.5,-659.5 1637.5,-680.5 1902.5,-680.5 1902.5,-659.5 1637.5,-659.5"/>
<text text-anchor="start" x="1688.5" y="-666.3" font-family="Times,serif" font-size="14.00">/req/obs&#45;cpt/Procedure</text>
<polygon fill="none" stroke="black" points="1637.5,-636.5 1637.5,-657.5 1902.5,-657.5 1902.5,-636.5 1637.5,-636.5"/>
<text text-anchor="start" x="1640.5" y="-643.3" font-family="Times,serif" font-size="14.00">Conceptual Observation &#45; Procedure</text>
<polygon fill="none" stroke="black" points="1637.5,-613.5 1637.5,-634.5 1902.5,-634.5 1902.5,-613.5 1637.5,-613.5"/>
<text text-anchor="start" x="1705.5" y="-620.3" font-family="Times,serif" font-size="14.00">Conceptual model</text>
<polygon fill="none" stroke="black" points="1634,-611 1634,-684 1905,-684 1905,-611 1634,-611"/>
</g>
<!-- /req/sam&#45;basic -->
<g id="node3" class="node">
<title>/req/sam&#45;basic</title>
<polygon fill="none" stroke="black" points="3.5,-295.5 3.5,-316.5 176.5,-316.5 176.5,-295.5 3.5,-295.5"/>
<text text-anchor="start" x="38" y="-302.3" font-family="Times,serif" font-size="14.00">/req/sam&#45;basic</text>
<polygon fill="none" stroke="black" points="3.5,-272.5 3.5,-293.5 176.5,-293.5 176.5,-272.5 3.5,-272.5"/>
<text text-anchor="start" x="6.5" y="-279.3" font-family="Times,serif" font-size="14.00">Basic Samples package</text>
<polygon fill="none" stroke="black" points="3.5,-249.5 3.5,-270.5 176.5,-270.5 176.5,-249.5 3.5,-249.5"/>
<text text-anchor="start" x="40" y="-256.3" font-family="Times,serif" font-size="14.00">Logical model</text>
<polygon fill="none" stroke="black" points="0,-247 0,-320 179,-320 179,-247 0,-247"/>
</g>
<!-- /req/sam&#45;basic/MaterialSample -->
<g id="node4" class="node">
<title>/req/sam&#45;basic/MaterialSample</title>
<polygon fill="none" stroke="black" points="224,-542.5 224,-563.5 462,-563.5 462,-542.5 224,-542.5"/>
<text text-anchor="start" x="231.5" y="-549.3" font-family="Times,serif" font-size="14.00">/req/sam&#45;basic/MaterialSample</text>
<polygon fill="none" stroke="black" points="224,-519.5 224,-540.5 462,-540.5 462,-519.5 224,-519.5"/>
<text text-anchor="start" x="227" y="-526.3" font-family="Times,serif" font-size="14.00">Basic Samples &#45; MaterialSample</text>
<polygon fill="none" stroke="black" points="224,-496.5 224,-517.5 462,-517.5 462,-496.5 224,-496.5"/>
<text text-anchor="start" x="293" y="-503.3" font-family="Times,serif" font-size="14.00">Logical model</text>
<polygon fill="none" stroke="black" points="221,-494 221,-567 465,-567 465,-494 221,-494"/>
</g>
<!-- /req/sam&#45;basic&#45;&gt;/req/sam&#45;basic/MaterialSample -->
<g id="edge3" class="edge">
<title>/req/sam&#45;basic&#45;&gt;/req/sam&#45;basic/MaterialSample</title>
<path fill="none" stroke="black" stroke-dasharray="5,2" d="M113.05,-320.08C148.92,-378.29 215,-485.5 215,-485.5 215,-485.5 220.49,-487.45 229.2,-490.53"/>
<polygon fill="black" stroke="black" points="228.29,-493.92 238.89,-493.96 230.63,-487.33 228.29,-493.92"/>
</g>
<!-- /req/sam&#45;basic/Sample -->
<g id="node7" class="node">
<title>/req/sam&#45;basic/Sample</title>
<polygon fill="none" stroke="black" points="568,-295.5 568,-316.5 745,-316.5 745,-295.5 568,-295.5"/>
<text text-anchor="start" x="575.5" y="-302.3" font-family="Times,serif" font-size="14.00">/req/sam&#45;basic/Sample</text>
<polygon fill="none" stroke="black" points="568,-272.5 568,-293.5 745,-293.5 745,-272.5 568,-272.5"/>
<text text-anchor="start" x="571" y="-279.3" font-family="Times,serif" font-size="14.00">Basic Samples &#45; Sample</text>
<polygon fill="none" stroke="black" points="568,-249.5 568,-270.5 745,-270.5 745,-249.5 568,-249.5"/>
<text text-anchor="start" x="606.5" y="-256.3" font-family="Times,serif" font-size="14.00">Logical model</text>
<polygon fill="none" stroke="black" points="564.5,-247 564.5,-320 747.5,-320 747.5,-247 564.5,-247"/>
</g>
<!-- /req/sam&#45;basic&#45;&gt;/req/sam&#45;basic/Sample -->
<g id="edge1" class="edge">
<title>/req/sam&#45;basic&#45;&gt;/req/sam&#45;basic/Sample</title>
<path fill="none" stroke="black" stroke-dasharray="5,2" d="M179.01,-283.5C280.76,-283.5 447.43,-283.5 554.12,-283.5"/>
<polygon fill="black" stroke="black" points="554.25,-287 564.25,-283.5 554.25,-280 554.25,-287"/>
</g>
<!-- /req/sam&#45;basic/SampleCollection -->
<g id="node8" class="node">
<title>/req/sam&#45;basic/SampleCollection</title>
<polygon fill="none" stroke="black" points="219,-360.5 219,-381.5 467,-381.5 467,-360.5 219,-360.5"/>
<text text-anchor="start" x="226.5" y="-367.3" font-family="Times,serif" font-size="14.00">/req/sam&#45;basic/SampleCollection</text>
<polygon fill="none" stroke="black" points="219,-337.5 219,-358.5 467,-358.5 467,-337.5 219,-337.5"/>
<text text-anchor="start" x="222" y="-344.3" font-family="Times,serif" font-size="14.00">Basic Samples &#45; SampleCollection</text>
<polygon fill="none" stroke="black" points="219,-314.5 219,-335.5 467,-335.5 467,-314.5 219,-314.5"/>
<text text-anchor="start" x="293" y="-321.3" font-family="Times,serif" font-size="14.00">Logical model</text>
<polygon fill="none" stroke="black" points="216,-312 216,-385 470,-385 470,-312 216,-312"/>
</g>
<!-- /req/sam&#45;basic&#45;&gt;/req/sam&#45;basic/SampleCollection -->
<g id="edge7" class="edge">
<title>/req/sam&#45;basic&#45;&gt;/req/sam&#45;basic/SampleCollection</title>
<path fill="none" stroke="black" stroke-dasharray="5,2" d="M179.17,-306.42C187.89,-308.67 196.88,-310.99 205.94,-313.33"/>
<polygon fill="black" stroke="black" points="205.23,-316.77 215.78,-315.88 206.98,-309.99 205.23,-316.77"/>
</g>
<!-- /req/sam&#45;basic/Sampler -->
<g id="node9" class="node">
<title>/req/sam&#45;basic/Sampler</title>
<polygon fill="none" stroke="black" points="251,-451.5 251,-472.5 435,-472.5 435,-451.5 251,-451.5"/>
<text text-anchor="start" x="258.5" y="-458.3" font-family="Times,serif" font-size="14.00">/req/sam&#45;basic/Sampler</text>
<polygon fill="none" stroke="black" points="251,-428.5 251,-449.5 435,-449.5 435,-428.5 251,-428.5"/>
<text text-anchor="start" x="254" y="-435.3" font-family="Times,serif" font-size="14.00">Basic Samples &#45; Sampler</text>
<polygon fill="none" stroke="black" points="251,-405.5 251,-426.5 435,-426.5 435,-405.5 251,-405.5"/>
<text text-anchor="start" x="293" y="-412.3" font-family="Times,serif" font-size="14.00">Logical model</text>
<polygon fill="none" stroke="black" points="248,-403 248,-476 438,-476 438,-403 248,-403"/>
</g>
<!-- /req/sam&#45;basic&#45;&gt;/req/sam&#45;basic/Sampler -->
<g id="edge6" class="edge">
<title>/req/sam&#45;basic&#45;&gt;/req/sam&#45;basic/Sampler</title>
<path fill="none" stroke="black" stroke-dasharray="5,2" d="M131.61,-320.15C167.88,-352.49 215,-394.5 215,-394.5 215,-394.5 224.42,-397.84 238.13,-402.7"/>
<polygon fill="black" stroke="black" points="237.11,-406.05 247.71,-406.09 239.45,-399.45 237.11,-406.05"/>
</g>
<!-- /req/sam&#45;basic/Sampling -->
<g id="node10" class="node">
<title>/req/sam&#45;basic/Sampling</title>
<polygon fill="none" stroke="black" points="248,-48.5 248,-69.5 439,-69.5 439,-48.5 248,-48.5"/>
<text text-anchor="start" x="255.5" y="-55.3" font-family="Times,serif" font-size="14.00">/req/sam&#45;basic/Sampling</text>
<polygon fill="none" stroke="black" points="248,-25.5 248,-46.5 439,-46.5 439,-25.5 248,-25.5"/>
<text text-anchor="start" x="251" y="-32.3" font-family="Times,serif" font-size="14.00">Basic Samples &#45; Sampling</text>
<polygon fill="none" stroke="black" points="248,-2.5 248,-23.5 439,-23.5 439,-2.5 248,-2.5"/>
<text text-anchor="start" x="293.5" y="-9.3" font-family="Times,serif" font-size="14.00">Logical model</text>
<polygon fill="none" stroke="black" points="244.5,0 244.5,-73 441.5,-73 441.5,0 244.5,0"/>
</g>
<!-- /req/sam&#45;basic&#45;&gt;/req/sam&#45;basic/Sampling -->
<g id="edge5" class="edge">
<title>/req/sam&#45;basic&#45;&gt;/req/sam&#45;basic/Sampling</title>
<path fill="none" stroke="black" stroke-dasharray="5,2" d="M113.05,-246.92C148.92,-188.71 215,-81.5 215,-81.5 215,-81.5 222.88,-78.71 234.7,-74.52"/>
<polygon fill="black" stroke="black" points="236.2,-77.7 244.46,-71.06 233.86,-71.1 236.2,-77.7"/>
</g>
<!-- /req/sam&#45;basic/SpatialSample -->
<g id="node11" class="node">
<title>/req/sam&#45;basic/SpatialSample</title>
<polygon fill="none" stroke="black" points="230,-230.5 230,-251.5 457,-251.5 457,-230.5 230,-230.5"/>
<text text-anchor="start" x="237.5" y="-237.3" font-family="Times,serif" font-size="14.00">/req/sam&#45;basic/SpatialSample</text>
<polygon fill="none" stroke="black" points="230,-207.5 230,-228.5 457,-228.5 457,-207.5 230,-207.5"/>
<text text-anchor="start" x="233" y="-214.3" font-family="Times,serif" font-size="14.00">Basic Samples &#45; SpatialSample</text>
<polygon fill="none" stroke="black" points="230,-184.5 230,-205.5 457,-205.5 457,-184.5 230,-184.5"/>
<text text-anchor="start" x="293.5" y="-191.3" font-family="Times,serif" font-size="14.00">Logical model</text>
<polygon fill="none" stroke="black" points="226.5,-182 226.5,-255 459.5,-255 459.5,-182 226.5,-182"/>
</g>
<!-- /req/sam&#45;basic&#45;&gt;/req/sam&#45;basic/SpatialSample -->
<g id="edge2" class="edge">
<title>/req/sam&#45;basic&#45;&gt;/req/sam&#45;basic/SpatialSample</title>
<path fill="none" stroke="black" stroke-dasharray="5,2" d="M179.17,-260.58C191.34,-257.44 204.02,-254.16 216.69,-250.89"/>
<polygon fill="black" stroke="black" points="217.57,-254.27 226.38,-248.38 215.82,-247.5 217.57,-254.27"/>
</g>
<!-- /req/sam&#45;basic/StatisticalSample -->
<g id="node13" class="node">
<title>/req/sam&#45;basic/StatisticalSample</title>
<polygon fill="none" stroke="black" points="218,-139.5 218,-160.5 468,-160.5 468,-139.5 218,-139.5"/>
<text text-anchor="start" x="225.5" y="-146.3" font-family="Times,serif" font-size="14.00">/req/sam&#45;basic/StatisticalSample</text>
<polygon fill="none" stroke="black" points="218,-116.5 218,-137.5 468,-137.5 468,-116.5 218,-116.5"/>
<text text-anchor="start" x="221" y="-123.3" font-family="Times,serif" font-size="14.00">Basic Samples &#45; StatisticalSample</text>
<polygon fill="none" stroke="black" points="218,-93.5 218,-114.5 468,-114.5 468,-93.5 218,-93.5"/>
<text text-anchor="start" x="293" y="-100.3" font-family="Times,serif" font-size="14.00">Logical model</text>
<polygon fill="none" stroke="black" points="215,-91 215,-164 471,-164 471,-91 215,-91"/>
</g>
<!-- /req/sam&#45;basic&#45;&gt;/req/sam&#45;basic/StatisticalSample -->
<g id="edge4" class="edge">
<title>/req/sam&#45;basic&#45;&gt;/req/sam&#45;basic/StatisticalSample</title>
<path fill="none" stroke="black" stroke-dasharray="5,2" d="M131.61,-246.85C167.88,-214.51 215,-172.5 215,-172.5 215,-172.5 220.49,-170.55 229.2,-167.47"/>
<polygon fill="black" stroke="black" points="230.63,-170.67 238.89,-164.04 228.29,-164.08 230.63,-170.67"/>
</g>
<!-- /req/sam&#45;basic/NamedLocation -->
<g id="node5" class="node">
<title>/req/sam&#45;basic/NamedLocation</title>
<polygon fill="none" stroke="black" points="539,-451.5 539,-472.5 774,-472.5 774,-451.5 539,-451.5"/>
<text text-anchor="start" x="546.5" y="-458.3" font-family="Times,serif" font-size="14.00">/req/sam&#45;basic/NamedLocation</text>
<polygon fill="none" stroke="black" points="539,-428.5 539,-449.5 774,-449.5 774,-428.5 539,-428.5"/>
<text text-anchor="start" x="542" y="-435.3" font-family="Times,serif" font-size="14.00">Basic Samples &#45; NamedLocation</text>
<polygon fill="none" stroke="black" points="539,-405.5 539,-426.5 774,-426.5 774,-405.5 539,-405.5"/>
<text text-anchor="start" x="606.5" y="-412.3" font-family="Times,serif" font-size="14.00">Logical model</text>
<polygon fill="none" stroke="black" points="535.5,-403 535.5,-476 776.5,-476 776.5,-403 535.5,-403"/>
</g>
<!-- /req/sam&#45;basic/MaterialSample&#45;&gt;/req/sam&#45;basic/NamedLocation -->
<g id="edge10" class="edge">
<title>/req/sam&#45;basic/MaterialSample&#45;&gt;/req/sam&#45;basic/NamedLocation</title>
<path fill="none" stroke="black" stroke-dasharray="5,2" d="M465.13,-495.06C484.99,-489.25 505.64,-483.2 525.69,-477.34"/>
<polygon fill="black" stroke="black" points="526.86,-480.64 535.48,-474.47 524.9,-473.92 526.86,-480.64"/>
</g>
<!-- /req/sam&#45;basic/PhysicalDimension -->
<g id="node6" class="node">
<title>/req/sam&#45;basic/PhysicalDimension</title>
<polygon fill="none" stroke="black" points="527,-542.5 527,-563.5 786,-563.5 786,-542.5 527,-542.5"/>
<text text-anchor="start" x="534.5" y="-549.3" font-family="Times,serif" font-size="14.00">/req/sam&#45;basic/PhysicalDimension</text>
<polygon fill="none" stroke="black" points="527,-519.5 527,-540.5 786,-540.5 786,-519.5 527,-519.5"/>
<text text-anchor="start" x="530" y="-526.3" font-family="Times,serif" font-size="14.00">Basic Samples &#45; PhysicalDimension</text>
<polygon fill="none" stroke="black" points="527,-496.5 527,-517.5 786,-517.5 786,-496.5 527,-496.5"/>
<text text-anchor="start" x="606.5" y="-503.3" font-family="Times,serif" font-size="14.00">Logical model</text>
<polygon fill="none" stroke="black" points="523.5,-494 523.5,-567 788.5,-567 788.5,-494 523.5,-494"/>
</g>
<!-- /req/sam&#45;basic/MaterialSample&#45;&gt;/req/sam&#45;basic/PhysicalDimension -->
<g id="edge9" class="edge">
<title>/req/sam&#45;basic/MaterialSample&#45;&gt;/req/sam&#45;basic/PhysicalDimension</title>
<path fill="none" stroke="black" stroke-dasharray="5,2" d="M465.13,-530.5C480.95,-530.5 497.27,-530.5 513.39,-530.5"/>
<polygon fill="black" stroke="black" points="513.39,-534 523.39,-530.5 513.39,-527 513.39,-534"/>
</g>
<!-- /req/sam&#45;basic/MaterialSample&#45;&gt;/req/sam&#45;basic/Sample -->
<g id="edge8" class="edge">
<title>/req/sam&#45;basic/MaterialSample&#45;&gt;/req/sam&#45;basic/Sample</title>
<path fill="none" stroke="black" stroke-dasharray="5,2" d="M447.11,-493.96C461.23,-488.96 471,-485.5 471,-485.5 471,-485.5 507,-394.5 507,-394.5 507,-394.5 556.24,-357.57 597.91,-326.32"/>
<polygon fill="black" stroke="black" points="600.23,-328.95 606.13,-320.15 596.03,-323.35 600.23,-328.95"/>
</g>
<!-- /req/sam&#45;core/AbstractSample -->
<g id="node17" class="node">
<title>/req/sam&#45;core/AbstractSample</title>
<polygon fill="none" stroke="black" points="896.5,-295.5 896.5,-316.5 1184.5,-316.5 1184.5,-295.5 896.5,-295.5"/>
<text text-anchor="start" x="932" y="-302.3" font-family="Times,serif" font-size="14.00">/req/sam&#45;core/AbstractSample</text>
<polygon fill="none" stroke="black" points="896.5,-272.5 896.5,-293.5 1184.5,-293.5 1184.5,-272.5 896.5,-272.5"/>
<text text-anchor="start" x="899.5" y="-279.3" font-family="Times,serif" font-size="14.00">Abstract Sample core &#45; AbstractSample</text>
<polygon fill="none" stroke="black" points="896.5,-249.5 896.5,-270.5 1184.5,-270.5 1184.5,-249.5 896.5,-249.5"/>
<text text-anchor="start" x="990.5" y="-256.3" font-family="Times,serif" font-size="14.00">Logical model</text>
<polygon fill="none" stroke="black" points="893.5,-247 893.5,-320 1187.5,-320 1187.5,-247 893.5,-247"/>
</g>
<!-- /req/sam&#45;basic/Sample&#45;&gt;/req/sam&#45;core/AbstractSample -->
<g id="edge11" class="edge">
<title>/req/sam&#45;basic/Sample&#45;&gt;/req/sam&#45;core/AbstractSample</title>
<path fill="none" stroke="black" stroke-dasharray="5,2" d="M747.65,-283.5C788.19,-283.5 837.17,-283.5 883.33,-283.5"/>
<polygon fill="black" stroke="black" points="883.44,-287 893.44,-283.5 883.44,-280 883.44,-287"/>
</g>
<!-- /req/sam&#45;core/AbstractSampler -->
<g id="node18" class="node">
<title>/req/sam&#45;core/AbstractSampler</title>
<polygon fill="none" stroke="black" points="893.5,-386.5 893.5,-407.5 1188.5,-407.5 1188.5,-386.5 893.5,-386.5"/>
<text text-anchor="start" x="929.5" y="-393.3" font-family="Times,serif" font-size="14.00">/req/sam&#45;core/AbstractSampler</text>
<polygon fill="none" stroke="black" points="893.5,-363.5 893.5,-384.5 1188.5,-384.5 1188.5,-363.5 893.5,-363.5"/>
<text text-anchor="start" x="896.5" y="-370.3" font-family="Times,serif" font-size="14.00">Abstract Sample core &#45; AbstractSampler</text>
<polygon fill="none" stroke="black" points="893.5,-340.5 893.5,-361.5 1188.5,-361.5 1188.5,-340.5 893.5,-340.5"/>
<text text-anchor="start" x="991" y="-347.3" font-family="Times,serif" font-size="14.00">Logical model</text>
<polygon fill="none" stroke="black" points="890,-338 890,-411 1191,-411 1191,-338 890,-338"/>
</g>
<!-- /req/sam&#45;basic/Sampler&#45;&gt;/req/sam&#45;core/AbstractSampler -->
<g id="edge12" class="edge">
<title>/req/sam&#45;basic/Sampler&#45;&gt;/req/sam&#45;core/AbstractSampler</title>
<path fill="none" stroke="black" stroke-dasharray="5,2" d="M438.35,-413.45C474.39,-403.5 507,-394.5 507,-394.5 507,-394.5 722.68,-386.4 879.51,-380.51"/>
<polygon fill="black" stroke="black" points="879.89,-384 889.75,-380.12 879.63,-377 879.89,-384"/>
</g>
<!-- /req/sam&#45;core/AbstractSampling -->
<g id="node19" class="node">
<title>/req/sam&#45;core/AbstractSampling</title>
<polygon fill="none" stroke="black" points="889.5,-204.5 889.5,-225.5 1191.5,-225.5 1191.5,-204.5 889.5,-204.5"/>
<text text-anchor="start" x="925" y="-211.3" font-family="Times,serif" font-size="14.00">/req/sam&#45;core/AbstractSampling</text>
<polygon fill="none" stroke="black" points="889.5,-181.5 889.5,-202.5 1191.5,-202.5 1191.5,-181.5 889.5,-181.5"/>
<text text-anchor="start" x="892.5" y="-188.3" font-family="Times,serif" font-size="14.00">Abstract Sample core &#45; AbstractSampling</text>
<polygon fill="none" stroke="black" points="889.5,-158.5 889.5,-179.5 1191.5,-179.5 1191.5,-158.5 889.5,-158.5"/>
<text text-anchor="start" x="990.5" y="-165.3" font-family="Times,serif" font-size="14.00">Logical model</text>
<polygon fill="none" stroke="black" points="886.5,-156 886.5,-229 1194.5,-229 1194.5,-156 886.5,-156"/>
</g>
<!-- /req/sam&#45;basic/Sampling&#45;&gt;/req/sam&#45;core/AbstractSampling -->
<g id="edge13" class="edge">
<title>/req/sam&#45;basic/Sampling&#45;&gt;/req/sam&#45;core/AbstractSampling</title>
<path fill="none" stroke="black" stroke-dasharray="5,2" d="M441.77,-46.04C577.09,-59.25 805,-81.5 805,-81.5 805,-81.5 885.97,-119.82 952.75,-151.44"/>
<polygon fill="black" stroke="black" points="951.53,-154.73 962.07,-155.85 954.52,-148.4 951.53,-154.73"/>
</g>
<!-- /req/sam&#45;basic/SpatialSample&#45;&gt;/req/sam&#45;basic/Sample -->
<g id="edge14" class="edge">
<title>/req/sam&#45;basic/SpatialSample&#45;&gt;/req/sam&#45;basic/Sample</title>
<path fill="none" stroke="black" stroke-dasharray="5,2" d="M459.8,-242.7C490.84,-249.19 524.13,-256.15 554.27,-262.45"/>
<polygon fill="black" stroke="black" points="553.86,-265.94 564.37,-264.56 555.29,-259.09 553.86,-265.94"/>
</g>
<!-- /req/sam&#45;basic/StatisticalClassification -->
<g id="node12" class="node">
<title>/req/sam&#45;basic/StatisticalClassification</title>
<polygon fill="none" stroke="black" points="510,-139.5 510,-160.5 802,-160.5 802,-139.5 510,-139.5"/>
<text text-anchor="start" x="517.5" y="-146.3" font-family="Times,serif" font-size="14.00">/req/sam&#45;basic/StatisticalClassification</text>
<polygon fill="none" stroke="black" points="510,-116.5 510,-137.5 802,-137.5 802,-116.5 510,-116.5"/>
<text text-anchor="start" x="513" y="-123.3" font-family="Times,serif" font-size="14.00">Basic Samples &#45; StatisticalClassification</text>
<polygon fill="none" stroke="black" points="510,-93.5 510,-114.5 802,-114.5 802,-93.5 510,-93.5"/>
<text text-anchor="start" x="606" y="-100.3" font-family="Times,serif" font-size="14.00">Logical model</text>
<polygon fill="none" stroke="black" points="507,-91 507,-164 805,-164 805,-91 507,-91"/>
</g>
<!-- /req/sam&#45;basic/StatisticalSample&#45;&gt;/req/sam&#45;basic/Sample -->
<g id="edge15" class="edge">
<title>/req/sam&#45;basic/StatisticalSample&#45;&gt;/req/sam&#45;basic/Sample</title>
<path fill="none" stroke="black" stroke-dasharray="5,2" d="M447.11,-164.04C461.23,-169.04 471,-172.5 471,-172.5 471,-172.5 533.49,-210.2 585.64,-241.66"/>
<polygon fill="black" stroke="black" points="583.87,-244.68 594.24,-246.85 587.49,-238.68 583.87,-244.68"/>
</g>
<!-- /req/sam&#45;basic/StatisticalSample&#45;&gt;/req/sam&#45;basic/StatisticalClassification -->
<g id="edge16" class="edge">
<title>/req/sam&#45;basic/StatisticalSample&#45;&gt;/req/sam&#45;basic/StatisticalClassification</title>
<path fill="none" stroke="black" stroke-dasharray="5,2" d="M471.39,-127.5C479.68,-127.5 488.08,-127.5 496.49,-127.5"/>
<polygon fill="black" stroke="black" points="496.75,-131 506.75,-127.5 496.75,-124 496.75,-131"/>
</g>
<!-- /req/sam&#45;core -->
<g id="node14" class="node">
<title>/req/sam&#45;core</title>
<polygon fill="none" stroke="black" points="545,-633.5 545,-654.5 768,-654.5 768,-633.5 545,-633.5"/>
<text text-anchor="start" x="607.5" y="-640.3" font-family="Times,serif" font-size="14.00">/req/sam&#45;core</text>
<polygon fill="none" stroke="black" points="545,-610.5 545,-631.5 768,-631.5 768,-610.5 545,-610.5"/>
<text text-anchor="start" x="548" y="-617.3" font-family="Times,serif" font-size="14.00">Abstract Sample core package</text>
<polygon fill="none" stroke="black" points="545,-587.5 545,-608.5 768,-608.5 768,-587.5 545,-587.5"/>
<text text-anchor="start" x="606.5" y="-594.3" font-family="Times,serif" font-size="14.00">Logical model</text>
<polygon fill="none" stroke="black" points="541.5,-585 541.5,-658 770.5,-658 770.5,-585 541.5,-585"/>
</g>
<!-- /req/sam&#45;core/AbstractPreparationProcedure -->
<g id="node15" class="node">
<title>/req/sam&#45;core/AbstractPreparationProcedure</title>
<polygon fill="none" stroke="black" points="844.5,-568.5 844.5,-589.5 1237.5,-589.5 1237.5,-568.5 844.5,-568.5"/>
<text text-anchor="start" x="880" y="-575.3" font-family="Times,serif" font-size="14.00">/req/sam&#45;core/AbstractPreparationProcedure</text>
<polygon fill="none" stroke="black" points="844.5,-545.5 844.5,-566.5 1237.5,-566.5 1237.5,-545.5 844.5,-545.5"/>
<text text-anchor="start" x="847.5" y="-552.3" font-family="Times,serif" font-size="14.00">Abstract Sample core &#45; AbstractPreparationProcedure</text>
<polygon fill="none" stroke="black" points="844.5,-522.5 844.5,-543.5 1237.5,-543.5 1237.5,-522.5 844.5,-522.5"/>
<text text-anchor="start" x="991" y="-529.3" font-family="Times,serif" font-size="14.00">Logical model</text>
<polygon fill="none" stroke="black" points="841,-520 841,-593 1240,-593 1240,-520 841,-520"/>
</g>
<!-- /req/sam&#45;core&#45;&gt;/req/sam&#45;core/AbstractPreparationProcedure -->
<g id="edge21" class="edge">
<title>/req/sam&#45;core&#45;&gt;/req/sam&#45;core/AbstractPreparationProcedure</title>
<path fill="none" stroke="black" stroke-dasharray="5,2" d="M770.73,-602.17C789.93,-598.91 810.38,-595.43 831.11,-591.91"/>
<polygon fill="black" stroke="black" points="831.7,-595.36 840.97,-590.24 830.53,-588.46 831.7,-595.36"/>
</g>
<!-- /req/sam&#45;core/AbstractPreparationStep -->
<g id="node16" class="node">
<title>/req/sam&#45;core/AbstractPreparationStep</title>
<polygon fill="none" stroke="black" points="864.5,-659.5 864.5,-680.5 1216.5,-680.5 1216.5,-659.5 864.5,-659.5"/>
<text text-anchor="start" x="900" y="-666.3" font-family="Times,serif" font-size="14.00">/req/sam&#45;core/AbstractPreparationStep</text>
<polygon fill="none" stroke="black" points="864.5,-636.5 864.5,-657.5 1216.5,-657.5 1216.5,-636.5 864.5,-636.5"/>
<text text-anchor="start" x="867.5" y="-643.3" font-family="Times,serif" font-size="14.00">Abstract Sample core &#45; AbstractPreparationStep</text>
<polygon fill="none" stroke="black" points="864.5,-613.5 864.5,-634.5 1216.5,-634.5 1216.5,-613.5 864.5,-613.5"/>
<text text-anchor="start" x="990.5" y="-620.3" font-family="Times,serif" font-size="14.00">Logical model</text>
<polygon fill="none" stroke="black" points="861.5,-611 861.5,-684 1219.5,-684 1219.5,-611 861.5,-611"/>
</g>
<!-- /req/sam&#45;core&#45;&gt;/req/sam&#45;core/AbstractPreparationStep -->
<g id="edge22" class="edge">
<title>/req/sam&#45;core&#45;&gt;/req/sam&#45;core/AbstractPreparationStep</title>
<path fill="none" stroke="black" stroke-dasharray="5,2" d="M770.73,-629.23C796.13,-630.96 823.72,-632.83 851.23,-634.7"/>
<polygon fill="black" stroke="black" points="851.15,-638.2 861.36,-635.39 851.62,-631.22 851.15,-638.2"/>
</g>
<!-- /req/sam&#45;core&#45;&gt;/req/sam&#45;core/AbstractSample -->
<g id="edge17" class="edge">
<title>/req/sam&#45;core&#45;&gt;/req/sam&#45;core/AbstractSample</title>
<path fill="none" stroke="black" stroke-dasharray="5,2" d="M770.67,-586.94C790.55,-580.89 805,-576.5 805,-576.5 805,-576.5 841,-329.5 841,-329.5 841,-329.5 858.72,-325.39 883.56,-319.64"/>
<polygon fill="black" stroke="black" points="884.46,-323.02 893.41,-317.35 882.88,-316.2 884.46,-323.02"/>
</g>
<!-- /req/sam&#45;core&#45;&gt;/req/sam&#45;core/AbstractSampler -->
<g id="edge19" class="edge">
<title>/req/sam&#45;core&#45;&gt;/req/sam&#45;core/AbstractSampler</title>
<path fill="none" stroke="black" stroke-dasharray="5,2" d="M770.67,-586.94C790.55,-580.89 805,-576.5 805,-576.5 805,-576.5 841,-420.5 841,-420.5 841,-420.5 857.02,-416.79 879.96,-411.47"/>
<polygon fill="black" stroke="black" points="880.86,-414.86 889.81,-409.19 879.28,-408.04 880.86,-414.86"/>
</g>
<!-- /req/sam&#45;core&#45;&gt;/req/sam&#45;core/AbstractSampling -->
<g id="edge18" class="edge">
<title>/req/sam&#45;core&#45;&gt;/req/sam&#45;core/AbstractSampling</title>
<path fill="none" stroke="black" stroke-dasharray="5,2" d="M770.67,-586.94C790.55,-580.89 805,-576.5 805,-576.5 805,-576.5 841,-237.5 841,-237.5 841,-237.5 855.22,-234.28 876.04,-229.56"/>
<polygon fill="black" stroke="black" points="877.06,-232.91 886.04,-227.29 875.52,-226.09 877.06,-232.91"/>
</g>
<!-- /req/sam&#45;core/AbstractSamplingProcedure -->
<g id="node20" class="node">
<title>/req/sam&#45;core/AbstractSamplingProcedure</title>
<polygon fill="none" stroke="black" points="852.5,-750.5 852.5,-771.5 1228.5,-771.5 1228.5,-750.5 852.5,-750.5"/>
<text text-anchor="start" x="888.5" y="-757.3" font-family="Times,serif" font-size="14.00">/req/sam&#45;core/AbstractSamplingProcedure</text>
<polygon fill="none" stroke="black" points="852.5,-727.5 852.5,-748.5 1228.5,-748.5 1228.5,-727.5 852.5,-727.5"/>
<text text-anchor="start" x="855.5" y="-734.3" font-family="Times,serif" font-size="14.00">Abstract Sample core &#45; AbstractSamplingProcedure</text>
<polygon fill="none" stroke="black" points="852.5,-704.5 852.5,-725.5 1228.5,-725.5 1228.5,-704.5 852.5,-704.5"/>
<text text-anchor="start" x="990.5" y="-711.3" font-family="Times,serif" font-size="14.00">Logical model</text>
<polygon fill="none" stroke="black" points="849.5,-702 849.5,-775 1231.5,-775 1231.5,-702 849.5,-702"/>
</g>
<!-- /req/sam&#45;core&#45;&gt;/req/sam&#45;core/AbstractSamplingProcedure -->
<g id="edge20" class="edge">
<title>/req/sam&#45;core&#45;&gt;/req/sam&#45;core/AbstractSamplingProcedure</title>
<path fill="none" stroke="black" stroke-dasharray="5,2" d="M750.35,-658.03C795.89,-675.85 841,-693.5 841,-693.5 841,-693.5 851.87,-695.96 868.52,-699.74"/>
<polygon fill="black" stroke="black" points="867.81,-703.17 878.34,-701.96 869.36,-696.34 867.81,-703.17"/>
</g>
<!-- /req/sam&#45;cpt/PreparationProcedure -->
<g id="node22" class="node">
<title>/req/sam&#45;cpt/PreparationProcedure</title>
<polygon fill="none" stroke="black" points="1279,-568.5 1279,-589.5 1595,-589.5 1595,-568.5 1279,-568.5"/>
<text text-anchor="start" x="1310.5" y="-575.3" font-family="Times,serif" font-size="14.00">/req/sam&#45;cpt/PreparationProcedure</text>
<polygon fill="none" stroke="black" points="1279,-545.5 1279,-566.5 1595,-566.5 1595,-545.5 1279,-545.5"/>
<text text-anchor="start" x="1282" y="-552.3" font-family="Times,serif" font-size="14.00">Conceptual Sample &#45; PreparationProcedure</text>
<polygon fill="none" stroke="black" points="1279,-522.5 1279,-543.5 1595,-543.5 1595,-522.5 1279,-522.5"/>
<text text-anchor="start" x="1370.5" y="-529.3" font-family="Times,serif" font-size="14.00">Conceptual m odel</text>
<polygon fill="none" stroke="black" points="1276,-520 1276,-593 1598,-593 1598,-520 1276,-520"/>
</g>
<!-- /req/sam&#45;core/AbstractPreparationProcedure&#45;&gt;/req/sam&#45;cpt/PreparationProcedure -->
<g id="edge23" class="edge">
<title>/req/sam&#45;core/AbstractPreparationProcedure&#45;&gt;/req/sam&#45;cpt/PreparationProcedure</title>
<path fill="none" stroke="black" stroke-dasharray="5,2" d="M1240.19,-556.5C1248.71,-556.5 1257.23,-556.5 1265.67,-556.5"/>
<polygon fill="black" stroke="black" points="1265.94,-560 1275.94,-556.5 1265.94,-553 1265.94,-560"/>
</g>
<!-- /req/sam&#45;cpt/PreparationStep -->
<g id="node23" class="node">
<title>/req/sam&#45;cpt/PreparationStep</title>
<polygon fill="none" stroke="black" points="1299,-659.5 1299,-680.5 1575,-680.5 1575,-659.5 1299,-659.5"/>
<text text-anchor="start" x="1331" y="-666.3" font-family="Times,serif" font-size="14.00">/req/sam&#45;cpt/PreparationStep</text>
<polygon fill="none" stroke="black" points="1299,-636.5 1299,-657.5 1575,-657.5 1575,-636.5 1299,-636.5"/>
<text text-anchor="start" x="1302" y="-643.3" font-family="Times,serif" font-size="14.00">Conceptual Sample &#45; PreparationStep</text>
<polygon fill="none" stroke="black" points="1299,-613.5 1299,-634.5 1575,-634.5 1575,-613.5 1299,-613.5"/>
<text text-anchor="start" x="1372.5" y="-620.3" font-family="Times,serif" font-size="14.00">Conceptual model</text>
<polygon fill="none" stroke="black" points="1296,-611 1296,-684 1578,-684 1578,-611 1296,-611"/>
</g>
<!-- /req/sam&#45;core/AbstractPreparationStep&#45;&gt;/req/sam&#45;cpt/PreparationStep -->
<g id="edge24" class="edge">
<title>/req/sam&#45;core/AbstractPreparationStep&#45;&gt;/req/sam&#45;cpt/PreparationStep</title>
<path fill="none" stroke="black" stroke-dasharray="5,2" d="M1219.71,-647.5C1241.74,-647.5 1264.09,-647.5 1285.66,-647.5"/>
<polygon fill="black" stroke="black" points="1285.83,-651 1295.83,-647.5 1285.83,-644 1285.83,-651"/>
</g>
<!-- /req/sam&#45;core/AbstractSample&#45;&gt;/req/obs&#45;core/NamedValue -->
<g id="edge26" class="edge">
<title>/req/sam&#45;core/AbstractSample&#45;&gt;/req/obs&#45;core/NamedValue</title>
<path fill="none" stroke="black" stroke-dasharray="5,2" d="M1187.56,-249.81C1216.04,-243.24 1246.05,-236.32 1274.98,-229.64"/>
<polygon fill="black" stroke="black" points="1275.79,-233.05 1284.75,-227.39 1274.22,-226.23 1275.79,-233.05"/>
</g>
<!-- /req/sam&#45;cpt/Sample -->
<g id="node24" class="node">
<title>/req/sam&#45;cpt/Sample</title>
<polygon fill="none" stroke="black" points="1332,-386.5 1332,-407.5 1543,-407.5 1543,-386.5 1332,-386.5"/>
<text text-anchor="start" x="1363.5" y="-393.3" font-family="Times,serif" font-size="14.00">/req/sam&#45;cpt/Sample</text>
<polygon fill="none" stroke="black" points="1332,-363.5 1332,-384.5 1543,-384.5 1543,-363.5 1332,-363.5"/>
<text text-anchor="start" x="1335" y="-370.3" font-family="Times,serif" font-size="14.00">Conceptual Sample &#45; Sample</text>
<polygon fill="none" stroke="black" points="1332,-340.5 1332,-361.5 1543,-361.5 1543,-340.5 1332,-340.5"/>
<text text-anchor="start" x="1373" y="-347.3" font-family="Times,serif" font-size="14.00">Conceptual model</text>
<polygon fill="none" stroke="black" points="1328.5,-338 1328.5,-411 1545.5,-411 1545.5,-338 1328.5,-338"/>
</g>
<!-- /req/sam&#45;core/AbstractSample&#45;&gt;/req/sam&#45;cpt/Sample -->
<g id="edge25" class="edge">
<title>/req/sam&#45;core/AbstractSample&#45;&gt;/req/sam&#45;cpt/Sample</title>
<path fill="none" stroke="black" stroke-dasharray="5,2" d="M1187.56,-317.19C1230.72,-327.15 1277.39,-337.91 1318.5,-347.4"/>
<polygon fill="black" stroke="black" points="1317.75,-350.81 1328.28,-349.65 1319.32,-343.99 1317.75,-350.81"/>
</g>
<!-- /req/sam&#45;cpt/Sampler -->
<g id="node25" class="node">
<title>/req/sam&#45;cpt/Sampler</title>
<polygon fill="none" stroke="black" points="1328,-477.5 1328,-498.5 1546,-498.5 1546,-477.5 1328,-477.5"/>
<text text-anchor="start" x="1360" y="-484.3" font-family="Times,serif" font-size="14.00">/req/sam&#45;cpt/Sampler</text>
<polygon fill="none" stroke="black" points="1328,-454.5 1328,-475.5 1546,-475.5 1546,-454.5 1328,-454.5"/>
<text text-anchor="start" x="1331" y="-461.3" font-family="Times,serif" font-size="14.00">Conceptual Sample &#45; Sampler</text>
<polygon fill="none" stroke="black" points="1328,-431.5 1328,-452.5 1546,-452.5 1546,-431.5 1328,-431.5"/>
<text text-anchor="start" x="1372.5" y="-438.3" font-family="Times,serif" font-size="14.00">Conceptual model</text>
<polygon fill="none" stroke="black" points="1325,-429 1325,-502 1549,-502 1549,-429 1325,-429"/>
</g>
<!-- /req/sam&#45;core/AbstractSampler&#45;&gt;/req/sam&#45;cpt/Sampler -->
<g id="edge27" class="edge">
<title>/req/sam&#45;core/AbstractSampler&#45;&gt;/req/sam&#45;cpt/Sampler</title>
<path fill="none" stroke="black" stroke-dasharray="5,2" d="M1191.21,-409.03C1232.1,-418.47 1275.89,-428.57 1314.96,-437.58"/>
<polygon fill="black" stroke="black" points="1314.26,-441.01 1324.79,-439.85 1315.83,-434.19 1314.26,-441.01"/>
</g>
<!-- /req/sam&#45;core/AbstractSampling&#45;&gt;/req/obs&#45;core/NamedValue -->
<g id="edge29" class="edge">
<title>/req/sam&#45;core/AbstractSampling&#45;&gt;/req/obs&#45;core/NamedValue</title>
<path fill="none" stroke="black" stroke-dasharray="5,2" d="M1194.59,-192.5C1220.9,-192.5 1248.32,-192.5 1274.83,-192.5"/>
<polygon fill="black" stroke="black" points="1274.94,-196 1284.94,-192.5 1274.94,-189 1274.94,-196"/>
</g>
<!-- /req/sam&#45;cpt/Sampling -->
<g id="node26" class="node">
<title>/req/sam&#45;cpt/Sampling</title>
<polygon fill="none" stroke="black" points="1324,-295.5 1324,-316.5 1550,-316.5 1550,-295.5 1324,-295.5"/>
<text text-anchor="start" x="1356" y="-302.3" font-family="Times,serif" font-size="14.00">/req/sam&#45;cpt/Sampling</text>
<polygon fill="none" stroke="black" points="1324,-272.5 1324,-293.5 1550,-293.5 1550,-272.5 1324,-272.5"/>
<text text-anchor="start" x="1327" y="-279.3" font-family="Times,serif" font-size="14.00">Conceptual Sample &#45; Sampling</text>
<polygon fill="none" stroke="black" points="1324,-249.5 1324,-270.5 1550,-270.5 1550,-249.5 1324,-249.5"/>
<text text-anchor="start" x="1372.5" y="-256.3" font-family="Times,serif" font-size="14.00">Conceptual model</text>
<polygon fill="none" stroke="black" points="1321,-247 1321,-320 1553,-320 1553,-247 1321,-247"/>
</g>
<!-- /req/sam&#45;core/AbstractSampling&#45;&gt;/req/sam&#45;cpt/Sampling -->
<g id="edge28" class="edge">
<title>/req/sam&#45;core/AbstractSampling&#45;&gt;/req/sam&#45;cpt/Sampling</title>
<path fill="none" stroke="black" stroke-dasharray="5,2" d="M1194.96,-227.29C1221.1,-233.21 1240,-237.5 1240,-237.5 1240,-237.5 1272.45,-245.12 1310.95,-254.15"/>
<polygon fill="black" stroke="black" points="1310.32,-257.6 1320.85,-256.48 1311.92,-250.78 1310.32,-257.6"/>
</g>
<!-- /req/sam&#45;cpt/SamplingProcedure -->
<g id="node27" class="node">
<title>/req/sam&#45;cpt/SamplingProcedure</title>
<polygon fill="none" stroke="black" points="1288,-750.5 1288,-771.5 1587,-771.5 1587,-750.5 1288,-750.5"/>
<text text-anchor="start" x="1320" y="-757.3" font-family="Times,serif" font-size="14.00">/req/sam&#45;cpt/SamplingProcedure</text>
<polygon fill="none" stroke="black" points="1288,-727.5 1288,-748.5 1587,-748.5 1587,-727.5 1288,-727.5"/>
<text text-anchor="start" x="1291" y="-734.3" font-family="Times,serif" font-size="14.00">Conceptual Sample &#45; SamplingProcedure</text>
<polygon fill="none" stroke="black" points="1288,-704.5 1288,-725.5 1587,-725.5 1587,-704.5 1288,-704.5"/>
<text text-anchor="start" x="1371" y="-711.3" font-family="Times,serif" font-size="14.00">Conceptual m odel</text>
<polygon fill="none" stroke="black" points="1284.5,-702 1284.5,-775 1589.5,-775 1589.5,-702 1284.5,-702"/>
</g>
<!-- /req/sam&#45;core/AbstractSamplingProcedure&#45;&gt;/req/sam&#45;cpt/SamplingProcedure -->
<g id="edge30" class="edge">
<title>/req/sam&#45;core/AbstractSamplingProcedure&#45;&gt;/req/sam&#45;cpt/SamplingProcedure</title>
<path fill="none" stroke="black" stroke-dasharray="5,2" d="M1231.53,-738.5C1245.81,-738.5 1260.14,-738.5 1274.23,-738.5"/>
<polygon fill="black" stroke="black" points="1274.43,-742 1284.43,-738.5 1274.43,-735 1274.43,-742"/>
</g>
<!-- /req/sam&#45;cpt -->
<g id="node21" class="node">
<title>/req/sam&#45;cpt</title>
<polygon fill="none" stroke="black" points="907.5,-477.5 907.5,-498.5 1173.5,-498.5 1173.5,-477.5 907.5,-477.5"/>
<text text-anchor="start" x="995.5" y="-484.3" font-family="Times,serif" font-size="14.00">/req/sam&#45;cpt</text>
<polygon fill="none" stroke="black" points="907.5,-454.5 907.5,-475.5 1173.5,-475.5 1173.5,-454.5 907.5,-454.5"/>
<text text-anchor="start" x="910.5" y="-461.3" font-family="Times,serif" font-size="14.00">Conceptual Sample schema package</text>
<polygon fill="none" stroke="black" points="907.5,-431.5 907.5,-452.5 1173.5,-452.5 1173.5,-431.5 907.5,-431.5"/>
<text text-anchor="start" x="976" y="-438.3" font-family="Times,serif" font-size="14.00">Conceptual model</text>
<polygon fill="none" stroke="black" points="904.5,-429 904.5,-502 1176.5,-502 1176.5,-429 904.5,-429"/>
</g>
<!-- /req/sam&#45;cpt&#45;&gt;/req/sam&#45;cpt/PreparationProcedure -->
<g id="edge35" class="edge">
<title>/req/sam&#45;cpt&#45;&gt;/req/sam&#45;cpt/PreparationProcedure</title>
<path fill="none" stroke="black" stroke-dasharray="5,2" d="M1176.71,-496.69C1206,-503.44 1237.31,-510.67 1267.69,-517.68"/>
<polygon fill="black" stroke="black" points="1266.99,-521.11 1277.52,-519.94 1268.56,-514.28 1266.99,-521.11"/>
</g>
<!-- /req/sam&#45;cpt&#45;&gt;/req/sam&#45;cpt/PreparationStep -->
<g id="edge34" class="edge">
<title>/req/sam&#45;cpt&#45;&gt;/req/sam&#45;cpt/PreparationStep</title>
<path fill="none" stroke="black" stroke-dasharray="5,2" d="M1176.65,-496.82C1211.79,-504.96 1240,-511.5 1240,-511.5 1240,-511.5 1276,-602.5 1276,-602.5 1276,-602.5 1283.97,-604.74 1296.35,-608.22"/>
<polygon fill="black" stroke="black" points="1295.52,-611.63 1306.09,-610.96 1297.42,-604.89 1295.52,-611.63"/>
</g>
<!-- /req/sam&#45;cpt&#45;&gt;/req/sam&#45;cpt/Sample -->
<g id="edge31" class="edge">
<title>/req/sam&#45;cpt&#45;&gt;/req/sam&#45;cpt/Sample</title>
<path fill="none" stroke="black" stroke-dasharray="5,2" d="M1176.65,-434.86C1211.79,-426.89 1240,-420.5 1240,-420.5 1240,-420.5 1276.76,-411.87 1318.44,-402.09"/>
<polygon fill="black" stroke="black" points="1319.32,-405.48 1328.25,-399.79 1317.72,-398.67 1319.32,-405.48"/>
</g>
<!-- /req/sam&#45;cpt&#45;&gt;/req/sam&#45;cpt/Sampler -->
<g id="edge33" class="edge">
<title>/req/sam&#45;cpt&#45;&gt;/req/sam&#45;cpt/Sampler</title>
<path fill="none" stroke="black" stroke-dasharray="5,2" d="M1176.71,-465.5C1221.51,-465.5 1271.07,-465.5 1314.75,-465.5"/>
<polygon fill="black" stroke="black" points="1314.84,-469 1324.84,-465.5 1314.84,-462 1314.84,-469"/>
</g>
<!-- /req/sam&#45;cpt&#45;&gt;/req/sam&#45;cpt/Sampling -->
<g id="edge32" class="edge">
<title>/req/sam&#45;cpt&#45;&gt;/req/sam&#45;cpt/Sampling</title>
<path fill="none" stroke="black" stroke-dasharray="5,2" d="M1176.65,-434.86C1211.79,-426.89 1240,-420.5 1240,-420.5 1240,-420.5 1276,-329.5 1276,-329.5 1276,-329.5 1290.71,-325.27 1311.2,-319.38"/>
<polygon fill="black" stroke="black" points="1312.35,-322.69 1320.99,-316.56 1310.42,-315.96 1312.35,-322.69"/>
</g>
<!-- /req/sam&#45;cpt&#45;&gt;/req/sam&#45;cpt/SamplingProcedure -->
<g id="edge36" class="edge">
<title>/req/sam&#45;cpt&#45;&gt;/req/sam&#45;cpt/SamplingProcedure</title>
<path fill="none" stroke="black" stroke-dasharray="5,2" d="M1176.65,-496.82C1211.79,-504.96 1240,-511.5 1240,-511.5 1240,-511.5 1276,-693.5 1276,-693.5 1276,-693.5 1283.97,-695.74 1296.35,-699.22"/>
<polygon fill="black" stroke="black" points="1295.52,-702.63 1306.09,-701.96 1297.42,-695.89 1295.52,-702.63"/>
</g>
<!-- /req/sam&#45;cpt/PreparationProcedure&#45;&gt;/req/obs&#45;cpt/Procedure -->
<g id="edge37" class="edge">
<title>/req/sam&#45;cpt/PreparationProcedure&#45;&gt;/req/obs&#45;cpt/Procedure</title>
<path fill="none" stroke="black" stroke-dasharray="5,2" d="M1571,-593.12C1589.09,-598.1 1607.72,-603.23 1625.97,-608.26"/>
<polygon fill="black" stroke="black" points="1625.2,-611.67 1635.77,-610.96 1627.06,-604.93 1625.2,-611.67"/>
</g>
<!-- /req/sam&#45;cpt/SamplingProcedure&#45;&gt;/req/obs&#45;cpt/Procedure -->
<g id="edge38" class="edge">
<title>/req/sam&#45;cpt/SamplingProcedure&#45;&gt;/req/obs&#45;cpt/Procedure</title>
<path fill="none" stroke="black" stroke-dasharray="5,2" d="M1571,-701.88C1589.09,-696.9 1607.72,-691.77 1625.97,-686.74"/>
<polygon fill="black" stroke="black" points="1627.06,-690.07 1635.77,-684.04 1625.2,-683.33 1627.06,-690.07"/>
</g>
</g>
</svg>
