<?xml version="1.0" encoding="UTF-8" standalone="no"?>
<!DOCTYPE svg PUBLIC "-//W3C//DTD SVG 1.1//EN"
 "http://www.w3.org/Graphics/SVG/1.1/DTD/svg11.dtd">
<!-- Generated by graphviz version 2.43.0 (0)
 -->
<!-- Title: G Pages: 1 -->
<svg width="1107pt" height="244pt"
 viewBox="0.00 0.00 1107.00 243.50" xmlns="http://www.w3.org/2000/svg" xmlns:xlink="http://www.w3.org/1999/xlink">
<g id="graph0" class="graph" transform="scale(1 1) rotate(0) translate(4 239.5)">
<title>G</title>
<polygon fill="white" stroke="transparent" points="-4,4 -4,-239.5 1103,-239.5 1103,4 -4,4"/>
<!-- /req/sam&#45;cpt/SamplingProcedure/SamplingProcedure&#45;sem -->
<g id="node1" class="node">
<title>/req/sam&#45;cpt/SamplingProcedure/SamplingProcedure&#45;sem</title>
<polygon fill="none" stroke="black" points="772,-235.5 341,-235.5 341,-199.5 772,-199.5 772,-235.5"/>
<text text-anchor="middle" x="556.5" y="-213.8" font-family="Times,serif" font-size="14.00">/req/sam&#45;cpt/SamplingProcedure/SamplingProcedure&#45;sem</text>
</g>
<!-- /req/sam&#45;cpt/SamplingProcedure/sampling&#45;sem -->
<g id="node2" class="node">
<title>/req/sam&#45;cpt/SamplingProcedure/sampling&#45;sem</title>
<polygon fill="none" stroke="black" points="734,-181.5 379,-181.5 379,-145.5 734,-145.5 734,-181.5"/>
<text text-anchor="middle" x="556.5" y="-159.8" font-family="Times,serif" font-size="14.00">/req/sam&#45;cpt/SamplingProcedure/sampling&#45;sem</text>
</g>
<!-- /req/sam&#45;cpt/SamplingProcedure/sampler&#45;sem -->
<g id="node3" class="node">
<title>/req/sam&#45;cpt/SamplingProcedure/sampler&#45;sem</title>
<polygon fill="none" stroke="black" points="730,-127.5 383,-127.5 383,-91.5 730,-91.5 730,-127.5"/>
<text text-anchor="middle" x="556.5" y="-105.8" font-family="Times,serif" font-size="14.00">/req/sam&#45;cpt/SamplingProcedure/sampler&#45;sem</text>
</g>
<!-- /req/obs&#45;cpt/Procedure/Procedure&#45;sem -->
<g id="node4" class="node">
<title>/req/obs&#45;cpt/Procedure/Procedure&#45;sem</title>
<polygon fill="none" stroke="black" points="1099,-54.5 808,-54.5 808,-18.5 1099,-18.5 1099,-54.5"/>
<text text-anchor="middle" x="953.5" y="-32.8" font-family="Times,serif" font-size="14.00">/req/obs&#45;cpt/Procedure/Procedure&#45;sem</text>
</g>
<!-- /req/sam&#45;cpt/SamplingProcedure -->
<g id="node5" class="node">
<title>/req/sam&#45;cpt/SamplingProcedure</title>
<polygon fill="none" stroke="black" points="3.5,-148.5 3.5,-169.5 302.5,-169.5 302.5,-148.5 3.5,-148.5"/>
<text text-anchor="start" x="35.5" y="-155.3" font-family="Times,serif" font-size="14.00">/req/sam&#45;cpt/SamplingProcedure</text>
<polygon fill="none" stroke="black" points="3.5,-125.5 3.5,-146.5 302.5,-146.5 302.5,-125.5 3.5,-125.5"/>
<text text-anchor="start" x="6.5" y="-132.3" font-family="Times,serif" font-size="14.00">Conceptual Sample &#45; SamplingProcedure</text>
<polygon fill="none" stroke="black" points="3.5,-102.5 3.5,-123.5 302.5,-123.5 302.5,-102.5 3.5,-102.5"/>
<text text-anchor="start" x="86.5" y="-109.3" font-family="Times,serif" font-size="14.00">Conceptual m odel</text>
<polygon fill="none" stroke="black" points="0,-100 0,-173 305,-173 305,-100 0,-100"/>
</g>
<!-- /req/sam&#45;cpt/SamplingProcedure&#45;&gt;/req/sam&#45;cpt/SamplingProcedure/SamplingProcedure&#45;sem -->
<g id="edge1" class="edge">
<title>/req/sam&#45;cpt/SamplingProcedure&#45;&gt;/req/sam&#45;cpt/SamplingProcedure/SamplingProcedure&#45;sem</title>
<path fill="none" stroke="black" d="M280.38,-173.04C313.94,-182.71 341,-190.5 341,-190.5 341,-190.5 367.8,-193.87 402.46,-198.24"/>
<polygon fill="black" stroke="black" points="402.07,-201.71 412.43,-199.49 402.94,-194.77 402.07,-201.71"/>
</g>
<!-- /req/sam&#45;cpt/SamplingProcedure&#45;&gt;/req/sam&#45;cpt/SamplingProcedure/sampling&#45;sem -->
<g id="edge2" class="edge">
<title>/req/sam&#45;cpt/SamplingProcedure&#45;&gt;/req/sam&#45;cpt/SamplingProcedure/sampling&#45;sem</title>
<path fill="none" stroke="black" d="M305.19,-146.69C325.93,-148.08 347.42,-149.52 368.69,-150.95"/>
<polygon fill="black" stroke="black" points="368.57,-154.45 378.78,-151.63 369.04,-147.47 368.57,-154.45"/>
</g>
<!-- /req/sam&#45;cpt/SamplingProcedure&#45;&gt;/req/sam&#45;cpt/SamplingProcedure/sampler&#45;sem -->
<g id="edge3" class="edge">
<title>/req/sam&#45;cpt/SamplingProcedure&#45;&gt;/req/sam&#45;cpt/SamplingProcedure/sampler&#45;sem</title>
<path fill="none" stroke="black" d="M305.19,-126.31C327.28,-124.83 350.22,-123.29 372.85,-121.77"/>
<polygon fill="black" stroke="black" points="373.12,-125.26 382.87,-121.09 372.65,-118.27 373.12,-125.26"/>
</g>
<!-- /req/obs&#45;cpt/Procedure -->
<g id="node6" class="node">
<title>/req/obs&#45;cpt/Procedure</title>
<polygon fill="none" stroke="black" points="424.5,-48.5 424.5,-69.5 689.5,-69.5 689.5,-48.5 424.5,-48.5"/>
<text text-anchor="start" x="475.5" y="-55.3" font-family="Times,serif" font-size="14.00">/req/obs&#45;cpt/Procedure</text>
<polygon fill="none" stroke="black" points="424.5,-25.5 424.5,-46.5 689.5,-46.5 689.5,-25.5 424.5,-25.5"/>
<text text-anchor="start" x="427.5" y="-32.3" font-family="Times,serif" font-size="14.00">Conceptual Observation &#45; Procedure</text>
<polygon fill="none" stroke="black" points="424.5,-2.5 424.5,-23.5 689.5,-23.5 689.5,-2.5 424.5,-2.5"/>
<text text-anchor="start" x="492.5" y="-9.3" font-family="Times,serif" font-size="14.00">Conceptual model</text>
<polygon fill="none" stroke="black" points="421,0 421,-73 692,-73 692,0 421,0"/>
</g>
<!-- /req/sam&#45;cpt/SamplingProcedure&#45;&gt;/req/obs&#45;cpt/Procedure -->
<g id="edge4" class="edge">
<title>/req/sam&#45;cpt/SamplingProcedure&#45;&gt;/req/obs&#45;cpt/Procedure</title>
<path fill="none" stroke="black" stroke-dasharray="5,2" d="M280.38,-99.96C313.94,-90.29 341,-82.5 341,-82.5 341,-82.5 372.25,-75.8 410.9,-67.51"/>
<polygon fill="black" stroke="black" points="411.83,-70.89 420.87,-65.37 410.36,-64.05 411.83,-70.89"/>
</g>
<!-- /req/obs&#45;cpt/Procedure&#45;&gt;/req/obs&#45;cpt/Procedure/Procedure&#45;sem -->
<g id="edge5" class="edge">
<title>/req/obs&#45;cpt/Procedure&#45;&gt;/req/obs&#45;cpt/Procedure/Procedure&#45;sem</title>
<path fill="none" stroke="black" d="M692.06,-36.5C726.04,-36.5 762.8,-36.5 797.69,-36.5"/>
<polygon fill="black" stroke="black" points="797.96,-40 807.96,-36.5 797.96,-33 797.96,-40"/>
</g>
</g>
</svg>
