<?xml version="1.0" encoding="UTF-8" standalone="no"?>
<!DOCTYPE svg PUBLIC "-//W3C//DTD SVG 1.1//EN"
 "http://www.w3.org/Graphics/SVG/1.1/DTD/svg11.dtd">
<!-- Generated by graphviz version 2.43.0 (0)
 -->
<!-- Title: G Pages: 1 -->
<svg width="1942pt" height="1089pt"
 viewBox="0.00 0.00 1942.00 1089.00" xmlns="http://www.w3.org/2000/svg" xmlns:xlink="http://www.w3.org/1999/xlink">
<g id="graph0" class="graph" transform="scale(1 1) rotate(0) translate(4 1085)">
<title>G</title>
<polygon fill="white" stroke="transparent" points="-4,4 -4,-1085 1938,-1085 1938,4 -4,4"/>
<!-- /req/obs&#45;core/AbstractObservationCharacteristics/AbstractObservationCharacteristics&#45;sem -->
<g id="node1" class="node">
<title>/req/obs&#45;core/AbstractObservationCharacteristics/AbstractObservationCharacteristics&#45;sem</title>
<polygon fill="none" stroke="black" points="1566,-1081 901,-1081 901,-1045 1566,-1045 1566,-1081"/>
<text text-anchor="middle" x="1233.5" y="-1059.3" font-family="Times,serif" font-size="14.00">/req/obs&#45;core/AbstractObservationCharacteristics/AbstractObservationCharacteristics&#45;sem</text>
</g>
<!-- /req/obs&#45;core/AbstractObservationCharacteristics/type&#45;sem -->
<g id="node2" class="node">
<title>/req/obs&#45;core/AbstractObservationCharacteristics/type&#45;sem</title>
<polygon fill="none" stroke="black" points="1453.5,-1027 1013.5,-1027 1013.5,-991 1453.5,-991 1453.5,-1027"/>
<text text-anchor="middle" x="1233.5" y="-1005.3" font-family="Times,serif" font-size="14.00">/req/obs&#45;core/AbstractObservationCharacteristics/type&#45;sem</text>
</g>
<!-- /req/obs&#45;core/AbstractObservationCharacteristics/parameter&#45;sem -->
<g id="node3" class="node">
<title>/req/obs&#45;core/AbstractObservationCharacteristics/parameter&#45;sem</title>
<polygon fill="none" stroke="black" points="1475.5,-973 991.5,-973 991.5,-937 1475.5,-937 1475.5,-973"/>
<text text-anchor="middle" x="1233.5" y="-951.3" font-family="Times,serif" font-size="14.00">/req/obs&#45;core/AbstractObservationCharacteristics/parameter&#45;sem</text>
</g>
<!-- /req/obs&#45;core/AbstractObservationCharacteristics/resultQuality&#45;sem -->
<g id="node4" class="node">
<title>/req/obs&#45;core/AbstractObservationCharacteristics/resultQuality&#45;sem</title>
<polygon fill="none" stroke="black" points="1485,-919 982,-919 982,-883 1485,-883 1485,-919"/>
<text text-anchor="middle" x="1233.5" y="-897.3" font-family="Times,serif" font-size="14.00">/req/obs&#45;core/AbstractObservationCharacteristics/resultQuality&#45;sem</text>
</g>
<!-- /req/obs&#45;cpt/Observation/phenomenonTime&#45;sem -->
<g id="node5" class="node">
<title>/req/obs&#45;cpt/Observation/phenomenonTime&#45;sem</title>
<polygon fill="none" stroke="black" points="1412.5,-865 1054.5,-865 1054.5,-829 1412.5,-829 1412.5,-865"/>
<text text-anchor="middle" x="1233.5" y="-843.3" font-family="Times,serif" font-size="14.00">/req/obs&#45;cpt/Observation/phenomenonTime&#45;sem</text>
</g>
<!-- /req/obs&#45;cpt/Observation/resultTime&#45;sem -->
<g id="node6" class="node">
<title>/req/obs&#45;cpt/Observation/resultTime&#45;sem</title>
<polygon fill="none" stroke="black" points="1387.5,-811 1079.5,-811 1079.5,-775 1387.5,-775 1387.5,-811"/>
<text text-anchor="middle" x="1233.5" y="-789.3" font-family="Times,serif" font-size="14.00">/req/obs&#45;cpt/Observation/resultTime&#45;sem</text>
</g>
<!-- /req/obs&#45;cpt/Observation/validTime&#45;sem -->
<g id="node7" class="node">
<title>/req/obs&#45;cpt/Observation/validTime&#45;sem</title>
<polygon fill="none" stroke="black" points="1384,-757 1083,-757 1083,-721 1384,-721 1384,-757"/>
<text text-anchor="middle" x="1233.5" y="-735.3" font-family="Times,serif" font-size="14.00">/req/obs&#45;cpt/Observation/validTime&#45;sem</text>
</g>
<!-- /req/obs&#45;cpt/Observation/featureOfInterest&#45;sem -->
<g id="node8" class="node">
<title>/req/obs&#45;cpt/Observation/featureOfInterest&#45;sem</title>
<polygon fill="none" stroke="black" points="1411.5,-703 1055.5,-703 1055.5,-667 1411.5,-667 1411.5,-703"/>
<text text-anchor="middle" x="1233.5" y="-681.3" font-family="Times,serif" font-size="14.00">/req/obs&#45;cpt/Observation/featureOfInterest&#45;sem</text>
</g>
<!-- /req/obs&#45;core/AbstractObservationCharacteristics/pFoI&#45;sem -->
<g id="node9" class="node">
<title>/req/obs&#45;core/AbstractObservationCharacteristics/pFoI&#45;sem</title>
<polygon fill="none" stroke="black" points="1453.5,-649 1013.5,-649 1013.5,-613 1453.5,-613 1453.5,-649"/>
<text text-anchor="middle" x="1233.5" y="-627.3" font-family="Times,serif" font-size="14.00">/req/obs&#45;core/AbstractObservationCharacteristics/pFoI&#45;sem</text>
</g>
<!-- /req/obs&#45;core/AbstractObservationCharacteristics/uFoI&#45;sem -->
<g id="node10" class="node">
<title>/req/obs&#45;core/AbstractObservationCharacteristics/uFoI&#45;sem</title>
<polygon fill="none" stroke="black" points="1453.5,-595 1013.5,-595 1013.5,-559 1453.5,-559 1453.5,-595"/>
<text text-anchor="middle" x="1233.5" y="-573.3" font-family="Times,serif" font-size="14.00">/req/obs&#45;core/AbstractObservationCharacteristics/uFoI&#45;sem</text>
</g>
<!-- /req/obs&#45;cpt/Observation/observedProperty&#45;sem -->
<g id="node11" class="node">
<title>/req/obs&#45;cpt/Observation/observedProperty&#45;sem</title>
<polygon fill="none" stroke="black" points="1413,-541 1054,-541 1054,-505 1413,-505 1413,-541"/>
<text text-anchor="middle" x="1233.5" y="-519.3" font-family="Times,serif" font-size="14.00">/req/obs&#45;cpt/Observation/observedProperty&#45;sem</text>
</g>
<!-- /req/obs&#45;cpt/Observation/result&#45;sem -->
<g id="node12" class="node">
<title>/req/obs&#45;cpt/Observation/result&#45;sem</title>
<polygon fill="none" stroke="black" points="1370,-487 1097,-487 1097,-451 1370,-451 1370,-487"/>
<text text-anchor="middle" x="1233.5" y="-465.3" font-family="Times,serif" font-size="14.00">/req/obs&#45;cpt/Observation/result&#45;sem</text>
</g>
<!-- /req/obs&#45;cpt/Observation/procedure&#45;sem -->
<g id="node13" class="node">
<title>/req/obs&#45;cpt/Observation/procedure&#45;sem</title>
<polygon fill="none" stroke="black" points="1385.5,-433 1081.5,-433 1081.5,-397 1385.5,-397 1385.5,-433"/>
<text text-anchor="middle" x="1233.5" y="-411.3" font-family="Times,serif" font-size="14.00">/req/obs&#45;cpt/Observation/procedure&#45;sem</text>
</g>
<!-- /req/obs&#45;cpt/Observation/observer&#45;sem -->
<g id="node14" class="node">
<title>/req/obs&#45;cpt/Observation/observer&#45;sem</title>
<polygon fill="none" stroke="black" points="1380.5,-379 1086.5,-379 1086.5,-343 1380.5,-343 1380.5,-379"/>
<text text-anchor="middle" x="1233.5" y="-357.3" font-family="Times,serif" font-size="14.00">/req/obs&#45;cpt/Observation/observer&#45;sem</text>
</g>
<!-- /req/obs&#45;cpt/Observation/host&#45;sem -->
<g id="node15" class="node">
<title>/req/obs&#45;cpt/Observation/host&#45;sem</title>
<polygon fill="none" stroke="black" points="1364.5,-325 1102.5,-325 1102.5,-289 1364.5,-289 1364.5,-325"/>
<text text-anchor="middle" x="1233.5" y="-303.3" font-family="Times,serif" font-size="14.00">/req/obs&#45;cpt/Observation/host&#45;sem</text>
</g>
<!-- /req/obs&#45;cpt/gen/relatedObservation&#45;sem -->
<g id="node16" class="node">
<title>/req/obs&#45;cpt/gen/relatedObservation&#45;sem</title>
<polygon fill="none" stroke="black" points="1387.5,-271 1079.5,-271 1079.5,-235 1387.5,-235 1387.5,-271"/>
<text text-anchor="middle" x="1233.5" y="-249.3" font-family="Times,serif" font-size="14.00">/req/obs&#45;cpt/gen/relatedObservation&#45;sem</text>
</g>
<!-- /req/obs&#45;core/gen/metadata&#45;sem -->
<g id="node17" class="node">
<title>/req/obs&#45;core/gen/metadata&#45;sem</title>
<polygon fill="none" stroke="black" points="1356.5,-217 1110.5,-217 1110.5,-181 1356.5,-181 1356.5,-217"/>
<text text-anchor="middle" x="1233.5" y="-195.3" font-family="Times,serif" font-size="14.00">/req/obs&#45;core/gen/metadata&#45;sem</text>
</g>
<!-- /req/obs&#45;core/NamedValue/NamedValue&#45;sem -->
<g id="node18" class="node">
<title>/req/obs&#45;core/NamedValue/NamedValue&#45;sem</title>
<polygon fill="none" stroke="black" points="1934,-144 1602,-144 1602,-108 1934,-108 1934,-144"/>
<text text-anchor="middle" x="1768" y="-122.3" font-family="Times,serif" font-size="14.00">/req/obs&#45;core/NamedValue/NamedValue&#45;sem</text>
</g>
<!-- /req/obs&#45;core/NamedValue/name&#45;sem -->
<g id="node19" class="node">
<title>/req/obs&#45;core/NamedValue/name&#45;sem</title>
<polygon fill="none" stroke="black" points="1908.5,-90 1627.5,-90 1627.5,-54 1908.5,-54 1908.5,-90"/>
<text text-anchor="middle" x="1768" y="-68.3" font-family="Times,serif" font-size="14.00">/req/obs&#45;core/NamedValue/name&#45;sem</text>
</g>
<!-- /req/obs&#45;core/NamedValue/value&#45;sem -->
<g id="node20" class="node">
<title>/req/obs&#45;core/NamedValue/value&#45;sem</title>
<polygon fill="none" stroke="black" points="1908.5,-36 1627.5,-36 1627.5,0 1908.5,0 1908.5,-36"/>
<text text-anchor="middle" x="1768" y="-14.3" font-family="Times,serif" font-size="14.00">/req/obs&#45;core/NamedValue/value&#45;sem</text>
</g>
<!-- /rec/obs&#45;core/AbstractObservationCharacteristics/uFoI -->
<g id="node21" class="node">
<title>/rec/obs&#45;core/AbstractObservationCharacteristics/uFoI</title>
<polygon fill="none" stroke="black" stroke-dasharray="1,5" points="1436,-163 1031,-163 1031,-127 1436,-127 1436,-163"/>
<text text-anchor="middle" x="1233.5" y="-141.3" font-family="Times,serif" font-size="14.00">/rec/obs&#45;core/AbstractObservationCharacteristics/uFoI</text>
</g>
<!-- /req/obs&#45;basic/ObservationCharacteristics -->
<g id="node22" class="node">
<title>/req/obs&#45;basic/ObservationCharacteristics</title>
<polygon fill="none" stroke="black" points="3.5,-589 3.5,-610 356.5,-610 356.5,-589 3.5,-589"/>
<text text-anchor="start" x="30" y="-595.8" font-family="Times,serif" font-size="14.00">/req/obs&#45;basic/ObservationCharacteristics</text>
<polygon fill="none" stroke="black" points="3.5,-566 3.5,-587 356.5,-587 356.5,-566 3.5,-566"/>
<text text-anchor="start" x="6.5" y="-572.8" font-family="Times,serif" font-size="14.00">Basic Observations &#45; ObservationCharacteristics</text>
<polygon fill="none" stroke="black" points="3.5,-543 3.5,-564 356.5,-564 356.5,-543 3.5,-543"/>
<text text-anchor="start" x="130" y="-549.8" font-family="Times,serif" font-size="14.00">Logical model</text>
<polygon fill="none" stroke="black" points="0,-540.5 0,-613.5 359,-613.5 359,-540.5 0,-540.5"/>
</g>
<!-- /req/obs&#45;core/AbstractObservationCharacteristics -->
<g id="node23" class="node">
<title>/req/obs&#45;core/AbstractObservationCharacteristics</title>
<polygon fill="none" stroke="black" points="398,-589 398,-610 862,-610 862,-589 398,-589"/>
<text text-anchor="start" x="452.5" y="-595.8" font-family="Times,serif" font-size="14.00">/req/obs&#45;core/AbstractObservationCharacteristics</text>
<polygon fill="none" stroke="black" points="398,-566 398,-587 862,-587 862,-566 398,-566"/>
<text text-anchor="start" x="401" y="-572.8" font-family="Times,serif" font-size="14.00">Abstract Observation core &#45; AbstractObservationCharacteristics</text>
<polygon fill="none" stroke="black" points="398,-543 398,-564 862,-564 862,-543 398,-543"/>
<text text-anchor="start" x="580" y="-549.8" font-family="Times,serif" font-size="14.00">Logical model</text>
<polygon fill="none" stroke="black" points="395,-540.5 395,-613.5 865,-613.5 865,-540.5 395,-540.5"/>
</g>
<!-- /req/obs&#45;basic/ObservationCharacteristics&#45;&gt;/req/obs&#45;core/AbstractObservationCharacteristics -->
<g id="edge1" class="edge">
<title>/req/obs&#45;basic/ObservationCharacteristics&#45;&gt;/req/obs&#45;core/AbstractObservationCharacteristics</title>
<path fill="none" stroke="black" stroke-dasharray="5,2" d="M359.05,-577C367.56,-577 376.17,-577 384.82,-577"/>
<polygon fill="black" stroke="black" points="384.98,-580.5 394.98,-577 384.98,-573.5 384.98,-580.5"/>
</g>
<!-- /req/obs&#45;core/AbstractObservationCharacteristics&#45;&gt;/req/obs&#45;core/AbstractObservationCharacteristics/AbstractObservationCharacteristics&#45;sem -->
<g id="edge2" class="edge">
<title>/req/obs&#45;core/AbstractObservationCharacteristics&#45;&gt;/req/obs&#45;core/AbstractObservationCharacteristics/AbstractObservationCharacteristics&#45;sem</title>
<path fill="none" stroke="black" d="M652.64,-613.79C716.71,-722.7 901,-1036 901,-1036 901,-1036 945.12,-1039.59 1001.17,-1044.16"/>
<polygon fill="black" stroke="black" points="1001.13,-1047.67 1011.38,-1044.99 1001.7,-1040.69 1001.13,-1047.67"/>
</g>
<!-- /req/obs&#45;core/AbstractObservationCharacteristics&#45;&gt;/req/obs&#45;core/AbstractObservationCharacteristics/type&#45;sem -->
<g id="edge3" class="edge">
<title>/req/obs&#45;core/AbstractObservationCharacteristics&#45;&gt;/req/obs&#45;core/AbstractObservationCharacteristics/type&#45;sem</title>
<path fill="none" stroke="black" d="M655.44,-613.66C721.9,-713.35 901,-982 901,-982 901,-982 946.2,-985.68 1003.22,-990.33"/>
<polygon fill="black" stroke="black" points="1002.98,-993.82 1013.23,-991.14 1003.55,-986.84 1002.98,-993.82"/>
</g>
<!-- /req/obs&#45;core/AbstractObservationCharacteristics&#45;&gt;/req/obs&#45;core/AbstractObservationCharacteristics/parameter&#45;sem -->
<g id="edge4" class="edge">
<title>/req/obs&#45;core/AbstractObservationCharacteristics&#45;&gt;/req/obs&#45;core/AbstractObservationCharacteristics/parameter&#45;sem</title>
<path fill="none" stroke="black" d="M659.13,-613.57C728.28,-703.47 901,-928 901,-928 901,-928 945.12,-931.59 1001.17,-936.16"/>
<polygon fill="black" stroke="black" points="1001.13,-939.67 1011.38,-936.99 1001.7,-932.69 1001.13,-939.67"/>
</g>
<!-- /req/obs&#45;core/AbstractObservationCharacteristics&#45;&gt;/req/obs&#45;core/AbstractObservationCharacteristics/resultQuality&#45;sem -->
<g id="edge5" class="edge">
<title>/req/obs&#45;core/AbstractObservationCharacteristics&#45;&gt;/req/obs&#45;core/AbstractObservationCharacteristics/resultQuality&#45;sem</title>
<path fill="none" stroke="black" d="M664.38,-613.72C736.62,-693.18 901,-874 901,-874 901,-874 945.12,-877.59 1001.17,-882.16"/>
<polygon fill="black" stroke="black" points="1001.13,-885.67 1011.38,-882.99 1001.7,-878.69 1001.13,-885.67"/>
</g>
<!-- /req/obs&#45;core/AbstractObservationCharacteristics&#45;&gt;/req/obs&#45;cpt/Observation/phenomenonTime&#45;sem -->
<g id="edge6" class="edge">
<title>/req/obs&#45;core/AbstractObservationCharacteristics&#45;&gt;/req/obs&#45;cpt/Observation/phenomenonTime&#45;sem</title>
<path fill="none" stroke="black" d="M671.71,-613.64C747.14,-681.53 901,-820 901,-820 901,-820 969.39,-825.57 1044.05,-831.65"/>
<polygon fill="black" stroke="black" points="1043.88,-835.15 1054.14,-832.47 1044.45,-828.17 1043.88,-835.15"/>
</g>
<!-- /req/obs&#45;core/AbstractObservationCharacteristics&#45;&gt;/req/obs&#45;cpt/Observation/resultTime&#45;sem -->
<g id="edge7" class="edge">
<title>/req/obs&#45;core/AbstractObservationCharacteristics&#45;&gt;/req/obs&#45;cpt/Observation/resultTime&#45;sem</title>
<path fill="none" stroke="black" d="M683.38,-613.67C761.9,-668.63 901,-766 901,-766 901,-766 985.5,-772.88 1069.17,-779.7"/>
<polygon fill="black" stroke="black" points="1069.11,-783.2 1079.36,-780.53 1069.68,-776.23 1069.11,-783.2"/>
</g>
<!-- /req/obs&#45;core/AbstractObservationCharacteristics&#45;&gt;/req/obs&#45;cpt/Observation/validTime&#45;sem -->
<g id="edge8" class="edge">
<title>/req/obs&#45;core/AbstractObservationCharacteristics&#45;&gt;/req/obs&#45;cpt/Observation/validTime&#45;sem</title>
<path fill="none" stroke="black" d="M704.07,-613.53C784.03,-653.51 901,-712 901,-712 901,-712 987.89,-719.08 1072.69,-725.98"/>
<polygon fill="black" stroke="black" points="1072.5,-729.48 1082.75,-726.8 1073.07,-722.5 1072.5,-729.48"/>
</g>
<!-- /req/obs&#45;core/AbstractObservationCharacteristics&#45;&gt;/req/obs&#45;cpt/Observation/featureOfInterest&#45;sem -->
<g id="edge9" class="edge">
<title>/req/obs&#45;core/AbstractObservationCharacteristics&#45;&gt;/req/obs&#45;cpt/Observation/featureOfInterest&#45;sem</title>
<path fill="none" stroke="black" d="M752.97,-613.59C824.52,-635.06 901,-658 901,-658 901,-658 969.96,-663.62 1044.97,-669.73"/>
<polygon fill="black" stroke="black" points="1044.85,-673.23 1055.1,-670.55 1045.42,-666.25 1044.85,-673.23"/>
</g>
<!-- /req/obs&#45;core/AbstractObservationCharacteristics&#45;&gt;/req/obs&#45;core/AbstractObservationCharacteristics/pFoI&#45;sem -->
<g id="edge10" class="edge">
<title>/req/obs&#45;core/AbstractObservationCharacteristics&#45;&gt;/req/obs&#45;core/AbstractObservationCharacteristics/pFoI&#45;sem</title>
<path fill="none" stroke="black" d="M865.15,-600.41C886.9,-602.59 901,-604 901,-604 901,-604 946.2,-607.68 1003.22,-612.33"/>
<polygon fill="black" stroke="black" points="1002.98,-615.82 1013.23,-613.14 1003.55,-608.84 1002.98,-615.82"/>
</g>
<!-- /req/obs&#45;core/AbstractObservationCharacteristics&#45;&gt;/req/obs&#45;core/AbstractObservationCharacteristics/uFoI&#45;sem -->
<g id="edge11" class="edge">
<title>/req/obs&#45;core/AbstractObservationCharacteristics&#45;&gt;/req/obs&#45;core/AbstractObservationCharacteristics/uFoI&#45;sem</title>
<path fill="none" stroke="black" d="M865.28,-577C910.51,-577 957.86,-577 1002.94,-577"/>
<polygon fill="black" stroke="black" points="1003.13,-580.5 1013.13,-577 1003.13,-573.5 1003.13,-580.5"/>
</g>
<!-- /req/obs&#45;core/AbstractObservationCharacteristics&#45;&gt;/req/obs&#45;cpt/Observation/observedProperty&#45;sem -->
<g id="edge12" class="edge">
<title>/req/obs&#45;core/AbstractObservationCharacteristics&#45;&gt;/req/obs&#45;cpt/Observation/observedProperty&#45;sem</title>
<path fill="none" stroke="black" d="M865.15,-553.59C886.9,-551.41 901,-550 901,-550 901,-550 969.11,-544.45 1043.59,-538.39"/>
<polygon fill="black" stroke="black" points="1043.97,-541.87 1053.65,-537.57 1043.4,-534.89 1043.97,-541.87"/>
</g>
<!-- /req/obs&#45;core/AbstractObservationCharacteristics&#45;&gt;/req/obs&#45;cpt/Observation/result&#45;sem -->
<g id="edge13" class="edge">
<title>/req/obs&#45;core/AbstractObservationCharacteristics&#45;&gt;/req/obs&#45;cpt/Observation/result&#45;sem</title>
<path fill="none" stroke="black" d="M752.97,-540.41C824.52,-518.94 901,-496 901,-496 901,-496 997.77,-488.12 1086.74,-480.87"/>
<polygon fill="black" stroke="black" points="1087.03,-484.36 1096.71,-480.06 1086.46,-477.38 1087.03,-484.36"/>
</g>
<!-- /req/obs&#45;core/AbstractObservationCharacteristics&#45;&gt;/req/obs&#45;cpt/Observation/procedure&#45;sem -->
<g id="edge14" class="edge">
<title>/req/obs&#45;core/AbstractObservationCharacteristics&#45;&gt;/req/obs&#45;cpt/Observation/procedure&#45;sem</title>
<path fill="none" stroke="black" d="M704.07,-540.47C784.03,-500.49 901,-442 901,-442 901,-442 986.93,-435 1071.29,-428.13"/>
<polygon fill="black" stroke="black" points="1071.62,-431.62 1081.3,-427.31 1071.05,-424.64 1071.62,-431.62"/>
</g>
<!-- /req/obs&#45;core/AbstractObservationCharacteristics&#45;&gt;/req/obs&#45;cpt/Observation/observer&#45;sem -->
<g id="edge15" class="edge">
<title>/req/obs&#45;core/AbstractObservationCharacteristics&#45;&gt;/req/obs&#45;cpt/Observation/observer&#45;sem</title>
<path fill="none" stroke="black" d="M683.38,-540.33C761.9,-485.37 901,-388 901,-388 901,-388 990.13,-380.74 1075.96,-373.75"/>
<polygon fill="black" stroke="black" points="1076.45,-377.22 1086.13,-372.92 1075.88,-370.24 1076.45,-377.22"/>
</g>
<!-- /req/obs&#45;core/AbstractObservationCharacteristics&#45;&gt;/req/obs&#45;cpt/Observation/host&#45;sem -->
<g id="edge16" class="edge">
<title>/req/obs&#45;core/AbstractObservationCharacteristics&#45;&gt;/req/obs&#45;cpt/Observation/host&#45;sem</title>
<path fill="none" stroke="black" d="M671.71,-540.36C747.14,-472.47 901,-334 901,-334 901,-334 1001.86,-325.79 1092.31,-318.42"/>
<polygon fill="black" stroke="black" points="1092.75,-321.89 1102.43,-317.59 1092.18,-314.92 1092.75,-321.89"/>
</g>
<!-- /req/obs&#45;core/AbstractObservationCharacteristics&#45;&gt;/req/obs&#45;cpt/gen/relatedObservation&#45;sem -->
<g id="edge17" class="edge">
<title>/req/obs&#45;core/AbstractObservationCharacteristics&#45;&gt;/req/obs&#45;cpt/gen/relatedObservation&#45;sem</title>
<path fill="none" stroke="black" d="M664.38,-540.28C736.62,-460.82 901,-280 901,-280 901,-280 985.5,-273.12 1069.17,-266.3"/>
<polygon fill="black" stroke="black" points="1069.68,-269.77 1079.36,-265.47 1069.11,-262.8 1069.68,-269.77"/>
</g>
<!-- /req/obs&#45;core/AbstractObservationCharacteristics&#45;&gt;/req/obs&#45;core/gen/metadata&#45;sem -->
<g id="edge18" class="edge">
<title>/req/obs&#45;core/AbstractObservationCharacteristics&#45;&gt;/req/obs&#45;core/gen/metadata&#45;sem</title>
<path fill="none" stroke="black" d="M659.13,-540.43C728.28,-450.53 901,-226 901,-226 901,-226 1008.01,-217.28 1100.43,-209.76"/>
<polygon fill="black" stroke="black" points="1100.79,-213.24 1110.47,-208.94 1100.22,-206.26 1100.79,-213.24"/>
</g>
<!-- /req/obs&#45;core/AbstractObservationCharacteristics&#45;&gt;/rec/obs&#45;core/AbstractObservationCharacteristics/uFoI -->
<g id="edge19" class="edge">
<title>/req/obs&#45;core/AbstractObservationCharacteristics&#45;&gt;/rec/obs&#45;core/AbstractObservationCharacteristics/uFoI</title>
<path fill="none" stroke="black" stroke-dasharray="1,5" d="M655.44,-540.34C721.9,-440.65 901,-172 901,-172 901,-172 955.62,-167.55 1020.52,-162.27"/>
<polygon fill="black" stroke="black" points="1020.91,-165.75 1030.59,-161.45 1020.34,-158.77 1020.91,-165.75"/>
</g>
<!-- /req/obs&#45;core/NamedValue -->
<g id="node24" class="node">
<title>/req/obs&#45;core/NamedValue</title>
<polygon fill="none" stroke="black" points="1084.5,-84 1084.5,-105 1382.5,-105 1382.5,-84 1084.5,-84"/>
<text text-anchor="start" x="1139.5" y="-90.8" font-family="Times,serif" font-size="14.00">/req/obs&#45;core/NamedValue</text>
<polygon fill="none" stroke="black" points="1084.5,-61 1084.5,-82 1382.5,-82 1382.5,-61 1084.5,-61"/>
<text text-anchor="start" x="1087.5" y="-67.8" font-family="Times,serif" font-size="14.00">Abstract Observation core &#45; NamedValue</text>
<polygon fill="none" stroke="black" points="1084.5,-38 1084.5,-59 1382.5,-59 1382.5,-38 1084.5,-38"/>
<text text-anchor="start" x="1183.5" y="-44.8" font-family="Times,serif" font-size="14.00">Logical model</text>
<polygon fill="none" stroke="black" points="1081.5,-35.5 1081.5,-108.5 1385.5,-108.5 1385.5,-35.5 1081.5,-35.5"/>
</g>
<!-- /req/obs&#45;core/AbstractObservationCharacteristics&#45;&gt;/req/obs&#45;core/NamedValue -->
<g id="edge20" class="edge">
<title>/req/obs&#45;core/AbstractObservationCharacteristics&#45;&gt;/req/obs&#45;core/NamedValue</title>
<path fill="none" stroke="black" stroke-dasharray="5,2" d="M652.64,-540.21C716.71,-431.3 901,-118 901,-118 901,-118 986.93,-106.08 1071.29,-94.37"/>
<polygon fill="black" stroke="black" points="1071.88,-97.82 1081.3,-92.98 1070.92,-90.89 1071.88,-97.82"/>
</g>
<!-- /req/obs&#45;core/NamedValue&#45;&gt;/req/obs&#45;core/NamedValue/NamedValue&#45;sem -->
<g id="edge21" class="edge">
<title>/req/obs&#45;core/NamedValue&#45;&gt;/req/obs&#45;core/NamedValue/NamedValue&#45;sem</title>
<path fill="none" stroke="black" d="M1385.67,-87.33C1449.87,-93.84 1525.11,-101.47 1591.73,-108.23"/>
<polygon fill="black" stroke="black" points="1591.61,-111.73 1601.92,-109.26 1592.32,-104.77 1591.61,-111.73"/>
</g>
<!-- /req/obs&#45;core/NamedValue&#45;&gt;/req/obs&#45;core/NamedValue/name&#45;sem -->
<g id="edge22" class="edge">
<title>/req/obs&#45;core/NamedValue&#45;&gt;/req/obs&#45;core/NamedValue/name&#45;sem</title>
<path fill="none" stroke="black" d="M1385.67,-72C1458.2,-72 1544.85,-72 1617.21,-72"/>
<polygon fill="black" stroke="black" points="1617.32,-75.5 1627.32,-72 1617.32,-68.5 1617.32,-75.5"/>
</g>
<!-- /req/obs&#45;core/NamedValue&#45;&gt;/req/obs&#45;core/NamedValue/value&#45;sem -->
<g id="edge23" class="edge">
<title>/req/obs&#45;core/NamedValue&#45;&gt;/req/obs&#45;core/NamedValue/value&#45;sem</title>
<path fill="none" stroke="black" d="M1385.67,-56.67C1458.2,-49.31 1544.85,-40.53 1617.21,-33.19"/>
<polygon fill="black" stroke="black" points="1617.72,-36.66 1627.32,-32.16 1617.02,-29.69 1617.72,-36.66"/>
</g>
</g>
</svg>
