<?xml version="1.0" encoding="UTF-8" standalone="no"?>
<!DOCTYPE svg PUBLIC "-//W3C//DTD SVG 1.1//EN"
 "http://www.w3.org/Graphics/SVG/1.1/DTD/svg11.dtd">
<!-- Generated by graphviz version 2.43.0 (0)
 -->
<!-- Title: G Pages: 1 -->
<svg width="841pt" height="152pt"
 viewBox="0.00 0.00 841.00 152.00" xmlns="http://www.w3.org/2000/svg" xmlns:xlink="http://www.w3.org/1999/xlink">
<g id="graph0" class="graph" transform="scale(1 1) rotate(0) translate(4 148)">
<title>G</title>
<polygon fill="white" stroke="transparent" points="-4,4 -4,-148 837,-148 837,4 -4,4"/>
<!-- /req/sam&#45;basic/StatisticalClassification/StatisticalClassification&#45;sem -->
<g id="node1" class="node">
<title>/req/sam&#45;basic/StatisticalClassification/StatisticalClassification&#45;sem</title>
<polygon fill="none" stroke="black" points="833,-144 334,-144 334,-108 833,-108 833,-144"/>
<text text-anchor="middle" x="583.5" y="-122.3" font-family="Times,serif" font-size="14.00">/req/sam&#45;basic/StatisticalClassification/StatisticalClassification&#45;sem</text>
</g>
<!-- /req/sam&#45;basic/StatisticalClassification/concept&#45;sem -->
<g id="node2" class="node">
<title>/req/sam&#45;basic/StatisticalClassification/concept&#45;sem</title>
<polygon fill="none" stroke="black" points="776.5,-90 390.5,-90 390.5,-54 776.5,-54 776.5,-90"/>
<text text-anchor="middle" x="583.5" y="-68.3" font-family="Times,serif" font-size="14.00">/req/sam&#45;basic/StatisticalClassification/concept&#45;sem</text>
</g>
<!-- /req/sam&#45;basic/StatisticalClassification/classification&#45;sem -->
<g id="node3" class="node">
<title>/req/sam&#45;basic/StatisticalClassification/classification&#45;sem</title>
<polygon fill="none" stroke="black" points="795,-36 372,-36 372,0 795,0 795,-36"/>
<text text-anchor="middle" x="583.5" y="-14.3" font-family="Times,serif" font-size="14.00">/req/sam&#45;basic/StatisticalClassification/classification&#45;sem</text>
</g>
<!-- /req/sam&#45;basic/StatisticalClassification -->
<g id="node4" class="node">
<title>/req/sam&#45;basic/StatisticalClassification</title>
<polygon fill="none" stroke="black" points="3,-84 3,-105 295,-105 295,-84 3,-84"/>
<text text-anchor="start" x="10.5" y="-90.8" font-family="Times,serif" font-size="14.00">/req/sam&#45;basic/StatisticalClassification</text>
<polygon fill="none" stroke="black" points="3,-61 3,-82 295,-82 295,-61 3,-61"/>
<text text-anchor="start" x="6" y="-67.8" font-family="Times,serif" font-size="14.00">Basic Samples &#45; StatisticalClassification</text>
<polygon fill="none" stroke="black" points="3,-38 3,-59 295,-59 295,-38 3,-38"/>
<text text-anchor="start" x="99" y="-44.8" font-family="Times,serif" font-size="14.00">Logical model</text>
<polygon fill="none" stroke="black" points="0,-35.5 0,-108.5 298,-108.5 298,-35.5 0,-35.5"/>
</g>
<!-- /req/sam&#45;basic/StatisticalClassification&#45;&gt;/req/sam&#45;basic/StatisticalClassification/StatisticalClassification&#45;sem -->
<g id="edge1" class="edge">
<title>/req/sam&#45;basic/StatisticalClassification&#45;&gt;/req/sam&#45;basic/StatisticalClassification/StatisticalClassification&#45;sem</title>
<path fill="none" stroke="black" d="M298.09,-93.73C319.24,-96.83 334,-99 334,-99 334,-99 365.85,-102.46 406.75,-106.9"/>
<polygon fill="black" stroke="black" points="406.43,-110.39 416.75,-107.99 407.18,-103.43 406.43,-110.39"/>
</g>
<!-- /req/sam&#45;basic/StatisticalClassification&#45;&gt;/req/sam&#45;basic/StatisticalClassification/concept&#45;sem -->
<g id="edge2" class="edge">
<title>/req/sam&#45;basic/StatisticalClassification&#45;&gt;/req/sam&#45;basic/StatisticalClassification/concept&#45;sem</title>
<path fill="none" stroke="black" d="M298.24,-72C324.59,-72 352.44,-72 379.99,-72"/>
<polygon fill="black" stroke="black" points="380.13,-75.5 390.13,-72 380.13,-68.5 380.13,-75.5"/>
</g>
<!-- /req/sam&#45;basic/StatisticalClassification&#45;&gt;/req/sam&#45;basic/StatisticalClassification/classification&#45;sem -->
<g id="edge3" class="edge">
<title>/req/sam&#45;basic/StatisticalClassification&#45;&gt;/req/sam&#45;basic/StatisticalClassification/classification&#45;sem</title>
<path fill="none" stroke="black" d="M298.09,-50.27C319.24,-47.17 334,-45 334,-45 334,-45 365.85,-41.54 406.75,-37.1"/>
<polygon fill="black" stroke="black" points="407.18,-40.57 416.75,-36.01 406.43,-33.61 407.18,-40.57"/>
</g>
</g>
</svg>
