<?xml version="1.0" encoding="UTF-8" standalone="no"?>
<!DOCTYPE svg PUBLIC "-//W3C//DTD SVG 1.1//EN"
 "http://www.w3.org/Graphics/SVG/1.1/DTD/svg11.dtd">
<!-- Generated by graphviz version 2.43.0 (0)
 -->
<!-- Title: G Pages: 1 -->
<svg width="2010pt" height="532pt"
 viewBox="0.00 0.00 2010.00 532.00" xmlns="http://www.w3.org/2000/svg" xmlns:xlink="http://www.w3.org/1999/xlink">
<g id="graph0" class="graph" transform="scale(1 1) rotate(0) translate(4 528)">
<title>G</title>
<polygon fill="white" stroke="transparent" points="-4,4 -4,-528 2006,-528 2006,4 -4,4"/>
<!-- /req/sam&#45;basic/StatisticalSample/StatisticalSample&#45;sem -->
<g id="node1" class="node">
<title>/req/sam&#45;basic/StatisticalSample/StatisticalSample&#45;sem</title>
<polygon fill="none" stroke="black" points="707,-524 292,-524 292,-488 707,-488 707,-524"/>
<text text-anchor="middle" x="499.5" y="-502.3" font-family="Times,serif" font-size="14.00">/req/sam&#45;basic/StatisticalSample/StatisticalSample&#45;sem</text>
</g>
<!-- /req/sam&#45;basic/StatisticalSample/classification&#45;sem -->
<g id="node2" class="node">
<title>/req/sam&#45;basic/StatisticalSample/classification&#45;sem</title>
<polygon fill="none" stroke="black" points="690,-470 309,-470 309,-434 690,-434 690,-470"/>
<text text-anchor="middle" x="499.5" y="-448.3" font-family="Times,serif" font-size="14.00">/req/sam&#45;basic/StatisticalSample/classification&#45;sem</text>
</g>
<!-- /req/sam&#45;core/AbstractSample/sampleType&#45;sem -->
<g id="node3" class="node">
<title>/req/sam&#45;core/AbstractSample/sampleType&#45;sem</title>
<polygon fill="none" stroke="black" points="1634,-514 1278,-514 1278,-478 1634,-478 1634,-514"/>
<text text-anchor="middle" x="1456" y="-492.3" font-family="Times,serif" font-size="14.00">/req/sam&#45;core/AbstractSample/sampleType&#45;sem</text>
</g>
<!-- /req/sam&#45;core/AbstractSample/parameter&#45;sem -->
<g id="node4" class="node">
<title>/req/sam&#45;core/AbstractSample/parameter&#45;sem</title>
<polygon fill="none" stroke="black" points="1629,-460 1283,-460 1283,-424 1629,-424 1629,-460"/>
<text text-anchor="middle" x="1456" y="-438.3" font-family="Times,serif" font-size="14.00">/req/sam&#45;core/AbstractSample/parameter&#45;sem</text>
</g>
<!-- /req/obs&#45;core/gen/metadata&#45;sem -->
<g id="node5" class="node">
<title>/req/obs&#45;core/gen/metadata&#45;sem</title>
<polygon fill="none" stroke="black" points="1579,-406 1333,-406 1333,-370 1579,-370 1579,-406"/>
<text text-anchor="middle" x="1456" y="-384.3" font-family="Times,serif" font-size="14.00">/req/obs&#45;core/gen/metadata&#45;sem</text>
</g>
<!-- /req/sam&#45;cpt/Sample/Sample&#45;sem -->
<g id="node6" class="node">
<title>/req/sam&#45;cpt/Sample/Sample&#45;sem</title>
<polygon fill="none" stroke="black" points="1963.5,-522 1708.5,-522 1708.5,-486 1963.5,-486 1963.5,-522"/>
<text text-anchor="middle" x="1836" y="-500.3" font-family="Times,serif" font-size="14.00">/req/sam&#45;cpt/Sample/Sample&#45;sem</text>
</g>
<!-- /req/sam&#45;cpt/Sample/sampling&#45;sem -->
<g id="node7" class="node">
<title>/req/sam&#45;cpt/Sample/sampling&#45;sem</title>
<polygon fill="none" stroke="black" points="1969.5,-468 1702.5,-468 1702.5,-432 1969.5,-432 1969.5,-468"/>
<text text-anchor="middle" x="1836" y="-446.3" font-family="Times,serif" font-size="14.00">/req/sam&#45;cpt/Sample/sampling&#45;sem</text>
</g>
<!-- /req/sam&#45;cpt/Sample/preparationStep&#45;sem -->
<g id="node8" class="node">
<title>/req/sam&#45;cpt/Sample/preparationStep&#45;sem</title>
<polygon fill="none" stroke="black" points="1995.5,-414 1676.5,-414 1676.5,-378 1995.5,-378 1995.5,-414"/>
<text text-anchor="middle" x="1836" y="-392.3" font-family="Times,serif" font-size="14.00">/req/sam&#45;cpt/Sample/preparationStep&#45;sem</text>
</g>
<!-- /req/sam&#45;cpt/Sample/sampledFeature&#45;sem -->
<g id="node9" class="node">
<title>/req/sam&#45;cpt/Sample/sampledFeature&#45;sem</title>
<polygon fill="none" stroke="black" points="1994.5,-360 1677.5,-360 1677.5,-324 1994.5,-324 1994.5,-360"/>
<text text-anchor="middle" x="1836" y="-338.3" font-family="Times,serif" font-size="14.00">/req/sam&#45;cpt/Sample/sampledFeature&#45;sem</text>
</g>
<!-- /req/sam&#45;cpt/Sample/sampledFeature&#45;card -->
<g id="node10" class="node">
<title>/req/sam&#45;cpt/Sample/sampledFeature&#45;card</title>
<polygon fill="none" stroke="black" points="1996,-306 1676,-306 1676,-270 1996,-270 1996,-306"/>
<text text-anchor="middle" x="1836" y="-284.3" font-family="Times,serif" font-size="14.00">/req/sam&#45;cpt/Sample/sampledFeature&#45;card</text>
</g>
<!-- /req/sam&#45;cpt/Sample/relatedSample&#45;sem -->
<g id="node11" class="node">
<title>/req/sam&#45;cpt/Sample/relatedSample&#45;sem</title>
<polygon fill="none" stroke="black" points="1989,-252 1683,-252 1683,-216 1989,-216 1989,-252"/>
<text text-anchor="middle" x="1836" y="-230.3" font-family="Times,serif" font-size="14.00">/req/sam&#45;cpt/Sample/relatedSample&#45;sem</text>
</g>
<!-- /req/obs&#45;cpt/gen/relatedObservation&#45;sem -->
<g id="node12" class="node">
<title>/req/obs&#45;cpt/gen/relatedObservation&#45;sem</title>
<polygon fill="none" stroke="black" points="1990,-198 1682,-198 1682,-162 1990,-162 1990,-198"/>
<text text-anchor="middle" x="1836" y="-176.3" font-family="Times,serif" font-size="14.00">/req/obs&#45;cpt/gen/relatedObservation&#45;sem</text>
</g>
<!-- /req/obs&#45;core/NamedValue/NamedValue&#45;sem -->
<g id="node13" class="node">
<title>/req/obs&#45;core/NamedValue/NamedValue&#45;sem</title>
<polygon fill="none" stroke="black" points="2002,-144 1670,-144 1670,-108 2002,-108 2002,-144"/>
<text text-anchor="middle" x="1836" y="-122.3" font-family="Times,serif" font-size="14.00">/req/obs&#45;core/NamedValue/NamedValue&#45;sem</text>
</g>
<!-- /req/obs&#45;core/NamedValue/name&#45;sem -->
<g id="node14" class="node">
<title>/req/obs&#45;core/NamedValue/name&#45;sem</title>
<polygon fill="none" stroke="black" points="1976.5,-90 1695.5,-90 1695.5,-54 1976.5,-54 1976.5,-90"/>
<text text-anchor="middle" x="1836" y="-68.3" font-family="Times,serif" font-size="14.00">/req/obs&#45;core/NamedValue/name&#45;sem</text>
</g>
<!-- /req/obs&#45;core/NamedValue/value&#45;sem -->
<g id="node15" class="node">
<title>/req/obs&#45;core/NamedValue/value&#45;sem</title>
<polygon fill="none" stroke="black" points="1976.5,-36 1695.5,-36 1695.5,0 1976.5,0 1976.5,-36"/>
<text text-anchor="middle" x="1836" y="-14.3" font-family="Times,serif" font-size="14.00">/req/obs&#45;core/NamedValue/value&#45;sem</text>
</g>
<!-- /req/sam&#45;basic/StatisticalClassification/StatisticalClassification&#45;sem -->
<g id="node16" class="node">
<title>/req/sam&#45;basic/StatisticalClassification/StatisticalClassification&#45;sem</title>
<polygon fill="none" stroke="black" points="1242,-333 743,-333 743,-297 1242,-297 1242,-333"/>
<text text-anchor="middle" x="992.5" y="-311.3" font-family="Times,serif" font-size="14.00">/req/sam&#45;basic/StatisticalClassification/StatisticalClassification&#45;sem</text>
</g>
<!-- /req/sam&#45;basic/StatisticalClassification/concept&#45;sem -->
<g id="node17" class="node">
<title>/req/sam&#45;basic/StatisticalClassification/concept&#45;sem</title>
<polygon fill="none" stroke="black" points="1185.5,-279 799.5,-279 799.5,-243 1185.5,-243 1185.5,-279"/>
<text text-anchor="middle" x="992.5" y="-257.3" font-family="Times,serif" font-size="14.00">/req/sam&#45;basic/StatisticalClassification/concept&#45;sem</text>
</g>
<!-- /req/sam&#45;basic/StatisticalClassification/classification&#45;sem -->
<g id="node18" class="node">
<title>/req/sam&#45;basic/StatisticalClassification/classification&#45;sem</title>
<polygon fill="none" stroke="black" points="1204,-225 781,-225 781,-189 1204,-189 1204,-225"/>
<text text-anchor="middle" x="992.5" y="-203.3" font-family="Times,serif" font-size="14.00">/req/sam&#45;basic/StatisticalClassification/classification&#45;sem</text>
</g>
<!-- /req/sam&#45;basic/StatisticalSample -->
<g id="node19" class="node">
<title>/req/sam&#45;basic/StatisticalSample</title>
<polygon fill="none" stroke="black" points="3,-427 3,-448 253,-448 253,-427 3,-427"/>
<text text-anchor="start" x="10.5" y="-433.8" font-family="Times,serif" font-size="14.00">/req/sam&#45;basic/StatisticalSample</text>
<polygon fill="none" stroke="black" points="3,-404 3,-425 253,-425 253,-404 3,-404"/>
<text text-anchor="start" x="6" y="-410.8" font-family="Times,serif" font-size="14.00">Basic Samples &#45; StatisticalSample</text>
<polygon fill="none" stroke="black" points="3,-381 3,-402 253,-402 253,-381 3,-381"/>
<text text-anchor="start" x="78" y="-387.8" font-family="Times,serif" font-size="14.00">Logical model</text>
<polygon fill="none" stroke="black" points="0,-378.5 0,-451.5 256,-451.5 256,-378.5 0,-378.5"/>
</g>
<!-- /req/sam&#45;basic/StatisticalSample&#45;&gt;/req/sam&#45;basic/StatisticalSample/StatisticalSample&#45;sem -->
<g id="edge1" class="edge">
<title>/req/sam&#45;basic/StatisticalSample&#45;&gt;/req/sam&#45;basic/StatisticalSample/StatisticalSample&#45;sem</title>
<path fill="none" stroke="black" d="M222.4,-451.67C258.82,-465.97 292,-479 292,-479 292,-479 317.58,-482.34 350.74,-486.68"/>
<polygon fill="black" stroke="black" points="350.39,-490.16 360.76,-487.99 351.3,-483.22 350.39,-490.16"/>
</g>
<!-- /req/sam&#45;basic/StatisticalSample&#45;&gt;/req/sam&#45;basic/StatisticalSample/classification&#45;sem -->
<g id="edge2" class="edge">
<title>/req/sam&#45;basic/StatisticalSample&#45;&gt;/req/sam&#45;basic/StatisticalSample/classification&#45;sem</title>
<path fill="none" stroke="black" d="M256.16,-427.73C273,-429.42 290.55,-431.18 308.17,-432.94"/>
<polygon fill="black" stroke="black" points="308.24,-436.47 318.54,-433.98 308.94,-429.5 308.24,-436.47"/>
</g>
<!-- /req/sam&#45;basic/Sample -->
<g id="node20" class="node">
<title>/req/sam&#45;basic/Sample</title>
<polygon fill="none" stroke="black" points="411.5,-391 411.5,-412 588.5,-412 588.5,-391 411.5,-391"/>
<text text-anchor="start" x="419" y="-397.8" font-family="Times,serif" font-size="14.00">/req/sam&#45;basic/Sample</text>
<polygon fill="none" stroke="black" points="411.5,-368 411.5,-389 588.5,-389 588.5,-368 411.5,-368"/>
<text text-anchor="start" x="414.5" y="-374.8" font-family="Times,serif" font-size="14.00">Basic Samples &#45; Sample</text>
<polygon fill="none" stroke="black" points="411.5,-345 411.5,-366 588.5,-366 588.5,-345 411.5,-345"/>
<text text-anchor="start" x="450" y="-351.8" font-family="Times,serif" font-size="14.00">Logical model</text>
<polygon fill="none" stroke="black" points="408,-342.5 408,-415.5 591,-415.5 591,-342.5 408,-342.5"/>
</g>
<!-- /req/sam&#45;basic/StatisticalSample&#45;&gt;/req/sam&#45;basic/Sample -->
<g id="edge3" class="edge">
<title>/req/sam&#45;basic/StatisticalSample&#45;&gt;/req/sam&#45;basic/Sample</title>
<path fill="none" stroke="black" stroke-dasharray="5,2" d="M256.16,-402.61C302.45,-398.1 354.09,-393.07 397.78,-388.81"/>
<polygon fill="black" stroke="black" points="398.22,-392.29 407.83,-387.83 397.54,-385.32 398.22,-392.29"/>
</g>
<!-- /req/sam&#45;basic/StatisticalClassification -->
<g id="node24" class="node">
<title>/req/sam&#45;basic/StatisticalClassification</title>
<polygon fill="none" stroke="black" points="353.5,-291 353.5,-312 645.5,-312 645.5,-291 353.5,-291"/>
<text text-anchor="start" x="361" y="-297.8" font-family="Times,serif" font-size="14.00">/req/sam&#45;basic/StatisticalClassification</text>
<polygon fill="none" stroke="black" points="353.5,-268 353.5,-289 645.5,-289 645.5,-268 353.5,-268"/>
<text text-anchor="start" x="356.5" y="-274.8" font-family="Times,serif" font-size="14.00">Basic Samples &#45; StatisticalClassification</text>
<polygon fill="none" stroke="black" points="353.5,-245 353.5,-266 645.5,-266 645.5,-245 353.5,-245"/>
<text text-anchor="start" x="449.5" y="-251.8" font-family="Times,serif" font-size="14.00">Logical model</text>
<polygon fill="none" stroke="black" points="350.5,-242.5 350.5,-315.5 648.5,-315.5 648.5,-242.5 350.5,-242.5"/>
</g>
<!-- /req/sam&#45;basic/StatisticalSample&#45;&gt;/req/sam&#45;basic/StatisticalClassification -->
<g id="edge4" class="edge">
<title>/req/sam&#45;basic/StatisticalSample&#45;&gt;/req/sam&#45;basic/StatisticalClassification</title>
<path fill="none" stroke="black" stroke-dasharray="5,2" d="M202.87,-378.29C246,-356.86 292,-334 292,-334 292,-334 318.06,-327.06 351.67,-318.11"/>
<polygon fill="black" stroke="black" points="352.57,-321.49 361.34,-315.53 350.77,-314.72 352.57,-321.49"/>
</g>
<!-- /req/sam&#45;core/AbstractSample -->
<g id="node21" class="node">
<title>/req/sam&#45;core/AbstractSample</title>
<polygon fill="none" stroke="black" points="848.5,-400 848.5,-421 1136.5,-421 1136.5,-400 848.5,-400"/>
<text text-anchor="start" x="884" y="-406.8" font-family="Times,serif" font-size="14.00">/req/sam&#45;core/AbstractSample</text>
<polygon fill="none" stroke="black" points="848.5,-377 848.5,-398 1136.5,-398 1136.5,-377 848.5,-377"/>
<text text-anchor="start" x="851.5" y="-383.8" font-family="Times,serif" font-size="14.00">Abstract Sample core &#45; AbstractSample</text>
<polygon fill="none" stroke="black" points="848.5,-354 848.5,-375 1136.5,-375 1136.5,-354 848.5,-354"/>
<text text-anchor="start" x="942.5" y="-360.8" font-family="Times,serif" font-size="14.00">Logical model</text>
<polygon fill="none" stroke="black" points="845.5,-351.5 845.5,-424.5 1139.5,-424.5 1139.5,-351.5 845.5,-351.5"/>
</g>
<!-- /req/sam&#45;basic/Sample&#45;&gt;/req/sam&#45;core/AbstractSample -->
<g id="edge5" class="edge">
<title>/req/sam&#45;basic/Sample&#45;&gt;/req/sam&#45;core/AbstractSample</title>
<path fill="none" stroke="black" stroke-dasharray="5,2" d="M591.13,-380.66C659.42,-381.91 754.74,-383.66 835.24,-385.14"/>
<polygon fill="black" stroke="black" points="835.42,-388.64 845.48,-385.32 835.55,-381.64 835.42,-388.64"/>
</g>
<!-- /req/sam&#45;core/AbstractSample&#45;&gt;/req/sam&#45;core/AbstractSample/sampleType&#45;sem -->
<g id="edge6" class="edge">
<title>/req/sam&#45;core/AbstractSample&#45;&gt;/req/sam&#45;core/AbstractSample/sampleType&#45;sem</title>
<path fill="none" stroke="black" d="M1122.02,-424.59C1197.41,-446.06 1278,-469 1278,-469 1278,-469 1299.18,-472.23 1326.89,-476.46"/>
<polygon fill="black" stroke="black" points="1326.52,-479.94 1336.94,-477.99 1327.58,-473.02 1326.52,-479.94"/>
</g>
<!-- /req/sam&#45;core/AbstractSample&#45;&gt;/req/sam&#45;core/AbstractSample/parameter&#45;sem -->
<g id="edge7" class="edge">
<title>/req/sam&#45;core/AbstractSample&#45;&gt;/req/sam&#45;core/AbstractSample/parameter&#45;sem</title>
<path fill="none" stroke="black" d="M1139.52,-405.09C1187.57,-410.71 1241.32,-417 1290.64,-422.77"/>
<polygon fill="black" stroke="black" points="1290.43,-426.27 1300.77,-423.95 1291.24,-419.31 1290.43,-426.27"/>
</g>
<!-- /req/sam&#45;core/AbstractSample&#45;&gt;/req/obs&#45;core/gen/metadata&#45;sem -->
<g id="edge8" class="edge">
<title>/req/sam&#45;core/AbstractSample&#45;&gt;/req/obs&#45;core/gen/metadata&#45;sem</title>
<path fill="none" stroke="black" d="M1139.52,-388C1198.19,-388 1265.34,-388 1322.57,-388"/>
<polygon fill="black" stroke="black" points="1322.76,-391.5 1332.76,-388 1322.76,-384.5 1322.76,-391.5"/>
</g>
<!-- /req/sam&#45;cpt/Sample -->
<g id="node22" class="node">
<title>/req/sam&#45;cpt/Sample</title>
<polygon fill="none" stroke="black" points="1351,-327 1351,-348 1562,-348 1562,-327 1351,-327"/>
<text text-anchor="start" x="1382.5" y="-333.8" font-family="Times,serif" font-size="14.00">/req/sam&#45;cpt/Sample</text>
<polygon fill="none" stroke="black" points="1351,-304 1351,-325 1562,-325 1562,-304 1351,-304"/>
<text text-anchor="start" x="1354" y="-310.8" font-family="Times,serif" font-size="14.00">Conceptual Sample &#45; Sample</text>
<polygon fill="none" stroke="black" points="1351,-281 1351,-302 1562,-302 1562,-281 1351,-281"/>
<text text-anchor="start" x="1392" y="-287.8" font-family="Times,serif" font-size="14.00">Conceptual model</text>
<polygon fill="none" stroke="black" points="1347.5,-278.5 1347.5,-351.5 1564.5,-351.5 1564.5,-278.5 1347.5,-278.5"/>
</g>
<!-- /req/sam&#45;core/AbstractSample&#45;&gt;/req/sam&#45;cpt/Sample -->
<g id="edge9" class="edge">
<title>/req/sam&#45;core/AbstractSample&#45;&gt;/req/sam&#45;cpt/Sample</title>
<path fill="none" stroke="black" stroke-dasharray="5,2" d="M1139.52,-364.9C1203.31,-354.81 1277.13,-343.14 1337.31,-333.62"/>
<polygon fill="black" stroke="black" points="1337.91,-337.07 1347.24,-332.05 1336.81,-330.15 1337.91,-337.07"/>
</g>
<!-- /req/obs&#45;core/NamedValue -->
<g id="node23" class="node">
<title>/req/obs&#45;core/NamedValue</title>
<polygon fill="none" stroke="black" points="1307,-111 1307,-132 1605,-132 1605,-111 1307,-111"/>
<text text-anchor="start" x="1362" y="-117.8" font-family="Times,serif" font-size="14.00">/req/obs&#45;core/NamedValue</text>
<polygon fill="none" stroke="black" points="1307,-88 1307,-109 1605,-109 1605,-88 1307,-88"/>
<text text-anchor="start" x="1310" y="-94.8" font-family="Times,serif" font-size="14.00">Abstract Observation core &#45; NamedValue</text>
<polygon fill="none" stroke="black" points="1307,-65 1307,-86 1605,-86 1605,-65 1307,-65"/>
<text text-anchor="start" x="1406" y="-71.8" font-family="Times,serif" font-size="14.00">Logical model</text>
<polygon fill="none" stroke="black" points="1304,-62.5 1304,-135.5 1608,-135.5 1608,-62.5 1304,-62.5"/>
</g>
<!-- /req/sam&#45;core/AbstractSample&#45;&gt;/req/obs&#45;core/NamedValue -->
<g id="edge10" class="edge">
<title>/req/sam&#45;core/AbstractSample&#45;&gt;/req/obs&#45;core/NamedValue</title>
<path fill="none" stroke="black" stroke-dasharray="5,2" d="M1139.85,-360.91C1193.8,-350.92 1242,-342 1242,-342 1242,-342 1278,-270 1278,-270 1278,-270 1357.38,-193.31 1409.82,-142.65"/>
<polygon fill="black" stroke="black" points="1412.27,-145.15 1417.03,-135.68 1407.41,-140.11 1412.27,-145.15"/>
</g>
<!-- /req/sam&#45;cpt/Sample&#45;&gt;/req/sam&#45;cpt/Sample/Sample&#45;sem -->
<g id="edge11" class="edge">
<title>/req/sam&#45;cpt/Sample&#45;&gt;/req/sam&#45;cpt/Sample/Sample&#45;sem</title>
<path fill="none" stroke="black" d="M1564.55,-342.95C1601.62,-352.58 1634,-361 1634,-361 1634,-361 1670,-477 1670,-477 1670,-477 1689.4,-480.17 1714.9,-484.35"/>
<polygon fill="black" stroke="black" points="1714.51,-487.83 1724.94,-485.99 1715.64,-480.92 1714.51,-487.83"/>
</g>
<!-- /req/sam&#45;cpt/Sample&#45;&gt;/req/sam&#45;cpt/Sample/sampling&#45;sem -->
<g id="edge12" class="edge">
<title>/req/sam&#45;cpt/Sample&#45;&gt;/req/sam&#45;cpt/Sample/sampling&#45;sem</title>
<path fill="none" stroke="black" d="M1564.55,-342.95C1601.62,-352.58 1634,-361 1634,-361 1634,-361 1670,-423 1670,-423 1670,-423 1689.4,-426.17 1714.9,-430.35"/>
<polygon fill="black" stroke="black" points="1714.51,-433.83 1724.94,-431.99 1715.64,-426.92 1714.51,-433.83"/>
</g>
<!-- /req/sam&#45;cpt/Sample&#45;&gt;/req/sam&#45;cpt/Sample/preparationStep&#45;sem -->
<g id="edge13" class="edge">
<title>/req/sam&#45;cpt/Sample&#45;&gt;/req/sam&#45;cpt/Sample/preparationStep&#45;sem</title>
<path fill="none" stroke="black" d="M1564.75,-342.32C1617.58,-355.71 1670,-369 1670,-369 1670,-369 1689.4,-372.17 1714.9,-376.35"/>
<polygon fill="black" stroke="black" points="1714.51,-379.83 1724.94,-377.99 1715.64,-372.92 1714.51,-379.83"/>
</g>
<!-- /req/sam&#45;cpt/Sample&#45;&gt;/req/sam&#45;cpt/Sample/sampledFeature&#45;sem -->
<g id="edge14" class="edge">
<title>/req/sam&#45;cpt/Sample&#45;&gt;/req/sam&#45;cpt/Sample/sampledFeature&#45;sem</title>
<path fill="none" stroke="black" d="M1564.56,-322.68C1596.44,-324.96 1632.15,-327.51 1666.89,-329.99"/>
<polygon fill="black" stroke="black" points="1666.93,-333.5 1677.15,-330.73 1667.43,-326.52 1666.93,-333.5"/>
</g>
<!-- /req/sam&#45;cpt/Sample&#45;&gt;/req/sam&#45;cpt/Sample/sampledFeature&#45;card -->
<g id="edge15" class="edge">
<title>/req/sam&#45;cpt/Sample&#45;&gt;/req/sam&#45;cpt/Sample/sampledFeature&#45;card</title>
<path fill="none" stroke="black" d="M1564.56,-307.32C1596.04,-305.07 1631.26,-302.55 1665.6,-300.1"/>
<polygon fill="black" stroke="black" points="1666.01,-303.58 1675.73,-299.38 1665.51,-296.6 1666.01,-303.58"/>
</g>
<!-- /req/sam&#45;cpt/Sample&#45;&gt;/req/sam&#45;cpt/Sample/relatedSample&#45;sem -->
<g id="edge16" class="edge">
<title>/req/sam&#45;cpt/Sample&#45;&gt;/req/sam&#45;cpt/Sample/relatedSample&#45;sem</title>
<path fill="none" stroke="black" d="M1564.75,-287.68C1617.58,-274.29 1670,-261 1670,-261 1670,-261 1689.4,-257.83 1714.9,-253.65"/>
<polygon fill="black" stroke="black" points="1715.64,-257.08 1724.94,-252.01 1714.51,-250.17 1715.64,-257.08"/>
</g>
<!-- /req/sam&#45;cpt/Sample&#45;&gt;/req/obs&#45;cpt/gen/relatedObservation&#45;sem -->
<g id="edge17" class="edge">
<title>/req/sam&#45;cpt/Sample&#45;&gt;/req/obs&#45;cpt/gen/relatedObservation&#45;sem</title>
<path fill="none" stroke="black" d="M1529.11,-278.44C1590.91,-247.1 1670,-207 1670,-207 1670,-207 1689.4,-203.83 1714.9,-199.65"/>
<polygon fill="black" stroke="black" points="1715.64,-203.08 1724.94,-198.01 1714.51,-196.17 1715.64,-203.08"/>
</g>
<!-- /req/obs&#45;core/NamedValue&#45;&gt;/req/obs&#45;core/NamedValue/NamedValue&#45;sem -->
<g id="edge18" class="edge">
<title>/req/obs&#45;core/NamedValue&#45;&gt;/req/obs&#45;core/NamedValue/NamedValue&#45;sem</title>
<path fill="none" stroke="black" d="M1608.03,-109.79C1625.04,-111 1642.49,-112.25 1659.78,-113.48"/>
<polygon fill="black" stroke="black" points="1659.72,-116.99 1669.94,-114.21 1660.22,-110.01 1659.72,-116.99"/>
</g>
<!-- /req/obs&#45;core/NamedValue&#45;&gt;/req/obs&#45;core/NamedValue/name&#45;sem -->
<g id="edge19" class="edge">
<title>/req/obs&#45;core/NamedValue&#45;&gt;/req/obs&#45;core/NamedValue/name&#45;sem</title>
<path fill="none" stroke="black" d="M1608.03,-88.21C1633.44,-86.4 1659.81,-84.51 1685.2,-82.7"/>
<polygon fill="black" stroke="black" points="1685.52,-86.19 1695.25,-81.98 1685.03,-79.2 1685.52,-86.19"/>
</g>
<!-- /req/obs&#45;core/NamedValue&#45;&gt;/req/obs&#45;core/NamedValue/value&#45;sem -->
<g id="edge20" class="edge">
<title>/req/obs&#45;core/NamedValue&#45;&gt;/req/obs&#45;core/NamedValue/value&#45;sem</title>
<path fill="none" stroke="black" d="M1601.14,-62.46C1639.26,-52.79 1670,-45 1670,-45 1670,-45 1689.4,-41.83 1714.9,-37.65"/>
<polygon fill="black" stroke="black" points="1715.64,-41.08 1724.94,-36.01 1714.51,-34.17 1715.64,-41.08"/>
</g>
<!-- /req/sam&#45;basic/StatisticalClassification&#45;&gt;/req/sam&#45;basic/StatisticalClassification/StatisticalClassification&#45;sem -->
<g id="edge21" class="edge">
<title>/req/sam&#45;basic/StatisticalClassification&#45;&gt;/req/sam&#45;basic/StatisticalClassification/StatisticalClassification&#45;sem</title>
<path fill="none" stroke="black" d="M648.82,-289.87C676.46,-291.9 706.07,-294.07 735.88,-296.26"/>
<polygon fill="black" stroke="black" points="735.76,-299.76 745.99,-297 736.27,-292.78 735.76,-299.76"/>
</g>
<!-- /req/sam&#45;basic/StatisticalClassification&#45;&gt;/req/sam&#45;basic/StatisticalClassification/concept&#45;sem -->
<g id="edge22" class="edge">
<title>/req/sam&#45;basic/StatisticalClassification&#45;&gt;/req/sam&#45;basic/StatisticalClassification/concept&#45;sem</title>
<path fill="none" stroke="black" d="M648.82,-273.56C692.87,-271.95 741.9,-270.15 788.79,-268.43"/>
<polygon fill="black" stroke="black" points="789.21,-271.92 799.07,-268.05 788.95,-264.92 789.21,-271.92"/>
</g>
<!-- /req/sam&#45;basic/StatisticalClassification&#45;&gt;/req/sam&#45;basic/StatisticalClassification/classification&#45;sem -->
<g id="edge23" class="edge">
<title>/req/sam&#45;basic/StatisticalClassification&#45;&gt;/req/sam&#45;basic/StatisticalClassification/classification&#45;sem</title>
<path fill="none" stroke="black" d="M648.55,-251.53C699.04,-242.16 743,-234 743,-234 743,-234 774.85,-230.54 815.75,-226.1"/>
<polygon fill="black" stroke="black" points="816.18,-229.57 825.75,-225.01 815.43,-222.61 816.18,-229.57"/>
</g>
</g>
</svg>
