<?xml version="1.0" encoding="UTF-8" standalone="no"?>
<!DOCTYPE svg PUBLIC "-//W3C//DTD SVG 1.1//EN"
 "http://www.w3.org/Graphics/SVG/1.1/DTD/svg11.dtd">
<!-- Generated by graphviz version 2.43.0 (0)
 -->
<!-- Title: G Pages: 1 -->
<svg width="1944pt" height="1324pt"
 viewBox="0.00 0.00 1944.00 1324.00" xmlns="http://www.w3.org/2000/svg" xmlns:xlink="http://www.w3.org/1999/xlink">
<g id="graph0" class="graph" transform="scale(1 1) rotate(0) translate(4 1320)">
<title>G</title>
<polygon fill="white" stroke="transparent" points="-4,4 -4,-1320 1940,-1320 1940,4 -4,4"/>
<!-- /req/obs&#45;core/AbstractObservation/resultTime&#45;type -->
<g id="node1" class="node">
<title>/req/obs&#45;core/AbstractObservation/resultTime&#45;type</title>
<polygon fill="none" stroke="black" points="822,-1316 442,-1316 442,-1280 822,-1280 822,-1316"/>
<text text-anchor="middle" x="632" y="-1294.3" font-family="Times,serif" font-size="14.00">/req/obs&#45;core/AbstractObservation/resultTime&#45;type</text>
</g>
<!-- /req/obs&#45;core/AbstractObservation/validTime&#45;type -->
<g id="node2" class="node">
<title>/req/obs&#45;core/AbstractObservation/validTime&#45;type</title>
<polygon fill="none" stroke="black" points="818,-1262 446,-1262 446,-1226 818,-1226 818,-1262"/>
<text text-anchor="middle" x="632" y="-1240.3" font-family="Times,serif" font-size="14.00">/req/obs&#45;core/AbstractObservation/validTime&#45;type</text>
</g>
<!-- /req/obs&#45;cpt/Observation/phenomenonTime&#45;card -->
<g id="node3" class="node">
<title>/req/obs&#45;cpt/Observation/phenomenonTime&#45;card</title>
<polygon fill="none" stroke="black" points="812,-1208 452,-1208 452,-1172 812,-1172 812,-1208"/>
<text text-anchor="middle" x="632" y="-1186.3" font-family="Times,serif" font-size="14.00">/req/obs&#45;cpt/Observation/phenomenonTime&#45;card</text>
</g>
<!-- /req/obs&#45;cpt/Observation/resultTime&#45;card -->
<g id="node4" class="node">
<title>/req/obs&#45;cpt/Observation/resultTime&#45;card</title>
<polygon fill="none" stroke="black" points="787.5,-1154 476.5,-1154 476.5,-1118 787.5,-1118 787.5,-1154"/>
<text text-anchor="middle" x="632" y="-1132.3" font-family="Times,serif" font-size="14.00">/req/obs&#45;cpt/Observation/resultTime&#45;card</text>
</g>
<!-- /req/obs&#45;core/AbstractObservation/FoI&#45;con -->
<g id="node5" class="node">
<title>/req/obs&#45;core/AbstractObservation/FoI&#45;con</title>
<polygon fill="none" stroke="black" points="791,-1100 473,-1100 473,-1064 791,-1064 791,-1100"/>
<text text-anchor="middle" x="632" y="-1078.3" font-family="Times,serif" font-size="14.00">/req/obs&#45;core/AbstractObservation/FoI&#45;con</text>
</g>
<!-- /req/obs&#45;cpt/Observation/observedProperty&#45;card -->
<g id="node6" class="node">
<title>/req/obs&#45;cpt/Observation/observedProperty&#45;card</title>
<polygon fill="none" stroke="black" points="813,-1046 451,-1046 451,-1010 813,-1010 813,-1046"/>
<text text-anchor="middle" x="632" y="-1024.3" font-family="Times,serif" font-size="14.00">/req/obs&#45;cpt/Observation/observedProperty&#45;card</text>
</g>
<!-- /req/obs&#45;cpt/Observation/procedure&#45;card -->
<g id="node7" class="node">
<title>/req/obs&#45;cpt/Observation/procedure&#45;card</title>
<polygon fill="none" stroke="black" points="785,-992 479,-992 479,-956 785,-956 785,-992"/>
<text text-anchor="middle" x="632" y="-970.3" font-family="Times,serif" font-size="14.00">/req/obs&#45;cpt/Observation/procedure&#45;card</text>
</g>
<!-- /req/obs&#45;cpt/Observation/result&#45;card -->
<g id="node8" class="node">
<title>/req/obs&#45;cpt/Observation/result&#45;card</title>
<polygon fill="none" stroke="black" points="769.5,-938 494.5,-938 494.5,-902 769.5,-902 769.5,-938"/>
<text text-anchor="middle" x="632" y="-916.3" font-family="Times,serif" font-size="14.00">/req/obs&#45;cpt/Observation/result&#45;card</text>
</g>
<!-- /req/obs&#45;core/AbstractObservation/parameterName&#45;card -->
<g id="node9" class="node">
<title>/req/obs&#45;core/AbstractObservation/parameterName&#45;card</title>
<polygon fill="none" stroke="black" points="841.5,-884 422.5,-884 422.5,-848 841.5,-848 841.5,-884"/>
<text text-anchor="middle" x="632" y="-862.3" font-family="Times,serif" font-size="14.00">/req/obs&#45;core/AbstractObservation/parameterName&#45;card</text>
</g>
<!-- /req/obs&#45;core/AbstractObservationCharacteristics/AbstractObservationCharacteristics&#45;sem -->
<g id="node10" class="node">
<title>/req/obs&#45;core/AbstractObservationCharacteristics/AbstractObservationCharacteristics&#45;sem</title>
<polygon fill="none" stroke="black" points="1568,-1081 903,-1081 903,-1045 1568,-1045 1568,-1081"/>
<text text-anchor="middle" x="1235.5" y="-1059.3" font-family="Times,serif" font-size="14.00">/req/obs&#45;core/AbstractObservationCharacteristics/AbstractObservationCharacteristics&#45;sem</text>
</g>
<!-- /req/obs&#45;core/AbstractObservationCharacteristics/type&#45;sem -->
<g id="node11" class="node">
<title>/req/obs&#45;core/AbstractObservationCharacteristics/type&#45;sem</title>
<polygon fill="none" stroke="black" points="1455.5,-1027 1015.5,-1027 1015.5,-991 1455.5,-991 1455.5,-1027"/>
<text text-anchor="middle" x="1235.5" y="-1005.3" font-family="Times,serif" font-size="14.00">/req/obs&#45;core/AbstractObservationCharacteristics/type&#45;sem</text>
</g>
<!-- /req/obs&#45;core/AbstractObservationCharacteristics/parameter&#45;sem -->
<g id="node12" class="node">
<title>/req/obs&#45;core/AbstractObservationCharacteristics/parameter&#45;sem</title>
<polygon fill="none" stroke="black" points="1477.5,-973 993.5,-973 993.5,-937 1477.5,-937 1477.5,-973"/>
<text text-anchor="middle" x="1235.5" y="-951.3" font-family="Times,serif" font-size="14.00">/req/obs&#45;core/AbstractObservationCharacteristics/parameter&#45;sem</text>
</g>
<!-- /req/obs&#45;core/AbstractObservationCharacteristics/resultQuality&#45;sem -->
<g id="node13" class="node">
<title>/req/obs&#45;core/AbstractObservationCharacteristics/resultQuality&#45;sem</title>
<polygon fill="none" stroke="black" points="1487,-919 984,-919 984,-883 1487,-883 1487,-919"/>
<text text-anchor="middle" x="1235.5" y="-897.3" font-family="Times,serif" font-size="14.00">/req/obs&#45;core/AbstractObservationCharacteristics/resultQuality&#45;sem</text>
</g>
<!-- /req/obs&#45;cpt/Observation/phenomenonTime&#45;sem -->
<g id="node14" class="node">
<title>/req/obs&#45;cpt/Observation/phenomenonTime&#45;sem</title>
<polygon fill="none" stroke="black" points="1414.5,-865 1056.5,-865 1056.5,-829 1414.5,-829 1414.5,-865"/>
<text text-anchor="middle" x="1235.5" y="-843.3" font-family="Times,serif" font-size="14.00">/req/obs&#45;cpt/Observation/phenomenonTime&#45;sem</text>
</g>
<!-- /req/obs&#45;cpt/Observation/resultTime&#45;sem -->
<g id="node15" class="node">
<title>/req/obs&#45;cpt/Observation/resultTime&#45;sem</title>
<polygon fill="none" stroke="black" points="1389.5,-811 1081.5,-811 1081.5,-775 1389.5,-775 1389.5,-811"/>
<text text-anchor="middle" x="1235.5" y="-789.3" font-family="Times,serif" font-size="14.00">/req/obs&#45;cpt/Observation/resultTime&#45;sem</text>
</g>
<!-- /req/obs&#45;cpt/Observation/validTime&#45;sem -->
<g id="node16" class="node">
<title>/req/obs&#45;cpt/Observation/validTime&#45;sem</title>
<polygon fill="none" stroke="black" points="1386,-757 1085,-757 1085,-721 1386,-721 1386,-757"/>
<text text-anchor="middle" x="1235.5" y="-735.3" font-family="Times,serif" font-size="14.00">/req/obs&#45;cpt/Observation/validTime&#45;sem</text>
</g>
<!-- /req/obs&#45;cpt/Observation/featureOfInterest&#45;sem -->
<g id="node17" class="node">
<title>/req/obs&#45;cpt/Observation/featureOfInterest&#45;sem</title>
<polygon fill="none" stroke="black" points="1413.5,-703 1057.5,-703 1057.5,-667 1413.5,-667 1413.5,-703"/>
<text text-anchor="middle" x="1235.5" y="-681.3" font-family="Times,serif" font-size="14.00">/req/obs&#45;cpt/Observation/featureOfInterest&#45;sem</text>
</g>
<!-- /req/obs&#45;core/AbstractObservationCharacteristics/pFoI&#45;sem -->
<g id="node18" class="node">
<title>/req/obs&#45;core/AbstractObservationCharacteristics/pFoI&#45;sem</title>
<polygon fill="none" stroke="black" points="1455.5,-649 1015.5,-649 1015.5,-613 1455.5,-613 1455.5,-649"/>
<text text-anchor="middle" x="1235.5" y="-627.3" font-family="Times,serif" font-size="14.00">/req/obs&#45;core/AbstractObservationCharacteristics/pFoI&#45;sem</text>
</g>
<!-- /req/obs&#45;core/AbstractObservationCharacteristics/uFoI&#45;sem -->
<g id="node19" class="node">
<title>/req/obs&#45;core/AbstractObservationCharacteristics/uFoI&#45;sem</title>
<polygon fill="none" stroke="black" points="1455.5,-595 1015.5,-595 1015.5,-559 1455.5,-559 1455.5,-595"/>
<text text-anchor="middle" x="1235.5" y="-573.3" font-family="Times,serif" font-size="14.00">/req/obs&#45;core/AbstractObservationCharacteristics/uFoI&#45;sem</text>
</g>
<!-- /req/obs&#45;cpt/Observation/observedProperty&#45;sem -->
<g id="node20" class="node">
<title>/req/obs&#45;cpt/Observation/observedProperty&#45;sem</title>
<polygon fill="none" stroke="black" points="1415,-541 1056,-541 1056,-505 1415,-505 1415,-541"/>
<text text-anchor="middle" x="1235.5" y="-519.3" font-family="Times,serif" font-size="14.00">/req/obs&#45;cpt/Observation/observedProperty&#45;sem</text>
</g>
<!-- /req/obs&#45;cpt/Observation/result&#45;sem -->
<g id="node21" class="node">
<title>/req/obs&#45;cpt/Observation/result&#45;sem</title>
<polygon fill="none" stroke="black" points="1372,-487 1099,-487 1099,-451 1372,-451 1372,-487"/>
<text text-anchor="middle" x="1235.5" y="-465.3" font-family="Times,serif" font-size="14.00">/req/obs&#45;cpt/Observation/result&#45;sem</text>
</g>
<!-- /req/obs&#45;cpt/Observation/procedure&#45;sem -->
<g id="node22" class="node">
<title>/req/obs&#45;cpt/Observation/procedure&#45;sem</title>
<polygon fill="none" stroke="black" points="1387.5,-433 1083.5,-433 1083.5,-397 1387.5,-397 1387.5,-433"/>
<text text-anchor="middle" x="1235.5" y="-411.3" font-family="Times,serif" font-size="14.00">/req/obs&#45;cpt/Observation/procedure&#45;sem</text>
</g>
<!-- /req/obs&#45;cpt/Observation/observer&#45;sem -->
<g id="node23" class="node">
<title>/req/obs&#45;cpt/Observation/observer&#45;sem</title>
<polygon fill="none" stroke="black" points="1382.5,-379 1088.5,-379 1088.5,-343 1382.5,-343 1382.5,-379"/>
<text text-anchor="middle" x="1235.5" y="-357.3" font-family="Times,serif" font-size="14.00">/req/obs&#45;cpt/Observation/observer&#45;sem</text>
</g>
<!-- /req/obs&#45;cpt/Observation/host&#45;sem -->
<g id="node24" class="node">
<title>/req/obs&#45;cpt/Observation/host&#45;sem</title>
<polygon fill="none" stroke="black" points="1366.5,-325 1104.5,-325 1104.5,-289 1366.5,-289 1366.5,-325"/>
<text text-anchor="middle" x="1235.5" y="-303.3" font-family="Times,serif" font-size="14.00">/req/obs&#45;cpt/Observation/host&#45;sem</text>
</g>
<!-- /req/obs&#45;cpt/gen/relatedObservation&#45;sem -->
<g id="node25" class="node">
<title>/req/obs&#45;cpt/gen/relatedObservation&#45;sem</title>
<polygon fill="none" stroke="black" points="1389.5,-271 1081.5,-271 1081.5,-235 1389.5,-235 1389.5,-271"/>
<text text-anchor="middle" x="1235.5" y="-249.3" font-family="Times,serif" font-size="14.00">/req/obs&#45;cpt/gen/relatedObservation&#45;sem</text>
</g>
<!-- /req/obs&#45;core/gen/metadata&#45;sem -->
<g id="node26" class="node">
<title>/req/obs&#45;core/gen/metadata&#45;sem</title>
<polygon fill="none" stroke="black" points="1358.5,-217 1112.5,-217 1112.5,-181 1358.5,-181 1358.5,-217"/>
<text text-anchor="middle" x="1235.5" y="-195.3" font-family="Times,serif" font-size="14.00">/req/obs&#45;core/gen/metadata&#45;sem</text>
</g>
<!-- /req/obs&#45;core/NamedValue/NamedValue&#45;sem -->
<g id="node27" class="node">
<title>/req/obs&#45;core/NamedValue/NamedValue&#45;sem</title>
<polygon fill="none" stroke="black" points="1936,-144 1604,-144 1604,-108 1936,-108 1936,-144"/>
<text text-anchor="middle" x="1770" y="-122.3" font-family="Times,serif" font-size="14.00">/req/obs&#45;core/NamedValue/NamedValue&#45;sem</text>
</g>
<!-- /req/obs&#45;core/NamedValue/name&#45;sem -->
<g id="node28" class="node">
<title>/req/obs&#45;core/NamedValue/name&#45;sem</title>
<polygon fill="none" stroke="black" points="1910.5,-90 1629.5,-90 1629.5,-54 1910.5,-54 1910.5,-90"/>
<text text-anchor="middle" x="1770" y="-68.3" font-family="Times,serif" font-size="14.00">/req/obs&#45;core/NamedValue/name&#45;sem</text>
</g>
<!-- /req/obs&#45;core/NamedValue/value&#45;sem -->
<g id="node29" class="node">
<title>/req/obs&#45;core/NamedValue/value&#45;sem</title>
<polygon fill="none" stroke="black" points="1910.5,-36 1629.5,-36 1629.5,0 1910.5,0 1910.5,-36"/>
<text text-anchor="middle" x="1770" y="-14.3" font-family="Times,serif" font-size="14.00">/req/obs&#45;core/NamedValue/value&#45;sem</text>
</g>
<!-- /rec/obs&#45;cpt/Observation/observedProperty&#45;con -->
<g id="node30" class="node">
<title>/rec/obs&#45;cpt/Observation/observedProperty&#45;con</title>
<polygon fill="none" stroke="black" stroke-dasharray="1,5" points="808.5,-830 455.5,-830 455.5,-794 808.5,-794 808.5,-830"/>
<text text-anchor="middle" x="632" y="-808.3" font-family="Times,serif" font-size="14.00">/rec/obs&#45;cpt/Observation/observedProperty&#45;con</text>
</g>
<!-- /rec/obs&#45;cpt/Observation/observerhost&#45;con -->
<g id="node31" class="node">
<title>/rec/obs&#45;cpt/Observation/observerhost&#45;con</title>
<polygon fill="none" stroke="black" stroke-dasharray="1,5" points="791.5,-776 472.5,-776 472.5,-740 791.5,-740 791.5,-776"/>
<text text-anchor="middle" x="632" y="-754.3" font-family="Times,serif" font-size="14.00">/rec/obs&#45;cpt/Observation/observerhost&#45;con</text>
</g>
<!-- /rec/obs&#45;cpt/Observation/procedure&#45;con -->
<g id="node32" class="node">
<title>/rec/obs&#45;cpt/Observation/procedure&#45;con</title>
<polygon fill="none" stroke="black" stroke-dasharray="1,5" points="781,-722 483,-722 483,-686 781,-686 781,-722"/>
<text text-anchor="middle" x="632" y="-700.3" font-family="Times,serif" font-size="14.00">/rec/obs&#45;cpt/Observation/procedure&#45;con</text>
</g>
<!-- /rec/obs&#45;cpt/Observation/result&#45;con -->
<g id="node33" class="node">
<title>/rec/obs&#45;cpt/Observation/result&#45;con</title>
<polygon fill="none" stroke="black" stroke-dasharray="1,5" points="765.5,-668 498.5,-668 498.5,-632 765.5,-632 765.5,-668"/>
<text text-anchor="middle" x="632" y="-646.3" font-family="Times,serif" font-size="14.00">/rec/obs&#45;cpt/Observation/result&#45;con</text>
</g>
<!-- /rec/obs&#45;core/AbstractObservationCharacteristics/uFoI -->
<g id="node34" class="node">
<title>/rec/obs&#45;core/AbstractObservationCharacteristics/uFoI</title>
<polygon fill="none" stroke="black" stroke-dasharray="1,5" points="1438,-163 1033,-163 1033,-127 1438,-127 1438,-163"/>
<text text-anchor="middle" x="1235.5" y="-141.3" font-family="Times,serif" font-size="14.00">/rec/obs&#45;core/AbstractObservationCharacteristics/uFoI</text>
</g>
<!-- /req/obs&#45;core/AbstractObservation -->
<g id="node35" class="node">
<title>/req/obs&#45;core/AbstractObservation</title>
<polygon fill="none" stroke="black" points="3.5,-959 3.5,-980 358.5,-980 358.5,-959 3.5,-959"/>
<text text-anchor="start" x="58" y="-965.8" font-family="Times,serif" font-size="14.00">/req/obs&#45;core/AbstractObservation</text>
<polygon fill="none" stroke="black" points="3.5,-936 3.5,-957 358.5,-957 358.5,-936 3.5,-936"/>
<text text-anchor="start" x="6.5" y="-942.8" font-family="Times,serif" font-size="14.00">Abstract Observation core &#45; AbstractObservation</text>
<polygon fill="none" stroke="black" points="3.5,-913 3.5,-934 358.5,-934 358.5,-913 3.5,-913"/>
<text text-anchor="start" x="131" y="-919.8" font-family="Times,serif" font-size="14.00">Logical model</text>
<polygon fill="none" stroke="black" points="0,-910.5 0,-983.5 361,-983.5 361,-910.5 0,-910.5"/>
</g>
<!-- /req/obs&#45;core/AbstractObservation&#45;&gt;/req/obs&#45;core/AbstractObservation/resultTime&#45;type -->
<g id="edge1" class="edge">
<title>/req/obs&#45;core/AbstractObservation&#45;&gt;/req/obs&#45;core/AbstractObservation/resultTime&#45;type</title>
<path fill="none" stroke="black" d="M205.8,-983.54C262.16,-1068.27 397,-1271 397,-1271 397,-1271 426.49,-1274.4 464.53,-1278.79"/>
<polygon fill="black" stroke="black" points="464.58,-1282.32 474.92,-1279.99 465.39,-1275.37 464.58,-1282.32"/>
</g>
<!-- /req/obs&#45;core/AbstractObservation&#45;&gt;/req/obs&#45;core/AbstractObservation/validTime&#45;type -->
<g id="edge2" class="edge">
<title>/req/obs&#45;core/AbstractObservation&#45;&gt;/req/obs&#45;core/AbstractObservation/validTime&#45;type</title>
<path fill="none" stroke="black" d="M210.79,-983.69C269.71,-1057.52 397,-1217 397,-1217 397,-1217 426.49,-1220.4 464.53,-1224.79"/>
<polygon fill="black" stroke="black" points="464.58,-1228.32 474.92,-1225.99 465.39,-1221.37 464.58,-1228.32"/>
</g>
<!-- /req/obs&#45;core/AbstractObservation&#45;&gt;/req/obs&#45;cpt/Observation/phenomenonTime&#45;card -->
<g id="edge3" class="edge">
<title>/req/obs&#45;core/AbstractObservation&#45;&gt;/req/obs&#45;cpt/Observation/phenomenonTime&#45;card</title>
<path fill="none" stroke="black" d="M218.06,-983.64C279.54,-1045.27 397,-1163 397,-1163 397,-1163 426.49,-1166.4 464.53,-1170.79"/>
<polygon fill="black" stroke="black" points="464.58,-1174.32 474.92,-1171.99 465.39,-1167.37 464.58,-1174.32"/>
</g>
<!-- /req/obs&#45;core/AbstractObservation&#45;&gt;/req/obs&#45;cpt/Observation/resultTime&#45;card -->
<g id="edge4" class="edge">
<title>/req/obs&#45;core/AbstractObservation&#45;&gt;/req/obs&#45;cpt/Observation/resultTime&#45;card</title>
<path fill="none" stroke="black" d="M230.13,-983.56C293.69,-1031.34 397,-1109 397,-1109 397,-1109 427.34,-1112.5 466.18,-1116.98"/>
<polygon fill="black" stroke="black" points="465.89,-1120.47 476.22,-1118.14 466.69,-1113.52 465.89,-1120.47"/>
</g>
<!-- /req/obs&#45;core/AbstractObservation&#45;&gt;/req/obs&#45;core/AbstractObservation/FoI&#45;con -->
<g id="edge5" class="edge">
<title>/req/obs&#45;core/AbstractObservation&#45;&gt;/req/obs&#45;core/AbstractObservation/FoI&#45;con</title>
<path fill="none" stroke="black" d="M254.46,-983.56C316.98,-1014.9 397,-1055 397,-1055 397,-1055 426.49,-1058.4 464.53,-1062.79"/>
<polygon fill="black" stroke="black" points="464.58,-1066.32 474.92,-1063.99 465.39,-1059.37 464.58,-1066.32"/>
</g>
<!-- /req/obs&#45;core/AbstractObservation&#45;&gt;/req/obs&#45;cpt/Observation/observedProperty&#45;card -->
<g id="edge6" class="edge">
<title>/req/obs&#45;core/AbstractObservation&#45;&gt;/req/obs&#45;cpt/Observation/observedProperty&#45;card</title>
<path fill="none" stroke="black" d="M327.33,-983.54C365.9,-993.21 397,-1001 397,-1001 397,-1001 426.49,-1004.4 464.53,-1008.79"/>
<polygon fill="black" stroke="black" points="464.58,-1012.32 474.92,-1009.99 465.39,-1005.37 464.58,-1012.32"/>
</g>
<!-- /req/obs&#45;core/AbstractObservation&#45;&gt;/req/obs&#45;cpt/Observation/procedure&#45;card -->
<g id="edge7" class="edge">
<title>/req/obs&#45;core/AbstractObservation&#45;&gt;/req/obs&#45;cpt/Observation/procedure&#45;card</title>
<path fill="none" stroke="black" d="M361.09,-957.79C396.59,-959.92 433.66,-962.15 468.55,-964.24"/>
<polygon fill="black" stroke="black" points="468.62,-967.75 478.82,-964.86 469.04,-960.77 468.62,-967.75"/>
</g>
<!-- /req/obs&#45;core/AbstractObservation&#45;&gt;/req/obs&#45;cpt/Observation/result&#45;card -->
<g id="edge8" class="edge">
<title>/req/obs&#45;core/AbstractObservation&#45;&gt;/req/obs&#45;cpt/Observation/result&#45;card</title>
<path fill="none" stroke="black" d="M361.09,-936.21C401.92,-933.76 444.82,-931.18 484.11,-928.82"/>
<polygon fill="black" stroke="black" points="484.51,-932.31 494.28,-928.21 484.09,-925.32 484.51,-932.31"/>
</g>
<!-- /req/obs&#45;core/AbstractObservation&#45;&gt;/req/obs&#45;core/AbstractObservation/parameterName&#45;card -->
<g id="edge9" class="edge">
<title>/req/obs&#45;core/AbstractObservation&#45;&gt;/req/obs&#45;core/AbstractObservation/parameterName&#45;card</title>
<path fill="none" stroke="black" d="M327.33,-910.46C365.9,-900.79 397,-893 397,-893 397,-893 426.49,-889.6 464.53,-885.21"/>
<polygon fill="black" stroke="black" points="465.39,-888.63 474.92,-884.01 464.58,-881.68 465.39,-888.63"/>
</g>
<!-- /req/obs&#45;core/AbstractObservation&#45;&gt;/rec/obs&#45;cpt/Observation/observedProperty&#45;con -->
<g id="edge10" class="edge">
<title>/req/obs&#45;core/AbstractObservation&#45;&gt;/rec/obs&#45;cpt/Observation/observedProperty&#45;con</title>
<path fill="none" stroke="black" stroke-dasharray="1,5" d="M254.46,-910.44C316.98,-879.1 397,-839 397,-839 397,-839 426.49,-835.6 464.53,-831.21"/>
<polygon fill="black" stroke="black" points="465.39,-834.63 474.92,-830.01 464.58,-827.68 465.39,-834.63"/>
</g>
<!-- /req/obs&#45;core/AbstractObservation&#45;&gt;/rec/obs&#45;cpt/Observation/observerhost&#45;con -->
<g id="edge11" class="edge">
<title>/req/obs&#45;core/AbstractObservation&#45;&gt;/rec/obs&#45;cpt/Observation/observerhost&#45;con</title>
<path fill="none" stroke="black" stroke-dasharray="1,5" d="M230.13,-910.44C293.69,-862.66 397,-785 397,-785 397,-785 426.49,-781.6 464.53,-777.21"/>
<polygon fill="black" stroke="black" points="465.39,-780.63 474.92,-776.01 464.58,-773.68 465.39,-780.63"/>
</g>
<!-- /req/obs&#45;core/AbstractObservation&#45;&gt;/rec/obs&#45;cpt/Observation/procedure&#45;con -->
<g id="edge12" class="edge">
<title>/req/obs&#45;core/AbstractObservation&#45;&gt;/rec/obs&#45;cpt/Observation/procedure&#45;con</title>
<path fill="none" stroke="black" stroke-dasharray="1,5" d="M218.06,-910.36C279.54,-848.73 397,-731 397,-731 397,-731 430.88,-727.09 472.86,-722.25"/>
<polygon fill="black" stroke="black" points="473.27,-725.72 482.8,-721.1 472.47,-718.77 473.27,-725.72"/>
</g>
<!-- /req/obs&#45;core/AbstractObservation&#45;&gt;/rec/obs&#45;cpt/Observation/result&#45;con -->
<g id="edge13" class="edge">
<title>/req/obs&#45;core/AbstractObservation&#45;&gt;/rec/obs&#45;cpt/Observation/result&#45;con</title>
<path fill="none" stroke="black" stroke-dasharray="1,5" d="M210.79,-910.31C269.71,-836.48 397,-677 397,-677 397,-677 439.41,-672.11 488.13,-666.49"/>
<polygon fill="black" stroke="black" points="488.74,-669.94 498.27,-665.31 487.94,-662.98 488.74,-669.94"/>
</g>
<!-- /req/obs&#45;core/AbstractObservationCharacteristics -->
<g id="node36" class="node">
<title>/req/obs&#45;core/AbstractObservationCharacteristics</title>
<polygon fill="none" stroke="black" points="400,-589 400,-610 864,-610 864,-589 400,-589"/>
<text text-anchor="start" x="454.5" y="-595.8" font-family="Times,serif" font-size="14.00">/req/obs&#45;core/AbstractObservationCharacteristics</text>
<polygon fill="none" stroke="black" points="400,-566 400,-587 864,-587 864,-566 400,-566"/>
<text text-anchor="start" x="403" y="-572.8" font-family="Times,serif" font-size="14.00">Abstract Observation core &#45; AbstractObservationCharacteristics</text>
<polygon fill="none" stroke="black" points="400,-543 400,-564 864,-564 864,-543 400,-543"/>
<text text-anchor="start" x="582" y="-549.8" font-family="Times,serif" font-size="14.00">Logical model</text>
<polygon fill="none" stroke="black" points="397,-540.5 397,-613.5 867,-613.5 867,-540.5 397,-540.5"/>
</g>
<!-- /req/obs&#45;core/AbstractObservation&#45;&gt;/req/obs&#45;core/AbstractObservationCharacteristics -->
<g id="edge14" class="edge">
<title>/req/obs&#45;core/AbstractObservation&#45;&gt;/req/obs&#45;core/AbstractObservationCharacteristics</title>
<path fill="none" stroke="black" stroke-dasharray="5,2" d="M205.8,-910.46C262.16,-825.73 397,-623 397,-623 397,-623 412.41,-619.97 435.32,-615.47"/>
<polygon fill="black" stroke="black" points="436.06,-618.89 445.2,-613.52 434.71,-612.02 436.06,-618.89"/>
</g>
<!-- /req/obs&#45;core/AbstractObservationCharacteristics&#45;&gt;/req/obs&#45;core/AbstractObservationCharacteristics/AbstractObservationCharacteristics&#45;sem -->
<g id="edge15" class="edge">
<title>/req/obs&#45;core/AbstractObservationCharacteristics&#45;&gt;/req/obs&#45;core/AbstractObservationCharacteristics/AbstractObservationCharacteristics&#45;sem</title>
<path fill="none" stroke="black" d="M818.8,-613.52C847.05,-619.08 867,-623 867,-623 867,-623 903,-1036 903,-1036 903,-1036 947.12,-1039.59 1003.17,-1044.16"/>
<polygon fill="black" stroke="black" points="1003.13,-1047.67 1013.38,-1044.99 1003.7,-1040.69 1003.13,-1047.67"/>
</g>
<!-- /req/obs&#45;core/AbstractObservationCharacteristics&#45;&gt;/req/obs&#45;core/AbstractObservationCharacteristics/type&#45;sem -->
<g id="edge16" class="edge">
<title>/req/obs&#45;core/AbstractObservationCharacteristics&#45;&gt;/req/obs&#45;core/AbstractObservationCharacteristics/type&#45;sem</title>
<path fill="none" stroke="black" d="M818.8,-613.52C847.05,-619.08 867,-623 867,-623 867,-623 903,-982 903,-982 903,-982 948.2,-985.68 1005.22,-990.33"/>
<polygon fill="black" stroke="black" points="1004.98,-993.82 1015.23,-991.14 1005.55,-986.84 1004.98,-993.82"/>
</g>
<!-- /req/obs&#45;core/AbstractObservationCharacteristics&#45;&gt;/req/obs&#45;core/AbstractObservationCharacteristics/parameter&#45;sem -->
<g id="edge17" class="edge">
<title>/req/obs&#45;core/AbstractObservationCharacteristics&#45;&gt;/req/obs&#45;core/AbstractObservationCharacteristics/parameter&#45;sem</title>
<path fill="none" stroke="black" d="M818.8,-613.52C847.05,-619.08 867,-623 867,-623 867,-623 903,-928 903,-928 903,-928 947.12,-931.59 1003.17,-936.16"/>
<polygon fill="black" stroke="black" points="1003.13,-939.67 1013.38,-936.99 1003.7,-932.69 1003.13,-939.67"/>
</g>
<!-- /req/obs&#45;core/AbstractObservationCharacteristics&#45;&gt;/req/obs&#45;core/AbstractObservationCharacteristics/resultQuality&#45;sem -->
<g id="edge18" class="edge">
<title>/req/obs&#45;core/AbstractObservationCharacteristics&#45;&gt;/req/obs&#45;core/AbstractObservationCharacteristics/resultQuality&#45;sem</title>
<path fill="none" stroke="black" d="M818.8,-613.52C847.05,-619.08 867,-623 867,-623 867,-623 903,-874 903,-874 903,-874 947.12,-877.59 1003.17,-882.16"/>
<polygon fill="black" stroke="black" points="1003.13,-885.67 1013.38,-882.99 1003.7,-878.69 1003.13,-885.67"/>
</g>
<!-- /req/obs&#45;core/AbstractObservationCharacteristics&#45;&gt;/req/obs&#45;cpt/Observation/phenomenonTime&#45;sem -->
<g id="edge19" class="edge">
<title>/req/obs&#45;core/AbstractObservationCharacteristics&#45;&gt;/req/obs&#45;cpt/Observation/phenomenonTime&#45;sem</title>
<path fill="none" stroke="black" d="M818.8,-613.52C847.05,-619.08 867,-623 867,-623 867,-623 903,-820 903,-820 903,-820 971.39,-825.57 1046.05,-831.65"/>
<polygon fill="black" stroke="black" points="1045.88,-835.15 1056.14,-832.47 1046.45,-828.17 1045.88,-835.15"/>
</g>
<!-- /req/obs&#45;core/AbstractObservationCharacteristics&#45;&gt;/req/obs&#45;cpt/Observation/resultTime&#45;sem -->
<g id="edge20" class="edge">
<title>/req/obs&#45;core/AbstractObservationCharacteristics&#45;&gt;/req/obs&#45;cpt/Observation/resultTime&#45;sem</title>
<path fill="none" stroke="black" d="M818.8,-613.52C847.05,-619.08 867,-623 867,-623 867,-623 903,-766 903,-766 903,-766 987.5,-772.88 1071.17,-779.7"/>
<polygon fill="black" stroke="black" points="1071.11,-783.2 1081.36,-780.53 1071.68,-776.23 1071.11,-783.2"/>
</g>
<!-- /req/obs&#45;core/AbstractObservationCharacteristics&#45;&gt;/req/obs&#45;cpt/Observation/validTime&#45;sem -->
<g id="edge21" class="edge">
<title>/req/obs&#45;core/AbstractObservationCharacteristics&#45;&gt;/req/obs&#45;cpt/Observation/validTime&#45;sem</title>
<path fill="none" stroke="black" d="M818.8,-613.52C847.05,-619.08 867,-623 867,-623 867,-623 903,-712 903,-712 903,-712 989.89,-719.08 1074.69,-725.98"/>
<polygon fill="black" stroke="black" points="1074.5,-729.48 1084.75,-726.8 1075.07,-722.5 1074.5,-729.48"/>
</g>
<!-- /req/obs&#45;core/AbstractObservationCharacteristics&#45;&gt;/req/obs&#45;cpt/Observation/featureOfInterest&#45;sem -->
<g id="edge22" class="edge">
<title>/req/obs&#45;core/AbstractObservationCharacteristics&#45;&gt;/req/obs&#45;cpt/Observation/featureOfInterest&#45;sem</title>
<path fill="none" stroke="black" d="M818.8,-613.52C847.05,-619.08 867,-623 867,-623 867,-623 903,-658 903,-658 903,-658 971.96,-663.62 1046.97,-669.73"/>
<polygon fill="black" stroke="black" points="1046.85,-673.23 1057.1,-670.55 1047.42,-666.25 1046.85,-673.23"/>
</g>
<!-- /req/obs&#45;core/AbstractObservationCharacteristics&#45;&gt;/req/obs&#45;core/AbstractObservationCharacteristics/pFoI&#45;sem -->
<g id="edge23" class="edge">
<title>/req/obs&#45;core/AbstractObservationCharacteristics&#45;&gt;/req/obs&#45;core/AbstractObservationCharacteristics/pFoI&#45;sem</title>
<path fill="none" stroke="black" d="M867.15,-600.41C888.9,-602.59 903,-604 903,-604 903,-604 948.2,-607.68 1005.22,-612.33"/>
<polygon fill="black" stroke="black" points="1004.98,-615.82 1015.23,-613.14 1005.55,-608.84 1004.98,-615.82"/>
</g>
<!-- /req/obs&#45;core/AbstractObservationCharacteristics&#45;&gt;/req/obs&#45;core/AbstractObservationCharacteristics/uFoI&#45;sem -->
<g id="edge24" class="edge">
<title>/req/obs&#45;core/AbstractObservationCharacteristics&#45;&gt;/req/obs&#45;core/AbstractObservationCharacteristics/uFoI&#45;sem</title>
<path fill="none" stroke="black" d="M867.28,-577C912.51,-577 959.86,-577 1004.94,-577"/>
<polygon fill="black" stroke="black" points="1005.13,-580.5 1015.13,-577 1005.13,-573.5 1005.13,-580.5"/>
</g>
<!-- /req/obs&#45;core/AbstractObservationCharacteristics&#45;&gt;/req/obs&#45;cpt/Observation/observedProperty&#45;sem -->
<g id="edge25" class="edge">
<title>/req/obs&#45;core/AbstractObservationCharacteristics&#45;&gt;/req/obs&#45;cpt/Observation/observedProperty&#45;sem</title>
<path fill="none" stroke="black" d="M867.15,-553.59C888.9,-551.41 903,-550 903,-550 903,-550 971.11,-544.45 1045.59,-538.39"/>
<polygon fill="black" stroke="black" points="1045.97,-541.87 1055.65,-537.57 1045.4,-534.89 1045.97,-541.87"/>
</g>
<!-- /req/obs&#45;core/AbstractObservationCharacteristics&#45;&gt;/req/obs&#45;cpt/Observation/result&#45;sem -->
<g id="edge26" class="edge">
<title>/req/obs&#45;core/AbstractObservationCharacteristics&#45;&gt;/req/obs&#45;cpt/Observation/result&#45;sem</title>
<path fill="none" stroke="black" d="M754.97,-540.41C826.52,-518.94 903,-496 903,-496 903,-496 999.77,-488.12 1088.74,-480.87"/>
<polygon fill="black" stroke="black" points="1089.03,-484.36 1098.71,-480.06 1088.46,-477.38 1089.03,-484.36"/>
</g>
<!-- /req/obs&#45;core/AbstractObservationCharacteristics&#45;&gt;/req/obs&#45;cpt/Observation/procedure&#45;sem -->
<g id="edge27" class="edge">
<title>/req/obs&#45;core/AbstractObservationCharacteristics&#45;&gt;/req/obs&#45;cpt/Observation/procedure&#45;sem</title>
<path fill="none" stroke="black" d="M706.07,-540.47C786.03,-500.49 903,-442 903,-442 903,-442 988.93,-435 1073.29,-428.13"/>
<polygon fill="black" stroke="black" points="1073.62,-431.62 1083.3,-427.31 1073.05,-424.64 1073.62,-431.62"/>
</g>
<!-- /req/obs&#45;core/AbstractObservationCharacteristics&#45;&gt;/req/obs&#45;cpt/Observation/observer&#45;sem -->
<g id="edge28" class="edge">
<title>/req/obs&#45;core/AbstractObservationCharacteristics&#45;&gt;/req/obs&#45;cpt/Observation/observer&#45;sem</title>
<path fill="none" stroke="black" d="M685.38,-540.33C763.9,-485.37 903,-388 903,-388 903,-388 992.13,-380.74 1077.96,-373.75"/>
<polygon fill="black" stroke="black" points="1078.45,-377.22 1088.13,-372.92 1077.88,-370.24 1078.45,-377.22"/>
</g>
<!-- /req/obs&#45;core/AbstractObservationCharacteristics&#45;&gt;/req/obs&#45;cpt/Observation/host&#45;sem -->
<g id="edge29" class="edge">
<title>/req/obs&#45;core/AbstractObservationCharacteristics&#45;&gt;/req/obs&#45;cpt/Observation/host&#45;sem</title>
<path fill="none" stroke="black" d="M673.71,-540.36C749.14,-472.47 903,-334 903,-334 903,-334 1003.86,-325.79 1094.31,-318.42"/>
<polygon fill="black" stroke="black" points="1094.75,-321.89 1104.43,-317.59 1094.18,-314.92 1094.75,-321.89"/>
</g>
<!-- /req/obs&#45;core/AbstractObservationCharacteristics&#45;&gt;/req/obs&#45;cpt/gen/relatedObservation&#45;sem -->
<g id="edge30" class="edge">
<title>/req/obs&#45;core/AbstractObservationCharacteristics&#45;&gt;/req/obs&#45;cpt/gen/relatedObservation&#45;sem</title>
<path fill="none" stroke="black" d="M666.38,-540.28C738.62,-460.82 903,-280 903,-280 903,-280 987.5,-273.12 1071.17,-266.3"/>
<polygon fill="black" stroke="black" points="1071.68,-269.77 1081.36,-265.47 1071.11,-262.8 1071.68,-269.77"/>
</g>
<!-- /req/obs&#45;core/AbstractObservationCharacteristics&#45;&gt;/req/obs&#45;core/gen/metadata&#45;sem -->
<g id="edge31" class="edge">
<title>/req/obs&#45;core/AbstractObservationCharacteristics&#45;&gt;/req/obs&#45;core/gen/metadata&#45;sem</title>
<path fill="none" stroke="black" d="M661.13,-540.43C730.28,-450.53 903,-226 903,-226 903,-226 1010.01,-217.28 1102.43,-209.76"/>
<polygon fill="black" stroke="black" points="1102.79,-213.24 1112.47,-208.94 1102.22,-206.26 1102.79,-213.24"/>
</g>
<!-- /req/obs&#45;core/AbstractObservationCharacteristics&#45;&gt;/rec/obs&#45;core/AbstractObservationCharacteristics/uFoI -->
<g id="edge32" class="edge">
<title>/req/obs&#45;core/AbstractObservationCharacteristics&#45;&gt;/rec/obs&#45;core/AbstractObservationCharacteristics/uFoI</title>
<path fill="none" stroke="black" stroke-dasharray="1,5" d="M657.44,-540.34C723.9,-440.65 903,-172 903,-172 903,-172 957.62,-167.55 1022.52,-162.27"/>
<polygon fill="black" stroke="black" points="1022.91,-165.75 1032.59,-161.45 1022.34,-158.77 1022.91,-165.75"/>
</g>
<!-- /req/obs&#45;core/NamedValue -->
<g id="node37" class="node">
<title>/req/obs&#45;core/NamedValue</title>
<polygon fill="none" stroke="black" points="1086.5,-84 1086.5,-105 1384.5,-105 1384.5,-84 1086.5,-84"/>
<text text-anchor="start" x="1141.5" y="-90.8" font-family="Times,serif" font-size="14.00">/req/obs&#45;core/NamedValue</text>
<polygon fill="none" stroke="black" points="1086.5,-61 1086.5,-82 1384.5,-82 1384.5,-61 1086.5,-61"/>
<text text-anchor="start" x="1089.5" y="-67.8" font-family="Times,serif" font-size="14.00">Abstract Observation core &#45; NamedValue</text>
<polygon fill="none" stroke="black" points="1086.5,-38 1086.5,-59 1384.5,-59 1384.5,-38 1086.5,-38"/>
<text text-anchor="start" x="1185.5" y="-44.8" font-family="Times,serif" font-size="14.00">Logical model</text>
<polygon fill="none" stroke="black" points="1083.5,-35.5 1083.5,-108.5 1387.5,-108.5 1387.5,-35.5 1083.5,-35.5"/>
</g>
<!-- /req/obs&#45;core/AbstractObservationCharacteristics&#45;&gt;/req/obs&#45;core/NamedValue -->
<g id="edge33" class="edge">
<title>/req/obs&#45;core/AbstractObservationCharacteristics&#45;&gt;/req/obs&#45;core/NamedValue</title>
<path fill="none" stroke="black" stroke-dasharray="5,2" d="M654.64,-540.21C718.71,-431.3 903,-118 903,-118 903,-118 988.93,-106.08 1073.29,-94.37"/>
<polygon fill="black" stroke="black" points="1073.88,-97.82 1083.3,-92.98 1072.92,-90.89 1073.88,-97.82"/>
</g>
<!-- /req/obs&#45;core/NamedValue&#45;&gt;/req/obs&#45;core/NamedValue/NamedValue&#45;sem -->
<g id="edge34" class="edge">
<title>/req/obs&#45;core/NamedValue&#45;&gt;/req/obs&#45;core/NamedValue/NamedValue&#45;sem</title>
<path fill="none" stroke="black" d="M1387.67,-87.33C1451.87,-93.84 1527.11,-101.47 1593.73,-108.23"/>
<polygon fill="black" stroke="black" points="1593.61,-111.73 1603.92,-109.26 1594.32,-104.77 1593.61,-111.73"/>
</g>
<!-- /req/obs&#45;core/NamedValue&#45;&gt;/req/obs&#45;core/NamedValue/name&#45;sem -->
<g id="edge35" class="edge">
<title>/req/obs&#45;core/NamedValue&#45;&gt;/req/obs&#45;core/NamedValue/name&#45;sem</title>
<path fill="none" stroke="black" d="M1387.67,-72C1460.2,-72 1546.85,-72 1619.21,-72"/>
<polygon fill="black" stroke="black" points="1619.32,-75.5 1629.32,-72 1619.32,-68.5 1619.32,-75.5"/>
</g>
<!-- /req/obs&#45;core/NamedValue&#45;&gt;/req/obs&#45;core/NamedValue/value&#45;sem -->
<g id="edge36" class="edge">
<title>/req/obs&#45;core/NamedValue&#45;&gt;/req/obs&#45;core/NamedValue/value&#45;sem</title>
<path fill="none" stroke="black" d="M1387.67,-56.67C1460.2,-49.31 1546.85,-40.53 1619.21,-33.19"/>
<polygon fill="black" stroke="black" points="1619.72,-36.66 1629.32,-32.16 1619.02,-29.69 1619.72,-36.66"/>
</g>
</g>
</svg>
