<?xml version="1.0" encoding="UTF-8" standalone="no"?>
<!DOCTYPE svg PUBLIC "-//W3C//DTD SVG 1.1//EN"
 "http://www.w3.org/Graphics/SVG/1.1/DTD/svg11.dtd">
<!-- Generated by graphviz version 2.43.0 (0)
 -->
<!-- Title: G Pages: 1 -->
<svg width="1272pt" height="171pt"
 viewBox="0.00 0.00 1272.00 171.00" xmlns="http://www.w3.org/2000/svg" xmlns:xlink="http://www.w3.org/1999/xlink">
<g id="graph0" class="graph" transform="scale(1 1) rotate(0) translate(4 167)">
<title>G</title>
<polygon fill="white" stroke="transparent" points="-4,4 -4,-167 1268,-167 1268,4 -4,4"/>
<!-- /req/obs&#45;core/gen/metadata&#45;sem -->
<g id="node1" class="node">
<title>/req/obs&#45;core/gen/metadata&#45;sem</title>
<polygon fill="none" stroke="black" points="748,-163 502,-163 502,-127 748,-127 748,-163"/>
<text text-anchor="middle" x="625" y="-141.3" font-family="Times,serif" font-size="14.00">/req/obs&#45;core/gen/metadata&#45;sem</text>
</g>
<!-- /req/obs&#45;cpt/ObservableProperty/ObservableProperty&#45;sem -->
<g id="node2" class="node">
<title>/req/obs&#45;cpt/ObservableProperty/ObservableProperty&#45;sem</title>
<polygon fill="none" stroke="black" points="1264,-144 832,-144 832,-108 1264,-108 1264,-144"/>
<text text-anchor="middle" x="1048" y="-122.3" font-family="Times,serif" font-size="14.00">/req/obs&#45;cpt/ObservableProperty/ObservableProperty&#45;sem</text>
</g>
<!-- /req/obs&#45;cpt/ObservableProperty/observer&#45;sem -->
<g id="node3" class="node">
<title>/req/obs&#45;cpt/ObservableProperty/observer&#45;sem</title>
<polygon fill="none" stroke="black" points="1223.5,-90 872.5,-90 872.5,-54 1223.5,-54 1223.5,-90"/>
<text text-anchor="middle" x="1048" y="-68.3" font-family="Times,serif" font-size="14.00">/req/obs&#45;cpt/ObservableProperty/observer&#45;sem</text>
</g>
<!-- /req/obs&#45;cpt/gen/relatedObservation&#45;sem -->
<g id="node4" class="node">
<title>/req/obs&#45;cpt/gen/relatedObservation&#45;sem</title>
<polygon fill="none" stroke="black" points="1202,-36 894,-36 894,0 1202,0 1202,-36"/>
<text text-anchor="middle" x="1048" y="-14.3" font-family="Times,serif" font-size="14.00">/req/obs&#45;cpt/gen/relatedObservation&#45;sem</text>
</g>
<!-- /req/obs&#45;core/AbstractObservableProperty -->
<g id="node5" class="node">
<title>/req/obs&#45;core/AbstractObservableProperty</title>
<polygon fill="none" stroke="black" points="3,-120 3,-141 415,-141 415,-120 3,-120"/>
<text text-anchor="start" x="57.5" y="-126.8" font-family="Times,serif" font-size="14.00">/req/obs&#45;core/AbstractObservableProperty</text>
<polygon fill="none" stroke="black" points="3,-97 3,-118 415,-118 415,-97 3,-97"/>
<text text-anchor="start" x="6" y="-103.8" font-family="Times,serif" font-size="14.00">Abstract Observation core &#45; AbstractObservableProperty</text>
<polygon fill="none" stroke="black" points="3,-74 3,-95 415,-95 415,-74 3,-74"/>
<text text-anchor="start" x="159" y="-80.8" font-family="Times,serif" font-size="14.00">Logical model</text>
<polygon fill="none" stroke="black" points="0,-71.5 0,-144.5 418,-144.5 418,-71.5 0,-71.5"/>
</g>
<!-- /req/obs&#45;core/AbstractObservableProperty&#45;&gt;/req/obs&#45;core/gen/metadata&#45;sem -->
<g id="edge1" class="edge">
<title>/req/obs&#45;core/AbstractObservableProperty&#45;&gt;/req/obs&#45;core/gen/metadata&#45;sem</title>
<path fill="none" stroke="black" d="M418.21,-126.61C443.32,-128.85 468.4,-131.09 491.98,-133.2"/>
<polygon fill="black" stroke="black" points="491.72,-136.69 501.99,-134.1 492.35,-129.72 491.72,-136.69"/>
</g>
<!-- /req/obs&#45;cpt/ObservableProperty -->
<g id="node6" class="node">
<title>/req/obs&#45;cpt/ObservableProperty</title>
<polygon fill="none" stroke="black" points="457,-84 457,-105 793,-105 793,-84 457,-84"/>
<text text-anchor="start" x="508" y="-90.8" font-family="Times,serif" font-size="14.00">/req/obs&#45;cpt/ObservableProperty</text>
<polygon fill="none" stroke="black" points="457,-61 457,-82 793,-82 793,-61 457,-61"/>
<text text-anchor="start" x="460" y="-67.8" font-family="Times,serif" font-size="14.00">Conceptual Observation &#45; ObservableProperty</text>
<polygon fill="none" stroke="black" points="457,-38 457,-59 793,-59 793,-38 457,-38"/>
<text text-anchor="start" x="560.5" y="-44.8" font-family="Times,serif" font-size="14.00">Conceptual model</text>
<polygon fill="none" stroke="black" points="454,-35.5 454,-108.5 796,-108.5 796,-35.5 454,-35.5"/>
</g>
<!-- /req/obs&#45;core/AbstractObservableProperty&#45;&gt;/req/obs&#45;cpt/ObservableProperty -->
<g id="edge2" class="edge">
<title>/req/obs&#45;core/AbstractObservableProperty&#45;&gt;/req/obs&#45;cpt/ObservableProperty</title>
<path fill="none" stroke="black" stroke-dasharray="5,2" d="M418.21,-89.89C426.82,-89.15 435.43,-88.4 443.98,-87.65"/>
<polygon fill="black" stroke="black" points="444.32,-91.14 453.98,-86.78 443.71,-84.16 444.32,-91.14"/>
</g>
<!-- /req/obs&#45;cpt/ObservableProperty&#45;&gt;/req/obs&#45;cpt/ObservableProperty/ObservableProperty&#45;sem -->
<g id="edge3" class="edge">
<title>/req/obs&#45;cpt/ObservableProperty&#45;&gt;/req/obs&#45;cpt/ObservableProperty/ObservableProperty&#45;sem</title>
<path fill="none" stroke="black" d="M796.12,-94.3C817.47,-97.09 832,-99 832,-99 832,-99 858.86,-102.37 893.6,-106.74"/>
<polygon fill="black" stroke="black" points="893.23,-110.22 903.59,-107.99 894.11,-103.27 893.23,-110.22"/>
</g>
<!-- /req/obs&#45;cpt/ObservableProperty&#45;&gt;/req/obs&#45;cpt/ObservableProperty/observer&#45;sem -->
<g id="edge4" class="edge">
<title>/req/obs&#45;cpt/ObservableProperty&#45;&gt;/req/obs&#45;cpt/ObservableProperty/observer&#45;sem</title>
<path fill="none" stroke="black" d="M796.02,-72C817.79,-72 840.16,-72 862.15,-72"/>
<polygon fill="black" stroke="black" points="862.22,-75.5 872.22,-72 862.22,-68.5 862.22,-75.5"/>
</g>
<!-- /req/obs&#45;cpt/ObservableProperty&#45;&gt;/req/obs&#45;cpt/gen/relatedObservation&#45;sem -->
<g id="edge5" class="edge">
<title>/req/obs&#45;cpt/ObservableProperty&#45;&gt;/req/obs&#45;cpt/gen/relatedObservation&#45;sem</title>
<path fill="none" stroke="black" d="M796.12,-49.7C817.47,-46.91 832,-45 832,-45 832,-45 858.86,-41.63 893.6,-37.26"/>
<polygon fill="black" stroke="black" points="894.11,-40.73 903.59,-36.01 893.23,-33.78 894.11,-40.73"/>
</g>
</g>
</svg>
