<?xml version="1.0" encoding="UTF-8" standalone="no"?>
<!DOCTYPE svg PUBLIC "-//W3C//DTD SVG 1.1//EN"
 "http://www.w3.org/Graphics/SVG/1.1/DTD/svg11.dtd">
<!-- Generated by graphviz version 2.43.0 (0)
 -->
<!-- Title: G Pages: 1 -->
<svg width="727pt" height="1178pt"
 viewBox="0.00 0.00 727.00 1178.00" xmlns="http://www.w3.org/2000/svg" xmlns:xlink="http://www.w3.org/1999/xlink">
<g id="graph0" class="graph" transform="scale(1 1) rotate(0) translate(4 1174)">
<title>G</title>
<polygon fill="white" stroke="transparent" points="-4,4 -4,-1174 723,-1174 723,4 -4,4"/>
<!-- /req/obs&#45;cpt/Observation/Observation&#45;sem -->
<g id="node1" class="node">
<title>/req/obs&#45;cpt/Observation/Observation&#45;sem</title>
<polygon fill="none" stroke="black" points="679,-1170 361,-1170 361,-1134 679,-1134 679,-1170"/>
<text text-anchor="middle" x="520" y="-1148.3" font-family="Times,serif" font-size="14.00">/req/obs&#45;cpt/Observation/Observation&#45;sem</text>
</g>
<!-- /req/obs&#45;cpt/Observation/phenomenonTime&#45;sem -->
<g id="node2" class="node">
<title>/req/obs&#45;cpt/Observation/phenomenonTime&#45;sem</title>
<polygon fill="none" stroke="black" points="699,-1116 341,-1116 341,-1080 699,-1080 699,-1116"/>
<text text-anchor="middle" x="520" y="-1094.3" font-family="Times,serif" font-size="14.00">/req/obs&#45;cpt/Observation/phenomenonTime&#45;sem</text>
</g>
<!-- /req/obs&#45;cpt/Observation/phenomenonTime&#45;card -->
<g id="node3" class="node">
<title>/req/obs&#45;cpt/Observation/phenomenonTime&#45;card</title>
<polygon fill="none" stroke="black" points="700,-1062 340,-1062 340,-1026 700,-1026 700,-1062"/>
<text text-anchor="middle" x="520" y="-1040.3" font-family="Times,serif" font-size="14.00">/req/obs&#45;cpt/Observation/phenomenonTime&#45;card</text>
</g>
<!-- /req/obs&#45;cpt/Observation/resultTime&#45;sem -->
<g id="node4" class="node">
<title>/req/obs&#45;cpt/Observation/resultTime&#45;sem</title>
<polygon fill="none" stroke="black" points="674,-1008 366,-1008 366,-972 674,-972 674,-1008"/>
<text text-anchor="middle" x="520" y="-986.3" font-family="Times,serif" font-size="14.00">/req/obs&#45;cpt/Observation/resultTime&#45;sem</text>
</g>
<!-- /req/obs&#45;cpt/Observation/resultTime&#45;card -->
<g id="node5" class="node">
<title>/req/obs&#45;cpt/Observation/resultTime&#45;card</title>
<polygon fill="none" stroke="black" points="675.5,-954 364.5,-954 364.5,-918 675.5,-918 675.5,-954"/>
<text text-anchor="middle" x="520" y="-932.3" font-family="Times,serif" font-size="14.00">/req/obs&#45;cpt/Observation/resultTime&#45;card</text>
</g>
<!-- /req/obs&#45;cpt/Observation/validTime&#45;sem -->
<g id="node6" class="node">
<title>/req/obs&#45;cpt/Observation/validTime&#45;sem</title>
<polygon fill="none" stroke="black" points="670.5,-900 369.5,-900 369.5,-864 670.5,-864 670.5,-900"/>
<text text-anchor="middle" x="520" y="-878.3" font-family="Times,serif" font-size="14.00">/req/obs&#45;cpt/Observation/validTime&#45;sem</text>
</g>
<!-- /req/obs&#45;cpt/Observation/featureOfInterest&#45;sem -->
<g id="node7" class="node">
<title>/req/obs&#45;cpt/Observation/featureOfInterest&#45;sem</title>
<polygon fill="none" stroke="black" points="698,-846 342,-846 342,-810 698,-810 698,-846"/>
<text text-anchor="middle" x="520" y="-824.3" font-family="Times,serif" font-size="14.00">/req/obs&#45;cpt/Observation/featureOfInterest&#45;sem</text>
</g>
<!-- /req/obs&#45;cpt/Observation/featureOfInterest&#45;card -->
<g id="node8" class="node">
<title>/req/obs&#45;cpt/Observation/featureOfInterest&#45;card</title>
<polygon fill="none" stroke="black" points="699.5,-792 340.5,-792 340.5,-756 699.5,-756 699.5,-792"/>
<text text-anchor="middle" x="520" y="-770.3" font-family="Times,serif" font-size="14.00">/req/obs&#45;cpt/Observation/featureOfInterest&#45;card</text>
</g>
<!-- /req/obs&#45;cpt/Observation/observedProperty&#45;sem -->
<g id="node9" class="node">
<title>/req/obs&#45;cpt/Observation/observedProperty&#45;sem</title>
<polygon fill="none" stroke="black" points="699.5,-738 340.5,-738 340.5,-702 699.5,-702 699.5,-738"/>
<text text-anchor="middle" x="520" y="-716.3" font-family="Times,serif" font-size="14.00">/req/obs&#45;cpt/Observation/observedProperty&#45;sem</text>
</g>
<!-- /req/obs&#45;cpt/Observation/observedProperty&#45;card -->
<g id="node10" class="node">
<title>/req/obs&#45;cpt/Observation/observedProperty&#45;card</title>
<polygon fill="none" stroke="black" points="701,-684 339,-684 339,-648 701,-648 701,-684"/>
<text text-anchor="middle" x="520" y="-662.3" font-family="Times,serif" font-size="14.00">/req/obs&#45;cpt/Observation/observedProperty&#45;card</text>
</g>
<!-- /req/obs&#45;cpt/Observation/result&#45;sem -->
<g id="node11" class="node">
<title>/req/obs&#45;cpt/Observation/result&#45;sem</title>
<polygon fill="none" stroke="black" points="656.5,-630 383.5,-630 383.5,-594 656.5,-594 656.5,-630"/>
<text text-anchor="middle" x="520" y="-608.3" font-family="Times,serif" font-size="14.00">/req/obs&#45;cpt/Observation/result&#45;sem</text>
</g>
<!-- /req/obs&#45;cpt/Observation/result&#45;card -->
<g id="node12" class="node">
<title>/req/obs&#45;cpt/Observation/result&#45;card</title>
<polygon fill="none" stroke="black" points="657.5,-576 382.5,-576 382.5,-540 657.5,-540 657.5,-576"/>
<text text-anchor="middle" x="520" y="-554.3" font-family="Times,serif" font-size="14.00">/req/obs&#45;cpt/Observation/result&#45;card</text>
</g>
<!-- /req/obs&#45;cpt/Observation/procedure&#45;sem -->
<g id="node13" class="node">
<title>/req/obs&#45;cpt/Observation/procedure&#45;sem</title>
<polygon fill="none" stroke="black" points="672,-522 368,-522 368,-486 672,-486 672,-522"/>
<text text-anchor="middle" x="520" y="-500.3" font-family="Times,serif" font-size="14.00">/req/obs&#45;cpt/Observation/procedure&#45;sem</text>
</g>
<!-- /req/obs&#45;cpt/Observation/procedure&#45;card -->
<g id="node14" class="node">
<title>/req/obs&#45;cpt/Observation/procedure&#45;card</title>
<polygon fill="none" stroke="black" points="673,-468 367,-468 367,-432 673,-432 673,-468"/>
<text text-anchor="middle" x="520" y="-446.3" font-family="Times,serif" font-size="14.00">/req/obs&#45;cpt/Observation/procedure&#45;card</text>
</g>
<!-- /req/obs&#45;cpt/Observation/observer&#45;sem -->
<g id="node15" class="node">
<title>/req/obs&#45;cpt/Observation/observer&#45;sem</title>
<polygon fill="none" stroke="black" points="667,-414 373,-414 373,-378 667,-378 667,-414"/>
<text text-anchor="middle" x="520" y="-392.3" font-family="Times,serif" font-size="14.00">/req/obs&#45;cpt/Observation/observer&#45;sem</text>
</g>
<!-- /req/obs&#45;cpt/Observation/host&#45;sem -->
<g id="node16" class="node">
<title>/req/obs&#45;cpt/Observation/host&#45;sem</title>
<polygon fill="none" stroke="black" points="651,-360 389,-360 389,-324 651,-324 651,-360"/>
<text text-anchor="middle" x="520" y="-338.3" font-family="Times,serif" font-size="14.00">/req/obs&#45;cpt/Observation/host&#45;sem</text>
</g>
<!-- /req/obs&#45;cpt/gen/relatedObservation&#45;sem -->
<g id="node17" class="node">
<title>/req/obs&#45;cpt/gen/relatedObservation&#45;sem</title>
<polygon fill="none" stroke="black" points="674,-306 366,-306 366,-270 674,-270 674,-306"/>
<text text-anchor="middle" x="520" y="-284.3" font-family="Times,serif" font-size="14.00">/req/obs&#45;cpt/gen/relatedObservation&#45;sem</text>
</g>
<!-- /rec/obs&#45;cpt/Observation/observerhost&#45;con -->
<g id="node18" class="node">
<title>/rec/obs&#45;cpt/Observation/observerhost&#45;con</title>
<polygon fill="none" stroke="black" stroke-dasharray="1,5" points="679.5,-252 360.5,-252 360.5,-216 679.5,-216 679.5,-252"/>
<text text-anchor="middle" x="520" y="-230.3" font-family="Times,serif" font-size="14.00">/rec/obs&#45;cpt/Observation/observerhost&#45;con</text>
</g>
<!-- /rec/obs&#45;cpt/Observation/observedProperty&#45;con -->
<g id="node19" class="node">
<title>/rec/obs&#45;cpt/Observation/observedProperty&#45;con</title>
<polygon fill="none" stroke="black" stroke-dasharray="1,5" points="696.5,-198 343.5,-198 343.5,-162 696.5,-162 696.5,-198"/>
<text text-anchor="middle" x="520" y="-176.3" font-family="Times,serif" font-size="14.00">/rec/obs&#45;cpt/Observation/observedProperty&#45;con</text>
</g>
<!-- /rec/obs&#45;cpt/Observation/procedure&#45;con -->
<g id="node20" class="node">
<title>/rec/obs&#45;cpt/Observation/procedure&#45;con</title>
<polygon fill="none" stroke="black" stroke-dasharray="1,5" points="669,-144 371,-144 371,-108 669,-108 669,-144"/>
<text text-anchor="middle" x="520" y="-122.3" font-family="Times,serif" font-size="14.00">/rec/obs&#45;cpt/Observation/procedure&#45;con</text>
</g>
<!-- /rec/obs&#45;cpt/Observation/result&#45;con -->
<g id="node21" class="node">
<title>/rec/obs&#45;cpt/Observation/result&#45;con</title>
<polygon fill="none" stroke="black" stroke-dasharray="1,5" points="653.5,-90 386.5,-90 386.5,-54 653.5,-54 653.5,-90"/>
<text text-anchor="middle" x="520" y="-68.3" font-family="Times,serif" font-size="14.00">/rec/obs&#45;cpt/Observation/result&#45;con</text>
</g>
<!-- /rec/obs&#45;cpt/Observation/phenomenonTimeResult&#45;con -->
<g id="node22" class="node">
<title>/rec/obs&#45;cpt/Observation/phenomenonTimeResult&#45;con</title>
<polygon fill="none" stroke="black" stroke-dasharray="1,5" points="719,-36 321,-36 321,0 719,0 719,-36"/>
<text text-anchor="middle" x="520" y="-14.3" font-family="Times,serif" font-size="14.00">/rec/obs&#45;cpt/Observation/phenomenonTimeResult&#45;con</text>
</g>
<!-- /req/obs&#45;cpt/Observation -->
<g id="node23" class="node">
<title>/req/obs&#45;cpt/Observation</title>
<polygon fill="none" stroke="black" points="3.5,-597 3.5,-618 282.5,-618 282.5,-597 3.5,-597"/>
<text text-anchor="start" x="54.5" y="-603.8" font-family="Times,serif" font-size="14.00">/req/obs&#45;cpt/Observation</text>
<polygon fill="none" stroke="black" points="3.5,-574 3.5,-595 282.5,-595 282.5,-574 3.5,-574"/>
<text text-anchor="start" x="6.5" y="-580.8" font-family="Times,serif" font-size="14.00">Conceptual Observation &#45; Observation</text>
<polygon fill="none" stroke="black" points="3.5,-551 3.5,-572 282.5,-572 282.5,-551 3.5,-551"/>
<text text-anchor="start" x="78.5" y="-557.8" font-family="Times,serif" font-size="14.00">Conceptual model</text>
<polygon fill="none" stroke="black" points="0,-548.5 0,-621.5 285,-621.5 285,-548.5 0,-548.5"/>
</g>
<!-- /req/obs&#45;cpt/Observation&#45;&gt;/req/obs&#45;cpt/Observation/Observation&#45;sem -->
<g id="edge1" class="edge">
<title>/req/obs&#45;cpt/Observation&#45;&gt;/req/obs&#45;cpt/Observation/Observation&#45;sem</title>
<path fill="none" stroke="black" d="M155.56,-621.69C195.51,-743.23 321,-1125 321,-1125 321,-1125 345.32,-1128.32 376.91,-1132.62"/>
<polygon fill="black" stroke="black" points="376.55,-1136.11 386.93,-1133.99 377.5,-1129.17 376.55,-1136.11"/>
</g>
<!-- /req/obs&#45;cpt/Observation&#45;&gt;/req/obs&#45;cpt/Observation/phenomenonTime&#45;sem -->
<g id="edge2" class="edge">
<title>/req/obs&#45;cpt/Observation&#45;&gt;/req/obs&#45;cpt/Observation/phenomenonTime&#45;sem</title>
<path fill="none" stroke="black" d="M156.84,-621.53C198.12,-734.55 321,-1071 321,-1071 321,-1071 345.32,-1074.32 376.91,-1078.62"/>
<polygon fill="black" stroke="black" points="376.55,-1082.11 386.93,-1079.99 377.5,-1075.17 376.55,-1082.11"/>
</g>
<!-- /req/obs&#45;cpt/Observation&#45;&gt;/req/obs&#45;cpt/Observation/phenomenonTime&#45;card -->
<g id="edge3" class="edge">
<title>/req/obs&#45;cpt/Observation&#45;&gt;/req/obs&#45;cpt/Observation/phenomenonTime&#45;card</title>
<path fill="none" stroke="black" d="M158.63,-621.83C201.56,-726.3 321,-1017 321,-1017 321,-1017 345.32,-1020.32 376.91,-1024.62"/>
<polygon fill="black" stroke="black" points="376.55,-1028.11 386.93,-1025.99 377.5,-1021.17 376.55,-1028.11"/>
</g>
<!-- /req/obs&#45;cpt/Observation&#45;&gt;/req/obs&#45;cpt/Observation/resultTime&#45;sem -->
<g id="edge4" class="edge">
<title>/req/obs&#45;cpt/Observation&#45;&gt;/req/obs&#45;cpt/Observation/resultTime&#45;sem</title>
<path fill="none" stroke="black" d="M160.68,-621.59C205.23,-716.45 321,-963 321,-963 321,-963 345.32,-966.32 376.91,-970.62"/>
<polygon fill="black" stroke="black" points="376.55,-974.11 386.93,-971.99 377.5,-967.17 376.55,-974.11"/>
</g>
<!-- /req/obs&#45;cpt/Observation&#45;&gt;/req/obs&#45;cpt/Observation/resultTime&#45;card -->
<g id="edge5" class="edge">
<title>/req/obs&#45;cpt/Observation&#45;&gt;/req/obs&#45;cpt/Observation/resultTime&#45;card</title>
<path fill="none" stroke="black" d="M163.52,-621.54C209.94,-706.27 321,-909 321,-909 321,-909 345.32,-912.32 376.91,-916.62"/>
<polygon fill="black" stroke="black" points="376.55,-920.11 386.93,-917.99 377.5,-913.17 376.55,-920.11"/>
</g>
<!-- /req/obs&#45;cpt/Observation&#45;&gt;/req/obs&#45;cpt/Observation/validTime&#45;sem -->
<g id="edge6" class="edge">
<title>/req/obs&#45;cpt/Observation&#45;&gt;/req/obs&#45;cpt/Observation/validTime&#45;sem</title>
<path fill="none" stroke="black" d="M167.62,-621.69C216.15,-695.52 321,-855 321,-855 321,-855 345.32,-858.32 376.91,-862.62"/>
<polygon fill="black" stroke="black" points="376.55,-866.11 386.93,-863.99 377.5,-859.17 376.55,-866.11"/>
</g>
<!-- /req/obs&#45;cpt/Observation&#45;&gt;/req/obs&#45;cpt/Observation/featureOfInterest&#45;sem -->
<g id="edge7" class="edge">
<title>/req/obs&#45;cpt/Observation&#45;&gt;/req/obs&#45;cpt/Observation/featureOfInterest&#45;sem</title>
<path fill="none" stroke="black" d="M173.61,-621.64C224.25,-683.27 321,-801 321,-801 321,-801 345.32,-804.32 376.91,-808.62"/>
<polygon fill="black" stroke="black" points="376.55,-812.11 386.93,-809.99 377.5,-805.17 376.55,-812.11"/>
</g>
<!-- /req/obs&#45;cpt/Observation&#45;&gt;/req/obs&#45;cpt/Observation/featureOfInterest&#45;card -->
<g id="edge8" class="edge">
<title>/req/obs&#45;cpt/Observation&#45;&gt;/req/obs&#45;cpt/Observation/featureOfInterest&#45;card</title>
<path fill="none" stroke="black" d="M183.78,-621.76C236.15,-669.56 321,-747 321,-747 321,-747 345.32,-750.32 376.91,-754.62"/>
<polygon fill="black" stroke="black" points="376.55,-758.11 386.93,-755.99 377.5,-751.17 376.55,-758.11"/>
</g>
<!-- /req/obs&#45;cpt/Observation&#45;&gt;/req/obs&#45;cpt/Observation/observedProperty&#45;sem -->
<g id="edge9" class="edge">
<title>/req/obs&#45;cpt/Observation&#45;&gt;/req/obs&#45;cpt/Observation/observedProperty&#45;sem</title>
<path fill="none" stroke="black" d="M203.59,-621.56C255.09,-652.9 321,-693 321,-693 321,-693 345.32,-696.32 376.91,-700.62"/>
<polygon fill="black" stroke="black" points="376.55,-704.11 386.93,-701.99 377.5,-697.17 376.55,-704.11"/>
</g>
<!-- /req/obs&#45;cpt/Observation&#45;&gt;/req/obs&#45;cpt/Observation/observedProperty&#45;card -->
<g id="edge10" class="edge">
<title>/req/obs&#45;cpt/Observation&#45;&gt;/req/obs&#45;cpt/Observation/observedProperty&#45;card</title>
<path fill="none" stroke="black" d="M263.86,-621.62C295.52,-631.25 321,-639 321,-639 321,-639 345.32,-642.32 376.91,-646.62"/>
<polygon fill="black" stroke="black" points="376.55,-650.11 386.93,-647.99 377.5,-643.17 376.55,-650.11"/>
</g>
<!-- /req/obs&#45;cpt/Observation&#45;&gt;/req/obs&#45;cpt/Observation/result&#45;sem -->
<g id="edge11" class="edge">
<title>/req/obs&#45;cpt/Observation&#45;&gt;/req/obs&#45;cpt/Observation/result&#45;sem</title>
<path fill="none" stroke="black" d="M285.19,-595.19C314,-597.26 344.36,-599.44 373.3,-601.52"/>
<polygon fill="black" stroke="black" points="373.25,-605.03 383.48,-602.26 373.76,-598.05 373.25,-605.03"/>
</g>
<!-- /req/obs&#45;cpt/Observation&#45;&gt;/req/obs&#45;cpt/Observation/result&#45;card -->
<g id="edge12" class="edge">
<title>/req/obs&#45;cpt/Observation&#45;&gt;/req/obs&#45;cpt/Observation/result&#45;card</title>
<path fill="none" stroke="black" d="M285.19,-574.81C313.63,-572.77 343.57,-570.61 372.18,-568.56"/>
<polygon fill="black" stroke="black" points="372.52,-572.04 382.24,-567.83 372.02,-565.06 372.52,-572.04"/>
</g>
<!-- /req/obs&#45;cpt/Observation&#45;&gt;/req/obs&#45;cpt/Observation/procedure&#45;sem -->
<g id="edge13" class="edge">
<title>/req/obs&#45;cpt/Observation&#45;&gt;/req/obs&#45;cpt/Observation/procedure&#45;sem</title>
<path fill="none" stroke="black" d="M263.86,-548.38C295.52,-538.75 321,-531 321,-531 321,-531 345.32,-527.68 376.91,-523.38"/>
<polygon fill="black" stroke="black" points="377.5,-526.83 386.93,-522.01 376.55,-519.89 377.5,-526.83"/>
</g>
<!-- /req/obs&#45;cpt/Observation&#45;&gt;/req/obs&#45;cpt/Observation/procedure&#45;card -->
<g id="edge14" class="edge">
<title>/req/obs&#45;cpt/Observation&#45;&gt;/req/obs&#45;cpt/Observation/procedure&#45;card</title>
<path fill="none" stroke="black" d="M203.59,-548.44C255.09,-517.1 321,-477 321,-477 321,-477 345.32,-473.68 376.91,-469.38"/>
<polygon fill="black" stroke="black" points="377.5,-472.83 386.93,-468.01 376.55,-465.89 377.5,-472.83"/>
</g>
<!-- /req/obs&#45;cpt/Observation&#45;&gt;/req/obs&#45;cpt/Observation/observer&#45;sem -->
<g id="edge15" class="edge">
<title>/req/obs&#45;cpt/Observation&#45;&gt;/req/obs&#45;cpt/Observation/observer&#45;sem</title>
<path fill="none" stroke="black" d="M183.78,-548.24C236.15,-500.44 321,-423 321,-423 321,-423 345.32,-419.68 376.91,-415.38"/>
<polygon fill="black" stroke="black" points="377.5,-418.83 386.93,-414.01 376.55,-411.89 377.5,-418.83"/>
</g>
<!-- /req/obs&#45;cpt/Observation&#45;&gt;/req/obs&#45;cpt/Observation/host&#45;sem -->
<g id="edge16" class="edge">
<title>/req/obs&#45;cpt/Observation&#45;&gt;/req/obs&#45;cpt/Observation/host&#45;sem</title>
<path fill="none" stroke="black" d="M173.61,-548.36C224.25,-486.73 321,-369 321,-369 321,-369 346.19,-365.57 378.59,-361.15"/>
<polygon fill="black" stroke="black" points="379.43,-364.57 388.86,-359.75 378.48,-357.63 379.43,-364.57"/>
</g>
<!-- /req/obs&#45;cpt/Observation&#45;&gt;/req/obs&#45;cpt/gen/relatedObservation&#45;sem -->
<g id="edge17" class="edge">
<title>/req/obs&#45;cpt/Observation&#45;&gt;/req/obs&#45;cpt/gen/relatedObservation&#45;sem</title>
<path fill="none" stroke="black" d="M167.62,-548.31C216.15,-474.48 321,-315 321,-315 321,-315 345.32,-311.68 376.91,-307.38"/>
<polygon fill="black" stroke="black" points="377.5,-310.83 386.93,-306.01 376.55,-303.89 377.5,-310.83"/>
</g>
<!-- /req/obs&#45;cpt/Observation&#45;&gt;/rec/obs&#45;cpt/Observation/observerhost&#45;con -->
<g id="edge18" class="edge">
<title>/req/obs&#45;cpt/Observation&#45;&gt;/rec/obs&#45;cpt/Observation/observerhost&#45;con</title>
<path fill="none" stroke="black" stroke-dasharray="1,5" d="M163.52,-548.46C209.94,-463.73 321,-261 321,-261 321,-261 345.32,-257.68 376.91,-253.38"/>
<polygon fill="black" stroke="black" points="377.5,-256.83 386.93,-252.01 376.55,-249.89 377.5,-256.83"/>
</g>
<!-- /req/obs&#45;cpt/Observation&#45;&gt;/rec/obs&#45;cpt/Observation/observedProperty&#45;con -->
<g id="edge19" class="edge">
<title>/req/obs&#45;cpt/Observation&#45;&gt;/rec/obs&#45;cpt/Observation/observedProperty&#45;con</title>
<path fill="none" stroke="black" stroke-dasharray="1,5" d="M160.68,-548.41C205.23,-453.55 321,-207 321,-207 321,-207 345.32,-203.68 376.91,-199.38"/>
<polygon fill="black" stroke="black" points="377.5,-202.83 386.93,-198.01 376.55,-195.89 377.5,-202.83"/>
</g>
<!-- /req/obs&#45;cpt/Observation&#45;&gt;/rec/obs&#45;cpt/Observation/procedure&#45;con -->
<g id="edge20" class="edge">
<title>/req/obs&#45;cpt/Observation&#45;&gt;/rec/obs&#45;cpt/Observation/procedure&#45;con</title>
<path fill="none" stroke="black" stroke-dasharray="1,5" d="M158.63,-548.17C201.56,-443.7 321,-153 321,-153 321,-153 345.32,-149.68 376.91,-145.38"/>
<polygon fill="black" stroke="black" points="377.5,-148.83 386.93,-144.01 376.55,-141.89 377.5,-148.83"/>
</g>
<!-- /req/obs&#45;cpt/Observation&#45;&gt;/rec/obs&#45;cpt/Observation/result&#45;con -->
<g id="edge21" class="edge">
<title>/req/obs&#45;cpt/Observation&#45;&gt;/rec/obs&#45;cpt/Observation/result&#45;con</title>
<path fill="none" stroke="black" stroke-dasharray="1,5" d="M156.84,-548.47C198.12,-435.45 321,-99 321,-99 321,-99 345.32,-95.68 376.91,-91.38"/>
<polygon fill="black" stroke="black" points="377.5,-94.83 386.93,-90.01 376.55,-87.89 377.5,-94.83"/>
</g>
<!-- /req/obs&#45;cpt/Observation&#45;&gt;/rec/obs&#45;cpt/Observation/phenomenonTimeResult&#45;con -->
<g id="edge22" class="edge">
<title>/req/obs&#45;cpt/Observation&#45;&gt;/rec/obs&#45;cpt/Observation/phenomenonTimeResult&#45;con</title>
<path fill="none" stroke="black" stroke-dasharray="1,5" d="M155.56,-548.31C195.51,-426.77 321,-45 321,-45 321,-45 345.32,-41.68 376.91,-37.38"/>
<polygon fill="black" stroke="black" points="377.5,-40.83 386.93,-36.01 376.55,-33.89 377.5,-40.83"/>
</g>
</g>
</svg>
