<?xml version="1.0" encoding="UTF-8" standalone="no"?>
<!DOCTYPE svg PUBLIC "-//W3C//DTD SVG 1.1//EN"
 "http://www.w3.org/Graphics/SVG/1.1/DTD/svg11.dtd">
<!-- Generated by graphviz version 2.43.0 (0)
 -->
<!-- Title: G Pages: 1 -->
<svg width="645pt" height="152pt"
 viewBox="0.00 0.00 645.00 152.00" xmlns="http://www.w3.org/2000/svg" xmlns:xlink="http://www.w3.org/1999/xlink">
<g id="graph0" class="graph" transform="scale(1 1) rotate(0) translate(4 148)">
<title>G</title>
<polygon fill="white" stroke="transparent" points="-4,4 -4,-148 641,-148 641,4 -4,4"/>
<!-- /req/obs&#45;cpt/Deployment/Deployment&#45;sem -->
<g id="node1" class="node">
<title>/req/obs&#45;cpt/Deployment/Deployment&#45;sem</title>
<polygon fill="none" stroke="black" points="637,-144 320,-144 320,-108 637,-108 637,-144"/>
<text text-anchor="middle" x="478.5" y="-122.3" font-family="Times,serif" font-size="14.00">/req/obs&#45;cpt/Deployment/Deployment&#45;sem</text>
</g>
<!-- /req/obs&#45;cpt/Deployment/observer&#45;sem -->
<g id="node2" class="node">
<title>/req/obs&#45;cpt/Deployment/observer&#45;sem</title>
<polygon fill="none" stroke="black" points="625,-90 332,-90 332,-54 625,-54 625,-90"/>
<text text-anchor="middle" x="478.5" y="-68.3" font-family="Times,serif" font-size="14.00">/req/obs&#45;cpt/Deployment/observer&#45;sem</text>
</g>
<!-- /req/obs&#45;cpt/Deployment/host&#45;sem -->
<g id="node3" class="node">
<title>/req/obs&#45;cpt/Deployment/host&#45;sem</title>
<polygon fill="none" stroke="black" points="609,-36 348,-36 348,0 609,0 609,-36"/>
<text text-anchor="middle" x="478.5" y="-14.3" font-family="Times,serif" font-size="14.00">/req/obs&#45;cpt/Deployment/host&#45;sem</text>
</g>
<!-- /req/obs&#45;cpt/Deployment -->
<g id="node4" class="node">
<title>/req/obs&#45;cpt/Deployment</title>
<polygon fill="none" stroke="black" points="3,-84 3,-105 281,-105 281,-84 3,-84"/>
<text text-anchor="start" x="54" y="-90.8" font-family="Times,serif" font-size="14.00">/req/obs&#45;cpt/Deployment</text>
<polygon fill="none" stroke="black" points="3,-61 3,-82 281,-82 281,-61 3,-61"/>
<text text-anchor="start" x="6" y="-67.8" font-family="Times,serif" font-size="14.00">Conceptual Observation &#45; Deployment</text>
<polygon fill="none" stroke="black" points="3,-38 3,-59 281,-59 281,-38 3,-38"/>
<text text-anchor="start" x="77.5" y="-44.8" font-family="Times,serif" font-size="14.00">Conceptual model</text>
<polygon fill="none" stroke="black" points="0,-35.5 0,-108.5 284,-108.5 284,-35.5 0,-35.5"/>
</g>
<!-- /req/obs&#45;cpt/Deployment&#45;&gt;/req/obs&#45;cpt/Deployment/Deployment&#45;sem -->
<g id="edge1" class="edge">
<title>/req/obs&#45;cpt/Deployment&#45;&gt;/req/obs&#45;cpt/Deployment/Deployment&#45;sem</title>
<path fill="none" stroke="black" d="M284.37,-94.82C308.17,-98.66 332.67,-102.62 355.91,-106.37"/>
<polygon fill="black" stroke="black" points="355.35,-109.83 365.78,-107.97 356.47,-102.92 355.35,-109.83"/>
</g>
<!-- /req/obs&#45;cpt/Deployment&#45;&gt;/req/obs&#45;cpt/Deployment/observer&#45;sem -->
<g id="edge2" class="edge">
<title>/req/obs&#45;cpt/Deployment&#45;&gt;/req/obs&#45;cpt/Deployment/observer&#45;sem</title>
<path fill="none" stroke="black" d="M284.37,-72C296.63,-72 309.08,-72 321.45,-72"/>
<polygon fill="black" stroke="black" points="321.81,-75.5 331.81,-72 321.81,-68.5 321.81,-75.5"/>
</g>
<!-- /req/obs&#45;cpt/Deployment&#45;&gt;/req/obs&#45;cpt/Deployment/host&#45;sem -->
<g id="edge3" class="edge">
<title>/req/obs&#45;cpt/Deployment&#45;&gt;/req/obs&#45;cpt/Deployment/host&#45;sem</title>
<path fill="none" stroke="black" d="M284.37,-49.18C308.17,-45.34 332.67,-41.38 355.91,-37.63"/>
<polygon fill="black" stroke="black" points="356.47,-41.08 365.78,-36.03 355.35,-34.17 356.47,-41.08"/>
</g>
</g>
</svg>
