<?xml version="1.0" encoding="UTF-8" standalone="no"?>
<!DOCTYPE svg PUBLIC "-//W3C//DTD SVG 1.1//EN"
 "http://www.w3.org/Graphics/SVG/1.1/DTD/svg11.dtd">
<!-- Generated by graphviz version 2.43.0 (0)
 -->
<!-- Title: G Pages: 1 -->
<svg width="1957pt" height="272pt"
 viewBox="0.00 0.00 1957.00 271.50" xmlns="http://www.w3.org/2000/svg" xmlns:xlink="http://www.w3.org/1999/xlink">
<g id="graph0" class="graph" transform="scale(1 1) rotate(0) translate(4 267.5)">
<title>G</title>
<polygon fill="white" stroke="transparent" points="-4,4 -4,-267.5 1953,-267.5 1953,4 -4,4"/>
<!-- /req/obs&#45;basic/gen/link&#45;sem -->
<g id="node1" class="node">
<title>/req/obs&#45;basic/gen/link&#45;sem</title>
<polygon fill="none" stroke="black" points="662,-263.5 451,-263.5 451,-227.5 662,-227.5 662,-263.5"/>
<text text-anchor="middle" x="556.5" y="-241.8" font-family="Times,serif" font-size="14.00">/req/obs&#45;basic/gen/link&#45;sem</text>
</g>
<!-- /req/obs&#45;core/gen/metadata&#45;sem -->
<g id="node2" class="node">
<title>/req/obs&#45;core/gen/metadata&#45;sem</title>
<polygon fill="none" stroke="black" points="1098.5,-227.5 852.5,-227.5 852.5,-191.5 1098.5,-191.5 1098.5,-227.5"/>
<text text-anchor="middle" x="975.5" y="-205.8" font-family="Times,serif" font-size="14.00">/req/obs&#45;core/gen/metadata&#45;sem</text>
</g>
<!-- /req/obs&#45;cpt/ObservingProcedure/ObservingProcedure&#45;sem -->
<g id="node3" class="node">
<title>/req/obs&#45;cpt/ObservingProcedure/ObservingProcedure&#45;sem</title>
<polygon fill="none" stroke="black" points="1622,-235.5 1184,-235.5 1184,-199.5 1622,-199.5 1622,-235.5"/>
<text text-anchor="middle" x="1403" y="-213.8" font-family="Times,serif" font-size="14.00">/req/obs&#45;cpt/ObservingProcedure/ObservingProcedure&#45;sem</text>
</g>
<!-- /req/obs&#45;cpt/ObservingProcedure/observer&#45;sem -->
<g id="node4" class="node">
<title>/req/obs&#45;cpt/ObservingProcedure/observer&#45;sem</title>
<polygon fill="none" stroke="black" points="1580,-181.5 1226,-181.5 1226,-145.5 1580,-145.5 1580,-181.5"/>
<text text-anchor="middle" x="1403" y="-159.8" font-family="Times,serif" font-size="14.00">/req/obs&#45;cpt/ObservingProcedure/observer&#45;sem</text>
</g>
<!-- /req/obs&#45;cpt/gen/relatedObservation&#45;sem -->
<g id="node5" class="node">
<title>/req/obs&#45;cpt/gen/relatedObservation&#45;sem</title>
<polygon fill="none" stroke="black" points="1557,-127.5 1249,-127.5 1249,-91.5 1557,-91.5 1557,-127.5"/>
<text text-anchor="middle" x="1403" y="-105.8" font-family="Times,serif" font-size="14.00">/req/obs&#45;cpt/gen/relatedObservation&#45;sem</text>
</g>
<!-- /req/obs&#45;cpt/Procedure/Procedure&#45;sem -->
<g id="node6" class="node">
<title>/req/obs&#45;cpt/Procedure/Procedure&#45;sem</title>
<polygon fill="none" stroke="black" points="1949,-54.5 1658,-54.5 1658,-18.5 1949,-18.5 1949,-54.5"/>
<text text-anchor="middle" x="1803.5" y="-32.8" font-family="Times,serif" font-size="14.00">/req/obs&#45;cpt/Procedure/Procedure&#45;sem</text>
</g>
<!-- /req/obs&#45;basic/ObservingProcedure -->
<g id="node7" class="node">
<title>/req/obs&#45;basic/ObservingProcedure</title>
<polygon fill="none" stroke="black" points="3,-220.5 3,-241.5 307,-241.5 307,-220.5 3,-220.5"/>
<text text-anchor="start" x="29.5" y="-227.3" font-family="Times,serif" font-size="14.00">/req/obs&#45;basic/ObservingProcedure</text>
<polygon fill="none" stroke="black" points="3,-197.5 3,-218.5 307,-218.5 307,-197.5 3,-197.5"/>
<text text-anchor="start" x="6" y="-204.3" font-family="Times,serif" font-size="14.00">Basic Observations &#45; ObservingProcedure</text>
<polygon fill="none" stroke="black" points="3,-174.5 3,-195.5 307,-195.5 307,-174.5 3,-174.5"/>
<text text-anchor="start" x="105" y="-181.3" font-family="Times,serif" font-size="14.00">Logical model</text>
<polygon fill="none" stroke="black" points="0,-172 0,-245 310,-245 310,-172 0,-172"/>
</g>
<!-- /req/obs&#45;basic/ObservingProcedure&#45;&gt;/req/obs&#45;basic/gen/link&#45;sem -->
<g id="edge1" class="edge">
<title>/req/obs&#45;basic/ObservingProcedure&#45;&gt;/req/obs&#45;basic/gen/link&#45;sem</title>
<path fill="none" stroke="black" d="M310.17,-222.78C353.61,-226.8 400.09,-231.11 440.78,-234.88"/>
<polygon fill="black" stroke="black" points="440.72,-238.38 451,-235.82 441.36,-231.41 440.72,-238.38"/>
</g>
<!-- /req/obs&#45;core/AbstractObservingProcedure -->
<g id="node8" class="node">
<title>/req/obs&#45;core/AbstractObservingProcedure</title>
<polygon fill="none" stroke="black" points="349.5,-184.5 349.5,-205.5 764.5,-205.5 764.5,-184.5 349.5,-184.5"/>
<text text-anchor="start" x="404" y="-191.3" font-family="Times,serif" font-size="14.00">/req/obs&#45;core/AbstractObservingProcedure</text>
<polygon fill="none" stroke="black" points="349.5,-161.5 349.5,-182.5 764.5,-182.5 764.5,-161.5 349.5,-161.5"/>
<text text-anchor="start" x="352.5" y="-168.3" font-family="Times,serif" font-size="14.00">Abstract Observation core &#45; AbstractObservingProcedure</text>
<polygon fill="none" stroke="black" points="349.5,-138.5 349.5,-159.5 764.5,-159.5 764.5,-138.5 349.5,-138.5"/>
<text text-anchor="start" x="507" y="-145.3" font-family="Times,serif" font-size="14.00">Logical model</text>
<polygon fill="none" stroke="black" points="346,-136 346,-209 767,-209 767,-136 346,-136"/>
</g>
<!-- /req/obs&#45;basic/ObservingProcedure&#45;&gt;/req/obs&#45;core/AbstractObservingProcedure -->
<g id="edge2" class="edge">
<title>/req/obs&#45;basic/ObservingProcedure&#45;&gt;/req/obs&#45;core/AbstractObservingProcedure</title>
<path fill="none" stroke="black" stroke-dasharray="5,2" d="M310.17,-194.61C318.62,-193.85 327.18,-193.07 335.79,-192.3"/>
<polygon fill="black" stroke="black" points="336.28,-195.77 345.92,-191.39 335.65,-188.8 336.28,-195.77"/>
</g>
<!-- /req/obs&#45;core/AbstractObservingProcedure&#45;&gt;/req/obs&#45;core/gen/metadata&#45;sem -->
<g id="edge3" class="edge">
<title>/req/obs&#45;core/AbstractObservingProcedure&#45;&gt;/req/obs&#45;core/gen/metadata&#45;sem</title>
<path fill="none" stroke="black" d="M767.22,-191.11C792.78,-193.38 818.31,-195.64 842.28,-197.77"/>
<polygon fill="black" stroke="black" points="842.18,-201.27 852.45,-198.67 842.8,-194.3 842.18,-201.27"/>
</g>
<!-- /req/obs&#45;cpt/ObservingProcedure -->
<g id="node9" class="node">
<title>/req/obs&#45;cpt/ObservingProcedure</title>
<polygon fill="none" stroke="black" points="806.5,-148.5 806.5,-169.5 1145.5,-169.5 1145.5,-148.5 806.5,-148.5"/>
<text text-anchor="start" x="857.5" y="-155.3" font-family="Times,serif" font-size="14.00">/req/obs&#45;cpt/ObservingProcedure</text>
<polygon fill="none" stroke="black" points="806.5,-125.5 806.5,-146.5 1145.5,-146.5 1145.5,-125.5 806.5,-125.5"/>
<text text-anchor="start" x="809.5" y="-132.3" font-family="Times,serif" font-size="14.00">Conceptual Observation &#45; ObservingProcedure</text>
<polygon fill="none" stroke="black" points="806.5,-102.5 806.5,-123.5 1145.5,-123.5 1145.5,-102.5 806.5,-102.5"/>
<text text-anchor="start" x="911.5" y="-109.3" font-family="Times,serif" font-size="14.00">Conceptual model</text>
<polygon fill="none" stroke="black" points="803,-100 803,-173 1148,-173 1148,-100 803,-100"/>
</g>
<!-- /req/obs&#45;core/AbstractObservingProcedure&#45;&gt;/req/obs&#45;cpt/ObservingProcedure -->
<g id="edge4" class="edge">
<title>/req/obs&#45;core/AbstractObservingProcedure&#45;&gt;/req/obs&#45;cpt/ObservingProcedure</title>
<path fill="none" stroke="black" stroke-dasharray="5,2" d="M767.22,-154.39C775.82,-153.65 784.42,-152.91 792.96,-152.17"/>
<polygon fill="black" stroke="black" points="793.28,-155.66 802.95,-151.31 792.68,-148.68 793.28,-155.66"/>
</g>
<!-- /req/obs&#45;cpt/ObservingProcedure&#45;&gt;/req/obs&#45;cpt/ObservingProcedure/ObservingProcedure&#45;sem -->
<g id="edge5" class="edge">
<title>/req/obs&#45;cpt/ObservingProcedure&#45;&gt;/req/obs&#45;cpt/ObservingProcedure/ObservingProcedure&#45;sem</title>
<path fill="none" stroke="black" d="M1116.92,-173.04C1154.06,-182.71 1184,-190.5 1184,-190.5 1184,-190.5 1211.24,-193.87 1246.46,-198.24"/>
<polygon fill="black" stroke="black" points="1246.24,-201.73 1256.59,-199.49 1247.1,-194.79 1246.24,-201.73"/>
</g>
<!-- /req/obs&#45;cpt/ObservingProcedure&#45;&gt;/req/obs&#45;cpt/ObservingProcedure/observer&#45;sem -->
<g id="edge6" class="edge">
<title>/req/obs&#45;cpt/ObservingProcedure&#45;&gt;/req/obs&#45;cpt/ObservingProcedure/observer&#45;sem</title>
<path fill="none" stroke="black" d="M1148.03,-147.38C1170.25,-148.79 1193.09,-150.24 1215.53,-151.67"/>
<polygon fill="black" stroke="black" points="1215.61,-155.18 1225.81,-152.32 1216.05,-148.19 1215.61,-155.18"/>
</g>
<!-- /req/obs&#45;cpt/ObservingProcedure&#45;&gt;/req/obs&#45;cpt/gen/relatedObservation&#45;sem -->
<g id="edge7" class="edge">
<title>/req/obs&#45;cpt/ObservingProcedure&#45;&gt;/req/obs&#45;cpt/gen/relatedObservation&#45;sem</title>
<path fill="none" stroke="black" d="M1148.03,-125.62C1178,-123.71 1209.09,-121.74 1238.82,-119.85"/>
<polygon fill="black" stroke="black" points="1239.09,-123.34 1248.85,-119.22 1238.64,-116.36 1239.09,-123.34"/>
</g>
<!-- /req/obs&#45;cpt/Procedure -->
<g id="node10" class="node">
<title>/req/obs&#45;cpt/Procedure</title>
<polygon fill="none" stroke="black" points="1271,-48.5 1271,-69.5 1536,-69.5 1536,-48.5 1271,-48.5"/>
<text text-anchor="start" x="1322" y="-55.3" font-family="Times,serif" font-size="14.00">/req/obs&#45;cpt/Procedure</text>
<polygon fill="none" stroke="black" points="1271,-25.5 1271,-46.5 1536,-46.5 1536,-25.5 1271,-25.5"/>
<text text-anchor="start" x="1274" y="-32.3" font-family="Times,serif" font-size="14.00">Conceptual Observation &#45; Procedure</text>
<polygon fill="none" stroke="black" points="1271,-2.5 1271,-23.5 1536,-23.5 1536,-2.5 1271,-2.5"/>
<text text-anchor="start" x="1339" y="-9.3" font-family="Times,serif" font-size="14.00">Conceptual model</text>
<polygon fill="none" stroke="black" points="1267.5,0 1267.5,-73 1538.5,-73 1538.5,0 1267.5,0"/>
</g>
<!-- /req/obs&#45;cpt/ObservingProcedure&#45;&gt;/req/obs&#45;cpt/Procedure -->
<g id="edge8" class="edge">
<title>/req/obs&#45;cpt/ObservingProcedure&#45;&gt;/req/obs&#45;cpt/Procedure</title>
<path fill="none" stroke="black" stroke-dasharray="5,2" d="M1116.92,-99.96C1154.06,-90.29 1184,-82.5 1184,-82.5 1184,-82.5 1217.1,-75.52 1257.5,-66.99"/>
<polygon fill="black" stroke="black" points="1258.29,-70.4 1267.35,-64.91 1256.84,-63.55 1258.29,-70.4"/>
</g>
<!-- /req/obs&#45;cpt/Procedure&#45;&gt;/req/obs&#45;cpt/Procedure/Procedure&#45;sem -->
<g id="edge9" class="edge">
<title>/req/obs&#45;cpt/Procedure&#45;&gt;/req/obs&#45;cpt/Procedure/Procedure&#45;sem</title>
<path fill="none" stroke="black" d="M1538.64,-36.5C1573.74,-36.5 1611.83,-36.5 1647.88,-36.5"/>
<polygon fill="black" stroke="black" points="1647.99,-40 1657.99,-36.5 1647.99,-33 1647.99,-40"/>
</g>
</g>
</svg>
