<?xml version="1.0" encoding="UTF-8" standalone="no"?>
<!DOCTYPE svg PUBLIC "-//W3C//DTD SVG 1.1//EN"
 "http://www.w3.org/Graphics/SVG/1.1/DTD/svg11.dtd">
<!-- Generated by graphviz version 2.43.0 (0)
 -->
<!-- Title: G Pages: 1 -->
<svg width="1477pt" height="1432pt"
 viewBox="0.00 0.00 1477.00 1432.00" xmlns="http://www.w3.org/2000/svg" xmlns:xlink="http://www.w3.org/1999/xlink">
<g id="graph0" class="graph" transform="scale(1 1) rotate(0) translate(4 1428)">
<title>G</title>
<polygon fill="white" stroke="transparent" points="-4,4 -4,-1428 1473,-1428 1473,4 -4,4"/>
<!-- /req/sam&#45;cpt/Sample/Sample&#45;sem -->
<g id="node1" class="node">
<title>/req/sam&#45;cpt/Sample/Sample&#45;sem</title>
<polygon fill="none" stroke="black" points="1031.5,-1424 776.5,-1424 776.5,-1388 1031.5,-1388 1031.5,-1424"/>
<text text-anchor="middle" x="904" y="-1402.3" font-family="Times,serif" font-size="14.00">/req/sam&#45;cpt/Sample/Sample&#45;sem</text>
</g>
<!-- /req/sam&#45;cpt/Sample/sampling&#45;sem -->
<g id="node2" class="node">
<title>/req/sam&#45;cpt/Sample/sampling&#45;sem</title>
<polygon fill="none" stroke="black" points="1037.5,-1370 770.5,-1370 770.5,-1334 1037.5,-1334 1037.5,-1370"/>
<text text-anchor="middle" x="904" y="-1348.3" font-family="Times,serif" font-size="14.00">/req/sam&#45;cpt/Sample/sampling&#45;sem</text>
</g>
<!-- /req/sam&#45;cpt/Sample/preparationStep&#45;sem -->
<g id="node3" class="node">
<title>/req/sam&#45;cpt/Sample/preparationStep&#45;sem</title>
<polygon fill="none" stroke="black" points="1063.5,-1316 744.5,-1316 744.5,-1280 1063.5,-1280 1063.5,-1316"/>
<text text-anchor="middle" x="904" y="-1294.3" font-family="Times,serif" font-size="14.00">/req/sam&#45;cpt/Sample/preparationStep&#45;sem</text>
</g>
<!-- /req/sam&#45;cpt/Sample/sampledFeature&#45;sem -->
<g id="node4" class="node">
<title>/req/sam&#45;cpt/Sample/sampledFeature&#45;sem</title>
<polygon fill="none" stroke="black" points="1062.5,-1262 745.5,-1262 745.5,-1226 1062.5,-1226 1062.5,-1262"/>
<text text-anchor="middle" x="904" y="-1240.3" font-family="Times,serif" font-size="14.00">/req/sam&#45;cpt/Sample/sampledFeature&#45;sem</text>
</g>
<!-- /req/sam&#45;cpt/Sample/sampledFeature&#45;card -->
<g id="node5" class="node">
<title>/req/sam&#45;cpt/Sample/sampledFeature&#45;card</title>
<polygon fill="none" stroke="black" points="1064,-1208 744,-1208 744,-1172 1064,-1172 1064,-1208"/>
<text text-anchor="middle" x="904" y="-1186.3" font-family="Times,serif" font-size="14.00">/req/sam&#45;cpt/Sample/sampledFeature&#45;card</text>
</g>
<!-- /req/sam&#45;cpt/Sample/relatedSample&#45;sem -->
<g id="node6" class="node">
<title>/req/sam&#45;cpt/Sample/relatedSample&#45;sem</title>
<polygon fill="none" stroke="black" points="1057,-1154 751,-1154 751,-1118 1057,-1118 1057,-1154"/>
<text text-anchor="middle" x="904" y="-1132.3" font-family="Times,serif" font-size="14.00">/req/sam&#45;cpt/Sample/relatedSample&#45;sem</text>
</g>
<!-- /req/obs&#45;cpt/gen/relatedObservation&#45;sem -->
<g id="node7" class="node">
<title>/req/obs&#45;cpt/gen/relatedObservation&#45;sem</title>
<polygon fill="none" stroke="black" points="1058,-1100 750,-1100 750,-1064 1058,-1064 1058,-1100"/>
<text text-anchor="middle" x="904" y="-1078.3" font-family="Times,serif" font-size="14.00">/req/obs&#45;cpt/gen/relatedObservation&#45;sem</text>
</g>
<!-- /req/sam&#45;cpt/Sampling/Sampling&#45;sem -->
<g id="node8" class="node">
<title>/req/sam&#45;cpt/Sampling/Sampling&#45;sem</title>
<polygon fill="none" stroke="black" points="1046,-1046 762,-1046 762,-1010 1046,-1010 1046,-1046"/>
<text text-anchor="middle" x="904" y="-1024.3" font-family="Times,serif" font-size="14.00">/req/sam&#45;cpt/Sampling/Sampling&#45;sem</text>
</g>
<!-- /req/sam&#45;cpt/Sampling/sample&#45;sem -->
<g id="node9" class="node">
<title>/req/sam&#45;cpt/Sampling/sample&#45;sem</title>
<polygon fill="none" stroke="black" points="1037.5,-992 770.5,-992 770.5,-956 1037.5,-956 1037.5,-992"/>
<text text-anchor="middle" x="904" y="-970.3" font-family="Times,serif" font-size="14.00">/req/sam&#45;cpt/Sampling/sample&#45;sem</text>
</g>
<!-- /req/sam&#45;cpt/Sampling/featureOfInterest&#45;sem -->
<g id="node10" class="node">
<title>/req/sam&#45;cpt/Sampling/featureOfInterest&#45;sem</title>
<polygon fill="none" stroke="black" points="1074.5,-938 733.5,-938 733.5,-902 1074.5,-902 1074.5,-938"/>
<text text-anchor="middle" x="904" y="-916.3" font-family="Times,serif" font-size="14.00">/req/sam&#45;cpt/Sampling/featureOfInterest&#45;sem</text>
</g>
<!-- /req/sam&#45;cpt/Sampling/featureOfInterest&#45;card -->
<g id="node11" class="node">
<title>/req/sam&#45;cpt/Sampling/featureOfInterest&#45;card</title>
<polygon fill="none" stroke="black" points="1076,-884 732,-884 732,-848 1076,-848 1076,-884"/>
<text text-anchor="middle" x="904" y="-862.3" font-family="Times,serif" font-size="14.00">/req/sam&#45;cpt/Sampling/featureOfInterest&#45;card</text>
</g>
<!-- /req/sam&#45;cpt/Sampling/sampler&#45;sem -->
<g id="node12" class="node">
<title>/req/sam&#45;cpt/Sampling/sampler&#45;sem</title>
<polygon fill="none" stroke="black" points="1041,-830 767,-830 767,-794 1041,-794 1041,-830"/>
<text text-anchor="middle" x="904" y="-808.3" font-family="Times,serif" font-size="14.00">/req/sam&#45;cpt/Sampling/sampler&#45;sem</text>
</g>
<!-- /req/sam&#45;cpt/Sampling/samplingProcedure&#45;sem -->
<g id="node13" class="node">
<title>/req/sam&#45;cpt/Sampling/samplingProcedure&#45;sem</title>
<polygon fill="none" stroke="black" points="1081.5,-776 726.5,-776 726.5,-740 1081.5,-740 1081.5,-776"/>
<text text-anchor="middle" x="904" y="-754.3" font-family="Times,serif" font-size="14.00">/req/sam&#45;cpt/Sampling/samplingProcedure&#45;sem</text>
</g>
<!-- /req/sam&#45;cpt/Sampling/relatedSampling&#45;sem -->
<g id="node14" class="node">
<title>/req/sam&#45;cpt/Sampling/relatedSampling&#45;sem</title>
<polygon fill="none" stroke="black" points="1071.5,-722 736.5,-722 736.5,-686 1071.5,-686 1071.5,-722"/>
<text text-anchor="middle" x="904" y="-700.3" font-family="Times,serif" font-size="14.00">/req/sam&#45;cpt/Sampling/relatedSampling&#45;sem</text>
</g>
<!-- /req/sam&#45;cpt/Sampler/Sampler&#45;sem -->
<g id="node15" class="node">
<title>/req/sam&#45;cpt/Sampler/Sampler&#45;sem</title>
<polygon fill="none" stroke="black" points="1038.5,-668 769.5,-668 769.5,-632 1038.5,-632 1038.5,-668"/>
<text text-anchor="middle" x="904" y="-646.3" font-family="Times,serif" font-size="14.00">/req/sam&#45;cpt/Sampler/Sampler&#45;sem</text>
</g>
<!-- /req/sam&#45;cpt/Sampler/sampling&#45;sem -->
<g id="node16" class="node">
<title>/req/sam&#45;cpt/Sampler/sampling&#45;sem</title>
<polygon fill="none" stroke="black" points="1041,-614 767,-614 767,-578 1041,-578 1041,-614"/>
<text text-anchor="middle" x="904" y="-592.3" font-family="Times,serif" font-size="14.00">/req/sam&#45;cpt/Sampler/sampling&#45;sem</text>
</g>
<!-- /req/sam&#45;cpt/Sampler/implementedProcedure&#45;sem -->
<g id="node17" class="node">
<title>/req/sam&#45;cpt/Sampler/implementedProcedure&#45;sem</title>
<polygon fill="none" stroke="black" points="1092,-560 716,-560 716,-524 1092,-524 1092,-560"/>
<text text-anchor="middle" x="904" y="-538.3" font-family="Times,serif" font-size="14.00">/req/sam&#45;cpt/Sampler/implementedProcedure&#45;sem</text>
</g>
<!-- /req/sam&#45;cpt/PreparationStep/PreparationStep&#45;sem -->
<g id="node18" class="node">
<title>/req/sam&#45;cpt/PreparationStep/PreparationStep&#45;sem</title>
<polygon fill="none" stroke="black" points="1096,-506 712,-506 712,-470 1096,-470 1096,-506"/>
<text text-anchor="middle" x="904" y="-484.3" font-family="Times,serif" font-size="14.00">/req/sam&#45;cpt/PreparationStep/PreparationStep&#45;sem</text>
</g>
<!-- /req/sam&#45;cpt/PreparationStep/processingDetails&#45;sem -->
<g id="node19" class="node">
<title>/req/sam&#45;cpt/PreparationStep/processingDetails&#45;sem</title>
<polygon fill="none" stroke="black" points="1101,-452 707,-452 707,-416 1101,-416 1101,-452"/>
<text text-anchor="middle" x="904" y="-430.3" font-family="Times,serif" font-size="14.00">/req/sam&#45;cpt/PreparationStep/processingDetails&#45;sem</text>
</g>
<!-- /req/sam&#45;cpt/PreparationStep/preparedSample&#45;sem -->
<g id="node20" class="node">
<title>/req/sam&#45;cpt/PreparationStep/preparedSample&#45;sem</title>
<polygon fill="none" stroke="black" points="1096.5,-398 711.5,-398 711.5,-362 1096.5,-362 1096.5,-398"/>
<text text-anchor="middle" x="904" y="-376.3" font-family="Times,serif" font-size="14.00">/req/sam&#45;cpt/PreparationStep/preparedSample&#45;sem</text>
</g>
<!-- /req/sam&#45;cpt/PreparationProcedure/PreparationProcedure&#45;sem -->
<g id="node21" class="node">
<title>/req/sam&#45;cpt/PreparationProcedure/PreparationProcedure&#45;sem</title>
<polygon fill="none" stroke="black" points="1136.5,-344 671.5,-344 671.5,-308 1136.5,-308 1136.5,-344"/>
<text text-anchor="middle" x="904" y="-322.3" font-family="Times,serif" font-size="14.00">/req/sam&#45;cpt/PreparationProcedure/PreparationProcedure&#45;sem</text>
</g>
<!-- /req/sam&#45;cpt/PreparationProcedure/samplePreparationStep&#45;sem -->
<g id="node22" class="node">
<title>/req/sam&#45;cpt/PreparationProcedure/samplePreparationStep&#45;sem</title>
<polygon fill="none" stroke="black" points="1142,-290 666,-290 666,-254 1142,-254 1142,-290"/>
<text text-anchor="middle" x="904" y="-268.3" font-family="Times,serif" font-size="14.00">/req/sam&#45;cpt/PreparationProcedure/samplePreparationStep&#45;sem</text>
</g>
<!-- /req/obs&#45;cpt/Procedure/Procedure&#45;sem -->
<g id="node23" class="node">
<title>/req/obs&#45;cpt/Procedure/Procedure&#45;sem</title>
<polygon fill="none" stroke="black" points="1469,-217 1178,-217 1178,-181 1469,-181 1469,-217"/>
<text text-anchor="middle" x="1323.5" y="-195.3" font-family="Times,serif" font-size="14.00">/req/obs&#45;cpt/Procedure/Procedure&#45;sem</text>
</g>
<!-- /req/sam&#45;cpt/SamplingProcedure/SamplingProcedure&#45;sem -->
<g id="node24" class="node">
<title>/req/sam&#45;cpt/SamplingProcedure/SamplingProcedure&#45;sem</title>
<polygon fill="none" stroke="black" points="1119.5,-144 688.5,-144 688.5,-108 1119.5,-108 1119.5,-144"/>
<text text-anchor="middle" x="904" y="-122.3" font-family="Times,serif" font-size="14.00">/req/sam&#45;cpt/SamplingProcedure/SamplingProcedure&#45;sem</text>
</g>
<!-- /req/sam&#45;cpt/SamplingProcedure/sampling&#45;sem -->
<g id="node25" class="node">
<title>/req/sam&#45;cpt/SamplingProcedure/sampling&#45;sem</title>
<polygon fill="none" stroke="black" points="1081.5,-90 726.5,-90 726.5,-54 1081.5,-54 1081.5,-90"/>
<text text-anchor="middle" x="904" y="-68.3" font-family="Times,serif" font-size="14.00">/req/sam&#45;cpt/SamplingProcedure/sampling&#45;sem</text>
</g>
<!-- /req/sam&#45;cpt/SamplingProcedure/sampler&#45;sem -->
<g id="node26" class="node">
<title>/req/sam&#45;cpt/SamplingProcedure/sampler&#45;sem</title>
<polygon fill="none" stroke="black" points="1077.5,-36 730.5,-36 730.5,0 1077.5,0 1077.5,-36"/>
<text text-anchor="middle" x="904" y="-14.3" font-family="Times,serif" font-size="14.00">/req/sam&#45;cpt/SamplingProcedure/sampler&#45;sem</text>
</g>
<!-- /req/sam&#45;cpt -->
<g id="node27" class="node">
<title>/req/sam&#45;cpt</title>
<polygon fill="none" stroke="black" points="3,-522 3,-543 269,-543 269,-522 3,-522"/>
<text text-anchor="start" x="91" y="-528.8" font-family="Times,serif" font-size="14.00">/req/sam&#45;cpt</text>
<polygon fill="none" stroke="black" points="3,-499 3,-520 269,-520 269,-499 3,-499"/>
<text text-anchor="start" x="6" y="-505.8" font-family="Times,serif" font-size="14.00">Conceptual Sample schema package</text>
<polygon fill="none" stroke="black" points="3,-476 3,-497 269,-497 269,-476 3,-476"/>
<text text-anchor="start" x="71.5" y="-482.8" font-family="Times,serif" font-size="14.00">Conceptual model</text>
<polygon fill="none" stroke="black" points="0,-473.5 0,-546.5 272,-546.5 272,-473.5 0,-473.5"/>
</g>
<!-- /req/sam&#45;cpt/Sample -->
<g id="node28" class="node">
<title>/req/sam&#45;cpt/Sample</title>
<polygon fill="none" stroke="black" points="364,-1229 364,-1250 575,-1250 575,-1229 364,-1229"/>
<text text-anchor="start" x="395.5" y="-1235.8" font-family="Times,serif" font-size="14.00">/req/sam&#45;cpt/Sample</text>
<polygon fill="none" stroke="black" points="364,-1206 364,-1227 575,-1227 575,-1206 364,-1206"/>
<text text-anchor="start" x="367" y="-1212.8" font-family="Times,serif" font-size="14.00">Conceptual Sample &#45; Sample</text>
<polygon fill="none" stroke="black" points="364,-1183 364,-1204 575,-1204 575,-1183 364,-1183"/>
<text text-anchor="start" x="405" y="-1189.8" font-family="Times,serif" font-size="14.00">Conceptual model</text>
<polygon fill="none" stroke="black" points="360.5,-1180.5 360.5,-1253.5 577.5,-1253.5 577.5,-1180.5 360.5,-1180.5"/>
</g>
<!-- /req/sam&#45;cpt&#45;&gt;/req/sam&#45;cpt/Sample -->
<g id="edge1" class="edge">
<title>/req/sam&#45;cpt&#45;&gt;/req/sam&#45;cpt/Sample</title>
<path fill="none" stroke="black" stroke-dasharray="5,2" d="M153.71,-546.64C196.74,-641 308,-885 308,-885 308,-885 401.85,-1079.73 445.79,-1170.92"/>
<polygon fill="black" stroke="black" points="442.77,-1172.71 450.27,-1180.2 449.08,-1169.67 442.77,-1172.71"/>
</g>
<!-- /req/sam&#45;cpt/Sampling -->
<g id="node29" class="node">
<title>/req/sam&#45;cpt/Sampling</title>
<polygon fill="none" stroke="black" points="356,-851 356,-872 582,-872 582,-851 356,-851"/>
<text text-anchor="start" x="388" y="-857.8" font-family="Times,serif" font-size="14.00">/req/sam&#45;cpt/Sampling</text>
<polygon fill="none" stroke="black" points="356,-828 356,-849 582,-849 582,-828 356,-828"/>
<text text-anchor="start" x="359" y="-834.8" font-family="Times,serif" font-size="14.00">Conceptual Sample &#45; Sampling</text>
<polygon fill="none" stroke="black" points="356,-805 356,-826 582,-826 582,-805 356,-805"/>
<text text-anchor="start" x="404.5" y="-811.8" font-family="Times,serif" font-size="14.00">Conceptual model</text>
<polygon fill="none" stroke="black" points="353,-802.5 353,-875.5 585,-875.5 585,-802.5 353,-802.5"/>
</g>
<!-- /req/sam&#45;cpt&#45;&gt;/req/sam&#45;cpt/Sampling -->
<g id="edge2" class="edge">
<title>/req/sam&#45;cpt&#45;&gt;/req/sam&#45;cpt/Sampling</title>
<path fill="none" stroke="black" stroke-dasharray="5,2" d="M174.01,-546.78C235.41,-607.81 358.08,-729.75 423.88,-795.15"/>
<polygon fill="black" stroke="black" points="421.67,-797.89 431.23,-802.45 426.61,-792.92 421.67,-797.89"/>
</g>
<!-- /req/sam&#45;cpt/Sampler -->
<g id="node30" class="node">
<title>/req/sam&#45;cpt/Sampler</title>
<polygon fill="none" stroke="black" points="360,-581 360,-602 578,-602 578,-581 360,-581"/>
<text text-anchor="start" x="392" y="-587.8" font-family="Times,serif" font-size="14.00">/req/sam&#45;cpt/Sampler</text>
<polygon fill="none" stroke="black" points="360,-558 360,-579 578,-579 578,-558 360,-558"/>
<text text-anchor="start" x="363" y="-564.8" font-family="Times,serif" font-size="14.00">Conceptual Sample &#45; Sampler</text>
<polygon fill="none" stroke="black" points="360,-535 360,-556 578,-556 578,-535 360,-535"/>
<text text-anchor="start" x="404.5" y="-541.8" font-family="Times,serif" font-size="14.00">Conceptual model</text>
<polygon fill="none" stroke="black" points="357,-532.5 357,-605.5 581,-605.5 581,-532.5 357,-532.5"/>
</g>
<!-- /req/sam&#45;cpt&#45;&gt;/req/sam&#45;cpt/Sampler -->
<g id="edge3" class="edge">
<title>/req/sam&#45;cpt&#45;&gt;/req/sam&#45;cpt/Sampler</title>
<path fill="none" stroke="black" stroke-dasharray="5,2" d="M272.11,-534.08C296.85,-538.49 322.54,-543.07 346.84,-547.4"/>
<polygon fill="black" stroke="black" points="346.35,-550.87 356.81,-549.18 347.58,-543.98 346.35,-550.87"/>
</g>
<!-- /req/sam&#45;cpt/PreparationStep -->
<g id="node31" class="node">
<title>/req/sam&#45;cpt/PreparationStep</title>
<polygon fill="none" stroke="black" points="331,-468 331,-489 607,-489 607,-468 331,-468"/>
<text text-anchor="start" x="363" y="-474.8" font-family="Times,serif" font-size="14.00">/req/sam&#45;cpt/PreparationStep</text>
<polygon fill="none" stroke="black" points="331,-445 331,-466 607,-466 607,-445 331,-445"/>
<text text-anchor="start" x="334" y="-451.8" font-family="Times,serif" font-size="14.00">Conceptual Sample &#45; PreparationStep</text>
<polygon fill="none" stroke="black" points="331,-422 331,-443 607,-443 607,-422 331,-422"/>
<text text-anchor="start" x="404.5" y="-428.8" font-family="Times,serif" font-size="14.00">Conceptual model</text>
<polygon fill="none" stroke="black" points="328,-419.5 328,-492.5 610,-492.5 610,-419.5 328,-419.5"/>
</g>
<!-- /req/sam&#45;cpt&#45;&gt;/req/sam&#45;cpt/PreparationStep -->
<g id="edge4" class="edge">
<title>/req/sam&#45;cpt&#45;&gt;/req/sam&#45;cpt/PreparationStep</title>
<path fill="none" stroke="black" stroke-dasharray="5,2" d="M272.11,-487.96C287.21,-485.49 302.67,-482.97 317.94,-480.48"/>
<polygon fill="black" stroke="black" points="318.64,-483.91 327.95,-478.85 317.52,-477 318.64,-483.91"/>
</g>
<!-- /req/sam&#45;cpt/PreparationProcedure -->
<g id="node32" class="node">
<title>/req/sam&#45;cpt/PreparationProcedure</title>
<polygon fill="none" stroke="black" points="311,-311 311,-332 627,-332 627,-311 311,-311"/>
<text text-anchor="start" x="342.5" y="-317.8" font-family="Times,serif" font-size="14.00">/req/sam&#45;cpt/PreparationProcedure</text>
<polygon fill="none" stroke="black" points="311,-288 311,-309 627,-309 627,-288 311,-288"/>
<text text-anchor="start" x="314" y="-294.8" font-family="Times,serif" font-size="14.00">Conceptual Sample &#45; PreparationProcedure</text>
<polygon fill="none" stroke="black" points="311,-265 311,-286 627,-286 627,-265 311,-265"/>
<text text-anchor="start" x="402.5" y="-271.8" font-family="Times,serif" font-size="14.00">Conceptual m odel</text>
<polygon fill="none" stroke="black" points="308,-262.5 308,-335.5 630,-335.5 630,-262.5 308,-262.5"/>
</g>
<!-- /req/sam&#45;cpt&#45;&gt;/req/sam&#45;cpt/PreparationProcedure -->
<g id="edge5" class="edge">
<title>/req/sam&#45;cpt&#45;&gt;/req/sam&#45;cpt/PreparationProcedure</title>
<path fill="none" stroke="black" stroke-dasharray="5,2" d="M194.28,-473.49C252.04,-436.67 341.11,-379.89 401.84,-341.17"/>
<polygon fill="black" stroke="black" points="404.04,-343.92 410.59,-335.6 400.28,-338.02 404.04,-343.92"/>
</g>
<!-- /req/sam&#45;cpt/SamplingProcedure -->
<g id="node34" class="node">
<title>/req/sam&#45;cpt/SamplingProcedure</title>
<polygon fill="none" stroke="black" points="320,-138 320,-159 619,-159 619,-138 320,-138"/>
<text text-anchor="start" x="352" y="-144.8" font-family="Times,serif" font-size="14.00">/req/sam&#45;cpt/SamplingProcedure</text>
<polygon fill="none" stroke="black" points="320,-115 320,-136 619,-136 619,-115 320,-115"/>
<text text-anchor="start" x="323" y="-121.8" font-family="Times,serif" font-size="14.00">Conceptual Sample &#45; SamplingProcedure</text>
<polygon fill="none" stroke="black" points="320,-92 320,-113 619,-113 619,-92 320,-92"/>
<text text-anchor="start" x="403" y="-98.8" font-family="Times,serif" font-size="14.00">Conceptual m odel</text>
<polygon fill="none" stroke="black" points="316.5,-89.5 316.5,-162.5 621.5,-162.5 621.5,-89.5 316.5,-89.5"/>
</g>
<!-- /req/sam&#45;cpt&#45;&gt;/req/sam&#45;cpt/SamplingProcedure -->
<g id="edge6" class="edge">
<title>/req/sam&#45;cpt&#45;&gt;/req/sam&#45;cpt/SamplingProcedure</title>
<path fill="none" stroke="black" stroke-dasharray="5,2" d="M161.32,-473.45C208.53,-402.5 308,-253 308,-253 308,-253 367.4,-205.85 413.81,-169.01"/>
<polygon fill="black" stroke="black" points="416.06,-171.69 421.72,-162.73 411.71,-166.21 416.06,-171.69"/>
</g>
<!-- /req/sam&#45;cpt/Sample&#45;&gt;/req/sam&#45;cpt/Sample/Sample&#45;sem -->
<g id="edge7" class="edge">
<title>/req/sam&#45;cpt/Sample&#45;&gt;/req/sam&#45;cpt/Sample/Sample&#45;sem</title>
<path fill="none" stroke="black" d="M514.48,-1253.76C572.3,-1301.56 666,-1379 666,-1379 666,-1379 713.5,-1384.41 765.98,-1390.39"/>
<polygon fill="black" stroke="black" points="765.84,-1393.9 776.17,-1391.55 766.63,-1386.94 765.84,-1393.9"/>
</g>
<!-- /req/sam&#45;cpt/Sample&#45;&gt;/req/sam&#45;cpt/Sample/sampling&#45;sem -->
<g id="edge8" class="edge">
<title>/req/sam&#45;cpt/Sample&#45;&gt;/req/sam&#45;cpt/Sample/sampling&#45;sem</title>
<path fill="none" stroke="black" d="M536.36,-1253.56C593.22,-1284.9 666,-1325 666,-1325 666,-1325 710.07,-1330.02 760.2,-1335.73"/>
<polygon fill="black" stroke="black" points="759.96,-1339.23 770.3,-1336.88 760.76,-1332.27 759.96,-1339.23"/>
</g>
<!-- /req/sam&#45;cpt/Sample&#45;&gt;/req/sam&#45;cpt/Sample/preparationStep&#45;sem -->
<g id="edge9" class="edge">
<title>/req/sam&#45;cpt/Sample&#45;&gt;/req/sam&#45;cpt/Sample/preparationStep&#45;sem</title>
<path fill="none" stroke="black" d="M577.75,-1246.69C623.29,-1259.23 666,-1271 666,-1271 666,-1271 696.12,-1274.43 734.89,-1278.85"/>
<polygon fill="black" stroke="black" points="734.59,-1282.34 744.92,-1279.99 735.38,-1275.38 734.59,-1282.34"/>
</g>
<!-- /req/sam&#45;cpt/Sample&#45;&gt;/req/sam&#45;cpt/Sample/sampledFeature&#45;sem -->
<g id="edge10" class="edge">
<title>/req/sam&#45;cpt/Sample&#45;&gt;/req/sam&#45;cpt/Sample/sampledFeature&#45;sem</title>
<path fill="none" stroke="black" d="M577.59,-1223.71C625.12,-1226.67 682.12,-1230.23 735.04,-1233.53"/>
<polygon fill="black" stroke="black" points="735.02,-1237.03 745.22,-1234.16 735.46,-1230.05 735.02,-1237.03"/>
</g>
<!-- /req/sam&#45;cpt/Sample&#45;&gt;/req/sam&#45;cpt/Sample/sampledFeature&#45;card -->
<g id="edge11" class="edge">
<title>/req/sam&#45;cpt/Sample&#45;&gt;/req/sam&#45;cpt/Sample/sampledFeature&#45;card</title>
<path fill="none" stroke="black" d="M577.59,-1210.29C624.77,-1207.35 681.28,-1203.83 733.86,-1200.55"/>
<polygon fill="black" stroke="black" points="734.22,-1204.03 743.98,-1199.92 733.78,-1197.05 734.22,-1204.03"/>
</g>
<!-- /req/sam&#45;cpt/Sample&#45;&gt;/req/sam&#45;cpt/Sample/relatedSample&#45;sem -->
<g id="edge12" class="edge">
<title>/req/sam&#45;cpt/Sample&#45;&gt;/req/sam&#45;cpt/Sample/relatedSample&#45;sem</title>
<path fill="none" stroke="black" d="M577.75,-1187.31C623.29,-1174.77 666,-1163 666,-1163 666,-1163 699.2,-1159.22 740.75,-1154.48"/>
<polygon fill="black" stroke="black" points="741.35,-1157.94 750.89,-1153.33 740.56,-1150.98 741.35,-1157.94"/>
</g>
<!-- /req/sam&#45;cpt/Sample&#45;&gt;/req/obs&#45;cpt/gen/relatedObservation&#45;sem -->
<g id="edge13" class="edge">
<title>/req/sam&#45;cpt/Sample&#45;&gt;/req/obs&#45;cpt/gen/relatedObservation&#45;sem</title>
<path fill="none" stroke="black" d="M536.36,-1180.44C593.22,-1149.1 666,-1109 666,-1109 666,-1109 698.72,-1105.27 739.85,-1100.59"/>
<polygon fill="black" stroke="black" points="740.35,-1104.05 749.89,-1099.44 739.56,-1097.1 740.35,-1104.05"/>
</g>
<!-- /req/sam&#45;cpt/Sampling&#45;&gt;/req/sam&#45;cpt/Sampling/Sampling&#45;sem -->
<g id="edge14" class="edge">
<title>/req/sam&#45;cpt/Sampling&#45;&gt;/req/sam&#45;cpt/Sampling/Sampling&#45;sem</title>
<path fill="none" stroke="black" d="M514.48,-875.76C572.3,-923.56 666,-1001 666,-1001 666,-1001 705.19,-1005.46 751.69,-1010.76"/>
<polygon fill="black" stroke="black" points="751.38,-1014.25 761.71,-1011.9 752.17,-1007.29 751.38,-1014.25"/>
</g>
<!-- /req/sam&#45;cpt/Sampling&#45;&gt;/req/sam&#45;cpt/Sampling/sample&#45;sem -->
<g id="edge15" class="edge">
<title>/req/sam&#45;cpt/Sampling&#45;&gt;/req/sam&#45;cpt/Sampling/sample&#45;sem</title>
<path fill="none" stroke="black" d="M536.36,-875.56C593.22,-906.9 666,-947 666,-947 666,-947 710.07,-952.02 760.2,-957.73"/>
<polygon fill="black" stroke="black" points="759.96,-961.23 770.3,-958.88 760.76,-954.27 759.96,-961.23"/>
</g>
<!-- /req/sam&#45;cpt/Sampling&#45;&gt;/req/sam&#45;cpt/Sampling/featureOfInterest&#45;sem -->
<g id="edge16" class="edge">
<title>/req/sam&#45;cpt/Sampling&#45;&gt;/req/sam&#45;cpt/Sampling/featureOfInterest&#45;sem</title>
<path fill="none" stroke="black" d="M585.15,-870.72C627.81,-882.48 666,-893 666,-893 666,-893 696.12,-896.43 734.89,-900.85"/>
<polygon fill="black" stroke="black" points="734.59,-904.34 744.92,-901.99 735.38,-897.38 734.59,-904.34"/>
</g>
<!-- /req/sam&#45;cpt/Sampling&#45;&gt;/req/sam&#45;cpt/Sampling/featureOfInterest&#45;card -->
<g id="edge17" class="edge">
<title>/req/sam&#45;cpt/Sampling&#45;&gt;/req/sam&#45;cpt/Sampling/featureOfInterest&#45;card</title>
<path fill="none" stroke="black" d="M585.18,-846.18C627.08,-848.79 675.51,-851.81 721.74,-854.7"/>
<polygon fill="black" stroke="black" points="721.68,-858.2 731.88,-855.33 722.12,-851.21 721.68,-858.2"/>
</g>
<!-- /req/sam&#45;cpt/Sampling&#45;&gt;/req/sam&#45;cpt/Sampling/sampler&#45;sem -->
<g id="edge18" class="edge">
<title>/req/sam&#45;cpt/Sampling&#45;&gt;/req/sam&#45;cpt/Sampling/sampler&#45;sem</title>
<path fill="none" stroke="black" d="M585.18,-831.82C637.89,-828.53 700.94,-824.6 756.93,-821.11"/>
<polygon fill="black" stroke="black" points="757.17,-824.6 766.94,-820.48 756.74,-817.61 757.17,-824.6"/>
</g>
<!-- /req/sam&#45;cpt/Sampling&#45;&gt;/req/sam&#45;cpt/Sampling/samplingProcedure&#45;sem -->
<g id="edge19" class="edge">
<title>/req/sam&#45;cpt/Sampling&#45;&gt;/req/sam&#45;cpt/Sampling/samplingProcedure&#45;sem</title>
<path fill="none" stroke="black" d="M585.15,-807.28C627.81,-795.52 666,-785 666,-785 666,-785 696.12,-781.57 734.89,-777.15"/>
<polygon fill="black" stroke="black" points="735.38,-780.62 744.92,-776.01 734.59,-773.66 735.38,-780.62"/>
</g>
<!-- /req/sam&#45;cpt/Sampling&#45;&gt;/req/sam&#45;cpt/Sampling/relatedSampling&#45;sem -->
<g id="edge20" class="edge">
<title>/req/sam&#45;cpt/Sampling&#45;&gt;/req/sam&#45;cpt/Sampling/relatedSampling&#45;sem</title>
<path fill="none" stroke="black" d="M536.36,-802.44C593.22,-771.1 666,-731 666,-731 666,-731 696.12,-727.57 734.89,-723.15"/>
<polygon fill="black" stroke="black" points="735.38,-726.62 744.92,-722.01 734.59,-719.66 735.38,-726.62"/>
</g>
<!-- /req/sam&#45;cpt/Sampler&#45;&gt;/req/sam&#45;cpt/Sampler/Sampler&#45;sem -->
<g id="edge21" class="edge">
<title>/req/sam&#45;cpt/Sampler&#45;&gt;/req/sam&#45;cpt/Sampler/Sampler&#45;sem</title>
<path fill="none" stroke="black" d="M581.17,-599.63C625.41,-611.82 666,-623 666,-623 666,-623 709.51,-627.96 759.24,-633.62"/>
<polygon fill="black" stroke="black" points="758.93,-637.11 769.26,-634.76 759.72,-630.15 758.93,-637.11"/>
</g>
<!-- /req/sam&#45;cpt/Sampler&#45;&gt;/req/sam&#45;cpt/Sampler/sampling&#45;sem -->
<g id="edge22" class="edge">
<title>/req/sam&#45;cpt/Sampler&#45;&gt;/req/sam&#45;cpt/Sampler/sampling&#45;sem</title>
<path fill="none" stroke="black" d="M581.23,-575.94C634.65,-579.27 699.37,-583.3 756.73,-586.88"/>
<polygon fill="black" stroke="black" points="756.77,-590.39 766.97,-587.52 757.21,-583.4 756.77,-590.39"/>
</g>
<!-- /req/sam&#45;cpt/Sampler&#45;&gt;/req/sam&#45;cpt/Sampler/implementedProcedure&#45;sem -->
<g id="edge23" class="edge">
<title>/req/sam&#45;cpt/Sampler&#45;&gt;/req/sam&#45;cpt/Sampler/implementedProcedure&#45;sem</title>
<path fill="none" stroke="black" d="M581.23,-562.06C619.16,-559.7 662.78,-556.98 705.42,-554.32"/>
<polygon fill="black" stroke="black" points="705.89,-557.8 715.65,-553.68 705.45,-550.81 705.89,-557.8"/>
</g>
<!-- /req/sam&#45;cpt/PreparationStep&#45;&gt;/req/sam&#45;cpt/PreparationStep/PreparationStep&#45;sem -->
<g id="edge24" class="edge">
<title>/req/sam&#45;cpt/PreparationStep&#45;&gt;/req/sam&#45;cpt/PreparationStep/PreparationStep&#45;sem</title>
<path fill="none" stroke="black" d="M610.28,-466.37C639.48,-468.53 670.8,-470.84 701.7,-473.12"/>
<polygon fill="black" stroke="black" points="701.49,-476.62 711.72,-473.86 702.01,-469.64 701.49,-476.62"/>
</g>
<!-- /req/sam&#45;cpt/PreparationStep&#45;&gt;/req/sam&#45;cpt/PreparationStep/processingDetails&#45;sem -->
<g id="edge25" class="edge">
<title>/req/sam&#45;cpt/PreparationStep&#45;&gt;/req/sam&#45;cpt/PreparationStep/processingDetails&#45;sem</title>
<path fill="none" stroke="black" d="M610.28,-448.87C637.79,-447.47 667.18,-445.98 696.34,-444.5"/>
<polygon fill="black" stroke="black" points="696.83,-447.98 706.64,-443.98 696.47,-440.99 696.83,-447.98"/>
</g>
<!-- /req/sam&#45;cpt/PreparationStep&#45;&gt;/req/sam&#45;cpt/PreparationStep/preparedSample&#45;sem -->
<g id="edge26" class="edge">
<title>/req/sam&#45;cpt/PreparationStep&#45;&gt;/req/sam&#45;cpt/PreparationStep/preparedSample&#45;sem</title>
<path fill="none" stroke="black" d="M610.1,-420.98C641.64,-413.09 666,-407 666,-407 666,-407 696.12,-403.57 734.89,-399.15"/>
<polygon fill="black" stroke="black" points="735.38,-402.62 744.92,-398.01 734.59,-395.66 735.38,-402.62"/>
</g>
<!-- /req/sam&#45;cpt/PreparationProcedure&#45;&gt;/req/sam&#45;cpt/PreparationProcedure/PreparationProcedure&#45;sem -->
<g id="edge27" class="edge">
<title>/req/sam&#45;cpt/PreparationProcedure&#45;&gt;/req/sam&#45;cpt/PreparationProcedure/PreparationProcedure&#45;sem</title>
<path fill="none" stroke="black" d="M630,-308.98C640.23,-309.61 650.63,-310.26 661.12,-310.92"/>
<polygon fill="black" stroke="black" points="660.99,-314.42 671.19,-311.55 661.43,-307.43 660.99,-314.42"/>
</g>
<!-- /req/sam&#45;cpt/PreparationProcedure&#45;&gt;/req/sam&#45;cpt/PreparationProcedure/samplePreparationStep&#45;sem -->
<g id="edge28" class="edge">
<title>/req/sam&#45;cpt/PreparationProcedure&#45;&gt;/req/sam&#45;cpt/PreparationProcedure/samplePreparationStep&#45;sem</title>
<path fill="none" stroke="black" d="M630,-289.02C638.49,-288.49 647.1,-287.96 655.77,-287.42"/>
<polygon fill="black" stroke="black" points="656.22,-290.89 665.99,-286.78 655.79,-283.91 656.22,-290.89"/>
</g>
<!-- /req/obs&#45;cpt/Procedure -->
<g id="node33" class="node">
<title>/req/obs&#45;cpt/Procedure</title>
<polygon fill="none" stroke="black" points="772,-211 772,-232 1037,-232 1037,-211 772,-211"/>
<text text-anchor="start" x="823" y="-217.8" font-family="Times,serif" font-size="14.00">/req/obs&#45;cpt/Procedure</text>
<polygon fill="none" stroke="black" points="772,-188 772,-209 1037,-209 1037,-188 772,-188"/>
<text text-anchor="start" x="775" y="-194.8" font-family="Times,serif" font-size="14.00">Conceptual Observation &#45; Procedure</text>
<polygon fill="none" stroke="black" points="772,-165 772,-186 1037,-186 1037,-165 772,-165"/>
<text text-anchor="start" x="840" y="-171.8" font-family="Times,serif" font-size="14.00">Conceptual model</text>
<polygon fill="none" stroke="black" points="768.5,-162.5 768.5,-235.5 1039.5,-235.5 1039.5,-162.5 768.5,-162.5"/>
</g>
<!-- /req/sam&#45;cpt/PreparationProcedure&#45;&gt;/req/obs&#45;cpt/Procedure -->
<g id="edge29" class="edge">
<title>/req/sam&#45;cpt/PreparationProcedure&#45;&gt;/req/obs&#45;cpt/Procedure</title>
<path fill="none" stroke="black" stroke-dasharray="5,2" d="M602.64,-262.46C637.72,-252.79 666,-245 666,-245 666,-245 708.95,-236.66 758.29,-227.09"/>
<polygon fill="black" stroke="black" points="759.08,-230.5 768.23,-225.16 757.75,-223.63 759.08,-230.5"/>
</g>
<!-- /req/obs&#45;cpt/Procedure&#45;&gt;/req/obs&#45;cpt/Procedure/Procedure&#45;sem -->
<g id="edge30" class="edge">
<title>/req/obs&#45;cpt/Procedure&#45;&gt;/req/obs&#45;cpt/Procedure/Procedure&#45;sem</title>
<path fill="none" stroke="black" d="M1039.69,-199C1080.5,-199 1125.66,-199 1167.68,-199"/>
<polygon fill="black" stroke="black" points="1167.72,-202.5 1177.72,-199 1167.72,-195.5 1167.72,-202.5"/>
</g>
<!-- /req/sam&#45;cpt/SamplingProcedure&#45;&gt;/req/sam&#45;cpt/SamplingProcedure/SamplingProcedure&#45;sem -->
<g id="edge31" class="edge">
<title>/req/sam&#45;cpt/SamplingProcedure&#45;&gt;/req/sam&#45;cpt/SamplingProcedure/SamplingProcedure&#45;sem</title>
<path fill="none" stroke="black" d="M621.75,-126C640.12,-126 659.18,-126 678.32,-126"/>
<polygon fill="black" stroke="black" points="678.33,-129.5 688.33,-126 678.33,-122.5 678.33,-129.5"/>
</g>
<!-- /req/sam&#45;cpt/SamplingProcedure&#45;&gt;/req/sam&#45;cpt/SamplingProcedure/sampling&#45;sem -->
<g id="edge32" class="edge">
<title>/req/sam&#45;cpt/SamplingProcedure&#45;&gt;/req/sam&#45;cpt/SamplingProcedure/sampling&#45;sem</title>
<path fill="none" stroke="black" d="M621.52,-105.13C647.33,-101.57 666,-99 666,-99 666,-99 696.12,-95.57 734.89,-91.15"/>
<polygon fill="black" stroke="black" points="735.38,-94.62 744.92,-90.01 734.59,-87.66 735.38,-94.62"/>
</g>
<!-- /req/sam&#45;cpt/SamplingProcedure&#45;&gt;/req/sam&#45;cpt/SamplingProcedure/sampler&#45;sem -->
<g id="edge33" class="edge">
<title>/req/sam&#45;cpt/SamplingProcedure&#45;&gt;/req/sam&#45;cpt/SamplingProcedure/sampler&#45;sem</title>
<path fill="none" stroke="black" d="M558.54,-89.41C610.48,-67.94 666,-45 666,-45 666,-45 696.12,-41.57 734.89,-37.15"/>
<polygon fill="black" stroke="black" points="735.38,-40.62 744.92,-36.01 734.59,-33.66 735.38,-40.62"/>
</g>
<!-- /req/sam&#45;cpt/SamplingProcedure&#45;&gt;/req/obs&#45;cpt/Procedure -->
<g id="edge34" class="edge">
<title>/req/sam&#45;cpt/SamplingProcedure&#45;&gt;/req/obs&#45;cpt/Procedure</title>
<path fill="none" stroke="black" stroke-dasharray="5,2" d="M621.75,-151.58C666.17,-159.07 714.59,-167.24 758.55,-174.65"/>
<polygon fill="black" stroke="black" points="758,-178.1 768.44,-176.31 759.16,-171.2 758,-178.1"/>
</g>
</g>
</svg>
