<?xml version="1.0" encoding="UTF-8" standalone="no"?>
<!DOCTYPE svg PUBLIC "-//W3C//DTD SVG 1.1//EN"
 "http://www.w3.org/Graphics/SVG/1.1/DTD/svg11.dtd">
<!-- Generated by graphviz version 2.43.0 (0)
 -->
<!-- Title: G Pages: 1 -->
<svg width="1154pt" height="244pt"
 viewBox="0.00 0.00 1154.00 243.50" xmlns="http://www.w3.org/2000/svg" xmlns:xlink="http://www.w3.org/1999/xlink">
<g id="graph0" class="graph" transform="scale(1 1) rotate(0) translate(4 239.5)">
<title>G</title>
<polygon fill="white" stroke="transparent" points="-4,4 -4,-239.5 1150,-239.5 1150,4 -4,4"/>
<!-- /req/obs&#45;cpt/ObservingProcedure/ObservingProcedure&#45;sem -->
<g id="node1" class="node">
<title>/req/obs&#45;cpt/ObservingProcedure/ObservingProcedure&#45;sem</title>
<polygon fill="none" stroke="black" points="819,-235.5 381,-235.5 381,-199.5 819,-199.5 819,-235.5"/>
<text text-anchor="middle" x="600" y="-213.8" font-family="Times,serif" font-size="14.00">/req/obs&#45;cpt/ObservingProcedure/ObservingProcedure&#45;sem</text>
</g>
<!-- /req/obs&#45;cpt/ObservingProcedure/observer&#45;sem -->
<g id="node2" class="node">
<title>/req/obs&#45;cpt/ObservingProcedure/observer&#45;sem</title>
<polygon fill="none" stroke="black" points="777,-181.5 423,-181.5 423,-145.5 777,-145.5 777,-181.5"/>
<text text-anchor="middle" x="600" y="-159.8" font-family="Times,serif" font-size="14.00">/req/obs&#45;cpt/ObservingProcedure/observer&#45;sem</text>
</g>
<!-- /req/obs&#45;cpt/gen/relatedObservation&#45;sem -->
<g id="node3" class="node">
<title>/req/obs&#45;cpt/gen/relatedObservation&#45;sem</title>
<polygon fill="none" stroke="black" points="754,-127.5 446,-127.5 446,-91.5 754,-91.5 754,-127.5"/>
<text text-anchor="middle" x="600" y="-105.8" font-family="Times,serif" font-size="14.00">/req/obs&#45;cpt/gen/relatedObservation&#45;sem</text>
</g>
<!-- /req/obs&#45;cpt/Procedure/Procedure&#45;sem -->
<g id="node4" class="node">
<title>/req/obs&#45;cpt/Procedure/Procedure&#45;sem</title>
<polygon fill="none" stroke="black" points="1146,-54.5 855,-54.5 855,-18.5 1146,-18.5 1146,-54.5"/>
<text text-anchor="middle" x="1000.5" y="-32.8" font-family="Times,serif" font-size="14.00">/req/obs&#45;cpt/Procedure/Procedure&#45;sem</text>
</g>
<!-- /req/obs&#45;cpt/ObservingProcedure -->
<g id="node5" class="node">
<title>/req/obs&#45;cpt/ObservingProcedure</title>
<polygon fill="none" stroke="black" points="3.5,-148.5 3.5,-169.5 342.5,-169.5 342.5,-148.5 3.5,-148.5"/>
<text text-anchor="start" x="54.5" y="-155.3" font-family="Times,serif" font-size="14.00">/req/obs&#45;cpt/ObservingProcedure</text>
<polygon fill="none" stroke="black" points="3.5,-125.5 3.5,-146.5 342.5,-146.5 342.5,-125.5 3.5,-125.5"/>
<text text-anchor="start" x="6.5" y="-132.3" font-family="Times,serif" font-size="14.00">Conceptual Observation &#45; ObservingProcedure</text>
<polygon fill="none" stroke="black" points="3.5,-102.5 3.5,-123.5 342.5,-123.5 342.5,-102.5 3.5,-102.5"/>
<text text-anchor="start" x="108.5" y="-109.3" font-family="Times,serif" font-size="14.00">Conceptual model</text>
<polygon fill="none" stroke="black" points="0,-100 0,-173 345,-173 345,-100 0,-100"/>
</g>
<!-- /req/obs&#45;cpt/ObservingProcedure&#45;&gt;/req/obs&#45;cpt/ObservingProcedure/ObservingProcedure&#45;sem -->
<g id="edge1" class="edge">
<title>/req/obs&#45;cpt/ObservingProcedure&#45;&gt;/req/obs&#45;cpt/ObservingProcedure/ObservingProcedure&#45;sem</title>
<path fill="none" stroke="black" d="M313.92,-173.04C351.06,-182.71 381,-190.5 381,-190.5 381,-190.5 408.24,-193.87 443.46,-198.24"/>
<polygon fill="black" stroke="black" points="443.24,-201.73 453.59,-199.49 444.1,-194.79 443.24,-201.73"/>
</g>
<!-- /req/obs&#45;cpt/ObservingProcedure&#45;&gt;/req/obs&#45;cpt/ObservingProcedure/observer&#45;sem -->
<g id="edge2" class="edge">
<title>/req/obs&#45;cpt/ObservingProcedure&#45;&gt;/req/obs&#45;cpt/ObservingProcedure/observer&#45;sem</title>
<path fill="none" stroke="black" d="M345.03,-147.38C367.25,-148.79 390.09,-150.24 412.53,-151.67"/>
<polygon fill="black" stroke="black" points="412.61,-155.18 422.81,-152.32 413.05,-148.19 412.61,-155.18"/>
</g>
<!-- /req/obs&#45;cpt/ObservingProcedure&#45;&gt;/req/obs&#45;cpt/gen/relatedObservation&#45;sem -->
<g id="edge3" class="edge">
<title>/req/obs&#45;cpt/ObservingProcedure&#45;&gt;/req/obs&#45;cpt/gen/relatedObservation&#45;sem</title>
<path fill="none" stroke="black" d="M345.03,-125.62C375,-123.71 406.09,-121.74 435.82,-119.85"/>
<polygon fill="black" stroke="black" points="436.09,-123.34 445.85,-119.22 435.64,-116.36 436.09,-123.34"/>
</g>
<!-- /req/obs&#45;cpt/Procedure -->
<g id="node6" class="node">
<title>/req/obs&#45;cpt/Procedure</title>
<polygon fill="none" stroke="black" points="468,-48.5 468,-69.5 733,-69.5 733,-48.5 468,-48.5"/>
<text text-anchor="start" x="519" y="-55.3" font-family="Times,serif" font-size="14.00">/req/obs&#45;cpt/Procedure</text>
<polygon fill="none" stroke="black" points="468,-25.5 468,-46.5 733,-46.5 733,-25.5 468,-25.5"/>
<text text-anchor="start" x="471" y="-32.3" font-family="Times,serif" font-size="14.00">Conceptual Observation &#45; Procedure</text>
<polygon fill="none" stroke="black" points="468,-2.5 468,-23.5 733,-23.5 733,-2.5 468,-2.5"/>
<text text-anchor="start" x="536" y="-9.3" font-family="Times,serif" font-size="14.00">Conceptual model</text>
<polygon fill="none" stroke="black" points="464.5,0 464.5,-73 735.5,-73 735.5,0 464.5,0"/>
</g>
<!-- /req/obs&#45;cpt/ObservingProcedure&#45;&gt;/req/obs&#45;cpt/Procedure -->
<g id="edge4" class="edge">
<title>/req/obs&#45;cpt/ObservingProcedure&#45;&gt;/req/obs&#45;cpt/Procedure</title>
<path fill="none" stroke="black" stroke-dasharray="5,2" d="M313.92,-99.96C351.06,-90.29 381,-82.5 381,-82.5 381,-82.5 414.1,-75.52 454.5,-66.99"/>
<polygon fill="black" stroke="black" points="455.29,-70.4 464.35,-64.91 453.84,-63.55 455.29,-70.4"/>
</g>
<!-- /req/obs&#45;cpt/Procedure&#45;&gt;/req/obs&#45;cpt/Procedure/Procedure&#45;sem -->
<g id="edge5" class="edge">
<title>/req/obs&#45;cpt/Procedure&#45;&gt;/req/obs&#45;cpt/Procedure/Procedure&#45;sem</title>
<path fill="none" stroke="black" d="M735.64,-36.5C770.74,-36.5 808.83,-36.5 844.88,-36.5"/>
<polygon fill="black" stroke="black" points="844.99,-40 854.99,-36.5 844.99,-33 844.99,-40"/>
</g>
</g>
</svg>
