<?xml version="1.0" encoding="UTF-8" standalone="no"?>
<!DOCTYPE svg PUBLIC "-//W3C//DTD SVG 1.1//EN"
 "http://www.w3.org/Graphics/SVG/1.1/DTD/svg11.dtd">
<!-- Generated by graphviz version 2.43.0 (0)
 -->
<!-- Title: G Pages: 1 -->
<svg width="1038pt" height="476pt"
 viewBox="0.00 0.00 1038.00 476.00" xmlns="http://www.w3.org/2000/svg" xmlns:xlink="http://www.w3.org/1999/xlink">
<g id="graph0" class="graph" transform="scale(1 1) rotate(0) translate(4 472)">
<title>G</title>
<polygon fill="white" stroke="transparent" points="-4,4 -4,-472 1034,-472 1034,4 -4,4"/>
<!-- /req/obs&#45;basic/ObservationCollection/ObservationCollection&#45;sem -->
<g id="node1" class="node">
<title>/req/obs&#45;basic/ObservationCollection/ObservationCollection&#45;sem</title>
<polygon fill="none" stroke="black" points="931.5,-468 456.5,-468 456.5,-432 931.5,-432 931.5,-468"/>
<text text-anchor="middle" x="694" y="-446.3" font-family="Times,serif" font-size="14.00">/req/obs&#45;basic/ObservationCollection/ObservationCollection&#45;sem</text>
</g>
<!-- /req/obs&#45;basic/ObservationCollection/collectionType&#45;sem -->
<g id="node2" class="node">
<title>/req/obs&#45;basic/ObservationCollection/collectionType&#45;sem</title>
<polygon fill="none" stroke="black" points="903.5,-414 484.5,-414 484.5,-378 903.5,-378 903.5,-414"/>
<text text-anchor="middle" x="694" y="-392.3" font-family="Times,serif" font-size="14.00">/req/obs&#45;basic/ObservationCollection/collectionType&#45;sem</text>
</g>
<!-- /req/obs&#45;basic/ObservationCollection/collectionType&#45;homogenous&#45;con -->
<g id="node3" class="node">
<title>/req/obs&#45;basic/ObservationCollection/collectionType&#45;homogenous&#45;con</title>
<polygon fill="none" stroke="black" points="948.5,-360 439.5,-360 439.5,-324 948.5,-324 948.5,-360"/>
<text text-anchor="middle" x="694" y="-338.3" font-family="Times,serif" font-size="14.00">/req/obs&#45;basic/ObservationCollection/collectionType&#45;homogenous&#45;con</text>
</g>
<!-- /req/obs&#45;basic/ObservationCollection/collectionType&#45;summarizing&#45;con -->
<g id="node4" class="node">
<title>/req/obs&#45;basic/ObservationCollection/collectionType&#45;summarizing&#45;con</title>
<polygon fill="none" stroke="black" points="950,-306 438,-306 438,-270 950,-270 950,-306"/>
<text text-anchor="middle" x="694" y="-284.3" font-family="Times,serif" font-size="14.00">/req/obs&#45;basic/ObservationCollection/collectionType&#45;summarizing&#45;con</text>
</g>
<!-- /req/obs&#45;basic/ObservationCollection/member&#45;sem -->
<g id="node5" class="node">
<title>/req/obs&#45;basic/ObservationCollection/member&#45;sem</title>
<polygon fill="none" stroke="black" points="882,-252 506,-252 506,-216 882,-216 882,-252"/>
<text text-anchor="middle" x="694" y="-230.3" font-family="Times,serif" font-size="14.00">/req/obs&#45;basic/ObservationCollection/member&#45;sem</text>
</g>
<!-- /req/obs&#45;basic/ObservationCollection/memberCharacteristics&#45;sem -->
<g id="node6" class="node">
<title>/req/obs&#45;basic/ObservationCollection/memberCharacteristics&#45;sem</title>
<polygon fill="none" stroke="black" points="936.5,-198 451.5,-198 451.5,-162 936.5,-162 936.5,-198"/>
<text text-anchor="middle" x="694" y="-176.3" font-family="Times,serif" font-size="14.00">/req/obs&#45;basic/ObservationCollection/memberCharacteristics&#45;sem</text>
</g>
<!-- /req/obs&#45;basic/ObservationCollection/relatedCollection&#45;sem -->
<g id="node7" class="node">
<title>/req/obs&#45;basic/ObservationCollection/relatedCollection&#45;sem</title>
<polygon fill="none" stroke="black" points="913.5,-144 474.5,-144 474.5,-108 913.5,-108 913.5,-144"/>
<text text-anchor="middle" x="694" y="-122.3" font-family="Times,serif" font-size="14.00">/req/obs&#45;basic/ObservationCollection/relatedCollection&#45;sem</text>
</g>
<!-- /req/obs&#45;basic/ObservingCapability/CollectionTypeByMemberCharacteristicsSemantics&#45;sem -->
<g id="node8" class="node">
<title>/req/obs&#45;basic/ObservingCapability/CollectionTypeByMemberCharacteristicsSemantics&#45;sem</title>
<polygon fill="none" stroke="black" points="1030,-90 358,-90 358,-54 1030,-54 1030,-90"/>
<text text-anchor="middle" x="694" y="-68.3" font-family="Times,serif" font-size="14.00">/req/obs&#45;basic/ObservingCapability/CollectionTypeByMemberCharacteristicsSemantics&#45;sem</text>
</g>
<!-- /req/obs&#45;cpt/gen/relatedObservation&#45;sem -->
<g id="node9" class="node">
<title>/req/obs&#45;cpt/gen/relatedObservation&#45;sem</title>
<polygon fill="none" stroke="black" points="848,-36 540,-36 540,0 848,0 848,-36"/>
<text text-anchor="middle" x="694" y="-14.3" font-family="Times,serif" font-size="14.00">/req/obs&#45;cpt/gen/relatedObservation&#45;sem</text>
</g>
<!-- /req/obs&#45;basic/ObservationCollection -->
<g id="node10" class="node">
<title>/req/obs&#45;basic/ObservationCollection</title>
<polygon fill="none" stroke="black" points="3,-246 3,-267 319,-267 319,-246 3,-246"/>
<text text-anchor="start" x="30" y="-252.8" font-family="Times,serif" font-size="14.00">/req/obs&#45;basic/ObservationCollection</text>
<polygon fill="none" stroke="black" points="3,-223 3,-244 319,-244 319,-223 3,-223"/>
<text text-anchor="start" x="6" y="-229.8" font-family="Times,serif" font-size="14.00">Basic Observations &#45; ObservationCollection</text>
<polygon fill="none" stroke="black" points="3,-200 3,-221 319,-221 319,-200 3,-200"/>
<text text-anchor="start" x="111" y="-206.8" font-family="Times,serif" font-size="14.00">Logical model</text>
<polygon fill="none" stroke="black" points="0,-197.5 0,-270.5 322,-270.5 322,-197.5 0,-197.5"/>
</g>
<!-- /req/obs&#45;basic/ObservationCollection&#45;&gt;/req/obs&#45;basic/ObservationCollection/ObservationCollection&#45;sem -->
<g id="edge1" class="edge">
<title>/req/obs&#45;basic/ObservationCollection&#45;&gt;/req/obs&#45;basic/ObservationCollection/ObservationCollection&#45;sem</title>
<path fill="none" stroke="black" d="M200.26,-270.89C257.3,-325.89 358,-423 358,-423 358,-423 402.77,-426.61 459.58,-431.19"/>
<polygon fill="black" stroke="black" points="459.3,-434.68 469.55,-431.99 459.86,-427.7 459.3,-434.68"/>
</g>
<!-- /req/obs&#45;basic/ObservationCollection&#45;&gt;/req/obs&#45;basic/ObservationCollection/collectionType&#45;sem -->
<g id="edge2" class="edge">
<title>/req/obs&#45;basic/ObservationCollection&#45;&gt;/req/obs&#45;basic/ObservationCollection/collectionType&#45;sem</title>
<path fill="none" stroke="black" d="M215.04,-270.53C273.09,-310.51 358,-369 358,-369 358,-369 410.48,-373.23 473.91,-378.34"/>
<polygon fill="black" stroke="black" points="473.92,-381.85 484.17,-379.17 474.49,-374.88 473.92,-381.85"/>
</g>
<!-- /req/obs&#45;basic/ObservationCollection&#45;&gt;/req/obs&#45;basic/ObservationCollection/collectionType&#45;homogenous&#45;con -->
<g id="edge3" class="edge">
<title>/req/obs&#45;basic/ObservationCollection&#45;&gt;/req/obs&#45;basic/ObservationCollection/collectionType&#45;homogenous&#45;con</title>
<path fill="none" stroke="black" d="M250.54,-270.59C302.48,-292.06 358,-315 358,-315 358,-315 402.77,-318.61 459.58,-323.19"/>
<polygon fill="black" stroke="black" points="459.3,-326.68 469.55,-323.99 459.86,-319.7 459.3,-326.68"/>
</g>
<!-- /req/obs&#45;basic/ObservationCollection&#45;&gt;/req/obs&#45;basic/ObservationCollection/collectionType&#45;summarizing&#45;con -->
<g id="edge4" class="edge">
<title>/req/obs&#45;basic/ObservationCollection&#45;&gt;/req/obs&#45;basic/ObservationCollection/collectionType&#45;summarizing&#45;con</title>
<path fill="none" stroke="black" d="M322.05,-256.05C343.35,-258.98 358,-261 358,-261 358,-261 402.77,-264.61 459.58,-269.19"/>
<polygon fill="black" stroke="black" points="459.3,-272.68 469.55,-269.99 459.86,-265.7 459.3,-272.68"/>
</g>
<!-- /req/obs&#45;basic/ObservationCollection&#45;&gt;/req/obs&#45;basic/ObservationCollection/member&#45;sem -->
<g id="edge5" class="edge">
<title>/req/obs&#45;basic/ObservationCollection&#45;&gt;/req/obs&#45;basic/ObservationCollection/member&#45;sem</title>
<path fill="none" stroke="black" d="M322.04,-234C376.63,-234 438.32,-234 495.5,-234"/>
<polygon fill="black" stroke="black" points="495.75,-237.5 505.75,-234 495.75,-230.5 495.75,-237.5"/>
</g>
<!-- /req/obs&#45;basic/ObservationCollection&#45;&gt;/req/obs&#45;basic/ObservationCollection/memberCharacteristics&#45;sem -->
<g id="edge6" class="edge">
<title>/req/obs&#45;basic/ObservationCollection&#45;&gt;/req/obs&#45;basic/ObservationCollection/memberCharacteristics&#45;sem</title>
<path fill="none" stroke="black" d="M322.05,-211.95C343.35,-209.02 358,-207 358,-207 358,-207 402.77,-203.39 459.58,-198.81"/>
<polygon fill="black" stroke="black" points="459.86,-202.3 469.55,-198.01 459.3,-195.32 459.86,-202.3"/>
</g>
<!-- /req/obs&#45;basic/ObservationCollection&#45;&gt;/req/obs&#45;basic/ObservationCollection/relatedCollection&#45;sem -->
<g id="edge7" class="edge">
<title>/req/obs&#45;basic/ObservationCollection&#45;&gt;/req/obs&#45;basic/ObservationCollection/relatedCollection&#45;sem</title>
<path fill="none" stroke="black" d="M250.54,-197.41C302.48,-175.94 358,-153 358,-153 358,-153 405.06,-149.21 463.9,-144.46"/>
<polygon fill="black" stroke="black" points="464.54,-147.92 474.23,-143.63 463.98,-140.95 464.54,-147.92"/>
</g>
<!-- /req/obs&#45;basic/ObservationCollection&#45;&gt;/req/obs&#45;basic/ObservingCapability/CollectionTypeByMemberCharacteristicsSemantics&#45;sem -->
<g id="edge8" class="edge">
<title>/req/obs&#45;basic/ObservationCollection&#45;&gt;/req/obs&#45;basic/ObservingCapability/CollectionTypeByMemberCharacteristicsSemantics&#45;sem</title>
<path fill="none" stroke="black" d="M215.04,-197.47C273.09,-157.49 358,-99 358,-99 358,-99 402.77,-95.39 459.58,-90.81"/>
<polygon fill="black" stroke="black" points="459.86,-94.3 469.55,-90.01 459.3,-87.32 459.86,-94.3"/>
</g>
<!-- /req/obs&#45;basic/ObservationCollection&#45;&gt;/req/obs&#45;cpt/gen/relatedObservation&#45;sem -->
<g id="edge9" class="edge">
<title>/req/obs&#45;basic/ObservationCollection&#45;&gt;/req/obs&#45;cpt/gen/relatedObservation&#45;sem</title>
<path fill="none" stroke="black" d="M200.26,-197.11C257.3,-142.11 358,-45 358,-45 358,-45 444.52,-38.03 529.62,-31.17"/>
<polygon fill="black" stroke="black" points="530.03,-34.65 539.72,-30.35 529.47,-27.67 530.03,-34.65"/>
</g>
</g>
</svg>
