<?xml version="1.0" encoding="UTF-8" standalone="no"?>
<!DOCTYPE svg PUBLIC "-//W3C//DTD SVG 1.1//EN"
 "http://www.w3.org/Graphics/SVG/1.1/DTD/svg11.dtd">
<!-- Generated by graphviz version 2.43.0 (0)
 -->
<!-- Title: G Pages: 1 -->
<svg width="710pt" height="152pt"
 viewBox="0.00 0.00 710.00 152.00" xmlns="http://www.w3.org/2000/svg" xmlns:xlink="http://www.w3.org/1999/xlink">
<g id="graph0" class="graph" transform="scale(1 1) rotate(0) translate(4 148)">
<title>G</title>
<polygon fill="white" stroke="transparent" points="-4,4 -4,-148 706,-148 706,4 -4,4"/>
<!-- /req/sam&#45;basic/SampleCollection/SampleCollection&#45;sem -->
<g id="node1" class="node">
<title>/req/sam&#45;basic/SampleCollection/SampleCollection&#45;sem</title>
<polygon fill="none" stroke="black" points="702,-144 290,-144 290,-108 702,-108 702,-144"/>
<text text-anchor="middle" x="496" y="-122.3" font-family="Times,serif" font-size="14.00">/req/sam&#45;basic/SampleCollection/SampleCollection&#45;sem</text>
</g>
<!-- /req/sam&#45;basic/SampleCollection/member&#45;sem -->
<g id="node2" class="node">
<title>/req/sam&#45;basic/SampleCollection/member&#45;sem</title>
<polygon fill="none" stroke="black" points="669.5,-90 322.5,-90 322.5,-54 669.5,-54 669.5,-90"/>
<text text-anchor="middle" x="496" y="-68.3" font-family="Times,serif" font-size="14.00">/req/sam&#45;basic/SampleCollection/member&#45;sem</text>
</g>
<!-- /req/sam&#45;basic/SampleCollection/relatedCollection&#45;sem -->
<g id="node3" class="node">
<title>/req/sam&#45;basic/SampleCollection/relatedCollection&#45;sem</title>
<polygon fill="none" stroke="black" points="701,-36 291,-36 291,0 701,0 701,-36"/>
<text text-anchor="middle" x="496" y="-14.3" font-family="Times,serif" font-size="14.00">/req/sam&#45;basic/SampleCollection/relatedCollection&#45;sem</text>
</g>
<!-- /req/sam&#45;basic/SampleCollection -->
<g id="node4" class="node">
<title>/req/sam&#45;basic/SampleCollection</title>
<polygon fill="none" stroke="black" points="3,-84 3,-105 251,-105 251,-84 3,-84"/>
<text text-anchor="start" x="10.5" y="-90.8" font-family="Times,serif" font-size="14.00">/req/sam&#45;basic/SampleCollection</text>
<polygon fill="none" stroke="black" points="3,-61 3,-82 251,-82 251,-61 3,-61"/>
<text text-anchor="start" x="6" y="-67.8" font-family="Times,serif" font-size="14.00">Basic Samples &#45; SampleCollection</text>
<polygon fill="none" stroke="black" points="3,-38 3,-59 251,-59 251,-38 3,-38"/>
<text text-anchor="start" x="77" y="-44.8" font-family="Times,serif" font-size="14.00">Logical model</text>
<polygon fill="none" stroke="black" points="0,-35.5 0,-108.5 254,-108.5 254,-35.5 0,-35.5"/>
</g>
<!-- /req/sam&#45;basic/SampleCollection&#45;&gt;/req/sam&#45;basic/SampleCollection/SampleCollection&#45;sem -->
<g id="edge1" class="edge">
<title>/req/sam&#45;basic/SampleCollection&#45;&gt;/req/sam&#45;basic/SampleCollection/SampleCollection&#45;sem</title>
<path fill="none" stroke="black" d="M254.05,-93.01C274.96,-96.49 290,-99 290,-99 290,-99 315.4,-102.34 348.31,-106.68"/>
<polygon fill="black" stroke="black" points="347.89,-110.15 358.26,-107.99 348.8,-103.21 347.89,-110.15"/>
</g>
<!-- /req/sam&#45;basic/SampleCollection&#45;&gt;/req/sam&#45;basic/SampleCollection/member&#45;sem -->
<g id="edge2" class="edge">
<title>/req/sam&#45;basic/SampleCollection&#45;&gt;/req/sam&#45;basic/SampleCollection/member&#45;sem</title>
<path fill="none" stroke="black" d="M254.04,-72C272.77,-72 292.38,-72 311.98,-72"/>
<polygon fill="black" stroke="black" points="312.23,-75.5 322.23,-72 312.23,-68.5 312.23,-75.5"/>
</g>
<!-- /req/sam&#45;basic/SampleCollection&#45;&gt;/req/sam&#45;basic/SampleCollection/relatedCollection&#45;sem -->
<g id="edge3" class="edge">
<title>/req/sam&#45;basic/SampleCollection&#45;&gt;/req/sam&#45;basic/SampleCollection/relatedCollection&#45;sem</title>
<path fill="none" stroke="black" d="M254.05,-50.99C274.96,-47.51 290,-45 290,-45 290,-45 315.4,-41.66 348.31,-37.32"/>
<polygon fill="black" stroke="black" points="348.8,-40.79 358.26,-36.01 347.89,-33.85 348.8,-40.79"/>
</g>
</g>
</svg>
