<?xml version="1.0" encoding="UTF-8" standalone="no"?>
<!DOCTYPE svg PUBLIC "-//W3C//DTD SVG 1.1//EN"
 "http://www.w3.org/Graphics/SVG/1.1/DTD/svg11.dtd">
<!-- Generated by graphviz version 2.43.0 (0)
 -->
<!-- Title: G Pages: 1 -->
<svg width="2380pt" height="1089pt"
 viewBox="0.00 0.00 2380.00 1089.00" xmlns="http://www.w3.org/2000/svg" xmlns:xlink="http://www.w3.org/1999/xlink">
<g id="graph0" class="graph" transform="scale(1 1) rotate(0) translate(4 1085)">
<title>G</title>
<polygon fill="white" stroke="transparent" points="-4,4 -4,-1085 2376,-1085 2376,4 -4,4"/>
<!-- /req/obs&#45;basic/ObservingCapability/ObservingCapability&#45;sem -->
<g id="node1" class="node">
<title>/req/obs&#45;basic/ObservingCapability/ObservingCapability&#45;sem</title>
<polygon fill="none" stroke="black" points="797,-668 346,-668 346,-632 797,-632 797,-668"/>
<text text-anchor="middle" x="571.5" y="-646.3" font-family="Times,serif" font-size="14.00">/req/obs&#45;basic/ObservingCapability/ObservingCapability&#45;sem</text>
</g>
<!-- /req/obs&#45;core/AbstractObservationCharacteristics/AbstractObservationCharacteristics&#45;sem -->
<g id="node2" class="node">
<title>/req/obs&#45;core/AbstractObservationCharacteristics/AbstractObservationCharacteristics&#45;sem</title>
<polygon fill="none" stroke="black" points="2004,-1081 1339,-1081 1339,-1045 2004,-1045 2004,-1081"/>
<text text-anchor="middle" x="1671.5" y="-1059.3" font-family="Times,serif" font-size="14.00">/req/obs&#45;core/AbstractObservationCharacteristics/AbstractObservationCharacteristics&#45;sem</text>
</g>
<!-- /req/obs&#45;core/AbstractObservationCharacteristics/type&#45;sem -->
<g id="node3" class="node">
<title>/req/obs&#45;core/AbstractObservationCharacteristics/type&#45;sem</title>
<polygon fill="none" stroke="black" points="1891.5,-1027 1451.5,-1027 1451.5,-991 1891.5,-991 1891.5,-1027"/>
<text text-anchor="middle" x="1671.5" y="-1005.3" font-family="Times,serif" font-size="14.00">/req/obs&#45;core/AbstractObservationCharacteristics/type&#45;sem</text>
</g>
<!-- /req/obs&#45;core/AbstractObservationCharacteristics/parameter&#45;sem -->
<g id="node4" class="node">
<title>/req/obs&#45;core/AbstractObservationCharacteristics/parameter&#45;sem</title>
<polygon fill="none" stroke="black" points="1913.5,-973 1429.5,-973 1429.5,-937 1913.5,-937 1913.5,-973"/>
<text text-anchor="middle" x="1671.5" y="-951.3" font-family="Times,serif" font-size="14.00">/req/obs&#45;core/AbstractObservationCharacteristics/parameter&#45;sem</text>
</g>
<!-- /req/obs&#45;core/AbstractObservationCharacteristics/resultQuality&#45;sem -->
<g id="node5" class="node">
<title>/req/obs&#45;core/AbstractObservationCharacteristics/resultQuality&#45;sem</title>
<polygon fill="none" stroke="black" points="1923,-919 1420,-919 1420,-883 1923,-883 1923,-919"/>
<text text-anchor="middle" x="1671.5" y="-897.3" font-family="Times,serif" font-size="14.00">/req/obs&#45;core/AbstractObservationCharacteristics/resultQuality&#45;sem</text>
</g>
<!-- /req/obs&#45;cpt/Observation/phenomenonTime&#45;sem -->
<g id="node6" class="node">
<title>/req/obs&#45;cpt/Observation/phenomenonTime&#45;sem</title>
<polygon fill="none" stroke="black" points="1850.5,-865 1492.5,-865 1492.5,-829 1850.5,-829 1850.5,-865"/>
<text text-anchor="middle" x="1671.5" y="-843.3" font-family="Times,serif" font-size="14.00">/req/obs&#45;cpt/Observation/phenomenonTime&#45;sem</text>
</g>
<!-- /req/obs&#45;cpt/Observation/resultTime&#45;sem -->
<g id="node7" class="node">
<title>/req/obs&#45;cpt/Observation/resultTime&#45;sem</title>
<polygon fill="none" stroke="black" points="1825.5,-811 1517.5,-811 1517.5,-775 1825.5,-775 1825.5,-811"/>
<text text-anchor="middle" x="1671.5" y="-789.3" font-family="Times,serif" font-size="14.00">/req/obs&#45;cpt/Observation/resultTime&#45;sem</text>
</g>
<!-- /req/obs&#45;cpt/Observation/validTime&#45;sem -->
<g id="node8" class="node">
<title>/req/obs&#45;cpt/Observation/validTime&#45;sem</title>
<polygon fill="none" stroke="black" points="1822,-757 1521,-757 1521,-721 1822,-721 1822,-757"/>
<text text-anchor="middle" x="1671.5" y="-735.3" font-family="Times,serif" font-size="14.00">/req/obs&#45;cpt/Observation/validTime&#45;sem</text>
</g>
<!-- /req/obs&#45;cpt/Observation/featureOfInterest&#45;sem -->
<g id="node9" class="node">
<title>/req/obs&#45;cpt/Observation/featureOfInterest&#45;sem</title>
<polygon fill="none" stroke="black" points="1849.5,-703 1493.5,-703 1493.5,-667 1849.5,-667 1849.5,-703"/>
<text text-anchor="middle" x="1671.5" y="-681.3" font-family="Times,serif" font-size="14.00">/req/obs&#45;cpt/Observation/featureOfInterest&#45;sem</text>
</g>
<!-- /req/obs&#45;core/AbstractObservationCharacteristics/pFoI&#45;sem -->
<g id="node10" class="node">
<title>/req/obs&#45;core/AbstractObservationCharacteristics/pFoI&#45;sem</title>
<polygon fill="none" stroke="black" points="1891.5,-649 1451.5,-649 1451.5,-613 1891.5,-613 1891.5,-649"/>
<text text-anchor="middle" x="1671.5" y="-627.3" font-family="Times,serif" font-size="14.00">/req/obs&#45;core/AbstractObservationCharacteristics/pFoI&#45;sem</text>
</g>
<!-- /req/obs&#45;core/AbstractObservationCharacteristics/uFoI&#45;sem -->
<g id="node11" class="node">
<title>/req/obs&#45;core/AbstractObservationCharacteristics/uFoI&#45;sem</title>
<polygon fill="none" stroke="black" points="1891.5,-595 1451.5,-595 1451.5,-559 1891.5,-559 1891.5,-595"/>
<text text-anchor="middle" x="1671.5" y="-573.3" font-family="Times,serif" font-size="14.00">/req/obs&#45;core/AbstractObservationCharacteristics/uFoI&#45;sem</text>
</g>
<!-- /req/obs&#45;cpt/Observation/observedProperty&#45;sem -->
<g id="node12" class="node">
<title>/req/obs&#45;cpt/Observation/observedProperty&#45;sem</title>
<polygon fill="none" stroke="black" points="1851,-541 1492,-541 1492,-505 1851,-505 1851,-541"/>
<text text-anchor="middle" x="1671.5" y="-519.3" font-family="Times,serif" font-size="14.00">/req/obs&#45;cpt/Observation/observedProperty&#45;sem</text>
</g>
<!-- /req/obs&#45;cpt/Observation/result&#45;sem -->
<g id="node13" class="node">
<title>/req/obs&#45;cpt/Observation/result&#45;sem</title>
<polygon fill="none" stroke="black" points="1808,-487 1535,-487 1535,-451 1808,-451 1808,-487"/>
<text text-anchor="middle" x="1671.5" y="-465.3" font-family="Times,serif" font-size="14.00">/req/obs&#45;cpt/Observation/result&#45;sem</text>
</g>
<!-- /req/obs&#45;cpt/Observation/procedure&#45;sem -->
<g id="node14" class="node">
<title>/req/obs&#45;cpt/Observation/procedure&#45;sem</title>
<polygon fill="none" stroke="black" points="1823.5,-433 1519.5,-433 1519.5,-397 1823.5,-397 1823.5,-433"/>
<text text-anchor="middle" x="1671.5" y="-411.3" font-family="Times,serif" font-size="14.00">/req/obs&#45;cpt/Observation/procedure&#45;sem</text>
</g>
<!-- /req/obs&#45;cpt/Observation/observer&#45;sem -->
<g id="node15" class="node">
<title>/req/obs&#45;cpt/Observation/observer&#45;sem</title>
<polygon fill="none" stroke="black" points="1818.5,-379 1524.5,-379 1524.5,-343 1818.5,-343 1818.5,-379"/>
<text text-anchor="middle" x="1671.5" y="-357.3" font-family="Times,serif" font-size="14.00">/req/obs&#45;cpt/Observation/observer&#45;sem</text>
</g>
<!-- /req/obs&#45;cpt/Observation/host&#45;sem -->
<g id="node16" class="node">
<title>/req/obs&#45;cpt/Observation/host&#45;sem</title>
<polygon fill="none" stroke="black" points="1802.5,-325 1540.5,-325 1540.5,-289 1802.5,-289 1802.5,-325"/>
<text text-anchor="middle" x="1671.5" y="-303.3" font-family="Times,serif" font-size="14.00">/req/obs&#45;cpt/Observation/host&#45;sem</text>
</g>
<!-- /req/obs&#45;cpt/gen/relatedObservation&#45;sem -->
<g id="node17" class="node">
<title>/req/obs&#45;cpt/gen/relatedObservation&#45;sem</title>
<polygon fill="none" stroke="black" points="1825.5,-271 1517.5,-271 1517.5,-235 1825.5,-235 1825.5,-271"/>
<text text-anchor="middle" x="1671.5" y="-249.3" font-family="Times,serif" font-size="14.00">/req/obs&#45;cpt/gen/relatedObservation&#45;sem</text>
</g>
<!-- /req/obs&#45;core/gen/metadata&#45;sem -->
<g id="node18" class="node">
<title>/req/obs&#45;core/gen/metadata&#45;sem</title>
<polygon fill="none" stroke="black" points="1794.5,-217 1548.5,-217 1548.5,-181 1794.5,-181 1794.5,-217"/>
<text text-anchor="middle" x="1671.5" y="-195.3" font-family="Times,serif" font-size="14.00">/req/obs&#45;core/gen/metadata&#45;sem</text>
</g>
<!-- /req/obs&#45;core/NamedValue/NamedValue&#45;sem -->
<g id="node19" class="node">
<title>/req/obs&#45;core/NamedValue/NamedValue&#45;sem</title>
<polygon fill="none" stroke="black" points="2372,-144 2040,-144 2040,-108 2372,-108 2372,-144"/>
<text text-anchor="middle" x="2206" y="-122.3" font-family="Times,serif" font-size="14.00">/req/obs&#45;core/NamedValue/NamedValue&#45;sem</text>
</g>
<!-- /req/obs&#45;core/NamedValue/name&#45;sem -->
<g id="node20" class="node">
<title>/req/obs&#45;core/NamedValue/name&#45;sem</title>
<polygon fill="none" stroke="black" points="2346.5,-90 2065.5,-90 2065.5,-54 2346.5,-54 2346.5,-90"/>
<text text-anchor="middle" x="2206" y="-68.3" font-family="Times,serif" font-size="14.00">/req/obs&#45;core/NamedValue/name&#45;sem</text>
</g>
<!-- /req/obs&#45;core/NamedValue/value&#45;sem -->
<g id="node21" class="node">
<title>/req/obs&#45;core/NamedValue/value&#45;sem</title>
<polygon fill="none" stroke="black" points="2346.5,-36 2065.5,-36 2065.5,0 2346.5,0 2346.5,-36"/>
<text text-anchor="middle" x="2206" y="-14.3" font-family="Times,serif" font-size="14.00">/req/obs&#45;core/NamedValue/value&#45;sem</text>
</g>
<!-- /rec/obs&#45;core/AbstractObservationCharacteristics/uFoI -->
<g id="node22" class="node">
<title>/rec/obs&#45;core/AbstractObservationCharacteristics/uFoI</title>
<polygon fill="none" stroke="black" stroke-dasharray="1,5" points="1874,-163 1469,-163 1469,-127 1874,-127 1874,-163"/>
<text text-anchor="middle" x="1671.5" y="-141.3" font-family="Times,serif" font-size="14.00">/rec/obs&#45;core/AbstractObservationCharacteristics/uFoI</text>
</g>
<!-- /req/obs&#45;basic/ObservingCapability -->
<g id="node23" class="node">
<title>/req/obs&#45;basic/ObservingCapability</title>
<polygon fill="none" stroke="black" points="3,-625 3,-646 307,-646 307,-625 3,-625"/>
<text text-anchor="start" x="30" y="-631.8" font-family="Times,serif" font-size="14.00">/req/obs&#45;basic/ObservingCapability</text>
<polygon fill="none" stroke="black" points="3,-602 3,-623 307,-623 307,-602 3,-602"/>
<text text-anchor="start" x="6" y="-608.8" font-family="Times,serif" font-size="14.00">Basic Observations &#45; ObservingCapability</text>
<polygon fill="none" stroke="black" points="3,-579 3,-600 307,-600 307,-579 3,-579"/>
<text text-anchor="start" x="105" y="-585.8" font-family="Times,serif" font-size="14.00">Logical model</text>
<polygon fill="none" stroke="black" points="0,-576.5 0,-649.5 310,-649.5 310,-576.5 0,-576.5"/>
</g>
<!-- /req/obs&#45;basic/ObservingCapability&#45;&gt;/req/obs&#45;basic/ObservingCapability/ObservingCapability&#45;sem -->
<g id="edge1" class="edge">
<title>/req/obs&#45;basic/ObservingCapability&#45;&gt;/req/obs&#45;basic/ObservingCapability/ObservingCapability&#45;sem</title>
<path fill="none" stroke="black" d="M310.05,-626.75C325.88,-628.16 342.15,-629.62 358.46,-631.07"/>
<polygon fill="black" stroke="black" points="358.35,-634.58 368.62,-631.98 358.97,-627.6 358.35,-634.58"/>
</g>
<!-- /req/obs&#45;basic/ObservationCharacteristics -->
<g id="node24" class="node">
<title>/req/obs&#45;basic/ObservationCharacteristics</title>
<polygon fill="none" stroke="black" points="395.5,-589 395.5,-610 748.5,-610 748.5,-589 395.5,-589"/>
<text text-anchor="start" x="422" y="-595.8" font-family="Times,serif" font-size="14.00">/req/obs&#45;basic/ObservationCharacteristics</text>
<polygon fill="none" stroke="black" points="395.5,-566 395.5,-587 748.5,-587 748.5,-566 395.5,-566"/>
<text text-anchor="start" x="398.5" y="-572.8" font-family="Times,serif" font-size="14.00">Basic Observations &#45; ObservationCharacteristics</text>
<polygon fill="none" stroke="black" points="395.5,-543 395.5,-564 748.5,-564 748.5,-543 395.5,-543"/>
<text text-anchor="start" x="522" y="-549.8" font-family="Times,serif" font-size="14.00">Logical model</text>
<polygon fill="none" stroke="black" points="392,-540.5 392,-613.5 751,-613.5 751,-540.5 392,-540.5"/>
</g>
<!-- /req/obs&#45;basic/ObservingCapability&#45;&gt;/req/obs&#45;basic/ObservationCharacteristics -->
<g id="edge2" class="edge">
<title>/req/obs&#45;basic/ObservingCapability&#45;&gt;/req/obs&#45;basic/ObservationCharacteristics</title>
<path fill="none" stroke="black" stroke-dasharray="5,2" d="M310.05,-599.62C333.32,-597.6 357.56,-595.49 381.46,-593.42"/>
<polygon fill="black" stroke="black" points="382.03,-596.88 391.69,-592.53 381.42,-589.91 382.03,-596.88"/>
</g>
<!-- /req/obs&#45;core/AbstractObservationCharacteristics -->
<g id="node25" class="node">
<title>/req/obs&#45;core/AbstractObservationCharacteristics</title>
<polygon fill="none" stroke="black" points="836,-589 836,-610 1300,-610 1300,-589 836,-589"/>
<text text-anchor="start" x="890.5" y="-595.8" font-family="Times,serif" font-size="14.00">/req/obs&#45;core/AbstractObservationCharacteristics</text>
<polygon fill="none" stroke="black" points="836,-566 836,-587 1300,-587 1300,-566 836,-566"/>
<text text-anchor="start" x="839" y="-572.8" font-family="Times,serif" font-size="14.00">Abstract Observation core &#45; AbstractObservationCharacteristics</text>
<polygon fill="none" stroke="black" points="836,-543 836,-564 1300,-564 1300,-543 836,-543"/>
<text text-anchor="start" x="1018" y="-549.8" font-family="Times,serif" font-size="14.00">Logical model</text>
<polygon fill="none" stroke="black" points="833,-540.5 833,-613.5 1303,-613.5 1303,-540.5 833,-540.5"/>
</g>
<!-- /req/obs&#45;basic/ObservationCharacteristics&#45;&gt;/req/obs&#45;core/AbstractObservationCharacteristics -->
<g id="edge3" class="edge">
<title>/req/obs&#45;basic/ObservationCharacteristics&#45;&gt;/req/obs&#45;core/AbstractObservationCharacteristics</title>
<path fill="none" stroke="black" stroke-dasharray="5,2" d="M751.03,-577C774.26,-577 798.38,-577 822.47,-577"/>
<polygon fill="black" stroke="black" points="822.78,-580.5 832.78,-577 822.78,-573.5 822.78,-580.5"/>
</g>
<!-- /req/obs&#45;core/AbstractObservationCharacteristics&#45;&gt;/req/obs&#45;core/AbstractObservationCharacteristics/AbstractObservationCharacteristics&#45;sem -->
<g id="edge4" class="edge">
<title>/req/obs&#45;core/AbstractObservationCharacteristics&#45;&gt;/req/obs&#45;core/AbstractObservationCharacteristics/AbstractObservationCharacteristics&#45;sem</title>
<path fill="none" stroke="black" d="M1090.64,-613.79C1154.71,-722.7 1339,-1036 1339,-1036 1339,-1036 1383.12,-1039.59 1439.17,-1044.16"/>
<polygon fill="black" stroke="black" points="1439.13,-1047.67 1449.38,-1044.99 1439.7,-1040.69 1439.13,-1047.67"/>
</g>
<!-- /req/obs&#45;core/AbstractObservationCharacteristics&#45;&gt;/req/obs&#45;core/AbstractObservationCharacteristics/type&#45;sem -->
<g id="edge5" class="edge">
<title>/req/obs&#45;core/AbstractObservationCharacteristics&#45;&gt;/req/obs&#45;core/AbstractObservationCharacteristics/type&#45;sem</title>
<path fill="none" stroke="black" d="M1093.44,-613.66C1159.9,-713.35 1339,-982 1339,-982 1339,-982 1384.2,-985.68 1441.22,-990.33"/>
<polygon fill="black" stroke="black" points="1440.98,-993.82 1451.23,-991.14 1441.55,-986.84 1440.98,-993.82"/>
</g>
<!-- /req/obs&#45;core/AbstractObservationCharacteristics&#45;&gt;/req/obs&#45;core/AbstractObservationCharacteristics/parameter&#45;sem -->
<g id="edge6" class="edge">
<title>/req/obs&#45;core/AbstractObservationCharacteristics&#45;&gt;/req/obs&#45;core/AbstractObservationCharacteristics/parameter&#45;sem</title>
<path fill="none" stroke="black" d="M1097.13,-613.57C1166.28,-703.47 1339,-928 1339,-928 1339,-928 1383.12,-931.59 1439.17,-936.16"/>
<polygon fill="black" stroke="black" points="1439.13,-939.67 1449.38,-936.99 1439.7,-932.69 1439.13,-939.67"/>
</g>
<!-- /req/obs&#45;core/AbstractObservationCharacteristics&#45;&gt;/req/obs&#45;core/AbstractObservationCharacteristics/resultQuality&#45;sem -->
<g id="edge7" class="edge">
<title>/req/obs&#45;core/AbstractObservationCharacteristics&#45;&gt;/req/obs&#45;core/AbstractObservationCharacteristics/resultQuality&#45;sem</title>
<path fill="none" stroke="black" d="M1102.38,-613.72C1174.62,-693.18 1339,-874 1339,-874 1339,-874 1383.12,-877.59 1439.17,-882.16"/>
<polygon fill="black" stroke="black" points="1439.13,-885.67 1449.38,-882.99 1439.7,-878.69 1439.13,-885.67"/>
</g>
<!-- /req/obs&#45;core/AbstractObservationCharacteristics&#45;&gt;/req/obs&#45;cpt/Observation/phenomenonTime&#45;sem -->
<g id="edge8" class="edge">
<title>/req/obs&#45;core/AbstractObservationCharacteristics&#45;&gt;/req/obs&#45;cpt/Observation/phenomenonTime&#45;sem</title>
<path fill="none" stroke="black" d="M1109.71,-613.64C1185.14,-681.53 1339,-820 1339,-820 1339,-820 1407.39,-825.57 1482.05,-831.65"/>
<polygon fill="black" stroke="black" points="1481.88,-835.15 1492.14,-832.47 1482.45,-828.17 1481.88,-835.15"/>
</g>
<!-- /req/obs&#45;core/AbstractObservationCharacteristics&#45;&gt;/req/obs&#45;cpt/Observation/resultTime&#45;sem -->
<g id="edge9" class="edge">
<title>/req/obs&#45;core/AbstractObservationCharacteristics&#45;&gt;/req/obs&#45;cpt/Observation/resultTime&#45;sem</title>
<path fill="none" stroke="black" d="M1121.38,-613.67C1199.9,-668.63 1339,-766 1339,-766 1339,-766 1423.5,-772.88 1507.17,-779.7"/>
<polygon fill="black" stroke="black" points="1507.11,-783.2 1517.36,-780.53 1507.68,-776.23 1507.11,-783.2"/>
</g>
<!-- /req/obs&#45;core/AbstractObservationCharacteristics&#45;&gt;/req/obs&#45;cpt/Observation/validTime&#45;sem -->
<g id="edge10" class="edge">
<title>/req/obs&#45;core/AbstractObservationCharacteristics&#45;&gt;/req/obs&#45;cpt/Observation/validTime&#45;sem</title>
<path fill="none" stroke="black" d="M1142.07,-613.53C1222.03,-653.51 1339,-712 1339,-712 1339,-712 1425.89,-719.08 1510.69,-725.98"/>
<polygon fill="black" stroke="black" points="1510.5,-729.48 1520.75,-726.8 1511.07,-722.5 1510.5,-729.48"/>
</g>
<!-- /req/obs&#45;core/AbstractObservationCharacteristics&#45;&gt;/req/obs&#45;cpt/Observation/featureOfInterest&#45;sem -->
<g id="edge11" class="edge">
<title>/req/obs&#45;core/AbstractObservationCharacteristics&#45;&gt;/req/obs&#45;cpt/Observation/featureOfInterest&#45;sem</title>
<path fill="none" stroke="black" d="M1190.97,-613.59C1262.52,-635.06 1339,-658 1339,-658 1339,-658 1407.96,-663.62 1482.97,-669.73"/>
<polygon fill="black" stroke="black" points="1482.85,-673.23 1493.1,-670.55 1483.42,-666.25 1482.85,-673.23"/>
</g>
<!-- /req/obs&#45;core/AbstractObservationCharacteristics&#45;&gt;/req/obs&#45;core/AbstractObservationCharacteristics/pFoI&#45;sem -->
<g id="edge12" class="edge">
<title>/req/obs&#45;core/AbstractObservationCharacteristics&#45;&gt;/req/obs&#45;core/AbstractObservationCharacteristics/pFoI&#45;sem</title>
<path fill="none" stroke="black" d="M1303.15,-600.41C1324.9,-602.59 1339,-604 1339,-604 1339,-604 1384.2,-607.68 1441.22,-612.33"/>
<polygon fill="black" stroke="black" points="1440.98,-615.82 1451.23,-613.14 1441.55,-608.84 1440.98,-615.82"/>
</g>
<!-- /req/obs&#45;core/AbstractObservationCharacteristics&#45;&gt;/req/obs&#45;core/AbstractObservationCharacteristics/uFoI&#45;sem -->
<g id="edge13" class="edge">
<title>/req/obs&#45;core/AbstractObservationCharacteristics&#45;&gt;/req/obs&#45;core/AbstractObservationCharacteristics/uFoI&#45;sem</title>
<path fill="none" stroke="black" d="M1303.28,-577C1348.51,-577 1395.86,-577 1440.94,-577"/>
<polygon fill="black" stroke="black" points="1441.13,-580.5 1451.13,-577 1441.13,-573.5 1441.13,-580.5"/>
</g>
<!-- /req/obs&#45;core/AbstractObservationCharacteristics&#45;&gt;/req/obs&#45;cpt/Observation/observedProperty&#45;sem -->
<g id="edge14" class="edge">
<title>/req/obs&#45;core/AbstractObservationCharacteristics&#45;&gt;/req/obs&#45;cpt/Observation/observedProperty&#45;sem</title>
<path fill="none" stroke="black" d="M1303.15,-553.59C1324.9,-551.41 1339,-550 1339,-550 1339,-550 1407.11,-544.45 1481.59,-538.39"/>
<polygon fill="black" stroke="black" points="1481.97,-541.87 1491.65,-537.57 1481.4,-534.89 1481.97,-541.87"/>
</g>
<!-- /req/obs&#45;core/AbstractObservationCharacteristics&#45;&gt;/req/obs&#45;cpt/Observation/result&#45;sem -->
<g id="edge15" class="edge">
<title>/req/obs&#45;core/AbstractObservationCharacteristics&#45;&gt;/req/obs&#45;cpt/Observation/result&#45;sem</title>
<path fill="none" stroke="black" d="M1190.97,-540.41C1262.52,-518.94 1339,-496 1339,-496 1339,-496 1435.77,-488.12 1524.74,-480.87"/>
<polygon fill="black" stroke="black" points="1525.03,-484.36 1534.71,-480.06 1524.46,-477.38 1525.03,-484.36"/>
</g>
<!-- /req/obs&#45;core/AbstractObservationCharacteristics&#45;&gt;/req/obs&#45;cpt/Observation/procedure&#45;sem -->
<g id="edge16" class="edge">
<title>/req/obs&#45;core/AbstractObservationCharacteristics&#45;&gt;/req/obs&#45;cpt/Observation/procedure&#45;sem</title>
<path fill="none" stroke="black" d="M1142.07,-540.47C1222.03,-500.49 1339,-442 1339,-442 1339,-442 1424.93,-435 1509.29,-428.13"/>
<polygon fill="black" stroke="black" points="1509.62,-431.62 1519.3,-427.31 1509.05,-424.64 1509.62,-431.62"/>
</g>
<!-- /req/obs&#45;core/AbstractObservationCharacteristics&#45;&gt;/req/obs&#45;cpt/Observation/observer&#45;sem -->
<g id="edge17" class="edge">
<title>/req/obs&#45;core/AbstractObservationCharacteristics&#45;&gt;/req/obs&#45;cpt/Observation/observer&#45;sem</title>
<path fill="none" stroke="black" d="M1121.38,-540.33C1199.9,-485.37 1339,-388 1339,-388 1339,-388 1428.13,-380.74 1513.96,-373.75"/>
<polygon fill="black" stroke="black" points="1514.45,-377.22 1524.13,-372.92 1513.88,-370.24 1514.45,-377.22"/>
</g>
<!-- /req/obs&#45;core/AbstractObservationCharacteristics&#45;&gt;/req/obs&#45;cpt/Observation/host&#45;sem -->
<g id="edge18" class="edge">
<title>/req/obs&#45;core/AbstractObservationCharacteristics&#45;&gt;/req/obs&#45;cpt/Observation/host&#45;sem</title>
<path fill="none" stroke="black" d="M1109.71,-540.36C1185.14,-472.47 1339,-334 1339,-334 1339,-334 1439.86,-325.79 1530.31,-318.42"/>
<polygon fill="black" stroke="black" points="1530.75,-321.89 1540.43,-317.59 1530.18,-314.92 1530.75,-321.89"/>
</g>
<!-- /req/obs&#45;core/AbstractObservationCharacteristics&#45;&gt;/req/obs&#45;cpt/gen/relatedObservation&#45;sem -->
<g id="edge19" class="edge">
<title>/req/obs&#45;core/AbstractObservationCharacteristics&#45;&gt;/req/obs&#45;cpt/gen/relatedObservation&#45;sem</title>
<path fill="none" stroke="black" d="M1102.38,-540.28C1174.62,-460.82 1339,-280 1339,-280 1339,-280 1423.5,-273.12 1507.17,-266.3"/>
<polygon fill="black" stroke="black" points="1507.68,-269.77 1517.36,-265.47 1507.11,-262.8 1507.68,-269.77"/>
</g>
<!-- /req/obs&#45;core/AbstractObservationCharacteristics&#45;&gt;/req/obs&#45;core/gen/metadata&#45;sem -->
<g id="edge20" class="edge">
<title>/req/obs&#45;core/AbstractObservationCharacteristics&#45;&gt;/req/obs&#45;core/gen/metadata&#45;sem</title>
<path fill="none" stroke="black" d="M1097.13,-540.43C1166.28,-450.53 1339,-226 1339,-226 1339,-226 1446.01,-217.28 1538.43,-209.76"/>
<polygon fill="black" stroke="black" points="1538.79,-213.24 1548.47,-208.94 1538.22,-206.26 1538.79,-213.24"/>
</g>
<!-- /req/obs&#45;core/AbstractObservationCharacteristics&#45;&gt;/rec/obs&#45;core/AbstractObservationCharacteristics/uFoI -->
<g id="edge21" class="edge">
<title>/req/obs&#45;core/AbstractObservationCharacteristics&#45;&gt;/rec/obs&#45;core/AbstractObservationCharacteristics/uFoI</title>
<path fill="none" stroke="black" stroke-dasharray="1,5" d="M1093.44,-540.34C1159.9,-440.65 1339,-172 1339,-172 1339,-172 1393.62,-167.55 1458.52,-162.27"/>
<polygon fill="black" stroke="black" points="1458.91,-165.75 1468.59,-161.45 1458.34,-158.77 1458.91,-165.75"/>
</g>
<!-- /req/obs&#45;core/NamedValue -->
<g id="node26" class="node">
<title>/req/obs&#45;core/NamedValue</title>
<polygon fill="none" stroke="black" points="1522.5,-84 1522.5,-105 1820.5,-105 1820.5,-84 1522.5,-84"/>
<text text-anchor="start" x="1577.5" y="-90.8" font-family="Times,serif" font-size="14.00">/req/obs&#45;core/NamedValue</text>
<polygon fill="none" stroke="black" points="1522.5,-61 1522.5,-82 1820.5,-82 1820.5,-61 1522.5,-61"/>
<text text-anchor="start" x="1525.5" y="-67.8" font-family="Times,serif" font-size="14.00">Abstract Observation core &#45; NamedValue</text>
<polygon fill="none" stroke="black" points="1522.5,-38 1522.5,-59 1820.5,-59 1820.5,-38 1522.5,-38"/>
<text text-anchor="start" x="1621.5" y="-44.8" font-family="Times,serif" font-size="14.00">Logical model</text>
<polygon fill="none" stroke="black" points="1519.5,-35.5 1519.5,-108.5 1823.5,-108.5 1823.5,-35.5 1519.5,-35.5"/>
</g>
<!-- /req/obs&#45;core/AbstractObservationCharacteristics&#45;&gt;/req/obs&#45;core/NamedValue -->
<g id="edge22" class="edge">
<title>/req/obs&#45;core/AbstractObservationCharacteristics&#45;&gt;/req/obs&#45;core/NamedValue</title>
<path fill="none" stroke="black" stroke-dasharray="5,2" d="M1090.64,-540.21C1154.71,-431.3 1339,-118 1339,-118 1339,-118 1424.93,-106.08 1509.29,-94.37"/>
<polygon fill="black" stroke="black" points="1509.88,-97.82 1519.3,-92.98 1508.92,-90.89 1509.88,-97.82"/>
</g>
<!-- /req/obs&#45;core/NamedValue&#45;&gt;/req/obs&#45;core/NamedValue/NamedValue&#45;sem -->
<g id="edge23" class="edge">
<title>/req/obs&#45;core/NamedValue&#45;&gt;/req/obs&#45;core/NamedValue/NamedValue&#45;sem</title>
<path fill="none" stroke="black" d="M1823.67,-87.33C1887.87,-93.84 1963.11,-101.47 2029.73,-108.23"/>
<polygon fill="black" stroke="black" points="2029.61,-111.73 2039.92,-109.26 2030.32,-104.77 2029.61,-111.73"/>
</g>
<!-- /req/obs&#45;core/NamedValue&#45;&gt;/req/obs&#45;core/NamedValue/name&#45;sem -->
<g id="edge24" class="edge">
<title>/req/obs&#45;core/NamedValue&#45;&gt;/req/obs&#45;core/NamedValue/name&#45;sem</title>
<path fill="none" stroke="black" d="M1823.67,-72C1896.2,-72 1982.85,-72 2055.21,-72"/>
<polygon fill="black" stroke="black" points="2055.32,-75.5 2065.32,-72 2055.32,-68.5 2055.32,-75.5"/>
</g>
<!-- /req/obs&#45;core/NamedValue&#45;&gt;/req/obs&#45;core/NamedValue/value&#45;sem -->
<g id="edge25" class="edge">
<title>/req/obs&#45;core/NamedValue&#45;&gt;/req/obs&#45;core/NamedValue/value&#45;sem</title>
<path fill="none" stroke="black" d="M1823.67,-56.67C1896.2,-49.31 1982.85,-40.53 2055.21,-33.19"/>
<polygon fill="black" stroke="black" points="2055.72,-36.66 2065.32,-32.16 2055.02,-29.69 2055.72,-36.66"/>
</g>
</g>
</svg>
