<?xml version="1.0" encoding="UTF-8" standalone="no"?>
<!DOCTYPE svg PUBLIC "-//W3C//DTD SVG 1.1//EN"
 "http://www.w3.org/Graphics/SVG/1.1/DTD/svg11.dtd">
<!-- Generated by graphviz version 2.43.0 (0)
 -->
<!-- Title: G Pages: 1 -->
<svg width="1154pt" height="576pt"
 viewBox="0.00 0.00 1154.00 576.00" xmlns="http://www.w3.org/2000/svg" xmlns:xlink="http://www.w3.org/1999/xlink">
<g id="graph0" class="graph" transform="scale(1 1) rotate(0) translate(4 572)">
<title>G</title>
<polygon fill="white" stroke="transparent" points="-4,4 -4,-572 1150,-572 1150,4 -4,4"/>
<!-- /req/sam&#45;core/AbstractSampling/samplingLocation&#45;sem -->
<g id="node1" class="node">
<title>/req/sam&#45;core/AbstractSampling/samplingLocation&#45;sem</title>
<polygon fill="none" stroke="black" points="755,-568 344,-568 344,-532 755,-532 755,-568"/>
<text text-anchor="middle" x="549.5" y="-546.3" font-family="Times,serif" font-size="14.00">/req/sam&#45;core/AbstractSampling/samplingLocation&#45;sem</text>
</g>
<!-- /req/sam&#45;core/AbstractSampling/time&#45;sem -->
<g id="node2" class="node">
<title>/req/sam&#45;core/AbstractSampling/time&#45;sem</title>
<polygon fill="none" stroke="black" points="708,-514 391,-514 391,-478 708,-478 708,-514"/>
<text text-anchor="middle" x="549.5" y="-492.3" font-family="Times,serif" font-size="14.00">/req/sam&#45;core/AbstractSampling/time&#45;sem</text>
</g>
<!-- /req/sam&#45;core/AbstractSampling/parameter&#45;sem -->
<g id="node3" class="node">
<title>/req/sam&#45;core/AbstractSampling/parameter&#45;sem</title>
<polygon fill="none" stroke="black" points="729.5,-460 369.5,-460 369.5,-424 729.5,-424 729.5,-460"/>
<text text-anchor="middle" x="549.5" y="-438.3" font-family="Times,serif" font-size="14.00">/req/sam&#45;core/AbstractSampling/parameter&#45;sem</text>
</g>
<!-- /req/obs&#45;core/gen/metadata&#45;sem -->
<g id="node4" class="node">
<title>/req/obs&#45;core/gen/metadata&#45;sem</title>
<polygon fill="none" stroke="black" points="672.5,-406 426.5,-406 426.5,-370 672.5,-370 672.5,-406"/>
<text text-anchor="middle" x="549.5" y="-384.3" font-family="Times,serif" font-size="14.00">/req/obs&#45;core/gen/metadata&#45;sem</text>
</g>
<!-- /req/sam&#45;cpt/Sampling/Sampling&#45;sem -->
<g id="node5" class="node">
<title>/req/sam&#45;cpt/Sampling/Sampling&#45;sem</title>
<polygon fill="none" stroke="black" points="1110.5,-522 826.5,-522 826.5,-486 1110.5,-486 1110.5,-522"/>
<text text-anchor="middle" x="968.5" y="-500.3" font-family="Times,serif" font-size="14.00">/req/sam&#45;cpt/Sampling/Sampling&#45;sem</text>
</g>
<!-- /req/sam&#45;cpt/Sampling/sample&#45;sem -->
<g id="node6" class="node">
<title>/req/sam&#45;cpt/Sampling/sample&#45;sem</title>
<polygon fill="none" stroke="black" points="1102,-468 835,-468 835,-432 1102,-432 1102,-468"/>
<text text-anchor="middle" x="968.5" y="-446.3" font-family="Times,serif" font-size="14.00">/req/sam&#45;cpt/Sampling/sample&#45;sem</text>
</g>
<!-- /req/sam&#45;cpt/Sampling/featureOfInterest&#45;sem -->
<g id="node7" class="node">
<title>/req/sam&#45;cpt/Sampling/featureOfInterest&#45;sem</title>
<polygon fill="none" stroke="black" points="1139,-414 798,-414 798,-378 1139,-378 1139,-414"/>
<text text-anchor="middle" x="968.5" y="-392.3" font-family="Times,serif" font-size="14.00">/req/sam&#45;cpt/Sampling/featureOfInterest&#45;sem</text>
</g>
<!-- /req/sam&#45;cpt/Sampling/featureOfInterest&#45;card -->
<g id="node8" class="node">
<title>/req/sam&#45;cpt/Sampling/featureOfInterest&#45;card</title>
<polygon fill="none" stroke="black" points="1140.5,-360 796.5,-360 796.5,-324 1140.5,-324 1140.5,-360"/>
<text text-anchor="middle" x="968.5" y="-338.3" font-family="Times,serif" font-size="14.00">/req/sam&#45;cpt/Sampling/featureOfInterest&#45;card</text>
</g>
<!-- /req/sam&#45;cpt/Sampling/sampler&#45;sem -->
<g id="node9" class="node">
<title>/req/sam&#45;cpt/Sampling/sampler&#45;sem</title>
<polygon fill="none" stroke="black" points="1105.5,-306 831.5,-306 831.5,-270 1105.5,-270 1105.5,-306"/>
<text text-anchor="middle" x="968.5" y="-284.3" font-family="Times,serif" font-size="14.00">/req/sam&#45;cpt/Sampling/sampler&#45;sem</text>
</g>
<!-- /req/sam&#45;cpt/Sampling/samplingProcedure&#45;sem -->
<g id="node10" class="node">
<title>/req/sam&#45;cpt/Sampling/samplingProcedure&#45;sem</title>
<polygon fill="none" stroke="black" points="1146,-252 791,-252 791,-216 1146,-216 1146,-252"/>
<text text-anchor="middle" x="968.5" y="-230.3" font-family="Times,serif" font-size="14.00">/req/sam&#45;cpt/Sampling/samplingProcedure&#45;sem</text>
</g>
<!-- /req/sam&#45;cpt/Sampling/relatedSampling&#45;sem -->
<g id="node11" class="node">
<title>/req/sam&#45;cpt/Sampling/relatedSampling&#45;sem</title>
<polygon fill="none" stroke="black" points="1136,-198 801,-198 801,-162 1136,-162 1136,-198"/>
<text text-anchor="middle" x="968.5" y="-176.3" font-family="Times,serif" font-size="14.00">/req/sam&#45;cpt/Sampling/relatedSampling&#45;sem</text>
</g>
<!-- /req/obs&#45;core/NamedValue/NamedValue&#45;sem -->
<g id="node12" class="node">
<title>/req/obs&#45;core/NamedValue/NamedValue&#45;sem</title>
<polygon fill="none" stroke="black" points="1134.5,-144 802.5,-144 802.5,-108 1134.5,-108 1134.5,-144"/>
<text text-anchor="middle" x="968.5" y="-122.3" font-family="Times,serif" font-size="14.00">/req/obs&#45;core/NamedValue/NamedValue&#45;sem</text>
</g>
<!-- /req/obs&#45;core/NamedValue/name&#45;sem -->
<g id="node13" class="node">
<title>/req/obs&#45;core/NamedValue/name&#45;sem</title>
<polygon fill="none" stroke="black" points="1109,-90 828,-90 828,-54 1109,-54 1109,-90"/>
<text text-anchor="middle" x="968.5" y="-68.3" font-family="Times,serif" font-size="14.00">/req/obs&#45;core/NamedValue/name&#45;sem</text>
</g>
<!-- /req/obs&#45;core/NamedValue/value&#45;sem -->
<g id="node14" class="node">
<title>/req/obs&#45;core/NamedValue/value&#45;sem</title>
<polygon fill="none" stroke="black" points="1109,-36 828,-36 828,0 1109,0 1109,-36"/>
<text text-anchor="middle" x="968.5" y="-14.3" font-family="Times,serif" font-size="14.00">/req/obs&#45;core/NamedValue/value&#45;sem</text>
</g>
<!-- /req/sam&#45;core/AbstractSampling -->
<g id="node15" class="node">
<title>/req/sam&#45;core/AbstractSampling</title>
<polygon fill="none" stroke="black" points="3,-427 3,-448 305,-448 305,-427 3,-427"/>
<text text-anchor="start" x="38.5" y="-433.8" font-family="Times,serif" font-size="14.00">/req/sam&#45;core/AbstractSampling</text>
<polygon fill="none" stroke="black" points="3,-404 3,-425 305,-425 305,-404 3,-404"/>
<text text-anchor="start" x="6" y="-410.8" font-family="Times,serif" font-size="14.00">Abstract Sample core &#45; AbstractSampling</text>
<polygon fill="none" stroke="black" points="3,-381 3,-402 305,-402 305,-381 3,-381"/>
<text text-anchor="start" x="104" y="-387.8" font-family="Times,serif" font-size="14.00">Logical model</text>
<polygon fill="none" stroke="black" points="0,-378.5 0,-451.5 308,-451.5 308,-378.5 0,-378.5"/>
</g>
<!-- /req/sam&#45;core/AbstractSampling&#45;&gt;/req/sam&#45;core/AbstractSampling/samplingLocation&#45;sem -->
<g id="edge1" class="edge">
<title>/req/sam&#45;core/AbstractSampling&#45;&gt;/req/sam&#45;core/AbstractSampling/samplingLocation&#45;sem</title>
<path fill="none" stroke="black" d="M218.99,-451.56C273.82,-482.9 344,-523 344,-523 344,-523 369.33,-526.34 402.17,-530.68"/>
<polygon fill="black" stroke="black" points="401.72,-534.15 412.1,-531.99 402.64,-527.21 401.72,-534.15"/>
</g>
<!-- /req/sam&#45;core/AbstractSampling&#45;&gt;/req/sam&#45;core/AbstractSampling/time&#45;sem -->
<g id="edge2" class="edge">
<title>/req/sam&#45;core/AbstractSampling&#45;&gt;/req/sam&#45;core/AbstractSampling/time&#45;sem</title>
<path fill="none" stroke="black" d="M282.9,-451.54C316.73,-461.21 344,-469 344,-469 344,-469 369.33,-472.34 402.17,-476.68"/>
<polygon fill="black" stroke="black" points="401.72,-480.15 412.1,-477.99 402.64,-473.21 401.72,-480.15"/>
</g>
<!-- /req/sam&#45;core/AbstractSampling&#45;&gt;/req/sam&#45;core/AbstractSampling/parameter&#45;sem -->
<g id="edge3" class="edge">
<title>/req/sam&#45;core/AbstractSampling&#45;&gt;/req/sam&#45;core/AbstractSampling/parameter&#45;sem</title>
<path fill="none" stroke="black" d="M308.26,-425.52C325.04,-426.67 342.26,-427.85 359.4,-429.03"/>
<polygon fill="black" stroke="black" points="359.27,-432.52 369.48,-429.72 359.75,-425.54 359.27,-432.52"/>
</g>
<!-- /req/sam&#45;core/AbstractSampling&#45;&gt;/req/obs&#45;core/gen/metadata&#45;sem -->
<g id="edge4" class="edge">
<title>/req/sam&#45;core/AbstractSampling&#45;&gt;/req/obs&#45;core/gen/metadata&#45;sem</title>
<path fill="none" stroke="black" d="M308.26,-404.48C343.91,-402.04 381.57,-399.45 416.22,-397.08"/>
<polygon fill="black" stroke="black" points="416.65,-400.56 426.39,-396.38 416.17,-393.57 416.65,-400.56"/>
</g>
<!-- /req/sam&#45;cpt/Sampling -->
<g id="node16" class="node">
<title>/req/sam&#45;cpt/Sampling</title>
<polygon fill="none" stroke="black" points="436.5,-327 436.5,-348 662.5,-348 662.5,-327 436.5,-327"/>
<text text-anchor="start" x="468.5" y="-333.8" font-family="Times,serif" font-size="14.00">/req/sam&#45;cpt/Sampling</text>
<polygon fill="none" stroke="black" points="436.5,-304 436.5,-325 662.5,-325 662.5,-304 436.5,-304"/>
<text text-anchor="start" x="439.5" y="-310.8" font-family="Times,serif" font-size="14.00">Conceptual Sample &#45; Sampling</text>
<polygon fill="none" stroke="black" points="436.5,-281 436.5,-302 662.5,-302 662.5,-281 436.5,-281"/>
<text text-anchor="start" x="485" y="-287.8" font-family="Times,serif" font-size="14.00">Conceptual model</text>
<polygon fill="none" stroke="black" points="433.5,-278.5 433.5,-351.5 665.5,-351.5 665.5,-278.5 433.5,-278.5"/>
</g>
<!-- /req/sam&#45;core/AbstractSampling&#45;&gt;/req/sam&#45;cpt/Sampling -->
<g id="edge5" class="edge">
<title>/req/sam&#45;core/AbstractSampling&#45;&gt;/req/sam&#45;cpt/Sampling</title>
<path fill="none" stroke="black" stroke-dasharray="5,2" d="M282.9,-378.46C316.73,-368.79 344,-361 344,-361 344,-361 380.92,-352.69 423.39,-343.14"/>
<polygon fill="black" stroke="black" points="424.41,-346.5 433.4,-340.89 422.87,-339.67 424.41,-346.5"/>
</g>
<!-- /req/obs&#45;core/NamedValue -->
<g id="node17" class="node">
<title>/req/obs&#45;core/NamedValue</title>
<polygon fill="none" stroke="black" points="400.5,-111 400.5,-132 698.5,-132 698.5,-111 400.5,-111"/>
<text text-anchor="start" x="455.5" y="-117.8" font-family="Times,serif" font-size="14.00">/req/obs&#45;core/NamedValue</text>
<polygon fill="none" stroke="black" points="400.5,-88 400.5,-109 698.5,-109 698.5,-88 400.5,-88"/>
<text text-anchor="start" x="403.5" y="-94.8" font-family="Times,serif" font-size="14.00">Abstract Observation core &#45; NamedValue</text>
<polygon fill="none" stroke="black" points="400.5,-65 400.5,-86 698.5,-86 698.5,-65 400.5,-65"/>
<text text-anchor="start" x="499.5" y="-71.8" font-family="Times,serif" font-size="14.00">Logical model</text>
<polygon fill="none" stroke="black" points="397.5,-62.5 397.5,-135.5 701.5,-135.5 701.5,-62.5 397.5,-62.5"/>
</g>
<!-- /req/sam&#45;core/AbstractSampling&#45;&gt;/req/obs&#45;core/NamedValue -->
<g id="edge6" class="edge">
<title>/req/sam&#45;core/AbstractSampling&#45;&gt;/req/obs&#45;core/NamedValue</title>
<path fill="none" stroke="black" stroke-dasharray="5,2" d="M200.52,-378.44C273.53,-319.82 416.48,-205.02 494.51,-142.35"/>
<polygon fill="black" stroke="black" points="497.17,-144.71 502.78,-135.72 492.79,-139.25 497.17,-144.71"/>
</g>
<!-- /req/sam&#45;cpt/Sampling&#45;&gt;/req/sam&#45;cpt/Sampling/Sampling&#45;sem -->
<g id="edge7" class="edge">
<title>/req/sam&#45;cpt/Sampling&#45;&gt;/req/sam&#45;cpt/Sampling/Sampling&#45;sem</title>
<path fill="none" stroke="black" d="M665.6,-340.89C712.1,-351.35 755,-361 755,-361 755,-361 791,-477 791,-477 791,-477 812.12,-480.23 839.75,-484.46"/>
<polygon fill="black" stroke="black" points="839.36,-487.94 849.77,-485.99 840.42,-481.02 839.36,-487.94"/>
</g>
<!-- /req/sam&#45;cpt/Sampling&#45;&gt;/req/sam&#45;cpt/Sampling/sample&#45;sem -->
<g id="edge8" class="edge">
<title>/req/sam&#45;cpt/Sampling&#45;&gt;/req/sam&#45;cpt/Sampling/sample&#45;sem</title>
<path fill="none" stroke="black" d="M665.6,-340.89C712.1,-351.35 755,-361 755,-361 755,-361 791,-423 791,-423 791,-423 812.12,-426.23 839.75,-430.46"/>
<polygon fill="black" stroke="black" points="839.36,-433.94 849.77,-431.99 840.42,-427.02 839.36,-433.94"/>
</g>
<!-- /req/sam&#45;cpt/Sampling&#45;&gt;/req/sam&#45;cpt/Sampling/featureOfInterest&#45;sem -->
<g id="edge9" class="edge">
<title>/req/sam&#45;cpt/Sampling&#45;&gt;/req/sam&#45;cpt/Sampling/featureOfInterest&#45;sem</title>
<path fill="none" stroke="black" d="M665.82,-340.89C727.54,-354.75 791,-369 791,-369 791,-369 812.12,-372.23 839.75,-376.46"/>
<polygon fill="black" stroke="black" points="839.36,-379.94 849.77,-377.99 840.42,-373.02 839.36,-379.94"/>
</g>
<!-- /req/sam&#45;cpt/Sampling&#45;&gt;/req/sam&#45;cpt/Sampling/featureOfInterest&#45;card -->
<g id="edge10" class="edge">
<title>/req/sam&#45;cpt/Sampling&#45;&gt;/req/sam&#45;cpt/Sampling/featureOfInterest&#45;card</title>
<path fill="none" stroke="black" d="M665.55,-322.45C702.85,-324.86 745.19,-327.61 786.11,-330.26"/>
<polygon fill="black" stroke="black" points="785.99,-333.76 796.2,-330.91 786.45,-326.77 785.99,-333.76"/>
</g>
<!-- /req/sam&#45;cpt/Sampling&#45;&gt;/req/sam&#45;cpt/Sampling/sampler&#45;sem -->
<g id="edge11" class="edge">
<title>/req/sam&#45;cpt/Sampling&#45;&gt;/req/sam&#45;cpt/Sampling/sampler&#45;sem</title>
<path fill="none" stroke="black" d="M665.55,-307.55C713.69,-304.43 770.21,-300.77 821.25,-297.47"/>
<polygon fill="black" stroke="black" points="821.63,-300.95 831.38,-296.81 821.17,-293.97 821.63,-300.95"/>
</g>
<!-- /req/sam&#45;cpt/Sampling&#45;&gt;/req/sam&#45;cpt/Sampling/samplingProcedure&#45;sem -->
<g id="edge12" class="edge">
<title>/req/sam&#45;cpt/Sampling&#45;&gt;/req/sam&#45;cpt/Sampling/samplingProcedure&#45;sem</title>
<path fill="none" stroke="black" d="M665.82,-289.11C727.54,-275.25 791,-261 791,-261 791,-261 812.12,-257.77 839.75,-253.54"/>
<polygon fill="black" stroke="black" points="840.42,-256.98 849.77,-252.01 839.36,-250.06 840.42,-256.98"/>
</g>
<!-- /req/sam&#45;cpt/Sampling&#45;&gt;/req/sam&#45;cpt/Sampling/relatedSampling&#45;sem -->
<g id="edge13" class="edge">
<title>/req/sam&#45;cpt/Sampling&#45;&gt;/req/sam&#45;cpt/Sampling/relatedSampling&#45;sem</title>
<path fill="none" stroke="black" d="M631.92,-278.44C701.69,-247.1 791,-207 791,-207 791,-207 812.12,-203.77 839.75,-199.54"/>
<polygon fill="black" stroke="black" points="840.42,-202.98 849.77,-198.01 839.36,-196.06 840.42,-202.98"/>
</g>
<!-- /req/obs&#45;core/NamedValue&#45;&gt;/req/obs&#45;core/NamedValue/NamedValue&#45;sem -->
<g id="edge14" class="edge">
<title>/req/obs&#45;core/NamedValue&#45;&gt;/req/obs&#45;core/NamedValue/NamedValue&#45;sem</title>
<path fill="none" stroke="black" d="M701.64,-108.79C731.06,-110.69 762.13,-112.7 792.26,-114.65"/>
<polygon fill="black" stroke="black" points="792.23,-118.16 802.43,-115.31 792.68,-111.17 792.23,-118.16"/>
</g>
<!-- /req/obs&#45;core/NamedValue&#45;&gt;/req/obs&#45;core/NamedValue/name&#45;sem -->
<g id="edge15" class="edge">
<title>/req/obs&#45;core/NamedValue&#45;&gt;/req/obs&#45;core/NamedValue/name&#45;sem</title>
<path fill="none" stroke="black" d="M701.64,-89.21C739.51,-86.76 780.12,-84.13 817.91,-81.69"/>
<polygon fill="black" stroke="black" points="818.22,-85.17 827.97,-81.03 817.77,-78.19 818.22,-85.17"/>
</g>
<!-- /req/obs&#45;core/NamedValue&#45;&gt;/req/obs&#45;core/NamedValue/value&#45;sem -->
<g id="edge16" class="edge">
<title>/req/obs&#45;core/NamedValue&#45;&gt;/req/obs&#45;core/NamedValue/value&#45;sem</title>
<path fill="none" stroke="black" d="M701.79,-65.03C749.96,-54.21 791,-45 791,-45 791,-45 812.12,-41.77 839.75,-37.54"/>
<polygon fill="black" stroke="black" points="840.42,-40.98 849.77,-36.01 839.36,-34.06 840.42,-40.98"/>
</g>
</g>
</svg>
