<?xml version="1.0" encoding="UTF-8" standalone="no"?>
<!DOCTYPE svg PUBLIC "-//W3C//DTD SVG 1.1//EN"
 "http://www.w3.org/Graphics/SVG/1.1/DTD/svg11.dtd">
<!-- Generated by graphviz version 2.43.0 (0)
 -->
<!-- Title: G Pages: 1 -->
<svg width="606pt" height="81pt"
 viewBox="0.00 0.00 606.00 81.00" xmlns="http://www.w3.org/2000/svg" xmlns:xlink="http://www.w3.org/1999/xlink">
<g id="graph0" class="graph" transform="scale(1 1) rotate(0) translate(4 77)">
<title>G</title>
<polygon fill="white" stroke="transparent" points="-4,4 -4,-77 602,-77 602,4 -4,4"/>
<!-- /req/obs&#45;cpt/Procedure/Procedure&#45;sem -->
<g id="node1" class="node">
<title>/req/obs&#45;cpt/Procedure/Procedure&#45;sem</title>
<polygon fill="none" stroke="black" points="598,-54.5 307,-54.5 307,-18.5 598,-18.5 598,-54.5"/>
<text text-anchor="middle" x="452.5" y="-32.8" font-family="Times,serif" font-size="14.00">/req/obs&#45;cpt/Procedure/Procedure&#45;sem</text>
</g>
<!-- /req/obs&#45;cpt/Procedure -->
<g id="node2" class="node">
<title>/req/obs&#45;cpt/Procedure</title>
<polygon fill="none" stroke="black" points="3.5,-48.5 3.5,-69.5 268.5,-69.5 268.5,-48.5 3.5,-48.5"/>
<text text-anchor="start" x="54.5" y="-55.3" font-family="Times,serif" font-size="14.00">/req/obs&#45;cpt/Procedure</text>
<polygon fill="none" stroke="black" points="3.5,-25.5 3.5,-46.5 268.5,-46.5 268.5,-25.5 3.5,-25.5"/>
<text text-anchor="start" x="6.5" y="-32.3" font-family="Times,serif" font-size="14.00">Conceptual Observation &#45; Procedure</text>
<polygon fill="none" stroke="black" points="3.5,-2.5 3.5,-23.5 268.5,-23.5 268.5,-2.5 3.5,-2.5"/>
<text text-anchor="start" x="71.5" y="-9.3" font-family="Times,serif" font-size="14.00">Conceptual model</text>
<polygon fill="none" stroke="black" points="0,0 0,-73 271,-73 271,0 0,0"/>
</g>
<!-- /req/obs&#45;cpt/Procedure&#45;&gt;/req/obs&#45;cpt/Procedure/Procedure&#45;sem -->
<g id="edge1" class="edge">
<title>/req/obs&#45;cpt/Procedure&#45;&gt;/req/obs&#45;cpt/Procedure/Procedure&#45;sem</title>
<path fill="none" stroke="black" d="M271,-36.5C279.54,-36.5 288.16,-36.5 296.78,-36.5"/>
<polygon fill="black" stroke="black" points="296.88,-40 306.88,-36.5 296.88,-33 296.88,-40"/>
</g>
</g>
</svg>
