<?xml version="1.0" encoding="UTF-8" standalone="no"?>
<!DOCTYPE svg PUBLIC "-//W3C//DTD SVG 1.1//EN"
 "http://www.w3.org/Graphics/SVG/1.1/DTD/svg11.dtd">
<!-- Generated by graphviz version 2.43.0 (0)
 -->
<!-- Title: G Pages: 1 -->
<svg width="1303pt" height="315pt"
 viewBox="0.00 0.00 1303.00 315.00" xmlns="http://www.w3.org/2000/svg" xmlns:xlink="http://www.w3.org/1999/xlink">
<g id="graph0" class="graph" transform="scale(1 1) rotate(0) translate(4 311)">
<title>G</title>
<polygon fill="white" stroke="transparent" points="-4,4 -4,-311 1299,-311 1299,4 -4,4"/>
<!-- /req/obs&#45;basic/gen/link&#45;sem -->
<g id="node1" class="node">
<title>/req/obs&#45;basic/gen/link&#45;sem</title>
<polygon fill="none" stroke="black" points="540.5,-307 329.5,-307 329.5,-271 540.5,-271 540.5,-307"/>
<text text-anchor="middle" x="435" y="-285.3" font-family="Times,serif" font-size="14.00">/req/obs&#45;basic/gen/link&#45;sem</text>
</g>
<!-- /req/obs&#45;basic/gen/location&#45;sem -->
<g id="node2" class="node">
<title>/req/obs&#45;basic/gen/location&#45;sem</title>
<polygon fill="none" stroke="black" points="555.5,-253 314.5,-253 314.5,-217 555.5,-217 555.5,-253"/>
<text text-anchor="middle" x="435" y="-231.3" font-family="Times,serif" font-size="14.00">/req/obs&#45;basic/gen/location&#45;sem</text>
</g>
<!-- /req/obs&#45;core/gen/metadata&#45;sem -->
<g id="node3" class="node">
<title>/req/obs&#45;core/gen/metadata&#45;sem</title>
<polygon fill="none" stroke="black" points="896,-217 650,-217 650,-181 896,-181 896,-217"/>
<text text-anchor="middle" x="773" y="-195.3" font-family="Times,serif" font-size="14.00">/req/obs&#45;core/gen/metadata&#45;sem</text>
</g>
<!-- /req/obs&#45;cpt/Observer/Observer&#45;sem -->
<g id="node4" class="node">
<title>/req/obs&#45;cpt/Observer/Observer&#45;sem</title>
<polygon fill="none" stroke="black" points="1256,-252 980,-252 980,-216 1256,-216 1256,-252"/>
<text text-anchor="middle" x="1118" y="-230.3" font-family="Times,serif" font-size="14.00">/req/obs&#45;cpt/Observer/Observer&#45;sem</text>
</g>
<!-- /req/obs&#45;cpt/Observer/observableProperty&#45;sem -->
<g id="node5" class="node">
<title>/req/obs&#45;cpt/Observer/observableProperty&#45;sem</title>
<polygon fill="none" stroke="black" points="1293.5,-198 942.5,-198 942.5,-162 1293.5,-162 1293.5,-198"/>
<text text-anchor="middle" x="1118" y="-176.3" font-family="Times,serif" font-size="14.00">/req/obs&#45;cpt/Observer/observableProperty&#45;sem</text>
</g>
<!-- /req/obs&#45;cpt/Observer/observingProcedure&#45;sem -->
<g id="node6" class="node">
<title>/req/obs&#45;cpt/Observer/observingProcedure&#45;sem</title>
<polygon fill="none" stroke="black" points="1295,-144 941,-144 941,-108 1295,-108 1295,-144"/>
<text text-anchor="middle" x="1118" y="-122.3" font-family="Times,serif" font-size="14.00">/req/obs&#45;cpt/Observer/observingProcedure&#45;sem</text>
</g>
<!-- /req/obs&#45;cpt/Observer/deployment&#45;sem -->
<g id="node7" class="node">
<title>/req/obs&#45;cpt/Observer/deployment&#45;sem</title>
<polygon fill="none" stroke="black" points="1265,-90 971,-90 971,-54 1265,-54 1265,-90"/>
<text text-anchor="middle" x="1118" y="-68.3" font-family="Times,serif" font-size="14.00">/req/obs&#45;cpt/Observer/deployment&#45;sem</text>
</g>
<!-- /req/obs&#45;cpt/gen/relatedObservation&#45;sem -->
<g id="node8" class="node">
<title>/req/obs&#45;cpt/gen/relatedObservation&#45;sem</title>
<polygon fill="none" stroke="black" points="1272,-36 964,-36 964,0 1272,0 1272,-36"/>
<text text-anchor="middle" x="1118" y="-14.3" font-family="Times,serif" font-size="14.00">/req/obs&#45;cpt/gen/relatedObservation&#45;sem</text>
</g>
<!-- /req/obs&#45;basic/Observer -->
<g id="node9" class="node">
<title>/req/obs&#45;basic/Observer</title>
<polygon fill="none" stroke="black" points="3.5,-247 3.5,-268 226.5,-268 226.5,-247 3.5,-247"/>
<text text-anchor="start" x="30" y="-253.8" font-family="Times,serif" font-size="14.00">/req/obs&#45;basic/Observer</text>
<polygon fill="none" stroke="black" points="3.5,-224 3.5,-245 226.5,-245 226.5,-224 3.5,-224"/>
<text text-anchor="start" x="6.5" y="-230.8" font-family="Times,serif" font-size="14.00">Basic Observations &#45; Observer</text>
<polygon fill="none" stroke="black" points="3.5,-201 3.5,-222 226.5,-222 226.5,-201 3.5,-201"/>
<text text-anchor="start" x="65" y="-207.8" font-family="Times,serif" font-size="14.00">Logical model</text>
<polygon fill="none" stroke="black" points="0,-198.5 0,-271.5 229,-271.5 229,-198.5 0,-198.5"/>
</g>
<!-- /req/obs&#45;basic/Observer&#45;&gt;/req/obs&#45;basic/gen/link&#45;sem -->
<g id="edge1" class="edge">
<title>/req/obs&#45;basic/Observer&#45;&gt;/req/obs&#45;basic/gen/link&#45;sem</title>
<path fill="none" stroke="black" d="M229.19,-255.53C249.85,-259.26 265,-262 265,-262 265,-262 289.26,-265.88 319.4,-270.69"/>
<polygon fill="black" stroke="black" points="318.95,-274.16 329.37,-272.28 320.05,-267.25 318.95,-274.16"/>
</g>
<!-- /req/obs&#45;basic/Observer&#45;&gt;/req/obs&#45;basic/gen/location&#45;sem -->
<g id="edge2" class="edge">
<title>/req/obs&#45;basic/Observer&#45;&gt;/req/obs&#45;basic/gen/location&#45;sem</title>
<path fill="none" stroke="black" d="M229.14,-235C253.47,-235 279.36,-235 304.26,-235"/>
<polygon fill="black" stroke="black" points="304.48,-238.5 314.48,-235 304.48,-231.5 304.48,-238.5"/>
</g>
<!-- /req/obs&#45;core/AbstractObserver -->
<g id="node10" class="node">
<title>/req/obs&#45;core/AbstractObserver</title>
<polygon fill="none" stroke="black" points="268,-174 268,-195 602,-195 602,-174 268,-174"/>
<text text-anchor="start" x="322.5" y="-180.8" font-family="Times,serif" font-size="14.00">/req/obs&#45;core/AbstractObserver</text>
<polygon fill="none" stroke="black" points="268,-151 268,-172 602,-172 602,-151 268,-151"/>
<text text-anchor="start" x="271" y="-157.8" font-family="Times,serif" font-size="14.00">Abstract Observation core &#45; AbstractObserver</text>
<polygon fill="none" stroke="black" points="268,-128 268,-149 602,-149 602,-128 268,-128"/>
<text text-anchor="start" x="385" y="-134.8" font-family="Times,serif" font-size="14.00">Logical model</text>
<polygon fill="none" stroke="black" points="265,-125.5 265,-198.5 605,-198.5 605,-125.5 265,-125.5"/>
</g>
<!-- /req/obs&#45;basic/Observer&#45;&gt;/req/obs&#45;core/AbstractObserver -->
<g id="edge3" class="edge">
<title>/req/obs&#45;basic/Observer&#45;&gt;/req/obs&#45;core/AbstractObserver</title>
<path fill="none" stroke="black" stroke-dasharray="5,2" d="M229.14,-208.95C240.65,-206.32 252.51,-203.6 264.45,-200.86"/>
<polygon fill="black" stroke="black" points="265.53,-204.2 274.49,-198.56 263.97,-197.38 265.53,-204.2"/>
</g>
<!-- /req/obs&#45;core/AbstractObserver&#45;&gt;/req/obs&#45;core/gen/metadata&#45;sem -->
<g id="edge4" class="edge">
<title>/req/obs&#45;core/AbstractObserver&#45;&gt;/req/obs&#45;core/gen/metadata&#45;sem</title>
<path fill="none" stroke="black" d="M605.48,-180.66C616.96,-181.93 628.44,-183.19 639.7,-184.43"/>
<polygon fill="black" stroke="black" points="639.64,-187.95 649.96,-185.56 640.41,-180.99 639.64,-187.95"/>
</g>
<!-- /req/obs&#45;cpt/Observer -->
<g id="node11" class="node">
<title>/req/obs&#45;cpt/Observer</title>
<polygon fill="none" stroke="black" points="644,-138 644,-159 902,-159 902,-138 644,-138"/>
<text text-anchor="start" x="695" y="-144.8" font-family="Times,serif" font-size="14.00">/req/obs&#45;cpt/Observer</text>
<polygon fill="none" stroke="black" points="644,-115 644,-136 902,-136 902,-115 644,-115"/>
<text text-anchor="start" x="647" y="-121.8" font-family="Times,serif" font-size="14.00">Conceptual Observation &#45; Observer</text>
<polygon fill="none" stroke="black" points="644,-92 644,-113 902,-113 902,-92 644,-92"/>
<text text-anchor="start" x="708.5" y="-98.8" font-family="Times,serif" font-size="14.00">Conceptual model</text>
<polygon fill="none" stroke="black" points="641,-89.5 641,-162.5 905,-162.5 905,-89.5 641,-89.5"/>
</g>
<!-- /req/obs&#45;core/AbstractObserver&#45;&gt;/req/obs&#45;cpt/Observer -->
<g id="edge5" class="edge">
<title>/req/obs&#45;core/AbstractObserver&#45;&gt;/req/obs&#45;cpt/Observer</title>
<path fill="none" stroke="black" stroke-dasharray="5,2" d="M605.48,-143.84C613.94,-142.93 622.4,-142.03 630.77,-141.13"/>
<polygon fill="black" stroke="black" points="631.36,-144.59 640.93,-140.04 630.61,-137.63 631.36,-144.59"/>
</g>
<!-- /req/obs&#45;cpt/Observer&#45;&gt;/req/obs&#45;cpt/Observer/Observer&#45;sem -->
<g id="edge6" class="edge">
<title>/req/obs&#45;cpt/Observer&#45;&gt;/req/obs&#45;cpt/Observer/Observer&#45;sem</title>
<path fill="none" stroke="black" d="M878.17,-162.58C893.91,-168.1 905,-172 905,-172 905,-172 941,-207 941,-207 941,-207 962.06,-210.23 989.61,-214.46"/>
<polygon fill="black" stroke="black" points="989.19,-217.93 999.61,-215.99 990.25,-211.01 989.19,-217.93"/>
</g>
<!-- /req/obs&#45;cpt/Observer&#45;&gt;/req/obs&#45;cpt/Observer/observableProperty&#45;sem -->
<g id="edge7" class="edge">
<title>/req/obs&#45;cpt/Observer&#45;&gt;/req/obs&#45;cpt/Observer/observableProperty&#45;sem</title>
<path fill="none" stroke="black" d="M905.17,-147.21C926.09,-150.59 941,-153 941,-153 941,-153 962.06,-156.23 989.61,-160.46"/>
<polygon fill="black" stroke="black" points="989.19,-163.93 999.61,-161.99 990.25,-157.01 989.19,-163.93"/>
</g>
<!-- /req/obs&#45;cpt/Observer&#45;&gt;/req/obs&#45;cpt/Observer/observingProcedure&#45;sem -->
<g id="edge8" class="edge">
<title>/req/obs&#45;cpt/Observer&#45;&gt;/req/obs&#45;cpt/Observer/observingProcedure&#45;sem</title>
<path fill="none" stroke="black" d="M905.14,-126C913.57,-126 922.14,-126 930.75,-126"/>
<polygon fill="black" stroke="black" points="930.88,-129.5 940.88,-126 930.88,-122.5 930.88,-129.5"/>
</g>
<!-- /req/obs&#45;cpt/Observer&#45;&gt;/req/obs&#45;cpt/Observer/deployment&#45;sem -->
<g id="edge9" class="edge">
<title>/req/obs&#45;cpt/Observer&#45;&gt;/req/obs&#45;cpt/Observer/deployment&#45;sem</title>
<path fill="none" stroke="black" d="M905.17,-104.79C926.09,-101.41 941,-99 941,-99 941,-99 962.06,-95.77 989.61,-91.54"/>
<polygon fill="black" stroke="black" points="990.25,-94.99 999.61,-90.01 989.19,-88.07 990.25,-94.99"/>
</g>
<!-- /req/obs&#45;cpt/Observer&#45;&gt;/req/obs&#45;cpt/gen/relatedObservation&#45;sem -->
<g id="edge10" class="edge">
<title>/req/obs&#45;cpt/Observer&#45;&gt;/req/obs&#45;cpt/gen/relatedObservation&#45;sem</title>
<path fill="none" stroke="black" d="M849.68,-89.29C893.87,-67.86 941,-45 941,-45 941,-45 962.06,-41.77 989.61,-37.54"/>
<polygon fill="black" stroke="black" points="990.25,-40.99 999.61,-36.01 989.19,-34.07 990.25,-40.99"/>
</g>
</g>
</svg>
