<?xml version="1.0" encoding="UTF-8" standalone="no"?>
<!DOCTYPE svg PUBLIC "-//W3C//DTD SVG 1.1//EN"
 "http://www.w3.org/Graphics/SVG/1.1/DTD/svg11.dtd">
<!-- Generated by graphviz version 2.43.0 (0)
 -->
<!-- Title: G Pages: 1 -->
<svg width="2230pt" height="1324pt"
 viewBox="0.00 0.00 2230.00 1324.00" xmlns="http://www.w3.org/2000/svg" xmlns:xlink="http://www.w3.org/1999/xlink">
<g id="graph0" class="graph" transform="scale(1 1) rotate(0) translate(4 1320)">
<title>G</title>
<polygon fill="white" stroke="transparent" points="-4,4 -4,-1320 2226,-1320 2226,4 -4,4"/>
<!-- /req/obs&#45;core/AbstractObservation/resultTime&#45;type -->
<g id="node1" class="node">
<title>/req/obs&#45;core/AbstractObservation/resultTime&#45;type</title>
<polygon fill="none" stroke="black" points="1108,-1316 728,-1316 728,-1280 1108,-1280 1108,-1316"/>
<text text-anchor="middle" x="918" y="-1294.3" font-family="Times,serif" font-size="14.00">/req/obs&#45;core/AbstractObservation/resultTime&#45;type</text>
</g>
<!-- /req/obs&#45;core/AbstractObservation/validTime&#45;type -->
<g id="node2" class="node">
<title>/req/obs&#45;core/AbstractObservation/validTime&#45;type</title>
<polygon fill="none" stroke="black" points="1104,-1262 732,-1262 732,-1226 1104,-1226 1104,-1262"/>
<text text-anchor="middle" x="918" y="-1240.3" font-family="Times,serif" font-size="14.00">/req/obs&#45;core/AbstractObservation/validTime&#45;type</text>
</g>
<!-- /req/obs&#45;cpt/Observation/phenomenonTime&#45;card -->
<g id="node3" class="node">
<title>/req/obs&#45;cpt/Observation/phenomenonTime&#45;card</title>
<polygon fill="none" stroke="black" points="1098,-1208 738,-1208 738,-1172 1098,-1172 1098,-1208"/>
<text text-anchor="middle" x="918" y="-1186.3" font-family="Times,serif" font-size="14.00">/req/obs&#45;cpt/Observation/phenomenonTime&#45;card</text>
</g>
<!-- /req/obs&#45;cpt/Observation/resultTime&#45;card -->
<g id="node4" class="node">
<title>/req/obs&#45;cpt/Observation/resultTime&#45;card</title>
<polygon fill="none" stroke="black" points="1073.5,-1154 762.5,-1154 762.5,-1118 1073.5,-1118 1073.5,-1154"/>
<text text-anchor="middle" x="918" y="-1132.3" font-family="Times,serif" font-size="14.00">/req/obs&#45;cpt/Observation/resultTime&#45;card</text>
</g>
<!-- /req/obs&#45;core/AbstractObservation/FoI&#45;con -->
<g id="node5" class="node">
<title>/req/obs&#45;core/AbstractObservation/FoI&#45;con</title>
<polygon fill="none" stroke="black" points="1077,-1100 759,-1100 759,-1064 1077,-1064 1077,-1100"/>
<text text-anchor="middle" x="918" y="-1078.3" font-family="Times,serif" font-size="14.00">/req/obs&#45;core/AbstractObservation/FoI&#45;con</text>
</g>
<!-- /req/obs&#45;cpt/Observation/observedProperty&#45;card -->
<g id="node6" class="node">
<title>/req/obs&#45;cpt/Observation/observedProperty&#45;card</title>
<polygon fill="none" stroke="black" points="1099,-1046 737,-1046 737,-1010 1099,-1010 1099,-1046"/>
<text text-anchor="middle" x="918" y="-1024.3" font-family="Times,serif" font-size="14.00">/req/obs&#45;cpt/Observation/observedProperty&#45;card</text>
</g>
<!-- /req/obs&#45;cpt/Observation/procedure&#45;card -->
<g id="node7" class="node">
<title>/req/obs&#45;cpt/Observation/procedure&#45;card</title>
<polygon fill="none" stroke="black" points="1071,-992 765,-992 765,-956 1071,-956 1071,-992"/>
<text text-anchor="middle" x="918" y="-970.3" font-family="Times,serif" font-size="14.00">/req/obs&#45;cpt/Observation/procedure&#45;card</text>
</g>
<!-- /req/obs&#45;cpt/Observation/result&#45;card -->
<g id="node8" class="node">
<title>/req/obs&#45;cpt/Observation/result&#45;card</title>
<polygon fill="none" stroke="black" points="1055.5,-938 780.5,-938 780.5,-902 1055.5,-902 1055.5,-938"/>
<text text-anchor="middle" x="918" y="-916.3" font-family="Times,serif" font-size="14.00">/req/obs&#45;cpt/Observation/result&#45;card</text>
</g>
<!-- /req/obs&#45;core/AbstractObservation/parameterName&#45;card -->
<g id="node9" class="node">
<title>/req/obs&#45;core/AbstractObservation/parameterName&#45;card</title>
<polygon fill="none" stroke="black" points="1127.5,-884 708.5,-884 708.5,-848 1127.5,-848 1127.5,-884"/>
<text text-anchor="middle" x="918" y="-862.3" font-family="Times,serif" font-size="14.00">/req/obs&#45;core/AbstractObservation/parameterName&#45;card</text>
</g>
<!-- /req/obs&#45;core/AbstractObservationCharacteristics/AbstractObservationCharacteristics&#45;sem -->
<g id="node10" class="node">
<title>/req/obs&#45;core/AbstractObservationCharacteristics/AbstractObservationCharacteristics&#45;sem</title>
<polygon fill="none" stroke="black" points="1854,-1081 1189,-1081 1189,-1045 1854,-1045 1854,-1081"/>
<text text-anchor="middle" x="1521.5" y="-1059.3" font-family="Times,serif" font-size="14.00">/req/obs&#45;core/AbstractObservationCharacteristics/AbstractObservationCharacteristics&#45;sem</text>
</g>
<!-- /req/obs&#45;core/AbstractObservationCharacteristics/type&#45;sem -->
<g id="node11" class="node">
<title>/req/obs&#45;core/AbstractObservationCharacteristics/type&#45;sem</title>
<polygon fill="none" stroke="black" points="1741.5,-1027 1301.5,-1027 1301.5,-991 1741.5,-991 1741.5,-1027"/>
<text text-anchor="middle" x="1521.5" y="-1005.3" font-family="Times,serif" font-size="14.00">/req/obs&#45;core/AbstractObservationCharacteristics/type&#45;sem</text>
</g>
<!-- /req/obs&#45;core/AbstractObservationCharacteristics/parameter&#45;sem -->
<g id="node12" class="node">
<title>/req/obs&#45;core/AbstractObservationCharacteristics/parameter&#45;sem</title>
<polygon fill="none" stroke="black" points="1763.5,-973 1279.5,-973 1279.5,-937 1763.5,-937 1763.5,-973"/>
<text text-anchor="middle" x="1521.5" y="-951.3" font-family="Times,serif" font-size="14.00">/req/obs&#45;core/AbstractObservationCharacteristics/parameter&#45;sem</text>
</g>
<!-- /req/obs&#45;core/AbstractObservationCharacteristics/resultQuality&#45;sem -->
<g id="node13" class="node">
<title>/req/obs&#45;core/AbstractObservationCharacteristics/resultQuality&#45;sem</title>
<polygon fill="none" stroke="black" points="1773,-919 1270,-919 1270,-883 1773,-883 1773,-919"/>
<text text-anchor="middle" x="1521.5" y="-897.3" font-family="Times,serif" font-size="14.00">/req/obs&#45;core/AbstractObservationCharacteristics/resultQuality&#45;sem</text>
</g>
<!-- /req/obs&#45;cpt/Observation/phenomenonTime&#45;sem -->
<g id="node14" class="node">
<title>/req/obs&#45;cpt/Observation/phenomenonTime&#45;sem</title>
<polygon fill="none" stroke="black" points="1700.5,-865 1342.5,-865 1342.5,-829 1700.5,-829 1700.5,-865"/>
<text text-anchor="middle" x="1521.5" y="-843.3" font-family="Times,serif" font-size="14.00">/req/obs&#45;cpt/Observation/phenomenonTime&#45;sem</text>
</g>
<!-- /req/obs&#45;cpt/Observation/resultTime&#45;sem -->
<g id="node15" class="node">
<title>/req/obs&#45;cpt/Observation/resultTime&#45;sem</title>
<polygon fill="none" stroke="black" points="1675.5,-811 1367.5,-811 1367.5,-775 1675.5,-775 1675.5,-811"/>
<text text-anchor="middle" x="1521.5" y="-789.3" font-family="Times,serif" font-size="14.00">/req/obs&#45;cpt/Observation/resultTime&#45;sem</text>
</g>
<!-- /req/obs&#45;cpt/Observation/validTime&#45;sem -->
<g id="node16" class="node">
<title>/req/obs&#45;cpt/Observation/validTime&#45;sem</title>
<polygon fill="none" stroke="black" points="1672,-757 1371,-757 1371,-721 1672,-721 1672,-757"/>
<text text-anchor="middle" x="1521.5" y="-735.3" font-family="Times,serif" font-size="14.00">/req/obs&#45;cpt/Observation/validTime&#45;sem</text>
</g>
<!-- /req/obs&#45;cpt/Observation/featureOfInterest&#45;sem -->
<g id="node17" class="node">
<title>/req/obs&#45;cpt/Observation/featureOfInterest&#45;sem</title>
<polygon fill="none" stroke="black" points="1699.5,-703 1343.5,-703 1343.5,-667 1699.5,-667 1699.5,-703"/>
<text text-anchor="middle" x="1521.5" y="-681.3" font-family="Times,serif" font-size="14.00">/req/obs&#45;cpt/Observation/featureOfInterest&#45;sem</text>
</g>
<!-- /req/obs&#45;core/AbstractObservationCharacteristics/pFoI&#45;sem -->
<g id="node18" class="node">
<title>/req/obs&#45;core/AbstractObservationCharacteristics/pFoI&#45;sem</title>
<polygon fill="none" stroke="black" points="1741.5,-649 1301.5,-649 1301.5,-613 1741.5,-613 1741.5,-649"/>
<text text-anchor="middle" x="1521.5" y="-627.3" font-family="Times,serif" font-size="14.00">/req/obs&#45;core/AbstractObservationCharacteristics/pFoI&#45;sem</text>
</g>
<!-- /req/obs&#45;core/AbstractObservationCharacteristics/uFoI&#45;sem -->
<g id="node19" class="node">
<title>/req/obs&#45;core/AbstractObservationCharacteristics/uFoI&#45;sem</title>
<polygon fill="none" stroke="black" points="1741.5,-595 1301.5,-595 1301.5,-559 1741.5,-559 1741.5,-595"/>
<text text-anchor="middle" x="1521.5" y="-573.3" font-family="Times,serif" font-size="14.00">/req/obs&#45;core/AbstractObservationCharacteristics/uFoI&#45;sem</text>
</g>
<!-- /req/obs&#45;cpt/Observation/observedProperty&#45;sem -->
<g id="node20" class="node">
<title>/req/obs&#45;cpt/Observation/observedProperty&#45;sem</title>
<polygon fill="none" stroke="black" points="1701,-541 1342,-541 1342,-505 1701,-505 1701,-541"/>
<text text-anchor="middle" x="1521.5" y="-519.3" font-family="Times,serif" font-size="14.00">/req/obs&#45;cpt/Observation/observedProperty&#45;sem</text>
</g>
<!-- /req/obs&#45;cpt/Observation/result&#45;sem -->
<g id="node21" class="node">
<title>/req/obs&#45;cpt/Observation/result&#45;sem</title>
<polygon fill="none" stroke="black" points="1658,-487 1385,-487 1385,-451 1658,-451 1658,-487"/>
<text text-anchor="middle" x="1521.5" y="-465.3" font-family="Times,serif" font-size="14.00">/req/obs&#45;cpt/Observation/result&#45;sem</text>
</g>
<!-- /req/obs&#45;cpt/Observation/procedure&#45;sem -->
<g id="node22" class="node">
<title>/req/obs&#45;cpt/Observation/procedure&#45;sem</title>
<polygon fill="none" stroke="black" points="1673.5,-433 1369.5,-433 1369.5,-397 1673.5,-397 1673.5,-433"/>
<text text-anchor="middle" x="1521.5" y="-411.3" font-family="Times,serif" font-size="14.00">/req/obs&#45;cpt/Observation/procedure&#45;sem</text>
</g>
<!-- /req/obs&#45;cpt/Observation/observer&#45;sem -->
<g id="node23" class="node">
<title>/req/obs&#45;cpt/Observation/observer&#45;sem</title>
<polygon fill="none" stroke="black" points="1668.5,-379 1374.5,-379 1374.5,-343 1668.5,-343 1668.5,-379"/>
<text text-anchor="middle" x="1521.5" y="-357.3" font-family="Times,serif" font-size="14.00">/req/obs&#45;cpt/Observation/observer&#45;sem</text>
</g>
<!-- /req/obs&#45;cpt/Observation/host&#45;sem -->
<g id="node24" class="node">
<title>/req/obs&#45;cpt/Observation/host&#45;sem</title>
<polygon fill="none" stroke="black" points="1652.5,-325 1390.5,-325 1390.5,-289 1652.5,-289 1652.5,-325"/>
<text text-anchor="middle" x="1521.5" y="-303.3" font-family="Times,serif" font-size="14.00">/req/obs&#45;cpt/Observation/host&#45;sem</text>
</g>
<!-- /req/obs&#45;cpt/gen/relatedObservation&#45;sem -->
<g id="node25" class="node">
<title>/req/obs&#45;cpt/gen/relatedObservation&#45;sem</title>
<polygon fill="none" stroke="black" points="1675.5,-271 1367.5,-271 1367.5,-235 1675.5,-235 1675.5,-271"/>
<text text-anchor="middle" x="1521.5" y="-249.3" font-family="Times,serif" font-size="14.00">/req/obs&#45;cpt/gen/relatedObservation&#45;sem</text>
</g>
<!-- /req/obs&#45;core/gen/metadata&#45;sem -->
<g id="node26" class="node">
<title>/req/obs&#45;core/gen/metadata&#45;sem</title>
<polygon fill="none" stroke="black" points="1644.5,-217 1398.5,-217 1398.5,-181 1644.5,-181 1644.5,-217"/>
<text text-anchor="middle" x="1521.5" y="-195.3" font-family="Times,serif" font-size="14.00">/req/obs&#45;core/gen/metadata&#45;sem</text>
</g>
<!-- /req/obs&#45;core/NamedValue/NamedValue&#45;sem -->
<g id="node27" class="node">
<title>/req/obs&#45;core/NamedValue/NamedValue&#45;sem</title>
<polygon fill="none" stroke="black" points="2222,-144 1890,-144 1890,-108 2222,-108 2222,-144"/>
<text text-anchor="middle" x="2056" y="-122.3" font-family="Times,serif" font-size="14.00">/req/obs&#45;core/NamedValue/NamedValue&#45;sem</text>
</g>
<!-- /req/obs&#45;core/NamedValue/name&#45;sem -->
<g id="node28" class="node">
<title>/req/obs&#45;core/NamedValue/name&#45;sem</title>
<polygon fill="none" stroke="black" points="2196.5,-90 1915.5,-90 1915.5,-54 2196.5,-54 2196.5,-90"/>
<text text-anchor="middle" x="2056" y="-68.3" font-family="Times,serif" font-size="14.00">/req/obs&#45;core/NamedValue/name&#45;sem</text>
</g>
<!-- /req/obs&#45;core/NamedValue/value&#45;sem -->
<g id="node29" class="node">
<title>/req/obs&#45;core/NamedValue/value&#45;sem</title>
<polygon fill="none" stroke="black" points="2196.5,-36 1915.5,-36 1915.5,0 2196.5,0 2196.5,-36"/>
<text text-anchor="middle" x="2056" y="-14.3" font-family="Times,serif" font-size="14.00">/req/obs&#45;core/NamedValue/value&#45;sem</text>
</g>
<!-- /rec/obs&#45;cpt/Observation/observedProperty&#45;con -->
<g id="node30" class="node">
<title>/rec/obs&#45;cpt/Observation/observedProperty&#45;con</title>
<polygon fill="none" stroke="black" stroke-dasharray="1,5" points="1094.5,-830 741.5,-830 741.5,-794 1094.5,-794 1094.5,-830"/>
<text text-anchor="middle" x="918" y="-808.3" font-family="Times,serif" font-size="14.00">/rec/obs&#45;cpt/Observation/observedProperty&#45;con</text>
</g>
<!-- /rec/obs&#45;cpt/Observation/observerhost&#45;con -->
<g id="node31" class="node">
<title>/rec/obs&#45;cpt/Observation/observerhost&#45;con</title>
<polygon fill="none" stroke="black" stroke-dasharray="1,5" points="1077.5,-776 758.5,-776 758.5,-740 1077.5,-740 1077.5,-776"/>
<text text-anchor="middle" x="918" y="-754.3" font-family="Times,serif" font-size="14.00">/rec/obs&#45;cpt/Observation/observerhost&#45;con</text>
</g>
<!-- /rec/obs&#45;cpt/Observation/procedure&#45;con -->
<g id="node32" class="node">
<title>/rec/obs&#45;cpt/Observation/procedure&#45;con</title>
<polygon fill="none" stroke="black" stroke-dasharray="1,5" points="1067,-722 769,-722 769,-686 1067,-686 1067,-722"/>
<text text-anchor="middle" x="918" y="-700.3" font-family="Times,serif" font-size="14.00">/rec/obs&#45;cpt/Observation/procedure&#45;con</text>
</g>
<!-- /rec/obs&#45;cpt/Observation/result&#45;con -->
<g id="node33" class="node">
<title>/rec/obs&#45;cpt/Observation/result&#45;con</title>
<polygon fill="none" stroke="black" stroke-dasharray="1,5" points="1051.5,-668 784.5,-668 784.5,-632 1051.5,-632 1051.5,-668"/>
<text text-anchor="middle" x="918" y="-646.3" font-family="Times,serif" font-size="14.00">/rec/obs&#45;cpt/Observation/result&#45;con</text>
</g>
<!-- /rec/obs&#45;core/AbstractObservationCharacteristics/uFoI -->
<g id="node34" class="node">
<title>/rec/obs&#45;core/AbstractObservationCharacteristics/uFoI</title>
<polygon fill="none" stroke="black" stroke-dasharray="1,5" points="1724,-163 1319,-163 1319,-127 1724,-127 1724,-163"/>
<text text-anchor="middle" x="1521.5" y="-141.3" font-family="Times,serif" font-size="14.00">/rec/obs&#45;core/AbstractObservationCharacteristics/uFoI</text>
</g>
<!-- /req/obs&#45;basic/Observation -->
<g id="node35" class="node">
<title>/req/obs&#45;basic/Observation</title>
<polygon fill="none" stroke="black" points="3,-959 3,-980 247,-980 247,-959 3,-959"/>
<text text-anchor="start" x="29.5" y="-965.8" font-family="Times,serif" font-size="14.00">/req/obs&#45;basic/Observation</text>
<polygon fill="none" stroke="black" points="3,-936 3,-957 247,-957 247,-936 3,-936"/>
<text text-anchor="start" x="6" y="-942.8" font-family="Times,serif" font-size="14.00">Basic Observations &#45; Observation</text>
<polygon fill="none" stroke="black" points="3,-913 3,-934 247,-934 247,-913 3,-913"/>
<text text-anchor="start" x="75" y="-919.8" font-family="Times,serif" font-size="14.00">Logical model</text>
<polygon fill="none" stroke="black" points="0,-910.5 0,-983.5 250,-983.5 250,-910.5 0,-910.5"/>
</g>
<!-- /req/obs&#45;core/AbstractObservation -->
<g id="node36" class="node">
<title>/req/obs&#45;core/AbstractObservation</title>
<polygon fill="none" stroke="black" points="289.5,-959 289.5,-980 644.5,-980 644.5,-959 289.5,-959"/>
<text text-anchor="start" x="344" y="-965.8" font-family="Times,serif" font-size="14.00">/req/obs&#45;core/AbstractObservation</text>
<polygon fill="none" stroke="black" points="289.5,-936 289.5,-957 644.5,-957 644.5,-936 289.5,-936"/>
<text text-anchor="start" x="292.5" y="-942.8" font-family="Times,serif" font-size="14.00">Abstract Observation core &#45; AbstractObservation</text>
<polygon fill="none" stroke="black" points="289.5,-913 289.5,-934 644.5,-934 644.5,-913 289.5,-913"/>
<text text-anchor="start" x="417" y="-919.8" font-family="Times,serif" font-size="14.00">Logical model</text>
<polygon fill="none" stroke="black" points="286,-910.5 286,-983.5 647,-983.5 647,-910.5 286,-910.5"/>
</g>
<!-- /req/obs&#45;basic/Observation&#45;&gt;/req/obs&#45;core/AbstractObservation -->
<g id="edge1" class="edge">
<title>/req/obs&#45;basic/Observation&#45;&gt;/req/obs&#45;core/AbstractObservation</title>
<path fill="none" stroke="black" stroke-dasharray="5,2" d="M250.01,-947C258.45,-947 267.05,-947 275.73,-947"/>
<polygon fill="black" stroke="black" points="275.94,-950.5 285.94,-947 275.94,-943.5 275.94,-950.5"/>
</g>
<!-- /req/obs&#45;core/AbstractObservation&#45;&gt;/req/obs&#45;core/AbstractObservation/resultTime&#45;type -->
<g id="edge2" class="edge">
<title>/req/obs&#45;core/AbstractObservation&#45;&gt;/req/obs&#45;core/AbstractObservation/resultTime&#45;type</title>
<path fill="none" stroke="black" d="M491.8,-983.54C548.16,-1068.27 683,-1271 683,-1271 683,-1271 712.49,-1274.4 750.53,-1278.79"/>
<polygon fill="black" stroke="black" points="750.58,-1282.32 760.92,-1279.99 751.39,-1275.37 750.58,-1282.32"/>
</g>
<!-- /req/obs&#45;core/AbstractObservation&#45;&gt;/req/obs&#45;core/AbstractObservation/validTime&#45;type -->
<g id="edge3" class="edge">
<title>/req/obs&#45;core/AbstractObservation&#45;&gt;/req/obs&#45;core/AbstractObservation/validTime&#45;type</title>
<path fill="none" stroke="black" d="M496.79,-983.69C555.71,-1057.52 683,-1217 683,-1217 683,-1217 712.49,-1220.4 750.53,-1224.79"/>
<polygon fill="black" stroke="black" points="750.58,-1228.32 760.92,-1225.99 751.39,-1221.37 750.58,-1228.32"/>
</g>
<!-- /req/obs&#45;core/AbstractObservation&#45;&gt;/req/obs&#45;cpt/Observation/phenomenonTime&#45;card -->
<g id="edge4" class="edge">
<title>/req/obs&#45;core/AbstractObservation&#45;&gt;/req/obs&#45;cpt/Observation/phenomenonTime&#45;card</title>
<path fill="none" stroke="black" d="M504.06,-983.64C565.54,-1045.27 683,-1163 683,-1163 683,-1163 712.49,-1166.4 750.53,-1170.79"/>
<polygon fill="black" stroke="black" points="750.58,-1174.32 760.92,-1171.99 751.39,-1167.37 750.58,-1174.32"/>
</g>
<!-- /req/obs&#45;core/AbstractObservation&#45;&gt;/req/obs&#45;cpt/Observation/resultTime&#45;card -->
<g id="edge5" class="edge">
<title>/req/obs&#45;core/AbstractObservation&#45;&gt;/req/obs&#45;cpt/Observation/resultTime&#45;card</title>
<path fill="none" stroke="black" d="M516.13,-983.56C579.69,-1031.34 683,-1109 683,-1109 683,-1109 713.34,-1112.5 752.18,-1116.98"/>
<polygon fill="black" stroke="black" points="751.89,-1120.47 762.22,-1118.14 752.69,-1113.52 751.89,-1120.47"/>
</g>
<!-- /req/obs&#45;core/AbstractObservation&#45;&gt;/req/obs&#45;core/AbstractObservation/FoI&#45;con -->
<g id="edge6" class="edge">
<title>/req/obs&#45;core/AbstractObservation&#45;&gt;/req/obs&#45;core/AbstractObservation/FoI&#45;con</title>
<path fill="none" stroke="black" d="M540.46,-983.56C602.98,-1014.9 683,-1055 683,-1055 683,-1055 712.49,-1058.4 750.53,-1062.79"/>
<polygon fill="black" stroke="black" points="750.58,-1066.32 760.92,-1063.99 751.39,-1059.37 750.58,-1066.32"/>
</g>
<!-- /req/obs&#45;core/AbstractObservation&#45;&gt;/req/obs&#45;cpt/Observation/observedProperty&#45;card -->
<g id="edge7" class="edge">
<title>/req/obs&#45;core/AbstractObservation&#45;&gt;/req/obs&#45;cpt/Observation/observedProperty&#45;card</title>
<path fill="none" stroke="black" d="M613.33,-983.54C651.9,-993.21 683,-1001 683,-1001 683,-1001 712.49,-1004.4 750.53,-1008.79"/>
<polygon fill="black" stroke="black" points="750.58,-1012.32 760.92,-1009.99 751.39,-1005.37 750.58,-1012.32"/>
</g>
<!-- /req/obs&#45;core/AbstractObservation&#45;&gt;/req/obs&#45;cpt/Observation/procedure&#45;card -->
<g id="edge8" class="edge">
<title>/req/obs&#45;core/AbstractObservation&#45;&gt;/req/obs&#45;cpt/Observation/procedure&#45;card</title>
<path fill="none" stroke="black" d="M647.09,-957.79C682.59,-959.92 719.66,-962.15 754.55,-964.24"/>
<polygon fill="black" stroke="black" points="754.62,-967.75 764.82,-964.86 755.04,-960.77 754.62,-967.75"/>
</g>
<!-- /req/obs&#45;core/AbstractObservation&#45;&gt;/req/obs&#45;cpt/Observation/result&#45;card -->
<g id="edge9" class="edge">
<title>/req/obs&#45;core/AbstractObservation&#45;&gt;/req/obs&#45;cpt/Observation/result&#45;card</title>
<path fill="none" stroke="black" d="M647.09,-936.21C687.92,-933.76 730.82,-931.18 770.11,-928.82"/>
<polygon fill="black" stroke="black" points="770.51,-932.31 780.28,-928.21 770.09,-925.32 770.51,-932.31"/>
</g>
<!-- /req/obs&#45;core/AbstractObservation&#45;&gt;/req/obs&#45;core/AbstractObservation/parameterName&#45;card -->
<g id="edge10" class="edge">
<title>/req/obs&#45;core/AbstractObservation&#45;&gt;/req/obs&#45;core/AbstractObservation/parameterName&#45;card</title>
<path fill="none" stroke="black" d="M613.33,-910.46C651.9,-900.79 683,-893 683,-893 683,-893 712.49,-889.6 750.53,-885.21"/>
<polygon fill="black" stroke="black" points="751.39,-888.63 760.92,-884.01 750.58,-881.68 751.39,-888.63"/>
</g>
<!-- /req/obs&#45;core/AbstractObservation&#45;&gt;/rec/obs&#45;cpt/Observation/observedProperty&#45;con -->
<g id="edge11" class="edge">
<title>/req/obs&#45;core/AbstractObservation&#45;&gt;/rec/obs&#45;cpt/Observation/observedProperty&#45;con</title>
<path fill="none" stroke="black" stroke-dasharray="1,5" d="M540.46,-910.44C602.98,-879.1 683,-839 683,-839 683,-839 712.49,-835.6 750.53,-831.21"/>
<polygon fill="black" stroke="black" points="751.39,-834.63 760.92,-830.01 750.58,-827.68 751.39,-834.63"/>
</g>
<!-- /req/obs&#45;core/AbstractObservation&#45;&gt;/rec/obs&#45;cpt/Observation/observerhost&#45;con -->
<g id="edge12" class="edge">
<title>/req/obs&#45;core/AbstractObservation&#45;&gt;/rec/obs&#45;cpt/Observation/observerhost&#45;con</title>
<path fill="none" stroke="black" stroke-dasharray="1,5" d="M516.13,-910.44C579.69,-862.66 683,-785 683,-785 683,-785 712.49,-781.6 750.53,-777.21"/>
<polygon fill="black" stroke="black" points="751.39,-780.63 760.92,-776.01 750.58,-773.68 751.39,-780.63"/>
</g>
<!-- /req/obs&#45;core/AbstractObservation&#45;&gt;/rec/obs&#45;cpt/Observation/procedure&#45;con -->
<g id="edge13" class="edge">
<title>/req/obs&#45;core/AbstractObservation&#45;&gt;/rec/obs&#45;cpt/Observation/procedure&#45;con</title>
<path fill="none" stroke="black" stroke-dasharray="1,5" d="M504.06,-910.36C565.54,-848.73 683,-731 683,-731 683,-731 716.88,-727.09 758.86,-722.25"/>
<polygon fill="black" stroke="black" points="759.27,-725.72 768.8,-721.1 758.47,-718.77 759.27,-725.72"/>
</g>
<!-- /req/obs&#45;core/AbstractObservation&#45;&gt;/rec/obs&#45;cpt/Observation/result&#45;con -->
<g id="edge14" class="edge">
<title>/req/obs&#45;core/AbstractObservation&#45;&gt;/rec/obs&#45;cpt/Observation/result&#45;con</title>
<path fill="none" stroke="black" stroke-dasharray="1,5" d="M496.79,-910.31C555.71,-836.48 683,-677 683,-677 683,-677 725.41,-672.11 774.13,-666.49"/>
<polygon fill="black" stroke="black" points="774.74,-669.94 784.27,-665.31 773.94,-662.98 774.74,-669.94"/>
</g>
<!-- /req/obs&#45;core/AbstractObservationCharacteristics -->
<g id="node37" class="node">
<title>/req/obs&#45;core/AbstractObservationCharacteristics</title>
<polygon fill="none" stroke="black" points="686,-589 686,-610 1150,-610 1150,-589 686,-589"/>
<text text-anchor="start" x="740.5" y="-595.8" font-family="Times,serif" font-size="14.00">/req/obs&#45;core/AbstractObservationCharacteristics</text>
<polygon fill="none" stroke="black" points="686,-566 686,-587 1150,-587 1150,-566 686,-566"/>
<text text-anchor="start" x="689" y="-572.8" font-family="Times,serif" font-size="14.00">Abstract Observation core &#45; AbstractObservationCharacteristics</text>
<polygon fill="none" stroke="black" points="686,-543 686,-564 1150,-564 1150,-543 686,-543"/>
<text text-anchor="start" x="868" y="-549.8" font-family="Times,serif" font-size="14.00">Logical model</text>
<polygon fill="none" stroke="black" points="683,-540.5 683,-613.5 1153,-613.5 1153,-540.5 683,-540.5"/>
</g>
<!-- /req/obs&#45;core/AbstractObservation&#45;&gt;/req/obs&#45;core/AbstractObservationCharacteristics -->
<g id="edge15" class="edge">
<title>/req/obs&#45;core/AbstractObservation&#45;&gt;/req/obs&#45;core/AbstractObservationCharacteristics</title>
<path fill="none" stroke="black" stroke-dasharray="5,2" d="M491.8,-910.46C548.16,-825.73 683,-623 683,-623 683,-623 698.41,-619.97 721.32,-615.47"/>
<polygon fill="black" stroke="black" points="722.06,-618.89 731.2,-613.52 720.71,-612.02 722.06,-618.89"/>
</g>
<!-- /req/obs&#45;core/AbstractObservationCharacteristics&#45;&gt;/req/obs&#45;core/AbstractObservationCharacteristics/AbstractObservationCharacteristics&#45;sem -->
<g id="edge16" class="edge">
<title>/req/obs&#45;core/AbstractObservationCharacteristics&#45;&gt;/req/obs&#45;core/AbstractObservationCharacteristics/AbstractObservationCharacteristics&#45;sem</title>
<path fill="none" stroke="black" d="M1104.8,-613.52C1133.05,-619.08 1153,-623 1153,-623 1153,-623 1189,-1036 1189,-1036 1189,-1036 1233.12,-1039.59 1289.17,-1044.16"/>
<polygon fill="black" stroke="black" points="1289.13,-1047.67 1299.38,-1044.99 1289.7,-1040.69 1289.13,-1047.67"/>
</g>
<!-- /req/obs&#45;core/AbstractObservationCharacteristics&#45;&gt;/req/obs&#45;core/AbstractObservationCharacteristics/type&#45;sem -->
<g id="edge17" class="edge">
<title>/req/obs&#45;core/AbstractObservationCharacteristics&#45;&gt;/req/obs&#45;core/AbstractObservationCharacteristics/type&#45;sem</title>
<path fill="none" stroke="black" d="M1104.8,-613.52C1133.05,-619.08 1153,-623 1153,-623 1153,-623 1189,-982 1189,-982 1189,-982 1234.2,-985.68 1291.22,-990.33"/>
<polygon fill="black" stroke="black" points="1290.98,-993.82 1301.23,-991.14 1291.55,-986.84 1290.98,-993.82"/>
</g>
<!-- /req/obs&#45;core/AbstractObservationCharacteristics&#45;&gt;/req/obs&#45;core/AbstractObservationCharacteristics/parameter&#45;sem -->
<g id="edge18" class="edge">
<title>/req/obs&#45;core/AbstractObservationCharacteristics&#45;&gt;/req/obs&#45;core/AbstractObservationCharacteristics/parameter&#45;sem</title>
<path fill="none" stroke="black" d="M1104.8,-613.52C1133.05,-619.08 1153,-623 1153,-623 1153,-623 1189,-928 1189,-928 1189,-928 1233.12,-931.59 1289.17,-936.16"/>
<polygon fill="black" stroke="black" points="1289.13,-939.67 1299.38,-936.99 1289.7,-932.69 1289.13,-939.67"/>
</g>
<!-- /req/obs&#45;core/AbstractObservationCharacteristics&#45;&gt;/req/obs&#45;core/AbstractObservationCharacteristics/resultQuality&#45;sem -->
<g id="edge19" class="edge">
<title>/req/obs&#45;core/AbstractObservationCharacteristics&#45;&gt;/req/obs&#45;core/AbstractObservationCharacteristics/resultQuality&#45;sem</title>
<path fill="none" stroke="black" d="M1104.8,-613.52C1133.05,-619.08 1153,-623 1153,-623 1153,-623 1189,-874 1189,-874 1189,-874 1233.12,-877.59 1289.17,-882.16"/>
<polygon fill="black" stroke="black" points="1289.13,-885.67 1299.38,-882.99 1289.7,-878.69 1289.13,-885.67"/>
</g>
<!-- /req/obs&#45;core/AbstractObservationCharacteristics&#45;&gt;/req/obs&#45;cpt/Observation/phenomenonTime&#45;sem -->
<g id="edge20" class="edge">
<title>/req/obs&#45;core/AbstractObservationCharacteristics&#45;&gt;/req/obs&#45;cpt/Observation/phenomenonTime&#45;sem</title>
<path fill="none" stroke="black" d="M1104.8,-613.52C1133.05,-619.08 1153,-623 1153,-623 1153,-623 1189,-820 1189,-820 1189,-820 1257.39,-825.57 1332.05,-831.65"/>
<polygon fill="black" stroke="black" points="1331.88,-835.15 1342.14,-832.47 1332.45,-828.17 1331.88,-835.15"/>
</g>
<!-- /req/obs&#45;core/AbstractObservationCharacteristics&#45;&gt;/req/obs&#45;cpt/Observation/resultTime&#45;sem -->
<g id="edge21" class="edge">
<title>/req/obs&#45;core/AbstractObservationCharacteristics&#45;&gt;/req/obs&#45;cpt/Observation/resultTime&#45;sem</title>
<path fill="none" stroke="black" d="M1104.8,-613.52C1133.05,-619.08 1153,-623 1153,-623 1153,-623 1189,-766 1189,-766 1189,-766 1273.5,-772.88 1357.17,-779.7"/>
<polygon fill="black" stroke="black" points="1357.11,-783.2 1367.36,-780.53 1357.68,-776.23 1357.11,-783.2"/>
</g>
<!-- /req/obs&#45;core/AbstractObservationCharacteristics&#45;&gt;/req/obs&#45;cpt/Observation/validTime&#45;sem -->
<g id="edge22" class="edge">
<title>/req/obs&#45;core/AbstractObservationCharacteristics&#45;&gt;/req/obs&#45;cpt/Observation/validTime&#45;sem</title>
<path fill="none" stroke="black" d="M1104.8,-613.52C1133.05,-619.08 1153,-623 1153,-623 1153,-623 1189,-712 1189,-712 1189,-712 1275.89,-719.08 1360.69,-725.98"/>
<polygon fill="black" stroke="black" points="1360.5,-729.48 1370.75,-726.8 1361.07,-722.5 1360.5,-729.48"/>
</g>
<!-- /req/obs&#45;core/AbstractObservationCharacteristics&#45;&gt;/req/obs&#45;cpt/Observation/featureOfInterest&#45;sem -->
<g id="edge23" class="edge">
<title>/req/obs&#45;core/AbstractObservationCharacteristics&#45;&gt;/req/obs&#45;cpt/Observation/featureOfInterest&#45;sem</title>
<path fill="none" stroke="black" d="M1104.8,-613.52C1133.05,-619.08 1153,-623 1153,-623 1153,-623 1189,-658 1189,-658 1189,-658 1257.96,-663.62 1332.97,-669.73"/>
<polygon fill="black" stroke="black" points="1332.85,-673.23 1343.1,-670.55 1333.42,-666.25 1332.85,-673.23"/>
</g>
<!-- /req/obs&#45;core/AbstractObservationCharacteristics&#45;&gt;/req/obs&#45;core/AbstractObservationCharacteristics/pFoI&#45;sem -->
<g id="edge24" class="edge">
<title>/req/obs&#45;core/AbstractObservationCharacteristics&#45;&gt;/req/obs&#45;core/AbstractObservationCharacteristics/pFoI&#45;sem</title>
<path fill="none" stroke="black" d="M1153.15,-600.41C1174.9,-602.59 1189,-604 1189,-604 1189,-604 1234.2,-607.68 1291.22,-612.33"/>
<polygon fill="black" stroke="black" points="1290.98,-615.82 1301.23,-613.14 1291.55,-608.84 1290.98,-615.82"/>
</g>
<!-- /req/obs&#45;core/AbstractObservationCharacteristics&#45;&gt;/req/obs&#45;core/AbstractObservationCharacteristics/uFoI&#45;sem -->
<g id="edge25" class="edge">
<title>/req/obs&#45;core/AbstractObservationCharacteristics&#45;&gt;/req/obs&#45;core/AbstractObservationCharacteristics/uFoI&#45;sem</title>
<path fill="none" stroke="black" d="M1153.28,-577C1198.51,-577 1245.86,-577 1290.94,-577"/>
<polygon fill="black" stroke="black" points="1291.13,-580.5 1301.13,-577 1291.13,-573.5 1291.13,-580.5"/>
</g>
<!-- /req/obs&#45;core/AbstractObservationCharacteristics&#45;&gt;/req/obs&#45;cpt/Observation/observedProperty&#45;sem -->
<g id="edge26" class="edge">
<title>/req/obs&#45;core/AbstractObservationCharacteristics&#45;&gt;/req/obs&#45;cpt/Observation/observedProperty&#45;sem</title>
<path fill="none" stroke="black" d="M1153.15,-553.59C1174.9,-551.41 1189,-550 1189,-550 1189,-550 1257.11,-544.45 1331.59,-538.39"/>
<polygon fill="black" stroke="black" points="1331.97,-541.87 1341.65,-537.57 1331.4,-534.89 1331.97,-541.87"/>
</g>
<!-- /req/obs&#45;core/AbstractObservationCharacteristics&#45;&gt;/req/obs&#45;cpt/Observation/result&#45;sem -->
<g id="edge27" class="edge">
<title>/req/obs&#45;core/AbstractObservationCharacteristics&#45;&gt;/req/obs&#45;cpt/Observation/result&#45;sem</title>
<path fill="none" stroke="black" d="M1040.97,-540.41C1112.52,-518.94 1189,-496 1189,-496 1189,-496 1285.77,-488.12 1374.74,-480.87"/>
<polygon fill="black" stroke="black" points="1375.03,-484.36 1384.71,-480.06 1374.46,-477.38 1375.03,-484.36"/>
</g>
<!-- /req/obs&#45;core/AbstractObservationCharacteristics&#45;&gt;/req/obs&#45;cpt/Observation/procedure&#45;sem -->
<g id="edge28" class="edge">
<title>/req/obs&#45;core/AbstractObservationCharacteristics&#45;&gt;/req/obs&#45;cpt/Observation/procedure&#45;sem</title>
<path fill="none" stroke="black" d="M992.07,-540.47C1072.03,-500.49 1189,-442 1189,-442 1189,-442 1274.93,-435 1359.29,-428.13"/>
<polygon fill="black" stroke="black" points="1359.62,-431.62 1369.3,-427.31 1359.05,-424.64 1359.62,-431.62"/>
</g>
<!-- /req/obs&#45;core/AbstractObservationCharacteristics&#45;&gt;/req/obs&#45;cpt/Observation/observer&#45;sem -->
<g id="edge29" class="edge">
<title>/req/obs&#45;core/AbstractObservationCharacteristics&#45;&gt;/req/obs&#45;cpt/Observation/observer&#45;sem</title>
<path fill="none" stroke="black" d="M971.38,-540.33C1049.9,-485.37 1189,-388 1189,-388 1189,-388 1278.13,-380.74 1363.96,-373.75"/>
<polygon fill="black" stroke="black" points="1364.45,-377.22 1374.13,-372.92 1363.88,-370.24 1364.45,-377.22"/>
</g>
<!-- /req/obs&#45;core/AbstractObservationCharacteristics&#45;&gt;/req/obs&#45;cpt/Observation/host&#45;sem -->
<g id="edge30" class="edge">
<title>/req/obs&#45;core/AbstractObservationCharacteristics&#45;&gt;/req/obs&#45;cpt/Observation/host&#45;sem</title>
<path fill="none" stroke="black" d="M959.71,-540.36C1035.14,-472.47 1189,-334 1189,-334 1189,-334 1289.86,-325.79 1380.31,-318.42"/>
<polygon fill="black" stroke="black" points="1380.75,-321.89 1390.43,-317.59 1380.18,-314.92 1380.75,-321.89"/>
</g>
<!-- /req/obs&#45;core/AbstractObservationCharacteristics&#45;&gt;/req/obs&#45;cpt/gen/relatedObservation&#45;sem -->
<g id="edge31" class="edge">
<title>/req/obs&#45;core/AbstractObservationCharacteristics&#45;&gt;/req/obs&#45;cpt/gen/relatedObservation&#45;sem</title>
<path fill="none" stroke="black" d="M952.38,-540.28C1024.62,-460.82 1189,-280 1189,-280 1189,-280 1273.5,-273.12 1357.17,-266.3"/>
<polygon fill="black" stroke="black" points="1357.68,-269.77 1367.36,-265.47 1357.11,-262.8 1357.68,-269.77"/>
</g>
<!-- /req/obs&#45;core/AbstractObservationCharacteristics&#45;&gt;/req/obs&#45;core/gen/metadata&#45;sem -->
<g id="edge32" class="edge">
<title>/req/obs&#45;core/AbstractObservationCharacteristics&#45;&gt;/req/obs&#45;core/gen/metadata&#45;sem</title>
<path fill="none" stroke="black" d="M947.13,-540.43C1016.28,-450.53 1189,-226 1189,-226 1189,-226 1296.01,-217.28 1388.43,-209.76"/>
<polygon fill="black" stroke="black" points="1388.79,-213.24 1398.47,-208.94 1388.22,-206.26 1388.79,-213.24"/>
</g>
<!-- /req/obs&#45;core/AbstractObservationCharacteristics&#45;&gt;/rec/obs&#45;core/AbstractObservationCharacteristics/uFoI -->
<g id="edge33" class="edge">
<title>/req/obs&#45;core/AbstractObservationCharacteristics&#45;&gt;/rec/obs&#45;core/AbstractObservationCharacteristics/uFoI</title>
<path fill="none" stroke="black" stroke-dasharray="1,5" d="M943.44,-540.34C1009.9,-440.65 1189,-172 1189,-172 1189,-172 1243.62,-167.55 1308.52,-162.27"/>
<polygon fill="black" stroke="black" points="1308.91,-165.75 1318.59,-161.45 1308.34,-158.77 1308.91,-165.75"/>
</g>
<!-- /req/obs&#45;core/NamedValue -->
<g id="node38" class="node">
<title>/req/obs&#45;core/NamedValue</title>
<polygon fill="none" stroke="black" points="1372.5,-84 1372.5,-105 1670.5,-105 1670.5,-84 1372.5,-84"/>
<text text-anchor="start" x="1427.5" y="-90.8" font-family="Times,serif" font-size="14.00">/req/obs&#45;core/NamedValue</text>
<polygon fill="none" stroke="black" points="1372.5,-61 1372.5,-82 1670.5,-82 1670.5,-61 1372.5,-61"/>
<text text-anchor="start" x="1375.5" y="-67.8" font-family="Times,serif" font-size="14.00">Abstract Observation core &#45; NamedValue</text>
<polygon fill="none" stroke="black" points="1372.5,-38 1372.5,-59 1670.5,-59 1670.5,-38 1372.5,-38"/>
<text text-anchor="start" x="1471.5" y="-44.8" font-family="Times,serif" font-size="14.00">Logical model</text>
<polygon fill="none" stroke="black" points="1369.5,-35.5 1369.5,-108.5 1673.5,-108.5 1673.5,-35.5 1369.5,-35.5"/>
</g>
<!-- /req/obs&#45;core/AbstractObservationCharacteristics&#45;&gt;/req/obs&#45;core/NamedValue -->
<g id="edge34" class="edge">
<title>/req/obs&#45;core/AbstractObservationCharacteristics&#45;&gt;/req/obs&#45;core/NamedValue</title>
<path fill="none" stroke="black" stroke-dasharray="5,2" d="M940.64,-540.21C1004.71,-431.3 1189,-118 1189,-118 1189,-118 1274.93,-106.08 1359.29,-94.37"/>
<polygon fill="black" stroke="black" points="1359.88,-97.82 1369.3,-92.98 1358.92,-90.89 1359.88,-97.82"/>
</g>
<!-- /req/obs&#45;core/NamedValue&#45;&gt;/req/obs&#45;core/NamedValue/NamedValue&#45;sem -->
<g id="edge35" class="edge">
<title>/req/obs&#45;core/NamedValue&#45;&gt;/req/obs&#45;core/NamedValue/NamedValue&#45;sem</title>
<path fill="none" stroke="black" d="M1673.67,-87.33C1737.87,-93.84 1813.11,-101.47 1879.73,-108.23"/>
<polygon fill="black" stroke="black" points="1879.61,-111.73 1889.92,-109.26 1880.32,-104.77 1879.61,-111.73"/>
</g>
<!-- /req/obs&#45;core/NamedValue&#45;&gt;/req/obs&#45;core/NamedValue/name&#45;sem -->
<g id="edge36" class="edge">
<title>/req/obs&#45;core/NamedValue&#45;&gt;/req/obs&#45;core/NamedValue/name&#45;sem</title>
<path fill="none" stroke="black" d="M1673.67,-72C1746.2,-72 1832.85,-72 1905.21,-72"/>
<polygon fill="black" stroke="black" points="1905.32,-75.5 1915.32,-72 1905.32,-68.5 1905.32,-75.5"/>
</g>
<!-- /req/obs&#45;core/NamedValue&#45;&gt;/req/obs&#45;core/NamedValue/value&#45;sem -->
<g id="edge37" class="edge">
<title>/req/obs&#45;core/NamedValue&#45;&gt;/req/obs&#45;core/NamedValue/value&#45;sem</title>
<path fill="none" stroke="black" d="M1673.67,-56.67C1746.2,-49.31 1832.85,-40.53 1905.21,-33.19"/>
<polygon fill="black" stroke="black" points="1905.72,-36.66 1915.32,-32.16 1905.02,-29.69 1905.72,-36.66"/>
</g>
</g>
</svg>
