<?xml version="1.0" encoding="UTF-8" standalone="no"?>
<!DOCTYPE svg PUBLIC "-//W3C//DTD SVG 1.1//EN"
 "http://www.w3.org/Graphics/SVG/1.1/DTD/svg11.dtd">
<!-- Generated by graphviz version 2.43.0 (0)
 -->
<!-- Title: G Pages: 1 -->
<svg width="1062pt" height="530pt"
 viewBox="0.00 0.00 1062.00 530.00" xmlns="http://www.w3.org/2000/svg" xmlns:xlink="http://www.w3.org/1999/xlink">
<g id="graph0" class="graph" transform="scale(1 1) rotate(0) translate(4 526)">
<title>G</title>
<polygon fill="white" stroke="transparent" points="-4,4 -4,-526 1058,-526 1058,4 -4,4"/>
<!-- /req/sam&#45;core/AbstractSample/sampleType&#45;sem -->
<g id="node1" class="node">
<title>/req/sam&#45;core/AbstractSample/sampleType&#45;sem</title>
<polygon fill="none" stroke="black" points="686,-514 330,-514 330,-478 686,-478 686,-514"/>
<text text-anchor="middle" x="508" y="-492.3" font-family="Times,serif" font-size="14.00">/req/sam&#45;core/AbstractSample/sampleType&#45;sem</text>
</g>
<!-- /req/sam&#45;core/AbstractSample/parameter&#45;sem -->
<g id="node2" class="node">
<title>/req/sam&#45;core/AbstractSample/parameter&#45;sem</title>
<polygon fill="none" stroke="black" points="681,-460 335,-460 335,-424 681,-424 681,-460"/>
<text text-anchor="middle" x="508" y="-438.3" font-family="Times,serif" font-size="14.00">/req/sam&#45;core/AbstractSample/parameter&#45;sem</text>
</g>
<!-- /req/obs&#45;core/gen/metadata&#45;sem -->
<g id="node3" class="node">
<title>/req/obs&#45;core/gen/metadata&#45;sem</title>
<polygon fill="none" stroke="black" points="631,-406 385,-406 385,-370 631,-370 631,-406"/>
<text text-anchor="middle" x="508" y="-384.3" font-family="Times,serif" font-size="14.00">/req/obs&#45;core/gen/metadata&#45;sem</text>
</g>
<!-- /req/sam&#45;cpt/Sample/Sample&#45;sem -->
<g id="node4" class="node">
<title>/req/sam&#45;cpt/Sample/Sample&#45;sem</title>
<polygon fill="none" stroke="black" points="1015.5,-522 760.5,-522 760.5,-486 1015.5,-486 1015.5,-522"/>
<text text-anchor="middle" x="888" y="-500.3" font-family="Times,serif" font-size="14.00">/req/sam&#45;cpt/Sample/Sample&#45;sem</text>
</g>
<!-- /req/sam&#45;cpt/Sample/sampling&#45;sem -->
<g id="node5" class="node">
<title>/req/sam&#45;cpt/Sample/sampling&#45;sem</title>
<polygon fill="none" stroke="black" points="1021.5,-468 754.5,-468 754.5,-432 1021.5,-432 1021.5,-468"/>
<text text-anchor="middle" x="888" y="-446.3" font-family="Times,serif" font-size="14.00">/req/sam&#45;cpt/Sample/sampling&#45;sem</text>
</g>
<!-- /req/sam&#45;cpt/Sample/preparationStep&#45;sem -->
<g id="node6" class="node">
<title>/req/sam&#45;cpt/Sample/preparationStep&#45;sem</title>
<polygon fill="none" stroke="black" points="1047.5,-414 728.5,-414 728.5,-378 1047.5,-378 1047.5,-414"/>
<text text-anchor="middle" x="888" y="-392.3" font-family="Times,serif" font-size="14.00">/req/sam&#45;cpt/Sample/preparationStep&#45;sem</text>
</g>
<!-- /req/sam&#45;cpt/Sample/sampledFeature&#45;sem -->
<g id="node7" class="node">
<title>/req/sam&#45;cpt/Sample/sampledFeature&#45;sem</title>
<polygon fill="none" stroke="black" points="1046.5,-360 729.5,-360 729.5,-324 1046.5,-324 1046.5,-360"/>
<text text-anchor="middle" x="888" y="-338.3" font-family="Times,serif" font-size="14.00">/req/sam&#45;cpt/Sample/sampledFeature&#45;sem</text>
</g>
<!-- /req/sam&#45;cpt/Sample/sampledFeature&#45;card -->
<g id="node8" class="node">
<title>/req/sam&#45;cpt/Sample/sampledFeature&#45;card</title>
<polygon fill="none" stroke="black" points="1048,-306 728,-306 728,-270 1048,-270 1048,-306"/>
<text text-anchor="middle" x="888" y="-284.3" font-family="Times,serif" font-size="14.00">/req/sam&#45;cpt/Sample/sampledFeature&#45;card</text>
</g>
<!-- /req/sam&#45;cpt/Sample/relatedSample&#45;sem -->
<g id="node9" class="node">
<title>/req/sam&#45;cpt/Sample/relatedSample&#45;sem</title>
<polygon fill="none" stroke="black" points="1041,-252 735,-252 735,-216 1041,-216 1041,-252"/>
<text text-anchor="middle" x="888" y="-230.3" font-family="Times,serif" font-size="14.00">/req/sam&#45;cpt/Sample/relatedSample&#45;sem</text>
</g>
<!-- /req/obs&#45;cpt/gen/relatedObservation&#45;sem -->
<g id="node10" class="node">
<title>/req/obs&#45;cpt/gen/relatedObservation&#45;sem</title>
<polygon fill="none" stroke="black" points="1042,-198 734,-198 734,-162 1042,-162 1042,-198"/>
<text text-anchor="middle" x="888" y="-176.3" font-family="Times,serif" font-size="14.00">/req/obs&#45;cpt/gen/relatedObservation&#45;sem</text>
</g>
<!-- /req/obs&#45;core/NamedValue/NamedValue&#45;sem -->
<g id="node11" class="node">
<title>/req/obs&#45;core/NamedValue/NamedValue&#45;sem</title>
<polygon fill="none" stroke="black" points="1054,-144 722,-144 722,-108 1054,-108 1054,-144"/>
<text text-anchor="middle" x="888" y="-122.3" font-family="Times,serif" font-size="14.00">/req/obs&#45;core/NamedValue/NamedValue&#45;sem</text>
</g>
<!-- /req/obs&#45;core/NamedValue/name&#45;sem -->
<g id="node12" class="node">
<title>/req/obs&#45;core/NamedValue/name&#45;sem</title>
<polygon fill="none" stroke="black" points="1028.5,-90 747.5,-90 747.5,-54 1028.5,-54 1028.5,-90"/>
<text text-anchor="middle" x="888" y="-68.3" font-family="Times,serif" font-size="14.00">/req/obs&#45;core/NamedValue/name&#45;sem</text>
</g>
<!-- /req/obs&#45;core/NamedValue/value&#45;sem -->
<g id="node13" class="node">
<title>/req/obs&#45;core/NamedValue/value&#45;sem</title>
<polygon fill="none" stroke="black" points="1028.5,-36 747.5,-36 747.5,0 1028.5,0 1028.5,-36"/>
<text text-anchor="middle" x="888" y="-14.3" font-family="Times,serif" font-size="14.00">/req/obs&#45;core/NamedValue/value&#45;sem</text>
</g>
<!-- /req/sam&#45;core/AbstractSample -->
<g id="node14" class="node">
<title>/req/sam&#45;core/AbstractSample</title>
<polygon fill="none" stroke="black" points="3,-400 3,-421 291,-421 291,-400 3,-400"/>
<text text-anchor="start" x="38.5" y="-406.8" font-family="Times,serif" font-size="14.00">/req/sam&#45;core/AbstractSample</text>
<polygon fill="none" stroke="black" points="3,-377 3,-398 291,-398 291,-377 3,-377"/>
<text text-anchor="start" x="6" y="-383.8" font-family="Times,serif" font-size="14.00">Abstract Sample core &#45; AbstractSample</text>
<polygon fill="none" stroke="black" points="3,-354 3,-375 291,-375 291,-354 3,-354"/>
<text text-anchor="start" x="97" y="-360.8" font-family="Times,serif" font-size="14.00">Logical model</text>
<polygon fill="none" stroke="black" points="0,-351.5 0,-424.5 294,-424.5 294,-351.5 0,-351.5"/>
</g>
<!-- /req/sam&#45;core/AbstractSample&#45;&gt;/req/sam&#45;core/AbstractSample/sampleType&#45;sem -->
<g id="edge1" class="edge">
<title>/req/sam&#45;core/AbstractSample&#45;&gt;/req/sam&#45;core/AbstractSample/sampleType&#45;sem</title>
<path fill="none" stroke="black" d="M230.21,-424.59C278.45,-446.06 330,-469 330,-469 330,-469 351.18,-472.23 378.89,-476.46"/>
<polygon fill="black" stroke="black" points="378.52,-479.94 388.94,-477.99 379.58,-473.02 378.52,-479.94"/>
</g>
<!-- /req/sam&#45;core/AbstractSample&#45;&gt;/req/sam&#45;core/AbstractSample/parameter&#45;sem -->
<g id="edge2" class="edge">
<title>/req/sam&#45;core/AbstractSample&#45;&gt;/req/sam&#45;core/AbstractSample/parameter&#45;sem</title>
<path fill="none" stroke="black" d="M294.02,-409.96C321.47,-414.09 350.01,-418.39 376.94,-422.44"/>
<polygon fill="black" stroke="black" points="376.77,-425.95 387.18,-423.98 377.81,-419.03 376.77,-425.95"/>
</g>
<!-- /req/sam&#45;core/AbstractSample&#45;&gt;/req/obs&#45;core/gen/metadata&#45;sem -->
<g id="edge3" class="edge">
<title>/req/sam&#45;core/AbstractSample&#45;&gt;/req/obs&#45;core/gen/metadata&#45;sem</title>
<path fill="none" stroke="black" d="M294.02,-388C320.79,-388 348.58,-388 374.91,-388"/>
<polygon fill="black" stroke="black" points="374.93,-391.5 384.93,-388 374.93,-384.5 374.93,-391.5"/>
</g>
<!-- /req/sam&#45;cpt/Sample -->
<g id="node15" class="node">
<title>/req/sam&#45;cpt/Sample</title>
<polygon fill="none" stroke="black" points="403,-327 403,-348 614,-348 614,-327 403,-327"/>
<text text-anchor="start" x="434.5" y="-333.8" font-family="Times,serif" font-size="14.00">/req/sam&#45;cpt/Sample</text>
<polygon fill="none" stroke="black" points="403,-304 403,-325 614,-325 614,-304 403,-304"/>
<text text-anchor="start" x="406" y="-310.8" font-family="Times,serif" font-size="14.00">Conceptual Sample &#45; Sample</text>
<polygon fill="none" stroke="black" points="403,-281 403,-302 614,-302 614,-281 403,-281"/>
<text text-anchor="start" x="444" y="-287.8" font-family="Times,serif" font-size="14.00">Conceptual model</text>
<polygon fill="none" stroke="black" points="399.5,-278.5 399.5,-351.5 616.5,-351.5 616.5,-278.5 399.5,-278.5"/>
</g>
<!-- /req/sam&#45;core/AbstractSample&#45;&gt;/req/sam&#45;cpt/Sample -->
<g id="edge4" class="edge">
<title>/req/sam&#45;core/AbstractSample&#45;&gt;/req/sam&#45;cpt/Sample</title>
<path fill="none" stroke="black" stroke-dasharray="5,2" d="M294.02,-358.31C325.81,-351.84 359.06,-345.08 389.57,-338.88"/>
<polygon fill="black" stroke="black" points="390.28,-342.31 399.38,-336.88 388.88,-335.45 390.28,-342.31"/>
</g>
<!-- /req/obs&#45;core/NamedValue -->
<g id="node16" class="node">
<title>/req/obs&#45;core/NamedValue</title>
<polygon fill="none" stroke="black" points="359,-111 359,-132 657,-132 657,-111 359,-111"/>
<text text-anchor="start" x="414" y="-117.8" font-family="Times,serif" font-size="14.00">/req/obs&#45;core/NamedValue</text>
<polygon fill="none" stroke="black" points="359,-88 359,-109 657,-109 657,-88 359,-88"/>
<text text-anchor="start" x="362" y="-94.8" font-family="Times,serif" font-size="14.00">Abstract Observation core &#45; NamedValue</text>
<polygon fill="none" stroke="black" points="359,-65 359,-86 657,-86 657,-65 359,-65"/>
<text text-anchor="start" x="458" y="-71.8" font-family="Times,serif" font-size="14.00">Logical model</text>
<polygon fill="none" stroke="black" points="356,-62.5 356,-135.5 660,-135.5 660,-62.5 356,-62.5"/>
</g>
<!-- /req/sam&#45;core/AbstractSample&#45;&gt;/req/obs&#45;core/NamedValue -->
<g id="edge5" class="edge">
<title>/req/sam&#45;core/AbstractSample&#45;&gt;/req/obs&#45;core/NamedValue</title>
<path fill="none" stroke="black" stroke-dasharray="5,2" d="M193.47,-351.4C259.87,-297.94 383.12,-198.72 453.7,-141.91"/>
<polygon fill="black" stroke="black" points="456.02,-144.53 461.62,-135.53 451.63,-139.08 456.02,-144.53"/>
</g>
<!-- /req/sam&#45;cpt/Sample&#45;&gt;/req/sam&#45;cpt/Sample/Sample&#45;sem -->
<g id="edge6" class="edge">
<title>/req/sam&#45;cpt/Sample&#45;&gt;/req/sam&#45;cpt/Sample/Sample&#45;sem</title>
<path fill="none" stroke="black" d="M616.55,-342.95C653.62,-352.58 686,-361 686,-361 686,-361 722,-477 722,-477 722,-477 741.4,-480.17 766.9,-484.35"/>
<polygon fill="black" stroke="black" points="766.51,-487.83 776.94,-485.99 767.64,-480.92 766.51,-487.83"/>
</g>
<!-- /req/sam&#45;cpt/Sample&#45;&gt;/req/sam&#45;cpt/Sample/sampling&#45;sem -->
<g id="edge7" class="edge">
<title>/req/sam&#45;cpt/Sample&#45;&gt;/req/sam&#45;cpt/Sample/sampling&#45;sem</title>
<path fill="none" stroke="black" d="M616.55,-342.95C653.62,-352.58 686,-361 686,-361 686,-361 722,-423 722,-423 722,-423 741.4,-426.17 766.9,-430.35"/>
<polygon fill="black" stroke="black" points="766.51,-433.83 776.94,-431.99 767.64,-426.92 766.51,-433.83"/>
</g>
<!-- /req/sam&#45;cpt/Sample&#45;&gt;/req/sam&#45;cpt/Sample/preparationStep&#45;sem -->
<g id="edge8" class="edge">
<title>/req/sam&#45;cpt/Sample&#45;&gt;/req/sam&#45;cpt/Sample/preparationStep&#45;sem</title>
<path fill="none" stroke="black" d="M616.75,-342.32C669.58,-355.71 722,-369 722,-369 722,-369 741.4,-372.17 766.9,-376.35"/>
<polygon fill="black" stroke="black" points="766.51,-379.83 776.94,-377.99 767.64,-372.92 766.51,-379.83"/>
</g>
<!-- /req/sam&#45;cpt/Sample&#45;&gt;/req/sam&#45;cpt/Sample/sampledFeature&#45;sem -->
<g id="edge9" class="edge">
<title>/req/sam&#45;cpt/Sample&#45;&gt;/req/sam&#45;cpt/Sample/sampledFeature&#45;sem</title>
<path fill="none" stroke="black" d="M616.56,-322.68C648.44,-324.96 684.15,-327.51 718.89,-329.99"/>
<polygon fill="black" stroke="black" points="718.93,-333.5 729.15,-330.73 719.43,-326.52 718.93,-333.5"/>
</g>
<!-- /req/sam&#45;cpt/Sample&#45;&gt;/req/sam&#45;cpt/Sample/sampledFeature&#45;card -->
<g id="edge10" class="edge">
<title>/req/sam&#45;cpt/Sample&#45;&gt;/req/sam&#45;cpt/Sample/sampledFeature&#45;card</title>
<path fill="none" stroke="black" d="M616.56,-307.32C648.04,-305.07 683.26,-302.55 717.6,-300.1"/>
<polygon fill="black" stroke="black" points="718.01,-303.58 727.73,-299.38 717.51,-296.6 718.01,-303.58"/>
</g>
<!-- /req/sam&#45;cpt/Sample&#45;&gt;/req/sam&#45;cpt/Sample/relatedSample&#45;sem -->
<g id="edge11" class="edge">
<title>/req/sam&#45;cpt/Sample&#45;&gt;/req/sam&#45;cpt/Sample/relatedSample&#45;sem</title>
<path fill="none" stroke="black" d="M616.75,-287.68C669.58,-274.29 722,-261 722,-261 722,-261 741.4,-257.83 766.9,-253.65"/>
<polygon fill="black" stroke="black" points="767.64,-257.08 776.94,-252.01 766.51,-250.17 767.64,-257.08"/>
</g>
<!-- /req/sam&#45;cpt/Sample&#45;&gt;/req/obs&#45;cpt/gen/relatedObservation&#45;sem -->
<g id="edge12" class="edge">
<title>/req/sam&#45;cpt/Sample&#45;&gt;/req/obs&#45;cpt/gen/relatedObservation&#45;sem</title>
<path fill="none" stroke="black" d="M581.11,-278.44C642.91,-247.1 722,-207 722,-207 722,-207 741.4,-203.83 766.9,-199.65"/>
<polygon fill="black" stroke="black" points="767.64,-203.08 776.94,-198.01 766.51,-196.17 767.64,-203.08"/>
</g>
<!-- /req/obs&#45;core/NamedValue&#45;&gt;/req/obs&#45;core/NamedValue/NamedValue&#45;sem -->
<g id="edge13" class="edge">
<title>/req/obs&#45;core/NamedValue&#45;&gt;/req/obs&#45;core/NamedValue/NamedValue&#45;sem</title>
<path fill="none" stroke="black" d="M660.03,-109.79C677.04,-111 694.49,-112.25 711.78,-113.48"/>
<polygon fill="black" stroke="black" points="711.72,-116.99 721.94,-114.21 712.22,-110.01 711.72,-116.99"/>
</g>
<!-- /req/obs&#45;core/NamedValue&#45;&gt;/req/obs&#45;core/NamedValue/name&#45;sem -->
<g id="edge14" class="edge">
<title>/req/obs&#45;core/NamedValue&#45;&gt;/req/obs&#45;core/NamedValue/name&#45;sem</title>
<path fill="none" stroke="black" d="M660.03,-88.21C685.44,-86.4 711.81,-84.51 737.2,-82.7"/>
<polygon fill="black" stroke="black" points="737.52,-86.19 747.25,-81.98 737.03,-79.2 737.52,-86.19"/>
</g>
<!-- /req/obs&#45;core/NamedValue&#45;&gt;/req/obs&#45;core/NamedValue/value&#45;sem -->
<g id="edge15" class="edge">
<title>/req/obs&#45;core/NamedValue&#45;&gt;/req/obs&#45;core/NamedValue/value&#45;sem</title>
<path fill="none" stroke="black" d="M653.14,-62.46C691.26,-52.79 722,-45 722,-45 722,-45 741.4,-41.83 766.9,-37.65"/>
<polygon fill="black" stroke="black" points="767.64,-41.08 776.94,-36.01 766.51,-34.17 767.64,-41.08"/>
</g>
</g>
</svg>
