<?xml version="1.0" encoding="UTF-8" standalone="no"?>
<!DOCTYPE svg PUBLIC "-//W3C//DTD SVG 1.1//EN"
 "http://www.w3.org/Graphics/SVG/1.1/DTD/svg11.dtd">
<!-- Generated by graphviz version 2.43.0 (0)
 -->
<!-- Title: G Pages: 1 -->
<svg width="1525pt" height="244pt"
 viewBox="0.00 0.00 1525.00 243.50" xmlns="http://www.w3.org/2000/svg" xmlns:xlink="http://www.w3.org/1999/xlink">
<g id="graph0" class="graph" transform="scale(1 1) rotate(0) translate(4 239.5)">
<title>G</title>
<polygon fill="white" stroke="transparent" points="-4,4 -4,-239.5 1521,-239.5 1521,4 -4,4"/>
<!-- /req/obs&#45;core/gen/metadata&#45;sem -->
<g id="node1" class="node">
<title>/req/obs&#45;core/gen/metadata&#45;sem</title>
<polygon fill="none" stroke="black" points="693.5,-227.5 447.5,-227.5 447.5,-191.5 693.5,-191.5 693.5,-227.5"/>
<text text-anchor="middle" x="570.5" y="-205.8" font-family="Times,serif" font-size="14.00">/req/obs&#45;core/gen/metadata&#45;sem</text>
</g>
<!-- /req/sam&#45;cpt/SamplingProcedure/SamplingProcedure&#45;sem -->
<g id="node2" class="node">
<title>/req/sam&#45;cpt/SamplingProcedure/SamplingProcedure&#45;sem</title>
<polygon fill="none" stroke="black" points="1190,-235.5 759,-235.5 759,-199.5 1190,-199.5 1190,-235.5"/>
<text text-anchor="middle" x="974.5" y="-213.8" font-family="Times,serif" font-size="14.00">/req/sam&#45;cpt/SamplingProcedure/SamplingProcedure&#45;sem</text>
</g>
<!-- /req/sam&#45;cpt/SamplingProcedure/sampling&#45;sem -->
<g id="node3" class="node">
<title>/req/sam&#45;cpt/SamplingProcedure/sampling&#45;sem</title>
<polygon fill="none" stroke="black" points="1152,-181.5 797,-181.5 797,-145.5 1152,-145.5 1152,-181.5"/>
<text text-anchor="middle" x="974.5" y="-159.8" font-family="Times,serif" font-size="14.00">/req/sam&#45;cpt/SamplingProcedure/sampling&#45;sem</text>
</g>
<!-- /req/sam&#45;cpt/SamplingProcedure/sampler&#45;sem -->
<g id="node4" class="node">
<title>/req/sam&#45;cpt/SamplingProcedure/sampler&#45;sem</title>
<polygon fill="none" stroke="black" points="1148,-127.5 801,-127.5 801,-91.5 1148,-91.5 1148,-127.5"/>
<text text-anchor="middle" x="974.5" y="-105.8" font-family="Times,serif" font-size="14.00">/req/sam&#45;cpt/SamplingProcedure/sampler&#45;sem</text>
</g>
<!-- /req/obs&#45;cpt/Procedure/Procedure&#45;sem -->
<g id="node5" class="node">
<title>/req/obs&#45;cpt/Procedure/Procedure&#45;sem</title>
<polygon fill="none" stroke="black" points="1517,-54.5 1226,-54.5 1226,-18.5 1517,-18.5 1517,-54.5"/>
<text text-anchor="middle" x="1371.5" y="-32.8" font-family="Times,serif" font-size="14.00">/req/obs&#45;cpt/Procedure/Procedure&#45;sem</text>
</g>
<!-- /req/sam&#45;core/AbstractSamplingProcedure -->
<g id="node6" class="node">
<title>/req/sam&#45;core/AbstractSamplingProcedure</title>
<polygon fill="none" stroke="black" points="3,-184.5 3,-205.5 379,-205.5 379,-184.5 3,-184.5"/>
<text text-anchor="start" x="39" y="-191.3" font-family="Times,serif" font-size="14.00">/req/sam&#45;core/AbstractSamplingProcedure</text>
<polygon fill="none" stroke="black" points="3,-161.5 3,-182.5 379,-182.5 379,-161.5 3,-161.5"/>
<text text-anchor="start" x="6" y="-168.3" font-family="Times,serif" font-size="14.00">Abstract Sample core &#45; AbstractSamplingProcedure</text>
<polygon fill="none" stroke="black" points="3,-138.5 3,-159.5 379,-159.5 379,-138.5 3,-138.5"/>
<text text-anchor="start" x="141" y="-145.3" font-family="Times,serif" font-size="14.00">Logical model</text>
<polygon fill="none" stroke="black" points="0,-136 0,-209 382,-209 382,-136 0,-136"/>
</g>
<!-- /req/sam&#45;core/AbstractSamplingProcedure&#45;&gt;/req/obs&#45;core/gen/metadata&#45;sem -->
<g id="edge1" class="edge">
<title>/req/sam&#45;core/AbstractSamplingProcedure&#45;&gt;/req/obs&#45;core/gen/metadata&#45;sem</title>
<path fill="none" stroke="black" d="M382.13,-191.14C400.69,-192.95 419.22,-194.77 437.02,-196.52"/>
<polygon fill="black" stroke="black" points="437.12,-200.04 447.41,-197.53 437.8,-193.07 437.12,-200.04"/>
</g>
<!-- /req/sam&#45;cpt/SamplingProcedure -->
<g id="node7" class="node">
<title>/req/sam&#45;cpt/SamplingProcedure</title>
<polygon fill="none" stroke="black" points="421.5,-148.5 421.5,-169.5 720.5,-169.5 720.5,-148.5 421.5,-148.5"/>
<text text-anchor="start" x="453.5" y="-155.3" font-family="Times,serif" font-size="14.00">/req/sam&#45;cpt/SamplingProcedure</text>
<polygon fill="none" stroke="black" points="421.5,-125.5 421.5,-146.5 720.5,-146.5 720.5,-125.5 421.5,-125.5"/>
<text text-anchor="start" x="424.5" y="-132.3" font-family="Times,serif" font-size="14.00">Conceptual Sample &#45; SamplingProcedure</text>
<polygon fill="none" stroke="black" points="421.5,-102.5 421.5,-123.5 720.5,-123.5 720.5,-102.5 421.5,-102.5"/>
<text text-anchor="start" x="504.5" y="-109.3" font-family="Times,serif" font-size="14.00">Conceptual m odel</text>
<polygon fill="none" stroke="black" points="418,-100 418,-173 723,-173 723,-100 418,-100"/>
</g>
<!-- /req/sam&#45;core/AbstractSamplingProcedure&#45;&gt;/req/sam&#45;cpt/SamplingProcedure -->
<g id="edge2" class="edge">
<title>/req/sam&#45;core/AbstractSamplingProcedure&#45;&gt;/req/sam&#45;cpt/SamplingProcedure</title>
<path fill="none" stroke="black" stroke-dasharray="5,2" d="M382.13,-154.37C390.77,-153.54 399.4,-152.72 407.95,-151.91"/>
<polygon fill="black" stroke="black" points="408.34,-155.39 417.96,-150.95 407.67,-148.42 408.34,-155.39"/>
</g>
<!-- /req/sam&#45;cpt/SamplingProcedure&#45;&gt;/req/sam&#45;cpt/SamplingProcedure/SamplingProcedure&#45;sem -->
<g id="edge3" class="edge">
<title>/req/sam&#45;cpt/SamplingProcedure&#45;&gt;/req/sam&#45;cpt/SamplingProcedure/SamplingProcedure&#45;sem</title>
<path fill="none" stroke="black" d="M698.38,-173.04C731.94,-182.71 759,-190.5 759,-190.5 759,-190.5 785.8,-193.87 820.46,-198.24"/>
<polygon fill="black" stroke="black" points="820.07,-201.71 830.43,-199.49 820.94,-194.77 820.07,-201.71"/>
</g>
<!-- /req/sam&#45;cpt/SamplingProcedure&#45;&gt;/req/sam&#45;cpt/SamplingProcedure/sampling&#45;sem -->
<g id="edge4" class="edge">
<title>/req/sam&#45;cpt/SamplingProcedure&#45;&gt;/req/sam&#45;cpt/SamplingProcedure/sampling&#45;sem</title>
<path fill="none" stroke="black" d="M723.19,-146.69C743.93,-148.08 765.42,-149.52 786.69,-150.95"/>
<polygon fill="black" stroke="black" points="786.57,-154.45 796.78,-151.63 787.04,-147.47 786.57,-154.45"/>
</g>
<!-- /req/sam&#45;cpt/SamplingProcedure&#45;&gt;/req/sam&#45;cpt/SamplingProcedure/sampler&#45;sem -->
<g id="edge5" class="edge">
<title>/req/sam&#45;cpt/SamplingProcedure&#45;&gt;/req/sam&#45;cpt/SamplingProcedure/sampler&#45;sem</title>
<path fill="none" stroke="black" d="M723.19,-126.31C745.28,-124.83 768.22,-123.29 790.85,-121.77"/>
<polygon fill="black" stroke="black" points="791.12,-125.26 800.87,-121.09 790.65,-118.27 791.12,-125.26"/>
</g>
<!-- /req/obs&#45;cpt/Procedure -->
<g id="node8" class="node">
<title>/req/obs&#45;cpt/Procedure</title>
<polygon fill="none" stroke="black" points="842.5,-48.5 842.5,-69.5 1107.5,-69.5 1107.5,-48.5 842.5,-48.5"/>
<text text-anchor="start" x="893.5" y="-55.3" font-family="Times,serif" font-size="14.00">/req/obs&#45;cpt/Procedure</text>
<polygon fill="none" stroke="black" points="842.5,-25.5 842.5,-46.5 1107.5,-46.5 1107.5,-25.5 842.5,-25.5"/>
<text text-anchor="start" x="845.5" y="-32.3" font-family="Times,serif" font-size="14.00">Conceptual Observation &#45; Procedure</text>
<polygon fill="none" stroke="black" points="842.5,-2.5 842.5,-23.5 1107.5,-23.5 1107.5,-2.5 842.5,-2.5"/>
<text text-anchor="start" x="910.5" y="-9.3" font-family="Times,serif" font-size="14.00">Conceptual model</text>
<polygon fill="none" stroke="black" points="839,0 839,-73 1110,-73 1110,0 839,0"/>
</g>
<!-- /req/sam&#45;cpt/SamplingProcedure&#45;&gt;/req/obs&#45;cpt/Procedure -->
<g id="edge6" class="edge">
<title>/req/sam&#45;cpt/SamplingProcedure&#45;&gt;/req/obs&#45;cpt/Procedure</title>
<path fill="none" stroke="black" stroke-dasharray="5,2" d="M698.38,-99.96C731.94,-90.29 759,-82.5 759,-82.5 759,-82.5 790.25,-75.8 828.9,-67.51"/>
<polygon fill="black" stroke="black" points="829.83,-70.89 838.87,-65.37 828.36,-64.05 829.83,-70.89"/>
</g>
<!-- /req/obs&#45;cpt/Procedure&#45;&gt;/req/obs&#45;cpt/Procedure/Procedure&#45;sem -->
<g id="edge7" class="edge">
<title>/req/obs&#45;cpt/Procedure&#45;&gt;/req/obs&#45;cpt/Procedure/Procedure&#45;sem</title>
<path fill="none" stroke="black" d="M1110.06,-36.5C1144.04,-36.5 1180.8,-36.5 1215.69,-36.5"/>
<polygon fill="black" stroke="black" points="1215.96,-40 1225.96,-36.5 1215.96,-33 1215.96,-40"/>
</g>
</g>
</svg>
