<?xml version="1.0" encoding="UTF-8" standalone="no"?>
<!DOCTYPE svg PUBLIC "-//W3C//DTD SVG 1.1//EN"
 "http://www.w3.org/Graphics/SVG/1.1/DTD/svg11.dtd">
<!-- Generated by graphviz version 2.43.0 (0)
 -->
<!-- Title: G Pages: 1 -->
<svg width="863pt" height="152pt"
 viewBox="0.00 0.00 863.00 152.00" xmlns="http://www.w3.org/2000/svg" xmlns:xlink="http://www.w3.org/1999/xlink">
<g id="graph0" class="graph" transform="scale(1 1) rotate(0) translate(4 148)">
<title>G</title>
<polygon fill="white" stroke="transparent" points="-4,4 -4,-148 859,-148 859,4 -4,4"/>
<!-- /req/obs&#45;basic/GenericDomainFeature/GenericDomainFeature&#45;sem -->
<g id="node1" class="node">
<title>/req/obs&#45;basic/GenericDomainFeature/GenericDomainFeature&#45;sem</title>
<polygon fill="none" stroke="black" points="855,-144 365,-144 365,-108 855,-108 855,-144"/>
<text text-anchor="middle" x="610" y="-122.3" font-family="Times,serif" font-size="14.00">/req/obs&#45;basic/GenericDomainFeature/GenericDomainFeature&#45;sem</text>
</g>
<!-- /req/obs&#45;basic/gen/link&#45;sem -->
<g id="node2" class="node">
<title>/req/obs&#45;basic/gen/link&#45;sem</title>
<polygon fill="none" stroke="black" points="715.5,-90 504.5,-90 504.5,-54 715.5,-54 715.5,-90"/>
<text text-anchor="middle" x="610" y="-68.3" font-family="Times,serif" font-size="14.00">/req/obs&#45;basic/gen/link&#45;sem</text>
</g>
<!-- /req/obs&#45;basic/gen/location&#45;sem -->
<g id="node3" class="node">
<title>/req/obs&#45;basic/gen/location&#45;sem</title>
<polygon fill="none" stroke="black" points="730.5,-36 489.5,-36 489.5,0 730.5,0 730.5,-36"/>
<text text-anchor="middle" x="610" y="-14.3" font-family="Times,serif" font-size="14.00">/req/obs&#45;basic/gen/location&#45;sem</text>
</g>
<!-- /req/obs&#45;basic/GenericDomainFeature -->
<g id="node4" class="node">
<title>/req/obs&#45;basic/GenericDomainFeature</title>
<polygon fill="none" stroke="black" points="3.5,-84 3.5,-105 326.5,-105 326.5,-84 3.5,-84"/>
<text text-anchor="start" x="30" y="-90.8" font-family="Times,serif" font-size="14.00">/req/obs&#45;basic/GenericDomainFeature</text>
<polygon fill="none" stroke="black" points="3.5,-61 3.5,-82 326.5,-82 326.5,-61 3.5,-61"/>
<text text-anchor="start" x="6.5" y="-67.8" font-family="Times,serif" font-size="14.00">Basic Observations &#45; GenericDomainFeature</text>
<polygon fill="none" stroke="black" points="3.5,-38 3.5,-59 326.5,-59 326.5,-38 3.5,-38"/>
<text text-anchor="start" x="115" y="-44.8" font-family="Times,serif" font-size="14.00">Logical model</text>
<polygon fill="none" stroke="black" points="0,-35.5 0,-108.5 329,-108.5 329,-35.5 0,-35.5"/>
</g>
<!-- /req/obs&#45;basic/GenericDomainFeature&#45;&gt;/req/obs&#45;basic/GenericDomainFeature/GenericDomainFeature&#45;sem -->
<g id="edge1" class="edge">
<title>/req/obs&#45;basic/GenericDomainFeature&#45;&gt;/req/obs&#45;basic/GenericDomainFeature/GenericDomainFeature&#45;sem</title>
<path fill="none" stroke="black" d="M329.33,-94.17C350.51,-97.04 365,-99 365,-99 365,-99 396.14,-102.45 436.18,-106.88"/>
<polygon fill="black" stroke="black" points="435.92,-110.37 446.25,-107.99 436.69,-103.41 435.92,-110.37"/>
</g>
<!-- /req/obs&#45;basic/GenericDomainFeature&#45;&gt;/req/obs&#45;basic/gen/link&#45;sem -->
<g id="edge2" class="edge">
<title>/req/obs&#45;basic/GenericDomainFeature&#45;&gt;/req/obs&#45;basic/gen/link&#45;sem</title>
<path fill="none" stroke="black" d="M329.07,-72C383.92,-72 443.88,-72 494.19,-72"/>
<polygon fill="black" stroke="black" points="494.45,-75.5 504.45,-72 494.45,-68.5 494.45,-75.5"/>
</g>
<!-- /req/obs&#45;basic/GenericDomainFeature&#45;&gt;/req/obs&#45;basic/gen/location&#45;sem -->
<g id="edge3" class="edge">
<title>/req/obs&#45;basic/GenericDomainFeature&#45;&gt;/req/obs&#45;basic/gen/location&#45;sem</title>
<path fill="none" stroke="black" d="M329.33,-49.83C350.51,-46.96 365,-45 365,-45 365,-45 420.8,-38.83 479.02,-32.38"/>
<polygon fill="black" stroke="black" points="479.59,-35.84 489.14,-31.26 478.82,-28.88 479.59,-35.84"/>
</g>
</g>
</svg>
