<?xml version="1.0" encoding="UTF-8" standalone="no"?>
<!DOCTYPE svg PUBLIC "-//W3C//DTD SVG 1.1//EN"
 "http://www.w3.org/Graphics/SVG/1.1/DTD/svg11.dtd">
<!-- Generated by graphviz version 2.43.0 (0)
 -->
<!-- Title: G Pages: 1 -->
<svg width="644pt" height="152pt"
 viewBox="0.00 0.00 644.00 152.00" xmlns="http://www.w3.org/2000/svg" xmlns:xlink="http://www.w3.org/1999/xlink">
<g id="graph0" class="graph" transform="scale(1 1) rotate(0) translate(4 148)">
<title>G</title>
<polygon fill="white" stroke="transparent" points="-4,4 -4,-148 640,-148 640,4 -4,4"/>
<!-- /req/sam&#45;cpt/Sampler/Sampler&#45;sem -->
<g id="node1" class="node">
<title>/req/sam&#45;cpt/Sampler/Sampler&#45;sem</title>
<polygon fill="none" stroke="black" points="582.5,-144 313.5,-144 313.5,-108 582.5,-108 582.5,-144"/>
<text text-anchor="middle" x="448" y="-122.3" font-family="Times,serif" font-size="14.00">/req/sam&#45;cpt/Sampler/Sampler&#45;sem</text>
</g>
<!-- /req/sam&#45;cpt/Sampler/sampling&#45;sem -->
<g id="node2" class="node">
<title>/req/sam&#45;cpt/Sampler/sampling&#45;sem</title>
<polygon fill="none" stroke="black" points="585,-90 311,-90 311,-54 585,-54 585,-90"/>
<text text-anchor="middle" x="448" y="-68.3" font-family="Times,serif" font-size="14.00">/req/sam&#45;cpt/Sampler/sampling&#45;sem</text>
</g>
<!-- /req/sam&#45;cpt/Sampler/implementedProcedure&#45;sem -->
<g id="node3" class="node">
<title>/req/sam&#45;cpt/Sampler/implementedProcedure&#45;sem</title>
<polygon fill="none" stroke="black" points="636,-36 260,-36 260,0 636,0 636,-36"/>
<text text-anchor="middle" x="448" y="-14.3" font-family="Times,serif" font-size="14.00">/req/sam&#45;cpt/Sampler/implementedProcedure&#45;sem</text>
</g>
<!-- /req/sam&#45;cpt/Sampler -->
<g id="node4" class="node">
<title>/req/sam&#45;cpt/Sampler</title>
<polygon fill="none" stroke="black" points="3,-84 3,-105 221,-105 221,-84 3,-84"/>
<text text-anchor="start" x="35" y="-90.8" font-family="Times,serif" font-size="14.00">/req/sam&#45;cpt/Sampler</text>
<polygon fill="none" stroke="black" points="3,-61 3,-82 221,-82 221,-61 3,-61"/>
<text text-anchor="start" x="6" y="-67.8" font-family="Times,serif" font-size="14.00">Conceptual Sample &#45; Sampler</text>
<polygon fill="none" stroke="black" points="3,-38 3,-59 221,-59 221,-38 3,-38"/>
<text text-anchor="start" x="47.5" y="-44.8" font-family="Times,serif" font-size="14.00">Conceptual model</text>
<polygon fill="none" stroke="black" points="0,-35.5 0,-108.5 224,-108.5 224,-35.5 0,-35.5"/>
</g>
<!-- /req/sam&#45;cpt/Sampler&#45;&gt;/req/sam&#45;cpt/Sampler/Sampler&#45;sem -->
<g id="edge1" class="edge">
<title>/req/sam&#45;cpt/Sampler&#45;&gt;/req/sam&#45;cpt/Sampler/Sampler&#45;sem</title>
<path fill="none" stroke="black" d="M224.04,-92.4C244.73,-96.2 260,-99 260,-99 260,-99 282.57,-102.26 312.04,-106.51"/>
<polygon fill="black" stroke="black" points="311.87,-110.03 322.27,-107.99 312.87,-103.1 311.87,-110.03"/>
</g>
<!-- /req/sam&#45;cpt/Sampler&#45;&gt;/req/sam&#45;cpt/Sampler/sampling&#45;sem -->
<g id="edge2" class="edge">
<title>/req/sam&#45;cpt/Sampler&#45;&gt;/req/sam&#45;cpt/Sampler/sampling&#45;sem</title>
<path fill="none" stroke="black" d="M224.22,-72C248.68,-72 274.94,-72 300.55,-72"/>
<polygon fill="black" stroke="black" points="300.71,-75.5 310.71,-72 300.71,-68.5 300.71,-75.5"/>
</g>
<!-- /req/sam&#45;cpt/Sampler&#45;&gt;/req/sam&#45;cpt/Sampler/implementedProcedure&#45;sem -->
<g id="edge3" class="edge">
<title>/req/sam&#45;cpt/Sampler&#45;&gt;/req/sam&#45;cpt/Sampler/implementedProcedure&#45;sem</title>
<path fill="none" stroke="black" d="M224.04,-51.6C244.73,-47.8 260,-45 260,-45 260,-45 282.57,-41.74 312.04,-37.49"/>
<polygon fill="black" stroke="black" points="312.87,-40.9 322.27,-36.01 311.87,-33.97 312.87,-40.9"/>
</g>
</g>
</svg>
