<?xml version="1.0" encoding="UTF-8" standalone="no"?>
<!DOCTYPE svg PUBLIC "-//W3C//DTD SVG 1.1//EN"
 "http://www.w3.org/Graphics/SVG/1.1/DTD/svg11.dtd">
<!-- Generated by graphviz version 2.43.0 (0)
 -->
<!-- Title: G Pages: 1 -->
<svg width="1127pt" height="225pt"
 viewBox="0.00 0.00 1127.00 225.00" xmlns="http://www.w3.org/2000/svg" xmlns:xlink="http://www.w3.org/1999/xlink">
<g id="graph0" class="graph" transform="scale(1 1) rotate(0) translate(4 221)">
<title>G</title>
<polygon fill="white" stroke="transparent" points="-4,4 -4,-221 1123,-221 1123,4 -4,4"/>
<!-- /req/sam&#45;core/AbstractSampler/samplerType&#45;sem -->
<g id="node1" class="node">
<title>/req/sam&#45;core/AbstractSampler/samplerType&#45;sem</title>
<polygon fill="none" stroke="black" points="707,-217 337,-217 337,-181 707,-181 707,-217"/>
<text text-anchor="middle" x="522" y="-195.3" font-family="Times,serif" font-size="14.00">/req/sam&#45;core/AbstractSampler/samplerType&#45;sem</text>
</g>
<!-- /req/obs&#45;core/gen/metadata&#45;sem -->
<g id="node2" class="node">
<title>/req/obs&#45;core/gen/metadata&#45;sem</title>
<polygon fill="none" stroke="black" points="645,-163 399,-163 399,-127 645,-127 645,-163"/>
<text text-anchor="middle" x="522" y="-141.3" font-family="Times,serif" font-size="14.00">/req/obs&#45;core/gen/metadata&#45;sem</text>
</g>
<!-- /req/sam&#45;cpt/Sampler/Sampler&#45;sem -->
<g id="node3" class="node">
<title>/req/sam&#45;cpt/Sampler/Sampler&#45;sem</title>
<polygon fill="none" stroke="black" points="1065.5,-144 796.5,-144 796.5,-108 1065.5,-108 1065.5,-144"/>
<text text-anchor="middle" x="931" y="-122.3" font-family="Times,serif" font-size="14.00">/req/sam&#45;cpt/Sampler/Sampler&#45;sem</text>
</g>
<!-- /req/sam&#45;cpt/Sampler/sampling&#45;sem -->
<g id="node4" class="node">
<title>/req/sam&#45;cpt/Sampler/sampling&#45;sem</title>
<polygon fill="none" stroke="black" points="1068,-90 794,-90 794,-54 1068,-54 1068,-90"/>
<text text-anchor="middle" x="931" y="-68.3" font-family="Times,serif" font-size="14.00">/req/sam&#45;cpt/Sampler/sampling&#45;sem</text>
</g>
<!-- /req/sam&#45;cpt/Sampler/implementedProcedure&#45;sem -->
<g id="node5" class="node">
<title>/req/sam&#45;cpt/Sampler/implementedProcedure&#45;sem</title>
<polygon fill="none" stroke="black" points="1119,-36 743,-36 743,0 1119,0 1119,-36"/>
<text text-anchor="middle" x="931" y="-14.3" font-family="Times,serif" font-size="14.00">/req/sam&#45;cpt/Sampler/implementedProcedure&#45;sem</text>
</g>
<!-- /req/sam&#45;core/AbstractSampler -->
<g id="node6" class="node">
<title>/req/sam&#45;core/AbstractSampler</title>
<polygon fill="none" stroke="black" points="3.5,-157 3.5,-178 298.5,-178 298.5,-157 3.5,-157"/>
<text text-anchor="start" x="39.5" y="-163.8" font-family="Times,serif" font-size="14.00">/req/sam&#45;core/AbstractSampler</text>
<polygon fill="none" stroke="black" points="3.5,-134 3.5,-155 298.5,-155 298.5,-134 3.5,-134"/>
<text text-anchor="start" x="6.5" y="-140.8" font-family="Times,serif" font-size="14.00">Abstract Sample core &#45; AbstractSampler</text>
<polygon fill="none" stroke="black" points="3.5,-111 3.5,-132 298.5,-132 298.5,-111 3.5,-111"/>
<text text-anchor="start" x="101" y="-117.8" font-family="Times,serif" font-size="14.00">Logical model</text>
<polygon fill="none" stroke="black" points="0,-108.5 0,-181.5 301,-181.5 301,-108.5 0,-108.5"/>
</g>
<!-- /req/sam&#45;core/AbstractSampler&#45;&gt;/req/sam&#45;core/AbstractSampler/samplerType&#45;sem -->
<g id="edge1" class="edge">
<title>/req/sam&#45;core/AbstractSampler&#45;&gt;/req/sam&#45;core/AbstractSampler/samplerType&#45;sem</title>
<path fill="none" stroke="black" d="M301.26,-166.89C329.76,-171.05 359.42,-175.39 387.39,-179.47"/>
<polygon fill="black" stroke="black" points="387.21,-182.98 397.61,-180.97 388.22,-176.06 387.21,-182.98"/>
</g>
<!-- /req/sam&#45;core/AbstractSampler&#45;&gt;/req/obs&#45;core/gen/metadata&#45;sem -->
<g id="edge2" class="edge">
<title>/req/sam&#45;core/AbstractSampler&#45;&gt;/req/obs&#45;core/gen/metadata&#45;sem</title>
<path fill="none" stroke="black" d="M301.26,-145C330.12,-145 360.17,-145 388.44,-145"/>
<polygon fill="black" stroke="black" points="388.77,-148.5 398.77,-145 388.77,-141.5 388.77,-148.5"/>
</g>
<!-- /req/sam&#45;cpt/Sampler -->
<g id="node7" class="node">
<title>/req/sam&#45;cpt/Sampler</title>
<polygon fill="none" stroke="black" points="413,-84 413,-105 631,-105 631,-84 413,-84"/>
<text text-anchor="start" x="445" y="-90.8" font-family="Times,serif" font-size="14.00">/req/sam&#45;cpt/Sampler</text>
<polygon fill="none" stroke="black" points="413,-61 413,-82 631,-82 631,-61 413,-61"/>
<text text-anchor="start" x="416" y="-67.8" font-family="Times,serif" font-size="14.00">Conceptual Sample &#45; Sampler</text>
<polygon fill="none" stroke="black" points="413,-38 413,-59 631,-59 631,-38 413,-38"/>
<text text-anchor="start" x="457.5" y="-44.8" font-family="Times,serif" font-size="14.00">Conceptual model</text>
<polygon fill="none" stroke="black" points="410,-35.5 410,-108.5 634,-108.5 634,-35.5 410,-35.5"/>
</g>
<!-- /req/sam&#45;core/AbstractSampler&#45;&gt;/req/sam&#45;cpt/Sampler -->
<g id="edge3" class="edge">
<title>/req/sam&#45;core/AbstractSampler&#45;&gt;/req/sam&#45;cpt/Sampler</title>
<path fill="none" stroke="black" stroke-dasharray="5,2" d="M301.26,-115.41C334.02,-108.94 368.31,-102.17 399.79,-95.95"/>
<polygon fill="black" stroke="black" points="400.78,-99.32 409.91,-93.95 399.42,-92.45 400.78,-99.32"/>
</g>
<!-- /req/sam&#45;cpt/Sampler&#45;&gt;/req/sam&#45;cpt/Sampler/Sampler&#45;sem -->
<g id="edge4" class="edge">
<title>/req/sam&#45;cpt/Sampler&#45;&gt;/req/sam&#45;cpt/Sampler/Sampler&#45;sem</title>
<path fill="none" stroke="black" d="M634.21,-86.76C681.21,-92.99 736.54,-100.33 786.56,-106.97"/>
<polygon fill="black" stroke="black" points="786.11,-110.44 796.49,-108.29 787.03,-103.5 786.11,-110.44"/>
</g>
<!-- /req/sam&#45;cpt/Sampler&#45;&gt;/req/sam&#45;cpt/Sampler/sampling&#45;sem -->
<g id="edge5" class="edge">
<title>/req/sam&#45;cpt/Sampler&#45;&gt;/req/sam&#45;cpt/Sampler/sampling&#45;sem</title>
<path fill="none" stroke="black" d="M634.21,-72C680.34,-72 734.5,-72 783.78,-72"/>
<polygon fill="black" stroke="black" points="783.89,-75.5 793.89,-72 783.89,-68.5 783.89,-75.5"/>
</g>
<!-- /req/sam&#45;cpt/Sampler&#45;&gt;/req/sam&#45;cpt/Sampler/implementedProcedure&#45;sem -->
<g id="edge6" class="edge">
<title>/req/sam&#45;cpt/Sampler&#45;&gt;/req/sam&#45;cpt/Sampler/implementedProcedure&#45;sem</title>
<path fill="none" stroke="black" d="M634.21,-57.24C680.45,-51.11 734.76,-43.9 784.13,-37.35"/>
<polygon fill="black" stroke="black" points="784.81,-40.79 794.26,-36.01 783.89,-33.86 784.81,-40.79"/>
</g>
</g>
</svg>
