<?xml version="1.0" encoding="UTF-8" standalone="no"?>
<!DOCTYPE svg PUBLIC "-//W3C//DTD SVG 1.1//EN"
 "http://www.w3.org/Graphics/SVG/1.1/DTD/svg11.dtd">
<!-- Generated by graphviz version 2.43.0 (0)
 -->
<!-- Title: G Pages: 1 -->
<svg width="1175pt" height="288pt"
 viewBox="0.00 0.00 1175.00 288.00" xmlns="http://www.w3.org/2000/svg" xmlns:xlink="http://www.w3.org/1999/xlink">
<g id="graph0" class="graph" transform="scale(1 1) rotate(0) translate(4 284)">
<title>G</title>
<polygon fill="white" stroke="transparent" points="-4,4 -4,-284 1171,-284 1171,4 -4,4"/>
<!-- /req/obs&#45;basic/gen/link&#45;sem -->
<g id="node1" class="node">
<title>/req/obs&#45;basic/gen/link&#45;sem</title>
<polygon fill="none" stroke="black" points="492.5,-280 281.5,-280 281.5,-244 492.5,-244 492.5,-280"/>
<text text-anchor="middle" x="387" y="-258.3" font-family="Times,serif" font-size="14.00">/req/obs&#45;basic/gen/link&#45;sem</text>
</g>
<!-- /req/obs&#45;basic/gen/location&#45;sem -->
<g id="node2" class="node">
<title>/req/obs&#45;basic/gen/location&#45;sem</title>
<polygon fill="none" stroke="black" points="507.5,-226 266.5,-226 266.5,-190 507.5,-190 507.5,-226"/>
<text text-anchor="middle" x="387" y="-204.3" font-family="Times,serif" font-size="14.00">/req/obs&#45;basic/gen/location&#45;sem</text>
</g>
<!-- /req/obs&#45;core/gen/metadata&#45;sem -->
<g id="node3" class="node">
<title>/req/obs&#45;core/gen/metadata&#45;sem</title>
<polygon fill="none" stroke="black" points="823,-190 577,-190 577,-154 823,-154 823,-190"/>
<text text-anchor="middle" x="700" y="-168.3" font-family="Times,serif" font-size="14.00">/req/obs&#45;core/gen/metadata&#45;sem</text>
</g>
<!-- /req/obs&#45;cpt/Host/Host&#45;sem -->
<g id="node4" class="node">
<title>/req/obs&#45;cpt/Host/Host&#45;sem</title>
<polygon fill="none" stroke="black" points="1119,-198 907,-198 907,-162 1119,-162 1119,-198"/>
<text text-anchor="middle" x="1013" y="-176.3" font-family="Times,serif" font-size="14.00">/req/obs&#45;cpt/Host/Host&#45;sem</text>
</g>
<!-- /req/obs&#45;cpt/Host/deployment&#45;sem -->
<g id="node5" class="node">
<title>/req/obs&#45;cpt/Host/deployment&#45;sem</title>
<polygon fill="none" stroke="black" points="1144,-144 882,-144 882,-108 1144,-108 1144,-144"/>
<text text-anchor="middle" x="1013" y="-122.3" font-family="Times,serif" font-size="14.00">/req/obs&#45;cpt/Host/deployment&#45;sem</text>
</g>
<!-- /req/obs&#45;cpt/Host/relatedHost&#45;sem -->
<g id="node6" class="node">
<title>/req/obs&#45;cpt/Host/relatedHost&#45;sem</title>
<polygon fill="none" stroke="black" points="1144.5,-90 881.5,-90 881.5,-54 1144.5,-54 1144.5,-90"/>
<text text-anchor="middle" x="1013" y="-68.3" font-family="Times,serif" font-size="14.00">/req/obs&#45;cpt/Host/relatedHost&#45;sem</text>
</g>
<!-- /req/obs&#45;cpt/gen/relatedObservation&#45;sem -->
<g id="node7" class="node">
<title>/req/obs&#45;cpt/gen/relatedObservation&#45;sem</title>
<polygon fill="none" stroke="black" points="1167,-36 859,-36 859,0 1167,0 1167,-36"/>
<text text-anchor="middle" x="1013" y="-14.3" font-family="Times,serif" font-size="14.00">/req/obs&#45;cpt/gen/relatedObservation&#45;sem</text>
</g>
<!-- /req/obs&#45;basic/Host -->
<g id="node8" class="node">
<title>/req/obs&#45;basic/Host</title>
<polygon fill="none" stroke="black" points="3.5,-220 3.5,-241 194.5,-241 194.5,-220 3.5,-220"/>
<text text-anchor="start" x="30" y="-226.8" font-family="Times,serif" font-size="14.00">/req/obs&#45;basic/Host</text>
<polygon fill="none" stroke="black" points="3.5,-197 3.5,-218 194.5,-218 194.5,-197 3.5,-197"/>
<text text-anchor="start" x="6.5" y="-203.8" font-family="Times,serif" font-size="14.00">Basic Observations &#45; Host</text>
<polygon fill="none" stroke="black" points="3.5,-174 3.5,-195 194.5,-195 194.5,-174 3.5,-174"/>
<text text-anchor="start" x="49" y="-180.8" font-family="Times,serif" font-size="14.00">Logical model</text>
<polygon fill="none" stroke="black" points="0,-171.5 0,-244.5 197,-244.5 197,-171.5 0,-171.5"/>
</g>
<!-- /req/obs&#45;basic/Host&#45;&gt;/req/obs&#45;basic/gen/link&#45;sem -->
<g id="edge1" class="edge">
<title>/req/obs&#45;basic/Host&#45;&gt;/req/obs&#45;basic/gen/link&#45;sem</title>
<path fill="none" stroke="black" d="M197.22,-227.76C217.58,-231.88 233,-235 233,-235 233,-235 250.68,-238.12 274.01,-242.24"/>
<polygon fill="black" stroke="black" points="273.49,-245.7 283.95,-243.99 274.71,-238.81 273.49,-245.7"/>
</g>
<!-- /req/obs&#45;basic/Host&#45;&gt;/req/obs&#45;basic/gen/location&#45;sem -->
<g id="edge2" class="edge">
<title>/req/obs&#45;basic/Host&#45;&gt;/req/obs&#45;basic/gen/location&#45;sem</title>
<path fill="none" stroke="black" d="M197.3,-208C216.29,-208 236.48,-208 256.32,-208"/>
<polygon fill="black" stroke="black" points="256.34,-211.5 266.34,-208 256.34,-204.5 256.34,-211.5"/>
</g>
<!-- /req/obs&#45;core/AbstractHost -->
<g id="node9" class="node">
<title>/req/obs&#45;core/AbstractHost</title>
<polygon fill="none" stroke="black" points="236,-147 236,-168 538,-168 538,-147 236,-147"/>
<text text-anchor="start" x="290.5" y="-153.8" font-family="Times,serif" font-size="14.00">/req/obs&#45;core/AbstractHost</text>
<polygon fill="none" stroke="black" points="236,-124 236,-145 538,-145 538,-124 236,-124"/>
<text text-anchor="start" x="239" y="-130.8" font-family="Times,serif" font-size="14.00">Abstract Observation core &#45; AbstractHost</text>
<polygon fill="none" stroke="black" points="236,-101 236,-122 538,-122 538,-101 236,-101"/>
<text text-anchor="start" x="337" y="-107.8" font-family="Times,serif" font-size="14.00">Logical model</text>
<polygon fill="none" stroke="black" points="233,-98.5 233,-171.5 541,-171.5 541,-98.5 233,-98.5"/>
</g>
<!-- /req/obs&#45;basic/Host&#45;&gt;/req/obs&#45;core/AbstractHost -->
<g id="edge3" class="edge">
<title>/req/obs&#45;basic/Host&#45;&gt;/req/obs&#45;core/AbstractHost</title>
<path fill="none" stroke="black" stroke-dasharray="5,2" d="M197.3,-183.08C208.87,-180.13 220.89,-177.07 233,-173.98"/>
<polygon fill="black" stroke="black" points="233.9,-177.37 242.73,-171.51 232.17,-170.58 233.9,-177.37"/>
</g>
<!-- /req/obs&#45;core/AbstractHost&#45;&gt;/req/obs&#45;core/gen/metadata&#45;sem -->
<g id="edge4" class="edge">
<title>/req/obs&#45;core/AbstractHost&#45;&gt;/req/obs&#45;core/gen/metadata&#45;sem</title>
<path fill="none" stroke="black" d="M541.22,-153.23C549.82,-154.25 558.42,-155.28 566.93,-156.29"/>
<polygon fill="black" stroke="black" points="566.53,-159.76 576.87,-157.47 567.35,-152.81 566.53,-159.76"/>
</g>
<!-- /req/obs&#45;cpt/Host -->
<g id="node10" class="node">
<title>/req/obs&#45;cpt/Host</title>
<polygon fill="none" stroke="black" points="587,-111 587,-132 813,-132 813,-111 587,-111"/>
<text text-anchor="start" x="638" y="-117.8" font-family="Times,serif" font-size="14.00">/req/obs&#45;cpt/Host</text>
<polygon fill="none" stroke="black" points="587,-88 587,-109 813,-109 813,-88 587,-88"/>
<text text-anchor="start" x="590" y="-94.8" font-family="Times,serif" font-size="14.00">Conceptual Observation &#45; Host</text>
<polygon fill="none" stroke="black" points="587,-65 587,-86 813,-86 813,-65 587,-65"/>
<text text-anchor="start" x="635.5" y="-71.8" font-family="Times,serif" font-size="14.00">Conceptual model</text>
<polygon fill="none" stroke="black" points="584,-62.5 584,-135.5 816,-135.5 816,-62.5 584,-62.5"/>
</g>
<!-- /req/obs&#45;core/AbstractHost&#45;&gt;/req/obs&#45;cpt/Host -->
<g id="edge5" class="edge">
<title>/req/obs&#45;core/AbstractHost&#45;&gt;/req/obs&#45;cpt/Host</title>
<path fill="none" stroke="black" stroke-dasharray="5,2" d="M541.22,-117.26C552.03,-116.01 562.85,-114.76 573.47,-113.53"/>
<polygon fill="black" stroke="black" points="574.07,-116.99 583.6,-112.36 573.26,-110.03 574.07,-116.99"/>
</g>
<!-- /req/obs&#45;cpt/Host&#45;&gt;/req/obs&#45;cpt/Host/Host&#45;sem -->
<g id="edge6" class="edge">
<title>/req/obs&#45;cpt/Host&#45;&gt;/req/obs&#45;cpt/Host/Host&#45;sem</title>
<path fill="none" stroke="black" d="M808.14,-135.62C836.32,-145.25 859,-153 859,-153 859,-153 876.68,-156.12 900.01,-160.24"/>
<polygon fill="black" stroke="black" points="899.49,-163.7 909.95,-161.99 900.71,-156.81 899.49,-163.7"/>
</g>
<!-- /req/obs&#45;cpt/Host&#45;&gt;/req/obs&#45;cpt/Host/deployment&#45;sem -->
<g id="edge7" class="edge">
<title>/req/obs&#45;cpt/Host&#45;&gt;/req/obs&#45;cpt/Host/deployment&#45;sem</title>
<path fill="none" stroke="black" d="M816.36,-109.02C834.46,-110.59 853.33,-112.23 871.91,-113.84"/>
<polygon fill="black" stroke="black" points="871.63,-117.33 881.9,-114.7 872.24,-110.35 871.63,-117.33"/>
</g>
<!-- /req/obs&#45;cpt/Host&#45;&gt;/req/obs&#45;cpt/Host/relatedHost&#45;sem -->
<g id="edge8" class="edge">
<title>/req/obs&#45;cpt/Host&#45;&gt;/req/obs&#45;cpt/Host/relatedHost&#45;sem</title>
<path fill="none" stroke="black" d="M816.36,-88.98C834.23,-87.43 852.86,-85.82 871.21,-84.22"/>
<polygon fill="black" stroke="black" points="871.71,-87.69 881.37,-83.34 871.1,-80.72 871.71,-87.69"/>
</g>
<!-- /req/obs&#45;cpt/Host&#45;&gt;/req/obs&#45;cpt/gen/relatedObservation&#45;sem -->
<g id="edge9" class="edge">
<title>/req/obs&#45;cpt/Host&#45;&gt;/req/obs&#45;cpt/gen/relatedObservation&#45;sem</title>
<path fill="none" stroke="black" d="M808.14,-62.38C836.32,-52.75 859,-45 859,-45 859,-45 876.68,-41.88 900.01,-37.76"/>
<polygon fill="black" stroke="black" points="900.71,-41.19 909.95,-36.01 899.49,-34.3 900.71,-41.19"/>
</g>
</g>
</svg>
