<?xml version="1.0" encoding="UTF-8" standalone="no"?>
<!DOCTYPE svg PUBLIC "-//W3C//DTD SVG 1.1//EN"
 "http://www.w3.org/Graphics/SVG/1.1/DTD/svg11.dtd">
<!-- Generated by graphviz version 2.43.0 (0)
 -->
<!-- Title: G Pages: 1 -->
<svg width="1281pt" height="530pt"
 viewBox="0.00 0.00 1281.00 530.00" xmlns="http://www.w3.org/2000/svg" xmlns:xlink="http://www.w3.org/1999/xlink">
<g id="graph0" class="graph" transform="scale(1 1) rotate(0) translate(4 526)">
<title>G</title>
<polygon fill="white" stroke="transparent" points="-4,4 -4,-526 1277,-526 1277,4 -4,4"/>
<!-- /req/sam&#45;core/AbstractSample/sampleType&#45;sem -->
<g id="node1" class="node">
<title>/req/sam&#45;core/AbstractSample/sampleType&#45;sem</title>
<polygon fill="none" stroke="black" points="905,-514 549,-514 549,-478 905,-478 905,-514"/>
<text text-anchor="middle" x="727" y="-492.3" font-family="Times,serif" font-size="14.00">/req/sam&#45;core/AbstractSample/sampleType&#45;sem</text>
</g>
<!-- /req/sam&#45;core/AbstractSample/parameter&#45;sem -->
<g id="node2" class="node">
<title>/req/sam&#45;core/AbstractSample/parameter&#45;sem</title>
<polygon fill="none" stroke="black" points="900,-460 554,-460 554,-424 900,-424 900,-460"/>
<text text-anchor="middle" x="727" y="-438.3" font-family="Times,serif" font-size="14.00">/req/sam&#45;core/AbstractSample/parameter&#45;sem</text>
</g>
<!-- /req/obs&#45;core/gen/metadata&#45;sem -->
<g id="node3" class="node">
<title>/req/obs&#45;core/gen/metadata&#45;sem</title>
<polygon fill="none" stroke="black" points="850,-406 604,-406 604,-370 850,-370 850,-406"/>
<text text-anchor="middle" x="727" y="-384.3" font-family="Times,serif" font-size="14.00">/req/obs&#45;core/gen/metadata&#45;sem</text>
</g>
<!-- /req/sam&#45;cpt/Sample/Sample&#45;sem -->
<g id="node4" class="node">
<title>/req/sam&#45;cpt/Sample/Sample&#45;sem</title>
<polygon fill="none" stroke="black" points="1234.5,-522 979.5,-522 979.5,-486 1234.5,-486 1234.5,-522"/>
<text text-anchor="middle" x="1107" y="-500.3" font-family="Times,serif" font-size="14.00">/req/sam&#45;cpt/Sample/Sample&#45;sem</text>
</g>
<!-- /req/sam&#45;cpt/Sample/sampling&#45;sem -->
<g id="node5" class="node">
<title>/req/sam&#45;cpt/Sample/sampling&#45;sem</title>
<polygon fill="none" stroke="black" points="1240.5,-468 973.5,-468 973.5,-432 1240.5,-432 1240.5,-468"/>
<text text-anchor="middle" x="1107" y="-446.3" font-family="Times,serif" font-size="14.00">/req/sam&#45;cpt/Sample/sampling&#45;sem</text>
</g>
<!-- /req/sam&#45;cpt/Sample/preparationStep&#45;sem -->
<g id="node6" class="node">
<title>/req/sam&#45;cpt/Sample/preparationStep&#45;sem</title>
<polygon fill="none" stroke="black" points="1266.5,-414 947.5,-414 947.5,-378 1266.5,-378 1266.5,-414"/>
<text text-anchor="middle" x="1107" y="-392.3" font-family="Times,serif" font-size="14.00">/req/sam&#45;cpt/Sample/preparationStep&#45;sem</text>
</g>
<!-- /req/sam&#45;cpt/Sample/sampledFeature&#45;sem -->
<g id="node7" class="node">
<title>/req/sam&#45;cpt/Sample/sampledFeature&#45;sem</title>
<polygon fill="none" stroke="black" points="1265.5,-360 948.5,-360 948.5,-324 1265.5,-324 1265.5,-360"/>
<text text-anchor="middle" x="1107" y="-338.3" font-family="Times,serif" font-size="14.00">/req/sam&#45;cpt/Sample/sampledFeature&#45;sem</text>
</g>
<!-- /req/sam&#45;cpt/Sample/sampledFeature&#45;card -->
<g id="node8" class="node">
<title>/req/sam&#45;cpt/Sample/sampledFeature&#45;card</title>
<polygon fill="none" stroke="black" points="1267,-306 947,-306 947,-270 1267,-270 1267,-306"/>
<text text-anchor="middle" x="1107" y="-284.3" font-family="Times,serif" font-size="14.00">/req/sam&#45;cpt/Sample/sampledFeature&#45;card</text>
</g>
<!-- /req/sam&#45;cpt/Sample/relatedSample&#45;sem -->
<g id="node9" class="node">
<title>/req/sam&#45;cpt/Sample/relatedSample&#45;sem</title>
<polygon fill="none" stroke="black" points="1260,-252 954,-252 954,-216 1260,-216 1260,-252"/>
<text text-anchor="middle" x="1107" y="-230.3" font-family="Times,serif" font-size="14.00">/req/sam&#45;cpt/Sample/relatedSample&#45;sem</text>
</g>
<!-- /req/obs&#45;cpt/gen/relatedObservation&#45;sem -->
<g id="node10" class="node">
<title>/req/obs&#45;cpt/gen/relatedObservation&#45;sem</title>
<polygon fill="none" stroke="black" points="1261,-198 953,-198 953,-162 1261,-162 1261,-198"/>
<text text-anchor="middle" x="1107" y="-176.3" font-family="Times,serif" font-size="14.00">/req/obs&#45;cpt/gen/relatedObservation&#45;sem</text>
</g>
<!-- /req/obs&#45;core/NamedValue/NamedValue&#45;sem -->
<g id="node11" class="node">
<title>/req/obs&#45;core/NamedValue/NamedValue&#45;sem</title>
<polygon fill="none" stroke="black" points="1273,-144 941,-144 941,-108 1273,-108 1273,-144"/>
<text text-anchor="middle" x="1107" y="-122.3" font-family="Times,serif" font-size="14.00">/req/obs&#45;core/NamedValue/NamedValue&#45;sem</text>
</g>
<!-- /req/obs&#45;core/NamedValue/name&#45;sem -->
<g id="node12" class="node">
<title>/req/obs&#45;core/NamedValue/name&#45;sem</title>
<polygon fill="none" stroke="black" points="1247.5,-90 966.5,-90 966.5,-54 1247.5,-54 1247.5,-90"/>
<text text-anchor="middle" x="1107" y="-68.3" font-family="Times,serif" font-size="14.00">/req/obs&#45;core/NamedValue/name&#45;sem</text>
</g>
<!-- /req/obs&#45;core/NamedValue/value&#45;sem -->
<g id="node13" class="node">
<title>/req/obs&#45;core/NamedValue/value&#45;sem</title>
<polygon fill="none" stroke="black" points="1247.5,-36 966.5,-36 966.5,0 1247.5,0 1247.5,-36"/>
<text text-anchor="middle" x="1107" y="-14.3" font-family="Times,serif" font-size="14.00">/req/obs&#45;core/NamedValue/value&#45;sem</text>
</g>
<!-- /req/sam&#45;basic/Sample -->
<g id="node14" class="node">
<title>/req/sam&#45;basic/Sample</title>
<polygon fill="none" stroke="black" points="3.5,-400 3.5,-421 180.5,-421 180.5,-400 3.5,-400"/>
<text text-anchor="start" x="11" y="-406.8" font-family="Times,serif" font-size="14.00">/req/sam&#45;basic/Sample</text>
<polygon fill="none" stroke="black" points="3.5,-377 3.5,-398 180.5,-398 180.5,-377 3.5,-377"/>
<text text-anchor="start" x="6.5" y="-383.8" font-family="Times,serif" font-size="14.00">Basic Samples &#45; Sample</text>
<polygon fill="none" stroke="black" points="3.5,-354 3.5,-375 180.5,-375 180.5,-354 3.5,-354"/>
<text text-anchor="start" x="42" y="-360.8" font-family="Times,serif" font-size="14.00">Logical model</text>
<polygon fill="none" stroke="black" points="0,-351.5 0,-424.5 183,-424.5 183,-351.5 0,-351.5"/>
</g>
<!-- /req/sam&#45;core/AbstractSample -->
<g id="node15" class="node">
<title>/req/sam&#45;core/AbstractSample</title>
<polygon fill="none" stroke="black" points="222,-400 222,-421 510,-421 510,-400 222,-400"/>
<text text-anchor="start" x="257.5" y="-406.8" font-family="Times,serif" font-size="14.00">/req/sam&#45;core/AbstractSample</text>
<polygon fill="none" stroke="black" points="222,-377 222,-398 510,-398 510,-377 222,-377"/>
<text text-anchor="start" x="225" y="-383.8" font-family="Times,serif" font-size="14.00">Abstract Sample core &#45; AbstractSample</text>
<polygon fill="none" stroke="black" points="222,-354 222,-375 510,-375 510,-354 222,-354"/>
<text text-anchor="start" x="316" y="-360.8" font-family="Times,serif" font-size="14.00">Logical model</text>
<polygon fill="none" stroke="black" points="219,-351.5 219,-424.5 513,-424.5 513,-351.5 219,-351.5"/>
</g>
<!-- /req/sam&#45;basic/Sample&#45;&gt;/req/sam&#45;core/AbstractSample -->
<g id="edge1" class="edge">
<title>/req/sam&#45;basic/Sample&#45;&gt;/req/sam&#45;core/AbstractSample</title>
<path fill="none" stroke="black" stroke-dasharray="5,2" d="M183.24,-388C191.47,-388 199.96,-388 208.55,-388"/>
<polygon fill="black" stroke="black" points="208.69,-391.5 218.69,-388 208.69,-384.5 208.69,-391.5"/>
</g>
<!-- /req/sam&#45;core/AbstractSample&#45;&gt;/req/sam&#45;core/AbstractSample/sampleType&#45;sem -->
<g id="edge2" class="edge">
<title>/req/sam&#45;core/AbstractSample&#45;&gt;/req/sam&#45;core/AbstractSample/sampleType&#45;sem</title>
<path fill="none" stroke="black" d="M449.21,-424.59C497.45,-446.06 549,-469 549,-469 549,-469 570.18,-472.23 597.89,-476.46"/>
<polygon fill="black" stroke="black" points="597.52,-479.94 607.94,-477.99 598.58,-473.02 597.52,-479.94"/>
</g>
<!-- /req/sam&#45;core/AbstractSample&#45;&gt;/req/sam&#45;core/AbstractSample/parameter&#45;sem -->
<g id="edge3" class="edge">
<title>/req/sam&#45;core/AbstractSample&#45;&gt;/req/sam&#45;core/AbstractSample/parameter&#45;sem</title>
<path fill="none" stroke="black" d="M513.02,-409.96C540.47,-414.09 569.01,-418.39 595.94,-422.44"/>
<polygon fill="black" stroke="black" points="595.77,-425.95 606.18,-423.98 596.81,-419.03 595.77,-425.95"/>
</g>
<!-- /req/sam&#45;core/AbstractSample&#45;&gt;/req/obs&#45;core/gen/metadata&#45;sem -->
<g id="edge4" class="edge">
<title>/req/sam&#45;core/AbstractSample&#45;&gt;/req/obs&#45;core/gen/metadata&#45;sem</title>
<path fill="none" stroke="black" d="M513.02,-388C539.79,-388 567.58,-388 593.91,-388"/>
<polygon fill="black" stroke="black" points="593.93,-391.5 603.93,-388 593.93,-384.5 593.93,-391.5"/>
</g>
<!-- /req/sam&#45;cpt/Sample -->
<g id="node16" class="node">
<title>/req/sam&#45;cpt/Sample</title>
<polygon fill="none" stroke="black" points="622,-327 622,-348 833,-348 833,-327 622,-327"/>
<text text-anchor="start" x="653.5" y="-333.8" font-family="Times,serif" font-size="14.00">/req/sam&#45;cpt/Sample</text>
<polygon fill="none" stroke="black" points="622,-304 622,-325 833,-325 833,-304 622,-304"/>
<text text-anchor="start" x="625" y="-310.8" font-family="Times,serif" font-size="14.00">Conceptual Sample &#45; Sample</text>
<polygon fill="none" stroke="black" points="622,-281 622,-302 833,-302 833,-281 622,-281"/>
<text text-anchor="start" x="663" y="-287.8" font-family="Times,serif" font-size="14.00">Conceptual model</text>
<polygon fill="none" stroke="black" points="618.5,-278.5 618.5,-351.5 835.5,-351.5 835.5,-278.5 618.5,-278.5"/>
</g>
<!-- /req/sam&#45;core/AbstractSample&#45;&gt;/req/sam&#45;cpt/Sample -->
<g id="edge5" class="edge">
<title>/req/sam&#45;core/AbstractSample&#45;&gt;/req/sam&#45;cpt/Sample</title>
<path fill="none" stroke="black" stroke-dasharray="5,2" d="M513.02,-358.31C544.81,-351.84 578.06,-345.08 608.57,-338.88"/>
<polygon fill="black" stroke="black" points="609.28,-342.31 618.38,-336.88 607.88,-335.45 609.28,-342.31"/>
</g>
<!-- /req/obs&#45;core/NamedValue -->
<g id="node17" class="node">
<title>/req/obs&#45;core/NamedValue</title>
<polygon fill="none" stroke="black" points="578,-111 578,-132 876,-132 876,-111 578,-111"/>
<text text-anchor="start" x="633" y="-117.8" font-family="Times,serif" font-size="14.00">/req/obs&#45;core/NamedValue</text>
<polygon fill="none" stroke="black" points="578,-88 578,-109 876,-109 876,-88 578,-88"/>
<text text-anchor="start" x="581" y="-94.8" font-family="Times,serif" font-size="14.00">Abstract Observation core &#45; NamedValue</text>
<polygon fill="none" stroke="black" points="578,-65 578,-86 876,-86 876,-65 578,-65"/>
<text text-anchor="start" x="677" y="-71.8" font-family="Times,serif" font-size="14.00">Logical model</text>
<polygon fill="none" stroke="black" points="575,-62.5 575,-135.5 879,-135.5 879,-62.5 575,-62.5"/>
</g>
<!-- /req/sam&#45;core/AbstractSample&#45;&gt;/req/obs&#45;core/NamedValue -->
<g id="edge6" class="edge">
<title>/req/sam&#45;core/AbstractSample&#45;&gt;/req/obs&#45;core/NamedValue</title>
<path fill="none" stroke="black" stroke-dasharray="5,2" d="M412.47,-351.4C478.87,-297.94 602.12,-198.72 672.7,-141.91"/>
<polygon fill="black" stroke="black" points="675.02,-144.53 680.62,-135.53 670.63,-139.08 675.02,-144.53"/>
</g>
<!-- /req/sam&#45;cpt/Sample&#45;&gt;/req/sam&#45;cpt/Sample/Sample&#45;sem -->
<g id="edge7" class="edge">
<title>/req/sam&#45;cpt/Sample&#45;&gt;/req/sam&#45;cpt/Sample/Sample&#45;sem</title>
<path fill="none" stroke="black" d="M835.55,-342.95C872.62,-352.58 905,-361 905,-361 905,-361 941,-477 941,-477 941,-477 960.4,-480.17 985.9,-484.35"/>
<polygon fill="black" stroke="black" points="985.51,-487.83 995.94,-485.99 986.64,-480.92 985.51,-487.83"/>
</g>
<!-- /req/sam&#45;cpt/Sample&#45;&gt;/req/sam&#45;cpt/Sample/sampling&#45;sem -->
<g id="edge8" class="edge">
<title>/req/sam&#45;cpt/Sample&#45;&gt;/req/sam&#45;cpt/Sample/sampling&#45;sem</title>
<path fill="none" stroke="black" d="M835.55,-342.95C872.62,-352.58 905,-361 905,-361 905,-361 941,-423 941,-423 941,-423 960.4,-426.17 985.9,-430.35"/>
<polygon fill="black" stroke="black" points="985.51,-433.83 995.94,-431.99 986.64,-426.92 985.51,-433.83"/>
</g>
<!-- /req/sam&#45;cpt/Sample&#45;&gt;/req/sam&#45;cpt/Sample/preparationStep&#45;sem -->
<g id="edge9" class="edge">
<title>/req/sam&#45;cpt/Sample&#45;&gt;/req/sam&#45;cpt/Sample/preparationStep&#45;sem</title>
<path fill="none" stroke="black" d="M835.75,-342.32C888.58,-355.71 941,-369 941,-369 941,-369 960.4,-372.17 985.9,-376.35"/>
<polygon fill="black" stroke="black" points="985.51,-379.83 995.94,-377.99 986.64,-372.92 985.51,-379.83"/>
</g>
<!-- /req/sam&#45;cpt/Sample&#45;&gt;/req/sam&#45;cpt/Sample/sampledFeature&#45;sem -->
<g id="edge10" class="edge">
<title>/req/sam&#45;cpt/Sample&#45;&gt;/req/sam&#45;cpt/Sample/sampledFeature&#45;sem</title>
<path fill="none" stroke="black" d="M835.56,-322.68C867.44,-324.96 903.15,-327.51 937.89,-329.99"/>
<polygon fill="black" stroke="black" points="937.93,-333.5 948.15,-330.73 938.43,-326.52 937.93,-333.5"/>
</g>
<!-- /req/sam&#45;cpt/Sample&#45;&gt;/req/sam&#45;cpt/Sample/sampledFeature&#45;card -->
<g id="edge11" class="edge">
<title>/req/sam&#45;cpt/Sample&#45;&gt;/req/sam&#45;cpt/Sample/sampledFeature&#45;card</title>
<path fill="none" stroke="black" d="M835.56,-307.32C867.04,-305.07 902.26,-302.55 936.6,-300.1"/>
<polygon fill="black" stroke="black" points="937.01,-303.58 946.73,-299.38 936.51,-296.6 937.01,-303.58"/>
</g>
<!-- /req/sam&#45;cpt/Sample&#45;&gt;/req/sam&#45;cpt/Sample/relatedSample&#45;sem -->
<g id="edge12" class="edge">
<title>/req/sam&#45;cpt/Sample&#45;&gt;/req/sam&#45;cpt/Sample/relatedSample&#45;sem</title>
<path fill="none" stroke="black" d="M835.75,-287.68C888.58,-274.29 941,-261 941,-261 941,-261 960.4,-257.83 985.9,-253.65"/>
<polygon fill="black" stroke="black" points="986.64,-257.08 995.94,-252.01 985.51,-250.17 986.64,-257.08"/>
</g>
<!-- /req/sam&#45;cpt/Sample&#45;&gt;/req/obs&#45;cpt/gen/relatedObservation&#45;sem -->
<g id="edge13" class="edge">
<title>/req/sam&#45;cpt/Sample&#45;&gt;/req/obs&#45;cpt/gen/relatedObservation&#45;sem</title>
<path fill="none" stroke="black" d="M800.11,-278.44C861.91,-247.1 941,-207 941,-207 941,-207 960.4,-203.83 985.9,-199.65"/>
<polygon fill="black" stroke="black" points="986.64,-203.08 995.94,-198.01 985.51,-196.17 986.64,-203.08"/>
</g>
<!-- /req/obs&#45;core/NamedValue&#45;&gt;/req/obs&#45;core/NamedValue/NamedValue&#45;sem -->
<g id="edge14" class="edge">
<title>/req/obs&#45;core/NamedValue&#45;&gt;/req/obs&#45;core/NamedValue/NamedValue&#45;sem</title>
<path fill="none" stroke="black" d="M879.03,-109.79C896.04,-111 913.49,-112.25 930.78,-113.48"/>
<polygon fill="black" stroke="black" points="930.72,-116.99 940.94,-114.21 931.22,-110.01 930.72,-116.99"/>
</g>
<!-- /req/obs&#45;core/NamedValue&#45;&gt;/req/obs&#45;core/NamedValue/name&#45;sem -->
<g id="edge15" class="edge">
<title>/req/obs&#45;core/NamedValue&#45;&gt;/req/obs&#45;core/NamedValue/name&#45;sem</title>
<path fill="none" stroke="black" d="M879.03,-88.21C904.44,-86.4 930.81,-84.51 956.2,-82.7"/>
<polygon fill="black" stroke="black" points="956.52,-86.19 966.25,-81.98 956.03,-79.2 956.52,-86.19"/>
</g>
<!-- /req/obs&#45;core/NamedValue&#45;&gt;/req/obs&#45;core/NamedValue/value&#45;sem -->
<g id="edge16" class="edge">
<title>/req/obs&#45;core/NamedValue&#45;&gt;/req/obs&#45;core/NamedValue/value&#45;sem</title>
<path fill="none" stroke="black" d="M872.14,-62.46C910.26,-52.79 941,-45 941,-45 941,-45 960.4,-41.83 985.9,-37.65"/>
<polygon fill="black" stroke="black" points="986.64,-41.08 995.94,-36.01 985.51,-34.17 986.64,-41.08"/>
</g>
</g>
</svg>
