<?xml version="1.0" encoding="UTF-8" standalone="no"?>
<!DOCTYPE svg PUBLIC "-//W3C//DTD SVG 1.1//EN"
 "http://www.w3.org/Graphics/SVG/1.1/DTD/svg11.dtd">
<!-- Generated by graphviz version 2.43.0 (0)
 -->
<!-- Title: G Pages: 1 -->
<svg width="1611pt" height="244pt"
 viewBox="0.00 0.00 1611.00 243.50" xmlns="http://www.w3.org/2000/svg" xmlns:xlink="http://www.w3.org/1999/xlink">
<g id="graph0" class="graph" transform="scale(1 1) rotate(0) translate(4 239.5)">
<title>G</title>
<polygon fill="white" stroke="transparent" points="-4,4 -4,-239.5 1607,-239.5 1607,4 -4,4"/>
<!-- /req/obs&#45;core/gen/metadata&#45;sem -->
<g id="node1" class="node">
<title>/req/obs&#45;core/gen/metadata&#45;sem</title>
<polygon fill="none" stroke="black" points="752.5,-227.5 506.5,-227.5 506.5,-191.5 752.5,-191.5 752.5,-227.5"/>
<text text-anchor="middle" x="629.5" y="-205.8" font-family="Times,serif" font-size="14.00">/req/obs&#45;core/gen/metadata&#45;sem</text>
</g>
<!-- /req/obs&#45;cpt/ObservingProcedure/ObservingProcedure&#45;sem -->
<g id="node2" class="node">
<title>/req/obs&#45;cpt/ObservingProcedure/ObservingProcedure&#45;sem</title>
<polygon fill="none" stroke="black" points="1276,-235.5 838,-235.5 838,-199.5 1276,-199.5 1276,-235.5"/>
<text text-anchor="middle" x="1057" y="-213.8" font-family="Times,serif" font-size="14.00">/req/obs&#45;cpt/ObservingProcedure/ObservingProcedure&#45;sem</text>
</g>
<!-- /req/obs&#45;cpt/ObservingProcedure/observer&#45;sem -->
<g id="node3" class="node">
<title>/req/obs&#45;cpt/ObservingProcedure/observer&#45;sem</title>
<polygon fill="none" stroke="black" points="1234,-181.5 880,-181.5 880,-145.5 1234,-145.5 1234,-181.5"/>
<text text-anchor="middle" x="1057" y="-159.8" font-family="Times,serif" font-size="14.00">/req/obs&#45;cpt/ObservingProcedure/observer&#45;sem</text>
</g>
<!-- /req/obs&#45;cpt/gen/relatedObservation&#45;sem -->
<g id="node4" class="node">
<title>/req/obs&#45;cpt/gen/relatedObservation&#45;sem</title>
<polygon fill="none" stroke="black" points="1211,-127.5 903,-127.5 903,-91.5 1211,-91.5 1211,-127.5"/>
<text text-anchor="middle" x="1057" y="-105.8" font-family="Times,serif" font-size="14.00">/req/obs&#45;cpt/gen/relatedObservation&#45;sem</text>
</g>
<!-- /req/obs&#45;cpt/Procedure/Procedure&#45;sem -->
<g id="node5" class="node">
<title>/req/obs&#45;cpt/Procedure/Procedure&#45;sem</title>
<polygon fill="none" stroke="black" points="1603,-54.5 1312,-54.5 1312,-18.5 1603,-18.5 1603,-54.5"/>
<text text-anchor="middle" x="1457.5" y="-32.8" font-family="Times,serif" font-size="14.00">/req/obs&#45;cpt/Procedure/Procedure&#45;sem</text>
</g>
<!-- /req/obs&#45;core/AbstractObservingProcedure -->
<g id="node6" class="node">
<title>/req/obs&#45;core/AbstractObservingProcedure</title>
<polygon fill="none" stroke="black" points="3.5,-184.5 3.5,-205.5 418.5,-205.5 418.5,-184.5 3.5,-184.5"/>
<text text-anchor="start" x="58" y="-191.3" font-family="Times,serif" font-size="14.00">/req/obs&#45;core/AbstractObservingProcedure</text>
<polygon fill="none" stroke="black" points="3.5,-161.5 3.5,-182.5 418.5,-182.5 418.5,-161.5 3.5,-161.5"/>
<text text-anchor="start" x="6.5" y="-168.3" font-family="Times,serif" font-size="14.00">Abstract Observation core &#45; AbstractObservingProcedure</text>
<polygon fill="none" stroke="black" points="3.5,-138.5 3.5,-159.5 418.5,-159.5 418.5,-138.5 3.5,-138.5"/>
<text text-anchor="start" x="161" y="-145.3" font-family="Times,serif" font-size="14.00">Logical model</text>
<polygon fill="none" stroke="black" points="0,-136 0,-209 421,-209 421,-136 0,-136"/>
</g>
<!-- /req/obs&#45;core/AbstractObservingProcedure&#45;&gt;/req/obs&#45;core/gen/metadata&#45;sem -->
<g id="edge1" class="edge">
<title>/req/obs&#45;core/AbstractObservingProcedure&#45;&gt;/req/obs&#45;core/gen/metadata&#45;sem</title>
<path fill="none" stroke="black" d="M421.22,-191.11C446.78,-193.38 472.31,-195.64 496.28,-197.77"/>
<polygon fill="black" stroke="black" points="496.18,-201.27 506.45,-198.67 496.8,-194.3 496.18,-201.27"/>
</g>
<!-- /req/obs&#45;cpt/ObservingProcedure -->
<g id="node7" class="node">
<title>/req/obs&#45;cpt/ObservingProcedure</title>
<polygon fill="none" stroke="black" points="460.5,-148.5 460.5,-169.5 799.5,-169.5 799.5,-148.5 460.5,-148.5"/>
<text text-anchor="start" x="511.5" y="-155.3" font-family="Times,serif" font-size="14.00">/req/obs&#45;cpt/ObservingProcedure</text>
<polygon fill="none" stroke="black" points="460.5,-125.5 460.5,-146.5 799.5,-146.5 799.5,-125.5 460.5,-125.5"/>
<text text-anchor="start" x="463.5" y="-132.3" font-family="Times,serif" font-size="14.00">Conceptual Observation &#45; ObservingProcedure</text>
<polygon fill="none" stroke="black" points="460.5,-102.5 460.5,-123.5 799.5,-123.5 799.5,-102.5 460.5,-102.5"/>
<text text-anchor="start" x="565.5" y="-109.3" font-family="Times,serif" font-size="14.00">Conceptual model</text>
<polygon fill="none" stroke="black" points="457,-100 457,-173 802,-173 802,-100 457,-100"/>
</g>
<!-- /req/obs&#45;core/AbstractObservingProcedure&#45;&gt;/req/obs&#45;cpt/ObservingProcedure -->
<g id="edge2" class="edge">
<title>/req/obs&#45;core/AbstractObservingProcedure&#45;&gt;/req/obs&#45;cpt/ObservingProcedure</title>
<path fill="none" stroke="black" stroke-dasharray="5,2" d="M421.22,-154.39C429.82,-153.65 438.42,-152.91 446.96,-152.17"/>
<polygon fill="black" stroke="black" points="447.28,-155.66 456.95,-151.31 446.68,-148.68 447.28,-155.66"/>
</g>
<!-- /req/obs&#45;cpt/ObservingProcedure&#45;&gt;/req/obs&#45;cpt/ObservingProcedure/ObservingProcedure&#45;sem -->
<g id="edge3" class="edge">
<title>/req/obs&#45;cpt/ObservingProcedure&#45;&gt;/req/obs&#45;cpt/ObservingProcedure/ObservingProcedure&#45;sem</title>
<path fill="none" stroke="black" d="M770.92,-173.04C808.06,-182.71 838,-190.5 838,-190.5 838,-190.5 865.24,-193.87 900.46,-198.24"/>
<polygon fill="black" stroke="black" points="900.24,-201.73 910.59,-199.49 901.1,-194.79 900.24,-201.73"/>
</g>
<!-- /req/obs&#45;cpt/ObservingProcedure&#45;&gt;/req/obs&#45;cpt/ObservingProcedure/observer&#45;sem -->
<g id="edge4" class="edge">
<title>/req/obs&#45;cpt/ObservingProcedure&#45;&gt;/req/obs&#45;cpt/ObservingProcedure/observer&#45;sem</title>
<path fill="none" stroke="black" d="M802.03,-147.38C824.25,-148.79 847.09,-150.24 869.53,-151.67"/>
<polygon fill="black" stroke="black" points="869.61,-155.18 879.81,-152.32 870.05,-148.19 869.61,-155.18"/>
</g>
<!-- /req/obs&#45;cpt/ObservingProcedure&#45;&gt;/req/obs&#45;cpt/gen/relatedObservation&#45;sem -->
<g id="edge5" class="edge">
<title>/req/obs&#45;cpt/ObservingProcedure&#45;&gt;/req/obs&#45;cpt/gen/relatedObservation&#45;sem</title>
<path fill="none" stroke="black" d="M802.03,-125.62C832,-123.71 863.09,-121.74 892.82,-119.85"/>
<polygon fill="black" stroke="black" points="893.09,-123.34 902.85,-119.22 892.64,-116.36 893.09,-123.34"/>
</g>
<!-- /req/obs&#45;cpt/Procedure -->
<g id="node8" class="node">
<title>/req/obs&#45;cpt/Procedure</title>
<polygon fill="none" stroke="black" points="925,-48.5 925,-69.5 1190,-69.5 1190,-48.5 925,-48.5"/>
<text text-anchor="start" x="976" y="-55.3" font-family="Times,serif" font-size="14.00">/req/obs&#45;cpt/Procedure</text>
<polygon fill="none" stroke="black" points="925,-25.5 925,-46.5 1190,-46.5 1190,-25.5 925,-25.5"/>
<text text-anchor="start" x="928" y="-32.3" font-family="Times,serif" font-size="14.00">Conceptual Observation &#45; Procedure</text>
<polygon fill="none" stroke="black" points="925,-2.5 925,-23.5 1190,-23.5 1190,-2.5 925,-2.5"/>
<text text-anchor="start" x="993" y="-9.3" font-family="Times,serif" font-size="14.00">Conceptual model</text>
<polygon fill="none" stroke="black" points="921.5,0 921.5,-73 1192.5,-73 1192.5,0 921.5,0"/>
</g>
<!-- /req/obs&#45;cpt/ObservingProcedure&#45;&gt;/req/obs&#45;cpt/Procedure -->
<g id="edge6" class="edge">
<title>/req/obs&#45;cpt/ObservingProcedure&#45;&gt;/req/obs&#45;cpt/Procedure</title>
<path fill="none" stroke="black" stroke-dasharray="5,2" d="M770.92,-99.96C808.06,-90.29 838,-82.5 838,-82.5 838,-82.5 871.1,-75.52 911.5,-66.99"/>
<polygon fill="black" stroke="black" points="912.29,-70.4 921.35,-64.91 910.84,-63.55 912.29,-70.4"/>
</g>
<!-- /req/obs&#45;cpt/Procedure&#45;&gt;/req/obs&#45;cpt/Procedure/Procedure&#45;sem -->
<g id="edge7" class="edge">
<title>/req/obs&#45;cpt/Procedure&#45;&gt;/req/obs&#45;cpt/Procedure/Procedure&#45;sem</title>
<path fill="none" stroke="black" d="M1192.64,-36.5C1227.74,-36.5 1265.83,-36.5 1301.88,-36.5"/>
<polygon fill="black" stroke="black" points="1301.99,-40 1311.99,-36.5 1301.99,-33 1301.99,-40"/>
</g>
</g>
</svg>
