<?xml version="1.0" encoding="UTF-8" standalone="no"?>
<!DOCTYPE svg PUBLIC "-//W3C//DTD SVG 1.1//EN"
 "http://www.w3.org/Graphics/SVG/1.1/DTD/svg11.dtd">
<!-- Generated by graphviz version 2.43.0 (0)
 -->
<!-- Title: G Pages: 1 -->
<svg width="720pt" height="152pt"
 viewBox="0.00 0.00 720.00 152.00" xmlns="http://www.w3.org/2000/svg" xmlns:xlink="http://www.w3.org/1999/xlink">
<g id="graph0" class="graph" transform="scale(1 1) rotate(0) translate(4 148)">
<title>G</title>
<polygon fill="white" stroke="transparent" points="-4,4 -4,-148 716,-148 716,4 -4,4"/>
<!-- /req/sam&#45;cpt/PreparationStep/PreparationStep&#45;sem -->
<g id="node1" class="node">
<title>/req/sam&#45;cpt/PreparationStep/PreparationStep&#45;sem</title>
<polygon fill="none" stroke="black" points="707,-144 323,-144 323,-108 707,-108 707,-144"/>
<text text-anchor="middle" x="515" y="-122.3" font-family="Times,serif" font-size="14.00">/req/sam&#45;cpt/PreparationStep/PreparationStep&#45;sem</text>
</g>
<!-- /req/sam&#45;cpt/PreparationStep/processingDetails&#45;sem -->
<g id="node2" class="node">
<title>/req/sam&#45;cpt/PreparationStep/processingDetails&#45;sem</title>
<polygon fill="none" stroke="black" points="712,-90 318,-90 318,-54 712,-54 712,-90"/>
<text text-anchor="middle" x="515" y="-68.3" font-family="Times,serif" font-size="14.00">/req/sam&#45;cpt/PreparationStep/processingDetails&#45;sem</text>
</g>
<!-- /req/sam&#45;cpt/PreparationStep/preparedSample&#45;sem -->
<g id="node3" class="node">
<title>/req/sam&#45;cpt/PreparationStep/preparedSample&#45;sem</title>
<polygon fill="none" stroke="black" points="707.5,-36 322.5,-36 322.5,0 707.5,0 707.5,-36"/>
<text text-anchor="middle" x="515" y="-14.3" font-family="Times,serif" font-size="14.00">/req/sam&#45;cpt/PreparationStep/preparedSample&#45;sem</text>
</g>
<!-- /req/sam&#45;cpt/PreparationStep -->
<g id="node4" class="node">
<title>/req/sam&#45;cpt/PreparationStep</title>
<polygon fill="none" stroke="black" points="3,-84 3,-105 279,-105 279,-84 3,-84"/>
<text text-anchor="start" x="35" y="-90.8" font-family="Times,serif" font-size="14.00">/req/sam&#45;cpt/PreparationStep</text>
<polygon fill="none" stroke="black" points="3,-61 3,-82 279,-82 279,-61 3,-61"/>
<text text-anchor="start" x="6" y="-67.8" font-family="Times,serif" font-size="14.00">Conceptual Sample &#45; PreparationStep</text>
<polygon fill="none" stroke="black" points="3,-38 3,-59 279,-59 279,-38 3,-38"/>
<text text-anchor="start" x="76.5" y="-44.8" font-family="Times,serif" font-size="14.00">Conceptual model</text>
<polygon fill="none" stroke="black" points="0,-35.5 0,-108.5 282,-108.5 282,-35.5 0,-35.5"/>
</g>
<!-- /req/sam&#45;cpt/PreparationStep&#45;&gt;/req/sam&#45;cpt/PreparationStep/PreparationStep&#45;sem -->
<g id="edge1" class="edge">
<title>/req/sam&#45;cpt/PreparationStep&#45;&gt;/req/sam&#45;cpt/PreparationStep/PreparationStep&#45;sem</title>
<path fill="none" stroke="black" d="M282.38,-93.54C303.29,-96.74 318,-99 318,-99 318,-99 342.07,-102.32 373.35,-106.62"/>
<polygon fill="black" stroke="black" points="372.88,-110.09 383.27,-107.99 373.84,-103.16 372.88,-110.09"/>
</g>
<!-- /req/sam&#45;cpt/PreparationStep&#45;&gt;/req/sam&#45;cpt/PreparationStep/processingDetails&#45;sem -->
<g id="edge2" class="edge">
<title>/req/sam&#45;cpt/PreparationStep&#45;&gt;/req/sam&#45;cpt/PreparationStep/processingDetails&#45;sem</title>
<path fill="none" stroke="black" d="M282.11,-72C290.55,-72 299.12,-72 307.75,-72"/>
<polygon fill="black" stroke="black" points="307.9,-75.5 317.9,-72 307.9,-68.5 307.9,-75.5"/>
</g>
<!-- /req/sam&#45;cpt/PreparationStep&#45;&gt;/req/sam&#45;cpt/PreparationStep/preparedSample&#45;sem -->
<g id="edge3" class="edge">
<title>/req/sam&#45;cpt/PreparationStep&#45;&gt;/req/sam&#45;cpt/PreparationStep/preparedSample&#45;sem</title>
<path fill="none" stroke="black" d="M282.38,-50.46C303.29,-47.26 318,-45 318,-45 318,-45 342.07,-41.68 373.35,-37.38"/>
<polygon fill="black" stroke="black" points="373.84,-40.84 383.27,-36.01 372.88,-33.91 373.84,-40.84"/>
</g>
</g>
</svg>
