<?xml version="1.0" encoding="UTF-8" standalone="no"?>
<!DOCTYPE svg PUBLIC "-//W3C//DTD SVG 1.1//EN"
 "http://www.w3.org/Graphics/SVG/1.1/DTD/svg11.dtd">
<!-- Generated by graphviz version 2.43.0 (0)
 -->
<!-- Title: G Pages: 1 -->
<svg width="651pt" height="306pt"
 viewBox="0.00 0.00 651.17 306.00" xmlns="http://www.w3.org/2000/svg" xmlns:xlink="http://www.w3.org/1999/xlink">
<g id="graph0" class="graph" transform="scale(1 1) rotate(0) translate(4 302)">
<title>G</title>
<polygon fill="white" stroke="transparent" points="-4,4 -4,-302 647.17,-302 647.17,4 -4,4"/>
<g id="node1" class="node">
<title></title>
<polygon fill="none" stroke="black" points="172,-36 118,-36 118,0 172,0 172,-36"/>
</g>
<!-- /req/{classM}/{reqN} -->
<g id="node2" class="node">
<title>/req/{classM}/{reqN}</title>
<polygon fill="none" stroke="black" points="553.59,-167 415.59,-167 415.59,-131 553.59,-131 553.59,-167"/>
<text text-anchor="middle" x="484.59" y="-145.3" font-family="Times,serif" font-size="14.00">/req/{classM}/{reqN}</text>
</g>
<!-- /req/{classM}/{reqP} -->
<g id="node3" class="node">
<title>/req/{classM}/{reqP}</title>
<polygon fill="none" stroke="black" points="552.59,-113 416.59,-113 416.59,-77 552.59,-77 552.59,-113"/>
<text text-anchor="middle" x="484.59" y="-91.3" font-family="Times,serif" font-size="14.00">/req/{classM}/{reqP}</text>
</g>
<!-- req/obs&#45;core/Deployment/Deployment&#45;sem -->
<g id="node4" class="node">
<title>req/obs&#45;core/Deployment/Deployment&#45;sem</title>
<polygon fill="none" stroke="black" points="272,-190 18,-190 18,-154 272,-154 272,-190"/>
<text text-anchor="middle" x="145" y="-168.3" font-family="Times,serif" font-size="14.00">req/obs&#45;core/Deployment/Deployment&#45;sem</text>
</g>
<!-- req/obs&#45;core/Deployment/deploymentReason&#45;sem -->
<g id="node5" class="node">
<title>req/obs&#45;core/Deployment/deploymentReason&#45;sem</title>
<polygon fill="none" stroke="black" points="290,-244 0,-244 0,-208 290,-208 290,-244"/>
<text text-anchor="middle" x="145" y="-222.3" font-family="Times,serif" font-size="14.00">req/obs&#45;core/Deployment/deploymentReason&#45;sem</text>
</g>
<!-- req/obs&#45;core/Deployment/deploymentTime&#45;sem -->
<g id="node6" class="node">
<title>req/obs&#45;core/Deployment/deploymentTime&#45;sem</title>
<polygon fill="none" stroke="black" points="285,-298 5,-298 5,-262 285,-262 285,-298"/>
<text text-anchor="middle" x="145" y="-276.3" font-family="Times,serif" font-size="14.00">req/obs&#45;core/Deployment/deploymentTime&#45;sem</text>
</g>
<!-- /req/{classM} -->
<g id="node7" class="node">
<title>/req/{classM}</title>
<polygon fill="none" stroke="black" points="64,-107 64,-128 226,-128 226,-107 64,-107"/>
<text text-anchor="start" x="106" y="-113.8" font-family="Times,serif" font-size="14.00">/req/{classM}</text>
<polygon fill="none" stroke="black" points="64,-84 64,-105 226,-105 226,-84 64,-84"/>
<text text-anchor="start" x="127.5" y="-90.8" font-family="Times,serif" font-size="14.00">&#39;name&#39;</text>
<polygon fill="none" stroke="black" points="64,-61 64,-82 226,-82 226,-61 64,-61"/>
<text text-anchor="start" x="67" y="-67.8" font-family="Times,serif" font-size="14.00">[artefact or technology type]</text>
<polygon fill="none" stroke="black" points="61,-58.5 61,-131.5 229,-131.5 229,-58.5 61,-58.5"/>
</g>
<!-- /req/{classM}&#45;&gt;/req/{classM}/{reqN} -->
<g id="edge1" class="edge">
<title>/req/{classM}&#45;&gt;/req/{classM}/{reqN}</title>
<path fill="none" stroke="black" d="M237.36,-109.61C289.88,-118.01 355.17,-128.46 405.32,-136.48"/>
<polygon fill="black" stroke="black" points="405.03,-139.98 415.46,-138.1 406.14,-133.07 405.03,-139.98"/>
</g>
<!-- /req/{classM}&#45;&gt;/req/{classM}/{reqP} -->
<g id="edge2" class="edge">
<title>/req/{classM}&#45;&gt;/req/{classM}/{reqP}</title>
<path fill="none" stroke="black" d="M237.36,-95C290.24,-95 356.08,-95 406.36,-95"/>
<polygon fill="black" stroke="black" points="406.53,-98.5 416.53,-95 406.53,-91.5 406.53,-98.5"/>
</g>
<!-- [identifier for another requirements class] -->
<g id="node8" class="node">
<title>[identifier for another requirements class]</title>
<ellipse fill="none" stroke="black" cx="484.59" cy="-41" rx="158.67" ry="18"/>
<text text-anchor="middle" x="484.59" y="-37.3" font-family="Times,serif" font-size="14.00">[identifier for another requirements class]</text>
</g>
<!-- /req/{classM}&#45;&gt;[identifier for another requirements class] -->
<g id="edge3" class="edge">
<title>/req/{classM}&#45;&gt;[identifier for another requirements class]</title>
<path fill="none" stroke="black" stroke-dasharray="5,2" d="M237.36,-80.39C282.02,-73.24 335.91,-64.62 381.88,-57.27"/>
<polygon fill="black" stroke="black" points="382.54,-60.71 391.86,-55.67 381.44,-53.8 382.54,-60.71"/>
</g>
</g>
</svg>
