<?xml version="1.0" encoding="UTF-8" standalone="no"?>
<!DOCTYPE svg PUBLIC "-//W3C//DTD SVG 1.1//EN"
 "http://www.w3.org/Graphics/SVG/1.1/DTD/svg11.dtd">
<!-- Generated by graphviz version 2.43.0 (0)
 -->
<!-- Title: G Pages: 1 -->
<svg width="572pt" height="198pt"
 viewBox="0.00 0.00 571.67 198.00" xmlns="http://www.w3.org/2000/svg" xmlns:xlink="http://www.w3.org/1999/xlink">
<g id="graph0" class="graph" transform="scale(1 1) rotate(0) translate(4 194)">
<title>G</title>
<polygon fill="white" stroke="transparent" points="-4,4 -4,-194 567.67,-194 567.67,4 -4,4"/>
<!-- /req/EXAMPLE/ObservableProp/name -->
<g id="node1" class="node">
<title>/req/EXAMPLE/ObservableProp/name</title>
<polygon fill="none" stroke="black" points="230,-36 0,-36 0,0 230,0 230,-36"/>
<text text-anchor="middle" x="115" y="-14.3" font-family="Times,serif" font-size="14.00">/req/EXAMPLE/ObservableProp/name</text>
</g>
<!-- /req/{classM}/{reqN} -->
<g id="node2" class="node">
<title>/req/{classM}/{reqN}</title>
<polygon fill="none" stroke="black" points="483.84,-167 345.84,-167 345.84,-131 483.84,-131 483.84,-167"/>
<text text-anchor="middle" x="414.84" y="-145.3" font-family="Times,serif" font-size="14.00">/req/{classM}/{reqN}</text>
</g>
<!-- /req/{classM}/{reqP} -->
<g id="node3" class="node">
<title>/req/{classM}/{reqP}</title>
<polygon fill="none" stroke="black" points="482.84,-113 346.84,-113 346.84,-77 482.84,-77 482.84,-113"/>
<text text-anchor="middle" x="414.84" y="-91.3" font-family="Times,serif" font-size="14.00">/req/{classM}/{reqP}</text>
</g>
<!-- ?Somethinggeneralfromcpt??? -->
<g id="node4" class="node">
<title>?Somethinggeneralfromcpt???</title>
<polygon fill="none" stroke="black" points="206.5,-190 23.5,-190 23.5,-154 206.5,-154 206.5,-190"/>
<text text-anchor="middle" x="115" y="-168.3" font-family="Times,serif" font-size="14.00">?Somethinggeneralfromcpt???</text>
</g>
<!-- /req/{classM} -->
<g id="node5" class="node">
<title>/req/{classM}</title>
<polygon fill="none" stroke="black" points="25,-107 25,-128 205,-128 205,-107 25,-107"/>
<text text-anchor="start" x="76" y="-113.8" font-family="Times,serif" font-size="14.00">/req/{classM}</text>
<polygon fill="none" stroke="black" points="25,-84 25,-105 205,-105 205,-84 25,-84"/>
<text text-anchor="start" x="28" y="-90.8" font-family="Times,serif" font-size="14.00">Name of the requirements class</text>
<polygon fill="none" stroke="black" points="25,-61 25,-82 205,-82 205,-61 25,-61"/>
<text text-anchor="start" x="37" y="-67.8" font-family="Times,serif" font-size="14.00">[artefact or technology type]</text>
<polygon fill="none" stroke="black" points="22,-58.5 22,-131.5 208,-131.5 208,-58.5 22,-58.5"/>
</g>
<!-- /req/{classM}&#45;&gt;/req/{classM}/{reqN} -->
<g id="edge1" class="edge">
<title>/req/{classM}&#45;&gt;/req/{classM}/{reqN}</title>
<path fill="none" stroke="black" d="M216,-113.13C254.93,-120.19 298.87,-128.16 335.44,-134.79"/>
<polygon fill="black" stroke="black" points="335.08,-138.28 345.55,-136.62 336.33,-131.39 335.08,-138.28"/>
</g>
<!-- /req/{classM}&#45;&gt;/req/{classM}/{reqP} -->
<g id="edge2" class="edge">
<title>/req/{classM}&#45;&gt;/req/{classM}/{reqP}</title>
<path fill="none" stroke="black" d="M216,-95C255.24,-95 299.57,-95 336.31,-95"/>
<polygon fill="black" stroke="black" points="336.46,-98.5 346.46,-95 336.46,-91.5 336.46,-98.5"/>
</g>
<!-- [identifierforanotherrequirementsclass] -->
<g id="node6" class="node">
<title>[identifierforanotherrequirementsclass]</title>
<ellipse fill="none" stroke="black" cx="414.84" cy="-41" rx="148.67" ry="18"/>
<text text-anchor="middle" x="414.84" y="-37.3" font-family="Times,serif" font-size="14.00">[identifierforanotherrequirementsclass]</text>
</g>
<!-- /req/{classM}&#45;&gt;[identifierforanotherrequirementsclass] -->
<g id="edge3" class="edge">
<title>/req/{classM}&#45;&gt;[identifierforanotherrequirementsclass]</title>
<path fill="none" stroke="black" stroke-dasharray="5,2" d="M216,-76.87C250,-70.7 287.83,-63.85 321.23,-57.79"/>
<polygon fill="black" stroke="black" points="322.22,-61.17 331.44,-55.94 320.97,-54.28 322.22,-61.17"/>
</g>
</g>
</svg>
