<?xml version="1.0" encoding="UTF-8" standalone="no"?>
<!DOCTYPE svg PUBLIC "-//W3C//DTD SVG 1.1//EN"
 "http://www.w3.org/Graphics/SVG/1.1/DTD/svg11.dtd">
<!-- Generated by graphviz version 2.43.0 (0)
 -->
<!-- Title: G Pages: 1 -->
<svg width="900pt" height="847pt"
 viewBox="0.00 0.00 900.00 847.00" xmlns="http://www.w3.org/2000/svg" xmlns:xlink="http://www.w3.org/1999/xlink">
<g id="graph0" class="graph" transform="scale(1 1) rotate(0) translate(4 843)">
<title>G</title>
<polygon fill="white" stroke="transparent" points="-4,4 -4,-843 896,-843 896,4 -4,4"/>
<!-- /req/sam&#45;cpt/Sample/Sample&#45;sem -->
<g id="node1" class="node">
<title>/req/sam&#45;cpt/Sample/Sample&#45;sem</title>
<polygon fill="none" stroke="black" points="826,-839 624,-839 624,-803 826,-803 826,-839"/>
<text text-anchor="middle" x="725" y="-817.3" font-family="Times,serif" font-size="14.00">/req/sam&#45;cpt/Sample/Sample&#45;sem</text>
</g>
<!-- /req/sam&#45;cpt/Sample/preparationStep&#45;sem -->
<g id="node2" class="node">
<title>/req/sam&#45;cpt/Sample/preparationStep&#45;sem</title>
<polygon fill="none" stroke="black" points="848,-785 602,-785 602,-749 848,-749 848,-785"/>
<text text-anchor="middle" x="725" y="-763.3" font-family="Times,serif" font-size="14.00">/req/sam&#45;cpt/Sample/preparationStep&#45;sem</text>
</g>
<!-- /req/sam&#45;cpt/Sample/relatedObservation&#45;sem -->
<g id="node3" class="node">
<title>/req/sam&#45;cpt/Sample/relatedObservation&#45;sem</title>
<polygon fill="none" stroke="black" points="856.5,-731 593.5,-731 593.5,-695 856.5,-695 856.5,-731"/>
<text text-anchor="middle" x="725" y="-709.3" font-family="Times,serif" font-size="14.00">/req/sam&#45;cpt/Sample/relatedObservation&#45;sem</text>
</g>
<!-- /req/sam&#45;cpt/Sample/sampling&#45;sem -->
<g id="node4" class="node">
<title>/req/sam&#45;cpt/Sample/sampling&#45;sem</title>
<polygon fill="none" stroke="black" points="830.5,-677 619.5,-677 619.5,-641 830.5,-641 830.5,-677"/>
<text text-anchor="middle" x="725" y="-655.3" font-family="Times,serif" font-size="14.00">/req/sam&#45;cpt/Sample/sampling&#45;sem</text>
</g>
<!-- /req/sam&#45;cpt/Sampler/Sampler&#45;sem -->
<g id="node5" class="node">
<title>/req/sam&#45;cpt/Sampler/Sampler&#45;sem</title>
<polygon fill="none" stroke="black" points="830.5,-414 619.5,-414 619.5,-378 830.5,-378 830.5,-414"/>
<text text-anchor="middle" x="725" y="-392.3" font-family="Times,serif" font-size="14.00">/req/sam&#45;cpt/Sampler/Sampler&#45;sem</text>
</g>
<!-- /req/sam&#45;cpt/Sampler/implementedProcedure&#45;sem -->
<g id="node6" class="node">
<title>/req/sam&#45;cpt/Sampler/implementedProcedure&#45;sem</title>
<polygon fill="none" stroke="black" points="871,-360 579,-360 579,-324 871,-324 871,-360"/>
<text text-anchor="middle" x="725" y="-338.3" font-family="Times,serif" font-size="14.00">/req/sam&#45;cpt/Sampler/implementedProcedure&#45;sem</text>
</g>
<!-- /req/sam&#45;cpt/Sampler/sampling&#45;sem -->
<g id="node7" class="node">
<title>/req/sam&#45;cpt/Sampler/sampling&#45;sem</title>
<polygon fill="none" stroke="black" points="832.5,-306 617.5,-306 617.5,-270 832.5,-270 832.5,-306"/>
<text text-anchor="middle" x="725" y="-284.3" font-family="Times,serif" font-size="14.00">/req/sam&#45;cpt/Sampler/sampling&#45;sem</text>
</g>
<!-- /req/sam&#45;cpt/Sampling/Sampling&#45;sem -->
<g id="node8" class="node">
<title>/req/sam&#45;cpt/Sampling/Sampling&#45;sem</title>
<polygon fill="none" stroke="black" points="837,-144 613,-144 613,-108 837,-108 837,-144"/>
<text text-anchor="middle" x="725" y="-122.3" font-family="Times,serif" font-size="14.00">/req/sam&#45;cpt/Sampling/Sampling&#45;sem</text>
</g>
<!-- /req/sam&#45;cpt/Sampling/featureOfInterest&#45;sem -->
<g id="node9" class="node">
<title>/req/sam&#45;cpt/Sampling/featureOfInterest&#45;sem</title>
<polygon fill="none" stroke="black" points="857,-90 593,-90 593,-54 857,-54 857,-90"/>
<text text-anchor="middle" x="725" y="-68.3" font-family="Times,serif" font-size="14.00">/req/sam&#45;cpt/Sampling/featureOfInterest&#45;sem</text>
</g>
<!-- /req/sam&#45;cpt/Sampling/sample&#45;sem -->
<g id="node10" class="node">
<title>/req/sam&#45;cpt/Sampling/sample&#45;sem</title>
<polygon fill="none" stroke="black" points="830.5,-36 619.5,-36 619.5,0 830.5,0 830.5,-36"/>
<text text-anchor="middle" x="725" y="-14.3" font-family="Times,serif" font-size="14.00">/req/sam&#45;cpt/Sampling/sample&#45;sem</text>
</g>
<!-- /req/sam&#45;cpt/Sampling/sampler&#45;sem -->
<g id="node11" class="node">
<title>/req/sam&#45;cpt/Sampling/sampler&#45;sem</title>
<polygon fill="none" stroke="black" points="832.5,-252 617.5,-252 617.5,-216 832.5,-216 832.5,-252"/>
<text text-anchor="middle" x="725" y="-230.3" font-family="Times,serif" font-size="14.00">/req/sam&#45;cpt/Sampling/sampler&#45;sem</text>
</g>
<!-- /req/sam&#45;cpt/Sampling/samplingProcedure&#45;sem -->
<g id="node12" class="node">
<title>/req/sam&#45;cpt/Sampling/samplingProcedure&#45;sem</title>
<polygon fill="none" stroke="black" points="863.5,-198 586.5,-198 586.5,-162 863.5,-162 863.5,-198"/>
<text text-anchor="middle" x="725" y="-176.3" font-family="Times,serif" font-size="14.00">/req/sam&#45;cpt/Sampling/samplingProcedure&#45;sem</text>
</g>
<!-- /req/sam&#45;cpt/SamplingProcedure/SamplingProcedure&#45;sem -->
<g id="node13" class="node">
<title>/req/sam&#45;cpt/SamplingProcedure/SamplingProcedure&#45;sem</title>
<polygon fill="none" stroke="black" points="892,-551 558,-551 558,-515 892,-515 892,-551"/>
<text text-anchor="middle" x="725" y="-529.3" font-family="Times,serif" font-size="14.00">/req/sam&#45;cpt/SamplingProcedure/SamplingProcedure&#45;sem</text>
</g>
<!-- /req/sam&#45;cpt/SamplingProcedure/implementation&#45;sem -->
<g id="node14" class="node">
<title>/req/sam&#45;cpt/SamplingProcedure/implementation&#45;sem</title>
<polygon fill="none" stroke="black" points="881.5,-497 568.5,-497 568.5,-461 881.5,-461 881.5,-497"/>
<text text-anchor="middle" x="725" y="-475.3" font-family="Times,serif" font-size="14.00">/req/sam&#45;cpt/SamplingProcedure/implementation&#45;sem</text>
</g>
<!-- /req/sam&#45;cpt/SamplingProcedure/sampling&#45;sem -->
<g id="node15" class="node">
<title>/req/sam&#45;cpt/SamplingProcedure/sampling&#45;sem</title>
<polygon fill="none" stroke="black" points="863.5,-605 586.5,-605 586.5,-569 863.5,-569 863.5,-605"/>
<text text-anchor="middle" x="725" y="-583.3" font-family="Times,serif" font-size="14.00">/req/sam&#45;cpt/SamplingProcedure/sampling&#45;sem</text>
</g>
<!-- /req/sam&#45;cpt -->
<g id="node16" class="node">
<title>/req/sam&#45;cpt</title>
<polygon fill="none" stroke="black" points="11,-495 11,-516 187,-516 187,-495 11,-495"/>
<text text-anchor="start" x="64.5" y="-501.8" font-family="Times,serif" font-size="14.00">/req/sam&#45;cpt</text>
<polygon fill="none" stroke="black" points="11,-472 11,-493 187,-493 187,-472 11,-472"/>
<text text-anchor="start" x="14" y="-478.8" font-family="Times,serif" font-size="14.00">Core Sampling Schema Model</text>
<polygon fill="none" stroke="black" points="11,-449 11,-470 187,-470 187,-449 11,-449"/>
<text text-anchor="start" x="37.5" y="-455.8" font-family="Times,serif" font-size="14.00">Core Sampling Model</text>
<polygon fill="none" stroke="black" points="8,-446.5 8,-519.5 190,-519.5 190,-446.5 8,-446.5"/>
</g>
<!-- /req/sam&#45;cpt/Sample -->
<g id="node17" class="node">
<title>/req/sam&#45;cpt/Sample</title>
<polygon fill="none" stroke="black" points="278,-792 278,-813 478,-813 478,-792 278,-792"/>
<text text-anchor="start" x="321" y="-798.8" font-family="Times,serif" font-size="14.00">/req/sam&#45;cpt/Sample</text>
<polygon fill="none" stroke="black" points="278,-769 278,-790 478,-790 478,-769 278,-769"/>
<text text-anchor="start" x="281" y="-775.8" font-family="Times,serif" font-size="14.00">Conceptual Sample Schema Model</text>
<polygon fill="none" stroke="black" points="278,-746 278,-767 478,-767 478,-746 278,-746"/>
<text text-anchor="start" x="327" y="-752.8" font-family="Times,serif" font-size="14.00">Conceptual Model</text>
<polygon fill="none" stroke="black" points="275,-743.5 275,-816.5 481,-816.5 481,-743.5 275,-743.5"/>
</g>
<!-- /req/sam&#45;cpt&#45;&gt;/req/sam&#45;cpt/Sample -->
<g id="edge1" class="edge">
<title>/req/sam&#45;cpt&#45;&gt;/req/sam&#45;cpt/Sample</title>
<path fill="none" stroke="black" stroke-dasharray="5,2" d="M111.67,-523.74C129.37,-578.44 168.09,-675.17 234,-731 241.28,-737.17 249.38,-742.57 257.92,-747.31"/>
<polygon fill="black" stroke="black" points="256.47,-750.5 266.96,-752 259.7,-744.29 256.47,-750.5"/>
</g>
<!-- /req/sam&#45;cpt/Sampling -->
<g id="node18" class="node">
<title>/req/sam&#45;cpt/Sampling</title>
<polygon fill="none" stroke="black" points="273,-194 273,-215 484,-215 484,-194 273,-194"/>
<text text-anchor="start" x="316" y="-200.8" font-family="Times,serif" font-size="14.00">/req/sam&#45;cpt/Sampling</text>
<polygon fill="none" stroke="black" points="273,-171 273,-192 484,-192 484,-171 273,-171"/>
<text text-anchor="start" x="276" y="-177.8" font-family="Times,serif" font-size="14.00">Conceptual Sampling Schema Model</text>
<polygon fill="none" stroke="black" points="273,-148 273,-169 484,-169 484,-148 273,-148"/>
<text text-anchor="start" x="327.5" y="-154.8" font-family="Times,serif" font-size="14.00">Conceptual Model</text>
<polygon fill="none" stroke="black" points="269.5,-145.5 269.5,-218.5 486.5,-218.5 486.5,-145.5 269.5,-145.5"/>
</g>
<!-- /req/sam&#45;cpt&#45;&gt;/req/sam&#45;cpt/Sampling -->
<g id="edge2" class="edge">
<title>/req/sam&#45;cpt&#45;&gt;/req/sam&#45;cpt/Sampling</title>
<path fill="none" stroke="black" stroke-dasharray="5,2" d="M190.88,-442.2C193.45,-439.62 195.83,-436.89 198,-434 251.67,-362.45 176.74,-304.71 234,-236 239.5,-229.41 245.88,-223.62 252.85,-218.53"/>
<polygon fill="black" stroke="black" points="254.92,-221.36 261.28,-212.89 251.03,-215.54 254.92,-221.36"/>
</g>
<!-- /req/sam&#45;cpt/Sampler -->
<g id="node19" class="node">
<title>/req/sam&#45;cpt/Sampler</title>
<polygon fill="none" stroke="black" points="276,-396 276,-417 481,-417 481,-396 276,-396"/>
<text text-anchor="start" x="319.5" y="-402.8" font-family="Times,serif" font-size="14.00">/req/sam&#45;cpt/Sampler</text>
<polygon fill="none" stroke="black" points="276,-373 276,-394 481,-394 481,-373 276,-373"/>
<text text-anchor="start" x="279" y="-379.8" font-family="Times,serif" font-size="14.00">Conceptual Sampler Schema Model</text>
<polygon fill="none" stroke="black" points="276,-350 276,-371 481,-371 481,-350 276,-350"/>
<text text-anchor="start" x="327.5" y="-356.8" font-family="Times,serif" font-size="14.00">Conceptual Model</text>
<polygon fill="none" stroke="black" points="272.5,-347.5 272.5,-420.5 483.5,-420.5 483.5,-347.5 272.5,-347.5"/>
</g>
<!-- /req/sam&#45;cpt&#45;&gt;/req/sam&#45;cpt/Sampler -->
<g id="edge3" class="edge">
<title>/req/sam&#45;cpt&#45;&gt;/req/sam&#45;cpt/Sampler</title>
<path fill="none" stroke="black" stroke-dasharray="5,2" d="M198.01,-446.98C210.12,-442.58 222.34,-438.17 234,-434 240.73,-431.59 247.63,-429.14 254.61,-426.67"/>
<polygon fill="black" stroke="black" points="255.89,-429.92 264.15,-423.29 253.56,-423.33 255.89,-429.92"/>
</g>
<!-- /req/sam&#45;cpt/SamplingProcedure -->
<g id="node20" class="node">
<title>/req/sam&#45;cpt/SamplingProcedure</title>
<polygon fill="none" stroke="black" points="245,-594 245,-615 511,-615 511,-594 245,-594"/>
<text text-anchor="start" x="288" y="-600.8" font-family="Times,serif" font-size="14.00">/req/sam&#45;cpt/SamplingProcedure</text>
<polygon fill="none" stroke="black" points="245,-571 245,-592 511,-592 511,-571 245,-571"/>
<text text-anchor="start" x="248" y="-577.8" font-family="Times,serif" font-size="14.00">Conceptual SamplingProcedure Schema Model</text>
<polygon fill="none" stroke="black" points="245,-548 245,-569 511,-569 511,-548 245,-548"/>
<text text-anchor="start" x="327" y="-554.8" font-family="Times,serif" font-size="14.00">Conceptual Model</text>
<polygon fill="none" stroke="black" points="242,-545.5 242,-618.5 514,-618.5 514,-545.5 242,-545.5"/>
</g>
<!-- /req/sam&#45;cpt&#45;&gt;/req/sam&#45;cpt/SamplingProcedure -->
<g id="edge4" class="edge">
<title>/req/sam&#45;cpt&#45;&gt;/req/sam&#45;cpt/SamplingProcedure</title>
<path fill="none" stroke="black" stroke-dasharray="5,2" d="M198.32,-520.03C210.32,-524.45 222.43,-528.86 234,-533 238.74,-534.7 243.58,-536.42 248.47,-538.14"/>
<polygon fill="black" stroke="black" points="247.33,-541.45 257.92,-541.47 249.65,-534.85 247.33,-541.45"/>
</g>
<!-- /req/sam&#45;cpt/Sample&#45;&gt;/req/sam&#45;cpt/Sample/Sample&#45;sem -->
<g id="edge5" class="edge">
<title>/req/sam&#45;cpt/Sample&#45;&gt;/req/sam&#45;cpt/Sample/Sample&#45;sem</title>
<path fill="none" stroke="black" stroke-dasharray="5,2" d="M489.11,-793.09C529.01,-797.83 574.06,-803.18 613.96,-807.92"/>
<polygon fill="black" stroke="black" points="613.65,-811.41 623.99,-809.11 614.47,-804.46 613.65,-811.41"/>
</g>
<!-- /req/sam&#45;cpt/Sample&#45;&gt;/req/sam&#45;cpt/Sample/preparationStep&#45;sem -->
<g id="edge7" class="edge">
<title>/req/sam&#45;cpt/Sample&#45;&gt;/req/sam&#45;cpt/Sample/preparationStep&#45;sem</title>
<path fill="none" stroke="black" stroke-dasharray="5,2" d="M489.11,-775.85C521.63,-774.63 557.58,-773.27 591.37,-772"/>
<polygon fill="black" stroke="black" points="591.92,-775.48 601.78,-771.61 591.65,-768.48 591.92,-775.48"/>
</g>
<!-- /req/sam&#45;cpt/Sample&#45;&gt;/req/sam&#45;cpt/Sample/relatedObservation&#45;sem -->
<g id="edge8" class="edge">
<title>/req/sam&#45;cpt/Sample&#45;&gt;/req/sam&#45;cpt/Sample/relatedObservation&#45;sem</title>
<path fill="none" stroke="black" stroke-dasharray="5,2" d="M489.07,-754.34C511.81,-749.34 535.64,-744.31 558,-740 570.79,-737.53 584.17,-735.1 597.54,-732.78"/>
<polygon fill="black" stroke="black" points="598.49,-736.17 607.75,-731.02 597.3,-729.27 598.49,-736.17"/>
</g>
<!-- /req/sam&#45;cpt/Sample&#45;&gt;/req/sam&#45;cpt/Sample/sampling&#45;sem -->
<g id="edge6" class="edge">
<title>/req/sam&#45;cpt/Sample&#45;&gt;/req/sam&#45;cpt/Sample/sampling&#45;sem</title>
<path fill="none" stroke="black" stroke-dasharray="5,2" d="M489.14,-749.54C500.71,-744.24 511.91,-738.1 522,-731 542.95,-716.26 535.88,-698.92 558,-686 573.64,-676.87 591.44,-670.57 609.44,-666.28"/>
<polygon fill="black" stroke="black" points="610.42,-669.65 619.45,-664.1 608.93,-662.81 610.42,-669.65"/>
</g>
<!-- /req/sam&#45;cpt/Sampling&#45;&gt;/req/sam&#45;cpt/Sampling/Sampling&#45;sem -->
<g id="edge9" class="edge">
<title>/req/sam&#45;cpt/Sampling&#45;&gt;/req/sam&#45;cpt/Sampling/Sampling&#45;sem</title>
<path fill="none" stroke="black" stroke-dasharray="5,2" d="M494.84,-163.2C529.49,-157.57 567.58,-151.39 602.58,-145.71"/>
<polygon fill="black" stroke="black" points="603.54,-149.1 612.85,-144.04 602.42,-142.19 603.54,-149.1"/>
</g>
<!-- /req/sam&#45;cpt/Sampling&#45;&gt;/req/sam&#45;cpt/Sampling/featureOfInterest&#45;sem -->
<g id="edge11" class="edge">
<title>/req/sam&#45;cpt/Sampling&#45;&gt;/req/sam&#45;cpt/Sampling/featureOfInterest&#45;sem</title>
<path fill="none" stroke="black" stroke-dasharray="5,2" d="M494.54,-147.31C504.07,-142.99 513.35,-138.22 522,-133 540.84,-121.62 538.27,-108.75 558,-99 566.07,-95.01 574.61,-91.59 583.38,-88.66"/>
<polygon fill="black" stroke="black" points="584.48,-91.98 592.99,-85.67 582.4,-85.3 584.48,-91.98"/>
</g>
<!-- /req/sam&#45;cpt/Sampling&#45;&gt;/req/sam&#45;cpt/Sampling/sample&#45;sem -->
<g id="edge10" class="edge">
<title>/req/sam&#45;cpt/Sampling&#45;&gt;/req/sam&#45;cpt/Sampling/sample&#45;sem</title>
<path fill="none" stroke="black" stroke-dasharray="5,2" d="M494.56,-152.57C504.53,-147.12 513.89,-140.65 522,-133 552.74,-104 524.93,-71.3 558,-45 572.89,-33.16 590.95,-25.6 609.6,-20.9"/>
<polygon fill="black" stroke="black" points="610.41,-24.31 619.4,-18.7 608.87,-17.48 610.41,-24.31"/>
</g>
<!-- /req/sam&#45;cpt/Sampling&#45;&gt;/req/sam&#45;cpt/Sampling/sampler&#45;sem -->
<g id="edge12" class="edge">
<title>/req/sam&#45;cpt/Sampling&#45;&gt;/req/sam&#45;cpt/Sampling/sampler&#45;sem</title>
<path fill="none" stroke="black" stroke-dasharray="5,2" d="M494.84,-199.46C531.07,-204.92 571.06,-210.95 607.35,-216.42"/>
<polygon fill="black" stroke="black" points="607.07,-219.92 617.48,-217.94 608.11,-212.99 607.07,-219.92"/>
</g>
<!-- /req/sam&#45;cpt/Sampling&#45;&gt;/req/sam&#45;cpt/Sampling/samplingProcedure&#45;sem -->
<g id="edge13" class="edge">
<title>/req/sam&#45;cpt/Sampling&#45;&gt;/req/sam&#45;cpt/Sampling/samplingProcedure&#45;sem</title>
<path fill="none" stroke="black" stroke-dasharray="5,2" d="M494.84,-181.33C520.88,-181.18 548.85,-181.02 576,-180.86"/>
<polygon fill="black" stroke="black" points="576.38,-184.36 586.36,-180.8 576.34,-177.36 576.38,-184.36"/>
</g>
<!-- /req/sam&#45;cpt/Sampler&#45;&gt;/req/sam&#45;cpt/Sampler/Sampler&#45;sem -->
<g id="edge14" class="edge">
<title>/req/sam&#45;cpt/Sampler&#45;&gt;/req/sam&#45;cpt/Sampler/Sampler&#45;sem</title>
<path fill="none" stroke="black" stroke-dasharray="5,2" d="M491.97,-387.93C529.58,-389.24 571.5,-390.7 609.24,-392.01"/>
<polygon fill="black" stroke="black" points="609.14,-395.51 619.26,-392.36 609.38,-388.51 609.14,-395.51"/>
</g>
<!-- /req/sam&#45;cpt/Sampler&#45;&gt;/req/sam&#45;cpt/Sampler/implementedProcedure&#45;sem -->
<g id="edge16" class="edge">
<title>/req/sam&#45;cpt/Sampler&#45;&gt;/req/sam&#45;cpt/Sampler/implementedProcedure&#45;sem</title>
<path fill="none" stroke="black" stroke-dasharray="5,2" d="M491.97,-370.25C516.43,-367.27 542.71,-364.07 568.48,-360.93"/>
<polygon fill="black" stroke="black" points="569.21,-364.37 578.71,-359.69 568.36,-357.42 569.21,-364.37"/>
</g>
<!-- /req/sam&#45;cpt/Sampler&#45;&gt;/req/sam&#45;cpt/Sampler/sampling&#45;sem -->
<g id="edge15" class="edge">
<title>/req/sam&#45;cpt/Sampler&#45;&gt;/req/sam&#45;cpt/Sampler/sampling&#45;sem</title>
<path fill="none" stroke="black" stroke-dasharray="5,2" d="M491.75,-347.48C502.07,-343.5 512.29,-339.32 522,-335 538.72,-327.56 540.71,-321 558,-315 573.68,-309.56 590.58,-305.2 607.39,-301.71"/>
<polygon fill="black" stroke="black" points="608.13,-305.13 617.26,-299.76 606.77,-298.27 608.13,-305.13"/>
</g>
<!-- /req/sam&#45;cpt/SamplingProcedure&#45;&gt;/req/sam&#45;cpt/SamplingProcedure/SamplingProcedure&#45;sem -->
<g id="edge17" class="edge">
<title>/req/sam&#45;cpt/SamplingProcedure&#45;&gt;/req/sam&#45;cpt/SamplingProcedure/SamplingProcedure&#45;sem</title>
<path fill="none" stroke="black" stroke-dasharray="5,2" d="M522.31,-561.65C543.73,-558.6 565.76,-555.47 587.04,-552.45"/>
<polygon fill="black" stroke="black" points="587.68,-555.9 597.09,-551.02 586.7,-548.97 587.68,-555.9"/>
</g>
<!-- /req/sam&#45;cpt/SamplingProcedure&#45;&gt;/req/sam&#45;cpt/SamplingProcedure/implementation&#45;sem -->
<g id="edge19" class="edge">
<title>/req/sam&#45;cpt/SamplingProcedure&#45;&gt;/req/sam&#45;cpt/SamplingProcedure/implementation&#45;sem</title>
<path fill="none" stroke="black" stroke-dasharray="5,2" d="M504.75,-541.47C510.65,-538.77 516.43,-535.95 522,-533 539.68,-523.64 539.6,-513.83 558,-506 562.83,-503.94 567.8,-502.04 572.87,-500.29"/>
<polygon fill="black" stroke="black" points="574.29,-503.51 582.72,-497.09 572.13,-496.85 574.29,-503.51"/>
</g>
<!-- /req/sam&#45;cpt/SamplingProcedure&#45;&gt;/req/sam&#45;cpt/SamplingProcedure/sampling&#45;sem -->
<g id="edge18" class="edge">
<title>/req/sam&#45;cpt/SamplingProcedure&#45;&gt;/req/sam&#45;cpt/SamplingProcedure/sampling&#45;sem</title>
<path fill="none" stroke="black" stroke-dasharray="5,2" d="M522.31,-584.08C540.03,-584.33 558.18,-584.6 575.97,-584.85"/>
<polygon fill="black" stroke="black" points="576.34,-588.36 586.39,-585.01 576.44,-581.36 576.34,-588.36"/>
</g>
<!-- /req/sam&#45;core -->
<g id="node21" class="node">
<title>/req/sam&#45;core</title>
<polygon fill="none" stroke="black" points="11,-396 11,-417 187,-417 187,-396 11,-396"/>
<text text-anchor="start" x="61" y="-402.8" font-family="Times,serif" font-size="14.00">/req/sam&#45;core</text>
<polygon fill="none" stroke="black" points="11,-373 11,-394 187,-394 187,-373 11,-373"/>
<text text-anchor="start" x="14" y="-379.8" font-family="Times,serif" font-size="14.00">Core Sampling Schema Model</text>
<polygon fill="none" stroke="black" points="11,-350 11,-371 187,-371 187,-350 11,-350"/>
<text text-anchor="start" x="37.5" y="-356.8" font-family="Times,serif" font-size="14.00">Core Sampling Model</text>
<polygon fill="none" stroke="black" points="8,-347.5 8,-420.5 190,-420.5 190,-347.5 8,-347.5"/>
</g>
<!-- /req/sam&#45;core/Sample -->
<g id="node22" class="node">
<title>/req/sam&#45;core/Sample</title>
<polygon fill="none" stroke="black" points="278,-693 278,-714 478,-714 478,-693 278,-693"/>
<text text-anchor="start" x="317.5" y="-699.8" font-family="Times,serif" font-size="14.00">/req/sam&#45;core/Sample</text>
<polygon fill="none" stroke="black" points="278,-670 278,-691 478,-691 478,-670 278,-670"/>
<text text-anchor="start" x="281" y="-676.8" font-family="Times,serif" font-size="14.00">Conceptual Sample Schema Model</text>
<polygon fill="none" stroke="black" points="278,-647 278,-668 478,-668 478,-647 278,-647"/>
<text text-anchor="start" x="327" y="-653.8" font-family="Times,serif" font-size="14.00">Conceptual Model</text>
<polygon fill="none" stroke="black" points="275,-644.5 275,-717.5 481,-717.5 481,-644.5 275,-644.5"/>
</g>
<!-- /req/sam&#45;core&#45;&gt;/req/sam&#45;core/Sample -->
<g id="edge20" class="edge">
<title>/req/sam&#45;core&#45;&gt;/req/sam&#45;core/Sample</title>
<path fill="none" stroke="black" stroke-dasharray="5,2" d="M189.67,-424.5C192.69,-427.47 195.49,-430.63 198,-434 251.37,-505.77 175.68,-564.19 234,-632 240.87,-639.99 249.11,-646.68 258.11,-652.28"/>
<polygon fill="black" stroke="black" points="256.54,-655.41 266.96,-657.32 260,-649.33 256.54,-655.41"/>
</g>
<!-- /req/sam&#45;core/Sampling -->
<g id="node23" class="node">
<title>/req/sam&#45;core/Sampling</title>
<polygon fill="none" stroke="black" points="273,-95 273,-116 484,-116 484,-95 273,-95"/>
<text text-anchor="start" x="312.5" y="-101.8" font-family="Times,serif" font-size="14.00">/req/sam&#45;core/Sampling</text>
<polygon fill="none" stroke="black" points="273,-72 273,-93 484,-93 484,-72 273,-72"/>
<text text-anchor="start" x="276" y="-78.8" font-family="Times,serif" font-size="14.00">Conceptual Sampling Schema Model</text>
<polygon fill="none" stroke="black" points="273,-49 273,-70 484,-70 484,-49 273,-49"/>
<text text-anchor="start" x="327.5" y="-55.8" font-family="Times,serif" font-size="14.00">Conceptual Model</text>
<polygon fill="none" stroke="black" points="269.5,-46.5 269.5,-119.5 486.5,-119.5 486.5,-46.5 269.5,-46.5"/>
</g>
<!-- /req/sam&#45;core&#45;&gt;/req/sam&#45;core/Sampling -->
<g id="edge21" class="edge">
<title>/req/sam&#45;core&#45;&gt;/req/sam&#45;core/Sampling</title>
<path fill="none" stroke="black" stroke-dasharray="5,2" d="M111.44,-343.3C128.96,-288.1 167.6,-189.89 234,-133 239.63,-128.18 245.75,-123.81 252.19,-119.86"/>
<polygon fill="black" stroke="black" points="254.22,-122.73 261.16,-114.72 250.74,-116.66 254.22,-122.73"/>
</g>
<!-- /req/sam&#45;core/Sampler -->
<g id="node24" class="node">
<title>/req/sam&#45;core/Sampler</title>
<polygon fill="none" stroke="black" points="276,-297 276,-318 481,-318 481,-297 276,-297"/>
<text text-anchor="start" x="316" y="-303.8" font-family="Times,serif" font-size="14.00">/req/sam&#45;core/Sampler</text>
<polygon fill="none" stroke="black" points="276,-274 276,-295 481,-295 481,-274 276,-274"/>
<text text-anchor="start" x="279" y="-280.8" font-family="Times,serif" font-size="14.00">Conceptual Sampler Schema Model</text>
<polygon fill="none" stroke="black" points="276,-251 276,-272 481,-272 481,-251 276,-251"/>
<text text-anchor="start" x="327.5" y="-257.8" font-family="Times,serif" font-size="14.00">Conceptual Model</text>
<polygon fill="none" stroke="black" points="272.5,-248.5 272.5,-321.5 483.5,-321.5 483.5,-248.5 272.5,-248.5"/>
</g>
<!-- /req/sam&#45;core&#45;&gt;/req/sam&#45;core/Sampler -->
<g id="edge22" class="edge">
<title>/req/sam&#45;core&#45;&gt;/req/sam&#45;core/Sampler</title>
<path fill="none" stroke="black" stroke-dasharray="5,2" d="M198.01,-347.98C210.12,-343.58 222.34,-339.17 234,-335 240.73,-332.59 247.63,-330.14 254.61,-327.67"/>
<polygon fill="black" stroke="black" points="255.89,-330.92 264.15,-324.29 253.56,-324.33 255.89,-330.92"/>
</g>
<!-- /req/sam&#45;core/SamplingProcedure -->
<g id="node25" class="node">
<title>/req/sam&#45;core/SamplingProcedure</title>
<polygon fill="none" stroke="black" points="245,-495 245,-516 511,-516 511,-495 245,-495"/>
<text text-anchor="start" x="284.5" y="-501.8" font-family="Times,serif" font-size="14.00">/req/sam&#45;core/SamplingProcedure</text>
<polygon fill="none" stroke="black" points="245,-472 245,-493 511,-493 511,-472 245,-472"/>
<text text-anchor="start" x="248" y="-478.8" font-family="Times,serif" font-size="14.00">Conceptual SamplingProcedure Schema Model</text>
<polygon fill="none" stroke="black" points="245,-449 245,-470 511,-470 511,-449 245,-449"/>
<text text-anchor="start" x="327" y="-455.8" font-family="Times,serif" font-size="14.00">Conceptual Model</text>
<polygon fill="none" stroke="black" points="242,-446.5 242,-519.5 514,-519.5 514,-446.5 242,-446.5"/>
</g>
<!-- /req/sam&#45;core&#45;&gt;/req/sam&#45;core/SamplingProcedure -->
<g id="edge23" class="edge">
<title>/req/sam&#45;core&#45;&gt;/req/sam&#45;core/SamplingProcedure</title>
<path fill="none" stroke="black" stroke-dasharray="5,2" d="M198.32,-421.03C210.32,-425.45 222.43,-429.86 234,-434 238.74,-435.7 243.58,-437.42 248.47,-439.14"/>
<polygon fill="black" stroke="black" points="247.33,-442.45 257.92,-442.47 249.65,-435.85 247.33,-442.45"/>
</g>
<!-- /req/sam&#45;core/Sample&#45;&gt;/req/sam&#45;cpt/Sample/Sample&#45;sem -->
<g id="edge24" class="edge">
<title>/req/sam&#45;core/Sample&#45;&gt;/req/sam&#45;cpt/Sample/Sample&#45;sem</title>
<path fill="none" stroke="black" stroke-dasharray="5,2" d="M489.22,-710.22C500.97,-715.98 512.19,-722.84 522,-731 546.79,-751.63 531.5,-775.62 558,-794 574.42,-805.39 593.92,-812.62 613.69,-817.1"/>
<polygon fill="black" stroke="black" points="613.22,-820.57 623.72,-819.14 614.62,-813.71 613.22,-820.57"/>
</g>
<!-- /req/sam&#45;core/Sample&#45;&gt;/req/sam&#45;cpt/Sample/preparationStep&#45;sem -->
<g id="edge26" class="edge">
<title>/req/sam&#45;core/Sample&#45;&gt;/req/sam&#45;cpt/Sample/preparationStep&#45;sem</title>
<path fill="none" stroke="black" stroke-dasharray="5,2" d="M489.45,-720.41C511.95,-727.58 535.59,-734.52 558,-740 568.86,-742.66 580.18,-745.12 591.59,-747.39"/>
<polygon fill="black" stroke="black" points="591.14,-750.87 601.62,-749.34 592.47,-744 591.14,-750.87"/>
</g>
<!-- /req/sam&#45;core/Sample&#45;&gt;/req/sam&#45;cpt/Sample/relatedObservation&#45;sem -->
<g id="edge27" class="edge">
<title>/req/sam&#45;core/Sample&#45;&gt;/req/sam&#45;cpt/Sample/relatedObservation&#45;sem</title>
<path fill="none" stroke="black" stroke-dasharray="5,2" d="M489.11,-691.21C519,-693.99 551.79,-697.03 583.13,-699.93"/>
<polygon fill="black" stroke="black" points="582.97,-703.43 593.25,-700.87 583.61,-696.46 582.97,-703.43"/>
</g>
<!-- /req/sam&#45;core/Sample&#45;&gt;/req/sam&#45;cpt/Sample/sampling&#45;sem -->
<g id="edge25" class="edge">
<title>/req/sam&#45;core/Sample&#45;&gt;/req/sam&#45;cpt/Sample/sampling&#45;sem</title>
<path fill="none" stroke="black" stroke-dasharray="5,2" d="M489.11,-673.98C527.4,-671.54 570.42,-668.79 609.09,-666.33"/>
<polygon fill="black" stroke="black" points="609.58,-669.8 619.34,-665.67 609.14,-662.82 609.58,-669.8"/>
</g>
<!-- /req/sam&#45;core/Sampling&#45;&gt;/req/sam&#45;cpt/Sampling/Sampling&#45;sem -->
<g id="edge28" class="edge">
<title>/req/sam&#45;core/Sampling&#45;&gt;/req/sam&#45;cpt/Sampling/Sampling&#45;sem</title>
<path fill="none" stroke="black" stroke-dasharray="5,2" d="M494.84,-97.44C529.49,-101.76 567.58,-106.5 602.58,-110.87"/>
<polygon fill="black" stroke="black" points="602.49,-114.38 612.85,-112.15 603.36,-107.44 602.49,-114.38"/>
</g>
<!-- /req/sam&#45;core/Sampling&#45;&gt;/req/sam&#45;cpt/Sampling/featureOfInterest&#45;sem -->
<g id="edge30" class="edge">
<title>/req/sam&#45;core/Sampling&#45;&gt;/req/sam&#45;cpt/Sampling/featureOfInterest&#45;sem</title>
<path fill="none" stroke="black" stroke-dasharray="5,2" d="M494.84,-79.31C522.94,-78.41 553.31,-77.44 582.45,-76.51"/>
<polygon fill="black" stroke="black" points="582.82,-80 592.7,-76.19 582.6,-73.01 582.82,-80"/>
</g>
<!-- /req/sam&#45;core/Sampling&#45;&gt;/req/sam&#45;cpt/Sampling/sample&#45;sem -->
<g id="edge29" class="edge">
<title>/req/sam&#45;core/Sampling&#45;&gt;/req/sam&#45;cpt/Sampling/sample&#45;sem</title>
<path fill="none" stroke="black" stroke-dasharray="5,2" d="M494.87,-57.56C515.84,-53.19 537.55,-48.83 558,-45 574.55,-41.9 592.07,-38.82 609.29,-35.92"/>
<polygon fill="black" stroke="black" points="610.09,-39.34 619.38,-34.23 608.94,-32.43 610.09,-39.34"/>
</g>
<!-- /req/sam&#45;core/Sampling&#45;&gt;/req/sam&#45;cpt/Sampling/sampler&#45;sem -->
<g id="edge31" class="edge">
<title>/req/sam&#45;core/Sampling&#45;&gt;/req/sam&#45;cpt/Sampling/sampler&#45;sem</title>
<path fill="none" stroke="black" stroke-dasharray="5,2" d="M494.77,-114.2C504.58,-119.53 513.85,-125.74 522,-133 549.32,-157.31 528.66,-185.17 558,-207 572.53,-217.81 589.76,-224.96 607.53,-229.6"/>
<polygon fill="black" stroke="black" points="606.91,-233.05 617.45,-231.93 608.51,-226.24 606.91,-233.05"/>
</g>
<!-- /req/sam&#45;core/Sampling&#45;&gt;/req/sam&#45;cpt/Sampling/samplingProcedure&#45;sem -->
<g id="edge32" class="edge">
<title>/req/sam&#45;core/Sampling&#45;&gt;/req/sam&#45;cpt/Sampling/samplingProcedure&#45;sem</title>
<path fill="none" stroke="black" stroke-dasharray="5,2" d="M494.79,-121.57C504.07,-125.25 513.24,-129.07 522,-133 538.7,-140.49 540.71,-147 558,-153 564.73,-155.34 571.69,-157.47 578.77,-159.43"/>
<polygon fill="black" stroke="black" points="577.92,-162.83 588.48,-161.98 579.7,-156.05 577.92,-162.83"/>
</g>
<!-- /req/sam&#45;core/Sampler&#45;&gt;/req/sam&#45;cpt/Sampler/Sampler&#45;sem -->
<g id="edge33" class="edge">
<title>/req/sam&#45;core/Sampler&#45;&gt;/req/sam&#45;cpt/Sampler/Sampler&#45;sem</title>
<path fill="none" stroke="black" stroke-dasharray="5,2" d="M491.56,-319.2C502.13,-323.93 512.45,-329.19 522,-335 540.8,-346.44 538.27,-359.25 558,-369 573.9,-376.86 591.6,-382.51 609.36,-386.56"/>
<polygon fill="black" stroke="black" points="608.71,-389.99 619.21,-388.64 610.16,-383.15 608.71,-389.99"/>
</g>
<!-- /req/sam&#45;core/Sampler&#45;&gt;/req/sam&#45;cpt/Sampler/implementedProcedure&#45;sem -->
<g id="edge35" class="edge">
<title>/req/sam&#45;core/Sampler&#45;&gt;/req/sam&#45;cpt/Sampler/implementedProcedure&#45;sem</title>
<path fill="none" stroke="black" stroke-dasharray="5,2" d="M491.66,-303.97C513.66,-307.65 536.55,-311.46 558,-315 572.53,-317.4 587.79,-319.9 602.91,-322.37"/>
<polygon fill="black" stroke="black" points="602.39,-325.83 612.82,-323.99 603.51,-318.93 602.39,-325.83"/>
</g>
<!-- /req/sam&#45;core/Sampler&#45;&gt;/req/sam&#45;cpt/Sampler/sampling&#45;sem -->
<g id="edge34" class="edge">
<title>/req/sam&#45;core/Sampler&#45;&gt;/req/sam&#45;cpt/Sampler/sampling&#45;sem</title>
<path fill="none" stroke="black" stroke-dasharray="5,2" d="M491.97,-285.98C528.79,-286.3 569.74,-286.66 606.86,-286.98"/>
<polygon fill="black" stroke="black" points="607.19,-290.48 617.22,-287.07 607.26,-283.48 607.19,-290.48"/>
</g>
<!-- /req/sam&#45;core/SamplingProcedure&#45;&gt;/req/sam&#45;cpt/SamplingProcedure/SamplingProcedure&#45;sem -->
<g id="edge36" class="edge">
<title>/req/sam&#45;core/SamplingProcedure&#45;&gt;/req/sam&#45;cpt/SamplingProcedure/SamplingProcedure&#45;sem</title>
<path fill="none" stroke="black" stroke-dasharray="5,2" d="M522.31,-503.77C544.55,-506.99 567.45,-510.31 589.48,-513.5"/>
<polygon fill="black" stroke="black" points="589.14,-516.99 599.54,-514.96 590.14,-510.06 589.14,-516.99"/>
</g>
<!-- /req/sam&#45;core/SamplingProcedure&#45;&gt;/req/sam&#45;cpt/SamplingProcedure/implementation&#45;sem -->
<g id="edge38" class="edge">
<title>/req/sam&#45;core/SamplingProcedure&#45;&gt;/req/sam&#45;cpt/SamplingProcedure/implementation&#45;sem</title>
<path fill="none" stroke="black" stroke-dasharray="5,2" d="M522.31,-481.34C534.17,-481.2 546.22,-481.06 558.23,-480.92"/>
<polygon fill="black" stroke="black" points="558.34,-484.42 568.3,-480.81 558.26,-477.42 558.34,-484.42"/>
</g>
<!-- /req/sam&#45;core/SamplingProcedure&#45;&gt;/req/sam&#45;cpt/SamplingProcedure/sampling&#45;sem -->
<g id="edge37" class="edge">
<title>/req/sam&#45;core/SamplingProcedure&#45;&gt;/req/sam&#45;cpt/SamplingProcedure/sampling&#45;sem</title>
<path fill="none" stroke="black" stroke-dasharray="5,2" d="M502.89,-523.6C509.44,-526.58 515.85,-529.72 522,-533 539.65,-542.41 539.6,-552.17 558,-560 563.91,-562.51 570.02,-564.79 576.27,-566.86"/>
<polygon fill="black" stroke="black" points="575.59,-570.32 586.18,-569.95 577.67,-563.64 575.59,-570.32"/>
</g>
</g>
</svg>
