<?xml version="1.0" encoding="UTF-8" standalone="no"?>
<!DOCTYPE svg PUBLIC "-//W3C//DTD SVG 1.1//EN"
 "http://www.w3.org/Graphics/SVG/1.1/DTD/svg11.dtd">
<!-- Generated by graphviz version 2.43.0 (0)
 -->
<!-- Title: G Pages: 1 -->
<svg width="544pt" height="175pt"
 viewBox="0.00 0.00 543.67 175.00" xmlns="http://www.w3.org/2000/svg" xmlns:xlink="http://www.w3.org/1999/xlink">
<g id="graph0" class="graph" transform="scale(1 1) rotate(0) translate(4 171)">
<title>G</title>
<polygon fill="white" stroke="transparent" points="-4,4 -4,-171 539.67,-171 539.67,4 -4,4"/>
<!-- /req/{classM}/{reqN} -->
<g id="node1" class="node">
<title>/req/{classM}/{reqN}</title>
<polygon fill="none" stroke="black" points="455.84,-144 317.84,-144 317.84,-108 455.84,-108 455.84,-144"/>
<text text-anchor="middle" x="386.84" y="-122.3" font-family="Times,serif" font-size="14.00">/req/{classM}/{reqN}</text>
</g>
<!-- /req/{classM}/{reqP} -->
<g id="node2" class="node">
<title>/req/{classM}/{reqP}</title>
<polygon fill="none" stroke="black" points="454.84,-90 318.84,-90 318.84,-54 454.84,-54 454.84,-90"/>
<text text-anchor="middle" x="386.84" y="-68.3" font-family="Times,serif" font-size="14.00">/req/{classM}/{reqP}</text>
</g>
<!-- ?Somethinggeneralfromcpt??? -->
<g id="node3" class="node">
<title>?Somethinggeneralfromcpt???</title>
<polygon fill="none" stroke="black" points="192.5,-167 9.5,-167 9.5,-131 192.5,-131 192.5,-167"/>
<text text-anchor="middle" x="101" y="-145.3" font-family="Times,serif" font-size="14.00">?Somethinggeneralfromcpt???</text>
</g>
<!-- /req/{classM} -->
<g id="node4" class="node">
<title>/req/{classM}</title>
<polygon fill="none" stroke="black" points="11,-84 11,-105 191,-105 191,-84 11,-84"/>
<text text-anchor="start" x="62" y="-90.8" font-family="Times,serif" font-size="14.00">/req/{classM}</text>
<polygon fill="none" stroke="black" points="11,-61 11,-82 191,-82 191,-61 11,-61"/>
<text text-anchor="start" x="14" y="-67.8" font-family="Times,serif" font-size="14.00">Name of the requirements class</text>
<polygon fill="none" stroke="black" points="11,-38 11,-59 191,-59 191,-38 11,-38"/>
<text text-anchor="start" x="23" y="-44.8" font-family="Times,serif" font-size="14.00">[artefact or technology type]</text>
<polygon fill="none" stroke="black" points="8,-35.5 8,-108.5 194,-108.5 194,-35.5 8,-35.5"/>
</g>
<!-- /req/{classM}&#45;&gt;/req/{classM}/{reqN} -->
<g id="edge1" class="edge">
<title>/req/{classM}&#45;&gt;/req/{classM}/{reqN}</title>
<path fill="none" stroke="black" d="M202.23,-92.08C214.28,-94.44 226.41,-96.79 238,-99 260.66,-103.32 285.3,-107.87 307.85,-111.99"/>
<polygon fill="black" stroke="black" points="307.25,-115.44 317.72,-113.78 308.51,-108.55 307.25,-115.44"/>
</g>
<!-- /req/{classM}&#45;&gt;/req/{classM}/{reqP} -->
<g id="edge2" class="edge">
<title>/req/{classM}&#45;&gt;/req/{classM}/{reqP}</title>
<path fill="none" stroke="black" d="M202.07,-72C236.92,-72 275.47,-72 308.23,-72"/>
<polygon fill="black" stroke="black" points="308.65,-75.5 318.65,-72 308.65,-68.5 308.65,-75.5"/>
</g>
<!-- [identifierforanotherrequirementsclass] -->
<g id="node5" class="node">
<title>[identifierforanotherrequirementsclass]</title>
<ellipse fill="none" stroke="black" cx="386.84" cy="-18" rx="148.67" ry="18"/>
<text text-anchor="middle" x="386.84" y="-14.3" font-family="Times,serif" font-size="14.00">[identifierforanotherrequirementsclass]</text>
</g>
<!-- /req/{classM}&#45;&gt;[identifierforanotherrequirementsclass] -->
<g id="edge3" class="edge">
<title>/req/{classM}&#45;&gt;[identifierforanotherrequirementsclass]</title>
<path fill="none" stroke="black" stroke-dasharray="5,2" d="M202.23,-51.92C214.28,-49.56 226.41,-47.21 238,-45 255.73,-41.62 274.68,-38.1 292.89,-34.75"/>
<polygon fill="black" stroke="black" points="293.71,-38.16 302.91,-32.91 292.45,-31.27 293.71,-38.16"/>
</g>
</g>
</svg>
