<?xml version="1.0" encoding="UTF-8" standalone="no"?>
<!DOCTYPE svg PUBLIC "-//W3C//DTD SVG 1.1//EN"
 "http://www.w3.org/Graphics/SVG/1.1/DTD/svg11.dtd">
<!-- Generated by graphviz version 2.43.0 (0)
 -->
<!-- Title: G Pages: 1 -->
<svg width="450pt" height="175pt"
 viewBox="0.00 0.00 450.00 175.00" xmlns="http://www.w3.org/2000/svg" xmlns:xlink="http://www.w3.org/1999/xlink">
<g id="graph0" class="graph" transform="scale(1 1) rotate(0) translate(4 171)">
<title>G</title>
<polygon fill="white" stroke="transparent" points="-4,4 -4,-171 446,-171 446,4 -4,4"/>
<!-- /req/EXAMPLE/ObservableProp/name -->
<g id="node1" class="node">
<title>/req/EXAMPLE/ObservableProp/name</title>
<polygon fill="none" stroke="black" points="230,-36 0,-36 0,0 230,0 230,-36"/>
<text text-anchor="middle" x="115" y="-14.3" font-family="Times,serif" font-size="14.00">/req/EXAMPLE/ObservableProp/name</text>
</g>
<!-- /req/{pkg}/{classM}/{reqN} -->
<g id="node2" class="node">
<title>/req/{pkg}/{classM}/{reqN}</title>
<polygon fill="none" stroke="black" points="442,-167 266,-167 266,-131 442,-131 442,-167"/>
<text text-anchor="middle" x="354" y="-145.3" font-family="Times,serif" font-size="14.00">/req/{pkg}/{classM}/{reqN}</text>
</g>
<!-- /req/{pkg}/{classM}/{reqP} -->
<g id="node3" class="node">
<title>/req/{pkg}/{classM}/{reqP}</title>
<polygon fill="none" stroke="black" points="440.5,-113 267.5,-113 267.5,-77 440.5,-77 440.5,-113"/>
<text text-anchor="middle" x="354" y="-91.3" font-family="Times,serif" font-size="14.00">/req/{pkg}/{classM}/{reqP}</text>
</g>
<!-- /req/{pkg}/{classM} -->
<g id="node4" class="node">
<title>/req/{pkg}/{classM}</title>
<polygon fill="none" stroke="black" points="25,-107 25,-128 205,-128 205,-107 25,-107"/>
<text text-anchor="start" x="57.5" y="-113.8" font-family="Times,serif" font-size="14.00">/req/{pkg}/{classM}</text>
<polygon fill="none" stroke="black" points="25,-84 25,-105 205,-105 205,-84 25,-84"/>
<text text-anchor="start" x="28" y="-90.8" font-family="Times,serif" font-size="14.00">Name of the requirements class</text>
<polygon fill="none" stroke="black" points="25,-61 25,-82 205,-82 205,-61 25,-61"/>
<text text-anchor="start" x="37" y="-67.8" font-family="Times,serif" font-size="14.00">[artefact or technology type]</text>
<polygon fill="none" stroke="black" points="22,-58.5 22,-131.5 208,-131.5 208,-58.5 22,-58.5"/>
</g>
<!-- /req/{pkg}/{classM}&#45;&gt;/req/{pkg}/{classM}/{reqN} -->
<g id="edge1" class="edge">
<title>/req/{pkg}/{classM}&#45;&gt;/req/{pkg}/{classM}/{reqN}</title>
<path fill="none" stroke="black" d="M216.17,-117.82C231.92,-121.41 248.11,-125.1 263.6,-128.63"/>
<polygon fill="black" stroke="black" points="263.14,-132.11 273.67,-130.92 264.69,-125.29 263.14,-132.11"/>
</g>
<!-- /req/{pkg}/{classM}&#45;&gt;/req/{pkg}/{classM}/{reqP} -->
<g id="edge2" class="edge">
<title>/req/{pkg}/{classM}&#45;&gt;/req/{pkg}/{classM}/{reqP}</title>
<path fill="none" stroke="black" d="M216.17,-95C229.76,-95 243.68,-95 257.19,-95"/>
<polygon fill="black" stroke="black" points="257.43,-98.5 267.43,-95 257.43,-91.5 257.43,-98.5"/>
</g>
<!-- /req/{pkg}/{classZ} -->
<g id="node5" class="node">
<title>/req/{pkg}/{classZ}</title>
<ellipse fill="none" stroke="black" cx="354" cy="-41" rx="82.59" ry="18"/>
<text text-anchor="middle" x="354" y="-37.3" font-family="Times,serif" font-size="14.00">/req/{pkg}/{classZ}</text>
</g>
<!-- /req/{pkg}/{classM}&#45;&gt;/req/{pkg}/{classZ} -->
<g id="edge3" class="edge">
<title>/req/{pkg}/{classM}&#45;&gt;/req/{pkg}/{classZ}</title>
<path fill="none" stroke="black" stroke-dasharray="5,2" d="M216.17,-72.18C239.94,-66.76 264.72,-61.11 286.56,-56.14"/>
<polygon fill="black" stroke="black" points="287.4,-59.54 296.37,-53.9 285.84,-52.71 287.4,-59.54"/>
</g>
</g>
</svg>
