<?xml version="1.0" encoding="UTF-8" standalone="no"?>
<!DOCTYPE svg PUBLIC "-//W3C//DTD SVG 1.1//EN" "http://www.w3.org/Graphics/SVG/1.1/DTD/svg11.dtd">
<!-- Generated by graphviz version 2.43.0 (0)
 -->
<!-- Title: G Pages: 1 -->
<svg width="958pt" height="817pt" viewBox="0.00 0.00 958.00 817.00" xmlns="http://www.w3.org/2000/svg" xmlns:xlink="http://www.w3.org/1999/xlink">
<g id="graph0" class="graph" transform="scale(1 1) rotate(0) translate(4 813)">
<title>G</title>
<polygon fill="white" stroke="transparent" points="-4,4 -4,-813 954,-813 954,4 -4,4"/>
<!-- /req/sam&#45;cpt/Sample/Sample&#45;sem -->
<g id="node1" class="node">
<title>/req/sam-cpt/Sample/Sample-sem</title>
<polygon fill="none" stroke="black" points="894.5,-755 692.5,-755 692.5,-719 894.5,-719 894.5,-755"/>
<text text-anchor="middle" x="793.5" y="-733.3" font-family="Times,serif" font-size="14.00">/req/sam-cpt/Sample/Sample-sem</text>
</g>
<!-- /req/sam&#45;cpt/Sample/preparationStep&#45;sem -->
<g id="node2" class="node">
<title>/req/sam-cpt/Sample/preparationStep-sem</title>
<polygon fill="none" stroke="black" points="916.5,-701 670.5,-701 670.5,-665 916.5,-665 916.5,-701"/>
<text text-anchor="middle" x="793.5" y="-679.3" font-family="Times,serif" font-size="14.00">/req/sam-cpt/Sample/preparationStep-sem</text>
</g>
<!-- /req/sam&#45;cpt/Sample/relatedObservation&#45;sem -->
<g id="node3" class="node">
<title>/req/sam-cpt/Sample/relatedObservation-sem</title>
<polygon fill="none" stroke="black" points="925,-647 662,-647 662,-611 925,-611 925,-647"/>
<text text-anchor="middle" x="793.5" y="-625.3" font-family="Times,serif" font-size="14.00">/req/sam-cpt/Sample/relatedObservation-sem</text>
</g>
<!-- /req/sam&#45;cpt/Sample/sampling&#45;sem -->
<g id="node4" class="node">
<title>/req/sam-cpt/Sample/sampling-sem</title>
<polygon fill="none" stroke="black" points="899,-809 688,-809 688,-773 899,-773 899,-809"/>
<text text-anchor="middle" x="793.5" y="-787.3" font-family="Times,serif" font-size="14.00">/req/sam-cpt/Sample/sampling-sem</text>
</g>
<!-- /req/sam&#45;cpt/Sampler/Sampler&#45;sem -->
<g id="node5" class="node">
<title>/req/sam-cpt/Sampler/Sampler-sem</title>
<polygon fill="none" stroke="black" points="899,-378 688,-378 688,-342 899,-342 899,-378"/>
<text text-anchor="middle" x="793.5" y="-356.3" font-family="Times,serif" font-size="14.00">/req/sam-cpt/Sampler/Sampler-sem</text>
</g>
<!-- /req/sam&#45;cpt/Sampler/implementedProcedure&#45;sem -->
<g id="node6" class="node">
<title>/req/sam-cpt/Sampler/implementedProcedure-sem</title>
<polygon fill="none" stroke="black" points="939.5,-324 647.5,-324 647.5,-288 939.5,-288 939.5,-324"/>
<text text-anchor="middle" x="793.5" y="-302.3" font-family="Times,serif" font-size="14.00">/req/sam-cpt/Sampler/implementedProcedure-sem</text>
</g>
<!-- /req/sam&#45;cpt/Sampler/sampling&#45;sem -->
<g id="node7" class="node">
<title>/req/sam-cpt/Sampler/sampling-sem</title>
<polygon fill="none" stroke="black" points="901,-270 686,-270 686,-234 901,-234 901,-270"/>
<text text-anchor="middle" x="793.5" y="-248.3" font-family="Times,serif" font-size="14.00">/req/sam-cpt/Sampler/sampling-sem</text>
</g>
<!-- /req/sam&#45;cpt/Sampling/Sampling&#45;sem -->
<g id="node8" class="node">
<title>/req/sam-cpt/Sampling/Sampling-sem</title>
<polygon fill="none" stroke="black" points="905.5,-36 681.5,-36 681.5,0 905.5,0 905.5,-36"/>
<text text-anchor="middle" x="793.5" y="-14.3" font-family="Times,serif" font-size="14.00">/req/sam-cpt/Sampling/Sampling-sem</text>
</g>
<!-- /req/sam&#45;cpt/Sampling/featureOfInterest&#45;sem -->
<g id="node9" class="node">
<title>/req/sam-cpt/Sampling/featureOfInterest-sem</title>
<polygon fill="none" stroke="black" points="925.5,-198 661.5,-198 661.5,-162 925.5,-162 925.5,-198"/>
<text text-anchor="middle" x="793.5" y="-176.3" font-family="Times,serif" font-size="14.00">/req/sam-cpt/Sampling/featureOfInterest-sem</text>
</g>
<!-- /req/sam&#45;cpt/Sampling/sample&#45;sem -->
<g id="node10" class="node">
<title>/req/sam-cpt/Sampling/sample-sem</title>
<polygon fill="none" stroke="black" points="899,-144 688,-144 688,-108 899,-108 899,-144"/>
<text text-anchor="middle" x="793.5" y="-122.3" font-family="Times,serif" font-size="14.00">/req/sam-cpt/Sampling/sample-sem</text>
</g>
<!-- /req/sam&#45;cpt/Sampling/sampler&#45;sem -->
<g id="node11" class="node">
<title>/req/sam-cpt/Sampling/sampler-sem</title>
<polygon fill="none" stroke="black" points="901,-90 686,-90 686,-54 901,-54 901,-90"/>
<text text-anchor="middle" x="793.5" y="-68.3" font-family="Times,serif" font-size="14.00">/req/sam-cpt/Sampling/sampler-sem</text>
</g>
<!-- /req/sam&#45;cpt/Sampling/samplingProcedure&#45;sem -->
<g id="node12" class="node">
<title>/req/sam-cpt/Sampling/samplingProcedure-sem</title>
<polygon fill="none" stroke="black" points="277,-598 0,-598 0,-562 277,-562 277,-598"/>
<text text-anchor="middle" x="138.5" y="-576.3" font-family="Times,serif" font-size="14.00">/req/sam-cpt/Sampling/samplingProcedure-sem</text>
</g>
<!-- /req/sam&#45;cpt/SamplingProcedure/Sampler&#45;sem -->
<g id="node13" class="node">
<title>/req/sam-cpt/SamplingProcedure/Sampler-sem</title>
<polygon fill="none" stroke="black" points="929.5,-467 657.5,-467 657.5,-431 929.5,-431 929.5,-467"/>
<text text-anchor="middle" x="793.5" y="-445.3" font-family="Times,serif" font-size="14.00">/req/sam-cpt/SamplingProcedure/Sampler-sem</text>
</g>
<!-- /req/sam&#45;cpt/SamplingProcedure/implementation&#45;sem -->
<g id="node14" class="node">
<title>/req/sam-cpt/SamplingProcedure/implementation-sem</title>
<polygon fill="none" stroke="black" points="950,-575 637,-575 637,-539 950,-539 950,-575"/>
<text text-anchor="middle" x="793.5" y="-553.3" font-family="Times,serif" font-size="14.00">/req/sam-cpt/SamplingProcedure/implementation-sem</text>
</g>
<!-- /req/sam&#45;cpt/SamplingProcedure/sampling&#45;sem -->
<g id="node15" class="node">
<title>/req/sam-cpt/SamplingProcedure/sampling-sem</title>
<polygon fill="none" stroke="black" points="932,-521 655,-521 655,-485 932,-485 932,-521"/>
<text text-anchor="middle" x="793.5" y="-499.3" font-family="Times,serif" font-size="14.00">/req/sam-cpt/SamplingProcedure/sampling-sem</text>
</g>
<!-- /req/sam&#45;cpt -->
<g id="node16" class="node">
<title>/req/sam-cpt</title>
<polygon fill="none" stroke="black" points="50.5,-515 50.5,-536 226.5,-536 226.5,-515 50.5,-515"/>
<text text-anchor="start" x="104" y="-521.8" font-family="Times,serif" font-size="14.00">/req/sam-cpt</text>
<polygon fill="none" stroke="black" points="50.5,-492 50.5,-513 226.5,-513 226.5,-492 50.5,-492"/>
<text text-anchor="start" x="53.5" y="-498.8" font-family="Times,serif" font-size="14.00">Core Sampling Schema Model</text>
<polygon fill="none" stroke="black" points="50.5,-469 50.5,-490 226.5,-490 226.5,-469 50.5,-469"/>
<text text-anchor="start" x="77" y="-475.8" font-family="Times,serif" font-size="14.00">Core Sampling Model</text>
<polygon fill="none" stroke="black" points="47.5,-466.5 47.5,-539.5 229.5,-539.5 229.5,-466.5 47.5,-466.5"/>
</g>
<!-- /req/sam&#45;cpt/Sample -->
<g id="node17" class="node">
<title>/req/sam-cpt/Sample</title>
<polygon fill="none" stroke="black" points="357,-763 357,-784 557,-784 557,-763 357,-763"/>
<text text-anchor="start" x="400" y="-769.8" font-family="Times,serif" font-size="14.00">/req/sam-cpt/Sample</text>
<polygon fill="none" stroke="black" points="357,-740 357,-761 557,-761 557,-740 357,-740"/>
<text text-anchor="start" x="360" y="-746.8" font-family="Times,serif" font-size="14.00">Conceptual Sample Schema Model</text>
<polygon fill="none" stroke="black" points="357,-717 357,-738 557,-738 557,-717 357,-717"/>
<text text-anchor="start" x="406" y="-723.8" font-family="Times,serif" font-size="14.00">Conceptual Model</text>
<polygon fill="none" stroke="black" points="354,-714.5 354,-787.5 560,-787.5 560,-714.5 354,-714.5"/>
</g>
<!-- /req/sam&#45;cpt&#45;&gt;/req/sam&#45;cpt/Sample -->
<g id="edge1" class="edge">
<title>/req/sam-cpt-&gt;/req/sam-cpt/Sample</title>
<path fill="none" stroke="black" stroke-dasharray="5,2" d="M237.58,-524.9C252.37,-531.84 266.25,-540.98 277,-553 322.41,-603.79 267.12,-651.64 313,-702 319.96,-709.64 328.17,-716.1 337.08,-721.54"/>
<polygon fill="black" stroke="black" points="335.38,-724.6 345.81,-726.46 338.82,-718.5 335.38,-724.6"/>
</g>
<!-- /req/sam&#45;cpt/Sampling -->
<g id="node18" class="node">
<title>/req/sam-cpt/Sampling</title>
<polygon fill="none" stroke="black" points="352,-169 352,-190 563,-190 563,-169 352,-169"/>
<text text-anchor="start" x="395" y="-175.8" font-family="Times,serif" font-size="14.00">/req/sam-cpt/Sampling</text>
<polygon fill="none" stroke="black" points="352,-146 352,-167 563,-167 563,-146 352,-146"/>
<text text-anchor="start" x="355" y="-152.8" font-family="Times,serif" font-size="14.00">Conceptual Sampling Schema Model</text>
<polygon fill="none" stroke="black" points="352,-123 352,-144 563,-144 563,-123 352,-123"/>
<text text-anchor="start" x="406.5" y="-129.8" font-family="Times,serif" font-size="14.00">Conceptual Model</text>
<polygon fill="none" stroke="black" points="348.5,-120.5 348.5,-193.5 565.5,-193.5 565.5,-120.5 348.5,-120.5"/>
</g>
<!-- /req/sam&#45;cpt&#45;&gt;/req/sam&#45;cpt/Sampling -->
<g id="edge2" class="edge">
<title>/req/sam-cpt-&gt;/req/sam-cpt/Sampling</title>
<path fill="none" stroke="black" stroke-dasharray="5,2" d="M217.26,-462.33C239.77,-446.94 262.23,-427.38 277,-404 324.76,-328.38 254.68,-273.81 313,-206 318.53,-199.56 324.95,-193.97 331.94,-189.11"/>
<polygon fill="black" stroke="black" points="333.83,-192.06 340.4,-183.74 330.08,-186.15 333.83,-192.06"/>
</g>
<!-- /req/sam&#45;cpt/Sampler -->
<g id="node19" class="node">
<title>/req/sam-cpt/Sampler</title>
<polygon fill="none" stroke="black" points="355,-367 355,-388 560,-388 560,-367 355,-367"/>
<text text-anchor="start" x="398.5" y="-373.8" font-family="Times,serif" font-size="14.00">/req/sam-cpt/Sampler</text>
<polygon fill="none" stroke="black" points="355,-344 355,-365 560,-365 560,-344 355,-344"/>
<text text-anchor="start" x="358" y="-350.8" font-family="Times,serif" font-size="14.00">Conceptual Sampler Schema Model</text>
<polygon fill="none" stroke="black" points="355,-321 355,-342 560,-342 560,-321 355,-321"/>
<text text-anchor="start" x="406.5" y="-327.8" font-family="Times,serif" font-size="14.00">Conceptual Model</text>
<polygon fill="none" stroke="black" points="351.5,-318.5 351.5,-391.5 562.5,-391.5 562.5,-318.5 351.5,-318.5"/>
</g>
<!-- /req/sam&#45;cpt&#45;&gt;/req/sam&#45;cpt/Sampler -->
<g id="edge3" class="edge">
<title>/req/sam-cpt-&gt;/req/sam-cpt/Sampler</title>
<path fill="none" stroke="black" stroke-dasharray="5,2" d="M203.88,-462.4C235.93,-443.2 275.71,-420.85 313,-404 319.66,-400.99 326.56,-398.06 333.58,-395.22"/>
<polygon fill="black" stroke="black" points="335.19,-398.34 343.2,-391.41 332.61,-391.84 335.19,-398.34"/>
</g>
<!-- /req/sam&#45;cpt/SamplingProcedure -->
<g id="node20" class="node">
<title>/req/sam-cpt/SamplingProcedure</title>
<polygon fill="none" stroke="black" points="324,-565 324,-586 590,-586 590,-565 324,-565"/>
<text text-anchor="start" x="367" y="-571.8" font-family="Times,serif" font-size="14.00">/req/sam-cpt/SamplingProcedure</text>
<polygon fill="none" stroke="black" points="324,-542 324,-563 590,-563 590,-542 324,-542"/>
<text text-anchor="start" x="327" y="-548.8" font-family="Times,serif" font-size="14.00">Conceptual SamplingProcedure Schema Model</text>
<polygon fill="none" stroke="black" points="324,-519 324,-540 590,-540 590,-519 324,-519"/>
<text text-anchor="start" x="406" y="-525.8" font-family="Times,serif" font-size="14.00">Conceptual Model</text>
<polygon fill="none" stroke="black" points="321,-516.5 321,-589.5 593,-589.5 593,-516.5 321,-516.5"/>
</g>
<!-- /req/sam&#45;cpt&#45;&gt;/req/sam&#45;cpt/SamplingProcedure -->
<g id="edge4" class="edge">
<title>/req/sam-cpt-&gt;/req/sam-cpt/SamplingProcedure</title>
<path fill="none" stroke="black" stroke-dasharray="5,2" d="M237.91,-518.55C258.52,-521.8 280.73,-525.31 302.8,-528.8"/>
<polygon fill="black" stroke="black" points="302.5,-532.29 312.92,-530.4 303.59,-525.38 302.5,-532.29"/>
</g>
<!-- /req/sam&#45;cpt/Sample&#45;&gt;/req/sam&#45;cpt/Sample/Sample&#45;sem -->
<g id="edge5" class="edge">
<title>/req/sam-cpt/Sample-&gt;/req/sam-cpt/Sample/Sample-sem</title>
<path fill="none" stroke="black" stroke-dasharray="5,2" d="M568.45,-746.38C604.98,-744.85 645.61,-743.15 682.13,-741.62"/>
<polygon fill="black" stroke="black" points="682.47,-745.11 692.32,-741.19 682.18,-738.11 682.47,-745.11"/>
</g>
<!-- /req/sam&#45;cpt/Sample&#45;&gt;/req/sam&#45;cpt/Sample/preparationStep&#45;sem -->
<g id="edge7" class="edge">
<title>/req/sam-cpt/Sample-&gt;/req/sam-cpt/Sample/preparationStep-sem</title>
<path fill="none" stroke="black" stroke-dasharray="5,2" d="M568.09,-724.81C590.83,-719.68 614.65,-714.5 637,-710 648.98,-707.59 661.5,-705.2 674.01,-702.9"/>
<polygon fill="black" stroke="black" points="674.82,-706.31 684.03,-701.07 673.57,-699.42 674.82,-706.31"/>
</g>
<!-- /req/sam&#45;cpt/Sample&#45;&gt;/req/sam&#45;cpt/Sample/relatedObservation&#45;sem -->
<g id="edge8" class="edge">
<title>/req/sam-cpt/Sample-&gt;/req/sam-cpt/Sample/relatedObservation-sem</title>
<path fill="none" stroke="black" stroke-dasharray="5,2" d="M568.21,-720.65C579.77,-715.33 590.95,-709.15 601,-702 622.15,-686.95 614.72,-669.33 637,-656 641.85,-653.1 646.93,-650.49 652.16,-648.14"/>
<polygon fill="black" stroke="black" points="653.83,-651.24 661.75,-644.2 651.17,-644.77 653.83,-651.24"/>
</g>
<!-- /req/sam&#45;cpt/Sample&#45;&gt;/req/sam&#45;cpt/Sample/sampling&#45;sem -->
<g id="edge6" class="edge">
<title>/req/sam-cpt/Sample-&gt;/req/sam-cpt/Sample/sampling-sem</title>
<path fill="none" stroke="black" stroke-dasharray="5,2" d="M568.45,-764.21C603.44,-768.39 642.19,-773.03 677.49,-777.25"/>
<polygon fill="black" stroke="black" points="677.49,-780.77 687.83,-778.48 678.32,-773.82 677.49,-780.77"/>
</g>
<!-- /req/sam&#45;cpt/Sampling&#45;&gt;/req/sam&#45;cpt/Sampling/Sampling&#45;sem -->
<g id="edge9" class="edge">
<title>/req/sam-cpt/Sampling-&gt;/req/sam-cpt/Sampling/Sampling-sem</title>
<path fill="none" stroke="black" stroke-dasharray="5,2" d="M573.58,-124.97C583.37,-119.82 592.69,-113.87 601,-107 625.56,-86.7 610.85,-63.21 637,-45 647.38,-37.77 659.07,-32.27 671.26,-28.11"/>
<polygon fill="black" stroke="black" points="672.62,-31.36 681.14,-25.06 670.55,-24.67 672.62,-31.36"/>
</g>
<!-- /req/sam&#45;cpt/Sampling&#45;&gt;/req/sam&#45;cpt/Sampling/featureOfInterest&#45;sem -->
<g id="edge11" class="edge">
<title>/req/sam-cpt/Sampling-&gt;/req/sam-cpt/Sampling/featureOfInterest-sem</title>
<path fill="none" stroke="black" stroke-dasharray="5,2" d="M573.58,-164.95C598.59,-166.67 625.31,-168.5 651.17,-170.28"/>
<polygon fill="black" stroke="black" points="651.21,-173.79 661.42,-170.99 651.69,-166.81 651.21,-173.79"/>
</g>
<!-- /req/sam&#45;cpt/Sampling&#45;&gt;/req/sam&#45;cpt/Sampling/sample&#45;sem -->
<g id="edge10" class="edge">
<title>/req/sam-cpt/Sampling-&gt;/req/sam-cpt/Sampling/sample-sem</title>
<path fill="none" stroke="black" stroke-dasharray="5,2" d="M573.58,-146.29C607.21,-143.17 643.93,-139.77 677.52,-136.66"/>
<polygon fill="black" stroke="black" points="678.2,-140.11 687.84,-135.7 677.56,-133.14 678.2,-140.11"/>
</g>
<!-- /req/sam&#45;cpt/Sampling&#45;&gt;/req/sam&#45;cpt/Sampling/sampler&#45;sem -->
<g id="edge12" class="edge">
<title>/req/sam-cpt/Sampling-&gt;/req/sam-cpt/Sampling/sampler-sem</title>
<path fill="none" stroke="black" stroke-dasharray="5,2" d="M573.82,-116.84C594.7,-110.35 616.39,-104.1 637,-99 649.51,-95.9 662.66,-93.04 675.81,-90.41"/>
<polygon fill="black" stroke="black" points="676.7,-93.81 685.85,-88.46 675.37,-86.94 676.7,-93.81"/>
</g>
<!-- /req/sam&#45;cpt/Sampler&#45;&gt;/req/sam&#45;cpt/Sampler/Sampler&#45;sem -->
<g id="edge13" class="edge">
<title>/req/sam-cpt/Sampler-&gt;/req/sam-cpt/Sampler/Sampler-sem</title>
<path fill="none" stroke="black" stroke-dasharray="5,2" d="M570.78,-356.69C605.22,-357.2 643.12,-357.77 677.69,-358.28"/>
<polygon fill="black" stroke="black" points="677.77,-361.79 687.82,-358.44 677.88,-354.79 677.77,-361.79"/>
</g>
<!-- /req/sam&#45;cpt/Sampler&#45;&gt;/req/sam&#45;cpt/Sampler/implementedProcedure&#45;sem -->
<g id="edge15" class="edge">
<title>/req/sam-cpt/Sampler-&gt;/req/sam-cpt/Sampler/implementedProcedure-sem</title>
<path fill="none" stroke="black" stroke-dasharray="5,2" d="M570.78,-338.48C599.32,-334.3 630.24,-329.77 659.67,-325.46"/>
<polygon fill="black" stroke="black" points="660.2,-328.92 669.59,-324 659.19,-321.99 660.2,-328.92"/>
</g>
<!-- /req/sam&#45;cpt/Sampler&#45;&gt;/req/sam&#45;cpt/Sampler/sampling&#45;sem -->
<g id="edge14" class="edge">
<title>/req/sam-cpt/Sampler-&gt;/req/sam-cpt/Sampler/sampling-sem</title>
<path fill="none" stroke="black" stroke-dasharray="5,2" d="M570.56,-319.15C581.03,-314.78 591.32,-310.05 601,-305 618.5,-295.87 618.81,-286.66 637,-279 649.29,-273.82 662.53,-269.64 675.92,-266.25"/>
<polygon fill="black" stroke="black" points="676.76,-269.65 685.68,-263.93 675.14,-262.84 676.76,-269.65"/>
</g>
<!-- /req/sam&#45;cpt/SamplingProcedure&#45;&gt;/req/sam&#45;cpt/SamplingProcedure/Sampler&#45;sem -->
<g id="edge16" class="edge">
<title>/req/sam-cpt/SamplingProcedure-&gt;/req/sam-cpt/SamplingProcedure/Sampler-sem</title>
<path fill="none" stroke="black" stroke-dasharray="5,2" d="M584.18,-512.42C589.94,-509.74 595.57,-506.93 601,-504 618.83,-494.36 618.46,-484.2 637,-476 641.66,-473.94 646.46,-472.04 651.36,-470.28"/>
<polygon fill="black" stroke="black" points="652.52,-473.58 660.89,-467.07 650.29,-466.94 652.52,-473.58"/>
</g>
<!-- /req/sam&#45;cpt/SamplingProcedure&#45;&gt;/req/sam&#45;cpt/SamplingProcedure/implementation&#45;sem -->
<g id="edge18" class="edge">
<title>/req/sam-cpt/SamplingProcedure-&gt;/req/sam-cpt/SamplingProcedure/implementation-sem</title>
<path fill="none" stroke="black" stroke-dasharray="5,2" d="M601.31,-554.71C609.79,-554.82 618.35,-554.92 626.9,-555.02"/>
<polygon fill="black" stroke="black" points="626.89,-558.52 636.93,-555.14 626.98,-551.52 626.89,-558.52"/>
</g>
<!-- /req/sam&#45;cpt/SamplingProcedure&#45;&gt;/req/sam&#45;cpt/SamplingProcedure/sampling&#45;sem -->
<g id="edge17" class="edge">
<title>/req/sam-cpt/SamplingProcedure-&gt;/req/sam-cpt/SamplingProcedure/sampling-sem</title>
<path fill="none" stroke="black" stroke-dasharray="5,2" d="M601.31,-531.58C621.41,-528.57 641.98,-525.5 661.83,-522.53"/>
<polygon fill="black" stroke="black" points="662.45,-525.98 671.82,-521.04 661.42,-519.06 662.45,-525.98"/>
</g>
<!-- /req/sam&#45;core -->
<g id="node21" class="node">
<title>/req/sam-core</title>
<polygon fill="none" stroke="black" points="50.5,-367 50.5,-388 226.5,-388 226.5,-367 50.5,-367"/>
<text text-anchor="start" x="100.5" y="-373.8" font-family="Times,serif" font-size="14.00">/req/sam-core</text>
<polygon fill="none" stroke="black" points="50.5,-344 50.5,-365 226.5,-365 226.5,-344 50.5,-344"/>
<text text-anchor="start" x="53.5" y="-350.8" font-family="Times,serif" font-size="14.00">Core Sampling Schema Model</text>
<polygon fill="none" stroke="black" points="50.5,-321 50.5,-342 226.5,-342 226.5,-321 50.5,-321"/>
<text text-anchor="start" x="77" y="-327.8" font-family="Times,serif" font-size="14.00">Core Sampling Model</text>
<polygon fill="none" stroke="black" points="47.5,-318.5 47.5,-391.5 229.5,-391.5 229.5,-318.5 47.5,-318.5"/>
</g>
<!-- /req/sam&#45;core/Sample -->
<g id="node22" class="node">
<title>/req/sam-core/Sample</title>
<polygon fill="none" stroke="black" points="357,-664 357,-685 557,-685 557,-664 357,-664"/>
<text text-anchor="start" x="396.5" y="-670.8" font-family="Times,serif" font-size="14.00">/req/sam-core/Sample</text>
<polygon fill="none" stroke="black" points="357,-641 357,-662 557,-662 557,-641 357,-641"/>
<text text-anchor="start" x="360" y="-647.8" font-family="Times,serif" font-size="14.00">Conceptual Sample Schema Model</text>
<polygon fill="none" stroke="black" points="357,-618 357,-639 557,-639 557,-618 357,-618"/>
<text text-anchor="start" x="406" y="-624.8" font-family="Times,serif" font-size="14.00">Conceptual Model</text>
<polygon fill="none" stroke="black" points="354,-615.5 354,-688.5 560,-688.5 560,-615.5 354,-615.5"/>
</g>
<!-- /req/sam&#45;core&#45;&gt;/req/sam&#45;core/Sample -->
<g id="edge19" class="edge">
<title>/req/sam-core-&gt;/req/sam-core/Sample</title>
<path fill="none" stroke="black" stroke-dasharray="5,2" d="M215.75,-395.7C238.45,-411.2 261.41,-430.81 277,-454 315.01,-510.54 267.12,-552.64 313,-603 319.96,-610.64 328.17,-617.1 337.08,-622.54"/>
<polygon fill="black" stroke="black" points="335.38,-625.6 345.81,-627.46 338.82,-619.5 335.38,-625.6"/>
</g>
<!-- /req/sam&#45;core/Sampling -->
<g id="node23" class="node">
<title>/req/sam-core/Sampling</title>
<polygon fill="none" stroke="black" points="352,-70 352,-91 563,-91 563,-70 352,-70"/>
<text text-anchor="start" x="391.5" y="-76.8" font-family="Times,serif" font-size="14.00">/req/sam-core/Sampling</text>
<polygon fill="none" stroke="black" points="352,-47 352,-68 563,-68 563,-47 352,-47"/>
<text text-anchor="start" x="355" y="-53.8" font-family="Times,serif" font-size="14.00">Conceptual Sampling Schema Model</text>
<polygon fill="none" stroke="black" points="352,-24 352,-45 563,-45 563,-24 352,-24"/>
<text text-anchor="start" x="406.5" y="-30.8" font-family="Times,serif" font-size="14.00">Conceptual Model</text>
<polygon fill="none" stroke="black" points="348.5,-21.5 348.5,-94.5 565.5,-94.5 565.5,-21.5 348.5,-21.5"/>
</g>
<!-- /req/sam&#45;core&#45;&gt;/req/sam&#45;core/Sampling -->
<g id="edge20" class="edge">
<title>/req/sam-core-&gt;/req/sam-core/Sampling</title>
<path fill="none" stroke="black" stroke-dasharray="5,2" d="M157.87,-314.24C184.51,-259.53 238.9,-162.77 313,-107 318.77,-102.66 324.94,-98.69 331.38,-95.05"/>
<polygon fill="black" stroke="black" points="333.11,-98.09 340.3,-90.3 329.82,-91.91 333.11,-98.09"/>
</g>
<!-- /req/sam&#45;core/Sampler -->
<g id="node24" class="node">
<title>/req/sam-core/Sampler</title>
<polygon fill="none" stroke="black" points="355,-268 355,-289 560,-289 560,-268 355,-268"/>
<text text-anchor="start" x="395" y="-274.8" font-family="Times,serif" font-size="14.00">/req/sam-core/Sampler</text>
<polygon fill="none" stroke="black" points="355,-245 355,-266 560,-266 560,-245 355,-245"/>
<text text-anchor="start" x="358" y="-251.8" font-family="Times,serif" font-size="14.00">Conceptual Sampler Schema Model</text>
<polygon fill="none" stroke="black" points="355,-222 355,-243 560,-243 560,-222 355,-222"/>
<text text-anchor="start" x="406.5" y="-228.8" font-family="Times,serif" font-size="14.00">Conceptual Model</text>
<polygon fill="none" stroke="black" points="351.5,-219.5 351.5,-292.5 562.5,-292.5 562.5,-219.5 351.5,-219.5"/>
</g>
<!-- /req/sam&#45;core&#45;&gt;/req/sam&#45;core/Sampler -->
<g id="edge21" class="edge">
<title>/req/sam-core-&gt;/req/sam-core/Sampler</title>
<path fill="none" stroke="black" stroke-dasharray="5,2" d="M237.91,-324.22C268.17,-314.75 301.85,-304.22 333.52,-294.31"/>
<polygon fill="black" stroke="black" points="334.77,-297.59 343.27,-291.26 332.68,-290.91 334.77,-297.59"/>
</g>
<!-- /req/sam&#45;core/SamplingProcedure -->
<g id="node25" class="node">
<title>/req/sam-core/SamplingProcedure</title>
<polygon fill="none" stroke="black" points="324,-466 324,-487 590,-487 590,-466 324,-466"/>
<text text-anchor="start" x="363.5" y="-472.8" font-family="Times,serif" font-size="14.00">/req/sam-core/SamplingProcedure</text>
<polygon fill="none" stroke="black" points="324,-443 324,-464 590,-464 590,-443 324,-443"/>
<text text-anchor="start" x="327" y="-449.8" font-family="Times,serif" font-size="14.00">Conceptual SamplingProcedure Schema Model</text>
<polygon fill="none" stroke="black" points="324,-420 324,-441 590,-441 590,-420 324,-420"/>
<text text-anchor="start" x="406" y="-426.8" font-family="Times,serif" font-size="14.00">Conceptual Model</text>
<polygon fill="none" stroke="black" points="321,-417.5 321,-490.5 593,-490.5 593,-417.5 321,-417.5"/>
</g>
<!-- /req/sam&#45;core&#45;&gt;/req/sam&#45;core/SamplingProcedure -->
<g id="edge22" class="edge">
<title>/req/sam-core-&gt;/req/sam-core/SamplingProcedure</title>
<path fill="none" stroke="black" stroke-dasharray="5,2" d="M237.91,-385.78C262.88,-393.59 290.18,-402.13 316.75,-410.44"/>
<polygon fill="black" stroke="black" points="315.92,-413.85 326.51,-413.49 318.01,-407.17 315.92,-413.85"/>
</g>
<!-- /req/sam&#45;core/Sample&#45;&gt;/req/sam&#45;cpt/Sample/Sample&#45;sem -->
<g id="edge23" class="edge">
<title>/req/sam-core/Sample-&gt;/req/sam-cpt/Sample/Sample-sem</title>
<path fill="none" stroke="black" stroke-dasharray="5,2" d="M568.06,-690.36C590.69,-697.48 614.49,-704.43 637,-710 651.51,-713.59 666.9,-716.88 682.13,-719.83"/>
<polygon fill="black" stroke="black" points="681.63,-723.29 692.1,-721.72 682.93,-716.42 681.63,-723.29"/>
</g>
<!-- /req/sam&#45;core/Sample&#45;&gt;/req/sam&#45;cpt/Sample/preparationStep&#45;sem -->
<g id="edge25" class="edge">
<title>/req/sam-core/Sample-&gt;/req/sam-cpt/Sample/preparationStep-sem</title>
<path fill="none" stroke="black" stroke-dasharray="5,2" d="M568.45,-662.24C597.78,-664.95 629.74,-667.92 660.1,-670.73"/>
<polygon fill="black" stroke="black" points="660.05,-674.24 670.33,-671.68 660.7,-667.27 660.05,-674.24"/>
</g>
<!-- /req/sam&#45;core/Sample&#45;&gt;/req/sam&#45;cpt/Sample/relatedObservation&#45;sem -->
<g id="edge26" class="edge">
<title>/req/sam-core/Sample-&gt;/req/sam-cpt/Sample/relatedObservation-sem</title>
<path fill="none" stroke="black" stroke-dasharray="5,2" d="M568.45,-644.41C595.06,-642.58 623.85,-640.6 651.64,-638.69"/>
<polygon fill="black" stroke="black" points="652.09,-642.16 661.82,-637.99 651.61,-635.18 652.09,-642.16"/>
</g>
<!-- /req/sam&#45;core/Sample&#45;&gt;/req/sam&#45;cpt/Sample/sampling&#45;sem -->
<g id="edge24" class="edge">
<title>/req/sam-core/Sample-&gt;/req/sam-cpt/Sample/sampling-sem</title>
<path fill="none" stroke="black" stroke-dasharray="5,2" d="M568.17,-681.28C579.93,-687.03 591.17,-693.88 601,-702 625.56,-722.3 610.85,-745.79 637,-764 649.15,-772.46 663.1,-778.55 677.54,-782.9"/>
<polygon fill="black" stroke="black" points="677.04,-786.39 687.61,-785.64 678.88,-779.63 677.04,-786.39"/>
</g>
<!-- /req/sam&#45;core/Sampling&#45;&gt;/req/sam&#45;cpt/Sampling/Sampling&#45;sem -->
<g id="edge27" class="edge">
<title>/req/sam-core/Sampling-&gt;/req/sam-cpt/Sampling/Sampling-sem</title>
<path fill="none" stroke="black" stroke-dasharray="5,2" d="M573.58,-44.18C605.11,-40.41 639.35,-36.31 671.18,-32.51"/>
<polygon fill="black" stroke="black" points="671.91,-35.95 681.42,-31.28 671.08,-28.99 671.91,-35.95"/>
</g>
<!-- /req/sam&#45;core/Sampling&#45;&gt;/req/sam&#45;cpt/Sampling/featureOfInterest&#45;sem -->
<g id="edge29" class="edge">
<title>/req/sam-core/Sampling-&gt;/req/sam-cpt/Sampling/featureOfInterest-sem</title>
<path fill="none" stroke="black" stroke-dasharray="5,2" d="M573.71,-90.97C583.31,-95.67 592.55,-100.99 601,-107 622.15,-122.05 614.72,-139.67 637,-153 641.78,-155.86 646.77,-158.43 651.93,-160.75"/>
<polygon fill="black" stroke="black" points="650.78,-164.06 661.35,-164.65 653.45,-157.6 650.78,-164.06"/>
</g>
<!-- /req/sam&#45;core/Sampling&#45;&gt;/req/sam&#45;cpt/Sampling/sample&#45;sem -->
<g id="edge28" class="edge">
<title>/req/sam-core/Sampling-&gt;/req/sam-cpt/Sampling/sample-sem</title>
<path fill="none" stroke="black" stroke-dasharray="5,2" d="M573.83,-85.48C594.81,-90.19 616.53,-94.88 637,-99 650.19,-101.65 664.03,-104.28 677.8,-106.8"/>
<polygon fill="black" stroke="black" points="677.34,-110.27 687.8,-108.61 678.58,-103.38 677.34,-110.27"/>
</g>
<!-- /req/sam&#45;core/Sampling&#45;&gt;/req/sam&#45;cpt/Sampling/sampler&#45;sem -->
<g id="edge30" class="edge">
<title>/req/sam-core/Sampling-&gt;/req/sam-cpt/Sampling/sampler-sem</title>
<path fill="none" stroke="black" stroke-dasharray="5,2" d="M573.58,-62.84C606.61,-64.22 642.62,-65.73 675.72,-67.11"/>
<polygon fill="black" stroke="black" points="675.76,-70.62 685.9,-67.54 676.05,-63.62 675.76,-70.62"/>
</g>
<!-- /req/sam&#45;core/Sampler&#45;&gt;/req/sam&#45;cpt/Sampler/Sampler&#45;sem -->
<g id="edge31" class="edge">
<title>/req/sam-core/Sampler-&gt;/req/sam-cpt/Sampler/Sampler-sem</title>
<path fill="none" stroke="black" stroke-dasharray="5,2" d="M570.77,-290.65C581.19,-295.03 591.42,-299.82 601,-305 618.83,-314.64 618.46,-324.8 637,-333 649.93,-338.72 663.96,-343.23 678.13,-346.79"/>
<polygon fill="black" stroke="black" points="677.41,-350.21 687.95,-349.1 679.02,-343.4 677.41,-350.21"/>
</g>
<!-- /req/sam&#45;core/Sampler&#45;&gt;/req/sam&#45;cpt/Sampler/implementedProcedure&#45;sem -->
<g id="edge33" class="edge">
<title>/req/sam-core/Sampler-&gt;/req/sam-cpt/Sampler/implementedProcedure-sem</title>
<path fill="none" stroke="black" stroke-dasharray="5,2" d="M570.78,-272.86C600,-277.23 631.72,-281.97 661.78,-286.46"/>
<polygon fill="black" stroke="black" points="661.5,-289.96 671.9,-287.97 662.53,-283.03 661.5,-289.96"/>
</g>
<!-- /req/sam&#45;core/Sampler&#45;&gt;/req/sam&#45;cpt/Sampler/sampling&#45;sem -->
<g id="edge32" class="edge">
<title>/req/sam-core/Sampler-&gt;/req/sam-cpt/Sampler/sampling-sem</title>
<path fill="none" stroke="black" stroke-dasharray="5,2" d="M570.78,-254.65C604.47,-254.25 641.47,-253.81 675.43,-253.4"/>
<polygon fill="black" stroke="black" points="675.9,-256.89 685.86,-253.28 675.82,-249.9 675.9,-256.89"/>
</g>
<!-- /req/sam&#45;core/SamplingProcedure&#45;&gt;/req/sam&#45;cpt/SamplingProcedure/Sampler&#45;sem -->
<g id="edge34" class="edge">
<title>/req/sam-core/SamplingProcedure-&gt;/req/sam-cpt/SamplingProcedure/Sampler-sem</title>
<path fill="none" stroke="black" stroke-dasharray="5,2" d="M601.31,-451.86C616.59,-451.63 632.13,-451.4 647.43,-451.17"/>
<polygon fill="black" stroke="black" points="647.49,-454.67 657.43,-451.02 647.38,-447.67 647.49,-454.67"/>
</g>
<!-- /req/sam&#45;core/SamplingProcedure&#45;&gt;/req/sam&#45;cpt/SamplingProcedure/implementation&#45;sem -->
<g id="edge36" class="edge">
<title>/req/sam-core/SamplingProcedure-&gt;/req/sam-cpt/SamplingProcedure/implementation-sem</title>
<path fill="none" stroke="black" stroke-dasharray="5,2" d="M581.45,-494.56C588.15,-497.57 594.7,-500.72 601,-504 618.5,-513.13 618.81,-522.34 637,-530 642.05,-532.13 647.26,-534.09 652.57,-535.89"/>
<polygon fill="black" stroke="black" points="651.65,-539.27 662.24,-538.98 653.78,-532.6 651.65,-539.27"/>
</g>
<!-- /req/sam&#45;core/SamplingProcedure&#45;&gt;/req/sam&#45;cpt/SamplingProcedure/sampling&#45;sem -->
<g id="edge35" class="edge">
<title>/req/sam-core/SamplingProcedure-&gt;/req/sam-cpt/SamplingProcedure/sampling-sem</title>
<path fill="none" stroke="black" stroke-dasharray="5,2" d="M601.31,-474.99C620.64,-477.82 640.41,-480.72 659.54,-483.52"/>
<polygon fill="black" stroke="black" points="659.09,-486.99 669.49,-484.98 660.1,-480.07 659.09,-486.99"/>
</g>
</g>
</svg>